<svg width="128" height="30" viewBox="0 0 128 30" fill="none" xmlns="http://www.w3.org/2000/svg">
<g filter="url(#filter0_d_2807_3834)">
<rect x="2" y="2" width="124" height="26" rx="13" fill="#F9AA2B"/>
<path d="M20.6 10.504H21.908L25.568 19H23.84L23.048 17.056H19.364L18.596 19H16.904L20.6 10.504ZM22.52 15.76L21.212 12.304L19.88 15.76H22.52ZM26.5767 13.24H27.9447V14.164H27.9687C28.0967 13.876 28.3167 13.624 28.6287 13.408C28.9487 13.184 29.3247 13.072 29.7567 13.072C30.1327 13.072 30.4527 13.14 30.7167 13.276C30.9887 13.404 31.2087 13.576 31.3767 13.792C31.5527 14.008 31.6807 14.256 31.7607 14.536C31.8407 14.816 31.8807 15.104 31.8807 15.4V19H30.4407V15.808C30.4407 15.64 30.4287 15.464 30.4047 15.28C30.3807 15.096 30.3287 14.932 30.2487 14.788C30.1687 14.636 30.0567 14.512 29.9127 14.416C29.7767 14.32 29.5927 14.272 29.3607 14.272C29.1287 14.272 28.9287 14.32 28.7607 14.416C28.5927 14.504 28.4527 14.62 28.3407 14.764C28.2367 14.908 28.1567 15.076 28.1007 15.268C28.0447 15.452 28.0167 15.64 28.0167 15.832V19H26.5767V13.24ZM33.801 13.24H35.169V14.164H35.193C35.321 13.876 35.541 13.624 35.853 13.408C36.173 13.184 36.549 13.072 36.981 13.072C37.357 13.072 37.677 13.14 37.941 13.276C38.213 13.404 38.433 13.576 38.601 13.792C38.777 14.008 38.905 14.256 38.985 14.536C39.065 14.816 39.105 15.104 39.105 15.4V19H37.665V15.808C37.665 15.64 37.653 15.464 37.629 15.28C37.605 15.096 37.553 14.932 37.473 14.788C37.393 14.636 37.281 14.512 37.137 14.416C37.001 14.32 36.817 14.272 36.585 14.272C36.353 14.272 36.153 14.32 35.985 14.416C35.817 14.504 35.677 14.62 35.565 14.764C35.461 14.908 35.381 15.076 35.325 15.268C35.269 15.452 35.241 15.64 35.241 15.832V19H33.801V13.24ZM40.6894 16.096C40.6894 15.64 40.7694 15.228 40.9294 14.86C41.0974 14.484 41.3214 14.164 41.6014 13.9C41.8814 13.636 42.2134 13.432 42.5974 13.288C42.9814 13.144 43.3894 13.072 43.8214 13.072C44.2534 13.072 44.6614 13.144 45.0454 13.288C45.4294 13.432 45.7614 13.636 46.0414 13.9C46.3214 14.164 46.5414 14.484 46.7014 14.86C46.8694 15.228 46.9534 15.64 46.9534 16.096C46.9534 16.552 46.8694 16.968 46.7014 17.344C46.5414 17.72 46.3214 18.044 46.0414 18.316C45.7614 18.58 45.4294 18.788 45.0454 18.94C44.6614 19.092 44.2534 19.168 43.8214 19.168C43.3894 19.168 42.9814 19.092 42.5974 18.94C42.2134 18.788 41.8814 18.58 41.6014 18.316C41.3214 18.044 41.0974 17.72 40.9294 17.344C40.7694 16.968 40.6894 16.552 40.6894 16.096ZM42.1534 16.096C42.1534 16.32 42.1854 16.544 42.2494 16.768C42.3214 16.992 42.4254 17.192 42.5614 17.368C42.6974 17.544 42.8694 17.688 43.0774 17.8C43.2854 17.912 43.5334 17.968 43.8214 17.968C44.1094 17.968 44.3574 17.912 44.5654 17.8C44.7734 17.688 44.9454 17.544 45.0814 17.368C45.2174 17.192 45.3174 16.992 45.3814 16.768C45.4534 16.544 45.4894 16.32 45.4894 16.096C45.4894 15.872 45.4534 15.652 45.3814 15.436C45.3174 15.212 45.2174 15.012 45.0814 14.836C44.9454 14.66 44.7734 14.52 44.5654 14.416C44.3574 14.304 44.1094 14.248 43.8214 14.248C43.5334 14.248 43.2854 14.304 43.0774 14.416C42.8694 14.52 42.6974 14.66 42.5614 14.836C42.4254 15.012 42.3214 15.212 42.2494 15.436C42.1854 15.652 42.1534 15.872 42.1534 16.096ZM53.8456 19H52.4776V18.076H52.4536C52.3256 18.364 52.1016 18.62 51.7816 18.844C51.4696 19.06 51.0976 19.168 50.6656 19.168C50.2896 19.168 49.9656 19.104 49.6936 18.976C49.4296 18.84 49.2096 18.664 49.0336 18.448C48.8656 18.232 48.7416 17.984 48.6616 17.704C48.5816 17.424 48.5416 17.136 48.5416 16.84V13.24H49.9816V16.432C49.9816 16.6 49.9936 16.776 50.0176 16.96C50.0416 17.144 50.0936 17.312 50.1736 17.464C50.2536 17.608 50.3616 17.728 50.4976 17.824C50.6416 17.92 50.8296 17.968 51.0616 17.968C51.2856 17.968 51.4816 17.924 51.6496 17.836C51.8256 17.74 51.9656 17.62 52.0696 17.476C52.1816 17.332 52.2656 17.168 52.3216 16.984C52.3776 16.792 52.4056 16.6 52.4056 16.408V13.24H53.8456V19ZM55.814 13.24H57.182V14.164H57.206C57.334 13.876 57.554 13.624 57.866 13.408C58.186 13.184 58.562 13.072 58.994 13.072C59.37 13.072 59.69 13.14 59.954 13.276C60.226 13.404 60.446 13.576 60.614 13.792C60.79 14.008 60.918 14.256 60.998 14.536C61.078 14.816 61.118 15.104 61.118 15.4V19H59.678V15.808C59.678 15.64 59.666 15.464 59.642 15.28C59.618 15.096 59.566 14.932 59.486 14.788C59.406 14.636 59.294 14.512 59.15 14.416C59.014 14.32 58.83 14.272 58.598 14.272C58.366 14.272 58.166 14.32 57.998 14.416C57.83 14.504 57.69 14.62 57.578 14.764C57.474 14.908 57.394 15.076 57.338 15.268C57.282 15.452 57.254 15.64 57.254 15.832V19H55.814V13.24ZM66.9744 14.836C66.8624 14.676 66.6944 14.544 66.4704 14.44C66.2464 14.328 66.0184 14.272 65.7864 14.272C65.5224 14.272 65.2904 14.328 65.0904 14.44C64.8904 14.544 64.7224 14.684 64.5864 14.86C64.4584 15.036 64.3624 15.236 64.2984 15.46C64.2344 15.676 64.2024 15.896 64.2024 16.12C64.2024 16.344 64.2344 16.568 64.2984 16.792C64.3704 17.008 64.4744 17.204 64.6104 17.38C64.7464 17.556 64.9144 17.7 65.1144 17.812C65.3224 17.916 65.5624 17.968 65.8344 17.968C66.0584 17.968 66.2824 17.924 66.5064 17.836C66.7304 17.748 66.9104 17.62 67.0464 17.452L67.9464 18.364C67.7064 18.62 67.3984 18.82 67.0224 18.964C66.6544 19.1 66.2544 19.168 65.8224 19.168C65.3984 19.168 64.9944 19.1 64.6104 18.964C64.2344 18.828 63.9024 18.628 63.6144 18.364C63.3344 18.1 63.1104 17.78 62.9424 17.404C62.7824 17.028 62.7024 16.6 62.7024 16.12C62.7024 15.656 62.7824 15.236 62.9424 14.86C63.1104 14.484 63.3344 14.164 63.6144 13.9C63.8944 13.636 64.2184 13.432 64.5864 13.288C64.9624 13.144 65.3624 13.072 65.7864 13.072C66.2104 13.072 66.6184 13.152 67.0104 13.312C67.4104 13.472 67.7264 13.692 67.9584 13.972L66.9744 14.836ZM73.1938 15.544C73.1938 15.36 73.1658 15.184 73.1098 15.016C73.0618 14.848 72.9818 14.7 72.8698 14.572C72.7578 14.444 72.6138 14.344 72.4378 14.272C72.2698 14.192 72.0698 14.152 71.8378 14.152C71.4058 14.152 71.0378 14.284 70.7338 14.548C70.4378 14.804 70.2738 15.136 70.2418 15.544H73.1938ZM74.6338 16.192C74.6338 16.256 74.6338 16.32 74.6338 16.384C74.6338 16.448 74.6298 16.512 74.6218 16.576H70.2418C70.2578 16.784 70.3098 16.976 70.3978 17.152C70.4938 17.32 70.6178 17.468 70.7698 17.596C70.9218 17.716 71.0938 17.812 71.2858 17.884C71.4778 17.956 71.6778 17.992 71.8858 17.992C72.2458 17.992 72.5498 17.928 72.7978 17.8C73.0458 17.664 73.2498 17.48 73.4098 17.248L74.3698 18.016C73.8018 18.784 72.9778 19.168 71.8978 19.168C71.4498 19.168 71.0378 19.1 70.6618 18.964C70.2858 18.82 69.9578 18.62 69.6778 18.364C69.4058 18.108 69.1898 17.796 69.0298 17.428C68.8778 17.052 68.8018 16.628 68.8018 16.156C68.8018 15.692 68.8778 15.272 69.0298 14.896C69.1898 14.512 69.4058 14.188 69.6778 13.924C69.9498 13.652 70.2698 13.444 70.6378 13.3C71.0138 13.148 71.4178 13.072 71.8498 13.072C72.2498 13.072 72.6178 13.14 72.9538 13.276C73.2978 13.404 73.5938 13.6 73.8418 13.864C74.0898 14.12 74.2818 14.444 74.4178 14.836C74.5618 15.22 74.6338 15.672 74.6338 16.192ZM83.1444 13.072C83.5204 13.072 83.8404 13.14 84.1044 13.276C84.3764 13.404 84.5964 13.576 84.7644 13.792C84.9404 14.008 85.0684 14.256 85.1484 14.536C85.2284 14.816 85.2684 15.104 85.2684 15.4V19H83.8284V15.808C83.8284 15.64 83.8164 15.464 83.7924 15.28C83.7684 15.096 83.7164 14.932 83.6364 14.788C83.5564 14.636 83.4444 14.512 83.3004 14.416C83.1644 14.32 82.9804 14.272 82.7484 14.272C82.5244 14.272 82.3324 14.32 82.1724 14.416C82.0124 14.512 81.8804 14.636 81.7764 14.788C81.6724 14.94 81.5964 15.112 81.5484 15.304C81.5004 15.488 81.4764 15.672 81.4764 15.856V19H80.0364V15.52C80.0364 15.16 79.9484 14.864 79.7724 14.632C79.6044 14.392 79.3364 14.272 78.9684 14.272C78.7524 14.272 78.5644 14.32 78.4044 14.416C78.2444 14.504 78.1124 14.62 78.0084 14.764C77.9124 14.908 77.8364 15.076 77.7804 15.268C77.7324 15.452 77.7084 15.64 77.7084 15.832V19H76.2684V13.24H77.6364V14.164H77.6604C77.7244 14.02 77.8084 13.884 77.9124 13.756C78.0244 13.628 78.1524 13.512 78.2964 13.408C78.4484 13.304 78.6204 13.224 78.8124 13.168C79.0044 13.104 79.2164 13.072 79.4484 13.072C79.8964 13.072 80.2684 13.172 80.5644 13.372C80.8604 13.572 81.0884 13.836 81.2484 14.164C81.4404 13.812 81.6964 13.544 82.0164 13.36C82.3364 13.168 82.7124 13.072 83.1444 13.072ZM91.2402 15.544C91.2402 15.36 91.2122 15.184 91.1562 15.016C91.1082 14.848 91.0282 14.7 90.9162 14.572C90.8042 14.444 90.6602 14.344 90.4842 14.272C90.3162 14.192 90.1162 14.152 89.8842 14.152C89.4522 14.152 89.0842 14.284 88.7802 14.548C88.4842 14.804 88.3202 15.136 88.2882 15.544H91.2402ZM92.6802 16.192C92.6802 16.256 92.6802 16.32 92.6802 16.384C92.6802 16.448 92.6762 16.512 92.6682 16.576H88.2882C88.3042 16.784 88.3562 16.976 88.4442 17.152C88.5402 17.32 88.6642 17.468 88.8162 17.596C88.9682 17.716 89.1402 17.812 89.3322 17.884C89.5242 17.956 89.7242 17.992 89.9322 17.992C90.2922 17.992 90.5962 17.928 90.8442 17.8C91.0922 17.664 91.2962 17.48 91.4562 17.248L92.4162 18.016C91.8482 18.784 91.0242 19.168 89.9442 19.168C89.4962 19.168 89.0842 19.1 88.7082 18.964C88.3322 18.82 88.0042 18.62 87.7242 18.364C87.4522 18.108 87.2362 17.796 87.0762 17.428C86.9242 17.052 86.8482 16.628 86.8482 16.156C86.8482 15.692 86.9242 15.272 87.0762 14.896C87.2362 14.512 87.4522 14.188 87.7242 13.924C87.9962 13.652 88.3162 13.444 88.6842 13.3C89.0602 13.148 89.4642 13.072 89.8962 13.072C90.2962 13.072 90.6642 13.14 91.0002 13.276C91.3442 13.404 91.6402 13.6 91.8882 13.864C92.1362 14.12 92.3282 14.444 92.4642 14.836C92.6082 15.22 92.6802 15.672 92.6802 16.192ZM94.3148 13.24H95.6828V14.164H95.7068C95.8348 13.876 96.0548 13.624 96.3668 13.408C96.6868 13.184 97.0628 13.072 97.4948 13.072C97.8708 13.072 98.1908 13.14 98.4548 13.276C98.7268 13.404 98.9468 13.576 99.1148 13.792C99.2908 14.008 99.4188 14.256 99.4988 14.536C99.5788 14.816 99.6188 15.104 99.6188 15.4V19H98.1788V15.808C98.1788 15.64 98.1668 15.464 98.1428 15.28C98.1188 15.096 98.0668 14.932 97.9868 14.788C97.9068 14.636 97.7948 14.512 97.6508 14.416C97.5148 14.32 97.3308 14.272 97.0988 14.272C96.8668 14.272 96.6668 14.32 96.4988 14.416C96.3308 14.504 96.1908 14.62 96.0788 14.764C95.9748 14.908 95.8948 15.076 95.8388 15.268C95.7828 15.452 95.7548 15.64 95.7548 15.832V19H94.3148V13.24ZM100.711 14.392V13.24H101.719V11.572H103.135V13.24H104.575V14.392H103.135V17.068C103.135 17.324 103.179 17.536 103.267 17.704C103.363 17.872 103.571 17.956 103.891 17.956C103.987 17.956 104.091 17.948 104.203 17.932C104.315 17.908 104.415 17.876 104.503 17.836L104.551 18.964C104.423 19.012 104.271 19.048 104.095 19.072C103.919 19.104 103.751 19.12 103.591 19.12C103.207 19.12 102.895 19.068 102.655 18.964C102.415 18.852 102.223 18.704 102.079 18.52C101.943 18.328 101.847 18.112 101.791 17.872C101.743 17.624 101.719 17.36 101.719 17.08V14.392H100.711ZM109.013 14.776C108.885 14.608 108.709 14.464 108.485 14.344C108.261 14.216 108.017 14.152 107.753 14.152C107.521 14.152 107.309 14.2 107.117 14.296C106.925 14.392 106.829 14.552 106.829 14.776C106.829 15 106.933 15.16 107.141 15.256C107.357 15.344 107.669 15.436 108.077 15.532C108.293 15.58 108.509 15.644 108.725 15.724C108.949 15.804 109.149 15.912 109.325 16.048C109.509 16.176 109.657 16.34 109.769 16.54C109.881 16.732 109.937 16.968 109.937 17.248C109.937 17.6 109.869 17.9 109.733 18.148C109.605 18.388 109.429 18.584 109.205 18.736C108.989 18.888 108.733 18.996 108.437 19.06C108.149 19.132 107.849 19.168 107.537 19.168C107.089 19.168 106.653 19.088 106.229 18.928C105.805 18.76 105.453 18.524 105.173 18.22L106.121 17.332C106.281 17.54 106.489 17.712 106.745 17.848C107.001 17.984 107.285 18.052 107.597 18.052C107.701 18.052 107.805 18.04 107.909 18.016C108.021 17.992 108.121 17.956 108.209 17.908C108.305 17.852 108.381 17.78 108.437 17.692C108.493 17.604 108.521 17.496 108.521 17.368C108.521 17.128 108.409 16.956 108.185 16.852C107.969 16.748 107.641 16.644 107.201 16.54C106.985 16.492 106.773 16.432 106.565 16.36C106.365 16.28 106.185 16.18 106.025 16.06C105.865 15.932 105.737 15.776 105.641 15.592C105.545 15.408 105.497 15.18 105.497 14.908C105.497 14.588 105.561 14.312 105.689 14.08C105.825 13.848 106.001 13.66 106.217 13.516C106.433 13.364 106.677 13.252 106.949 13.18C107.221 13.108 107.501 13.072 107.789 13.072C108.205 13.072 108.609 13.144 109.001 13.288C109.401 13.432 109.717 13.652 109.949 13.948L109.013 14.776Z" fill="white"/>
</g>
<defs>
<filter id="filter0_d_2807_3834" x="0" y="0" width="128" height="30" filterUnits="userSpaceOnUse" color-interpolation-filters="sRGB">
<feFlood flood-opacity="0" result="BackgroundImageFix"/>
<feColorMatrix in="SourceAlpha" type="matrix" values="0 0 0 0 0 0 0 0 0 0 0 0 0 0 0 0 0 0 127 0" result="hardAlpha"/>
<feOffset/>
<feGaussianBlur stdDeviation="1"/>
<feComposite in2="hardAlpha" operator="out"/>
<feColorMatrix type="matrix" values="0 0 0 0 0 0 0 0 0 0 0 0 0 0 0 0 0 0 0.25 0"/>
<feBlend mode="normal" in2="BackgroundImageFix" result="effect1_dropShadow_2807_3834"/>
<feBlend mode="normal" in="SourceGraphic" in2="effect1_dropShadow_2807_3834" result="shape"/>
</filter>
</defs>
</svg>
