<svg width="170" height="56" viewBox="0 0 170 56" fill="none" xmlns="http://www.w3.org/2000/svg">
<rect x="0.5" y="0.5" width="169" height="55" rx="27.5" stroke="#FF3B30"/>
<path d="M69.299 24.328C69.0003 23.9227 68.611 23.6293 68.131 23.448C67.651 23.256 67.1817 23.16 66.723 23.16C66.1363 23.16 65.603 23.2667 65.123 23.48C64.643 23.6933 64.227 23.9867 63.875 24.36C63.5337 24.7333 63.267 25.1707 63.075 25.672C62.8937 26.1733 62.803 26.7173 62.803 27.304C62.803 27.9227 62.8937 28.488 63.075 29C63.2563 29.512 63.5123 29.9547 63.843 30.328C64.1843 30.6907 64.5897 30.9733 65.059 31.176C65.5283 31.3787 66.0563 31.48 66.643 31.48C67.251 31.48 67.7897 31.3627 68.259 31.128C68.7283 30.8827 69.107 30.5627 69.395 30.168L71.011 31.304C70.5097 31.9333 69.8963 32.424 69.171 32.776C68.4457 33.1173 67.5977 33.288 66.627 33.288C65.7417 33.288 64.9257 33.144 64.179 32.856C63.443 32.5573 62.8083 32.1467 62.275 31.624C61.7417 31.0907 61.3257 30.4613 61.027 29.736C60.7283 29 60.579 28.1893 60.579 27.304C60.579 26.3973 60.7337 25.5813 61.043 24.856C61.363 24.12 61.795 23.496 62.339 22.984C62.8937 22.472 63.5443 22.0773 64.291 21.8C65.0377 21.5227 65.8483 21.384 66.723 21.384C67.0857 21.384 67.4643 21.4213 67.859 21.496C68.2537 21.56 68.6323 21.6667 68.995 21.816C69.3577 21.9547 69.699 22.1307 70.019 22.344C70.339 22.5573 70.611 22.8133 70.835 23.112L69.299 24.328ZM76.6544 32.024H76.6064C76.4144 32.3653 76.105 32.648 75.6784 32.872C75.2517 33.0853 74.7664 33.192 74.2224 33.192C73.913 33.192 73.5877 33.1493 73.2464 33.064C72.9157 32.9893 72.6064 32.8613 72.3184 32.68C72.041 32.488 71.8064 32.2427 71.6144 31.944C71.433 31.6347 71.3424 31.256 71.3424 30.808C71.3424 30.232 71.5024 29.7733 71.8224 29.432C72.153 29.0907 72.5744 28.8293 73.0864 28.648C73.5984 28.4667 74.1637 28.3493 74.7824 28.296C75.4117 28.232 76.025 28.2 76.6224 28.2V28.008C76.6224 27.528 76.4464 27.176 76.0944 26.952C75.753 26.7173 75.3424 26.6 74.8624 26.6C74.457 26.6 74.0677 26.6853 73.6944 26.856C73.321 27.0267 73.0117 27.2347 72.7664 27.48L71.7744 26.312C72.2117 25.9067 72.713 25.6027 73.2784 25.4C73.8544 25.1973 74.4357 25.096 75.0224 25.096C75.705 25.096 76.265 25.192 76.7024 25.384C77.1504 25.576 77.5024 25.8267 77.7584 26.136C78.0144 26.4453 78.1904 26.792 78.2864 27.176C78.393 27.56 78.4464 27.944 78.4464 28.328V33H76.6544V32.024ZM76.6224 29.496H76.1904C75.881 29.496 75.5557 29.512 75.2144 29.544C74.873 29.5653 74.5584 29.624 74.2704 29.72C73.9824 29.8053 73.7424 29.9333 73.5504 30.104C73.3584 30.264 73.2624 30.488 73.2624 30.776C73.2624 30.9573 73.2997 31.112 73.3744 31.24C73.4597 31.3573 73.5664 31.4533 73.6944 31.528C73.8224 31.6027 73.9664 31.656 74.1264 31.688C74.2864 31.72 74.4464 31.736 74.6064 31.736C75.2677 31.736 75.769 31.56 76.1104 31.208C76.4517 30.856 76.6224 30.376 76.6224 29.768V29.496ZM80.6833 25.32H82.5073V26.552H82.5393C82.7099 26.168 83.0033 25.832 83.4193 25.544C83.8459 25.2453 84.3473 25.096 84.9233 25.096C85.4246 25.096 85.8513 25.1867 86.2033 25.368C86.5659 25.5387 86.8593 25.768 87.0833 26.056C87.3179 26.344 87.4886 26.6747 87.5953 27.048C87.7019 27.4213 87.7552 27.8053 87.7552 28.2V33H85.8353V28.744C85.8353 28.52 85.8193 28.2853 85.7873 28.04C85.7553 27.7947 85.6859 27.576 85.5793 27.384C85.4726 27.1813 85.3233 27.016 85.1313 26.888C84.9499 26.76 84.7046 26.696 84.3953 26.696C84.0859 26.696 83.8193 26.76 83.5953 26.888C83.3713 27.0053 83.1846 27.16 83.0353 27.352C82.8966 27.544 82.7899 27.768 82.7153 28.024C82.6406 28.2693 82.6033 28.52 82.6033 28.776V33H80.6833V25.32ZM95.2438 27.448C95.0944 27.2347 94.8704 27.0587 94.5718 26.92C94.2731 26.7707 93.9691 26.696 93.6598 26.696C93.3078 26.696 92.9984 26.7707 92.7318 26.92C92.4651 27.0587 92.2411 27.2453 92.0598 27.48C91.8891 27.7147 91.7611 27.9813 91.6758 28.28C91.5904 28.568 91.5478 28.8613 91.5478 29.16C91.5478 29.4587 91.5904 29.7573 91.6758 30.056C91.7718 30.344 91.9104 30.6053 92.0918 30.84C92.2731 31.0747 92.4971 31.2667 92.7638 31.416C93.0411 31.5547 93.3611 31.624 93.7238 31.624C94.0224 31.624 94.3211 31.5653 94.6198 31.448C94.9184 31.3307 95.1584 31.16 95.3398 30.936L96.5398 32.152C96.2198 32.4933 95.8091 32.76 95.3078 32.952C94.8171 33.1333 94.2838 33.224 93.7078 33.224C93.1424 33.224 92.6038 33.1333 92.0918 32.952C91.5904 32.7707 91.1478 32.504 90.7638 32.152C90.3904 31.8 90.0918 31.3733 89.8678 30.872C89.6544 30.3707 89.5478 29.8 89.5478 29.16C89.5478 28.5413 89.6544 27.9813 89.8678 27.48C90.0918 26.9787 90.3904 26.552 90.7638 26.2C91.1371 25.848 91.5691 25.576 92.0598 25.384C92.5611 25.192 93.0944 25.096 93.6598 25.096C94.2251 25.096 94.7691 25.2027 95.2918 25.416C95.8251 25.6293 96.2464 25.9227 96.5558 26.296L95.2438 27.448ZM103.216 28.392C103.216 28.1467 103.179 27.912 103.104 27.688C103.04 27.464 102.934 27.2667 102.784 27.096C102.635 26.9253 102.443 26.792 102.208 26.696C101.984 26.5893 101.718 26.536 101.408 26.536C100.832 26.536 100.342 26.712 99.9363 27.064C99.5416 27.4053 99.3229 27.848 99.2803 28.392H103.216ZM105.136 29.256C105.136 29.3413 105.136 29.4267 105.136 29.512C105.136 29.5973 105.131 29.6827 105.12 29.768H99.2803C99.3016 30.0453 99.3709 30.3013 99.4883 30.536C99.6163 30.76 99.7816 30.9573 99.9843 31.128C100.187 31.288 100.416 31.416 100.672 31.512C100.928 31.608 101.195 31.656 101.472 31.656C101.952 31.656 102.358 31.5707 102.688 31.4C103.019 31.2187 103.291 30.9733 103.504 30.664L104.784 31.688C104.027 32.712 102.928 33.224 101.488 33.224C100.891 33.224 100.342 33.1333 99.8403 32.952C99.3389 32.76 98.9016 32.4933 98.5283 32.152C98.1656 31.8107 97.8776 31.3947 97.6643 30.904C97.4616 30.4027 97.3603 29.8373 97.3603 29.208C97.3603 28.5893 97.4616 28.0293 97.6643 27.528C97.8776 27.016 98.1656 26.584 98.5283 26.232C98.8909 25.8693 99.3176 25.592 99.8083 25.4C100.31 25.1973 100.848 25.096 101.424 25.096C101.958 25.096 102.448 25.1867 102.896 25.368C103.355 25.5387 103.75 25.8 104.08 26.152C104.411 26.4933 104.667 26.9253 104.848 27.448C105.04 27.96 105.136 28.5627 105.136 29.256ZM107.028 20.904H108.948V33H107.028V20.904Z" fill="#FF3B30"/>
</svg>
