<svg width="70" height="29" viewBox="0 0 70 29" fill="none" xmlns="http://www.w3.org/2000/svg">
<rect width="70" height="29" rx="14.5" fill="#35A8F7"/>
<mask id="mask0_2776_297" style="mask-type:alpha" maskUnits="userSpaceOnUse" x="10" y="6" width="16" height="17">
<rect x="10" y="6.5" width="16" height="16" fill="#4D4D4D"/>
</mask>
<g mask="url(#mask0_2776_297)">
<path d="M17.5641 20.6481V15.084H12V14.0071H17.5641V8.44297H18.641V14.0071H24.2051V15.084H18.641V20.6481H17.5641Z" fill="white"/>
</g>
<path d="M38.356 17.012H38.384V9.088H39.77V19H38.02L32.784 10.908H32.756V19H31.37V9.088H33.176L38.356 17.012ZM46.9725 15.094C46.9631 14.8327 46.9165 14.59 46.8325 14.366C46.7578 14.1327 46.6411 13.932 46.4825 13.764C46.3331 13.596 46.1418 13.4653 45.9085 13.372C45.6845 13.2693 45.4185 13.218 45.1105 13.218C44.8305 13.218 44.5645 13.2693 44.3125 13.372C44.0698 13.4653 43.8551 13.596 43.6685 13.764C43.4911 13.932 43.3418 14.1327 43.2205 14.366C43.1085 14.59 43.0431 14.8327 43.0245 15.094H46.9725ZM48.3025 15.626C48.3025 15.7007 48.3025 15.7753 48.3025 15.85C48.3025 15.9247 48.2978 15.9993 48.2885 16.074H43.0245C43.0338 16.354 43.0945 16.62 43.2065 16.872C43.3278 17.1147 43.4865 17.3293 43.6825 17.516C43.8785 17.6933 44.1025 17.8333 44.3545 17.936C44.6158 18.0387 44.8911 18.09 45.1805 18.09C45.6285 18.09 46.0158 17.992 46.3425 17.796C46.6691 17.6 46.9258 17.362 47.1125 17.082L48.0365 17.824C47.6818 18.2907 47.2618 18.636 46.7765 18.86C46.3005 19.0747 45.7685 19.182 45.1805 19.182C44.6765 19.182 44.2098 19.098 43.7805 18.93C43.3511 18.762 42.9825 18.5287 42.6745 18.23C42.3665 17.922 42.1238 17.5533 41.9465 17.124C41.7691 16.6947 41.6805 16.2187 41.6805 15.696C41.6805 15.1827 41.7645 14.7113 41.9325 14.282C42.1098 13.8433 42.3525 13.47 42.6605 13.162C42.9685 12.854 43.3325 12.616 43.7525 12.448C44.1725 12.2707 44.6251 12.182 45.1105 12.182C45.5958 12.182 46.0345 12.2613 46.4265 12.42C46.8278 12.5787 47.1638 12.8073 47.4345 13.106C47.7145 13.4047 47.9291 13.7687 48.0785 14.198C48.2278 14.618 48.3025 15.094 48.3025 15.626ZM50.6299 12.364L52.1279 17.432H52.1559L53.7379 12.364H55.1239L56.7339 17.432H56.7619L58.2599 12.364H59.6459L57.4479 19H56.0759L54.4379 14.016H54.4099L52.7859 19H51.4139L49.2019 12.364H50.6299Z" fill="white"/>
</svg>
