<svg width="170" height="56" viewBox="0 0 170 56" fill="none" xmlns="http://www.w3.org/2000/svg">
<rect width="170" height="56" rx="28" fill="url(#paint0_linear_2884_896)"/>
<path d="M70.7324 21.672H74.4284C75.079 21.672 75.6657 21.7307 76.1884 21.848C76.711 21.9653 77.159 22.1573 77.5324 22.424C77.9057 22.6907 78.1937 23.032 78.3964 23.448C78.599 23.864 78.7004 24.3653 78.7004 24.952C78.7004 25.5813 78.583 26.1093 78.3484 26.536C78.1137 26.9627 77.7937 27.3093 77.3884 27.576C76.9937 27.832 76.5297 28.0187 75.9964 28.136C75.463 28.2533 74.8977 28.312 74.3004 28.312H72.7484V33H70.7324V21.672ZM74.1564 26.616C74.487 26.616 74.8017 26.5947 75.1004 26.552C75.399 26.4987 75.6657 26.4133 75.9004 26.296C76.135 26.168 76.3217 25.9973 76.4604 25.784C76.599 25.5707 76.6684 25.2933 76.6684 24.952C76.6684 24.6213 76.599 24.3547 76.4604 24.152C76.3217 23.9387 76.135 23.7733 75.9004 23.656C75.6764 23.5387 75.415 23.464 75.1164 23.432C74.8284 23.3893 74.5297 23.368 74.2204 23.368H72.7484V26.616H74.1564ZM78.9071 29.128C78.9071 28.52 79.0138 27.9707 79.2271 27.48C79.4511 26.9787 79.7498 26.552 80.1231 26.2C80.4965 25.848 80.9391 25.576 81.4511 25.384C81.9631 25.192 82.5071 25.096 83.0831 25.096C83.6591 25.096 84.2031 25.192 84.7151 25.384C85.2271 25.576 85.6698 25.848 86.0431 26.2C86.4165 26.552 86.7098 26.9787 86.9231 27.48C87.1471 27.9707 87.2591 28.52 87.2591 29.128C87.2591 29.736 87.1471 30.2907 86.9231 30.792C86.7098 31.2933 86.4165 31.7253 86.0431 32.088C85.6698 32.44 85.2271 32.7173 84.7151 32.92C84.2031 33.1227 83.6591 33.224 83.0831 33.224C82.5071 33.224 81.9631 33.1227 81.4511 32.92C80.9391 32.7173 80.4965 32.44 80.1231 32.088C79.7498 31.7253 79.4511 31.2933 79.2271 30.792C79.0138 30.2907 78.9071 29.736 78.9071 29.128ZM80.8591 29.128C80.8591 29.4267 80.9018 29.7253 80.9871 30.024C81.0831 30.3227 81.2218 30.5893 81.4031 30.824C81.5845 31.0587 81.8138 31.2507 82.0911 31.4C82.3685 31.5493 82.6991 31.624 83.0831 31.624C83.4671 31.624 83.7978 31.5493 84.0751 31.4C84.3525 31.2507 84.5818 31.0587 84.7631 30.824C84.9445 30.5893 85.0778 30.3227 85.1631 30.024C85.2591 29.7253 85.3071 29.4267 85.3071 29.128C85.3071 28.8293 85.2591 28.536 85.1631 28.248C85.0778 27.9493 84.9445 27.6827 84.7631 27.448C84.5818 27.2133 84.3525 27.0267 84.0751 26.888C83.7978 26.7387 83.4671 26.664 83.0831 26.664C82.6991 26.664 82.3685 26.7387 82.0911 26.888C81.8138 27.0267 81.5845 27.2133 81.4031 27.448C81.2218 27.6827 81.0831 27.9493 80.9871 28.248C80.9018 28.536 80.8591 28.8293 80.8591 29.128ZM93.3288 27.368C93.1581 27.144 92.9234 26.952 92.6248 26.792C92.3261 26.6213 92.0008 26.536 91.6488 26.536C91.3394 26.536 91.0568 26.6 90.8008 26.728C90.5448 26.856 90.4168 27.0693 90.4168 27.368C90.4168 27.6667 90.5554 27.88 90.8328 28.008C91.1208 28.1253 91.5368 28.248 92.0807 28.376C92.3688 28.44 92.6568 28.5253 92.9448 28.632C93.2434 28.7387 93.5101 28.8827 93.7448 29.064C93.9901 29.2347 94.1874 29.4533 94.3368 29.72C94.4861 29.976 94.5608 30.2907 94.5608 30.664C94.5608 31.1333 94.4701 31.5333 94.2888 31.864C94.1181 32.184 93.8834 32.4453 93.5848 32.648C93.2968 32.8507 92.9554 32.9947 92.5608 33.08C92.1768 33.176 91.7768 33.224 91.3608 33.224C90.7634 33.224 90.1821 33.1173 89.6168 32.904C89.0514 32.68 88.5821 32.3653 88.2088 31.96L89.4728 30.776C89.6861 31.0533 89.9634 31.2827 90.3048 31.464C90.6461 31.6453 91.0248 31.736 91.4408 31.736C91.5794 31.736 91.7181 31.72 91.8568 31.688C92.0061 31.656 92.1394 31.608 92.2568 31.544C92.3848 31.4693 92.4861 31.3733 92.5608 31.256C92.6354 31.1387 92.6727 30.9947 92.6727 30.824C92.6727 30.504 92.5234 30.2747 92.2248 30.136C91.9368 29.9973 91.4994 29.8587 90.9128 29.72C90.6248 29.656 90.3421 29.576 90.0648 29.48C89.7981 29.3733 89.5581 29.24 89.3448 29.08C89.1314 28.9093 88.9608 28.7013 88.8328 28.456C88.7048 28.2107 88.6408 27.9067 88.6408 27.544C88.6408 27.1173 88.7261 26.7493 88.8968 26.44C89.0781 26.1307 89.3128 25.88 89.6008 25.688C89.8888 25.4853 90.2141 25.336 90.5768 25.24C90.9394 25.144 91.3128 25.096 91.6968 25.096C92.2514 25.096 92.7901 25.192 93.3128 25.384C93.8461 25.576 94.2674 25.8693 94.5768 26.264L93.3288 27.368ZM95.1261 26.856V25.32H96.4701V23.096H98.3581V25.32H100.278V26.856H98.3581V30.424C98.3581 30.7653 98.4168 31.048 98.5341 31.272C98.6621 31.496 98.9395 31.608 99.3661 31.608C99.4941 31.608 99.6328 31.5973 99.7821 31.576C99.9315 31.544 100.065 31.5013 100.182 31.448L100.246 32.952C100.075 33.016 99.8728 33.064 99.6381 33.096C99.4035 33.1387 99.1795 33.16 98.9661 33.16C98.4541 33.16 98.0381 33.0907 97.7181 32.952C97.3981 32.8027 97.1421 32.6053 96.9501 32.36C96.7688 32.104 96.6408 31.816 96.5661 31.496C96.5021 31.1653 96.4701 30.8133 96.4701 30.44V26.856H95.1261Z" fill="#1E1F26"/>
<defs>
<linearGradient id="paint0_linear_2884_896" x1="4.22183e-06" y1="0.0833303" x2="146.629" y2="202.537" gradientUnits="userSpaceOnUse">
<stop stop-color="#35A8F7"/>
<stop offset="1" stop-color="white"/>
</linearGradient>
</defs>
</svg>
