<svg width="134" height="30" viewBox="0 0 134 30" fill="none" xmlns="http://www.w3.org/2000/svg">
<g filter="url(#filter0_d_2807_3838)">
<rect x="2" y="2" width="130" height="26" rx="13" fill="#34C759"/>
<path d="M17.936 10.504H19.448V13.936H23.42V10.504H24.932V19H23.42V15.232H19.448V19H17.936V10.504ZM31.0311 15.544C31.0311 15.36 31.0031 15.184 30.9471 15.016C30.8991 14.848 30.8191 14.7 30.7071 14.572C30.5951 14.444 30.4511 14.344 30.2751 14.272C30.1071 14.192 29.9071 14.152 29.6751 14.152C29.2431 14.152 28.8751 14.284 28.5711 14.548C28.2751 14.804 28.1111 15.136 28.0791 15.544H31.0311ZM32.4711 16.192C32.4711 16.256 32.4711 16.32 32.4711 16.384C32.4711 16.448 32.4671 16.512 32.4591 16.576H28.0791C28.0951 16.784 28.1471 16.976 28.2351 17.152C28.3311 17.32 28.4551 17.468 28.6071 17.596C28.7591 17.716 28.9311 17.812 29.1231 17.884C29.3151 17.956 29.5151 17.992 29.7231 17.992C30.0831 17.992 30.3871 17.928 30.6351 17.8C30.8831 17.664 31.0871 17.48 31.2471 17.248L32.2071 18.016C31.6391 18.784 30.8151 19.168 29.7351 19.168C29.2871 19.168 28.8751 19.1 28.4991 18.964C28.1231 18.82 27.7951 18.62 27.5151 18.364C27.2431 18.108 27.0271 17.796 26.8671 17.428C26.7151 17.052 26.6391 16.628 26.6391 16.156C26.6391 15.692 26.7151 15.272 26.8671 14.896C27.0271 14.512 27.2431 14.188 27.5151 13.924C27.7871 13.652 28.1071 13.444 28.4751 13.3C28.8511 13.148 29.2551 13.072 29.6871 13.072C30.0871 13.072 30.4551 13.14 30.7911 13.276C31.1351 13.404 31.4311 13.6 31.6791 13.864C31.9271 14.12 32.1191 14.444 32.2551 14.836C32.3991 15.22 32.4711 15.672 32.4711 16.192ZM34.1297 9.928H35.5697V19H34.1297V9.928ZM38.9367 13.24V14.044H38.9727C39.0447 13.932 39.1367 13.82 39.2487 13.708C39.3687 13.588 39.5127 13.484 39.6807 13.396C39.8487 13.3 40.0367 13.224 40.2447 13.168C40.4607 13.104 40.7007 13.072 40.9647 13.072C41.3727 13.072 41.7487 13.152 42.0927 13.312C42.4367 13.464 42.7327 13.676 42.9807 13.948C43.2287 14.22 43.4207 14.54 43.5567 14.908C43.6927 15.276 43.7607 15.672 43.7607 16.096C43.7607 16.52 43.6927 16.92 43.5567 17.296C43.4287 17.664 43.2407 17.988 42.9927 18.268C42.7527 18.54 42.4567 18.76 42.1047 18.928C41.7607 19.088 41.3687 19.168 40.9287 19.168C40.5207 19.168 40.1447 19.084 39.8007 18.916C39.4647 18.748 39.2047 18.52 39.0207 18.232H38.9967V21.88H37.5567V13.24H38.9367ZM42.2967 16.096C42.2967 15.872 42.2607 15.652 42.1887 15.436C42.1247 15.212 42.0247 15.012 41.8887 14.836C41.7527 14.66 41.5807 14.52 41.3727 14.416C41.1647 14.304 40.9207 14.248 40.6407 14.248C40.3767 14.248 40.1407 14.304 39.9327 14.416C39.7247 14.528 39.5447 14.672 39.3927 14.848C39.2487 15.024 39.1367 15.224 39.0567 15.448C38.9847 15.672 38.9487 15.896 38.9487 16.12C38.9487 16.344 38.9847 16.568 39.0567 16.792C39.1367 17.008 39.2487 17.204 39.3927 17.38C39.5447 17.556 39.7247 17.7 39.9327 17.812C40.1407 17.916 40.3767 17.968 40.6407 17.968C40.9207 17.968 41.1647 17.912 41.3727 17.8C41.5807 17.688 41.7527 17.544 41.8887 17.368C42.0247 17.192 42.1247 16.992 42.1887 16.768C42.2607 16.544 42.2967 16.32 42.2967 16.096ZM54.6064 16.972L56.5864 19H54.6664L53.7304 18.028C53.4504 18.356 53.1104 18.628 52.7104 18.844C52.3104 19.06 51.8024 19.168 51.1864 19.168C50.8104 19.168 50.4504 19.116 50.1064 19.012C49.7624 18.908 49.4584 18.752 49.1944 18.544C48.9384 18.336 48.7304 18.08 48.5704 17.776C48.4184 17.464 48.3424 17.104 48.3424 16.696C48.3424 16.384 48.3944 16.104 48.4984 15.856C48.6024 15.6 48.7384 15.372 48.9064 15.172C49.0824 14.972 49.2784 14.8 49.4944 14.656C49.7184 14.512 49.9504 14.388 50.1904 14.284C49.9104 13.996 49.6864 13.7 49.5184 13.396C49.3584 13.084 49.2784 12.744 49.2784 12.376C49.2784 12.016 49.3464 11.704 49.4824 11.44C49.6264 11.176 49.8104 10.96 50.0344 10.792C50.2664 10.616 50.5224 10.488 50.8024 10.408C51.0904 10.328 51.3824 10.288 51.6784 10.288C51.9824 10.288 52.2744 10.332 52.5544 10.42C52.8424 10.5 53.0944 10.628 53.3104 10.804C53.5264 10.972 53.6984 11.188 53.8264 11.452C53.9624 11.708 54.0304 12.008 54.0304 12.352C54.0304 12.624 53.9824 12.876 53.8864 13.108C53.7984 13.332 53.6744 13.54 53.5144 13.732C53.3624 13.916 53.1784 14.08 52.9624 14.224C52.7544 14.368 52.5304 14.496 52.2904 14.608L53.6824 16.06L54.6664 14.512H56.3104L54.6064 16.972ZM51.7024 11.452C51.4224 11.452 51.1864 11.54 50.9944 11.716C50.8024 11.892 50.7064 12.12 50.7064 12.4C50.7064 12.64 50.7704 12.872 50.8984 13.096C51.0344 13.32 51.2224 13.54 51.4624 13.756C51.6304 13.684 51.7864 13.604 51.9304 13.516C52.0824 13.428 52.2144 13.328 52.3264 13.216C52.4384 13.104 52.5264 12.98 52.5904 12.844C52.6544 12.708 52.6864 12.56 52.6864 12.4C52.6864 12.144 52.5944 11.924 52.4104 11.74C52.2264 11.548 51.9904 11.452 51.7024 11.452ZM51.0064 15.208C50.8464 15.264 50.6944 15.332 50.5504 15.412C50.4144 15.492 50.2904 15.588 50.1784 15.7C50.0744 15.812 49.9904 15.948 49.9264 16.108C49.8624 16.26 49.8304 16.436 49.8304 16.636C49.8304 16.844 49.8704 17.032 49.9504 17.2C50.0384 17.368 50.1504 17.508 50.2864 17.62C50.4224 17.732 50.5744 17.82 50.7424 17.884C50.9104 17.94 51.0744 17.968 51.2344 17.968C51.5864 17.968 51.8864 17.892 52.1344 17.74C52.3824 17.588 52.6104 17.372 52.8184 17.092L51.0064 15.208ZM61.0769 10.504H66.7049V11.824H62.5889V13.984H66.4889V15.256H62.5889V17.656H66.9209V19H61.0769V10.504ZM70.0332 15.94L67.9572 13.24H69.6852L70.9332 15.028L72.2172 13.24H73.8732L71.8092 15.94L74.1612 19H72.4092L70.9092 16.9L69.3972 19H67.6932L70.0332 15.94ZM79.0733 14.836C78.9613 14.676 78.7933 14.544 78.5693 14.44C78.3453 14.328 78.1173 14.272 77.8853 14.272C77.6213 14.272 77.3893 14.328 77.1893 14.44C76.9893 14.544 76.8213 14.684 76.6853 14.86C76.5573 15.036 76.4613 15.236 76.3973 15.46C76.3333 15.676 76.3013 15.896 76.3013 16.12C76.3013 16.344 76.3333 16.568 76.3973 16.792C76.4693 17.008 76.5733 17.204 76.7093 17.38C76.8453 17.556 77.0133 17.7 77.2133 17.812C77.4213 17.916 77.6613 17.968 77.9333 17.968C78.1573 17.968 78.3813 17.924 78.6053 17.836C78.8293 17.748 79.0093 17.62 79.1453 17.452L80.0453 18.364C79.8053 18.62 79.4973 18.82 79.1213 18.964C78.7533 19.1 78.3533 19.168 77.9213 19.168C77.4973 19.168 77.0933 19.1 76.7093 18.964C76.3333 18.828 76.0013 18.628 75.7133 18.364C75.4333 18.1 75.2093 17.78 75.0413 17.404C74.8813 17.028 74.8013 16.6 74.8013 16.12C74.8013 15.656 74.8813 15.236 75.0413 14.86C75.2093 14.484 75.4333 14.164 75.7133 13.9C75.9933 13.636 76.3173 13.432 76.6853 13.288C77.0613 13.144 77.4613 13.072 77.8853 13.072C78.3093 13.072 78.7173 13.152 79.1093 13.312C79.5093 13.472 79.8253 13.692 80.0573 13.972L79.0733 14.836ZM84.4407 13.072C84.8167 13.072 85.1367 13.14 85.4007 13.276C85.6727 13.404 85.8927 13.576 86.0607 13.792C86.2367 14.008 86.3647 14.256 86.4447 14.536C86.5247 14.816 86.5647 15.104 86.5647 15.4V19H85.1247V15.832C85.1247 15.664 85.1127 15.492 85.0887 15.316C85.0647 15.132 85.0127 14.968 84.9327 14.824C84.8607 14.672 84.7527 14.548 84.6087 14.452C84.4727 14.356 84.2887 14.308 84.0567 14.308C83.8247 14.308 83.6247 14.352 83.4567 14.44C83.2887 14.528 83.1487 14.648 83.0367 14.8C82.9247 14.944 82.8407 15.108 82.7847 15.292C82.7287 15.476 82.7007 15.664 82.7007 15.856V19H81.2607V9.928H82.7007V14.044H82.7247C82.7807 13.924 82.8607 13.808 82.9647 13.696C83.0767 13.576 83.2047 13.472 83.3487 13.384C83.4927 13.288 83.6567 13.212 83.8407 13.156C84.0247 13.1 84.2247 13.072 84.4407 13.072ZM92.0605 18.268H92.0245C91.8805 18.524 91.6485 18.736 91.3285 18.904C91.0085 19.064 90.6445 19.144 90.2365 19.144C90.0045 19.144 89.7605 19.112 89.5045 19.048C89.2565 18.992 89.0245 18.896 88.8085 18.76C88.6005 18.616 88.4245 18.432 88.2805 18.208C88.1445 17.976 88.0765 17.692 88.0765 17.356C88.0765 16.924 88.1965 16.58 88.4365 16.324C88.6845 16.068 89.0005 15.872 89.3845 15.736C89.7685 15.6 90.1925 15.512 90.6565 15.472C91.1285 15.424 91.5885 15.4 92.0365 15.4V15.256C92.0365 14.896 91.9045 14.632 91.6405 14.464C91.3845 14.288 91.0765 14.2 90.7165 14.2C90.4125 14.2 90.1205 14.264 89.8405 14.392C89.5605 14.52 89.3285 14.676 89.1445 14.86L88.4005 13.984C88.7285 13.68 89.1045 13.452 89.5285 13.3C89.9605 13.148 90.3965 13.072 90.8365 13.072C91.3485 13.072 91.7685 13.144 92.0965 13.288C92.4325 13.432 92.6965 13.62 92.8885 13.852C93.0805 14.084 93.2125 14.344 93.2845 14.632C93.3645 14.92 93.4045 15.208 93.4045 15.496V19H92.0605V18.268ZM92.0365 16.372H91.7125C91.4805 16.372 91.2365 16.384 90.9805 16.408C90.7245 16.424 90.4885 16.468 90.2725 16.54C90.0565 16.604 89.8765 16.7 89.7325 16.828C89.5885 16.948 89.5165 17.116 89.5165 17.332C89.5165 17.468 89.5445 17.584 89.6005 17.68C89.6645 17.768 89.7445 17.84 89.8405 17.896C89.9365 17.952 90.0445 17.992 90.1645 18.016C90.2845 18.04 90.4045 18.052 90.5245 18.052C91.0205 18.052 91.3965 17.92 91.6525 17.656C91.9085 17.392 92.0365 17.032 92.0365 16.576V16.372ZM95.3221 13.24H96.6901V14.164H96.7141C96.8421 13.876 97.0621 13.624 97.3741 13.408C97.6941 13.184 98.0701 13.072 98.5021 13.072C98.8781 13.072 99.1981 13.14 99.4621 13.276C99.7341 13.404 99.9541 13.576 100.122 13.792C100.298 14.008 100.426 14.256 100.506 14.536C100.586 14.816 100.626 15.104 100.626 15.4V19H99.1861V15.808C99.1861 15.64 99.1741 15.464 99.1501 15.28C99.1261 15.096 99.0741 14.932 98.9941 14.788C98.9141 14.636 98.8021 14.512 98.6581 14.416C98.5221 14.32 98.3381 14.272 98.1061 14.272C97.8741 14.272 97.6741 14.32 97.5061 14.416C97.3381 14.504 97.1981 14.62 97.0861 14.764C96.9821 14.908 96.9021 15.076 96.8461 15.268C96.7901 15.452 96.7621 15.64 96.7621 15.832V19H95.3221V13.24ZM108.403 13.24V18.484C108.403 19.004 108.339 19.472 108.211 19.888C108.083 20.312 107.883 20.668 107.611 20.956C107.347 21.252 107.011 21.48 106.603 21.64C106.195 21.8 105.711 21.88 105.151 21.88C104.919 21.88 104.671 21.86 104.407 21.82C104.151 21.78 103.895 21.72 103.639 21.64C103.391 21.56 103.151 21.46 102.919 21.34C102.687 21.22 102.479 21.084 102.295 20.932L103.123 19.816C103.403 20.08 103.719 20.28 104.071 20.416C104.423 20.56 104.779 20.632 105.139 20.632C105.483 20.632 105.771 20.58 106.003 20.476C106.243 20.38 106.431 20.244 106.567 20.068C106.711 19.892 106.811 19.684 106.867 19.444C106.931 19.204 106.963 18.94 106.963 18.652V18.232H106.939C106.731 18.512 106.463 18.728 106.135 18.88C105.815 19.024 105.455 19.096 105.055 19.096C104.623 19.096 104.231 19.016 103.879 18.856C103.527 18.696 103.227 18.48 102.979 18.208C102.739 17.936 102.551 17.62 102.415 17.26C102.279 16.892 102.211 16.504 102.211 16.096C102.211 15.68 102.275 15.288 102.403 14.92C102.539 14.552 102.727 14.232 102.967 13.96C103.215 13.688 103.511 13.472 103.855 13.312C104.207 13.152 104.599 13.072 105.031 13.072C105.439 13.072 105.819 13.156 106.171 13.324C106.523 13.492 106.803 13.752 107.011 14.104H107.035V13.24H108.403ZM105.331 14.248C105.067 14.248 104.831 14.296 104.623 14.392C104.423 14.488 104.251 14.62 104.107 14.788C103.971 14.948 103.863 15.14 103.783 15.364C103.711 15.588 103.675 15.828 103.675 16.084C103.675 16.316 103.711 16.54 103.783 16.756C103.863 16.972 103.971 17.168 104.107 17.344C104.251 17.512 104.423 17.648 104.623 17.752C104.831 17.856 105.063 17.908 105.319 17.908C105.583 17.908 105.819 17.86 106.027 17.764C106.243 17.66 106.423 17.524 106.567 17.356C106.719 17.188 106.835 16.996 106.915 16.78C106.995 16.556 107.035 16.324 107.035 16.084C107.035 15.836 106.995 15.6 106.915 15.376C106.835 15.152 106.719 14.956 106.567 14.788C106.423 14.62 106.247 14.488 106.039 14.392C105.831 14.296 105.595 14.248 105.331 14.248ZM114.425 15.544C114.425 15.36 114.397 15.184 114.341 15.016C114.293 14.848 114.213 14.7 114.101 14.572C113.989 14.444 113.845 14.344 113.669 14.272C113.501 14.192 113.301 14.152 113.069 14.152C112.637 14.152 112.269 14.284 111.965 14.548C111.669 14.804 111.505 15.136 111.473 15.544H114.425ZM115.865 16.192C115.865 16.256 115.865 16.32 115.865 16.384C115.865 16.448 115.861 16.512 115.853 16.576H111.473C111.489 16.784 111.541 16.976 111.629 17.152C111.725 17.32 111.849 17.468 112.001 17.596C112.153 17.716 112.325 17.812 112.517 17.884C112.709 17.956 112.909 17.992 113.117 17.992C113.477 17.992 113.781 17.928 114.029 17.8C114.277 17.664 114.481 17.48 114.641 17.248L115.601 18.016C115.033 18.784 114.209 19.168 113.129 19.168C112.681 19.168 112.269 19.1 111.893 18.964C111.517 18.82 111.189 18.62 110.909 18.364C110.637 18.108 110.421 17.796 110.261 17.428C110.109 17.052 110.033 16.628 110.033 16.156C110.033 15.692 110.109 15.272 110.261 14.896C110.421 14.512 110.637 14.188 110.909 13.924C111.181 13.652 111.501 13.444 111.869 13.3C112.245 13.148 112.649 13.072 113.081 13.072C113.481 13.072 113.849 13.14 114.185 13.276C114.529 13.404 114.825 13.6 115.073 13.864C115.321 14.12 115.513 14.444 115.649 14.836C115.793 15.22 115.865 15.672 115.865 16.192Z" fill="white"/>
</g>
<defs>
<filter id="filter0_d_2807_3838" x="0" y="0" width="134" height="30" filterUnits="userSpaceOnUse" color-interpolation-filters="sRGB">
<feFlood flood-opacity="0" result="BackgroundImageFix"/>
<feColorMatrix in="SourceAlpha" type="matrix" values="0 0 0 0 0 0 0 0 0 0 0 0 0 0 0 0 0 0 127 0" result="hardAlpha"/>
<feOffset/>
<feGaussianBlur stdDeviation="1"/>
<feComposite in2="hardAlpha" operator="out"/>
<feColorMatrix type="matrix" values="0 0 0 0 0 0 0 0 0 0 0 0 0 0 0 0 0 0 0.25 0"/>
<feBlend mode="normal" in2="BackgroundImageFix" result="effect1_dropShadow_2807_3838"/>
<feBlend mode="normal" in="SourceGraphic" in2="effect1_dropShadow_2807_3838" result="shape"/>
</filter>
</defs>
</svg>
