<svg width="551" height="33" viewBox="0 0 551 33" fill="none" xmlns="http://www.w3.org/2000/svg">
<g filter="url(#filter0_d_2807_3823)">
<rect x="2" y="2" width="48" height="29" rx="14.5" fill="#4D4D4D"/>
<path d="M21.2 11.088H22.726L26.996 21H24.98L24.056 18.732H19.758L18.862 21H16.888L21.2 11.088ZM23.44 17.22L21.914 13.188L20.36 17.22H23.44ZM28.2008 10.416H29.8808V21H28.2008V10.416ZM32.2269 10.416H33.9069V21H32.2269V10.416Z" fill="white"/>
</g>
<g filter="url(#filter1_d_2807_3823)">
<rect x="54" y="2" width="84" height="29" rx="14.5" fill="white"/>
<path d="M78.772 20.482C78.268 20.7247 77.7127 20.9113 77.106 21.042C76.5087 21.182 75.818 21.252 75.034 21.252C74.2313 21.252 73.4987 21.126 72.836 20.874C72.1733 20.6127 71.604 20.2533 71.128 19.796C70.652 19.3293 70.2787 18.7787 70.008 18.144C69.7467 17.5 69.616 16.7907 69.616 16.016C69.616 15.2227 69.7513 14.5087 70.022 13.874C70.302 13.23 70.68 12.684 71.156 12.236C71.6413 11.788 72.2107 11.4427 72.864 11.2C73.5173 10.9573 74.2267 10.836 74.992 10.836C75.7853 10.836 76.5087 10.9527 77.162 11.186C77.8247 11.41 78.3567 11.7087 78.758 12.082L77.54 13.398C77.288 13.118 76.9333 12.88 76.476 12.684C76.028 12.488 75.538 12.39 75.006 12.39C74.4833 12.39 74.0073 12.4833 73.578 12.67C73.158 12.8567 72.7987 13.1133 72.5 13.44C72.2013 13.7667 71.968 14.1493 71.8 14.588C71.6413 15.0267 71.562 15.5027 71.562 16.016C71.562 16.548 71.6413 17.038 71.8 17.486C71.968 17.9247 72.2013 18.3073 72.5 18.634C72.808 18.9607 73.1767 19.2173 73.606 19.404C74.0447 19.5813 74.5393 19.67 75.09 19.67C75.846 19.67 76.504 19.5533 77.064 19.32V16.8H74.978V15.344H78.772V20.482ZM85.8481 16.968C85.8481 16.7533 85.8155 16.548 85.7501 16.352C85.6941 16.156 85.6008 15.9833 85.4701 15.834C85.3395 15.6847 85.1715 15.568 84.9661 15.484C84.7701 15.3907 84.5368 15.344 84.2661 15.344C83.7621 15.344 83.3328 15.498 82.9781 15.806C82.6328 16.1047 82.4415 16.492 82.4041 16.968H85.8481ZM87.5281 17.724C87.5281 17.7987 87.5281 17.8733 87.5281 17.948C87.5281 18.0227 87.5235 18.0973 87.5141 18.172H82.4041C82.4228 18.4147 82.4835 18.6387 82.5861 18.844C82.6981 19.04 82.8428 19.2127 83.0201 19.362C83.1975 19.502 83.3981 19.614 83.6221 19.698C83.8461 19.782 84.0795 19.824 84.3221 19.824C84.7421 19.824 85.0968 19.7493 85.3861 19.6C85.6755 19.4413 85.9135 19.2267 86.1001 18.956L87.2201 19.852C86.5575 20.748 85.5961 21.196 84.3361 21.196C83.8135 21.196 83.3328 21.1167 82.8941 20.958C82.4555 20.79 82.0728 20.5567 81.7461 20.258C81.4288 19.9593 81.1768 19.5953 80.9901 19.166C80.8128 18.7273 80.7241 18.2327 80.7241 17.682C80.7241 17.1407 80.8128 16.6507 80.9901 16.212C81.1768 15.764 81.4288 15.386 81.7461 15.078C82.0635 14.7607 82.4368 14.518 82.8661 14.35C83.3048 14.1727 83.7761 14.084 84.2801 14.084C84.7468 14.084 85.1761 14.1633 85.5681 14.322C85.9695 14.4713 86.3148 14.7 86.6041 15.008C86.8935 15.3067 87.1175 15.6847 87.2761 16.142C87.4441 16.59 87.5281 17.1173 87.5281 17.724ZM89.4352 14.28H91.0312V15.358H91.0592C91.2085 15.022 91.4652 14.728 91.8292 14.476C92.2025 14.2147 92.6412 14.084 93.1452 14.084C93.5839 14.084 93.9572 14.1633 94.2652 14.322C94.5825 14.4713 94.8392 14.672 95.0352 14.924C95.2405 15.176 95.3899 15.4653 95.4832 15.792C95.5765 16.1187 95.6232 16.4547 95.6232 16.8V21H93.9432V17.276C93.9432 17.08 93.9292 16.8747 93.9012 16.66C93.8732 16.4453 93.8125 16.254 93.7192 16.086C93.6259 15.9087 93.4952 15.764 93.3272 15.652C93.1685 15.54 92.9539 15.484 92.6832 15.484C92.4125 15.484 92.1792 15.54 91.9832 15.652C91.7872 15.7547 91.6239 15.89 91.4932 16.058C91.3719 16.226 91.2785 16.422 91.2132 16.646C91.1479 16.8607 91.1152 17.08 91.1152 17.304V21H89.4352V14.28ZM102.596 16.968C102.596 16.7533 102.563 16.548 102.498 16.352C102.442 16.156 102.348 15.9833 102.218 15.834C102.087 15.6847 101.919 15.568 101.714 15.484C101.518 15.3907 101.284 15.344 101.014 15.344C100.51 15.344 100.08 15.498 99.7256 15.806C99.3803 16.1047 99.189 16.492 99.1516 16.968H102.596ZM104.276 17.724C104.276 17.7987 104.276 17.8733 104.276 17.948C104.276 18.0227 104.271 18.0973 104.262 18.172H99.1516C99.1703 18.4147 99.231 18.6387 99.3336 18.844C99.4456 19.04 99.5903 19.2127 99.7676 19.362C99.945 19.502 100.146 19.614 100.37 19.698C100.594 19.782 100.827 19.824 101.07 19.824C101.49 19.824 101.844 19.7493 102.134 19.6C102.423 19.4413 102.661 19.2267 102.848 18.956L103.968 19.852C103.305 20.748 102.344 21.196 101.084 21.196C100.561 21.196 100.08 21.1167 99.6416 20.958C99.203 20.79 98.8203 20.5567 98.4936 20.258C98.1763 19.9593 97.9243 19.5953 97.7376 19.166C97.5603 18.7273 97.4716 18.2327 97.4716 17.682C97.4716 17.1407 97.5603 16.6507 97.7376 16.212C97.9243 15.764 98.1763 15.386 98.4936 15.078C98.811 14.7607 99.1843 14.518 99.6136 14.35C100.052 14.1727 100.524 14.084 101.028 14.084C101.494 14.084 101.924 14.1633 102.316 14.322C102.717 14.4713 103.062 14.7 103.352 15.008C103.641 15.3067 103.865 15.6847 104.024 16.142C104.192 16.59 104.276 17.1173 104.276 17.724ZM106.183 14.28H107.793V15.4H107.821C108.007 15.008 108.269 14.6907 108.605 14.448C108.941 14.2053 109.333 14.084 109.781 14.084C109.846 14.084 109.916 14.0887 109.991 14.098C110.065 14.098 110.131 14.1073 110.187 14.126V15.666C110.075 15.638 109.977 15.6193 109.893 15.61C109.818 15.6007 109.743 15.596 109.669 15.596C109.286 15.596 108.978 15.666 108.745 15.806C108.511 15.946 108.329 16.114 108.199 16.31C108.068 16.506 107.979 16.7067 107.933 16.912C107.886 17.1173 107.863 17.2807 107.863 17.402V21H106.183V14.28ZM115.557 20.146H115.515C115.347 20.4447 115.076 20.692 114.703 20.888C114.329 21.0747 113.905 21.168 113.429 21.168C113.158 21.168 112.873 21.1307 112.575 21.056C112.285 20.9907 112.015 20.8787 111.763 20.72C111.52 20.552 111.315 20.3373 111.147 20.076C110.988 19.8053 110.909 19.474 110.909 19.082C110.909 18.578 111.049 18.1767 111.329 17.878C111.618 17.5793 111.987 17.3507 112.435 17.192C112.883 17.0333 113.377 16.9307 113.919 16.884C114.469 16.828 115.006 16.8 115.529 16.8V16.632C115.529 16.212 115.375 15.904 115.067 15.708C114.768 15.5027 114.409 15.4 113.989 15.4C113.634 15.4 113.293 15.4747 112.967 15.624C112.64 15.7733 112.369 15.9553 112.155 16.17L111.287 15.148C111.669 14.7933 112.108 14.5273 112.603 14.35C113.107 14.1727 113.615 14.084 114.129 14.084C114.726 14.084 115.216 14.168 115.599 14.336C115.991 14.504 116.299 14.7233 116.523 14.994C116.747 15.2647 116.901 15.568 116.985 15.904C117.078 16.24 117.125 16.576 117.125 16.912V21H115.557V20.146ZM115.529 17.934H115.151C114.88 17.934 114.595 17.948 114.297 17.976C113.998 17.9947 113.723 18.046 113.471 18.13C113.219 18.2047 113.009 18.3167 112.841 18.466C112.673 18.606 112.589 18.802 112.589 19.054C112.589 19.2127 112.621 19.348 112.687 19.46C112.761 19.5627 112.855 19.6467 112.967 19.712C113.079 19.7773 113.205 19.824 113.345 19.852C113.485 19.88 113.625 19.894 113.765 19.894C114.343 19.894 114.782 19.74 115.081 19.432C115.379 19.124 115.529 18.704 115.529 18.172V17.934ZM119.39 10.416H121.07V21H119.39V10.416Z" fill="#4D4D4D"/>
</g>
<g filter="url(#filter2_d_2807_3823)">
<rect x="142" y="2" width="139" height="29" rx="14.5" fill="white"/>
<path d="M161.2 11.088H162.726L166.996 21H164.98L164.056 18.732H159.758L158.862 21H156.888L161.2 11.088ZM163.44 17.22L161.914 13.188L160.36 17.22H163.44ZM168.173 14.28H169.769V15.358H169.797C169.946 15.022 170.203 14.728 170.567 14.476C170.94 14.2147 171.379 14.084 171.883 14.084C172.321 14.084 172.695 14.1633 173.003 14.322C173.32 14.4713 173.577 14.672 173.773 14.924C173.978 15.176 174.127 15.4653 174.221 15.792C174.314 16.1187 174.361 16.4547 174.361 16.8V21H172.681V17.276C172.681 17.08 172.667 16.8747 172.639 16.66C172.611 16.4453 172.55 16.254 172.457 16.086C172.363 15.9087 172.233 15.764 172.065 15.652C171.906 15.54 171.691 15.484 171.421 15.484C171.15 15.484 170.917 15.54 170.721 15.652C170.525 15.7547 170.361 15.89 170.231 16.058C170.109 16.226 170.016 16.422 169.951 16.646C169.885 16.8607 169.853 17.08 169.853 17.304V21H168.173V14.28ZM176.601 14.28H178.197V15.358H178.225C178.375 15.022 178.631 14.728 178.995 14.476C179.369 14.2147 179.807 14.084 180.311 14.084C180.75 14.084 181.123 14.1633 181.431 14.322C181.749 14.4713 182.005 14.672 182.201 14.924C182.407 15.176 182.556 15.4653 182.649 15.792C182.743 16.1187 182.789 16.4547 182.789 16.8V21H181.109V17.276C181.109 17.08 181.095 16.8747 181.067 16.66C181.039 16.4453 180.979 16.254 180.885 16.086C180.792 15.9087 180.661 15.764 180.493 15.652C180.335 15.54 180.12 15.484 179.849 15.484C179.579 15.484 179.345 15.54 179.149 15.652C178.953 15.7547 178.79 15.89 178.659 16.058C178.538 16.226 178.445 16.422 178.379 16.646C178.314 16.8607 178.281 17.08 178.281 17.304V21H176.601V14.28ZM184.638 17.612C184.638 17.08 184.731 16.5993 184.918 16.17C185.114 15.7313 185.375 15.358 185.702 15.05C186.028 14.742 186.416 14.504 186.864 14.336C187.312 14.168 187.788 14.084 188.292 14.084C188.796 14.084 189.272 14.168 189.72 14.336C190.168 14.504 190.555 14.742 190.882 15.05C191.208 15.358 191.465 15.7313 191.652 16.17C191.848 16.5993 191.946 17.08 191.946 17.612C191.946 18.144 191.848 18.6293 191.652 19.068C191.465 19.5067 191.208 19.8847 190.882 20.202C190.555 20.51 190.168 20.7527 189.72 20.93C189.272 21.1073 188.796 21.196 188.292 21.196C187.788 21.196 187.312 21.1073 186.864 20.93C186.416 20.7527 186.028 20.51 185.702 20.202C185.375 19.8847 185.114 19.5067 184.918 19.068C184.731 18.6293 184.638 18.144 184.638 17.612ZM186.346 17.612C186.346 17.8733 186.383 18.1347 186.458 18.396C186.542 18.6573 186.663 18.8907 186.822 19.096C186.98 19.3013 187.181 19.4693 187.424 19.6C187.666 19.7307 187.956 19.796 188.292 19.796C188.628 19.796 188.917 19.7307 189.16 19.6C189.402 19.4693 189.603 19.3013 189.762 19.096C189.92 18.8907 190.037 18.6573 190.112 18.396C190.196 18.1347 190.238 17.8733 190.238 17.612C190.238 17.3507 190.196 17.094 190.112 16.842C190.037 16.5807 189.92 16.3473 189.762 16.142C189.603 15.9367 189.402 15.7733 189.16 15.652C188.917 15.5213 188.628 15.456 188.292 15.456C187.956 15.456 187.666 15.5213 187.424 15.652C187.181 15.7733 186.98 15.9367 186.822 16.142C186.663 16.3473 186.542 16.5807 186.458 16.842C186.383 17.094 186.346 17.3507 186.346 17.612ZM199.987 21H198.391V19.922H198.363C198.213 20.258 197.952 20.5567 197.579 20.818C197.215 21.07 196.781 21.196 196.277 21.196C195.838 21.196 195.46 21.1213 195.143 20.972C194.835 20.8133 194.578 20.608 194.373 20.356C194.177 20.104 194.032 19.8147 193.939 19.488C193.845 19.1613 193.799 18.8253 193.799 18.48V14.28H195.479V18.004C195.479 18.2 195.493 18.4053 195.521 18.62C195.549 18.8347 195.609 19.0307 195.703 19.208C195.796 19.376 195.922 19.516 196.081 19.628C196.249 19.74 196.468 19.796 196.739 19.796C197 19.796 197.229 19.7447 197.425 19.642C197.63 19.53 197.793 19.39 197.915 19.222C198.045 19.054 198.143 18.8627 198.209 18.648C198.274 18.424 198.307 18.2 198.307 17.976V14.28H199.987V21ZM202.283 14.28H203.879V15.358H203.907C204.056 15.022 204.313 14.728 204.677 14.476C205.05 14.2147 205.489 14.084 205.993 14.084C206.432 14.084 206.805 14.1633 207.113 14.322C207.43 14.4713 207.687 14.672 207.883 14.924C208.088 15.176 208.238 15.4653 208.331 15.792C208.424 16.1187 208.471 16.4547 208.471 16.8V21H206.791V17.276C206.791 17.08 206.777 16.8747 206.749 16.66C206.721 16.4453 206.66 16.254 206.567 16.086C206.474 15.9087 206.343 15.764 206.175 15.652C206.016 15.54 205.802 15.484 205.531 15.484C205.26 15.484 205.027 15.54 204.831 15.652C204.635 15.7547 204.472 15.89 204.341 16.058C204.22 16.226 204.126 16.422 204.061 16.646C203.996 16.8607 203.963 17.08 203.963 17.304V21H202.283V14.28ZM215.303 16.142C215.173 15.9553 214.977 15.8013 214.715 15.68C214.454 15.5493 214.188 15.484 213.917 15.484C213.609 15.484 213.339 15.5493 213.105 15.68C212.872 15.8013 212.676 15.9647 212.517 16.17C212.368 16.3753 212.256 16.6087 212.181 16.87C212.107 17.122 212.069 17.3787 212.069 17.64C212.069 17.9013 212.107 18.1627 212.181 18.424C212.265 18.676 212.387 18.9047 212.545 19.11C212.704 19.3153 212.9 19.4833 213.133 19.614C213.376 19.7353 213.656 19.796 213.973 19.796C214.235 19.796 214.496 19.7447 214.757 19.642C215.019 19.5393 215.229 19.39 215.387 19.194L216.437 20.258C216.157 20.5567 215.798 20.79 215.359 20.958C214.93 21.1167 214.463 21.196 213.959 21.196C213.465 21.196 212.993 21.1167 212.545 20.958C212.107 20.7993 211.719 20.566 211.383 20.258C211.057 19.95 210.795 19.5767 210.599 19.138C210.413 18.6993 210.319 18.2 210.319 17.64C210.319 17.0987 210.413 16.6087 210.599 16.17C210.795 15.7313 211.057 15.358 211.383 15.05C211.71 14.742 212.088 14.504 212.517 14.336C212.956 14.168 213.423 14.084 213.917 14.084C214.412 14.084 214.888 14.1773 215.345 14.364C215.812 14.5507 216.181 14.8073 216.451 15.134L215.303 16.142ZM222.559 16.968C222.559 16.7533 222.527 16.548 222.461 16.352C222.405 16.156 222.312 15.9833 222.181 15.834C222.051 15.6847 221.883 15.568 221.677 15.484C221.481 15.3907 221.248 15.344 220.977 15.344C220.473 15.344 220.044 15.498 219.689 15.806C219.344 16.1047 219.153 16.492 219.115 16.968H222.559ZM224.239 17.724C224.239 17.7987 224.239 17.8733 224.239 17.948C224.239 18.0227 224.235 18.0973 224.225 18.172H219.115C219.134 18.4147 219.195 18.6387 219.297 18.844C219.409 19.04 219.554 19.2127 219.731 19.362C219.909 19.502 220.109 19.614 220.333 19.698C220.557 19.782 220.791 19.824 221.033 19.824C221.453 19.824 221.808 19.7493 222.097 19.6C222.387 19.4413 222.625 19.2267 222.811 18.956L223.931 19.852C223.269 20.748 222.307 21.196 221.047 21.196C220.525 21.196 220.044 21.1167 219.605 20.958C219.167 20.79 218.784 20.5567 218.457 20.258C218.14 19.9593 217.888 19.5953 217.701 19.166C217.524 18.7273 217.435 18.2327 217.435 17.682C217.435 17.1407 217.524 16.6507 217.701 16.212C217.888 15.764 218.14 15.386 218.457 15.078C218.775 14.7607 219.148 14.518 219.577 14.35C220.016 14.1727 220.487 14.084 220.991 14.084C221.458 14.084 221.887 14.1633 222.279 14.322C222.681 14.4713 223.026 14.7 223.315 15.008C223.605 15.3067 223.829 15.6847 223.987 16.142C224.155 16.59 224.239 17.1173 224.239 17.724ZM234.168 14.084C234.607 14.084 234.98 14.1633 235.288 14.322C235.606 14.4713 235.862 14.672 236.058 14.924C236.264 15.176 236.413 15.4653 236.506 15.792C236.6 16.1187 236.646 16.4547 236.646 16.8V21H234.966V17.276C234.966 17.08 234.952 16.8747 234.924 16.66C234.896 16.4453 234.836 16.254 234.742 16.086C234.649 15.9087 234.518 15.764 234.35 15.652C234.192 15.54 233.977 15.484 233.706 15.484C233.445 15.484 233.221 15.54 233.034 15.652C232.848 15.764 232.694 15.9087 232.572 16.086C232.451 16.2633 232.362 16.464 232.306 16.688C232.25 16.9027 232.222 17.1173 232.222 17.332V21H230.542V16.94C230.542 16.52 230.44 16.1747 230.234 15.904C230.038 15.624 229.726 15.484 229.296 15.484C229.044 15.484 228.825 15.54 228.638 15.652C228.452 15.7547 228.298 15.89 228.176 16.058C228.064 16.226 227.976 16.422 227.91 16.646C227.854 16.8607 227.826 17.08 227.826 17.304V21H226.146V14.28H227.742V15.358H227.77C227.845 15.19 227.943 15.0313 228.064 14.882C228.195 14.7327 228.344 14.5973 228.512 14.476C228.69 14.3547 228.89 14.2613 229.114 14.196C229.338 14.1213 229.586 14.084 229.856 14.084C230.379 14.084 230.813 14.2007 231.158 14.434C231.504 14.6673 231.77 14.9753 231.956 15.358C232.18 14.9473 232.479 14.6347 232.852 14.42C233.226 14.196 233.664 14.084 234.168 14.084ZM243.614 16.968C243.614 16.7533 243.581 16.548 243.516 16.352C243.46 16.156 243.366 15.9833 243.236 15.834C243.105 15.6847 242.937 15.568 242.732 15.484C242.536 15.3907 242.302 15.344 242.032 15.344C241.528 15.344 241.098 15.498 240.744 15.806C240.398 16.1047 240.207 16.492 240.17 16.968H243.614ZM245.294 17.724C245.294 17.7987 245.294 17.8733 245.294 17.948C245.294 18.0227 245.289 18.0973 245.28 18.172H240.17C240.188 18.4147 240.249 18.6387 240.352 18.844C240.464 19.04 240.608 19.2127 240.786 19.362C240.963 19.502 241.164 19.614 241.388 19.698C241.612 19.782 241.845 19.824 242.088 19.824C242.508 19.824 242.862 19.7493 243.152 19.6C243.441 19.4413 243.679 19.2267 243.866 18.956L244.986 19.852C244.323 20.748 243.362 21.196 242.102 21.196C241.579 21.196 241.098 21.1167 240.66 20.958C240.221 20.79 239.838 20.5567 239.512 20.258C239.194 19.9593 238.942 19.5953 238.756 19.166C238.578 18.7273 238.49 18.2327 238.49 17.682C238.49 17.1407 238.578 16.6507 238.756 16.212C238.942 15.764 239.194 15.386 239.512 15.078C239.829 14.7607 240.202 14.518 240.632 14.35C241.07 14.1727 241.542 14.084 242.046 14.084C242.512 14.084 242.942 14.1633 243.334 14.322C243.735 14.4713 244.08 14.7 244.37 15.008C244.659 15.3067 244.883 15.6847 245.042 16.142C245.21 16.59 245.294 17.1173 245.294 17.724ZM247.201 14.28H248.797V15.358H248.825C248.974 15.022 249.231 14.728 249.595 14.476C249.968 14.2147 250.407 14.084 250.911 14.084C251.349 14.084 251.723 14.1633 252.031 14.322C252.348 14.4713 252.605 14.672 252.801 14.924C253.006 15.176 253.155 15.4653 253.249 15.792C253.342 16.1187 253.389 16.4547 253.389 16.8V21H251.709V17.276C251.709 17.08 251.695 16.8747 251.667 16.66C251.639 16.4453 251.578 16.254 251.485 16.086C251.391 15.9087 251.261 15.764 251.093 15.652C250.934 15.54 250.719 15.484 250.449 15.484C250.178 15.484 249.945 15.54 249.749 15.652C249.553 15.7547 249.389 15.89 249.259 16.058C249.137 16.226 249.044 16.422 248.979 16.646C248.913 16.8607 248.881 17.08 248.881 17.304V21H247.201V14.28ZM254.663 15.624V14.28H255.839V12.334H257.491V14.28H259.171V15.624H257.491V18.746C257.491 19.0447 257.542 19.292 257.645 19.488C257.757 19.684 258 19.782 258.373 19.782C258.485 19.782 258.606 19.7727 258.737 19.754C258.868 19.726 258.984 19.6887 259.087 19.642L259.143 20.958C258.994 21.014 258.816 21.056 258.611 21.084C258.406 21.1213 258.21 21.14 258.023 21.14C257.575 21.14 257.211 21.0793 256.931 20.958C256.651 20.8273 256.427 20.6547 256.259 20.44C256.1 20.216 255.988 19.964 255.923 19.684C255.867 19.3947 255.839 19.0867 255.839 18.76V15.624H254.663ZM264.349 16.072C264.199 15.876 263.994 15.708 263.733 15.568C263.471 15.4187 263.187 15.344 262.879 15.344C262.608 15.344 262.361 15.4 262.137 15.512C261.913 15.624 261.801 15.8107 261.801 16.072C261.801 16.3333 261.922 16.52 262.165 16.632C262.417 16.7347 262.781 16.842 263.257 16.954C263.509 17.01 263.761 17.0847 264.013 17.178C264.274 17.2713 264.507 17.3973 264.713 17.556C264.927 17.7053 265.1 17.8967 265.231 18.13C265.361 18.354 265.427 18.6293 265.427 18.956C265.427 19.3667 265.347 19.7167 265.189 20.006C265.039 20.286 264.834 20.5147 264.573 20.692C264.321 20.8693 264.022 20.9953 263.677 21.07C263.341 21.154 262.991 21.196 262.627 21.196C262.104 21.196 261.595 21.1027 261.101 20.916C260.606 20.72 260.195 20.4447 259.869 20.09L260.975 19.054C261.161 19.2967 261.404 19.4973 261.703 19.656C262.001 19.8147 262.333 19.894 262.697 19.894C262.818 19.894 262.939 19.88 263.061 19.852C263.191 19.824 263.308 19.782 263.411 19.726C263.523 19.6607 263.611 19.5767 263.677 19.474C263.742 19.3713 263.775 19.2453 263.775 19.096C263.775 18.816 263.644 18.6153 263.383 18.494C263.131 18.3727 262.748 18.2513 262.235 18.13C261.983 18.074 261.735 18.004 261.493 17.92C261.259 17.8267 261.049 17.71 260.863 17.57C260.676 17.4207 260.527 17.2387 260.415 17.024C260.303 16.8093 260.247 16.5433 260.247 16.226C260.247 15.8527 260.321 15.5307 260.471 15.26C260.629 14.9893 260.835 14.77 261.087 14.602C261.339 14.4247 261.623 14.294 261.941 14.21C262.258 14.126 262.585 14.084 262.921 14.084C263.406 14.084 263.877 14.168 264.335 14.336C264.801 14.504 265.17 14.7607 265.441 15.106L264.349 16.072Z" fill="#4D4D4D"/>
</g>
<g filter="url(#filter3_d_2807_3823)">
<rect x="285" y="2" width="146" height="29" rx="14.5" fill="white"/>
<path d="M301.092 11.088H302.856V15.092H307.49V11.088H309.254V21H307.49V16.604H302.856V21H301.092V11.088ZM316.37 16.968C316.37 16.7533 316.337 16.548 316.272 16.352C316.216 16.156 316.122 15.9833 315.992 15.834C315.861 15.6847 315.693 15.568 315.488 15.484C315.292 15.3907 315.058 15.344 314.788 15.344C314.284 15.344 313.854 15.498 313.5 15.806C313.154 16.1047 312.963 16.492 312.926 16.968H316.37ZM318.05 17.724C318.05 17.7987 318.05 17.8733 318.05 17.948C318.05 18.0227 318.045 18.0973 318.036 18.172H312.926C312.944 18.4147 313.005 18.6387 313.108 18.844C313.22 19.04 313.364 19.2127 313.542 19.362C313.719 19.502 313.92 19.614 314.144 19.698C314.368 19.782 314.601 19.824 314.844 19.824C315.264 19.824 315.618 19.7493 315.908 19.6C316.197 19.4413 316.435 19.2267 316.622 18.956L317.742 19.852C317.079 20.748 316.118 21.196 314.858 21.196C314.335 21.196 313.854 21.1167 313.416 20.958C312.977 20.79 312.594 20.5567 312.268 20.258C311.95 19.9593 311.698 19.5953 311.512 19.166C311.334 18.7273 311.246 18.2327 311.246 17.682C311.246 17.1407 311.334 16.6507 311.512 16.212C311.698 15.764 311.95 15.386 312.268 15.078C312.585 14.7607 312.958 14.518 313.388 14.35C313.826 14.1727 314.298 14.084 314.802 14.084C315.268 14.084 315.698 14.1633 316.09 14.322C316.491 14.4713 316.836 14.7 317.126 15.008C317.415 15.3067 317.639 15.6847 317.798 16.142C317.966 16.59 318.05 17.1173 318.05 17.724ZM319.985 10.416H321.665V21H319.985V10.416ZM325.593 14.28V15.218H325.635C325.719 15.0873 325.826 14.9567 325.957 14.826C326.097 14.686 326.265 14.5647 326.461 14.462C326.657 14.35 326.876 14.2613 327.119 14.196C327.371 14.1213 327.651 14.084 327.959 14.084C328.435 14.084 328.873 14.1773 329.275 14.364C329.676 14.5413 330.021 14.7887 330.311 15.106C330.6 15.4233 330.824 15.7967 330.983 16.226C331.141 16.6553 331.221 17.1173 331.221 17.612C331.221 18.1067 331.141 18.5733 330.983 19.012C330.833 19.4413 330.614 19.8193 330.325 20.146C330.045 20.4633 329.699 20.72 329.289 20.916C328.887 21.1027 328.43 21.196 327.917 21.196C327.441 21.196 327.002 21.098 326.601 20.902C326.209 20.706 325.905 20.44 325.691 20.104H325.663V24.36H323.983V14.28H325.593ZM329.513 17.612C329.513 17.3507 329.471 17.094 329.387 16.842C329.312 16.5807 329.195 16.3473 329.037 16.142C328.878 15.9367 328.677 15.7733 328.435 15.652C328.192 15.5213 327.907 15.456 327.581 15.456C327.273 15.456 326.997 15.5213 326.755 15.652C326.512 15.7827 326.302 15.9507 326.125 16.156C325.957 16.3613 325.826 16.5947 325.733 16.856C325.649 17.1173 325.607 17.3787 325.607 17.64C325.607 17.9013 325.649 18.1627 325.733 18.424C325.826 18.676 325.957 18.9047 326.125 19.11C326.302 19.3153 326.512 19.4833 326.755 19.614C326.997 19.7353 327.273 19.796 327.581 19.796C327.907 19.796 328.192 19.7307 328.435 19.6C328.677 19.4693 328.878 19.3013 329.037 19.096C329.195 18.8907 329.312 18.6573 329.387 18.396C329.471 18.1347 329.513 17.8733 329.513 17.612ZM343.874 18.634L346.184 21H343.944L342.852 19.866C342.525 20.2487 342.129 20.566 341.662 20.818C341.195 21.07 340.603 21.196 339.884 21.196C339.445 21.196 339.025 21.1353 338.624 21.014C338.223 20.8927 337.868 20.7107 337.56 20.468C337.261 20.2253 337.019 19.9267 336.832 19.572C336.655 19.208 336.566 18.788 336.566 18.312C336.566 17.948 336.627 17.6213 336.748 17.332C336.869 17.0333 337.028 16.7673 337.224 16.534C337.429 16.3007 337.658 16.1 337.91 15.932C338.171 15.764 338.442 15.6193 338.722 15.498C338.395 15.162 338.134 14.8167 337.938 14.462C337.751 14.098 337.658 13.7013 337.658 13.272C337.658 12.852 337.737 12.488 337.896 12.18C338.064 11.872 338.279 11.62 338.54 11.424C338.811 11.2187 339.109 11.0693 339.436 10.976C339.772 10.8827 340.113 10.836 340.458 10.836C340.813 10.836 341.153 10.8873 341.48 10.99C341.816 11.0833 342.11 11.2327 342.362 11.438C342.614 11.634 342.815 11.886 342.964 12.194C343.123 12.4927 343.202 12.8427 343.202 13.244C343.202 13.5613 343.146 13.8553 343.034 14.126C342.931 14.3873 342.787 14.63 342.6 14.854C342.423 15.0687 342.208 15.26 341.956 15.428C341.713 15.596 341.452 15.7453 341.172 15.876L342.796 17.57L343.944 15.764H345.862L343.874 18.634ZM340.486 12.194C340.159 12.194 339.884 12.2967 339.66 12.502C339.436 12.7073 339.324 12.9733 339.324 13.3C339.324 13.58 339.399 13.8507 339.548 14.112C339.707 14.3733 339.926 14.63 340.206 14.882C340.402 14.798 340.584 14.7047 340.752 14.602C340.929 14.4993 341.083 14.3827 341.214 14.252C341.345 14.1213 341.447 13.9767 341.522 13.818C341.597 13.6593 341.634 13.4867 341.634 13.3C341.634 13.0013 341.527 12.7447 341.312 12.53C341.097 12.306 340.822 12.194 340.486 12.194ZM339.674 16.576C339.487 16.6413 339.31 16.7207 339.142 16.814C338.983 16.9073 338.839 17.0193 338.708 17.15C338.587 17.2807 338.489 17.4393 338.414 17.626C338.339 17.8033 338.302 18.0087 338.302 18.242C338.302 18.4847 338.349 18.704 338.442 18.9C338.545 19.096 338.675 19.2593 338.834 19.39C338.993 19.5207 339.17 19.6233 339.366 19.698C339.562 19.7633 339.753 19.796 339.94 19.796C340.351 19.796 340.701 19.7073 340.99 19.53C341.279 19.3527 341.545 19.1007 341.788 18.774L339.674 16.576ZM351.423 11.088H357.989V12.628H353.187V15.148H357.737V16.632H353.187V19.432H358.241V21H351.423V11.088ZM361.872 17.43L359.45 14.28H361.466L362.922 16.366L364.42 14.28H366.352L363.944 17.43L366.688 21H364.644L362.894 18.55L361.13 21H359.142L361.872 17.43ZM372.419 16.142C372.288 15.9553 372.092 15.8013 371.831 15.68C371.569 15.5493 371.303 15.484 371.033 15.484C370.725 15.484 370.454 15.5493 370.221 15.68C369.987 15.8013 369.791 15.9647 369.633 16.17C369.483 16.3753 369.371 16.6087 369.297 16.87C369.222 17.122 369.185 17.3787 369.185 17.64C369.185 17.9013 369.222 18.1627 369.297 18.424C369.381 18.676 369.502 18.9047 369.661 19.11C369.819 19.3153 370.015 19.4833 370.249 19.614C370.491 19.7353 370.771 19.796 371.089 19.796C371.35 19.796 371.611 19.7447 371.873 19.642C372.134 19.5393 372.344 19.39 372.503 19.194L373.553 20.258C373.273 20.5567 372.913 20.79 372.475 20.958C372.045 21.1167 371.579 21.196 371.075 21.196C370.58 21.196 370.109 21.1167 369.661 20.958C369.222 20.7993 368.835 20.566 368.499 20.258C368.172 19.95 367.911 19.5767 367.715 19.138C367.528 18.6993 367.435 18.2 367.435 17.64C367.435 17.0987 367.528 16.6087 367.715 16.17C367.911 15.7313 368.172 15.358 368.499 15.05C368.825 14.742 369.203 14.504 369.633 14.336C370.071 14.168 370.538 14.084 371.033 14.084C371.527 14.084 372.003 14.1773 372.461 14.364C372.927 14.5507 373.296 14.8073 373.567 15.134L372.419 16.142ZM378.681 14.084C379.119 14.084 379.493 14.1633 379.801 14.322C380.118 14.4713 380.375 14.672 380.571 14.924C380.776 15.176 380.925 15.4653 381.019 15.792C381.112 16.1187 381.159 16.4547 381.159 16.8V21H379.479V17.304C379.479 17.108 379.465 16.9073 379.437 16.702C379.409 16.4873 379.348 16.296 379.255 16.128C379.171 15.9507 379.045 15.806 378.877 15.694C378.718 15.582 378.503 15.526 378.233 15.526C377.962 15.526 377.729 15.5773 377.533 15.68C377.337 15.7827 377.173 15.9227 377.043 16.1C376.912 16.268 376.814 16.4593 376.749 16.674C376.683 16.8887 376.651 17.108 376.651 17.332V21H374.971V10.416H376.651V15.218H376.679C376.744 15.078 376.837 14.9427 376.959 14.812C377.089 14.672 377.239 14.5507 377.407 14.448C377.575 14.336 377.766 14.2473 377.981 14.182C378.195 14.1167 378.429 14.084 378.681 14.084ZM387.571 20.146H387.529C387.361 20.4447 387.09 20.692 386.717 20.888C386.343 21.0747 385.919 21.168 385.443 21.168C385.172 21.168 384.887 21.1307 384.589 21.056C384.299 20.9907 384.029 20.8787 383.777 20.72C383.534 20.552 383.329 20.3373 383.161 20.076C383.002 19.8053 382.923 19.474 382.923 19.082C382.923 18.578 383.063 18.1767 383.343 17.878C383.632 17.5793 384.001 17.3507 384.449 17.192C384.897 17.0333 385.391 16.9307 385.933 16.884C386.483 16.828 387.02 16.8 387.543 16.8V16.632C387.543 16.212 387.389 15.904 387.081 15.708C386.782 15.5027 386.423 15.4 386.003 15.4C385.648 15.4 385.307 15.4747 384.981 15.624C384.654 15.7733 384.383 15.9553 384.169 16.17L383.301 15.148C383.683 14.7933 384.122 14.5273 384.617 14.35C385.121 14.1727 385.629 14.084 386.143 14.084C386.74 14.084 387.23 14.168 387.613 14.336C388.005 14.504 388.313 14.7233 388.537 14.994C388.761 15.2647 388.915 15.568 388.999 15.904C389.092 16.24 389.139 16.576 389.139 16.912V21H387.571V20.146ZM387.543 17.934H387.165C386.894 17.934 386.609 17.948 386.311 17.976C386.012 17.9947 385.737 18.046 385.485 18.13C385.233 18.2047 385.023 18.3167 384.855 18.466C384.687 18.606 384.603 18.802 384.603 19.054C384.603 19.2127 384.635 19.348 384.701 19.46C384.775 19.5627 384.869 19.6467 384.981 19.712C385.093 19.7773 385.219 19.824 385.359 19.852C385.499 19.88 385.639 19.894 385.779 19.894C386.357 19.894 386.796 19.74 387.095 19.432C387.393 19.124 387.543 18.704 387.543 18.172V17.934ZM391.376 14.28H392.972V15.358H393C393.149 15.022 393.406 14.728 393.77 14.476C394.143 14.2147 394.582 14.084 395.086 14.084C395.524 14.084 395.898 14.1633 396.206 14.322C396.523 14.4713 396.78 14.672 396.976 14.924C397.181 15.176 397.33 15.4653 397.424 15.792C397.517 16.1187 397.564 16.4547 397.564 16.8V21H395.884V17.276C395.884 17.08 395.87 16.8747 395.842 16.66C395.814 16.4453 395.753 16.254 395.66 16.086C395.566 15.9087 395.436 15.764 395.268 15.652C395.109 15.54 394.894 15.484 394.624 15.484C394.353 15.484 394.12 15.54 393.924 15.652C393.728 15.7547 393.564 15.89 393.434 16.058C393.312 16.226 393.219 16.422 393.154 16.646C393.088 16.8607 393.056 17.08 393.056 17.304V21H391.376V14.28ZM406.636 14.28V20.398C406.636 21.0047 406.562 21.5507 406.412 22.036C406.263 22.5307 406.03 22.946 405.712 23.282C405.404 23.6273 405.012 23.8933 404.536 24.08C404.06 24.2667 403.496 24.36 402.842 24.36C402.572 24.36 402.282 24.3367 401.974 24.29C401.676 24.2433 401.377 24.1733 401.078 24.08C400.789 23.9867 400.509 23.87 400.238 23.73C399.968 23.59 399.725 23.4313 399.51 23.254L400.476 21.952C400.803 22.26 401.172 22.4933 401.582 22.652C401.993 22.82 402.408 22.904 402.828 22.904C403.23 22.904 403.566 22.8433 403.836 22.722C404.116 22.61 404.336 22.4513 404.494 22.246C404.662 22.0407 404.779 21.798 404.844 21.518C404.919 21.238 404.956 20.93 404.956 20.594V20.104H404.928C404.686 20.4307 404.373 20.6827 403.99 20.86C403.617 21.028 403.197 21.112 402.73 21.112C402.226 21.112 401.769 21.0187 401.358 20.832C400.948 20.6453 400.598 20.3933 400.308 20.076C400.028 19.7587 399.809 19.39 399.65 18.97C399.492 18.5407 399.412 18.088 399.412 17.612C399.412 17.1267 399.487 16.6693 399.636 16.24C399.795 15.8107 400.014 15.4373 400.294 15.12C400.584 14.8027 400.929 14.5507 401.33 14.364C401.741 14.1773 402.198 14.084 402.702 14.084C403.178 14.084 403.622 14.182 404.032 14.378C404.443 14.574 404.77 14.8773 405.012 15.288H405.04V14.28H406.636ZM403.052 15.456C402.744 15.456 402.469 15.512 402.226 15.624C401.993 15.736 401.792 15.89 401.624 16.086C401.466 16.2727 401.34 16.4967 401.246 16.758C401.162 17.0193 401.12 17.2993 401.12 17.598C401.12 17.8687 401.162 18.13 401.246 18.382C401.34 18.634 401.466 18.8627 401.624 19.068C401.792 19.264 401.993 19.4227 402.226 19.544C402.469 19.6653 402.74 19.726 403.038 19.726C403.346 19.726 403.622 19.67 403.864 19.558C404.116 19.4367 404.326 19.278 404.494 19.082C404.672 18.886 404.807 18.662 404.9 18.41C404.994 18.1487 405.04 17.878 405.04 17.598C405.04 17.3087 404.994 17.0333 404.9 16.772C404.807 16.5107 404.672 16.282 404.494 16.086C404.326 15.89 404.121 15.736 403.878 15.624C403.636 15.512 403.36 15.456 403.052 15.456ZM413.662 16.968C413.662 16.7533 413.629 16.548 413.564 16.352C413.508 16.156 413.415 15.9833 413.284 15.834C413.153 15.6847 412.985 15.568 412.78 15.484C412.584 15.3907 412.351 15.344 412.08 15.344C411.576 15.344 411.147 15.498 410.792 15.806C410.447 16.1047 410.255 16.492 410.218 16.968H413.662ZM415.342 17.724C415.342 17.7987 415.342 17.8733 415.342 17.948C415.342 18.0227 415.337 18.0973 415.328 18.172H410.218C410.237 18.4147 410.297 18.6387 410.4 18.844C410.512 19.04 410.657 19.2127 410.834 19.362C411.011 19.502 411.212 19.614 411.436 19.698C411.66 19.782 411.893 19.824 412.136 19.824C412.556 19.824 412.911 19.7493 413.2 19.6C413.489 19.4413 413.727 19.2267 413.914 18.956L415.034 19.852C414.371 20.748 413.41 21.196 412.15 21.196C411.627 21.196 411.147 21.1167 410.708 20.958C410.269 20.79 409.887 20.5567 409.56 20.258C409.243 19.9593 408.991 19.5953 408.804 19.166C408.627 18.7273 408.538 18.2327 408.538 17.682C408.538 17.1407 408.627 16.6507 408.804 16.212C408.991 15.764 409.243 15.386 409.56 15.078C409.877 14.7607 410.251 14.518 410.68 14.35C411.119 14.1727 411.59 14.084 412.094 14.084C412.561 14.084 412.99 14.1633 413.382 14.322C413.783 14.4713 414.129 14.7 414.418 15.008C414.707 15.3067 414.931 15.6847 415.09 16.142C415.258 16.59 415.342 17.1173 415.342 17.724Z" fill="#4D4D4D"/>
</g>
<g filter="url(#filter4_d_2807_3823)">
<rect x="435" y="2" width="114" height="29" rx="14.5" fill="white"/>
<path d="M451.092 11.088H453.85L456.426 18.13H456.468L459.016 11.088H461.788V21H460.038V13.034H460.01L457 21H455.768L452.8 13.034H452.772V21H451.092V11.088ZM468.339 20.146H468.297C468.129 20.4447 467.858 20.692 467.485 20.888C467.112 21.0747 466.687 21.168 466.211 21.168C465.94 21.168 465.656 21.1307 465.357 21.056C465.068 20.9907 464.797 20.8787 464.545 20.72C464.302 20.552 464.097 20.3373 463.929 20.076C463.77 19.8053 463.691 19.474 463.691 19.082C463.691 18.578 463.831 18.1767 464.111 17.878C464.4 17.5793 464.769 17.3507 465.217 17.192C465.665 17.0333 466.16 16.9307 466.701 16.884C467.252 16.828 467.788 16.8 468.311 16.8V16.632C468.311 16.212 468.157 15.904 467.849 15.708C467.55 15.5027 467.191 15.4 466.771 15.4C466.416 15.4 466.076 15.4747 465.749 15.624C465.422 15.7733 465.152 15.9553 464.937 16.17L464.069 15.148C464.452 14.7933 464.89 14.5273 465.385 14.35C465.889 14.1727 466.398 14.084 466.911 14.084C467.508 14.084 467.998 14.168 468.381 14.336C468.773 14.504 469.081 14.7233 469.305 14.994C469.529 15.2647 469.683 15.568 469.767 15.904C469.86 16.24 469.907 16.576 469.907 16.912V21H468.339V20.146ZM468.311 17.934H467.933C467.662 17.934 467.378 17.948 467.079 17.976C466.78 17.9947 466.505 18.046 466.253 18.13C466.001 18.2047 465.791 18.3167 465.623 18.466C465.455 18.606 465.371 18.802 465.371 19.054C465.371 19.2127 465.404 19.348 465.469 19.46C465.544 19.5627 465.637 19.6467 465.749 19.712C465.861 19.7773 465.987 19.824 466.127 19.852C466.267 19.88 466.407 19.894 466.547 19.894C467.126 19.894 467.564 19.74 467.863 19.432C468.162 19.124 468.311 18.704 468.311 18.172V17.934ZM472.144 14.28H473.754V15.4H473.782C473.969 15.008 474.23 14.6907 474.566 14.448C474.902 14.2053 475.294 14.084 475.742 14.084C475.808 14.084 475.878 14.0887 475.952 14.098C476.027 14.098 476.092 14.1073 476.148 14.126V15.666C476.036 15.638 475.938 15.6193 475.854 15.61C475.78 15.6007 475.705 15.596 475.63 15.596C475.248 15.596 474.94 15.666 474.706 15.806C474.473 15.946 474.291 16.114 474.16 16.31C474.03 16.506 473.941 16.7067 473.894 16.912C473.848 17.1173 473.824 17.2807 473.824 17.402V21H472.144V14.28ZM477.552 10.416H479.232V17.108H479.274L481.822 14.28H483.978L481.066 17.318L484.16 21H481.934L479.274 17.556H479.232V21H477.552V10.416ZM489.891 16.968C489.891 16.7533 489.859 16.548 489.793 16.352C489.737 16.156 489.644 15.9833 489.513 15.834C489.383 15.6847 489.215 15.568 489.009 15.484C488.813 15.3907 488.58 15.344 488.309 15.344C487.805 15.344 487.376 15.498 487.021 15.806C486.676 16.1047 486.485 16.492 486.447 16.968H489.891ZM491.571 17.724C491.571 17.7987 491.571 17.8733 491.571 17.948C491.571 18.0227 491.567 18.0973 491.557 18.172H486.447C486.466 18.4147 486.527 18.6387 486.629 18.844C486.741 19.04 486.886 19.2127 487.063 19.362C487.241 19.502 487.441 19.614 487.665 19.698C487.889 19.782 488.123 19.824 488.365 19.824C488.785 19.824 489.14 19.7493 489.429 19.6C489.719 19.4413 489.957 19.2267 490.143 18.956L491.263 19.852C490.601 20.748 489.639 21.196 488.379 21.196C487.857 21.196 487.376 21.1167 486.937 20.958C486.499 20.79 486.116 20.5567 485.789 20.258C485.472 19.9593 485.22 19.5953 485.033 19.166C484.856 18.7273 484.767 18.2327 484.767 17.682C484.767 17.1407 484.856 16.6507 485.033 16.212C485.22 15.764 485.472 15.386 485.789 15.078C486.107 14.7607 486.48 14.518 486.909 14.35C487.348 14.1727 487.819 14.084 488.323 14.084C488.79 14.084 489.219 14.1633 489.611 14.322C490.013 14.4713 490.358 14.7 490.647 15.008C490.937 15.3067 491.161 15.6847 491.319 16.142C491.487 16.59 491.571 17.1173 491.571 17.724ZM492.512 15.624V14.28H493.688V12.334H495.34V14.28H497.02V15.624H495.34V18.746C495.34 19.0447 495.392 19.292 495.494 19.488C495.606 19.684 495.849 19.782 496.222 19.782C496.334 19.782 496.456 19.7727 496.586 19.754C496.717 19.726 496.834 19.6887 496.936 19.642L496.992 20.958C496.843 21.014 496.666 21.056 496.46 21.084C496.255 21.1213 496.059 21.14 495.872 21.14C495.424 21.14 495.06 21.0793 494.78 20.958C494.5 20.8273 494.276 20.6547 494.108 20.44C493.95 20.216 493.838 19.964 493.772 19.684C493.716 19.3947 493.688 19.0867 493.688 18.76V15.624H492.512ZM500.126 14.28V15.218H500.168C500.252 15.0873 500.359 14.9567 500.49 14.826C500.63 14.686 500.798 14.5647 500.994 14.462C501.19 14.35 501.409 14.2613 501.652 14.196C501.904 14.1213 502.184 14.084 502.492 14.084C502.968 14.084 503.407 14.1773 503.808 14.364C504.209 14.5413 504.555 14.7887 504.844 15.106C505.133 15.4233 505.357 15.7967 505.516 16.226C505.675 16.6553 505.754 17.1173 505.754 17.612C505.754 18.1067 505.675 18.5733 505.516 19.012C505.367 19.4413 505.147 19.8193 504.858 20.146C504.578 20.4633 504.233 20.72 503.822 20.916C503.421 21.1027 502.963 21.196 502.45 21.196C501.974 21.196 501.535 21.098 501.134 20.902C500.742 20.706 500.439 20.44 500.224 20.104H500.196V24.36H498.516V14.28H500.126ZM504.046 17.612C504.046 17.3507 504.004 17.094 503.92 16.842C503.845 16.5807 503.729 16.3473 503.57 16.142C503.411 15.9367 503.211 15.7733 502.968 15.652C502.725 15.5213 502.441 15.456 502.114 15.456C501.806 15.456 501.531 15.5213 501.288 15.652C501.045 15.7827 500.835 15.9507 500.658 16.156C500.49 16.3613 500.359 16.5947 500.266 16.856C500.182 17.1173 500.14 17.3787 500.14 17.64C500.14 17.9013 500.182 18.1627 500.266 18.424C500.359 18.676 500.49 18.9047 500.658 19.11C500.835 19.3153 501.045 19.4833 501.288 19.614C501.531 19.7353 501.806 19.796 502.114 19.796C502.441 19.796 502.725 19.7307 502.968 19.6C503.211 19.4693 503.411 19.3013 503.57 19.096C503.729 18.8907 503.845 18.6573 503.92 18.396C504.004 18.1347 504.046 17.8733 504.046 17.612ZM507.683 10.416H509.363V21H507.683V10.416ZM515.854 20.146H515.812C515.644 20.4447 515.373 20.692 515 20.888C514.626 21.0747 514.202 21.168 513.726 21.168C513.455 21.168 513.17 21.1307 512.872 21.056C512.582 20.9907 512.312 20.8787 512.06 20.72C511.817 20.552 511.612 20.3373 511.444 20.076C511.285 19.8053 511.206 19.474 511.206 19.082C511.206 18.578 511.346 18.1767 511.626 17.878C511.915 17.5793 512.284 17.3507 512.732 17.192C513.18 17.0333 513.674 16.9307 514.216 16.884C514.766 16.828 515.303 16.8 515.826 16.8V16.632C515.826 16.212 515.672 15.904 515.364 15.708C515.065 15.5027 514.706 15.4 514.286 15.4C513.931 15.4 513.59 15.4747 513.264 15.624C512.937 15.7733 512.666 15.9553 512.452 16.17L511.584 15.148C511.966 14.7933 512.405 14.5273 512.9 14.35C513.404 14.1727 513.912 14.084 514.426 14.084C515.023 14.084 515.513 14.168 515.896 14.336C516.288 14.504 516.596 14.7233 516.82 14.994C517.044 15.2647 517.198 15.568 517.282 15.904C517.375 16.24 517.422 16.576 517.422 16.912V21H515.854V20.146ZM515.826 17.934H515.448C515.177 17.934 514.892 17.948 514.594 17.976C514.295 17.9947 514.02 18.046 513.768 18.13C513.516 18.2047 513.306 18.3167 513.138 18.466C512.97 18.606 512.886 18.802 512.886 19.054C512.886 19.2127 512.918 19.348 512.984 19.46C513.058 19.5627 513.152 19.6467 513.264 19.712C513.376 19.7773 513.502 19.824 513.642 19.852C513.782 19.88 513.922 19.894 514.062 19.894C514.64 19.894 515.079 19.74 515.378 19.432C515.676 19.124 515.826 18.704 515.826 18.172V17.934ZM524.251 16.142C524.12 15.9553 523.924 15.8013 523.663 15.68C523.402 15.5493 523.136 15.484 522.865 15.484C522.557 15.484 522.286 15.5493 522.053 15.68C521.82 15.8013 521.624 15.9647 521.465 16.17C521.316 16.3753 521.204 16.6087 521.129 16.87C521.054 17.122 521.017 17.3787 521.017 17.64C521.017 17.9013 521.054 18.1627 521.129 18.424C521.213 18.676 521.334 18.9047 521.493 19.11C521.652 19.3153 521.848 19.4833 522.081 19.614C522.324 19.7353 522.604 19.796 522.921 19.796C523.182 19.796 523.444 19.7447 523.705 19.642C523.966 19.5393 524.176 19.39 524.335 19.194L525.385 20.258C525.105 20.5567 524.746 20.79 524.307 20.958C523.878 21.1167 523.411 21.196 522.907 21.196C522.412 21.196 521.941 21.1167 521.493 20.958C521.054 20.7993 520.667 20.566 520.331 20.258C520.004 19.95 519.743 19.5767 519.547 19.138C519.36 18.6993 519.267 18.2 519.267 17.64C519.267 17.0987 519.36 16.6087 519.547 16.17C519.743 15.7313 520.004 15.358 520.331 15.05C520.658 14.742 521.036 14.504 521.465 14.336C521.904 14.168 522.37 14.084 522.865 14.084C523.36 14.084 523.836 14.1773 524.293 14.364C524.76 14.5507 525.128 14.8073 525.399 15.134L524.251 16.142ZM531.507 16.968C531.507 16.7533 531.474 16.548 531.409 16.352C531.353 16.156 531.259 15.9833 531.129 15.834C530.998 15.6847 530.83 15.568 530.625 15.484C530.429 15.3907 530.195 15.344 529.925 15.344C529.421 15.344 528.991 15.498 528.637 15.806C528.291 16.1047 528.1 16.492 528.063 16.968H531.507ZM533.187 17.724C533.187 17.7987 533.187 17.8733 533.187 17.948C533.187 18.0227 533.182 18.0973 533.173 18.172H528.063C528.081 18.4147 528.142 18.6387 528.245 18.844C528.357 19.04 528.501 19.2127 528.679 19.362C528.856 19.502 529.057 19.614 529.281 19.698C529.505 19.782 529.738 19.824 529.981 19.824C530.401 19.824 530.755 19.7493 531.045 19.6C531.334 19.4413 531.572 19.2267 531.759 18.956L532.879 19.852C532.216 20.748 531.255 21.196 529.995 21.196C529.472 21.196 528.991 21.1167 528.553 20.958C528.114 20.79 527.731 20.5567 527.405 20.258C527.087 19.9593 526.835 19.5953 526.649 19.166C526.471 18.7273 526.383 18.2327 526.383 17.682C526.383 17.1407 526.471 16.6507 526.649 16.212C526.835 15.764 527.087 15.386 527.405 15.078C527.722 14.7607 528.095 14.518 528.525 14.35C528.963 14.1727 529.435 14.084 529.939 14.084C530.405 14.084 530.835 14.1633 531.227 14.322C531.628 14.4713 531.973 14.7 532.263 15.008C532.552 15.3067 532.776 15.6847 532.935 16.142C533.103 16.59 533.187 17.1173 533.187 17.724Z" fill="#4D4D4D"/>
</g>
<defs>
<filter id="filter0_d_2807_3823" x="0" y="0" width="52" height="33" filterUnits="userSpaceOnUse" color-interpolation-filters="sRGB">
<feFlood flood-opacity="0" result="BackgroundImageFix"/>
<feColorMatrix in="SourceAlpha" type="matrix" values="0 0 0 0 0 0 0 0 0 0 0 0 0 0 0 0 0 0 127 0" result="hardAlpha"/>
<feOffset/>
<feGaussianBlur stdDeviation="1"/>
<feComposite in2="hardAlpha" operator="out"/>
<feColorMatrix type="matrix" values="0 0 0 0 0 0 0 0 0 0 0 0 0 0 0 0 0 0 0.25 0"/>
<feBlend mode="normal" in2="BackgroundImageFix" result="effect1_dropShadow_2807_3823"/>
<feBlend mode="normal" in="SourceGraphic" in2="effect1_dropShadow_2807_3823" result="shape"/>
</filter>
<filter id="filter1_d_2807_3823" x="52" y="0" width="88" height="33" filterUnits="userSpaceOnUse" color-interpolation-filters="sRGB">
<feFlood flood-opacity="0" result="BackgroundImageFix"/>
<feColorMatrix in="SourceAlpha" type="matrix" values="0 0 0 0 0 0 0 0 0 0 0 0 0 0 0 0 0 0 127 0" result="hardAlpha"/>
<feOffset/>
<feGaussianBlur stdDeviation="1"/>
<feComposite in2="hardAlpha" operator="out"/>
<feColorMatrix type="matrix" values="0 0 0 0 0 0 0 0 0 0 0 0 0 0 0 0 0 0 0.25 0"/>
<feBlend mode="normal" in2="BackgroundImageFix" result="effect1_dropShadow_2807_3823"/>
<feBlend mode="normal" in="SourceGraphic" in2="effect1_dropShadow_2807_3823" result="shape"/>
</filter>
<filter id="filter2_d_2807_3823" x="140" y="0" width="143" height="33" filterUnits="userSpaceOnUse" color-interpolation-filters="sRGB">
<feFlood flood-opacity="0" result="BackgroundImageFix"/>
<feColorMatrix in="SourceAlpha" type="matrix" values="0 0 0 0 0 0 0 0 0 0 0 0 0 0 0 0 0 0 127 0" result="hardAlpha"/>
<feOffset/>
<feGaussianBlur stdDeviation="1"/>
<feComposite in2="hardAlpha" operator="out"/>
<feColorMatrix type="matrix" values="0 0 0 0 0 0 0 0 0 0 0 0 0 0 0 0 0 0 0.25 0"/>
<feBlend mode="normal" in2="BackgroundImageFix" result="effect1_dropShadow_2807_3823"/>
<feBlend mode="normal" in="SourceGraphic" in2="effect1_dropShadow_2807_3823" result="shape"/>
</filter>
<filter id="filter3_d_2807_3823" x="283" y="0" width="150" height="33" filterUnits="userSpaceOnUse" color-interpolation-filters="sRGB">
<feFlood flood-opacity="0" result="BackgroundImageFix"/>
<feColorMatrix in="SourceAlpha" type="matrix" values="0 0 0 0 0 0 0 0 0 0 0 0 0 0 0 0 0 0 127 0" result="hardAlpha"/>
<feOffset/>
<feGaussianBlur stdDeviation="1"/>
<feComposite in2="hardAlpha" operator="out"/>
<feColorMatrix type="matrix" values="0 0 0 0 0 0 0 0 0 0 0 0 0 0 0 0 0 0 0.25 0"/>
<feBlend mode="normal" in2="BackgroundImageFix" result="effect1_dropShadow_2807_3823"/>
<feBlend mode="normal" in="SourceGraphic" in2="effect1_dropShadow_2807_3823" result="shape"/>
</filter>
<filter id="filter4_d_2807_3823" x="433" y="0" width="118" height="33" filterUnits="userSpaceOnUse" color-interpolation-filters="sRGB">
<feFlood flood-opacity="0" result="BackgroundImageFix"/>
<feColorMatrix in="SourceAlpha" type="matrix" values="0 0 0 0 0 0 0 0 0 0 0 0 0 0 0 0 0 0 127 0" result="hardAlpha"/>
<feOffset/>
<feGaussianBlur stdDeviation="1"/>
<feComposite in2="hardAlpha" operator="out"/>
<feColorMatrix type="matrix" values="0 0 0 0 0 0 0 0 0 0 0 0 0 0 0 0 0 0 0.25 0"/>
<feBlend mode="normal" in2="BackgroundImageFix" result="effect1_dropShadow_2807_3823"/>
<feBlend mode="normal" in="SourceGraphic" in2="effect1_dropShadow_2807_3823" result="shape"/>
</filter>
</defs>
</svg>
