<svg width="80" height="30" viewBox="0 0 80 30" fill="none" xmlns="http://www.w3.org/2000/svg">
<g filter="url(#filter0_d_2807_3836)">
<rect x="2" y="2" width="76" height="26" rx="13" fill="#0EADFF"/>
<path d="M25.376 18.556C24.944 18.764 24.468 18.924 23.948 19.036C23.436 19.156 22.844 19.216 22.172 19.216C21.484 19.216 20.856 19.108 20.288 18.892C19.72 18.668 19.232 18.36 18.824 17.968C18.416 17.568 18.096 17.096 17.864 16.552C17.64 16 17.528 15.392 17.528 14.728C17.528 14.048 17.644 13.436 17.876 12.892C18.116 12.34 18.44 11.872 18.848 11.488C19.264 11.104 19.752 10.808 20.312 10.6C20.872 10.392 21.48 10.288 22.136 10.288C22.816 10.288 23.436 10.388 23.996 10.588C24.564 10.78 25.02 11.036 25.364 11.356L24.32 12.484C24.104 12.244 23.8 12.04 23.408 11.872C23.024 11.704 22.604 11.62 22.148 11.62C21.7 11.62 21.292 11.7 20.924 11.86C20.564 12.02 20.256 12.24 20 12.52C19.744 12.8 19.544 13.128 19.4 13.504C19.264 13.88 19.196 14.288 19.196 14.728C19.196 15.184 19.264 15.604 19.4 15.988C19.544 16.364 19.744 16.692 20 16.972C20.264 17.252 20.58 17.472 20.948 17.632C21.324 17.784 21.748 17.86 22.22 17.86C22.868 17.86 23.432 17.76 23.912 17.56V15.4H22.124V14.152H25.376V18.556ZM31.4413 15.544C31.4413 15.36 31.4133 15.184 31.3573 15.016C31.3092 14.848 31.2292 14.7 31.1172 14.572C31.0052 14.444 30.8612 14.344 30.6852 14.272C30.5172 14.192 30.3172 14.152 30.0853 14.152C29.6532 14.152 29.2852 14.284 28.9812 14.548C28.6852 14.804 28.5212 15.136 28.4892 15.544H31.4413ZM32.8813 16.192C32.8813 16.256 32.8813 16.32 32.8813 16.384C32.8813 16.448 32.8773 16.512 32.8693 16.576H28.4892C28.5052 16.784 28.5572 16.976 28.6452 17.152C28.7412 17.32 28.8652 17.468 29.0172 17.596C29.1692 17.716 29.3412 17.812 29.5332 17.884C29.7252 17.956 29.9252 17.992 30.1333 17.992C30.4933 17.992 30.7972 17.928 31.0452 17.8C31.2932 17.664 31.4973 17.48 31.6573 17.248L32.6172 18.016C32.0492 18.784 31.2252 19.168 30.1452 19.168C29.6972 19.168 29.2852 19.1 28.9092 18.964C28.5332 18.82 28.2052 18.62 27.9252 18.364C27.6532 18.108 27.4372 17.796 27.2772 17.428C27.1252 17.052 27.0492 16.628 27.0492 16.156C27.0492 15.692 27.1252 15.272 27.2772 14.896C27.4372 14.512 27.6532 14.188 27.9252 13.924C28.1972 13.652 28.5172 13.444 28.8852 13.3C29.2612 13.148 29.6652 13.072 30.0972 13.072C30.4972 13.072 30.8652 13.14 31.2012 13.276C31.5453 13.404 31.8413 13.6 32.0892 13.864C32.3373 14.12 32.5293 14.444 32.6653 14.836C32.8093 15.22 32.8813 15.672 32.8813 16.192ZM34.5159 13.24H35.8839V14.164H35.9079C36.0359 13.876 36.2559 13.624 36.5679 13.408C36.8879 13.184 37.2639 13.072 37.6959 13.072C38.0719 13.072 38.3919 13.14 38.6559 13.276C38.9279 13.404 39.1479 13.576 39.3159 13.792C39.4919 14.008 39.6199 14.256 39.6999 14.536C39.7799 14.816 39.8199 15.104 39.8199 15.4V19H38.3799V15.808C38.3799 15.64 38.3679 15.464 38.3439 15.28C38.3199 15.096 38.2679 14.932 38.1879 14.788C38.1079 14.636 37.9959 14.512 37.8519 14.416C37.7159 14.32 37.5319 14.272 37.2999 14.272C37.0679 14.272 36.8679 14.32 36.6999 14.416C36.5319 14.504 36.3919 14.62 36.2799 14.764C36.1759 14.908 36.0959 15.076 36.0399 15.268C35.9839 15.452 35.9559 15.64 35.9559 15.832V19H34.5159V13.24ZM45.7962 15.544C45.7962 15.36 45.7682 15.184 45.7122 15.016C45.6642 14.848 45.5842 14.7 45.4722 14.572C45.3602 14.444 45.2162 14.344 45.0402 14.272C44.8722 14.192 44.6722 14.152 44.4402 14.152C44.0082 14.152 43.6402 14.284 43.3362 14.548C43.0402 14.804 42.8762 15.136 42.8442 15.544H45.7962ZM47.2362 16.192C47.2362 16.256 47.2362 16.32 47.2362 16.384C47.2362 16.448 47.2322 16.512 47.2242 16.576H42.8442C42.8602 16.784 42.9122 16.976 43.0002 17.152C43.0962 17.32 43.2202 17.468 43.3722 17.596C43.5242 17.716 43.6962 17.812 43.8882 17.884C44.0802 17.956 44.2802 17.992 44.4882 17.992C44.8482 17.992 45.1522 17.928 45.4002 17.8C45.6482 17.664 45.8522 17.48 46.0122 17.248L46.9722 18.016C46.4042 18.784 45.5802 19.168 44.5002 19.168C44.0522 19.168 43.6402 19.1 43.2642 18.964C42.8882 18.82 42.5602 18.62 42.2802 18.364C42.0082 18.108 41.7922 17.796 41.6322 17.428C41.4802 17.052 41.4042 16.628 41.4042 16.156C41.4042 15.692 41.4802 15.272 41.6322 14.896C41.7922 14.512 42.0082 14.188 42.2802 13.924C42.5522 13.652 42.8722 13.444 43.2402 13.3C43.6162 13.148 44.0202 13.072 44.4522 13.072C44.8522 13.072 45.2202 13.14 45.5562 13.276C45.9002 13.404 46.1962 13.6 46.4442 13.864C46.6922 14.12 46.8842 14.444 47.0202 14.836C47.1642 15.22 47.2362 15.672 47.2362 16.192ZM48.8709 13.24H50.2509V14.2H50.2749C50.4349 13.864 50.6589 13.592 50.9469 13.384C51.2349 13.176 51.5709 13.072 51.9549 13.072C52.0109 13.072 52.0709 13.076 52.1349 13.084C52.1989 13.084 52.2549 13.092 52.3029 13.108V14.428C52.2069 14.404 52.1229 14.388 52.0509 14.38C51.9869 14.372 51.9229 14.368 51.8589 14.368C51.5309 14.368 51.2669 14.428 51.0669 14.548C50.8669 14.668 50.7109 14.812 50.5989 14.98C50.4869 15.148 50.4109 15.32 50.3709 15.496C50.3309 15.672 50.3109 15.812 50.3109 15.916V19H48.8709V13.24ZM56.9056 18.268H56.8696C56.7256 18.524 56.4936 18.736 56.1736 18.904C55.8536 19.064 55.4896 19.144 55.0816 19.144C54.8496 19.144 54.6056 19.112 54.3496 19.048C54.1016 18.992 53.8696 18.896 53.6536 18.76C53.4456 18.616 53.2696 18.432 53.1256 18.208C52.9896 17.976 52.9216 17.692 52.9216 17.356C52.9216 16.924 53.0416 16.58 53.2816 16.324C53.5296 16.068 53.8456 15.872 54.2296 15.736C54.6136 15.6 55.0376 15.512 55.5016 15.472C55.9736 15.424 56.4336 15.4 56.8816 15.4V15.256C56.8816 14.896 56.7496 14.632 56.4856 14.464C56.2296 14.288 55.9216 14.2 55.5616 14.2C55.2576 14.2 54.9656 14.264 54.6856 14.392C54.4056 14.52 54.1736 14.676 53.9896 14.86L53.2456 13.984C53.5736 13.68 53.9496 13.452 54.3736 13.3C54.8056 13.148 55.2416 13.072 55.6816 13.072C56.1936 13.072 56.6136 13.144 56.9416 13.288C57.2776 13.432 57.5416 13.62 57.7336 13.852C57.9256 14.084 58.0576 14.344 58.1296 14.632C58.2096 14.92 58.2496 15.208 58.2496 15.496V19H56.9056V18.268ZM56.8816 16.372H56.5576C56.3256 16.372 56.0816 16.384 55.8256 16.408C55.5696 16.424 55.3336 16.468 55.1176 16.54C54.9016 16.604 54.7216 16.7 54.5776 16.828C54.4336 16.948 54.3616 17.116 54.3616 17.332C54.3616 17.468 54.3896 17.584 54.4456 17.68C54.5096 17.768 54.5896 17.84 54.6856 17.896C54.7816 17.952 54.8896 17.992 55.0096 18.016C55.1296 18.04 55.2496 18.052 55.3696 18.052C55.8656 18.052 56.2416 17.92 56.4976 17.656C56.7536 17.392 56.8816 17.032 56.8816 16.576V16.372ZM60.1913 9.928H61.6313V19H60.1913V9.928Z" fill="white"/>
</g>
<defs>
<filter id="filter0_d_2807_3836" x="0" y="0" width="80" height="30" filterUnits="userSpaceOnUse" color-interpolation-filters="sRGB">
<feFlood flood-opacity="0" result="BackgroundImageFix"/>
<feColorMatrix in="SourceAlpha" type="matrix" values="0 0 0 0 0 0 0 0 0 0 0 0 0 0 0 0 0 0 127 0" result="hardAlpha"/>
<feOffset/>
<feGaussianBlur stdDeviation="1"/>
<feComposite in2="hardAlpha" operator="out"/>
<feColorMatrix type="matrix" values="0 0 0 0 0 0 0 0 0 0 0 0 0 0 0 0 0 0 0.25 0"/>
<feBlend mode="normal" in2="BackgroundImageFix" result="effect1_dropShadow_2807_3836"/>
<feBlend mode="normal" in="SourceGraphic" in2="effect1_dropShadow_2807_3836" result="shape"/>
</filter>
</defs>
</svg>
