<svg width="106" height="30" viewBox="0 0 106 30" fill="none" xmlns="http://www.w3.org/2000/svg">
<g filter="url(#filter0_d_2807_3840)">
<rect x="2" y="2" width="102" height="26" rx="13" fill="#FF666B"/>
<path d="M17.936 10.504H20.3L22.508 16.54H22.544L24.728 10.504H27.104V19H25.604V12.172H25.58L23 19H21.944L19.4 12.172H19.376V19H17.936V10.504ZM32.7191 18.268H32.6831C32.5391 18.524 32.3071 18.736 31.9871 18.904C31.6671 19.064 31.3031 19.144 30.8951 19.144C30.6631 19.144 30.4191 19.112 30.1631 19.048C29.9151 18.992 29.6831 18.896 29.4671 18.76C29.2591 18.616 29.0831 18.432 28.9391 18.208C28.8031 17.976 28.7351 17.692 28.7351 17.356C28.7351 16.924 28.8551 16.58 29.0951 16.324C29.3431 16.068 29.6591 15.872 30.0431 15.736C30.4271 15.6 30.8511 15.512 31.3151 15.472C31.7871 15.424 32.2471 15.4 32.6951 15.4V15.256C32.6951 14.896 32.5631 14.632 32.2991 14.464C32.0431 14.288 31.7351 14.2 31.3751 14.2C31.0711 14.2 30.7791 14.264 30.4991 14.392C30.2191 14.52 29.9871 14.676 29.8031 14.86L29.0591 13.984C29.3871 13.68 29.7631 13.452 30.1871 13.3C30.6191 13.148 31.0551 13.072 31.4951 13.072C32.0071 13.072 32.4271 13.144 32.7551 13.288C33.0911 13.432 33.3551 13.62 33.5471 13.852C33.7391 14.084 33.8711 14.344 33.9431 14.632C34.0231 14.92 34.0631 15.208 34.0631 15.496V19H32.7191V18.268ZM32.6951 16.372H32.3711C32.1391 16.372 31.8951 16.384 31.6391 16.408C31.3831 16.424 31.1471 16.468 30.9311 16.54C30.7151 16.604 30.5351 16.7 30.3911 16.828C30.2471 16.948 30.1751 17.116 30.1751 17.332C30.1751 17.468 30.2031 17.584 30.2591 17.68C30.3231 17.768 30.4031 17.84 30.4991 17.896C30.5951 17.952 30.7031 17.992 30.8231 18.016C30.9431 18.04 31.0631 18.052 31.1831 18.052C31.6791 18.052 32.0551 17.92 32.3111 17.656C32.5671 17.392 32.6951 17.032 32.6951 16.576V16.372ZM35.9807 13.24H37.3607V14.2H37.3847C37.5447 13.864 37.7687 13.592 38.0567 13.384C38.3447 13.176 38.6807 13.072 39.0647 13.072C39.1207 13.072 39.1807 13.076 39.2447 13.084C39.3087 13.084 39.3647 13.092 39.4127 13.108V14.428C39.3167 14.404 39.2327 14.388 39.1607 14.38C39.0967 14.372 39.0327 14.368 38.9687 14.368C38.6407 14.368 38.3767 14.428 38.1767 14.548C37.9767 14.668 37.8207 14.812 37.7087 14.98C37.5967 15.148 37.5207 15.32 37.4807 15.496C37.4407 15.672 37.4207 15.812 37.4207 15.916V19H35.9807V13.24ZM40.6158 9.928H42.0558V15.664H42.0918L44.2758 13.24H46.1238L43.6278 15.844L46.2798 19H44.3718L42.0918 16.048H42.0558V19H40.6158V9.928ZM51.1925 15.544C51.1925 15.36 51.1645 15.184 51.1085 15.016C51.0605 14.848 50.9805 14.7 50.8685 14.572C50.7565 14.444 50.6125 14.344 50.4365 14.272C50.2685 14.192 50.0685 14.152 49.8365 14.152C49.4045 14.152 49.0365 14.284 48.7325 14.548C48.4365 14.804 48.2725 15.136 48.2405 15.544H51.1925ZM52.6325 16.192C52.6325 16.256 52.6325 16.32 52.6325 16.384C52.6325 16.448 52.6285 16.512 52.6205 16.576H48.2405C48.2565 16.784 48.3085 16.976 48.3965 17.152C48.4925 17.32 48.6165 17.468 48.7685 17.596C48.9205 17.716 49.0925 17.812 49.2845 17.884C49.4765 17.956 49.6765 17.992 49.8845 17.992C50.2445 17.992 50.5485 17.928 50.7965 17.8C51.0445 17.664 51.2485 17.48 51.4085 17.248L52.3685 18.016C51.8005 18.784 50.9765 19.168 49.8965 19.168C49.4485 19.168 49.0365 19.1 48.6605 18.964C48.2845 18.82 47.9565 18.62 47.6765 18.364C47.4045 18.108 47.1885 17.796 47.0285 17.428C46.8765 17.052 46.8005 16.628 46.8005 16.156C46.8005 15.692 46.8765 15.272 47.0285 14.896C47.1885 14.512 47.4045 14.188 47.6765 13.924C47.9485 13.652 48.2685 13.444 48.6365 13.3C49.0125 13.148 49.4165 13.072 49.8485 13.072C50.2485 13.072 50.6165 13.14 50.9525 13.276C51.2965 13.404 51.5925 13.6 51.8405 13.864C52.0885 14.12 52.2805 14.444 52.4165 14.836C52.5605 15.22 52.6325 15.672 52.6325 16.192ZM53.4391 14.392V13.24H54.4471V11.572H55.8631V13.24H57.3031V14.392H55.8631V17.068C55.8631 17.324 55.9071 17.536 55.9951 17.704C56.0911 17.872 56.2991 17.956 56.6191 17.956C56.7151 17.956 56.8191 17.948 56.9311 17.932C57.0431 17.908 57.1431 17.876 57.2311 17.836L57.2791 18.964C57.1511 19.012 56.9991 19.048 56.8231 19.072C56.6471 19.104 56.4791 19.12 56.3191 19.12C55.9351 19.12 55.6231 19.068 55.3831 18.964C55.1431 18.852 54.9511 18.704 54.8071 18.52C54.6711 18.328 54.5751 18.112 54.5191 17.872C54.4711 17.624 54.4471 17.36 54.4471 17.08V14.392H53.4391ZM59.9652 13.24V14.044H60.0012C60.0732 13.932 60.1652 13.82 60.2772 13.708C60.3972 13.588 60.5412 13.484 60.7092 13.396C60.8772 13.3 61.0652 13.224 61.2732 13.168C61.4892 13.104 61.7292 13.072 61.9932 13.072C62.4012 13.072 62.7772 13.152 63.1212 13.312C63.4652 13.464 63.7612 13.676 64.0092 13.948C64.2572 14.22 64.4492 14.54 64.5852 14.908C64.7212 15.276 64.7892 15.672 64.7892 16.096C64.7892 16.52 64.7212 16.92 64.5852 17.296C64.4572 17.664 64.2692 17.988 64.0212 18.268C63.7812 18.54 63.4852 18.76 63.1332 18.928C62.7892 19.088 62.3972 19.168 61.9572 19.168C61.5492 19.168 61.1732 19.084 60.8292 18.916C60.4932 18.748 60.2332 18.52 60.0492 18.232H60.0252V21.88H58.5852V13.24H59.9652ZM63.3252 16.096C63.3252 15.872 63.2892 15.652 63.2172 15.436C63.1532 15.212 63.0532 15.012 62.9172 14.836C62.7812 14.66 62.6092 14.52 62.4012 14.416C62.1932 14.304 61.9492 14.248 61.6692 14.248C61.4052 14.248 61.1692 14.304 60.9612 14.416C60.7532 14.528 60.5732 14.672 60.4212 14.848C60.2772 15.024 60.1652 15.224 60.0852 15.448C60.0132 15.672 59.9772 15.896 59.9772 16.12C59.9772 16.344 60.0132 16.568 60.0852 16.792C60.1652 17.008 60.2772 17.204 60.4212 17.38C60.5732 17.556 60.7532 17.7 60.9612 17.812C61.1692 17.916 61.4052 17.968 61.6692 17.968C61.9492 17.968 62.1932 17.912 62.4012 17.8C62.6092 17.688 62.7812 17.544 62.9172 17.368C63.0532 17.192 63.1532 16.992 63.2172 16.768C63.2892 16.544 63.3252 16.32 63.3252 16.096ZM66.443 9.928H67.883V19H66.443V9.928ZM73.4459 18.268H73.4099C73.2659 18.524 73.0339 18.736 72.7139 18.904C72.3939 19.064 72.0299 19.144 71.6219 19.144C71.3899 19.144 71.1459 19.112 70.8899 19.048C70.6419 18.992 70.4099 18.896 70.1939 18.76C69.9859 18.616 69.8099 18.432 69.6659 18.208C69.5299 17.976 69.4619 17.692 69.4619 17.356C69.4619 16.924 69.5819 16.58 69.8219 16.324C70.0699 16.068 70.3859 15.872 70.7699 15.736C71.1539 15.6 71.5779 15.512 72.0419 15.472C72.5139 15.424 72.9739 15.4 73.4219 15.4V15.256C73.4219 14.896 73.2899 14.632 73.0259 14.464C72.7699 14.288 72.4619 14.2 72.1019 14.2C71.7979 14.2 71.5059 14.264 71.2259 14.392C70.9459 14.52 70.7139 14.676 70.5299 14.86L69.7859 13.984C70.1139 13.68 70.4899 13.452 70.9139 13.3C71.3459 13.148 71.7819 13.072 72.2219 13.072C72.7339 13.072 73.1539 13.144 73.4819 13.288C73.8179 13.432 74.0819 13.62 74.2739 13.852C74.4659 14.084 74.5979 14.344 74.6699 14.632C74.7499 14.92 74.7899 15.208 74.7899 15.496V19H73.4459V18.268ZM73.4219 16.372H73.0979C72.8659 16.372 72.6219 16.384 72.3659 16.408C72.1099 16.424 71.8739 16.468 71.6579 16.54C71.4419 16.604 71.2619 16.7 71.1179 16.828C70.9739 16.948 70.9019 17.116 70.9019 17.332C70.9019 17.468 70.9299 17.584 70.9859 17.68C71.0499 17.768 71.1299 17.84 71.2259 17.896C71.3219 17.952 71.4299 17.992 71.5499 18.016C71.6699 18.04 71.7899 18.052 71.9099 18.052C72.4059 18.052 72.7819 17.92 73.0379 17.656C73.2939 17.392 73.4219 17.032 73.4219 16.576V16.372ZM80.6436 14.836C80.5316 14.676 80.3636 14.544 80.1396 14.44C79.9156 14.328 79.6876 14.272 79.4556 14.272C79.1916 14.272 78.9596 14.328 78.7596 14.44C78.5596 14.544 78.3916 14.684 78.2556 14.86C78.1276 15.036 78.0316 15.236 77.9676 15.46C77.9036 15.676 77.8716 15.896 77.8716 16.12C77.8716 16.344 77.9036 16.568 77.9676 16.792C78.0396 17.008 78.1436 17.204 78.2796 17.38C78.4156 17.556 78.5836 17.7 78.7836 17.812C78.9916 17.916 79.2316 17.968 79.5036 17.968C79.7276 17.968 79.9516 17.924 80.1756 17.836C80.3996 17.748 80.5796 17.62 80.7156 17.452L81.6156 18.364C81.3756 18.62 81.0676 18.82 80.6916 18.964C80.3236 19.1 79.9236 19.168 79.4916 19.168C79.0676 19.168 78.6636 19.1 78.2796 18.964C77.9036 18.828 77.5716 18.628 77.2836 18.364C77.0036 18.1 76.7796 17.78 76.6116 17.404C76.4516 17.028 76.3716 16.6 76.3716 16.12C76.3716 15.656 76.4516 15.236 76.6116 14.86C76.7796 14.484 77.0036 14.164 77.2836 13.9C77.5636 13.636 77.8876 13.432 78.2556 13.288C78.6316 13.144 79.0316 13.072 79.4556 13.072C79.8796 13.072 80.2876 13.152 80.6796 13.312C81.0796 13.472 81.3956 13.692 81.6276 13.972L80.6436 14.836ZM86.863 15.544C86.863 15.36 86.835 15.184 86.779 15.016C86.731 14.848 86.651 14.7 86.539 14.572C86.427 14.444 86.283 14.344 86.107 14.272C85.939 14.192 85.739 14.152 85.507 14.152C85.075 14.152 84.707 14.284 84.403 14.548C84.107 14.804 83.943 15.136 83.911 15.544H86.863ZM88.303 16.192C88.303 16.256 88.303 16.32 88.303 16.384C88.303 16.448 88.299 16.512 88.291 16.576H83.911C83.927 16.784 83.979 16.976 84.067 17.152C84.163 17.32 84.287 17.468 84.439 17.596C84.591 17.716 84.763 17.812 84.955 17.884C85.147 17.956 85.347 17.992 85.555 17.992C85.915 17.992 86.219 17.928 86.467 17.8C86.715 17.664 86.919 17.48 87.079 17.248L88.039 18.016C87.471 18.784 86.647 19.168 85.567 19.168C85.119 19.168 84.707 19.1 84.331 18.964C83.955 18.82 83.627 18.62 83.347 18.364C83.075 18.108 82.859 17.796 82.699 17.428C82.547 17.052 82.471 16.628 82.471 16.156C82.471 15.692 82.547 15.272 82.699 14.896C82.859 14.512 83.075 14.188 83.347 13.924C83.619 13.652 83.939 13.444 84.307 13.3C84.683 13.148 85.087 13.072 85.519 13.072C85.919 13.072 86.287 13.14 86.623 13.276C86.967 13.404 87.263 13.6 87.511 13.864C87.759 14.12 87.951 14.444 88.087 14.836C88.231 15.22 88.303 15.672 88.303 16.192Z" fill="white"/>
</g>
<defs>
<filter id="filter0_d_2807_3840" x="0" y="0" width="106" height="30" filterUnits="userSpaceOnUse" color-interpolation-filters="sRGB">
<feFlood flood-opacity="0" result="BackgroundImageFix"/>
<feColorMatrix in="SourceAlpha" type="matrix" values="0 0 0 0 0 0 0 0 0 0 0 0 0 0 0 0 0 0 127 0" result="hardAlpha"/>
<feOffset/>
<feGaussianBlur stdDeviation="1"/>
<feComposite in2="hardAlpha" operator="out"/>
<feColorMatrix type="matrix" values="0 0 0 0 0 0 0 0 0 0 0 0 0 0 0 0 0 0 0.25 0"/>
<feBlend mode="normal" in2="BackgroundImageFix" result="effect1_dropShadow_2807_3840"/>
<feBlend mode="normal" in="SourceGraphic" in2="effect1_dropShadow_2807_3840" result="shape"/>
</filter>
</defs>
</svg>
