<svg width="310" height="16" viewBox="0 0 310 16" fill="none" xmlns="http://www.w3.org/2000/svg">
<path d="M1.41859e-05 0.767947H2.67201L7.93601 9.24795H7.96801V0.767947H9.98401V12.0959H7.42402L2.04801 3.34395H2.01601V12.0959H1.41859e-05V0.767947ZM12.2604 8.22395C12.2604 7.61595 12.3671 7.06661 12.5804 6.57595C12.8044 6.07461 13.1031 5.64795 13.4764 5.29595C13.8497 4.94395 14.2924 4.67195 14.8044 4.47995C15.3164 4.28795 15.8604 4.19195 16.4364 4.19195C17.0124 4.19195 17.5564 4.28795 18.0684 4.47995C18.5804 4.67195 19.0231 4.94395 19.3964 5.29595C19.7697 5.64795 20.0631 6.07461 20.2764 6.57595C20.5004 7.06661 20.6124 7.61595 20.6124 8.22395C20.6124 8.83195 20.5004 9.38661 20.2764 9.88795C20.0631 10.3893 19.7697 10.8213 19.3964 11.1839C19.0231 11.5359 18.5804 11.8133 18.0684 12.0159C17.5564 12.2186 17.0124 12.3199 16.4364 12.3199C15.8604 12.3199 15.3164 12.2186 14.8044 12.0159C14.2924 11.8133 13.8497 11.5359 13.4764 11.1839C13.1031 10.8213 12.8044 10.3893 12.5804 9.88795C12.3671 9.38661 12.2604 8.83195 12.2604 8.22395ZM14.2124 8.22395C14.2124 8.52261 14.2551 8.82128 14.3404 9.11995C14.4364 9.41861 14.5751 9.68528 14.7564 9.91995C14.9377 10.1546 15.1671 10.3466 15.4444 10.4959C15.7217 10.6453 16.0524 10.7199 16.4364 10.7199C16.8204 10.7199 17.1511 10.6453 17.4284 10.4959C17.7057 10.3466 17.9351 10.1546 18.1164 9.91995C18.2977 9.68528 18.4311 9.41861 18.5164 9.11995C18.6124 8.82128 18.6604 8.52261 18.6604 8.22395C18.6604 7.92528 18.6124 7.63195 18.5164 7.34395C18.4311 7.04528 18.2977 6.77861 18.1164 6.54395C17.9351 6.30928 17.7057 6.12261 17.4284 5.98395C17.1511 5.83461 16.8204 5.75995 16.4364 5.75995C16.0524 5.75995 15.7217 5.83461 15.4444 5.98395C15.1671 6.12261 14.9377 6.30928 14.7564 6.54395C14.5751 6.77861 14.4364 7.04528 14.3404 7.34395C14.2551 7.63195 14.2124 7.92528 14.2124 8.22395ZM21.69 5.95195V4.41595H23.034V2.19195H24.922V4.41595H26.842V5.95195H24.922V9.51995C24.922 9.86128 24.9807 10.1439 25.098 10.3679C25.226 10.5919 25.5033 10.7039 25.93 10.7039C26.058 10.7039 26.1967 10.6933 26.346 10.6719C26.4953 10.6399 26.6287 10.5973 26.746 10.5439L26.81 12.0479C26.6393 12.1119 26.4367 12.1599 26.202 12.1919C25.9673 12.2346 25.7433 12.2559 25.53 12.2559C25.018 12.2559 24.602 12.1866 24.282 12.0479C23.962 11.8986 23.706 11.7013 23.514 11.4559C23.3327 11.1999 23.2047 10.9119 23.13 10.5919C23.066 10.2613 23.034 9.90928 23.034 9.53595V5.95195H21.69ZM32.8235 4.19195C33.3248 4.19195 33.7515 4.28261 34.1035 4.46395C34.4662 4.63461 34.7595 4.86395 34.9835 5.15195C35.2182 5.43995 35.3888 5.77061 35.4955 6.14395C35.6022 6.51728 35.6555 6.90128 35.6555 7.29595V12.0959H33.7355V7.87195C33.7355 7.64795 33.7195 7.41861 33.6875 7.18395C33.6555 6.93861 33.5862 6.71995 33.4795 6.52795C33.3835 6.32528 33.2395 6.15995 33.0475 6.03195C32.8662 5.90395 32.6208 5.83995 32.3115 5.83995C32.0022 5.83995 31.7355 5.89861 31.5115 6.01595C31.2875 6.13328 31.1008 6.29328 30.9515 6.49595C30.8022 6.68795 30.6902 6.90661 30.6155 7.15195C30.5408 7.39728 30.5035 7.64795 30.5035 7.90395V12.0959H28.5835V-5.34058e-05H30.5035V5.48795H30.5355C30.6102 5.32795 30.7168 5.17328 30.8555 5.02395C31.0048 4.86395 31.1755 4.72528 31.3675 4.60795C31.5595 4.47995 31.7782 4.37861 32.0235 4.30395C32.2688 4.22928 32.5355 4.19195 32.8235 4.19195ZM38.2473 4.41595H40.1673V12.0959H38.2473V4.41595ZM37.9753 1.80795C37.9753 1.49861 38.0873 1.23195 38.3113 1.00795C38.5459 0.77328 38.8393 0.655947 39.1913 0.655947C39.5433 0.655947 39.8366 0.767947 40.0713 0.991947C40.3166 1.20528 40.4393 1.47728 40.4393 1.80795C40.4393 2.13861 40.3166 2.41595 40.0713 2.63995C39.8366 2.85328 39.5433 2.95995 39.1913 2.95995C38.8393 2.95995 38.5459 2.84795 38.3113 2.62395C38.0873 2.38928 37.9753 2.11728 37.9753 1.80795ZM42.8165 4.41595H44.6405V5.64795H44.6725C44.8432 5.26395 45.1365 4.92795 45.5525 4.63995C45.9792 4.34128 46.4805 4.19195 47.0565 4.19195C47.5578 4.19195 47.9845 4.28261 48.3365 4.46395C48.6992 4.63461 48.9925 4.86395 49.2165 5.15195C49.4512 5.43995 49.6218 5.77061 49.7285 6.14395C49.8352 6.51728 49.8885 6.90128 49.8885 7.29595V12.0959H47.9685V7.83995C47.9685 7.61595 47.9525 7.38128 47.9205 7.13595C47.8885 6.89061 47.8192 6.67195 47.7125 6.47995C47.6058 6.27728 47.4565 6.11195 47.2645 5.98395C47.0832 5.85595 46.8378 5.79195 46.5285 5.79195C46.2192 5.79195 45.9525 5.85595 45.7285 5.98395C45.5045 6.10128 45.3178 6.25595 45.1685 6.44795C45.0298 6.63995 44.9232 6.86395 44.8485 7.11995C44.7738 7.36528 44.7365 7.61595 44.7365 7.87195V12.0959H42.8165V4.41595ZM60.257 4.41595V11.4079C60.257 12.1013 60.1717 12.7253 60.001 13.2799C59.8303 13.8453 59.5637 14.3199 59.201 14.7039C58.849 15.0986 58.401 15.4026 57.857 15.6159C57.313 15.8293 56.6677 15.9359 55.921 15.9359C55.6117 15.9359 55.281 15.9093 54.929 15.8559C54.5877 15.8026 54.2463 15.7226 53.905 15.6159C53.5743 15.5093 53.2543 15.3759 52.945 15.2159C52.6357 15.0559 52.3583 14.8746 52.113 14.6719L53.217 13.1839C53.5903 13.5359 54.0117 13.8026 54.481 13.9839C54.9503 14.1759 55.425 14.2719 55.905 14.2719C56.3637 14.2719 56.7477 14.2026 57.057 14.0639C57.377 13.9359 57.6277 13.7546 57.809 13.5199C58.001 13.2853 58.1343 13.0079 58.209 12.6879C58.2943 12.3679 58.337 12.0159 58.337 11.6319V11.0719H58.305C58.0277 11.4453 57.6703 11.7333 57.233 11.9359C56.8063 12.1279 56.3263 12.2239 55.793 12.2239C55.217 12.2239 54.6943 12.1173 54.225 11.9039C53.7557 11.6906 53.3557 11.4026 53.025 11.0399C52.705 10.6773 52.4543 10.2559 52.273 9.77595C52.0917 9.28528 52.001 8.76795 52.001 8.22395C52.001 7.66928 52.0863 7.14661 52.257 6.65595C52.4383 6.16528 52.689 5.73861 53.009 5.37595C53.3397 5.01328 53.7343 4.72528 54.193 4.51195C54.6623 4.29861 55.185 4.19195 55.761 4.19195C56.305 4.19195 56.8117 4.30395 57.281 4.52795C57.7503 4.75195 58.1237 5.09861 58.401 5.56795H58.433V4.41595H60.257ZM56.161 5.75995C55.809 5.75995 55.4943 5.82395 55.217 5.95195C54.9503 6.07995 54.721 6.25595 54.529 6.47995C54.3477 6.69328 54.2037 6.94928 54.097 7.24795C54.001 7.54661 53.953 7.86661 53.953 8.20795C53.953 8.51728 54.001 8.81595 54.097 9.10395C54.2037 9.39195 54.3477 9.65328 54.529 9.88795C54.721 10.1119 54.9503 10.2933 55.217 10.4319C55.4943 10.5706 55.8037 10.6399 56.145 10.6399C56.497 10.6399 56.8117 10.5759 57.089 10.4479C57.377 10.3093 57.617 10.1279 57.809 9.90395C58.0117 9.67995 58.1663 9.42395 58.273 9.13595C58.3797 8.83728 58.433 8.52795 58.433 8.20795C58.433 7.87728 58.3797 7.56261 58.273 7.26395C58.1663 6.96528 58.0117 6.70395 57.809 6.47995C57.617 6.25595 57.3823 6.07995 57.105 5.95195C56.8277 5.82395 56.513 5.75995 56.161 5.75995ZM71.4704 4.19195C71.9717 4.19195 72.3984 4.28261 72.7504 4.46395C73.1131 4.63461 73.4064 4.86395 73.6304 5.15195C73.8651 5.43995 74.0357 5.77061 74.1424 6.14395C74.2491 6.51728 74.3024 6.90128 74.3024 7.29595V12.0959H72.3824V7.87195C72.3824 7.64795 72.3664 7.41861 72.3344 7.18395C72.3024 6.93861 72.2331 6.71995 72.1264 6.52795C72.0304 6.32528 71.8864 6.15995 71.6944 6.03195C71.5131 5.90395 71.2677 5.83995 70.9584 5.83995C70.6491 5.83995 70.3824 5.89861 70.1584 6.01595C69.9344 6.13328 69.7477 6.29328 69.5984 6.49595C69.4491 6.68795 69.3371 6.90661 69.2624 7.15195C69.1877 7.39728 69.1504 7.64795 69.1504 7.90395V12.0959H67.2304V-5.34058e-05H69.1504V5.48795H69.1824C69.2571 5.32795 69.3637 5.17328 69.5024 5.02395C69.6517 4.86395 69.8224 4.72528 70.0144 4.60795C70.2064 4.47995 70.4251 4.37861 70.6704 4.30395C70.9157 4.22928 71.1824 4.19195 71.4704 4.19195ZM82.2701 7.48795C82.2701 7.24261 82.2328 7.00795 82.1581 6.78395C82.0941 6.55995 81.9875 6.36261 81.8381 6.19195C81.6888 6.02128 81.4968 5.88795 81.2621 5.79195C81.0381 5.68528 80.7715 5.63195 80.4621 5.63195C79.8861 5.63195 79.3955 5.80795 78.9901 6.15995C78.5955 6.50128 78.3768 6.94395 78.3341 7.48795H82.2701ZM84.1901 8.35195C84.1901 8.43728 84.1901 8.52261 84.1901 8.60795C84.1901 8.69328 84.1848 8.77861 84.1741 8.86395H78.3341C78.3555 9.14128 78.4248 9.39728 78.5421 9.63195C78.6701 9.85595 78.8355 10.0533 79.0381 10.2239C79.2408 10.3839 79.4701 10.5119 79.7261 10.6079C79.9821 10.7039 80.2488 10.7519 80.5261 10.7519C81.0061 10.7519 81.4115 10.6666 81.7421 10.4959C82.0728 10.3146 82.3448 10.0693 82.5581 9.75995L83.8381 10.7839C83.0808 11.8079 81.9821 12.3199 80.5421 12.3199C79.9448 12.3199 79.3955 12.2293 78.8941 12.0479C78.3928 11.8559 77.9555 11.5893 77.5821 11.2479C77.2195 10.9066 76.9315 10.4906 76.7181 9.99995C76.5155 9.49861 76.4141 8.93328 76.4141 8.30395C76.4141 7.68528 76.5155 7.12528 76.7181 6.62395C76.9315 6.11195 77.2195 5.67995 77.5821 5.32795C77.9448 4.96528 78.3715 4.68795 78.8621 4.49595C79.3635 4.29328 79.9021 4.19195 80.4781 4.19195C81.0115 4.19195 81.5021 4.28261 81.9501 4.46395C82.4088 4.63461 82.8035 4.89595 83.1341 5.24795C83.4648 5.58928 83.7208 6.02128 83.9021 6.54395C84.0941 7.05595 84.1901 7.65861 84.1901 8.35195ZM86.3696 4.41595H88.2096V5.69595H88.2416C88.455 5.24795 88.7536 4.88528 89.1376 4.60795C89.5216 4.33061 89.9696 4.19195 90.4816 4.19195C90.5563 4.19195 90.6363 4.19728 90.7216 4.20795C90.807 4.20795 90.8816 4.21861 90.9456 4.23995V5.99995C90.8176 5.96795 90.7056 5.94661 90.6096 5.93595C90.5243 5.92528 90.439 5.91995 90.3536 5.91995C89.9163 5.91995 89.5643 5.99995 89.2976 6.15995C89.031 6.31995 88.823 6.51195 88.6736 6.73595C88.5243 6.95995 88.423 7.18928 88.3696 7.42395C88.3163 7.65861 88.2896 7.84528 88.2896 7.98395V12.0959H86.3696V4.41595ZM97.6445 7.48795C97.6445 7.24261 97.6072 7.00795 97.5325 6.78395C97.4685 6.55995 97.3618 6.36261 97.2125 6.19195C97.0632 6.02128 96.8712 5.88795 96.6365 5.79195C96.4125 5.68528 96.1458 5.63195 95.8365 5.63195C95.2605 5.63195 94.7698 5.80795 94.3645 6.15995C93.9698 6.50128 93.7512 6.94395 93.7085 7.48795H97.6445ZM99.5645 8.35195C99.5645 8.43728 99.5645 8.52261 99.5645 8.60795C99.5645 8.69328 99.5592 8.77861 99.5485 8.86395H93.7085C93.7298 9.14128 93.7992 9.39728 93.9165 9.63195C94.0445 9.85595 94.2098 10.0533 94.4125 10.2239C94.6152 10.3839 94.8445 10.5119 95.1005 10.6079C95.3565 10.7039 95.6232 10.7519 95.9005 10.7519C96.3805 10.7519 96.7858 10.6666 97.1165 10.4959C97.4472 10.3146 97.7192 10.0693 97.9325 9.75995L99.2125 10.7839C98.4552 11.8079 97.3565 12.3199 95.9165 12.3199C95.3192 12.3199 94.7698 12.2293 94.2685 12.0479C93.7672 11.8559 93.3298 11.5893 92.9565 11.2479C92.5938 10.9066 92.3058 10.4906 92.0925 9.99995C91.8898 9.49861 91.7885 8.93328 91.7885 8.30395C91.7885 7.68528 91.8898 7.12528 92.0925 6.62395C92.3058 6.11195 92.5938 5.67995 92.9565 5.32795C93.3192 4.96528 93.7458 4.68795 94.2365 4.49595C94.7378 4.29328 95.2765 4.19195 95.8525 4.19195C96.3858 4.19195 96.8765 4.28261 97.3245 4.46395C97.7832 4.63461 98.1778 4.89595 98.5085 5.24795C98.8392 5.58928 99.0952 6.02128 99.2765 6.54395C99.4685 7.05595 99.5645 7.65861 99.5645 8.35195ZM104.912 4.41595H107.04L109.184 9.99995H109.216L111.12 4.41595H113.12L109.488 13.7439C109.349 14.0959 109.2 14.4053 109.04 14.6719C108.88 14.9493 108.688 15.1786 108.464 15.3599C108.24 15.5519 107.973 15.6959 107.664 15.7919C107.365 15.8879 107.003 15.9359 106.576 15.9359C106.416 15.9359 106.251 15.9253 106.08 15.9039C105.92 15.8933 105.755 15.8666 105.584 15.8239L105.744 14.1599C105.872 14.2026 105.995 14.2293 106.112 14.2399C106.24 14.2613 106.357 14.2719 106.464 14.2719C106.667 14.2719 106.837 14.2453 106.976 14.1919C107.115 14.1493 107.232 14.0746 107.328 13.9679C107.424 13.8719 107.509 13.7493 107.584 13.5999C107.659 13.4506 107.739 13.2746 107.824 13.0719L108.208 12.0959L104.912 4.41595ZM119.995 7.48795C119.995 7.24261 119.958 7.00795 119.883 6.78395C119.819 6.55995 119.712 6.36261 119.563 6.19195C119.414 6.02128 119.222 5.88795 118.987 5.79195C118.763 5.68528 118.496 5.63195 118.187 5.63195C117.611 5.63195 117.12 5.80795 116.715 6.15995C116.32 6.50128 116.102 6.94395 116.059 7.48795H119.995ZM121.915 8.35195C121.915 8.43728 121.915 8.52261 121.915 8.60795C121.915 8.69328 121.91 8.77861 121.899 8.86395H116.059C116.08 9.14128 116.15 9.39728 116.267 9.63195C116.395 9.85595 116.56 10.0533 116.763 10.2239C116.966 10.3839 117.195 10.5119 117.451 10.6079C117.707 10.7039 117.974 10.7519 118.251 10.7519C118.731 10.7519 119.136 10.6666 119.467 10.4959C119.798 10.3146 120.07 10.0693 120.283 9.75995L121.563 10.7839C120.806 11.8079 119.707 12.3199 118.267 12.3199C117.67 12.3199 117.12 12.2293 116.619 12.0479C116.118 11.8559 115.68 11.5893 115.307 11.2479C114.944 10.9066 114.656 10.4906 114.443 9.99995C114.24 9.49861 114.139 8.93328 114.139 8.30395C114.139 7.68528 114.24 7.12528 114.443 6.62395C114.656 6.11195 114.944 5.67995 115.307 5.32795C115.67 4.96528 116.096 4.68795 116.587 4.49595C117.088 4.29328 117.627 4.19195 118.203 4.19195C118.736 4.19195 119.227 4.28261 119.675 4.46395C120.134 4.63461 120.528 4.89595 120.859 5.24795C121.19 5.58928 121.446 6.02128 121.627 6.54395C121.819 7.05595 121.915 7.65861 121.915 8.35195ZM122.991 5.95195V4.41595H124.335V2.19195H126.223V4.41595H128.143V5.95195H126.223V9.51995C126.223 9.86128 126.281 10.1439 126.399 10.3679C126.527 10.5919 126.804 10.7039 127.231 10.7039C127.359 10.7039 127.497 10.6933 127.647 10.6719C127.796 10.6399 127.929 10.5973 128.047 10.5439L128.111 12.0479C127.94 12.1119 127.737 12.1599 127.503 12.1919C127.268 12.2346 127.044 12.2559 126.831 12.2559C126.319 12.2559 125.903 12.1866 125.583 12.0479C125.263 11.8986 125.007 11.7013 124.815 11.4559C124.633 11.1999 124.505 10.9119 124.431 10.5919C124.367 10.2613 124.335 9.90928 124.335 9.53595V5.95195H122.991ZM129.5 10.9759C129.5 10.6346 129.623 10.3413 129.868 10.0959C130.124 9.85061 130.428 9.72795 130.78 9.72795C131.121 9.72795 131.42 9.84528 131.676 10.0799C131.932 10.3146 132.06 10.6026 132.06 10.9439C132.06 11.2853 131.932 11.5786 131.676 11.8239C131.431 12.0693 131.132 12.1919 130.78 12.1919C130.609 12.1919 130.444 12.1599 130.284 12.0959C130.135 12.0319 130.001 11.9466 129.884 11.8399C129.767 11.7333 129.671 11.6053 129.596 11.4559C129.532 11.3066 129.5 11.1466 129.5 10.9759ZM144.036 3.13595C143.823 2.85861 143.519 2.62928 143.124 2.44795C142.74 2.25595 142.351 2.15995 141.956 2.15995C141.721 2.15995 141.487 2.19195 141.252 2.25595C141.017 2.30928 140.804 2.39995 140.612 2.52795C140.42 2.64528 140.26 2.80528 140.132 3.00795C140.015 3.19995 139.956 3.43461 139.956 3.71195C139.956 3.96795 140.009 4.18661 140.116 4.36795C140.223 4.54928 140.367 4.70395 140.548 4.83195C140.74 4.95995 140.969 5.07195 141.236 5.16795C141.503 5.26395 141.796 5.35995 142.116 5.45595C142.479 5.57328 142.852 5.70661 143.236 5.85595C143.631 6.00528 143.988 6.20261 144.308 6.44795C144.639 6.69328 144.905 7.00261 145.108 7.37595C145.321 7.74928 145.428 8.21328 145.428 8.76795C145.428 9.37595 145.316 9.90928 145.092 10.3679C144.868 10.8159 144.569 11.1893 144.196 11.4879C143.823 11.7866 143.385 12.0106 142.884 12.1599C142.383 12.3093 141.855 12.3839 141.3 12.3839C140.564 12.3839 139.844 12.2506 139.14 11.9839C138.436 11.7066 137.86 11.3013 137.412 10.7679L138.852 9.42395C139.129 9.80795 139.497 10.1119 139.956 10.3359C140.425 10.5599 140.884 10.6719 141.332 10.6719C141.567 10.6719 141.807 10.6453 142.052 10.5919C142.297 10.5279 142.516 10.4266 142.708 10.2879C142.911 10.1493 143.071 9.97861 143.188 9.77595C143.316 9.56261 143.38 9.30128 143.38 8.99195C143.38 8.69328 143.311 8.44795 143.172 8.25595C143.033 8.05328 142.847 7.88261 142.612 7.74395C142.377 7.59461 142.1 7.46661 141.78 7.35995C141.46 7.25328 141.124 7.14128 140.772 7.02395C140.431 6.91728 140.089 6.78928 139.748 6.63995C139.407 6.49061 139.097 6.29328 138.82 6.04795C138.553 5.80261 138.335 5.50395 138.164 5.15195C137.993 4.78928 137.908 4.34128 137.908 3.80795C137.908 3.23195 138.025 2.73595 138.26 2.31995C138.505 1.90395 138.82 1.56261 139.204 1.29595C139.599 1.01861 140.041 0.815947 140.532 0.687946C141.033 0.54928 141.54 0.479947 142.052 0.479947C142.628 0.479947 143.209 0.58128 143.796 0.783947C144.393 0.986614 144.911 1.29061 145.348 1.69595L144.036 3.13595ZM146.474 5.95195V4.41595H147.818V2.19195H149.706V4.41595H151.626V5.95195H149.706V9.51995C149.706 9.86128 149.764 10.1439 149.882 10.3679C150.01 10.5919 150.287 10.7039 150.714 10.7039C150.842 10.7039 150.98 10.6933 151.13 10.6719C151.279 10.6399 151.412 10.5973 151.53 10.5439L151.594 12.0479C151.423 12.1119 151.22 12.1599 150.986 12.1919C150.751 12.2346 150.527 12.2559 150.314 12.2559C149.802 12.2559 149.386 12.1866 149.066 12.0479C148.746 11.8986 148.49 11.7013 148.298 11.4559C148.116 11.1999 147.988 10.9119 147.914 10.5919C147.85 10.2613 147.818 9.90928 147.818 9.53595V5.95195H146.474ZM158.103 11.1199H158.055C157.863 11.4613 157.554 11.7439 157.127 11.9679C156.701 12.1813 156.215 12.2879 155.671 12.2879C155.362 12.2879 155.037 12.2453 154.695 12.1599C154.365 12.0853 154.055 11.9573 153.767 11.7759C153.49 11.5839 153.255 11.3386 153.063 11.0399C152.882 10.7306 152.791 10.3519 152.791 9.90395C152.791 9.32795 152.951 8.86928 153.271 8.52795C153.602 8.18661 154.023 7.92528 154.535 7.74395C155.047 7.56261 155.613 7.44528 156.231 7.39195C156.861 7.32795 157.474 7.29595 158.071 7.29595V7.10395C158.071 6.62395 157.895 6.27195 157.543 6.04795C157.202 5.81328 156.791 5.69595 156.311 5.69595C155.906 5.69595 155.517 5.78128 155.143 5.95195C154.77 6.12261 154.461 6.33061 154.215 6.57595L153.223 5.40795C153.661 5.00261 154.162 4.69861 154.727 4.49595C155.303 4.29328 155.885 4.19195 156.471 4.19195C157.154 4.19195 157.714 4.28795 158.151 4.47995C158.599 4.67195 158.951 4.92261 159.207 5.23195C159.463 5.54128 159.639 5.88795 159.735 6.27195C159.842 6.65595 159.895 7.03995 159.895 7.42395V12.0959H158.103V11.1199ZM158.071 8.59195H157.639C157.33 8.59195 157.005 8.60795 156.663 8.63995C156.322 8.66128 156.007 8.71995 155.719 8.81595C155.431 8.90128 155.191 9.02928 154.999 9.19995C154.807 9.35995 154.711 9.58395 154.711 9.87195C154.711 10.0533 154.749 10.2079 154.823 10.3359C154.909 10.4533 155.015 10.5493 155.143 10.6239C155.271 10.6986 155.415 10.7519 155.575 10.7839C155.735 10.8159 155.895 10.8319 156.055 10.8319C156.717 10.8319 157.218 10.6559 157.559 10.3039C157.901 9.95195 158.071 9.47195 158.071 8.86395V8.59195ZM162.452 4.41595H164.292V5.69595H164.324C164.537 5.24795 164.836 4.88528 165.22 4.60795C165.604 4.33061 166.052 4.19195 166.564 4.19195C166.639 4.19195 166.719 4.19728 166.804 4.20795C166.889 4.20795 166.964 4.21861 167.028 4.23995V5.99995C166.9 5.96795 166.788 5.94661 166.692 5.93595C166.607 5.92528 166.521 5.91995 166.436 5.91995C165.999 5.91995 165.647 5.99995 165.38 6.15995C165.113 6.31995 164.905 6.51195 164.756 6.73595C164.607 6.95995 164.505 7.18928 164.452 7.42395C164.399 7.65861 164.372 7.84528 164.372 7.98395V12.0959H162.452V4.41595ZM167.309 5.95195V4.41595H168.653V2.19195H170.541V4.41595H172.461V5.95195H170.541V9.51995C170.541 9.86128 170.599 10.1439 170.717 10.3679C170.845 10.5919 171.122 10.7039 171.549 10.7039C171.677 10.7039 171.815 10.6933 171.965 10.6719C172.114 10.6399 172.247 10.5973 172.365 10.5439L172.429 12.0479C172.258 12.1119 172.055 12.1599 171.821 12.1919C171.586 12.2346 171.362 12.2559 171.149 12.2559C170.637 12.2559 170.221 12.1866 169.901 12.0479C169.581 11.8986 169.325 11.7013 169.133 11.4559C168.951 11.1999 168.823 10.9119 168.749 10.5919C168.685 10.2613 168.653 9.90928 168.653 9.53595V5.95195H167.309ZM177.386 5.95195V4.41595H178.73V2.19195H180.618V4.41595H182.538V5.95195H180.618V9.51995C180.618 9.86128 180.677 10.1439 180.794 10.3679C180.922 10.5919 181.2 10.7039 181.626 10.7039C181.754 10.7039 181.893 10.6933 182.042 10.6719C182.192 10.6399 182.325 10.5973 182.442 10.5439L182.506 12.0479C182.336 12.1119 182.133 12.1599 181.898 12.1919C181.664 12.2346 181.44 12.2559 181.226 12.2559C180.714 12.2559 180.298 12.1866 179.978 12.0479C179.658 11.8986 179.402 11.7013 179.21 11.4559C179.029 11.1999 178.901 10.9119 178.826 10.5919C178.762 10.2613 178.73 9.90928 178.73 9.53595V5.95195H177.386ZM188.52 4.19195C189.021 4.19195 189.448 4.28261 189.8 4.46395C190.162 4.63461 190.456 4.86395 190.68 5.15195C190.914 5.43995 191.085 5.77061 191.192 6.14395C191.298 6.51728 191.352 6.90128 191.352 7.29595V12.0959H189.432V7.87195C189.432 7.64795 189.416 7.41861 189.384 7.18395C189.352 6.93861 189.282 6.71995 189.176 6.52795C189.08 6.32528 188.936 6.15995 188.744 6.03195C188.562 5.90395 188.317 5.83995 188.008 5.83995C187.698 5.83995 187.432 5.89861 187.208 6.01595C186.984 6.13328 186.797 6.29328 186.648 6.49595C186.498 6.68795 186.386 6.90661 186.312 7.15195C186.237 7.39728 186.2 7.64795 186.2 7.90395V12.0959H184.28V-5.34058e-05H186.2V5.48795H186.232C186.306 5.32795 186.413 5.17328 186.552 5.02395C186.701 4.86395 186.872 4.72528 187.064 4.60795C187.256 4.47995 187.474 4.37861 187.72 4.30395C187.965 4.22928 188.232 4.19195 188.52 4.19195ZM199.32 7.48795C199.32 7.24261 199.282 7.00795 199.208 6.78395C199.144 6.55995 199.037 6.36261 198.888 6.19195C198.738 6.02128 198.546 5.88795 198.312 5.79195C198.088 5.68528 197.821 5.63195 197.512 5.63195C196.936 5.63195 196.445 5.80795 196.04 6.15995C195.645 6.50128 195.426 6.94395 195.384 7.48795H199.32ZM201.24 8.35195C201.24 8.43728 201.24 8.52261 201.24 8.60795C201.24 8.69328 201.234 8.77861 201.224 8.86395H195.384C195.405 9.14128 195.474 9.39728 195.592 9.63195C195.72 9.85595 195.885 10.0533 196.088 10.2239C196.29 10.3839 196.52 10.5119 196.776 10.6079C197.032 10.7039 197.298 10.7519 197.576 10.7519C198.056 10.7519 198.461 10.6666 198.792 10.4959C199.122 10.3146 199.394 10.0693 199.608 9.75995L200.888 10.7839C200.13 11.8079 199.032 12.3199 197.592 12.3199C196.994 12.3199 196.445 12.2293 195.944 12.0479C195.442 11.8559 195.005 11.5893 194.632 11.2479C194.269 10.9066 193.981 10.4906 193.768 9.99995C193.565 9.49861 193.464 8.93328 193.464 8.30395C193.464 7.68528 193.565 7.12528 193.768 6.62395C193.981 6.11195 194.269 5.67995 194.632 5.32795C194.994 4.96528 195.421 4.68795 195.912 4.49595C196.413 4.29328 196.952 4.19195 197.528 4.19195C198.061 4.19195 198.552 4.28261 199 4.46395C199.458 4.63461 199.853 4.89595 200.184 5.24795C200.514 5.58928 200.77 6.02128 200.952 6.54395C201.144 7.05595 201.24 7.65861 201.24 8.35195ZM212.987 6.54395C212.838 6.33061 212.614 6.15461 212.315 6.01595C212.016 5.86661 211.712 5.79195 211.403 5.79195C211.051 5.79195 210.742 5.86661 210.475 6.01595C210.208 6.15461 209.984 6.34128 209.803 6.57595C209.632 6.81061 209.504 7.07728 209.419 7.37595C209.334 7.66395 209.291 7.95728 209.291 8.25595C209.291 8.55461 209.334 8.85328 209.419 9.15195C209.515 9.43995 209.654 9.70128 209.835 9.93595C210.016 10.1706 210.24 10.3626 210.507 10.5119C210.784 10.6506 211.104 10.7199 211.467 10.7199C211.766 10.7199 212.064 10.6613 212.363 10.5439C212.662 10.4266 212.902 10.2559 213.083 10.0319L214.283 11.2479C213.963 11.5893 213.552 11.8559 213.051 12.0479C212.56 12.2293 212.027 12.3199 211.451 12.3199C210.886 12.3199 210.347 12.2293 209.835 12.0479C209.334 11.8666 208.891 11.5999 208.507 11.2479C208.134 10.8959 207.835 10.4693 207.611 9.96795C207.398 9.46661 207.291 8.89595 207.291 8.25595C207.291 7.63728 207.398 7.07728 207.611 6.57595C207.835 6.07461 208.134 5.64795 208.507 5.29595C208.88 4.94395 209.312 4.67195 209.803 4.47995C210.304 4.28795 210.838 4.19195 211.403 4.19195C211.968 4.19195 212.512 4.29861 213.035 4.51195C213.568 4.72528 213.99 5.01861 214.299 5.39195L212.987 6.54395ZM215.424 8.22395C215.424 7.61595 215.53 7.06661 215.744 6.57595C215.968 6.07461 216.266 5.64795 216.64 5.29595C217.013 4.94395 217.456 4.67195 217.968 4.47995C218.48 4.28795 219.024 4.19195 219.6 4.19195C220.176 4.19195 220.72 4.28795 221.232 4.47995C221.744 4.67195 222.186 4.94395 222.56 5.29595C222.933 5.64795 223.226 6.07461 223.44 6.57595C223.664 7.06661 223.776 7.61595 223.776 8.22395C223.776 8.83195 223.664 9.38661 223.44 9.88795C223.226 10.3893 222.933 10.8213 222.56 11.1839C222.186 11.5359 221.744 11.8133 221.232 12.0159C220.72 12.2186 220.176 12.3199 219.6 12.3199C219.024 12.3199 218.48 12.2186 217.968 12.0159C217.456 11.8133 217.013 11.5359 216.64 11.1839C216.266 10.8213 215.968 10.3893 215.744 9.88795C215.53 9.38661 215.424 8.83195 215.424 8.22395ZM217.376 8.22395C217.376 8.52261 217.418 8.82128 217.504 9.11995C217.6 9.41861 217.738 9.68528 217.92 9.91995C218.101 10.1546 218.33 10.3466 218.608 10.4959C218.885 10.6453 219.216 10.7199 219.6 10.7199C219.984 10.7199 220.314 10.6453 220.592 10.4959C220.869 10.3466 221.098 10.1546 221.28 9.91995C221.461 9.68528 221.594 9.41861 221.68 9.11995C221.776 8.82128 221.824 8.52261 221.824 8.22395C221.824 7.92528 221.776 7.63195 221.68 7.34395C221.594 7.04528 221.461 6.77861 221.28 6.54395C221.098 6.30928 220.869 6.12261 220.592 5.98395C220.314 5.83461 219.984 5.75995 219.6 5.75995C219.216 5.75995 218.885 5.83461 218.608 5.98395C218.33 6.12261 218.101 6.30928 217.92 6.54395C217.738 6.77861 217.6 7.04528 217.504 7.34395C217.418 7.63195 217.376 7.92528 217.376 8.22395ZM225.957 4.41595H227.781V5.64795H227.813C227.984 5.26395 228.277 4.92795 228.693 4.63995C229.12 4.34128 229.621 4.19195 230.197 4.19195C230.698 4.19195 231.125 4.28261 231.477 4.46395C231.84 4.63461 232.133 4.86395 232.357 5.15195C232.592 5.43995 232.762 5.77061 232.869 6.14395C232.976 6.51728 233.029 6.90128 233.029 7.29595V12.0959H231.109V7.83995C231.109 7.61595 231.093 7.38128 231.061 7.13595C231.029 6.89061 230.96 6.67195 230.853 6.47995C230.746 6.27728 230.597 6.11195 230.405 5.98395C230.224 5.85595 229.978 5.79195 229.669 5.79195C229.36 5.79195 229.093 5.85595 228.869 5.98395C228.645 6.10128 228.458 6.25595 228.309 6.44795C228.17 6.63995 228.064 6.86395 227.989 7.11995C227.914 7.36528 227.877 7.61595 227.877 7.87195V12.0959H225.957V4.41595ZM234.438 4.41595H236.534L238.55 10.0159H238.582L240.614 4.41595H242.646L239.59 12.0959H237.542L234.438 4.41595ZM249.521 7.48795C249.521 7.24261 249.483 7.00795 249.409 6.78395C249.345 6.55995 249.238 6.36261 249.089 6.19195C248.939 6.02128 248.747 5.88795 248.513 5.79195C248.289 5.68528 248.022 5.63195 247.713 5.63195C247.137 5.63195 246.646 5.80795 246.241 6.15995C245.846 6.50128 245.627 6.94395 245.585 7.48795H249.521ZM251.441 8.35195C251.441 8.43728 251.441 8.52261 251.441 8.60795C251.441 8.69328 251.435 8.77861 251.425 8.86395H245.585C245.606 9.14128 245.675 9.39728 245.793 9.63195C245.921 9.85595 246.086 10.0533 246.289 10.2239C246.491 10.3839 246.721 10.5119 246.977 10.6079C247.233 10.7039 247.499 10.7519 247.777 10.7519C248.257 10.7519 248.662 10.6666 248.993 10.4959C249.323 10.3146 249.595 10.0693 249.809 9.75995L251.089 10.7839C250.331 11.8079 249.233 12.3199 247.793 12.3199C247.195 12.3199 246.646 12.2293 246.145 12.0479C245.643 11.8559 245.206 11.5893 244.833 11.2479C244.47 10.9066 244.182 10.4906 243.969 9.99995C243.766 9.49861 243.665 8.93328 243.665 8.30395C243.665 7.68528 243.766 7.12528 243.969 6.62395C244.182 6.11195 244.47 5.67995 244.833 5.32795C245.195 4.96528 245.622 4.68795 246.113 4.49595C246.614 4.29328 247.153 4.19195 247.729 4.19195C248.262 4.19195 248.753 4.28261 249.201 4.46395C249.659 4.63461 250.054 4.89595 250.385 5.24795C250.715 5.58928 250.971 6.02128 251.153 6.54395C251.345 7.05595 251.441 7.65861 251.441 8.35195ZM253.62 4.41595H255.46V5.69595H255.492C255.706 5.24795 256.004 4.88528 256.388 4.60795C256.772 4.33061 257.22 4.19195 257.732 4.19195C257.807 4.19195 257.887 4.19728 257.972 4.20795C258.058 4.20795 258.132 4.21861 258.196 4.23995V5.99995C258.068 5.96795 257.956 5.94661 257.86 5.93595C257.775 5.92528 257.69 5.91995 257.604 5.91995C257.167 5.91995 256.815 5.99995 256.548 6.15995C256.282 6.31995 256.074 6.51195 255.924 6.73595C255.775 6.95995 255.674 7.18928 255.62 7.42395C255.567 7.65861 255.54 7.84528 255.54 7.98395V12.0959H253.62V4.41595ZM263.976 6.46395C263.806 6.23995 263.571 6.04795 263.272 5.88795C262.974 5.71728 262.648 5.63195 262.296 5.63195C261.987 5.63195 261.704 5.69595 261.448 5.82395C261.192 5.95195 261.064 6.16528 261.064 6.46395C261.064 6.76261 261.203 6.97595 261.48 7.10395C261.768 7.22128 262.184 7.34395 262.728 7.47195C263.016 7.53595 263.304 7.62128 263.592 7.72795C263.891 7.83461 264.158 7.97861 264.392 8.15995C264.638 8.33061 264.835 8.54928 264.984 8.81595C265.134 9.07195 265.208 9.38661 265.208 9.75995C265.208 10.2293 265.118 10.6293 264.936 10.9599C264.766 11.2799 264.531 11.5413 264.232 11.7439C263.944 11.9466 263.603 12.0906 263.208 12.1759C262.824 12.2719 262.424 12.3199 262.008 12.3199C261.411 12.3199 260.83 12.2133 260.264 11.9999C259.699 11.7759 259.23 11.4613 258.856 11.0559L260.12 9.87195C260.334 10.1493 260.611 10.3786 260.952 10.5599C261.294 10.7413 261.672 10.8319 262.088 10.8319C262.227 10.8319 262.366 10.8159 262.504 10.7839C262.654 10.7519 262.787 10.7039 262.904 10.6399C263.032 10.5653 263.134 10.4693 263.208 10.3519C263.283 10.2346 263.32 10.0906 263.32 9.91995C263.32 9.59995 263.171 9.37061 262.872 9.23195C262.584 9.09328 262.147 8.95461 261.56 8.81595C261.272 8.75195 260.99 8.67195 260.712 8.57595C260.446 8.46928 260.206 8.33595 259.992 8.17595C259.779 8.00528 259.608 7.79728 259.48 7.55195C259.352 7.30661 259.288 7.00261 259.288 6.63995C259.288 6.21328 259.374 5.84528 259.544 5.53595C259.726 5.22661 259.96 4.97595 260.248 4.78395C260.536 4.58128 260.862 4.43195 261.224 4.33595C261.587 4.23995 261.96 4.19195 262.344 4.19195C262.899 4.19195 263.438 4.28795 263.96 4.47995C264.494 4.67195 264.915 4.96528 265.224 5.35995L263.976 6.46395ZM271.966 11.1199H271.918C271.726 11.4613 271.416 11.7439 270.99 11.9679C270.563 12.1813 270.078 12.2879 269.534 12.2879C269.224 12.2879 268.899 12.2453 268.558 12.1599C268.227 12.0853 267.918 11.9573 267.63 11.7759C267.352 11.5839 267.118 11.3386 266.926 11.0399C266.744 10.7306 266.654 10.3519 266.654 9.90395C266.654 9.32795 266.814 8.86928 267.134 8.52795C267.464 8.18661 267.886 7.92528 268.398 7.74395C268.91 7.56261 269.475 7.44528 270.094 7.39195C270.723 7.32795 271.336 7.29595 271.934 7.29595V7.10395C271.934 6.62395 271.758 6.27195 271.406 6.04795C271.064 5.81328 270.654 5.69595 270.174 5.69595C269.768 5.69595 269.379 5.78128 269.006 5.95195C268.632 6.12261 268.323 6.33061 268.078 6.57595L267.086 5.40795C267.523 5.00261 268.024 4.69861 268.59 4.49595C269.166 4.29328 269.747 4.19195 270.334 4.19195C271.016 4.19195 271.576 4.28795 272.014 4.47995C272.462 4.67195 272.814 4.92261 273.07 5.23195C273.326 5.54128 273.502 5.88795 273.598 6.27195C273.704 6.65595 273.758 7.03995 273.758 7.42395V12.0959H271.966V11.1199ZM271.934 8.59195H271.502C271.192 8.59195 270.867 8.60795 270.526 8.63995C270.184 8.66128 269.87 8.71995 269.582 8.81595C269.294 8.90128 269.054 9.02928 268.862 9.19995C268.67 9.35995 268.574 9.58395 268.574 9.87195C268.574 10.0533 268.611 10.2079 268.686 10.3359C268.771 10.4533 268.878 10.5493 269.006 10.6239C269.134 10.6986 269.278 10.7519 269.438 10.7839C269.598 10.8159 269.758 10.8319 269.918 10.8319C270.579 10.8319 271.08 10.6559 271.422 10.3039C271.763 9.95195 271.934 9.47195 271.934 8.86395V8.59195ZM275.054 5.95195V4.41595H276.398V2.19195H278.286V4.41595H280.206V5.95195H278.286V9.51995C278.286 9.86128 278.345 10.1439 278.462 10.3679C278.59 10.5919 278.868 10.7039 279.294 10.7039C279.422 10.7039 279.561 10.6933 279.71 10.6719C279.86 10.6399 279.993 10.5973 280.11 10.5439L280.174 12.0479C280.004 12.1119 279.801 12.1599 279.566 12.1919C279.332 12.2346 279.108 12.2559 278.894 12.2559C278.382 12.2559 277.966 12.1866 277.646 12.0479C277.326 11.8986 277.07 11.7013 276.878 11.4559C276.697 11.1999 276.569 10.9119 276.494 10.5919C276.43 10.2613 276.398 9.90928 276.398 9.53595V5.95195H275.054ZM281.948 4.41595H283.868V12.0959H281.948V4.41595ZM281.676 1.80795C281.676 1.49861 281.788 1.23195 282.012 1.00795C282.247 0.77328 282.54 0.655947 282.892 0.655947C283.244 0.655947 283.537 0.767947 283.772 0.991947C284.017 1.20528 284.14 1.47728 284.14 1.80795C284.14 2.13861 284.017 2.41595 283.772 2.63995C283.537 2.85328 283.244 2.95995 282.892 2.95995C282.54 2.95995 282.247 2.84795 282.012 2.62395C281.788 2.38928 281.676 2.11728 281.676 1.80795ZM286.069 8.22395C286.069 7.61595 286.176 7.06661 286.389 6.57595C286.613 6.07461 286.912 5.64795 287.285 5.29595C287.658 4.94395 288.101 4.67195 288.613 4.47995C289.125 4.28795 289.669 4.19195 290.245 4.19195C290.821 4.19195 291.365 4.28795 291.877 4.47995C292.389 4.67195 292.832 4.94395 293.205 5.29595C293.578 5.64795 293.872 6.07461 294.085 6.57595C294.309 7.06661 294.421 7.61595 294.421 8.22395C294.421 8.83195 294.309 9.38661 294.085 9.88795C293.872 10.3893 293.578 10.8213 293.205 11.1839C292.832 11.5359 292.389 11.8133 291.877 12.0159C291.365 12.2186 290.821 12.3199 290.245 12.3199C289.669 12.3199 289.125 12.2186 288.613 12.0159C288.101 11.8133 287.658 11.5359 287.285 11.1839C286.912 10.8213 286.613 10.3893 286.389 9.88795C286.176 9.38661 286.069 8.83195 286.069 8.22395ZM288.021 8.22395C288.021 8.52261 288.064 8.82128 288.149 9.11995C288.245 9.41861 288.384 9.68528 288.565 9.91995C288.746 10.1546 288.976 10.3466 289.253 10.4959C289.53 10.6453 289.861 10.7199 290.245 10.7199C290.629 10.7199 290.96 10.6453 291.237 10.4959C291.514 10.3466 291.744 10.1546 291.925 9.91995C292.106 9.68528 292.24 9.41861 292.325 9.11995C292.421 8.82128 292.469 8.52261 292.469 8.22395C292.469 7.92528 292.421 7.63195 292.325 7.34395C292.24 7.04528 292.106 6.77861 291.925 6.54395C291.744 6.30928 291.514 6.12261 291.237 5.98395C290.96 5.83461 290.629 5.75995 290.245 5.75995C289.861 5.75995 289.53 5.83461 289.253 5.98395C288.976 6.12261 288.746 6.30928 288.565 6.54395C288.384 6.77861 288.245 7.04528 288.149 7.34395C288.064 7.63195 288.021 7.92528 288.021 8.22395ZM296.603 4.41595H298.427V5.64795H298.459C298.629 5.26395 298.923 4.92795 299.339 4.63995C299.765 4.34128 300.267 4.19195 300.843 4.19195C301.344 4.19195 301.771 4.28261 302.123 4.46395C302.485 4.63461 302.779 4.86395 303.003 5.15195C303.237 5.43995 303.408 5.77061 303.515 6.14395C303.621 6.51728 303.675 6.90128 303.675 7.29595V12.0959H301.755V7.83995C301.755 7.61595 301.739 7.38128 301.707 7.13595C301.675 6.89061 301.605 6.67195 301.499 6.47995C301.392 6.27728 301.243 6.11195 301.051 5.98395C300.869 5.85595 300.624 5.79195 300.315 5.79195C300.005 5.79195 299.739 5.85595 299.515 5.98395C299.291 6.10128 299.104 6.25595 298.955 6.44795C298.816 6.63995 298.709 6.86395 298.635 7.11995C298.56 7.36528 298.523 7.61595 298.523 7.87195V12.0959H296.603V4.41595ZM308.763 8.54395H306.843V0.767947H308.763V8.54395ZM306.523 10.9759C306.523 10.6346 306.646 10.3413 306.891 10.0959C307.147 9.85061 307.451 9.72795 307.803 9.72795C308.145 9.72795 308.443 9.84528 308.699 10.0799C308.955 10.3146 309.083 10.6026 309.083 10.9439C309.083 11.2853 308.955 11.5786 308.699 11.8239C308.454 12.0693 308.155 12.1919 307.803 12.1919C307.633 12.1919 307.467 12.1599 307.307 12.0959C307.158 12.0319 307.025 11.9466 306.907 11.8399C306.79 11.7333 306.694 11.6053 306.619 11.4559C306.555 11.3066 306.523 11.1466 306.523 10.9759Z" fill="#969696"/>
</svg>
