<svg width="345" height="77" viewBox="0 0 345 77" fill="none" xmlns="http://www.w3.org/2000/svg">
<rect width="345" height="77" fill="#F5F6F8"/>
<rect x="0.5" y="0.5" width="344" height="76" rx="7.5" fill="white"/>
<rect x="0.5" y="0.5" width="344" height="76" rx="7.5" stroke="#969696"/>
<circle cx="18" cy="38.5" r="9" stroke="#35A8F7" stroke-width="2"/>
<circle cx="18" cy="38.5" r="5" fill="#35A8F7"/>
<path d="M39.376 22.672H42.832C43.44 22.672 43.9947 22.736 44.496 22.864C44.9973 22.9813 45.424 23.168 45.776 23.424C46.128 23.68 46.4 24.0053 46.592 24.4C46.784 24.7947 46.88 25.2693 46.88 25.824C46.88 26.3893 46.7733 26.8747 46.56 27.28C46.3573 27.6853 46.0693 28.016 45.696 28.272C45.3333 28.528 44.896 28.72 44.384 28.848C43.8827 28.9653 43.3387 29.024 42.752 29.024H40.96V34H39.376V22.672ZM40.96 27.68H42.64C43.024 27.68 43.376 27.648 43.696 27.584C44.0267 27.5093 44.3093 27.4027 44.544 27.264C44.7787 27.1147 44.96 26.9227 45.088 26.688C45.216 26.4533 45.28 26.1653 45.28 25.824C45.28 25.4827 45.2107 25.2 45.072 24.976C44.944 24.7413 44.7627 24.5547 44.528 24.416C44.304 24.2667 44.032 24.1653 43.712 24.112C43.392 24.048 43.0453 24.016 42.672 24.016H40.96V27.68ZM53.4525 34C53.4312 33.808 53.4152 33.5947 53.4045 33.36C53.3938 33.1147 53.3885 32.912 53.3885 32.752H53.3565C53.1645 33.1573 52.8392 33.504 52.3805 33.792C51.9325 34.0693 51.4312 34.208 50.8765 34.208C50.3858 34.208 49.9592 34.128 49.5965 33.968C49.2445 33.808 48.9512 33.5893 48.7165 33.312C48.4925 33.024 48.3218 32.6933 48.2045 32.32C48.0978 31.9467 48.0445 31.5467 48.0445 31.12V26.416H49.5485V30.608C49.5485 30.9173 49.5698 31.216 49.6125 31.504C49.6658 31.7813 49.7565 32.0267 49.8845 32.24C50.0125 32.4533 50.1885 32.624 50.4125 32.752C50.6365 32.88 50.9245 32.944 51.2765 32.944C51.8845 32.944 52.3752 32.72 52.7485 32.272C53.1218 31.8133 53.3085 31.2053 53.3085 30.448V26.416H54.8125V32.368C54.8125 32.5707 54.8178 32.832 54.8285 33.152C54.8392 33.472 54.8552 33.7547 54.8765 34H53.4525ZM58.909 32.8V34H57.453V21.904H58.957V27.552H59.005C59.261 27.1787 59.6183 26.864 60.077 26.608C60.5357 26.3413 61.0797 26.208 61.709 26.208C62.2743 26.208 62.7863 26.3093 63.245 26.512C63.7143 26.7147 64.1143 26.9973 64.445 27.36C64.7863 27.7227 65.0477 28.1493 65.229 28.64C65.4103 29.12 65.501 29.6373 65.501 30.192C65.501 30.7467 65.4103 31.2693 65.229 31.76C65.0477 32.2507 64.7917 32.6773 64.461 33.04C64.1303 33.4027 63.7303 33.6907 63.261 33.904C62.7917 34.1067 62.2637 34.208 61.677 34.208C61.133 34.208 60.6157 34.0907 60.125 33.856C59.6343 33.6107 59.2397 33.2587 58.941 32.8H58.909ZM63.949 30.192C63.949 29.84 63.8957 29.4987 63.789 29.168C63.6823 28.8373 63.5223 28.544 63.309 28.288C63.0957 28.032 62.829 27.8293 62.509 27.68C62.1997 27.5307 61.837 27.456 61.421 27.456C61.037 27.456 60.685 27.5307 60.365 27.68C60.0557 27.8293 59.789 28.032 59.565 28.288C59.341 28.544 59.165 28.8373 59.037 29.168C58.9197 29.4987 58.861 29.8453 58.861 30.208C58.861 30.5707 58.9197 30.9173 59.037 31.248C59.165 31.5787 59.341 31.872 59.565 32.128C59.789 32.3733 60.0557 32.5707 60.365 32.72C60.685 32.8693 61.037 32.944 61.421 32.944C61.837 32.944 62.1997 32.8693 62.509 32.72C62.829 32.56 63.0957 32.352 63.309 32.096C63.5223 31.84 63.6823 31.5467 63.789 31.216C63.8957 30.8853 63.949 30.544 63.949 30.192ZM69.1289 34H67.6249V21.904H69.1289V34ZM73.2691 34H71.7651V26.416H73.2691V34ZM73.5251 23.68C73.5251 23.9573 73.4238 24.1867 73.2211 24.368C73.0291 24.5493 72.7945 24.64 72.5171 24.64C72.2398 24.64 72.0051 24.5493 71.8131 24.368C71.6211 24.176 71.5251 23.9467 71.5251 23.68C71.5251 23.4027 71.6211 23.1733 71.8131 22.992C72.0051 22.8 72.2398 22.704 72.5171 22.704C72.7945 22.704 73.0291 22.8 73.2211 22.992C73.4238 23.1733 73.5251 23.4027 73.5251 23.68ZM81.2018 28.336C81.0418 28.0907 80.8018 27.888 80.4818 27.728C80.1618 27.5573 79.8204 27.472 79.4578 27.472C79.0631 27.472 78.7111 27.5467 78.4018 27.696C78.1031 27.8453 77.8471 28.048 77.6338 28.304C77.4204 28.5493 77.2551 28.8373 77.1378 29.168C77.0311 29.4987 76.9778 29.8453 76.9778 30.208C76.9778 30.5707 77.0311 30.9173 77.1378 31.248C77.2551 31.5787 77.4204 31.872 77.6338 32.128C77.8471 32.3733 78.1084 32.5707 78.4178 32.72C78.7271 32.8693 79.0791 32.944 79.4738 32.944C79.8578 32.944 80.2044 32.8693 80.5138 32.72C80.8338 32.5707 81.0951 32.368 81.2978 32.112L82.3058 33.024C81.9858 33.3973 81.5858 33.6907 81.1058 33.904C80.6258 34.1067 80.0818 34.208 79.4738 34.208C78.8871 34.208 78.3431 34.112 77.8418 33.92C77.3511 33.728 76.9244 33.4613 76.5618 33.12C76.1991 32.768 75.9111 32.3467 75.6978 31.856C75.4951 31.3653 75.3938 30.816 75.3938 30.208C75.3938 29.6107 75.4951 29.0667 75.6978 28.576C75.9004 28.0853 76.1831 27.664 76.5458 27.312C76.9084 26.96 77.3351 26.688 77.8258 26.496C78.3271 26.304 78.8658 26.208 79.4418 26.208C79.9751 26.208 80.5031 26.3147 81.0258 26.528C81.5591 26.7413 81.9804 27.0507 82.2898 27.456L81.2018 28.336Z" fill="#4D4D4D"/>
<path d="M39.246 54H38.14L42.424 44.088H43.404L47.66 54H46.54L45.448 51.396H40.324L39.246 54ZM40.702 50.472H45.07L42.886 45.208L40.702 50.472ZM49.9167 47.448C49.9354 47.6253 49.9494 47.8213 49.9587 48.036C49.9681 48.2507 49.9727 48.428 49.9727 48.568H50.0007C50.1874 48.1853 50.4907 47.8773 50.9107 47.644C51.3307 47.4013 51.7741 47.28 52.2407 47.28C53.0714 47.28 53.6921 47.5273 54.1027 48.022C54.5227 48.5167 54.7327 49.17 54.7327 49.982V54H53.7807V50.374C53.7807 50.0287 53.7527 49.716 53.6967 49.436C53.6407 49.156 53.5427 48.918 53.4027 48.722C53.2721 48.5167 53.0901 48.358 52.8567 48.246C52.6327 48.134 52.3481 48.078 52.0027 48.078C51.7507 48.078 51.5034 48.1293 51.2607 48.232C51.0274 48.3347 50.8174 48.4933 50.6307 48.708C50.4441 48.9133 50.2947 49.1793 50.1827 49.506C50.0707 49.8233 50.0147 50.2013 50.0147 50.64V54H49.0627V48.89C49.0627 48.7127 49.0581 48.484 49.0487 48.204C49.0394 47.924 49.0254 47.672 49.0067 47.448H49.9167ZM59.4515 52.978H59.4795L61.5095 47.448H62.5455L59.2835 55.694C59.0875 56.198 58.8355 56.5993 58.5275 56.898C58.2288 57.206 57.7948 57.36 57.2255 57.36C56.9362 57.36 56.6515 57.332 56.3715 57.276L56.4695 56.408C56.6935 56.4827 56.9268 56.52 57.1695 56.52C57.4962 56.52 57.7528 56.4173 57.9395 56.212C58.1262 56.016 58.2895 55.7313 58.4295 55.358L58.9615 53.986L56.1615 47.448H57.2255L59.4515 52.978ZM70.5434 50.724C70.5434 51.2187 70.4548 51.676 70.2774 52.096C70.1094 52.516 69.8714 52.88 69.5634 53.188C69.2554 53.496 68.8868 53.7387 68.4574 53.916C68.0281 54.084 67.5568 54.168 67.0434 54.168C66.5394 54.168 66.0728 54.084 65.6434 53.916C65.2141 53.7387 64.8454 53.496 64.5374 53.188C64.2294 52.88 63.9868 52.516 63.8094 52.096C63.6414 51.676 63.5574 51.2187 63.5574 50.724C63.5574 50.2293 63.6414 49.772 63.8094 49.352C63.9868 48.932 64.2294 48.568 64.5374 48.26C64.8454 47.952 65.2141 47.714 65.6434 47.546C66.0728 47.3687 66.5394 47.28 67.0434 47.28C67.5568 47.28 68.0281 47.3687 68.4574 47.546C68.8868 47.714 69.2554 47.952 69.5634 48.26C69.8714 48.568 70.1094 48.932 70.2774 49.352C70.4548 49.772 70.5434 50.2293 70.5434 50.724ZM69.5354 50.724C69.5354 50.36 69.4748 50.0193 69.3534 49.702C69.2414 49.3753 69.0781 49.0953 68.8634 48.862C68.6488 48.6193 68.3874 48.428 68.0794 48.288C67.7714 48.148 67.4261 48.078 67.0434 48.078C66.6608 48.078 66.3154 48.148 66.0074 48.288C65.7088 48.428 65.4521 48.6193 65.2374 48.862C65.0228 49.0953 64.8548 49.3753 64.7334 49.702C64.6214 50.0193 64.5654 50.36 64.5654 50.724C64.5654 51.088 64.6214 51.4333 64.7334 51.76C64.8548 52.0773 65.0228 52.3573 65.2374 52.6C65.4521 52.8333 65.7088 53.02 66.0074 53.16C66.3154 53.2907 66.6608 53.356 67.0434 53.356C67.4261 53.356 67.7714 53.2907 68.0794 53.16C68.3874 53.02 68.6488 52.8333 68.8634 52.6C69.0781 52.3573 69.2414 52.0773 69.3534 51.76C69.4748 51.4333 69.5354 51.088 69.5354 50.724ZM73.446 47.448C73.4647 47.6253 73.4787 47.8213 73.488 48.036C73.4974 48.2507 73.502 48.428 73.502 48.568H73.53C73.7167 48.1853 74.02 47.8773 74.44 47.644C74.86 47.4013 75.3034 47.28 75.77 47.28C76.6007 47.28 77.2214 47.5273 77.632 48.022C78.052 48.5167 78.262 49.17 78.262 49.982V54H77.31V50.374C77.31 50.0287 77.282 49.716 77.226 49.436C77.17 49.156 77.072 48.918 76.932 48.722C76.8014 48.5167 76.6194 48.358 76.386 48.246C76.162 48.134 75.8774 48.078 75.532 48.078C75.28 48.078 75.0327 48.1293 74.79 48.232C74.5567 48.3347 74.3467 48.4933 74.16 48.708C73.9734 48.9133 73.824 49.1793 73.712 49.506C73.6 49.8233 73.544 50.2013 73.544 50.64V54H72.592V48.89C72.592 48.7127 72.5874 48.484 72.578 48.204C72.5687 47.924 72.5547 47.672 72.536 47.448H73.446ZM85.7248 50.22C85.6968 49.604 85.4961 49.0953 85.1228 48.694C84.7588 48.2833 84.2361 48.078 83.5548 48.078C83.2375 48.078 82.9435 48.1387 82.6728 48.26C82.4021 48.372 82.1641 48.5307 81.9588 48.736C81.7535 48.932 81.5901 49.1607 81.4688 49.422C81.3475 49.674 81.2775 49.94 81.2588 50.22H85.7248ZM86.6908 50.528C86.6908 50.5933 86.6908 50.6633 86.6908 50.738C86.6908 50.8127 86.6861 50.892 86.6768 50.976H81.2448C81.2541 51.3027 81.3195 51.6107 81.4408 51.9C81.5621 52.1893 81.7301 52.4413 81.9448 52.656C82.1595 52.8707 82.4115 53.0433 82.7008 53.174C82.9901 53.2953 83.3028 53.356 83.6388 53.356C84.1335 53.356 84.5581 53.244 84.9128 53.02C85.2768 52.7867 85.5521 52.5207 85.7388 52.222L86.4528 52.782C86.0608 53.2767 85.6268 53.6313 85.1508 53.846C84.6841 54.0607 84.1801 54.168 83.6388 54.168C83.1535 54.168 82.7008 54.084 82.2808 53.916C81.8701 53.7387 81.5155 53.496 81.2168 53.188C80.9181 52.88 80.6801 52.516 80.5028 52.096C80.3348 51.676 80.2508 51.2187 80.2508 50.724C80.2508 50.2293 80.3348 49.772 80.5028 49.352C80.6708 48.932 80.9041 48.568 81.2028 48.26C81.5015 47.952 81.8515 47.714 82.2528 47.546C82.6541 47.3687 83.0881 47.28 83.5548 47.28C84.0681 47.28 84.5208 47.3687 84.9128 47.546C85.3048 47.714 85.6315 47.9473 85.8928 48.246C86.1541 48.5353 86.3501 48.876 86.4808 49.268C86.6208 49.66 86.6908 50.08 86.6908 50.528ZM96.9565 48.946C96.7978 48.694 96.5645 48.4887 96.2565 48.33C95.9578 48.162 95.6312 48.078 95.2765 48.078C94.8938 48.078 94.5485 48.148 94.2405 48.288C93.9325 48.4187 93.6665 48.6053 93.4425 48.848C93.2278 49.0813 93.0598 49.3613 92.9385 49.688C92.8265 50.0053 92.7705 50.3507 92.7705 50.724C92.7705 51.0973 92.8265 51.4427 92.9385 51.76C93.0598 52.0773 93.2278 52.3573 93.4425 52.6C93.6572 52.8333 93.9185 53.02 94.2265 53.16C94.5345 53.2907 94.8798 53.356 95.2625 53.356C95.6825 53.356 96.0372 53.2767 96.3265 53.118C96.6158 52.9593 96.8538 52.754 97.0405 52.502L97.7545 53.034C97.4745 53.3793 97.1292 53.6547 96.7185 53.86C96.3172 54.0653 95.8318 54.168 95.2625 54.168C94.7305 54.168 94.2498 54.084 93.8205 53.916C93.3912 53.7387 93.0225 53.496 92.7145 53.188C92.4158 52.88 92.1825 52.516 92.0145 52.096C91.8465 51.676 91.7625 51.2187 91.7625 50.724C91.7625 50.2293 91.8465 49.772 92.0145 49.352C92.1825 48.932 92.4158 48.568 92.7145 48.26C93.0225 47.952 93.3912 47.714 93.8205 47.546C94.2498 47.3687 94.7305 47.28 95.2625 47.28C95.7012 47.28 96.1445 47.378 96.5925 47.574C97.0498 47.7607 97.4185 48.0407 97.6985 48.414L96.9565 48.946ZM103.369 49.772C103.369 49.2027 103.219 48.778 102.921 48.498C102.622 48.218 102.188 48.078 101.619 48.078C101.227 48.078 100.863 48.148 100.527 48.288C100.191 48.428 99.9058 48.6147 99.6725 48.848L99.1405 48.218C99.4112 47.9473 99.7658 47.7233 100.205 47.546C100.653 47.3687 101.157 47.28 101.717 47.28C102.071 47.28 102.403 47.3313 102.711 47.434C103.019 47.5273 103.289 47.672 103.523 47.868C103.756 48.064 103.938 48.3113 104.069 48.61C104.199 48.9087 104.265 49.2587 104.265 49.66V52.53C104.265 52.782 104.274 53.0433 104.293 53.314C104.311 53.5847 104.339 53.8133 104.377 54H103.523C103.495 53.8413 103.471 53.6687 103.453 53.482C103.434 53.2953 103.425 53.1133 103.425 52.936H103.397C103.098 53.3747 102.757 53.692 102.375 53.888C102.001 54.0747 101.549 54.168 101.017 54.168C100.765 54.168 100.503 54.1307 100.233 54.056C99.9712 53.9907 99.7285 53.8787 99.5045 53.72C99.2898 53.5613 99.1078 53.356 98.9585 53.104C98.8185 52.852 98.7485 52.544 98.7485 52.18C98.7485 51.676 98.8745 51.2793 99.1265 50.99C99.3878 50.6913 99.7332 50.472 100.163 50.332C100.592 50.1827 101.082 50.0893 101.633 50.052C102.193 50.0053 102.771 49.982 103.369 49.982V49.772ZM103.089 50.724C102.697 50.724 102.3 50.7427 101.899 50.78C101.507 50.808 101.147 50.8733 100.821 50.976C100.503 51.0693 100.242 51.2093 100.037 51.396C99.8312 51.5827 99.7285 51.83 99.7285 52.138C99.7285 52.3713 99.7705 52.5673 99.8545 52.726C99.9478 52.8847 100.069 53.0153 100.219 53.118C100.368 53.2113 100.531 53.2813 100.709 53.328C100.895 53.3653 101.082 53.384 101.269 53.384C101.605 53.384 101.903 53.328 102.165 53.216C102.426 53.0947 102.645 52.936 102.823 52.74C103 52.5347 103.135 52.3013 103.229 52.04C103.322 51.7787 103.369 51.5033 103.369 51.214V50.724H103.089ZM107.571 47.448C107.59 47.6253 107.604 47.8213 107.613 48.036C107.622 48.2507 107.627 48.428 107.627 48.568H107.655C107.842 48.1853 108.145 47.8773 108.565 47.644C108.985 47.4013 109.428 47.28 109.895 47.28C110.726 47.28 111.346 47.5273 111.757 48.022C112.177 48.5167 112.387 49.17 112.387 49.982V54H111.435V50.374C111.435 50.0287 111.407 49.716 111.351 49.436C111.295 49.156 111.197 48.918 111.057 48.722C110.926 48.5167 110.744 48.358 110.511 48.246C110.287 48.134 110.002 48.078 109.657 48.078C109.405 48.078 109.158 48.1293 108.915 48.232C108.682 48.3347 108.472 48.4933 108.285 48.708C108.098 48.9133 107.949 49.1793 107.837 49.506C107.725 49.8233 107.669 50.2013 107.669 50.64V54H106.717V48.89C106.717 48.7127 106.712 48.484 106.703 48.204C106.694 47.924 106.68 47.672 106.661 47.448H107.571ZM123.742 52.894C123.462 53.314 123.098 53.6313 122.65 53.846C122.202 54.0607 121.74 54.168 121.264 54.168C120.75 54.168 120.284 54.0793 119.864 53.902C119.453 53.7247 119.098 53.482 118.8 53.174C118.51 52.866 118.282 52.502 118.114 52.082C117.955 51.662 117.876 51.2093 117.876 50.724C117.876 50.2387 117.955 49.786 118.114 49.366C118.282 48.946 118.51 48.582 118.8 48.274C119.098 47.966 119.453 47.7233 119.864 47.546C120.284 47.3687 120.75 47.28 121.264 47.28C121.74 47.28 122.202 47.392 122.65 47.616C123.098 47.8307 123.462 48.1527 123.742 48.582H123.77V43.416H124.722V54H123.77V52.894H123.742ZM118.884 50.724C118.884 51.088 118.94 51.4333 119.052 51.76C119.164 52.0773 119.322 52.3573 119.528 52.6C119.742 52.8333 120.004 53.02 120.312 53.16C120.62 53.2907 120.97 53.356 121.362 53.356C121.726 53.356 122.062 53.2907 122.37 53.16C122.678 53.02 122.944 52.8333 123.168 52.6C123.392 52.3667 123.564 52.0913 123.686 51.774C123.816 51.4473 123.882 51.0973 123.882 50.724C123.882 50.3507 123.816 50.0053 123.686 49.688C123.564 49.3613 123.392 49.0813 123.168 48.848C122.944 48.6053 122.678 48.4187 122.37 48.288C122.062 48.148 121.726 48.078 121.362 48.078C120.97 48.078 120.62 48.148 120.312 48.288C120.004 48.428 119.742 48.6193 119.528 48.862C119.322 49.0953 119.164 49.3753 119.052 49.702C118.94 50.0193 118.884 50.36 118.884 50.724ZM128.232 54H127.28V47.448H128.232V54ZM128.428 44.928C128.428 45.124 128.358 45.2873 128.218 45.418C128.078 45.5393 127.924 45.6 127.756 45.6C127.588 45.6 127.434 45.5393 127.294 45.418C127.154 45.2873 127.084 45.124 127.084 44.928C127.084 44.732 127.154 44.5733 127.294 44.452C127.434 44.3213 127.588 44.256 127.756 44.256C127.924 44.256 128.078 44.3213 128.218 44.452C128.358 44.5733 128.428 44.732 128.428 44.928ZM134.252 49.002C134.112 48.7313 133.897 48.512 133.608 48.344C133.328 48.1667 133.006 48.078 132.642 48.078C132.474 48.078 132.306 48.0967 132.138 48.134C131.97 48.1713 131.821 48.232 131.69 48.316C131.559 48.4 131.452 48.5073 131.368 48.638C131.293 48.7687 131.256 48.9227 131.256 49.1C131.256 49.408 131.382 49.646 131.634 49.814C131.886 49.9727 132.283 50.108 132.824 50.22C133.599 50.3787 134.168 50.612 134.532 50.92C134.905 51.2187 135.092 51.6247 135.092 52.138C135.092 52.5113 135.017 52.8287 134.868 53.09C134.728 53.342 134.541 53.552 134.308 53.72C134.075 53.8787 133.809 53.9907 133.51 54.056C133.221 54.1307 132.927 54.168 132.628 54.168C132.133 54.168 131.653 54.0653 131.186 53.86C130.719 53.6547 130.337 53.3327 130.038 52.894L130.794 52.334C130.962 52.6233 131.209 52.866 131.536 53.062C131.863 53.258 132.222 53.356 132.614 53.356C132.819 53.356 133.015 53.3373 133.202 53.3C133.389 53.2627 133.552 53.1973 133.692 53.104C133.832 53.0107 133.944 52.894 134.028 52.754C134.112 52.6047 134.154 52.4227 134.154 52.208C134.154 51.8627 133.986 51.606 133.65 51.438C133.323 51.2607 132.847 51.0973 132.222 50.948C132.026 50.9013 131.816 50.8453 131.592 50.78C131.377 50.7053 131.177 50.6027 130.99 50.472C130.803 50.332 130.649 50.1593 130.528 49.954C130.407 49.7487 130.346 49.492 130.346 49.184C130.346 48.848 130.411 48.5633 130.542 48.33C130.673 48.0873 130.845 47.8913 131.06 47.742C131.284 47.5833 131.536 47.4667 131.816 47.392C132.096 47.3173 132.385 47.28 132.684 47.28C133.141 47.28 133.585 47.3827 134.014 47.588C134.443 47.7933 134.765 48.0827 134.98 48.456L134.252 49.002ZM141.705 48.946C141.546 48.694 141.313 48.4887 141.005 48.33C140.706 48.162 140.379 48.078 140.025 48.078C139.642 48.078 139.297 48.148 138.989 48.288C138.681 48.4187 138.415 48.6053 138.191 48.848C137.976 49.0813 137.808 49.3613 137.687 49.688C137.575 50.0053 137.519 50.3507 137.519 50.724C137.519 51.0973 137.575 51.4427 137.687 51.76C137.808 52.0773 137.976 52.3573 138.191 52.6C138.405 52.8333 138.667 53.02 138.975 53.16C139.283 53.2907 139.628 53.356 140.011 53.356C140.431 53.356 140.785 53.2767 141.075 53.118C141.364 52.9593 141.602 52.754 141.789 52.502L142.503 53.034C142.223 53.3793 141.877 53.6547 141.467 53.86C141.065 54.0653 140.58 54.168 140.011 54.168C139.479 54.168 138.998 54.084 138.569 53.916C138.139 53.7387 137.771 53.496 137.463 53.188C137.164 52.88 136.931 52.516 136.763 52.096C136.595 51.676 136.511 51.2187 136.511 50.724C136.511 50.2293 136.595 49.772 136.763 49.352C136.931 48.932 137.164 48.568 137.463 48.26C137.771 47.952 138.139 47.714 138.569 47.546C138.998 47.3687 139.479 47.28 140.011 47.28C140.449 47.28 140.893 47.378 141.341 47.574C141.798 47.7607 142.167 48.0407 142.447 48.414L141.705 48.946ZM150.497 50.724C150.497 51.2187 150.408 51.676 150.231 52.096C150.063 52.516 149.825 52.88 149.517 53.188C149.209 53.496 148.84 53.7387 148.411 53.916C147.981 54.084 147.51 54.168 146.997 54.168C146.493 54.168 146.026 54.084 145.597 53.916C145.167 53.7387 144.799 53.496 144.491 53.188C144.183 52.88 143.94 52.516 143.763 52.096C143.595 51.676 143.511 51.2187 143.511 50.724C143.511 50.2293 143.595 49.772 143.763 49.352C143.94 48.932 144.183 48.568 144.491 48.26C144.799 47.952 145.167 47.714 145.597 47.546C146.026 47.3687 146.493 47.28 146.997 47.28C147.51 47.28 147.981 47.3687 148.411 47.546C148.84 47.714 149.209 47.952 149.517 48.26C149.825 48.568 150.063 48.932 150.231 49.352C150.408 49.772 150.497 50.2293 150.497 50.724ZM149.489 50.724C149.489 50.36 149.428 50.0193 149.307 49.702C149.195 49.3753 149.031 49.0953 148.817 48.862C148.602 48.6193 148.341 48.428 148.033 48.288C147.725 48.148 147.379 48.078 146.997 48.078C146.614 48.078 146.269 48.148 145.961 48.288C145.662 48.428 145.405 48.6193 145.191 48.862C144.976 49.0953 144.808 49.3753 144.687 49.702C144.575 50.0193 144.519 50.36 144.519 50.724C144.519 51.088 144.575 51.4333 144.687 51.76C144.808 52.0773 144.976 52.3573 145.191 52.6C145.405 52.8333 145.662 53.02 145.961 53.16C146.269 53.2907 146.614 53.356 146.997 53.356C147.379 53.356 147.725 53.2907 148.033 53.16C148.341 53.02 148.602 52.8333 148.817 52.6C149.031 52.3573 149.195 52.0773 149.307 51.76C149.428 51.4333 149.489 51.088 149.489 50.724ZM155.233 54H154.183L151.509 47.448H152.573L154.701 52.992H154.729L156.871 47.448H157.893L155.233 54ZM164.379 50.22C164.351 49.604 164.15 49.0953 163.777 48.694C163.413 48.2833 162.89 48.078 162.209 48.078C161.892 48.078 161.598 48.1387 161.327 48.26C161.056 48.372 160.818 48.5307 160.613 48.736C160.408 48.932 160.244 49.1607 160.123 49.422C160.002 49.674 159.932 49.94 159.913 50.22H164.379ZM165.345 50.528C165.345 50.5933 165.345 50.6633 165.345 50.738C165.345 50.8127 165.34 50.892 165.331 50.976H159.899C159.908 51.3027 159.974 51.6107 160.095 51.9C160.216 52.1893 160.384 52.4413 160.599 52.656C160.814 52.8707 161.066 53.0433 161.355 53.174C161.644 53.2953 161.957 53.356 162.293 53.356C162.788 53.356 163.212 53.244 163.567 53.02C163.931 52.7867 164.206 52.5207 164.393 52.222L165.107 52.782C164.715 53.2767 164.281 53.6313 163.805 53.846C163.338 54.0607 162.834 54.168 162.293 54.168C161.808 54.168 161.355 54.084 160.935 53.916C160.524 53.7387 160.17 53.496 159.871 53.188C159.572 52.88 159.334 52.516 159.157 52.096C158.989 51.676 158.905 51.2187 158.905 50.724C158.905 50.2293 158.989 49.772 159.157 49.352C159.325 48.932 159.558 48.568 159.857 48.26C160.156 47.952 160.506 47.714 160.907 47.546C161.308 47.3687 161.742 47.28 162.209 47.28C162.722 47.28 163.175 47.3687 163.567 47.546C163.959 47.714 164.286 47.9473 164.547 48.246C164.808 48.5353 165.004 48.876 165.135 49.268C165.275 49.66 165.345 50.08 165.345 50.528ZM167.393 48.89C167.393 48.7127 167.388 48.484 167.379 48.204C167.369 47.924 167.355 47.672 167.337 47.448H168.247C168.265 47.6253 168.279 47.8213 168.289 48.036C168.298 48.2507 168.303 48.428 168.303 48.568H168.331C168.517 48.1853 168.797 47.8773 169.171 47.644C169.544 47.4013 169.964 47.28 170.431 47.28C170.552 47.28 170.659 47.2847 170.753 47.294C170.855 47.3033 170.958 47.322 171.061 47.35L170.935 48.246C170.879 48.2273 170.785 48.2087 170.655 48.19C170.524 48.1713 170.393 48.162 170.263 48.162C170.011 48.162 169.768 48.2087 169.535 48.302C169.301 48.3953 169.096 48.5447 168.919 48.75C168.751 48.946 168.611 49.2027 168.499 49.52C168.396 49.828 168.345 50.2013 168.345 50.64V54H167.393V48.89ZM180.068 49.772C180.068 49.2027 179.918 48.778 179.62 48.498C179.321 48.218 178.887 48.078 178.318 48.078C177.926 48.078 177.562 48.148 177.226 48.288C176.89 48.428 176.605 48.6147 176.372 48.848L175.84 48.218C176.11 47.9473 176.465 47.7233 176.904 47.546C177.352 47.3687 177.856 47.28 178.416 47.28C178.77 47.28 179.102 47.3313 179.41 47.434C179.718 47.5273 179.988 47.672 180.222 47.868C180.455 48.064 180.637 48.3113 180.768 48.61C180.898 48.9087 180.964 49.2587 180.964 49.66V52.53C180.964 52.782 180.973 53.0433 180.992 53.314C181.01 53.5847 181.038 53.8133 181.076 54H180.222C180.194 53.8413 180.17 53.6687 180.152 53.482C180.133 53.2953 180.124 53.1133 180.124 52.936H180.096C179.797 53.3747 179.456 53.692 179.074 53.888C178.7 54.0747 178.248 54.168 177.716 54.168C177.464 54.168 177.202 54.1307 176.932 54.056C176.67 53.9907 176.428 53.8787 176.204 53.72C175.989 53.5613 175.807 53.356 175.658 53.104C175.518 52.852 175.448 52.544 175.448 52.18C175.448 51.676 175.574 51.2793 175.826 50.99C176.087 50.6913 176.432 50.472 176.862 50.332C177.291 50.1827 177.781 50.0893 178.332 50.052C178.892 50.0053 179.47 49.982 180.068 49.982V49.772ZM179.788 50.724C179.396 50.724 178.999 50.7427 178.598 50.78C178.206 50.808 177.846 50.8733 177.52 50.976C177.202 51.0693 176.941 51.2093 176.736 51.396C176.53 51.5827 176.428 51.83 176.428 52.138C176.428 52.3713 176.47 52.5673 176.554 52.726C176.647 52.8847 176.768 53.0153 176.918 53.118C177.067 53.2113 177.23 53.2813 177.408 53.328C177.594 53.3653 177.781 53.384 177.968 53.384C178.304 53.384 178.602 53.328 178.864 53.216C179.125 53.0947 179.344 52.936 179.522 52.74C179.699 52.5347 179.834 52.3013 179.928 52.04C180.021 51.7787 180.068 51.5033 180.068 51.214V50.724H179.788ZM184.27 47.448C184.289 47.6253 184.303 47.8213 184.312 48.036C184.322 48.2507 184.326 48.428 184.326 48.568H184.354C184.541 48.1853 184.844 47.8773 185.264 47.644C185.684 47.4013 186.128 47.28 186.594 47.28C187.425 47.28 188.046 47.5273 188.456 48.022C188.876 48.5167 189.086 49.17 189.086 49.982V54H188.134V50.374C188.134 50.0287 188.106 49.716 188.05 49.436C187.994 49.156 187.896 48.918 187.756 48.722C187.626 48.5167 187.444 48.358 187.21 48.246C186.986 48.134 186.702 48.078 186.356 48.078C186.104 48.078 185.857 48.1293 185.614 48.232C185.381 48.3347 185.171 48.4933 184.984 48.708C184.798 48.9133 184.648 49.1793 184.536 49.506C184.424 49.8233 184.368 50.2013 184.368 50.64V54H183.416V48.89C183.416 48.7127 183.412 48.484 183.402 48.204C183.393 47.924 183.379 47.672 183.36 47.448H184.27ZM196.941 52.894C196.661 53.314 196.297 53.6313 195.849 53.846C195.401 54.0607 194.939 54.168 194.463 54.168C193.95 54.168 193.483 54.0793 193.063 53.902C192.652 53.7247 192.298 53.482 191.999 53.174C191.71 52.866 191.481 52.502 191.313 52.082C191.154 51.662 191.075 51.2093 191.075 50.724C191.075 50.2387 191.154 49.786 191.313 49.366C191.481 48.946 191.71 48.582 191.999 48.274C192.298 47.966 192.652 47.7233 193.063 47.546C193.483 47.3687 193.95 47.28 194.463 47.28C194.939 47.28 195.401 47.392 195.849 47.616C196.297 47.8307 196.661 48.1527 196.941 48.582H196.969V43.416H197.921V54H196.969V52.894H196.941ZM192.083 50.724C192.083 51.088 192.139 51.4333 192.251 51.76C192.363 52.0773 192.522 52.3573 192.727 52.6C192.942 52.8333 193.203 53.02 193.511 53.16C193.819 53.2907 194.169 53.356 194.561 53.356C194.925 53.356 195.261 53.2907 195.569 53.16C195.877 53.02 196.143 52.8333 196.367 52.6C196.591 52.3667 196.764 52.0913 196.885 51.774C197.016 51.4473 197.081 51.0973 197.081 50.724C197.081 50.3507 197.016 50.0053 196.885 49.688C196.764 49.3613 196.591 49.0813 196.367 48.848C196.143 48.6053 195.877 48.4187 195.569 48.288C195.261 48.148 194.925 48.078 194.561 48.078C194.169 48.078 193.819 48.148 193.511 48.288C193.203 48.428 192.942 48.6193 192.727 48.862C192.522 49.0953 192.363 49.3753 192.251 49.702C192.139 50.0193 192.083 50.36 192.083 50.724ZM202.467 56.464C202.56 56.492 202.658 56.5107 202.761 56.52C202.873 56.5387 202.976 56.548 203.069 56.548C203.265 56.548 203.424 56.5107 203.545 56.436C203.666 56.3707 203.76 56.2773 203.825 56.156C203.89 56.0347 203.932 55.8853 203.951 55.708C203.979 55.54 203.993 55.3533 203.993 55.148V47.448H204.945V55.302C204.945 55.5633 204.917 55.8153 204.861 56.058C204.805 56.31 204.707 56.5293 204.567 56.716C204.427 56.912 204.236 57.066 203.993 57.178C203.76 57.2993 203.456 57.36 203.083 57.36C202.98 57.36 202.859 57.3507 202.719 57.332C202.579 57.3227 202.448 57.2993 202.327 57.262L202.467 56.464ZM205.141 44.928C205.141 45.124 205.071 45.2873 204.931 45.418C204.791 45.5393 204.637 45.6 204.469 45.6C204.301 45.6 204.147 45.5393 204.007 45.418C203.867 45.2873 203.797 45.124 203.797 44.928C203.797 44.732 203.867 44.5733 204.007 44.452C204.147 44.3213 204.301 44.256 204.469 44.256C204.637 44.256 204.791 44.3213 204.931 44.452C205.071 44.5733 205.141 44.732 205.141 44.928ZM213.989 50.724C213.989 51.2187 213.9 51.676 213.723 52.096C213.555 52.516 213.317 52.88 213.009 53.188C212.701 53.496 212.332 53.7387 211.903 53.916C211.473 54.084 211.002 54.168 210.489 54.168C209.985 54.168 209.518 54.084 209.089 53.916C208.659 53.7387 208.291 53.496 207.983 53.188C207.675 52.88 207.432 52.516 207.255 52.096C207.087 51.676 207.003 51.2187 207.003 50.724C207.003 50.2293 207.087 49.772 207.255 49.352C207.432 48.932 207.675 48.568 207.983 48.26C208.291 47.952 208.659 47.714 209.089 47.546C209.518 47.3687 209.985 47.28 210.489 47.28C211.002 47.28 211.473 47.3687 211.903 47.546C212.332 47.714 212.701 47.952 213.009 48.26C213.317 48.568 213.555 48.932 213.723 49.352C213.9 49.772 213.989 50.2293 213.989 50.724ZM212.981 50.724C212.981 50.36 212.92 50.0193 212.799 49.702C212.687 49.3753 212.523 49.0953 212.309 48.862C212.094 48.6193 211.833 48.428 211.525 48.288C211.217 48.148 210.871 48.078 210.489 48.078C210.106 48.078 209.761 48.148 209.453 48.288C209.154 48.428 208.897 48.6193 208.683 48.862C208.468 49.0953 208.3 49.3753 208.179 49.702C208.067 50.0193 208.011 50.36 208.011 50.724C208.011 51.088 208.067 51.4333 208.179 51.76C208.3 52.0773 208.468 52.3573 208.683 52.6C208.897 52.8333 209.154 53.02 209.453 53.16C209.761 53.2907 210.106 53.356 210.489 53.356C210.871 53.356 211.217 53.2907 211.525 53.16C211.833 53.02 212.094 52.8333 212.309 52.6C212.523 52.3573 212.687 52.0773 212.799 51.76C212.92 51.4333 212.981 51.088 212.981 50.724ZM217.003 54H216.051V47.448H217.003V54ZM217.199 44.928C217.199 45.124 217.129 45.2873 216.989 45.418C216.849 45.5393 216.695 45.6 216.527 45.6C216.359 45.6 216.205 45.5393 216.065 45.418C215.925 45.2873 215.855 45.124 215.855 44.928C215.855 44.732 215.925 44.5733 216.065 44.452C216.205 44.3213 216.359 44.256 216.527 44.256C216.695 44.256 216.849 44.3213 216.989 44.452C217.129 44.5733 217.199 44.732 217.199 44.928ZM220.391 47.448C220.41 47.6253 220.424 47.8213 220.433 48.036C220.443 48.2507 220.447 48.428 220.447 48.568H220.475C220.662 48.1853 220.965 47.8773 221.385 47.644C221.805 47.4013 222.249 47.28 222.715 47.28C223.546 47.28 224.167 47.5273 224.577 48.022C224.997 48.5167 225.207 49.17 225.207 49.982V54H224.255V50.374C224.255 50.0287 224.227 49.716 224.171 49.436C224.115 49.156 224.017 48.918 223.877 48.722C223.747 48.5167 223.565 48.358 223.331 48.246C223.107 48.134 222.823 48.078 222.477 48.078C222.225 48.078 221.978 48.1293 221.735 48.232C221.502 48.3347 221.292 48.4933 221.105 48.708C220.919 48.9133 220.769 49.1793 220.657 49.506C220.545 49.8233 220.489 50.2013 220.489 50.64V54H219.537V48.89C219.537 48.7127 219.533 48.484 219.523 48.204C219.514 47.924 219.5 47.672 219.481 47.448H220.391Z" fill="#4D4D4D"/>
</svg>
