<svg width="345" height="77" viewBox="0 0 345 77" fill="none" xmlns="http://www.w3.org/2000/svg">
<rect width="345" height="58" fill="#F5F6F8"/>
<rect x="0.5" y="0.5" width="344" height="76" rx="7.5" fill="white"/>
<rect x="0.5" y="0.5" width="344" height="76" rx="7.5" stroke="#969696"/>
<circle cx="18" cy="38.5" r="9" stroke="#35A8F7" stroke-width="2"/>
<path d="M43.344 34H41.76V24.064H38.128V22.672H46.976V24.064H43.344V34ZM52.4261 29.536C52.4155 29.2373 52.3621 28.96 52.2661 28.704C52.1808 28.4373 52.0475 28.208 51.8661 28.016C51.6955 27.824 51.4768 27.6747 51.2101 27.568C50.9541 27.4507 50.6501 27.392 50.2981 27.392C49.9781 27.392 49.6741 27.4507 49.3861 27.568C49.1088 27.6747 48.8635 27.824 48.6501 28.016C48.4475 28.208 48.2768 28.4373 48.1381 28.704C48.0101 28.96 47.9355 29.2373 47.9141 29.536H52.4261ZM53.9461 30.144C53.9461 30.2293 53.9461 30.3147 53.9461 30.4C53.9461 30.4853 53.9408 30.5707 53.9301 30.656H47.9141C47.9248 30.976 47.9941 31.28 48.1221 31.568C48.2608 31.8453 48.4421 32.0907 48.6661 32.304C48.8901 32.5067 49.1461 32.6667 49.4341 32.784C49.7328 32.9013 50.0475 32.96 50.3781 32.96C50.8901 32.96 51.3328 32.848 51.7061 32.624C52.0795 32.4 52.3728 32.128 52.5861 31.808L53.6421 32.656C53.2368 33.1893 52.7568 33.584 52.2021 33.84C51.6581 34.0853 51.0501 34.208 50.3781 34.208C49.8021 34.208 49.2688 34.112 48.7781 33.92C48.2875 33.728 47.8661 33.4613 47.5141 33.12C47.1621 32.768 46.8848 32.3467 46.6821 31.856C46.4795 31.3653 46.3781 30.8213 46.3781 30.224C46.3781 29.6373 46.4741 29.0987 46.6661 28.608C46.8688 28.1067 47.1461 27.68 47.4981 27.328C47.8501 26.976 48.2661 26.704 48.7461 26.512C49.2261 26.3093 49.7435 26.208 50.2981 26.208C50.8528 26.208 51.3541 26.2987 51.8021 26.48C52.2608 26.6613 52.6448 26.9227 52.9541 27.264C53.2741 27.6053 53.5195 28.0213 53.6901 28.512C53.8608 28.992 53.9461 29.536 53.9461 30.144ZM57.7458 30.016L54.9778 26.416H56.8338L58.6898 29.024L60.5618 26.416H62.3218L59.5858 30L62.6418 34H60.7698L58.6578 31.04L56.5138 34H54.7058L57.7458 30.016ZM67.7736 27.648H65.7576V31.6C65.7576 32.0587 65.843 32.3893 66.0136 32.592C66.1843 32.784 66.4563 32.88 66.8296 32.88C66.9683 32.88 67.1176 32.864 67.2776 32.832C67.4376 32.8 67.5816 32.752 67.7096 32.688L67.7576 33.92C67.5763 33.984 67.3736 34.032 67.1496 34.064C66.9363 34.1067 66.7123 34.128 66.4776 34.128C65.763 34.128 65.2136 33.9307 64.8296 33.536C64.4563 33.1413 64.2696 32.5493 64.2696 31.76V27.648H62.8136V26.416H64.2696V24.24H65.7576V26.416H67.7736V27.648Z" fill="#4D4D4D"/>
<path d="M42.214 48.246H40.366V52.068C40.366 52.3107 40.3893 52.5113 40.436 52.67C40.4827 52.8287 40.548 52.9547 40.632 53.048C40.7253 53.132 40.8327 53.1927 40.954 53.23C41.0753 53.258 41.206 53.272 41.346 53.272C41.4767 53.272 41.612 53.2533 41.752 53.216C41.9013 53.1787 42.0413 53.1273 42.172 53.062L42.214 53.888C42.046 53.9533 41.8687 54 41.682 54.028C41.5047 54.0653 41.3087 54.084 41.094 54.084C40.9167 54.084 40.73 54.0607 40.534 54.014C40.338 53.9673 40.156 53.8787 39.988 53.748C39.82 53.6173 39.68 53.44 39.568 53.216C39.4653 52.992 39.414 52.698 39.414 52.334V48.246H38.056V47.448H39.414V45.6H40.366V47.448H42.214V48.246ZM48.7014 50.22C48.6734 49.604 48.4727 49.0953 48.0994 48.694C47.7354 48.2833 47.2127 48.078 46.5314 48.078C46.214 48.078 45.92 48.1387 45.6494 48.26C45.3787 48.372 45.1407 48.5307 44.9354 48.736C44.73 48.932 44.5667 49.1607 44.4454 49.422C44.324 49.674 44.254 49.94 44.2354 50.22H48.7014ZM49.6674 50.528C49.6674 50.5933 49.6674 50.6633 49.6674 50.738C49.6674 50.8127 49.6627 50.892 49.6534 50.976H44.2214C44.2307 51.3027 44.296 51.6107 44.4174 51.9C44.5387 52.1893 44.7067 52.4413 44.9214 52.656C45.136 52.8707 45.388 53.0433 45.6774 53.174C45.9667 53.2953 46.2794 53.356 46.6154 53.356C47.11 53.356 47.5347 53.244 47.8894 53.02C48.2534 52.7867 48.5287 52.5207 48.7154 52.222L49.4294 52.782C49.0374 53.2767 48.6034 53.6313 48.1274 53.846C47.6607 54.0607 47.1567 54.168 46.6154 54.168C46.13 54.168 45.6774 54.084 45.2574 53.916C44.8467 53.7387 44.492 53.496 44.1934 53.188C43.8947 52.88 43.6567 52.516 43.4794 52.096C43.3114 51.676 43.2274 51.2187 43.2274 50.724C43.2274 50.2293 43.3114 49.772 43.4794 49.352C43.6474 48.932 43.8807 48.568 44.1794 48.26C44.478 47.952 44.828 47.714 45.2294 47.546C45.6307 47.3687 46.0647 47.28 46.5314 47.28C47.0447 47.28 47.4974 47.3687 47.8894 47.546C48.2814 47.714 48.608 47.9473 48.8694 48.246C49.1307 48.5353 49.3267 48.876 49.4574 49.268C49.5974 49.66 49.6674 50.08 49.6674 50.528ZM53.173 50.612L50.751 47.448H51.969L53.761 49.94L55.553 47.448H56.701L54.321 50.57L56.925 54H55.693L53.747 51.27L51.745 54H50.597L53.173 50.612ZM61.3683 48.246H59.5203V52.068C59.5203 52.3107 59.5436 52.5113 59.5903 52.67C59.637 52.8287 59.7023 52.9547 59.7863 53.048C59.8796 53.132 59.987 53.1927 60.1083 53.23C60.2296 53.258 60.3603 53.272 60.5003 53.272C60.631 53.272 60.7663 53.2533 60.9063 53.216C61.0556 53.1787 61.1956 53.1273 61.3263 53.062L61.3683 53.888C61.2003 53.9533 61.023 54 60.8363 54.028C60.659 54.0653 60.463 54.084 60.2483 54.084C60.071 54.084 59.8843 54.0607 59.6883 54.014C59.4923 53.9673 59.3103 53.8787 59.1423 53.748C58.9743 53.6173 58.8343 53.44 58.7223 53.216C58.6196 52.992 58.5683 52.698 58.5683 52.334V48.246H57.2103V47.448H58.5683V45.6H59.5203V47.448H61.3683V48.246Z" fill="#4D4D4D"/>
</svg>
