<svg width="163" height="38" viewBox="0 0 163 38" fill="none" xmlns="http://www.w3.org/2000/svg">
<path d="M162.019 22.8425C162.019 23.651 161.972 24.4933 161.877 25.3692H143.497C143.624 27.1211 144.146 28.4687 145.065 29.412C146.014 30.3216 147.17 30.7764 148.531 30.7764C150.558 30.7764 151.967 29.8668 152.758 28.0475H161.402C160.959 29.9005 160.151 31.5681 158.98 33.0505C157.84 34.5328 156.399 35.6951 154.658 36.5374C152.917 37.3796 150.969 37.8007 148.816 37.8007C146.22 37.8007 143.909 37.2112 141.882 36.032C139.856 34.8529 138.273 33.1684 137.133 30.9785C135.993 28.7887 135.423 26.2283 135.423 23.2973C135.423 20.3662 135.978 17.8058 137.086 15.616C138.226 13.4261 139.809 11.7416 141.835 10.5625C143.861 9.38335 146.189 8.79378 148.816 8.79378C151.381 8.79378 153.661 9.36651 155.655 10.512C157.65 11.6574 159.202 13.2914 160.31 15.4138C161.45 17.5363 162.019 20.0125 162.019 22.8425ZM153.708 20.5684C153.708 19.086 153.233 17.9069 152.283 17.0309C151.334 16.155 150.146 15.717 148.721 15.717C147.36 15.717 146.204 16.1382 145.254 16.9804C144.336 17.8227 143.766 19.0187 143.545 20.5684H153.708Z" fill="#35A8F7"/>
<path d="M132.102 0V37.397H123.981V0H132.102Z" fill="#35A8F7"/>
<path d="M100.817 13.19C101.577 11.8761 102.67 10.8148 104.094 10.0062C105.519 9.19764 107.15 8.79335 108.986 8.79335C111.171 8.79335 113.15 9.38294 114.923 10.5621C116.696 11.7413 118.089 13.4259 119.103 15.6158C120.147 17.8057 120.67 20.3494 120.67 23.2468C120.67 26.1442 120.147 28.7047 119.103 30.9283C118.089 33.1183 116.696 34.8196 114.923 36.0325C113.15 37.2117 111.171 37.8013 108.986 37.8013C107.118 37.8013 105.488 37.4139 104.094 36.639C102.701 35.8304 101.609 34.7691 100.817 33.4552V37.397H92.6957V0H100.817V13.19ZM112.406 23.2468C112.406 21.0906 111.836 19.406 110.696 18.1931C109.588 16.9466 108.211 16.3233 106.564 16.3233C104.949 16.3233 103.572 16.9466 102.432 18.1931C101.324 19.4397 100.77 21.1411 100.77 23.2973C100.77 25.4535 101.324 27.1549 102.432 28.4015C103.572 29.6481 104.949 30.2714 106.564 30.2714C108.179 30.2714 109.556 29.6481 110.696 28.4015C111.836 27.1213 112.406 25.403 112.406 23.2468Z" fill="#35A8F7"/>
<path d="M69.5322 13.19C70.2921 11.8761 71.3845 10.8148 72.8093 10.0062C74.2342 9.19764 75.8648 8.79335 77.7013 8.79335C79.886 8.79335 81.8649 9.38294 83.6381 10.5621C85.4112 11.7413 86.8044 13.4259 87.8176 15.6158C88.8625 17.8057 89.3849 20.3494 89.3849 23.2468C89.3849 26.1442 88.8625 28.7047 87.8176 30.9283C86.8044 33.1183 85.4112 34.8196 83.6381 36.0325C81.8649 37.2117 79.886 37.8013 77.7013 37.8013C75.8331 37.8013 74.2025 37.4139 72.8093 36.639C71.4161 35.8304 70.3238 34.7691 69.5322 33.4552V37.397H61.4106V0H69.5322V13.19ZM81.1209 23.2468C81.1209 21.0906 80.5509 19.406 79.4111 18.1931C78.3029 16.9466 76.9255 16.3233 75.279 16.3233C73.6642 16.3233 72.2869 16.9466 71.147 18.1931C70.0388 19.4397 69.4847 21.1411 69.4847 23.2973C69.4847 25.4535 70.0388 27.1549 71.147 28.4015C72.2869 29.6481 73.6642 30.2714 75.279 30.2714C76.8938 30.2714 78.2712 29.6481 79.4111 28.4015C80.5509 27.1213 81.1209 25.403 81.1209 23.2468Z" fill="#35A8F7"/>
<path d="M56.5258 9.1978V37.3962H48.4045V33.5556C47.5813 34.8021 46.4573 35.8128 45.0325 36.5876C43.6394 37.3288 42.088 37.6994 40.3782 37.6994C38.3518 37.6994 36.5629 37.2277 35.0115 36.2844C33.4601 35.3074 32.2569 33.9093 31.4021 32.09C30.5472 30.2708 30.1198 28.1315 30.1198 25.6721V9.1978H38.1935V24.5098C38.1935 26.3965 38.6526 27.862 39.5708 28.9064C40.489 29.9507 41.7238 30.4729 43.2753 30.4729C44.8584 30.4729 46.109 29.9507 47.0272 28.9064C47.9454 27.862 48.4045 26.3965 48.4045 24.5098V9.1978H56.5258Z" fill="#35A8F7"/>
<path d="M20.1845 19.2046C22.1158 19.6426 23.6673 20.6701 24.8388 22.2872C26.0103 23.8706 26.596 25.6899 26.596 27.745C26.596 30.7097 25.6145 33.068 23.6514 34.8198C21.7201 36.538 19.013 37.3971 15.5302 37.3971H0V1.92171H15.0077C18.3956 1.92171 21.0393 2.74711 22.9391 4.39791C24.8704 6.04872 25.8361 8.28909 25.8361 11.119C25.8361 13.2078 25.3137 14.9428 24.2688 16.3241C23.2557 17.7054 21.8942 18.6656 20.1845 19.2046ZM8.12128 16.2736H13.4405C14.7703 16.2736 15.7835 15.9704 16.48 15.364C17.2082 14.7239 17.5724 13.7974 17.5724 12.5845C17.5724 11.3717 17.2082 10.4452 16.48 9.80514C15.7835 9.16503 14.7703 8.84498 13.4405 8.84498H8.12128V16.2736ZM14.1054 30.4233C15.4668 30.4233 16.5117 30.1033 17.2399 29.4632C17.9998 28.7894 18.3797 27.8292 18.3797 26.5827C18.3797 25.3362 17.984 24.3591 17.1924 23.6517C16.4325 22.9442 15.3719 22.5904 14.0104 22.5904H8.12128V30.4233H14.1054Z" fill="#35A8F7"/>
</svg>
