<svg width="307" height="47" viewBox="0 0 307 47" fill="none" xmlns="http://www.w3.org/2000/svg">
<path d="M10.9 4.28C10.5267 3.77334 10.04 3.40667 9.44 3.18C8.84 2.94 8.25333 2.82 7.68 2.82C6.94666 2.82 6.28 2.95334 5.68 3.22C5.08 3.48667 4.56 3.85334 4.12 4.32C3.69333 4.78667 3.36 5.33334 3.12 5.96C2.89333 6.58667 2.78 7.26667 2.78 8C2.78 8.77334 2.89333 9.48 3.12 10.12C3.34666 10.76 3.66666 11.3133 4.08 11.78C4.50666 12.2333 5.01333 12.5867 5.6 12.84C6.18666 13.0933 6.84666 13.22 7.58 13.22C8.34 13.22 9.01333 13.0733 9.6 12.78C10.1867 12.4733 10.66 12.0733 11.02 11.58L13.04 13C12.4133 13.7867 11.6467 14.4 10.74 14.84C9.83333 15.2667 8.77333 15.48 7.56 15.48C6.45333 15.48 5.43333 15.3 4.5 14.94C3.58 14.5667 2.78666 14.0533 2.12 13.4C1.45333 12.7333 0.933328 11.9467 0.559995 11.04C0.186662 10.12 -4.81308e-06 9.10667 -4.81308e-06 8C-4.81308e-06 6.86667 0.193329 5.84667 0.579995 4.94C0.979995 4.02 1.52 3.24 2.2 2.6C2.89333 1.96 3.70666 1.46667 4.64 1.12C5.57333 0.773336 6.58666 0.600003 7.68 0.600003C8.13333 0.600003 8.60666 0.646669 9.1 0.740002C9.59333 0.820002 10.0667 0.953335 10.52 1.14C10.9733 1.31334 11.4 1.53334 11.8 1.8C12.2 2.06667 12.54 2.38667 12.82 2.76L10.9 4.28ZM13.6914 10.28C13.6914 9.52 13.8247 8.83334 14.0914 8.22C14.3714 7.59334 14.7447 7.06 15.2114 6.62C15.6781 6.18 16.2314 5.84 16.8714 5.6C17.5114 5.36 18.1914 5.24 18.9114 5.24C19.6314 5.24 20.3114 5.36 20.9514 5.6C21.5914 5.84 22.1447 6.18 22.6114 6.62C23.0781 7.06 23.4447 7.59334 23.7114 8.22C23.9914 8.83334 24.1314 9.52 24.1314 10.28C24.1314 11.04 23.9914 11.7333 23.7114 12.36C23.4447 12.9867 23.0781 13.5267 22.6114 13.98C22.1447 14.42 21.5914 14.7667 20.9514 15.02C20.3114 15.2733 19.6314 15.4 18.9114 15.4C18.1914 15.4 17.5114 15.2733 16.8714 15.02C16.2314 14.7667 15.6781 14.42 15.2114 13.98C14.7447 13.5267 14.3714 12.9867 14.0914 12.36C13.8247 11.7333 13.6914 11.04 13.6914 10.28ZM16.1314 10.28C16.1314 10.6533 16.1847 11.0267 16.2914 11.4C16.4114 11.7733 16.5847 12.1067 16.8114 12.4C17.0381 12.6933 17.3247 12.9333 17.6714 13.12C18.0181 13.3067 18.4314 13.4 18.9114 13.4C19.3914 13.4 19.8047 13.3067 20.1514 13.12C20.4981 12.9333 20.7847 12.6933 21.0114 12.4C21.2381 12.1067 21.4047 11.7733 21.5114 11.4C21.6314 11.0267 21.6914 10.6533 21.6914 10.28C21.6914 9.90667 21.6314 9.54 21.5114 9.18C21.4047 8.80667 21.2381 8.47334 21.0114 8.18C20.7847 7.88667 20.4981 7.65334 20.1514 7.48C19.8047 7.29334 19.3914 7.2 18.9114 7.2C18.4314 7.2 18.0181 7.29334 17.6714 7.48C17.3247 7.65334 17.0381 7.88667 16.8114 8.18C16.5847 8.47334 16.4114 8.80667 16.2914 9.18C16.1847 9.54 16.1314 9.90667 16.1314 10.28ZM26.4584 5.52H28.7384V7.06H28.7784C28.9918 6.58 29.3584 6.16 29.8784 5.8C30.4118 5.42667 31.0384 5.24 31.7584 5.24C32.3851 5.24 32.9184 5.35334 33.3584 5.58C33.8118 5.79334 34.1784 6.08 34.4584 6.44C34.7518 6.8 34.9651 7.21334 35.0984 7.68C35.2318 8.14667 35.2984 8.62667 35.2984 9.12V15.12H32.8984V9.8C32.8984 9.52 32.8784 9.22667 32.8384 8.92C32.7984 8.61334 32.7118 8.34 32.5784 8.1C32.4451 7.84667 32.2584 7.64 32.0184 7.48C31.7918 7.32 31.4851 7.24 31.0984 7.24C30.7118 7.24 30.3784 7.32 30.0984 7.48C29.8184 7.62667 29.5851 7.82 29.3984 8.06C29.2251 8.3 29.0918 8.58 28.9984 8.9C28.9051 9.20667 28.8584 9.52 28.8584 9.84V15.12H26.4584V5.52ZM38.0991 5.52H40.3791V7.06H40.4191C40.6324 6.58 40.9991 6.16 41.5191 5.8C42.0524 5.42667 42.6791 5.24 43.3991 5.24C44.0257 5.24 44.5591 5.35334 44.9991 5.58C45.4524 5.79334 45.8191 6.08 46.0991 6.44C46.3924 6.8 46.6057 7.21334 46.7391 7.68C46.8724 8.14667 46.9391 8.62667 46.9391 9.12V15.12H44.5391V9.8C44.5391 9.52 44.5191 9.22667 44.4791 8.92C44.4391 8.61334 44.3524 8.34 44.2191 8.1C44.0857 7.84667 43.8991 7.64 43.6591 7.48C43.4324 7.32 43.1257 7.24 42.7391 7.24C42.3524 7.24 42.0191 7.32 41.7391 7.48C41.4591 7.62667 41.2257 7.82 41.0391 8.06C40.8657 8.3 40.7324 8.58 40.6391 8.9C40.5457 9.20667 40.4991 9.52 40.4991 9.84V15.12H38.0991V5.52ZM56.4997 9.36C56.4997 9.05334 56.453 8.76 56.3597 8.48C56.2797 8.2 56.1463 7.95334 55.9597 7.74C55.773 7.52667 55.533 7.36 55.2397 7.24C54.9597 7.10667 54.6263 7.04 54.2397 7.04C53.5197 7.04 52.9063 7.26 52.3997 7.7C51.9063 8.12667 51.633 8.68 51.5797 9.36H56.4997ZM58.8997 10.44C58.8997 10.5467 58.8997 10.6533 58.8997 10.76C58.8997 10.8667 58.893 10.9733 58.8797 11.08H51.5797C51.6063 11.4267 51.693 11.7467 51.8397 12.04C51.9997 12.32 52.2063 12.5667 52.4597 12.78C52.713 12.98 52.9997 13.14 53.3197 13.26C53.6397 13.38 53.973 13.44 54.3197 13.44C54.9197 13.44 55.4263 13.3333 55.8397 13.12C56.253 12.8933 56.593 12.5867 56.8597 12.2L58.4597 13.48C57.513 14.76 56.1397 15.4 54.3397 15.4C53.593 15.4 52.9063 15.2867 52.2797 15.06C51.653 14.82 51.1063 14.4867 50.6397 14.06C50.1863 13.6333 49.8263 13.1133 49.5597 12.5C49.3063 11.8733 49.1797 11.1667 49.1797 10.38C49.1797 9.60667 49.3063 8.90667 49.5597 8.28C49.8263 7.64 50.1863 7.1 50.6397 6.66C51.093 6.20667 51.6263 5.86 52.2397 5.62C52.8663 5.36667 53.5397 5.24 54.2597 5.24C54.9263 5.24 55.5397 5.35334 56.0997 5.58C56.673 5.79334 57.1663 6.12 57.5797 6.56C57.993 6.98667 58.313 7.52667 58.5397 8.18C58.7797 8.82 58.8997 9.57334 58.8997 10.44ZM67.7841 8.18C67.5974 7.91334 67.3174 7.69334 66.9441 7.52C66.5707 7.33334 66.1907 7.24 65.8041 7.24C65.3641 7.24 64.9774 7.33334 64.6441 7.52C64.3107 7.69334 64.0307 7.92667 63.8041 8.22C63.5907 8.51334 63.4307 8.84667 63.3241 9.22C63.2174 9.58 63.1641 9.94667 63.1641 10.32C63.1641 10.6933 63.2174 11.0667 63.3241 11.44C63.4441 11.8 63.6174 12.1267 63.8441 12.42C64.0707 12.7133 64.3507 12.9533 64.6841 13.14C65.0307 13.3133 65.4307 13.4 65.8841 13.4C66.2574 13.4 66.6307 13.3267 67.0041 13.18C67.3774 13.0333 67.6774 12.82 67.9041 12.54L69.4041 14.06C69.0041 14.4867 68.4907 14.82 67.8641 15.06C67.2507 15.2867 66.5841 15.4 65.8641 15.4C65.1574 15.4 64.4841 15.2867 63.8441 15.06C63.2174 14.8333 62.6641 14.5 62.1841 14.06C61.7174 13.62 61.3441 13.0867 61.0641 12.46C60.7974 11.8333 60.6641 11.12 60.6641 10.32C60.6641 9.54667 60.7974 8.84667 61.0641 8.22C61.3441 7.59334 61.7174 7.06 62.1841 6.62C62.6507 6.18 63.1907 5.84 63.8041 5.6C64.4307 5.36 65.0974 5.24 65.8041 5.24C66.5107 5.24 67.1907 5.37334 67.8441 5.64C68.5107 5.90667 69.0374 6.27334 69.4241 6.74L67.7841 8.18ZM69.6097 7.44V5.52H71.2897V2.74H73.6497V5.52H76.0497V7.44H73.6497V11.9C73.6497 12.3267 73.723 12.68 73.8697 12.96C74.0297 13.24 74.3763 13.38 74.9097 13.38C75.0697 13.38 75.243 13.3667 75.4297 13.34C75.6163 13.3 75.783 13.2467 75.9297 13.18L76.0097 15.06C75.7963 15.14 75.543 15.2 75.2497 15.24C74.9563 15.2933 74.6763 15.32 74.4097 15.32C73.7697 15.32 73.2497 15.2333 72.8497 15.06C72.4497 14.8733 72.1297 14.6267 71.8897 14.32C71.663 14 71.503 13.64 71.4097 13.24C71.3297 12.8267 71.2897 12.3867 71.2897 11.92V7.44H69.6097ZM82.8266 1.90735e-06H85.2266V15.12H82.8266V1.90735e-06ZM87.5781 10.28C87.5781 9.52 87.7115 8.83334 87.9781 8.22C88.2581 7.59334 88.6315 7.06 89.0981 6.62C89.5648 6.18 90.1181 5.84 90.7581 5.6C91.3981 5.36 92.0781 5.24 92.7981 5.24C93.5181 5.24 94.1981 5.36 94.8381 5.6C95.4781 5.84 96.0315 6.18 96.4981 6.62C96.9648 7.06 97.3315 7.59334 97.5981 8.22C97.8781 8.83334 98.0181 9.52 98.0181 10.28C98.0181 11.04 97.8781 11.7333 97.5981 12.36C97.3315 12.9867 96.9648 13.5267 96.4981 13.98C96.0315 14.42 95.4781 14.7667 94.8381 15.02C94.1981 15.2733 93.5181 15.4 92.7981 15.4C92.0781 15.4 91.3981 15.2733 90.7581 15.02C90.1181 14.7667 89.5648 14.42 89.0981 13.98C88.6315 13.5267 88.2581 12.9867 87.9781 12.36C87.7115 11.7333 87.5781 11.04 87.5781 10.28ZM90.0181 10.28C90.0181 10.6533 90.0715 11.0267 90.1781 11.4C90.2981 11.7733 90.4715 12.1067 90.6981 12.4C90.9248 12.6933 91.2115 12.9333 91.5581 13.12C91.9048 13.3067 92.3181 13.4 92.7981 13.4C93.2781 13.4 93.6915 13.3067 94.0381 13.12C94.3848 12.9333 94.6715 12.6933 94.8981 12.4C95.1248 12.1067 95.2915 11.7733 95.3981 11.4C95.5181 11.0267 95.5781 10.6533 95.5781 10.28C95.5781 9.90667 95.5181 9.54 95.3981 9.18C95.2915 8.80667 95.1248 8.47334 94.8981 8.18C94.6715 7.88667 94.3848 7.65334 94.0381 7.48C93.6915 7.29334 93.2781 7.2 92.7981 7.2C92.3181 7.2 91.9048 7.29334 91.5581 7.48C91.2115 7.65334 90.9248 7.88667 90.6981 8.18C90.4715 8.47334 90.2981 8.80667 90.1781 9.18C90.0715 9.54 90.0181 9.90667 90.0181 10.28ZM106.905 8.18C106.718 7.91334 106.438 7.69334 106.065 7.52C105.692 7.33334 105.312 7.24 104.925 7.24C104.485 7.24 104.098 7.33334 103.765 7.52C103.432 7.69334 103.152 7.92667 102.925 8.22C102.712 8.51334 102.552 8.84667 102.445 9.22C102.338 9.58 102.285 9.94667 102.285 10.32C102.285 10.6933 102.338 11.0667 102.445 11.44C102.565 11.8 102.738 12.1267 102.965 12.42C103.192 12.7133 103.472 12.9533 103.805 13.14C104.152 13.3133 104.552 13.4 105.005 13.4C105.378 13.4 105.752 13.3267 106.125 13.18C106.498 13.0333 106.798 12.82 107.025 12.54L108.525 14.06C108.125 14.4867 107.612 14.82 106.985 15.06C106.372 15.2867 105.705 15.4 104.985 15.4C104.278 15.4 103.605 15.2867 102.965 15.06C102.338 14.8333 101.785 14.5 101.305 14.06C100.838 13.62 100.465 13.0867 100.185 12.46C99.9185 11.8333 99.7852 11.12 99.7852 10.32C99.7852 9.54667 99.9185 8.84667 100.185 8.22C100.465 7.59334 100.838 7.06 101.305 6.62C101.772 6.18 102.312 5.84 102.925 5.6C103.552 5.36 104.218 5.24 104.925 5.24C105.632 5.24 106.312 5.37334 106.965 5.64C107.632 5.90667 108.158 6.27334 108.545 6.74L106.905 8.18ZM116.071 13.9H116.011C115.771 14.3267 115.384 14.68 114.851 14.96C114.317 15.2267 113.711 15.36 113.031 15.36C112.644 15.36 112.237 15.3067 111.811 15.2C111.397 15.1067 111.011 14.9467 110.651 14.72C110.304 14.48 110.011 14.1733 109.771 13.8C109.544 13.4133 109.431 12.94 109.431 12.38C109.431 11.66 109.631 11.0867 110.031 10.66C110.444 10.2333 110.971 9.90667 111.611 9.68C112.251 9.45334 112.957 9.30667 113.731 9.24C114.517 9.16 115.284 9.12 116.031 9.12V8.88C116.031 8.28 115.811 7.84 115.371 7.56C114.944 7.26667 114.431 7.12 113.831 7.12C113.324 7.12 112.837 7.22667 112.371 7.44C111.904 7.65334 111.517 7.91334 111.211 8.22L109.971 6.76C110.517 6.25334 111.144 5.87334 111.851 5.62C112.571 5.36667 113.297 5.24 114.031 5.24C114.884 5.24 115.584 5.36 116.131 5.6C116.691 5.84 117.131 6.15334 117.451 6.54C117.771 6.92667 117.991 7.36 118.111 7.84C118.244 8.32 118.311 8.8 118.311 9.28V15.12H116.071V13.9ZM116.031 10.74H115.491C115.104 10.74 114.697 10.76 114.271 10.8C113.844 10.8267 113.451 10.9 113.091 11.02C112.731 11.1267 112.431 11.2867 112.191 11.5C111.951 11.7 111.831 11.98 111.831 12.34C111.831 12.5667 111.877 12.76 111.971 12.92C112.077 13.0667 112.211 13.1867 112.371 13.28C112.531 13.3733 112.711 13.44 112.911 13.48C113.111 13.52 113.311 13.54 113.511 13.54C114.337 13.54 114.964 13.32 115.391 12.88C115.817 12.44 116.031 11.84 116.031 11.08V10.74ZM121.147 1.90735e-06H123.547V15.12H121.147V1.90735e-06ZM126.498 1.90735e-06H128.898V15.12H126.498V1.90735e-06ZM130.37 5.52H133.03L135.71 12.5H135.75L138.13 5.52H140.63L136.09 17.18C135.917 17.62 135.73 18.0067 135.53 18.34C135.33 18.6867 135.09 18.9733 134.81 19.2C134.53 19.44 134.197 19.62 133.81 19.74C133.437 19.86 132.983 19.92 132.45 19.92C132.25 19.92 132.043 19.9067 131.83 19.88C131.63 19.8667 131.423 19.8333 131.21 19.78L131.41 17.7C131.57 17.7533 131.723 17.7867 131.87 17.8C132.03 17.8267 132.177 17.84 132.31 17.84C132.563 17.84 132.777 17.8067 132.95 17.74C133.123 17.6867 133.27 17.5933 133.39 17.46C133.51 17.34 133.617 17.1867 133.71 17C133.803 16.8133 133.903 16.5933 134.01 16.34L134.49 15.12L130.37 5.52ZM140.901 13.72C140.901 13.2933 141.055 12.9267 141.361 12.62C141.681 12.3133 142.061 12.16 142.501 12.16C142.928 12.16 143.301 12.3067 143.621 12.6C143.941 12.8933 144.101 13.2533 144.101 13.68C144.101 14.1067 143.941 14.4733 143.621 14.78C143.315 15.0867 142.941 15.24 142.501 15.24C142.288 15.24 142.081 15.2 141.881 15.12C141.695 15.04 141.528 14.9333 141.381 14.8C141.235 14.6667 141.115 14.5067 141.021 14.32C140.941 14.1333 140.901 13.9333 140.901 13.72ZM161.271 4.28C160.898 3.77334 160.411 3.40667 159.811 3.18C159.211 2.94 158.624 2.82 158.051 2.82C157.318 2.82 156.651 2.95334 156.051 3.22C155.451 3.48667 154.931 3.85334 154.491 4.32C154.064 4.78667 153.731 5.33334 153.491 5.96C153.264 6.58667 153.151 7.26667 153.151 8C153.151 8.77334 153.264 9.48 153.491 10.12C153.718 10.76 154.038 11.3133 154.451 11.78C154.878 12.2333 155.384 12.5867 155.971 12.84C156.558 13.0933 157.218 13.22 157.951 13.22C158.711 13.22 159.384 13.0733 159.971 12.78C160.558 12.4733 161.031 12.0733 161.391 11.58L163.411 13C162.784 13.7867 162.018 14.4 161.111 14.84C160.204 15.2667 159.144 15.48 157.931 15.48C156.824 15.48 155.804 15.3 154.871 14.94C153.951 14.5667 153.158 14.0533 152.491 13.4C151.824 12.7333 151.304 11.9467 150.931 11.04C150.558 10.12 150.371 9.10667 150.371 8C150.371 6.86667 150.564 5.84667 150.951 4.94C151.351 4.02 151.891 3.24 152.571 2.6C153.264 1.96 154.078 1.46667 155.011 1.12C155.944 0.773336 156.958 0.600003 158.051 0.600003C158.504 0.600003 158.978 0.646669 159.471 0.740002C159.964 0.820002 160.438 0.953335 160.891 1.14C161.344 1.31334 161.771 1.53334 162.171 1.8C162.571 2.06667 162.911 2.38667 163.191 2.76L161.271 4.28ZM164.857 5.52H167.157V7.12H167.197C167.464 6.56 167.837 6.10667 168.317 5.76C168.797 5.41334 169.357 5.24 169.997 5.24C170.09 5.24 170.19 5.24667 170.297 5.26C170.404 5.26 170.497 5.27334 170.577 5.3V7.5C170.417 7.46 170.277 7.43334 170.157 7.42C170.05 7.40667 169.944 7.4 169.837 7.4C169.29 7.4 168.85 7.5 168.517 7.7C168.184 7.9 167.924 8.14 167.737 8.42C167.55 8.7 167.424 8.98667 167.357 9.28C167.29 9.57334 167.257 9.80667 167.257 9.98V15.12H164.857V5.52ZM178.55 9.36C178.55 9.05334 178.504 8.76 178.41 8.48C178.33 8.2 178.197 7.95334 178.01 7.74C177.824 7.52667 177.584 7.36 177.29 7.24C177.01 7.10667 176.677 7.04 176.29 7.04C175.57 7.04 174.957 7.26 174.45 7.7C173.957 8.12667 173.684 8.68 173.63 9.36H178.55ZM180.95 10.44C180.95 10.5467 180.95 10.6533 180.95 10.76C180.95 10.8667 180.944 10.9733 180.93 11.08H173.63C173.657 11.4267 173.744 11.7467 173.89 12.04C174.05 12.32 174.257 12.5667 174.51 12.78C174.764 12.98 175.05 13.14 175.37 13.26C175.69 13.38 176.024 13.44 176.37 13.44C176.97 13.44 177.477 13.3333 177.89 13.12C178.304 12.8933 178.644 12.5867 178.91 12.2L180.51 13.48C179.564 14.76 178.19 15.4 176.39 15.4C175.644 15.4 174.957 15.2867 174.33 15.06C173.704 14.82 173.157 14.4867 172.69 14.06C172.237 13.6333 171.877 13.1133 171.61 12.5C171.357 11.8733 171.23 11.1667 171.23 10.38C171.23 9.60667 171.357 8.90667 171.61 8.28C171.877 7.64 172.237 7.1 172.69 6.66C173.144 6.20667 173.677 5.86 174.29 5.62C174.917 5.36667 175.59 5.24 176.31 5.24C176.977 5.24 177.59 5.35334 178.15 5.58C178.724 5.79334 179.217 6.12 179.63 6.56C180.044 6.98667 180.364 7.52667 180.59 8.18C180.83 8.82 180.95 9.57334 180.95 10.44ZM189.118 13.9H189.058C188.818 14.3267 188.431 14.68 187.898 14.96C187.364 15.2267 186.758 15.36 186.078 15.36C185.691 15.36 185.284 15.3067 184.858 15.2C184.444 15.1067 184.058 14.9467 183.698 14.72C183.351 14.48 183.058 14.1733 182.818 13.8C182.591 13.4133 182.478 12.94 182.478 12.38C182.478 11.66 182.678 11.0867 183.078 10.66C183.491 10.2333 184.018 9.90667 184.658 9.68C185.298 9.45334 186.004 9.30667 186.778 9.24C187.564 9.16 188.331 9.12 189.078 9.12V8.88C189.078 8.28 188.858 7.84 188.418 7.56C187.991 7.26667 187.478 7.12 186.878 7.12C186.371 7.12 185.884 7.22667 185.418 7.44C184.951 7.65334 184.564 7.91334 184.258 8.22L183.018 6.76C183.564 6.25334 184.191 5.87334 184.898 5.62C185.618 5.36667 186.344 5.24 187.078 5.24C187.931 5.24 188.631 5.36 189.178 5.6C189.738 5.84 190.178 6.15334 190.498 6.54C190.818 6.92667 191.038 7.36 191.158 7.84C191.291 8.32 191.358 8.8 191.358 9.28V15.12H189.118V13.9ZM189.078 10.74H188.538C188.151 10.74 187.744 10.76 187.318 10.8C186.891 10.8267 186.498 10.9 186.138 11.02C185.778 11.1267 185.478 11.2867 185.238 11.5C184.998 11.7 184.878 11.98 184.878 12.34C184.878 12.5667 184.924 12.76 185.018 12.92C185.124 13.0667 185.258 13.1867 185.418 13.28C185.578 13.3733 185.758 13.44 185.958 13.48C186.158 13.52 186.358 13.54 186.558 13.54C187.384 13.54 188.011 13.32 188.438 12.88C188.864 12.44 189.078 11.84 189.078 11.08V10.74ZM192.578 7.44V5.52H194.258V2.74H196.618V5.52H199.018V7.44H196.618V11.9C196.618 12.3267 196.692 12.68 196.838 12.96C196.998 13.24 197.345 13.38 197.878 13.38C198.038 13.38 198.212 13.3667 198.398 13.34C198.585 13.3 198.752 13.2467 198.898 13.18L198.978 15.06C198.765 15.14 198.512 15.2 198.218 15.24C197.925 15.2933 197.645 15.32 197.378 15.32C196.738 15.32 196.218 15.2333 195.818 15.06C195.418 14.8733 195.098 14.6267 194.858 14.32C194.632 14 194.472 13.64 194.378 13.24C194.298 12.8267 194.258 12.3867 194.258 11.92V7.44H192.578ZM207.515 9.36C207.515 9.05334 207.469 8.76 207.375 8.48C207.295 8.2 207.162 7.95334 206.975 7.74C206.789 7.52667 206.549 7.36 206.255 7.24C205.975 7.10667 205.642 7.04 205.255 7.04C204.535 7.04 203.922 7.26 203.415 7.7C202.922 8.12667 202.649 8.68 202.595 9.36H207.515ZM209.915 10.44C209.915 10.5467 209.915 10.6533 209.915 10.76C209.915 10.8667 209.909 10.9733 209.895 11.08H202.595C202.622 11.4267 202.709 11.7467 202.855 12.04C203.015 12.32 203.222 12.5667 203.475 12.78C203.729 12.98 204.015 13.14 204.335 13.26C204.655 13.38 204.989 13.44 205.335 13.44C205.935 13.44 206.442 13.3333 206.855 13.12C207.269 12.8933 207.609 12.5867 207.875 12.2L209.475 13.48C208.529 14.76 207.155 15.4 205.355 15.4C204.609 15.4 203.922 15.2867 203.295 15.06C202.669 14.82 202.122 14.4867 201.655 14.06C201.202 13.6333 200.842 13.1133 200.575 12.5C200.322 11.8733 200.195 11.1667 200.195 10.38C200.195 9.60667 200.322 8.90667 200.575 8.28C200.842 7.64 201.202 7.1 201.655 6.66C202.109 6.20667 202.642 5.86 203.255 5.62C203.882 5.36667 204.555 5.24 205.275 5.24C205.942 5.24 206.555 5.35334 207.115 5.58C207.689 5.79334 208.182 6.12 208.595 6.56C209.009 6.98667 209.329 7.52667 209.555 8.18C209.795 8.82 209.915 9.57334 209.915 10.44ZM228.7 5.24C229.326 5.24 229.86 5.35334 230.3 5.58C230.753 5.79334 231.12 6.08 231.4 6.44C231.693 6.8 231.906 7.21334 232.04 7.68C232.173 8.14667 232.24 8.62667 232.24 9.12V15.12H229.84V9.8C229.84 9.52 229.82 9.22667 229.78 8.92C229.74 8.61334 229.653 8.34 229.52 8.1C229.386 7.84667 229.2 7.64 228.96 7.48C228.733 7.32 228.426 7.24 228.04 7.24C227.666 7.24 227.346 7.32 227.08 7.48C226.813 7.64 226.593 7.84667 226.42 8.1C226.246 8.35334 226.12 8.64 226.04 8.96C225.96 9.26667 225.92 9.57334 225.92 9.88V15.12H223.52V9.32C223.52 8.72 223.373 8.22667 223.08 7.84C222.8 7.44 222.353 7.24 221.74 7.24C221.38 7.24 221.066 7.32 220.8 7.48C220.533 7.62667 220.313 7.82 220.14 8.06C219.98 8.3 219.853 8.58 219.76 8.9C219.68 9.20667 219.64 9.52 219.64 9.84V15.12H217.24V5.52H219.52V7.06H219.56C219.666 6.82 219.806 6.59334 219.98 6.38C220.166 6.16667 220.38 5.97334 220.62 5.8C220.873 5.62667 221.16 5.49334 221.48 5.4C221.8 5.29334 222.153 5.24 222.54 5.24C223.286 5.24 223.906 5.40667 224.4 5.74C224.893 6.07334 225.273 6.51334 225.54 7.06C225.86 6.47334 226.286 6.02667 226.82 5.72C227.353 5.4 227.98 5.24 228.7 5.24ZM234.473 10.28C234.473 9.52 234.606 8.83334 234.873 8.22C235.153 7.59334 235.526 7.06 235.993 6.62C236.459 6.18 237.013 5.84 237.653 5.6C238.293 5.36 238.973 5.24 239.693 5.24C240.413 5.24 241.093 5.36 241.733 5.6C242.373 5.84 242.926 6.18 243.393 6.62C243.859 7.06 244.226 7.59334 244.493 8.22C244.773 8.83334 244.913 9.52 244.913 10.28C244.913 11.04 244.773 11.7333 244.493 12.36C244.226 12.9867 243.859 13.5267 243.393 13.98C242.926 14.42 242.373 14.7667 241.733 15.02C241.093 15.2733 240.413 15.4 239.693 15.4C238.973 15.4 238.293 15.2733 237.653 15.02C237.013 14.7667 236.459 14.42 235.993 13.98C235.526 13.5267 235.153 12.9867 234.873 12.36C234.606 11.7333 234.473 11.04 234.473 10.28ZM236.913 10.28C236.913 10.6533 236.966 11.0267 237.073 11.4C237.193 11.7733 237.366 12.1067 237.593 12.4C237.819 12.6933 238.106 12.9333 238.453 13.12C238.799 13.3067 239.213 13.4 239.693 13.4C240.173 13.4 240.586 13.3067 240.933 13.12C241.279 12.9333 241.566 12.6933 241.793 12.4C242.019 12.1067 242.186 11.7733 242.293 11.4C242.413 11.0267 242.473 10.6533 242.473 10.28C242.473 9.90667 242.413 9.54 242.293 9.18C242.186 8.80667 242.019 8.47334 241.793 8.18C241.566 7.88667 241.279 7.65334 240.933 7.48C240.586 7.29334 240.173 7.2 239.693 7.2C239.213 7.2 238.799 7.29334 238.453 7.48C238.106 7.65334 237.819 7.88667 237.593 8.18C237.366 8.47334 237.193 8.80667 237.073 9.18C236.966 9.54 236.913 9.90667 236.913 10.28ZM258.7 5.24C259.326 5.24 259.86 5.35334 260.3 5.58C260.753 5.79334 261.12 6.08 261.4 6.44C261.693 6.8 261.906 7.21334 262.04 7.68C262.173 8.14667 262.24 8.62667 262.24 9.12V15.12H259.84V9.8C259.84 9.52 259.82 9.22667 259.78 8.92C259.74 8.61334 259.653 8.34 259.52 8.1C259.386 7.84667 259.2 7.64 258.96 7.48C258.733 7.32 258.426 7.24 258.04 7.24C257.666 7.24 257.346 7.32 257.08 7.48C256.813 7.64 256.593 7.84667 256.42 8.1C256.246 8.35334 256.12 8.64 256.04 8.96C255.96 9.26667 255.92 9.57334 255.92 9.88V15.12H253.52V9.32C253.52 8.72 253.373 8.22667 253.08 7.84C252.8 7.44 252.353 7.24 251.74 7.24C251.38 7.24 251.066 7.32 250.8 7.48C250.533 7.62667 250.313 7.82 250.14 8.06C249.98 8.3 249.853 8.58 249.76 8.9C249.68 9.20667 249.64 9.52 249.64 9.84V15.12H247.24V5.52H249.52V7.06H249.56C249.666 6.82 249.806 6.59334 249.98 6.38C250.166 6.16667 250.38 5.97334 250.62 5.8C250.873 5.62667 251.16 5.49334 251.48 5.4C251.8 5.29334 252.153 5.24 252.54 5.24C253.286 5.24 253.906 5.40667 254.4 5.74C254.893 6.07334 255.273 6.51334 255.54 7.06C255.86 6.47334 256.286 6.02667 256.82 5.72C257.353 5.4 257.98 5.24 258.7 5.24ZM271.793 9.36C271.793 9.05334 271.746 8.76 271.653 8.48C271.573 8.2 271.439 7.95334 271.253 7.74C271.066 7.52667 270.826 7.36 270.533 7.24C270.253 7.10667 269.919 7.04 269.533 7.04C268.813 7.04 268.199 7.26 267.693 7.7C267.199 8.12667 266.926 8.68 266.873 9.36H271.793ZM274.193 10.44C274.193 10.5467 274.193 10.6533 274.193 10.76C274.193 10.8667 274.186 10.9733 274.173 11.08H266.873C266.899 11.4267 266.986 11.7467 267.133 12.04C267.293 12.32 267.499 12.5667 267.753 12.78C268.006 12.98 268.293 13.14 268.613 13.26C268.933 13.38 269.266 13.44 269.613 13.44C270.213 13.44 270.719 13.3333 271.133 13.12C271.546 12.8933 271.886 12.5867 272.153 12.2L273.753 13.48C272.806 14.76 271.433 15.4 269.633 15.4C268.886 15.4 268.199 15.2867 267.573 15.06C266.946 14.82 266.399 14.4867 265.933 14.06C265.479 13.6333 265.119 13.1133 264.853 12.5C264.599 11.8733 264.473 11.1667 264.473 10.38C264.473 9.60667 264.599 8.90667 264.853 8.28C265.119 7.64 265.479 7.1 265.933 6.66C266.386 6.20667 266.919 5.86 267.533 5.62C268.159 5.36667 268.833 5.24 269.553 5.24C270.219 5.24 270.833 5.35334 271.393 5.58C271.966 5.79334 272.459 6.12 272.873 6.56C273.286 6.98667 273.606 7.52667 273.833 8.18C274.073 8.82 274.193 9.57334 274.193 10.44ZM276.517 5.52H278.797V7.06H278.837C279.05 6.58 279.417 6.16 279.937 5.8C280.47 5.42667 281.097 5.24 281.817 5.24C282.444 5.24 282.977 5.35334 283.417 5.58C283.87 5.79334 284.237 6.08 284.517 6.44C284.81 6.8 285.024 7.21334 285.157 7.68C285.29 8.14667 285.357 8.62667 285.357 9.12V15.12H282.957V9.8C282.957 9.52 282.937 9.22667 282.897 8.92C282.857 8.61334 282.77 8.34 282.637 8.1C282.504 7.84667 282.317 7.64 282.077 7.48C281.85 7.32 281.544 7.24 281.157 7.24C280.77 7.24 280.437 7.32 280.157 7.48C279.877 7.62667 279.644 7.82 279.457 8.06C279.284 8.3 279.15 8.58 279.057 8.9C278.964 9.20667 278.917 9.52 278.917 9.84V15.12H276.517V5.52ZM286.778 7.44V5.52H288.458V2.74H290.818V5.52H293.218V7.44H290.818V11.9C290.818 12.3267 290.891 12.68 291.038 12.96C291.198 13.24 291.544 13.38 292.078 13.38C292.238 13.38 292.411 13.3667 292.598 13.34C292.784 13.3 292.951 13.2467 293.098 13.18L293.178 15.06C292.964 15.14 292.711 15.2 292.418 15.24C292.124 15.2933 291.844 15.32 291.578 15.32C290.938 15.32 290.418 15.2333 290.018 15.06C289.618 14.8733 289.298 14.6267 289.058 14.32C288.831 14 288.671 13.64 288.578 13.24C288.498 12.8267 288.458 12.3867 288.458 11.92V7.44H286.778ZM300.215 8.08C300.001 7.8 299.708 7.56 299.335 7.36C298.961 7.14667 298.555 7.04 298.115 7.04C297.728 7.04 297.375 7.12 297.055 7.28C296.735 7.44 296.575 7.70667 296.575 8.08C296.575 8.45334 296.748 8.72 297.095 8.88C297.455 9.02667 297.975 9.18 298.655 9.34C299.015 9.42 299.375 9.52667 299.735 9.66C300.108 9.79334 300.441 9.97334 300.735 10.2C301.041 10.4133 301.288 10.6867 301.475 11.02C301.661 11.34 301.755 11.7333 301.755 12.2C301.755 12.7867 301.641 13.2867 301.415 13.7C301.201 14.1 300.908 14.4267 300.535 14.68C300.175 14.9333 299.748 15.1133 299.255 15.22C298.775 15.34 298.275 15.4 297.755 15.4C297.008 15.4 296.281 15.2667 295.575 15C294.868 14.72 294.281 14.3267 293.815 13.82L295.395 12.34C295.661 12.6867 296.008 12.9733 296.435 13.2C296.861 13.4267 297.335 13.54 297.855 13.54C298.028 13.54 298.201 13.52 298.375 13.48C298.561 13.44 298.728 13.38 298.875 13.3C299.035 13.2067 299.161 13.0867 299.255 12.94C299.348 12.7933 299.395 12.6133 299.395 12.4C299.395 12 299.208 11.7133 298.835 11.54C298.475 11.3667 297.928 11.1933 297.195 11.02C296.835 10.94 296.481 10.84 296.135 10.72C295.801 10.5867 295.501 10.42 295.235 10.22C294.968 10.0067 294.755 9.74667 294.595 9.44C294.435 9.13334 294.355 8.75334 294.355 8.3C294.355 7.76667 294.461 7.30667 294.675 6.92C294.901 6.53334 295.195 6.22 295.555 5.98C295.915 5.72667 296.321 5.54 296.775 5.42C297.228 5.3 297.695 5.24 298.175 5.24C298.868 5.24 299.541 5.36 300.195 5.6C300.861 5.84 301.388 6.20667 301.775 6.7L300.215 8.08ZM303.401 13.72C303.401 13.2933 303.555 12.9267 303.861 12.62C304.181 12.3133 304.561 12.16 305.001 12.16C305.428 12.16 305.801 12.3067 306.121 12.6C306.441 12.8933 306.601 13.2533 306.601 13.68C306.601 14.1067 306.441 14.4733 306.121 14.78C305.815 15.0867 305.441 15.24 305.001 15.24C304.788 15.24 304.581 15.2 304.381 15.12C304.195 15.04 304.028 14.9333 303.881 14.8C303.735 14.6667 303.615 14.5067 303.521 14.32C303.441 14.1333 303.401 13.9333 303.401 13.72ZM35.7484 27.96H41.2684C41.8017 27.96 42.3284 28.0267 42.8484 28.16C43.3684 28.28 43.8284 28.4867 44.2284 28.78C44.6417 29.06 44.975 29.4267 45.2284 29.88C45.4817 30.3333 45.6084 30.88 45.6084 31.52C45.6084 32.32 45.3817 32.98 44.9284 33.5C44.475 34.02 43.8817 34.3933 43.1484 34.62V34.66C44.0417 34.78 44.775 35.1267 45.3484 35.7C45.9217 36.2733 46.2084 37.04 46.2084 38C46.2084 38.7733 46.055 39.4267 45.7484 39.96C45.4417 40.48 45.035 40.9 44.5284 41.22C44.035 41.54 43.4617 41.7733 42.8084 41.92C42.1684 42.0533 41.515 42.12 40.8484 42.12H35.7484V27.96ZM38.2684 33.72H40.5084C41.3484 33.72 41.9884 33.5533 42.4284 33.22C42.8684 32.8867 43.0884 32.4133 43.0884 31.8C43.0884 31.16 42.8617 30.7067 42.4084 30.44C41.955 30.1733 41.2484 30.04 40.2884 30.04H38.2684V33.72ZM38.2684 40H40.5284C40.8484 40 41.195 39.98 41.5684 39.94C41.9417 39.8867 42.2817 39.7867 42.5884 39.64C42.9084 39.4933 43.1684 39.28 43.3684 39C43.5817 38.72 43.6884 38.3467 43.6884 37.88C43.6884 37.1333 43.435 36.6133 42.9284 36.32C42.4217 36.0267 41.655 35.88 40.6284 35.88H38.2684V40ZM57.3376 42.12H55.0576V40.58H55.0176C54.8042 41.06 54.4309 41.4867 53.8976 41.86C53.3776 42.22 52.7576 42.4 52.0376 42.4C51.4109 42.4 50.8709 42.2933 50.4176 42.08C49.9776 41.8533 49.6109 41.56 49.3176 41.2C49.0376 40.84 48.8309 40.4267 48.6976 39.96C48.5642 39.4933 48.4976 39.0133 48.4976 38.52V32.52H50.8976V37.84C50.8976 38.12 50.9176 38.4133 50.9576 38.72C50.9976 39.0267 51.0842 39.3067 51.2176 39.56C51.3509 39.8 51.5309 40 51.7576 40.16C51.9976 40.32 52.3109 40.4 52.6976 40.4C53.0709 40.4 53.3976 40.3267 53.6776 40.18C53.9709 40.02 54.2042 39.82 54.3776 39.58C54.5642 39.34 54.7042 39.0667 54.7976 38.76C54.8909 38.44 54.9376 38.12 54.9376 37.8V32.52H57.3376V42.12ZM60.2582 32.52H62.6582V42.12H60.2582V32.52ZM59.9182 29.26C59.9182 28.8733 60.0582 28.54 60.3382 28.26C60.6315 27.9667 60.9982 27.82 61.4382 27.82C61.8782 27.82 62.2449 27.96 62.5382 28.24C62.8449 28.5067 62.9982 28.8467 62.9982 29.26C62.9982 29.6733 62.8449 30.02 62.5382 30.3C62.2449 30.5667 61.8782 30.7 61.4382 30.7C60.9982 30.7 60.6315 30.56 60.3382 30.28C60.0582 29.9867 59.9182 29.6467 59.9182 29.26ZM65.6098 27H68.0098V42.12H65.6098V27ZM80.6813 42.12H78.4013V40.68H78.3613C78.028 41.24 77.5613 41.6667 76.9613 41.96C76.3747 42.2533 75.7413 42.4 75.0613 42.4C74.328 42.4 73.668 42.2667 73.0813 42C72.508 41.72 72.0147 41.3533 71.6013 40.9C71.2013 40.4333 70.888 39.8933 70.6613 39.28C70.448 38.6533 70.3413 37.9867 70.3413 37.28C70.3413 36.5733 70.4547 35.9133 70.6813 35.3C70.908 34.6867 71.228 34.1533 71.6413 33.7C72.0547 33.2467 72.548 32.8933 73.1213 32.64C73.6947 32.3733 74.3213 32.24 75.0013 32.24C75.4413 32.24 75.8347 32.2933 76.1813 32.4C76.528 32.4933 76.828 32.6133 77.0813 32.76C77.348 32.9067 77.5747 33.0667 77.7613 33.24C77.948 33.4133 78.1013 33.58 78.2213 33.74H78.2813V27H80.6813V42.12ZM72.7813 37.28C72.7813 37.6533 72.8347 38.0267 72.9413 38.4C73.0613 38.7733 73.2347 39.1067 73.4613 39.4C73.688 39.6933 73.9747 39.9333 74.3213 40.12C74.668 40.3067 75.0747 40.4 75.5413 40.4C75.9813 40.4 76.3747 40.3133 76.7213 40.14C77.068 39.9533 77.3613 39.7133 77.6013 39.42C77.8547 39.1267 78.0413 38.8 78.1613 38.44C78.2947 38.0667 78.3613 37.6933 78.3613 37.32C78.3613 36.9467 78.2947 36.5733 78.1613 36.2C78.0413 35.8267 77.8547 35.4933 77.6013 35.2C77.3613 34.9067 77.068 34.6667 76.7213 34.48C76.3747 34.2933 75.9813 34.2 75.5413 34.2C75.0747 34.2 74.668 34.2933 74.3213 34.48C73.9747 34.6533 73.688 34.8867 73.4613 35.18C73.2347 35.4733 73.0613 35.8067 72.9413 36.18C72.8347 36.54 72.7813 36.9067 72.7813 37.28ZM94.5571 40.9H94.4971C94.2571 41.3267 93.8704 41.68 93.3371 41.96C92.8038 42.2267 92.1971 42.36 91.5171 42.36C91.1304 42.36 90.7238 42.3067 90.2971 42.2C89.8838 42.1067 89.4971 41.9467 89.1371 41.72C88.7904 41.48 88.4971 41.1733 88.2571 40.8C88.0304 40.4133 87.9171 39.94 87.9171 39.38C87.9171 38.66 88.1171 38.0867 88.5171 37.66C88.9304 37.2333 89.4571 36.9067 90.0971 36.68C90.7371 36.4533 91.4438 36.3067 92.2171 36.24C93.0038 36.16 93.7704 36.12 94.5171 36.12V35.88C94.5171 35.28 94.2971 34.84 93.8571 34.56C93.4304 34.2667 92.9171 34.12 92.3171 34.12C91.8104 34.12 91.3238 34.2267 90.8571 34.44C90.3904 34.6533 90.0038 34.9133 89.6971 35.22L88.4571 33.76C89.0038 33.2533 89.6304 32.8733 90.3371 32.62C91.0571 32.3667 91.7838 32.24 92.5171 32.24C93.3704 32.24 94.0704 32.36 94.6171 32.6C95.1771 32.84 95.6171 33.1533 95.9371 33.54C96.2571 33.9267 96.4771 34.36 96.5971 34.84C96.7304 35.32 96.7971 35.8 96.7971 36.28V42.12H94.5571V40.9ZM94.5171 37.74H93.9771C93.5904 37.74 93.1838 37.76 92.7571 37.8C92.3304 37.8267 91.9371 37.9 91.5771 38.02C91.2171 38.1267 90.9171 38.2867 90.6771 38.5C90.4371 38.7 90.3171 38.98 90.3171 39.34C90.3171 39.5667 90.3638 39.76 90.4571 39.92C90.5638 40.0667 90.6971 40.1867 90.8571 40.28C91.0171 40.3733 91.1971 40.44 91.3971 40.48C91.5971 40.52 91.7971 40.54 91.9971 40.54C92.8238 40.54 93.4504 40.32 93.8771 39.88C94.3038 39.44 94.5171 38.84 94.5171 38.08V37.74ZM104.633 27H107.033V42.12H104.633V27ZM115.905 40.9H115.845C115.605 41.3267 115.218 41.68 114.685 41.96C114.151 42.2267 113.545 42.36 112.865 42.36C112.478 42.36 112.071 42.3067 111.645 42.2C111.231 42.1067 110.845 41.9467 110.485 41.72C110.138 41.48 109.845 41.1733 109.605 40.8C109.378 40.4133 109.265 39.94 109.265 39.38C109.265 38.66 109.465 38.0867 109.865 37.66C110.278 37.2333 110.805 36.9067 111.445 36.68C112.085 36.4533 112.791 36.3067 113.565 36.24C114.351 36.16 115.118 36.12 115.865 36.12V35.88C115.865 35.28 115.645 34.84 115.205 34.56C114.778 34.2667 114.265 34.12 113.665 34.12C113.158 34.12 112.671 34.2267 112.205 34.44C111.738 34.6533 111.351 34.9133 111.045 35.22L109.805 33.76C110.351 33.2533 110.978 32.8733 111.685 32.62C112.405 32.3667 113.131 32.24 113.865 32.24C114.718 32.24 115.418 32.36 115.965 32.6C116.525 32.84 116.965 33.1533 117.285 33.54C117.605 33.9267 117.825 34.36 117.945 34.84C118.078 35.32 118.145 35.8 118.145 36.28V42.12H115.905V40.9ZM115.865 37.74H115.325C114.938 37.74 114.531 37.76 114.105 37.8C113.678 37.8267 113.285 37.9 112.925 38.02C112.565 38.1267 112.265 38.2867 112.025 38.5C111.785 38.7 111.665 38.98 111.665 39.34C111.665 39.5667 111.711 39.76 111.805 39.92C111.911 40.0667 112.045 40.1867 112.205 40.28C112.365 40.3733 112.545 40.44 112.745 40.48C112.945 40.52 113.145 40.54 113.345 40.54C114.171 40.54 114.798 40.32 115.225 39.88C115.651 39.44 115.865 38.84 115.865 38.08V37.74ZM126.201 35.08C125.988 34.8 125.694 34.56 125.321 34.36C124.948 34.1467 124.541 34.04 124.101 34.04C123.714 34.04 123.361 34.12 123.041 34.28C122.721 34.44 122.561 34.7067 122.561 35.08C122.561 35.4533 122.734 35.72 123.081 35.88C123.441 36.0267 123.961 36.18 124.641 36.34C125.001 36.42 125.361 36.5267 125.721 36.66C126.094 36.7933 126.428 36.9733 126.721 37.2C127.028 37.4133 127.274 37.6867 127.461 38.02C127.648 38.34 127.741 38.7333 127.741 39.2C127.741 39.7867 127.628 40.2867 127.401 40.7C127.188 41.1 126.894 41.4267 126.521 41.68C126.161 41.9333 125.734 42.1133 125.241 42.22C124.761 42.34 124.261 42.4 123.741 42.4C122.994 42.4 122.268 42.2667 121.561 42C120.854 41.72 120.268 41.3267 119.801 40.82L121.381 39.34C121.648 39.6867 121.994 39.9733 122.421 40.2C122.848 40.4267 123.321 40.54 123.841 40.54C124.014 40.54 124.188 40.52 124.361 40.48C124.548 40.44 124.714 40.38 124.861 40.3C125.021 40.2067 125.148 40.0867 125.241 39.94C125.334 39.7933 125.381 39.6133 125.381 39.4C125.381 39 125.194 38.7133 124.821 38.54C124.461 38.3667 123.914 38.1933 123.181 38.02C122.821 37.94 122.468 37.84 122.121 37.72C121.788 37.5867 121.488 37.42 121.221 37.22C120.954 37.0067 120.741 36.7467 120.581 36.44C120.421 36.1333 120.341 35.7533 120.341 35.3C120.341 34.7667 120.448 34.3067 120.661 33.92C120.888 33.5333 121.181 33.22 121.541 32.98C121.901 32.7267 122.308 32.54 122.761 32.42C123.214 32.3 123.681 32.24 124.161 32.24C124.854 32.24 125.528 32.36 126.181 32.6C126.848 32.84 127.374 33.2067 127.761 33.7L126.201 35.08ZM128.448 34.44V32.52H130.128V29.74H132.488V32.52H134.888V34.44H132.488V38.9C132.488 39.3267 132.561 39.68 132.708 39.96C132.868 40.24 133.214 40.38 133.748 40.38C133.908 40.38 134.081 40.3667 134.268 40.34C134.454 40.3 134.621 40.2467 134.768 40.18L134.848 42.06C134.634 42.14 134.381 42.2 134.088 42.24C133.794 42.2933 133.514 42.32 133.248 42.32C132.608 42.32 132.088 42.2333 131.688 42.06C131.288 41.8733 130.968 41.6267 130.728 41.32C130.501 41 130.341 40.64 130.248 40.24C130.168 39.8267 130.128 39.3867 130.128 38.92V34.44H128.448ZM136.664 32.52H139.064V42.12H136.664V32.52ZM136.324 29.26C136.324 28.8733 136.464 28.54 136.744 28.26C137.038 27.9667 137.404 27.82 137.844 27.82C138.284 27.82 138.651 27.96 138.944 28.24C139.251 28.5067 139.404 28.8467 139.404 29.26C139.404 29.6733 139.251 30.02 138.944 30.3C138.651 30.5667 138.284 30.7 137.844 30.7C137.404 30.7 137.038 30.56 136.744 30.28C136.464 29.9867 136.324 29.6467 136.324 29.26ZM141.976 32.52H144.256V34.06H144.296C144.509 33.58 144.876 33.16 145.396 32.8C145.929 32.4267 146.556 32.24 147.276 32.24C147.903 32.24 148.436 32.3533 148.876 32.58C149.329 32.7933 149.696 33.08 149.976 33.44C150.269 33.8 150.483 34.2133 150.616 34.68C150.749 35.1467 150.816 35.6267 150.816 36.12V42.12H148.416V36.8C148.416 36.52 148.396 36.2267 148.356 35.92C148.316 35.6133 148.229 35.34 148.096 35.1C147.963 34.8467 147.776 34.64 147.536 34.48C147.309 34.32 147.003 34.24 146.616 34.24C146.229 34.24 145.896 34.32 145.616 34.48C145.336 34.6267 145.103 34.82 144.916 35.06C144.743 35.3 144.609 35.58 144.516 35.9C144.423 36.2067 144.376 36.52 144.376 36.84V42.12H141.976V32.52ZM163.377 32.52V41.26C163.377 42.1267 163.27 42.9067 163.057 43.6C162.843 44.3067 162.51 44.9 162.057 45.38C161.617 45.8733 161.057 46.2533 160.377 46.52C159.697 46.7867 158.89 46.92 157.957 46.92C157.57 46.92 157.157 46.8867 156.717 46.82C156.29 46.7533 155.863 46.6533 155.437 46.52C155.023 46.3867 154.623 46.22 154.237 46.02C153.85 45.82 153.503 45.5933 153.197 45.34L154.577 43.48C155.043 43.92 155.57 44.2533 156.157 44.48C156.743 44.72 157.337 44.84 157.937 44.84C158.51 44.84 158.99 44.7533 159.377 44.58C159.777 44.42 160.09 44.1933 160.317 43.9C160.557 43.6067 160.723 43.26 160.817 42.86C160.923 42.46 160.977 42.02 160.977 41.54V40.84H160.937C160.59 41.3067 160.143 41.6667 159.597 41.92C159.063 42.16 158.463 42.28 157.797 42.28C157.077 42.28 156.423 42.1467 155.837 41.88C155.25 41.6133 154.75 41.2533 154.337 40.8C153.937 40.3467 153.623 39.82 153.397 39.22C153.17 38.6067 153.057 37.96 153.057 37.28C153.057 36.5867 153.163 35.9333 153.377 35.32C153.603 34.7067 153.917 34.1733 154.317 33.72C154.73 33.2667 155.223 32.9067 155.797 32.64C156.383 32.3733 157.037 32.24 157.757 32.24C158.437 32.24 159.07 32.38 159.657 32.66C160.243 32.94 160.71 33.3733 161.057 33.96H161.097V32.52H163.377ZM158.257 34.2C157.817 34.2 157.423 34.28 157.077 34.44C156.743 34.6 156.457 34.82 156.217 35.1C155.99 35.3667 155.81 35.6867 155.677 36.06C155.557 36.4333 155.497 36.8333 155.497 37.26C155.497 37.6467 155.557 38.02 155.677 38.38C155.81 38.74 155.99 39.0667 156.217 39.36C156.457 39.64 156.743 39.8667 157.077 40.04C157.423 40.2133 157.81 40.3 158.237 40.3C158.677 40.3 159.07 40.22 159.417 40.06C159.777 39.8867 160.077 39.66 160.317 39.38C160.57 39.1 160.763 38.78 160.897 38.42C161.03 38.0467 161.097 37.66 161.097 37.26C161.097 36.8467 161.03 36.4533 160.897 36.08C160.763 35.7067 160.57 35.38 160.317 35.1C160.077 34.82 159.783 34.6 159.437 34.44C159.09 34.28 158.697 34.2 158.257 34.2ZM177.813 35.18C177.627 34.9133 177.347 34.6933 176.973 34.52C176.6 34.3333 176.22 34.24 175.833 34.24C175.393 34.24 175.007 34.3333 174.673 34.52C174.34 34.6933 174.06 34.9267 173.833 35.22C173.62 35.5133 173.46 35.8467 173.353 36.22C173.247 36.58 173.193 36.9467 173.193 37.32C173.193 37.6933 173.247 38.0667 173.353 38.44C173.473 38.8 173.647 39.1267 173.873 39.42C174.1 39.7133 174.38 39.9533 174.713 40.14C175.06 40.3133 175.46 40.4 175.913 40.4C176.287 40.4 176.66 40.3267 177.033 40.18C177.407 40.0333 177.707 39.82 177.933 39.54L179.433 41.06C179.033 41.4867 178.52 41.82 177.893 42.06C177.28 42.2867 176.613 42.4 175.893 42.4C175.187 42.4 174.513 42.2867 173.873 42.06C173.247 41.8333 172.693 41.5 172.213 41.06C171.747 40.62 171.373 40.0867 171.093 39.46C170.827 38.8333 170.693 38.12 170.693 37.32C170.693 36.5467 170.827 35.8467 171.093 35.22C171.373 34.5933 171.747 34.06 172.213 33.62C172.68 33.18 173.22 32.84 173.833 32.6C174.46 32.36 175.127 32.24 175.833 32.24C176.54 32.24 177.22 32.3733 177.873 32.64C178.54 32.9067 179.067 33.2733 179.453 33.74L177.813 35.18ZM180.459 37.28C180.459 36.52 180.592 35.8333 180.859 35.22C181.139 34.5933 181.512 34.06 181.979 33.62C182.446 33.18 182.999 32.84 183.639 32.6C184.279 32.36 184.959 32.24 185.679 32.24C186.399 32.24 187.079 32.36 187.719 32.6C188.359 32.84 188.912 33.18 189.379 33.62C189.846 34.06 190.212 34.5933 190.479 35.22C190.759 35.8333 190.899 36.52 190.899 37.28C190.899 38.04 190.759 38.7333 190.479 39.36C190.212 39.9867 189.846 40.5267 189.379 40.98C188.912 41.42 188.359 41.7667 187.719 42.02C187.079 42.2733 186.399 42.4 185.679 42.4C184.959 42.4 184.279 42.2733 183.639 42.02C182.999 41.7667 182.446 41.42 181.979 40.98C181.512 40.5267 181.139 39.9867 180.859 39.36C180.592 38.7333 180.459 38.04 180.459 37.28ZM182.899 37.28C182.899 37.6533 182.952 38.0267 183.059 38.4C183.179 38.7733 183.352 39.1067 183.579 39.4C183.806 39.6933 184.092 39.9333 184.439 40.12C184.786 40.3067 185.199 40.4 185.679 40.4C186.159 40.4 186.572 40.3067 186.919 40.12C187.266 39.9333 187.552 39.6933 187.779 39.4C188.006 39.1067 188.172 38.7733 188.279 38.4C188.399 38.0267 188.459 37.6533 188.459 37.28C188.459 36.9067 188.399 36.54 188.279 36.18C188.172 35.8067 188.006 35.4733 187.779 35.18C187.552 34.8867 187.266 34.6533 186.919 34.48C186.572 34.2933 186.159 34.2 185.679 34.2C185.199 34.2 184.786 34.2933 184.439 34.48C184.092 34.6533 183.806 34.8867 183.579 35.18C183.352 35.4733 183.179 35.8067 183.059 36.18C182.952 36.54 182.899 36.9067 182.899 37.28ZM204.686 32.24C205.313 32.24 205.846 32.3533 206.286 32.58C206.739 32.7933 207.106 33.08 207.386 33.44C207.679 33.8 207.893 34.2133 208.026 34.68C208.159 35.1467 208.226 35.6267 208.226 36.12V42.12H205.826V36.8C205.826 36.52 205.806 36.2267 205.766 35.92C205.726 35.6133 205.639 35.34 205.506 35.1C205.373 34.8467 205.186 34.64 204.946 34.48C204.719 34.32 204.413 34.24 204.026 34.24C203.653 34.24 203.333 34.32 203.066 34.48C202.799 34.64 202.579 34.8467 202.406 35.1C202.233 35.3533 202.106 35.64 202.026 35.96C201.946 36.2667 201.906 36.5733 201.906 36.88V42.12H199.506V36.32C199.506 35.72 199.359 35.2267 199.066 34.84C198.786 34.44 198.339 34.24 197.726 34.24C197.366 34.24 197.053 34.32 196.786 34.48C196.519 34.6267 196.299 34.82 196.126 35.06C195.966 35.3 195.839 35.58 195.746 35.9C195.666 36.2067 195.626 36.52 195.626 36.84V42.12H193.226V32.52H195.506V34.06H195.546C195.653 33.82 195.793 33.5933 195.966 33.38C196.153 33.1667 196.366 32.9733 196.606 32.8C196.859 32.6267 197.146 32.4933 197.466 32.4C197.786 32.2933 198.139 32.24 198.526 32.24C199.273 32.24 199.893 32.4067 200.386 32.74C200.879 33.0733 201.259 33.5133 201.526 34.06C201.846 33.4733 202.273 33.0267 202.806 32.72C203.339 32.4 203.966 32.24 204.686 32.24ZM222.479 32.24C223.106 32.24 223.639 32.3533 224.079 32.58C224.532 32.7933 224.899 33.08 225.179 33.44C225.472 33.8 225.686 34.2133 225.819 34.68C225.952 35.1467 226.019 35.6267 226.019 36.12V42.12H223.619V36.8C223.619 36.52 223.599 36.2267 223.559 35.92C223.519 35.6133 223.432 35.34 223.299 35.1C223.166 34.8467 222.979 34.64 222.739 34.48C222.512 34.32 222.206 34.24 221.819 34.24C221.446 34.24 221.126 34.32 220.859 34.48C220.592 34.64 220.372 34.8467 220.199 35.1C220.026 35.3533 219.899 35.64 219.819 35.96C219.739 36.2667 219.699 36.5733 219.699 36.88V42.12H217.299V36.32C217.299 35.72 217.152 35.2267 216.859 34.84C216.579 34.44 216.132 34.24 215.519 34.24C215.159 34.24 214.846 34.32 214.579 34.48C214.312 34.6267 214.092 34.82 213.919 35.06C213.759 35.3 213.632 35.58 213.539 35.9C213.459 36.2067 213.419 36.52 213.419 36.84V42.12H211.019V32.52H213.299V34.06H213.339C213.446 33.82 213.586 33.5933 213.759 33.38C213.946 33.1667 214.159 32.9733 214.399 32.8C214.652 32.6267 214.939 32.4933 215.259 32.4C215.579 32.2933 215.932 32.24 216.319 32.24C217.066 32.24 217.686 32.4067 218.179 32.74C218.672 33.0733 219.052 33.5133 219.319 34.06C219.639 33.4733 220.066 33.0267 220.599 32.72C221.132 32.4 221.759 32.24 222.479 32.24ZM237.572 42.12H235.292V40.58H235.252C235.039 41.06 234.665 41.4867 234.132 41.86C233.612 42.22 232.992 42.4 232.272 42.4C231.645 42.4 231.105 42.2933 230.652 42.08C230.212 41.8533 229.845 41.56 229.552 41.2C229.272 40.84 229.065 40.4267 228.932 39.96C228.799 39.4933 228.732 39.0133 228.732 38.52V32.52H231.132V37.84C231.132 38.12 231.152 38.4133 231.192 38.72C231.232 39.0267 231.319 39.3067 231.452 39.56C231.585 39.8 231.765 40 231.992 40.16C232.232 40.32 232.545 40.4 232.932 40.4C233.305 40.4 233.632 40.3267 233.912 40.18C234.205 40.02 234.439 39.82 234.612 39.58C234.799 39.34 234.939 39.0667 235.032 38.76C235.125 38.44 235.172 38.12 235.172 37.8V32.52H237.572V42.12ZM240.453 32.52H242.733V34.06H242.773C242.986 33.58 243.353 33.16 243.873 32.8C244.406 32.4267 245.033 32.24 245.753 32.24C246.379 32.24 246.913 32.3533 247.353 32.58C247.806 32.7933 248.173 33.08 248.453 33.44C248.746 33.8 248.959 34.2133 249.093 34.68C249.226 35.1467 249.293 35.6267 249.293 36.12V42.12H246.893V36.8C246.893 36.52 246.873 36.2267 246.833 35.92C246.793 35.6133 246.706 35.34 246.573 35.1C246.439 34.8467 246.253 34.64 246.013 34.48C245.786 34.32 245.479 34.24 245.093 34.24C244.706 34.24 244.373 34.32 244.093 34.48C243.813 34.6267 243.579 34.82 243.393 35.06C243.219 35.3 243.086 35.58 242.993 35.9C242.899 36.2067 242.853 36.52 242.853 36.84V42.12H240.453V32.52ZM252.133 32.52H254.533V42.12H252.133V32.52ZM251.793 29.26C251.793 28.8733 251.933 28.54 252.213 28.26C252.507 27.9667 252.873 27.82 253.313 27.82C253.753 27.82 254.12 27.96 254.413 28.24C254.72 28.5067 254.873 28.8467 254.873 29.26C254.873 29.6733 254.72 30.02 254.413 30.3C254.12 30.5667 253.753 30.7 253.313 30.7C252.873 30.7 252.507 30.56 252.213 30.28C251.933 29.9867 251.793 29.6467 251.793 29.26ZM256.065 34.44V32.52H257.745V29.74H260.105V32.52H262.505V34.44H260.105V38.9C260.105 39.3267 260.178 39.68 260.325 39.96C260.485 40.24 260.831 40.38 261.365 40.38C261.525 40.38 261.698 40.3667 261.885 40.34C262.071 40.3 262.238 40.2467 262.385 40.18L262.465 42.06C262.251 42.14 261.998 42.2 261.705 42.24C261.411 42.2933 261.131 42.32 260.865 42.32C260.225 42.32 259.705 42.2333 259.305 42.06C258.905 41.8733 258.585 41.6267 258.345 41.32C258.118 41 257.958 40.64 257.865 40.24C257.785 39.8267 257.745 39.3867 257.745 38.92V34.44H256.065ZM262.802 32.52H265.462L268.142 39.5H268.182L270.562 32.52H273.062L268.522 44.18C268.348 44.62 268.162 45.0067 267.962 45.34C267.762 45.6867 267.522 45.9733 267.242 46.2C266.962 46.44 266.628 46.62 266.242 46.74C265.868 46.86 265.415 46.92 264.882 46.92C264.682 46.92 264.475 46.9067 264.262 46.88C264.062 46.8667 263.855 46.8333 263.642 46.78L263.842 44.7C264.002 44.7533 264.155 44.7867 264.302 44.8C264.462 44.8267 264.608 44.84 264.742 44.84C264.995 44.84 265.208 44.8067 265.382 44.74C265.555 44.6867 265.702 44.5933 265.822 44.46C265.942 44.34 266.048 44.1867 266.142 44C266.235 43.8133 266.335 43.5933 266.442 43.34L266.922 42.12L262.802 32.52ZM273.333 40.72C273.333 40.2933 273.486 39.9267 273.793 39.62C274.113 39.3133 274.493 39.16 274.933 39.16C275.36 39.16 275.733 39.3067 276.053 39.6C276.373 39.8933 276.533 40.2533 276.533 40.68C276.533 41.1067 276.373 41.4733 276.053 41.78C275.746 42.0867 275.373 42.24 274.933 42.24C274.72 42.24 274.513 42.2 274.313 42.12C274.126 42.04 273.96 41.9333 273.813 41.8C273.666 41.6667 273.546 41.5067 273.453 41.32C273.373 41.1333 273.333 40.9333 273.333 40.72Z" fill="#35A8F7"/>
</svg>
