<svg width="393" height="90" viewBox="0 0 393 90" fill="none" xmlns="http://www.w3.org/2000/svg">
<mask id="path-1-inside-1_2345_13955" fill="white">
<path d="M0 0H393V90H0V0Z"/>
</mask>
<path d="M0 0H393V90H0V0Z" fill="white"/>
<path d="M0 0V1H393V0V-1H0V0Z" fill="#D9D9D9" mask="url(#path-1-inside-1_2345_13955)"/>
<path d="M37.9991 24C33.7742 24 30.2114 27.0629 29.2173 31.2122C28.8853 32.6006 28.9311 34.5693 29.3731 35.9399C30.6253 39.824 34.1694 44.5779 36.1322 47.0736C37.1035 48.3093 38.8997 48.3083 39.8711 47.0736C41.8338 44.5789 45.3736 39.8305 46.6268 35.9466C47.0697 34.5732 47.1146 32.6008 46.7817 31.2122C45.7876 27.0629 42.2239 24 37.9991 24ZM37.9991 25.5C41.5855 25.5 44.5839 28.0948 45.4195 31.5844C45.6467 32.5332 45.586 34.5534 45.2945 35.4582C44.1991 38.8547 40.7148 43.6633 38.7899 46.1101C38.3197 46.7072 37.6804 46.7091 37.2093 46.1101C35.2844 43.6623 31.7992 38.8501 30.7047 35.4546C30.4141 34.5509 30.3578 32.5334 30.585 31.5847C31.4215 28.0953 34.4127 25.5002 37.9994 25.5002L37.9991 25.5ZM37.9991 28.8158C35.5291 28.8158 33.5073 30.9495 33.5073 33.5661C33.5073 36.1826 35.5291 38.3099 37.9991 38.3099C40.469 38.3099 42.4978 36.1827 42.4978 33.5661C42.4978 30.9495 40.469 28.8158 37.9991 28.8158ZM37.9991 30.3158C39.7144 30.3158 41.088 31.767 41.088 33.5661C41.088 35.3642 39.7152 36.8109 37.9991 36.8109C36.2837 36.8109 34.9162 35.3652 34.9162 33.5661C34.9162 31.768 36.2837 30.3158 37.9991 30.3158Z" fill="#4D4D4D"/>
<path d="M20.8845 54.92H25.5745V56.02H22.1445V57.82H25.3945V58.88H22.1445V60.88H25.7545V62H20.8845V54.92ZM28.148 59.45L26.418 57.2H27.858L28.898 58.69L29.968 57.2H31.348L29.628 59.45L31.588 62H30.128L28.878 60.25L27.618 62H26.198L28.148 59.45ZM33.4491 57.2V57.87H33.4791C33.5391 57.7767 33.6158 57.6833 33.7091 57.59C33.8091 57.49 33.9291 57.4033 34.0691 57.33C34.2091 57.25 34.3658 57.1867 34.5391 57.14C34.7191 57.0867 34.9191 57.06 35.1391 57.06C35.4791 57.06 35.7924 57.1267 36.0791 57.26C36.3658 57.3867 36.6124 57.5633 36.8191 57.79C37.0258 58.0167 37.1858 58.2833 37.2991 58.59C37.4124 58.8967 37.4691 59.2267 37.4691 59.58C37.4691 59.9333 37.4124 60.2667 37.2991 60.58C37.1924 60.8867 37.0358 61.1567 36.8291 61.39C36.6291 61.6167 36.3824 61.8 36.0891 61.94C35.8024 62.0733 35.4758 62.14 35.1091 62.14C34.7691 62.14 34.4558 62.07 34.1691 61.93C33.8891 61.79 33.6724 61.6 33.5191 61.36H33.4991V64.4H32.2991V57.2H33.4491ZM36.2491 59.58C36.2491 59.3933 36.2191 59.21 36.1591 59.03C36.1058 58.8433 36.0224 58.6767 35.9091 58.53C35.7958 58.3833 35.6524 58.2667 35.4791 58.18C35.3058 58.0867 35.1024 58.04 34.8691 58.04C34.6491 58.04 34.4524 58.0867 34.2791 58.18C34.1058 58.2733 33.9558 58.3933 33.8291 58.54C33.7091 58.6867 33.6158 58.8533 33.5491 59.04C33.4891 59.2267 33.4591 59.4133 33.4591 59.6C33.4591 59.7867 33.4891 59.9733 33.5491 60.16C33.6158 60.34 33.7091 60.5033 33.8291 60.65C33.9558 60.7967 34.1058 60.9167 34.2791 61.01C34.4524 61.0967 34.6491 61.14 34.8691 61.14C35.1024 61.14 35.3058 61.0933 35.4791 61C35.6524 60.9067 35.7958 60.7867 35.9091 60.64C36.0224 60.4933 36.1058 60.3267 36.1591 60.14C36.2191 59.9533 36.2491 59.7667 36.2491 59.58ZM38.6472 54.44H39.8472V62H38.6472V54.44ZM41.023 59.58C41.023 59.2 41.0897 58.8567 41.223 58.55C41.363 58.2367 41.5497 57.97 41.783 57.75C42.0163 57.53 42.293 57.36 42.613 57.24C42.933 57.12 43.273 57.06 43.633 57.06C43.993 57.06 44.333 57.12 44.653 57.24C44.973 57.36 45.2497 57.53 45.483 57.75C45.7163 57.97 45.8997 58.2367 46.033 58.55C46.173 58.8567 46.243 59.2 46.243 59.58C46.243 59.96 46.173 60.3067 46.033 60.62C45.8997 60.9333 45.7163 61.2033 45.483 61.43C45.2497 61.65 44.973 61.8233 44.653 61.95C44.333 62.0767 43.993 62.14 43.633 62.14C43.273 62.14 42.933 62.0767 42.613 61.95C42.293 61.8233 42.0163 61.65 41.783 61.43C41.5497 61.2033 41.363 60.9333 41.223 60.62C41.0897 60.3067 41.023 59.96 41.023 59.58ZM42.243 59.58C42.243 59.7667 42.2697 59.9533 42.323 60.14C42.383 60.3267 42.4697 60.4933 42.583 60.64C42.6963 60.7867 42.8397 60.9067 43.013 61C43.1863 61.0933 43.393 61.14 43.633 61.14C43.873 61.14 44.0797 61.0933 44.253 61C44.4263 60.9067 44.5697 60.7867 44.683 60.64C44.7963 60.4933 44.8797 60.3267 44.933 60.14C44.993 59.9533 45.023 59.7667 45.023 59.58C45.023 59.3933 44.993 59.21 44.933 59.03C44.8797 58.8433 44.7963 58.6767 44.683 58.53C44.5697 58.3833 44.4263 58.2667 44.253 58.18C44.0797 58.0867 43.873 58.04 43.633 58.04C43.393 58.04 43.1863 58.0867 43.013 58.18C42.8397 58.2667 42.6963 58.3833 42.583 58.53C42.4697 58.6767 42.383 58.8433 42.323 59.03C42.2697 59.21 42.243 59.3933 42.243 59.58ZM47.4065 57.2H48.5565V58H48.5765C48.7099 57.72 48.8965 57.4933 49.1365 57.32C49.3765 57.1467 49.6565 57.06 49.9765 57.06C50.0232 57.06 50.0732 57.0633 50.1265 57.07C50.1799 57.07 50.2265 57.0767 50.2665 57.09V58.19C50.1865 58.17 50.1165 58.1567 50.0565 58.15C50.0032 58.1433 49.9499 58.14 49.8965 58.14C49.6232 58.14 49.4032 58.19 49.2365 58.29C49.0699 58.39 48.9399 58.51 48.8465 58.65C48.7532 58.79 48.6899 58.9333 48.6565 59.08C48.6232 59.2267 48.6065 59.3433 48.6065 59.43V62H47.4065V57.2ZM54.2533 59.12C54.2533 58.9667 54.23 58.82 54.1833 58.68C54.1433 58.54 54.0767 58.4167 53.9833 58.31C53.89 58.2033 53.77 58.12 53.6233 58.06C53.4833 57.9933 53.3167 57.96 53.1233 57.96C52.7633 57.96 52.4567 58.07 52.2033 58.29C51.9567 58.5033 51.82 58.78 51.7933 59.12H54.2533ZM55.4533 59.66C55.4533 59.7133 55.4533 59.7667 55.4533 59.82C55.4533 59.8733 55.45 59.9267 55.4433 59.98H51.7933C51.8067 60.1533 51.85 60.3133 51.9233 60.46C52.0033 60.6 52.1067 60.7233 52.2333 60.83C52.36 60.93 52.5033 61.01 52.6633 61.07C52.8233 61.13 52.99 61.16 53.1633 61.16C53.4633 61.16 53.7167 61.1067 53.9233 61C54.13 60.8867 54.3 60.7333 54.4333 60.54L55.2333 61.18C54.76 61.82 54.0733 62.14 53.1733 62.14C52.8 62.14 52.4567 62.0833 52.1433 61.97C51.83 61.85 51.5567 61.6833 51.3233 61.47C51.0967 61.2567 50.9167 60.9967 50.7833 60.69C50.6567 60.3767 50.5933 60.0233 50.5933 59.63C50.5933 59.2433 50.6567 58.8933 50.7833 58.58C50.9167 58.26 51.0967 57.99 51.3233 57.77C51.55 57.5433 51.8167 57.37 52.1233 57.25C52.4367 57.1233 52.7733 57.06 53.1333 57.06C53.4667 57.06 53.7733 57.1167 54.0533 57.23C54.34 57.3367 54.5867 57.5 54.7933 57.72C55 57.9333 55.16 58.2033 55.2733 58.53C55.3933 58.85 55.4533 59.2267 55.4533 59.66Z" fill="#4D4D4D"/>
<path d="M106.092 24C104.944 24 104.001 25.0097 104.001 26.2313L104 45.7735C104 46.995 104.945 48 106.091 48H119.907C121.055 48 121.998 46.995 121.998 45.7735V30.2812H121.999C122.001 30.2344 121.999 30.1875 121.994 30.1406C121.992 30.1303 121.991 30.12 121.989 30.1097C121.983 30.0703 121.974 30.0309 121.961 29.9925C121.961 29.9916 121.961 29.9906 121.961 29.9897C121.957 29.9803 121.954 29.97 121.95 29.9606C121.944 29.9437 121.938 29.9259 121.931 29.9091C121.931 29.9072 121.93 29.9053 121.929 29.9034C121.928 29.9016 121.927 29.8997 121.925 29.8978C121.923 29.8903 121.919 29.8828 121.915 29.8753C121.911 29.8678 121.906 29.8603 121.902 29.8528C121.902 29.8519 121.901 29.8509 121.901 29.85C121.894 29.8387 121.888 29.8275 121.882 29.8162C121.878 29.8097 121.873 29.8031 121.868 29.7966C121.859 29.7825 121.85 29.7694 121.84 29.7562C121.837 29.7534 121.834 29.7506 121.831 29.7478C121.819 29.7328 121.806 29.7169 121.793 29.7028L116.641 24.2212C116.601 24.18 116.558 24.1443 116.511 24.1143C116.503 24.1087 116.494 24.1031 116.485 24.0975C116.443 24.0731 116.399 24.0534 116.353 24.0384C116.333 24.0318 116.314 24.0262 116.295 24.0215C116.252 24.0112 116.207 24.0056 116.163 24.0047C116.155 24.0037 116.148 24.0028 116.14 24.0018L106.092 24ZM106.092 25.5H115.437V28.7549C115.437 29.9764 116.386 30.9814 117.535 30.9814H120.595V45.7733C120.595 46.1896 120.3 46.4999 119.907 46.4999H106.091C105.699 46.4999 105.404 46.1895 105.404 45.7733L105.405 26.2311C105.405 25.8149 105.701 25.5 106.092 25.5ZM116.847 26.5631L119.589 29.4796H117.534C117.142 29.4796 116.846 29.1702 116.846 28.7549L116.847 26.5631ZM111.244 31.6883L111.243 31.6892C111.056 31.6939 110.878 31.7774 110.75 31.9217L109.413 33.4058L108.84 32.7683H108.839C108.71 32.624 108.532 32.5405 108.344 32.5358C108.156 32.5321 107.975 32.6071 107.84 32.7458C107.704 32.8836 107.626 33.073 107.622 33.2727C107.617 33.4724 107.689 33.6655 107.819 33.8089L108.901 35.0043C109.034 35.1515 109.217 35.234 109.409 35.234C109.6 35.234 109.783 35.1515 109.915 35.0043L111.763 32.9605V32.9615C111.893 32.818 111.966 32.6258 111.962 32.4271C111.959 32.2274 111.882 32.038 111.747 31.8993C111.612 31.7605 111.431 31.6846 111.243 31.6883L111.244 31.6883ZM113.569 32.7139C113.381 32.713 113.2 32.7927 113.068 32.9342C112.935 33.0749 112.861 33.267 112.861 33.4668C112.863 33.8811 113.18 34.2158 113.569 34.2139H117.671H117.67C117.857 34.2149 118.037 34.1371 118.17 33.9964C118.302 33.8568 118.378 33.6664 118.378 33.4668C118.379 33.2671 118.305 33.0749 118.172 32.9343C118.039 32.7927 117.858 32.713 117.67 32.7139L113.569 32.7139ZM111.244 36.4994V36.5013L111.243 36.5004C111.056 36.5051 110.878 36.5885 110.75 36.7319L109.413 38.216L108.84 37.5804H108.839C108.71 37.436 108.532 37.3516 108.344 37.3479C108.156 37.3432 107.975 37.4191 107.84 37.5579C107.704 37.6957 107.626 37.8851 107.622 38.0848C107.617 38.2844 107.689 38.4776 107.819 38.621L108.901 39.8163C109.034 39.9626 109.217 40.046 109.409 40.046C109.6 40.046 109.783 39.9626 109.915 39.8163L111.763 37.7745C111.894 37.631 111.967 37.4388 111.963 37.2391C111.96 37.0395 111.883 36.8491 111.747 36.7104C111.612 36.5716 111.431 36.4957 111.243 36.5004L111.244 36.4994ZM113.569 37.5251C113.381 37.5241 113.2 37.6029 113.068 37.7444C112.935 37.886 112.861 38.0772 112.861 38.2779C112.863 38.6913 113.18 39.026 113.569 39.0251H117.671H117.67C117.857 39.0251 118.037 38.9473 118.17 38.8066C118.302 38.6669 118.378 38.4766 118.378 38.2779C118.379 38.0773 118.305 37.886 118.172 37.7444C118.039 37.6029 117.858 37.5241 117.67 37.5251L113.569 37.5251ZM111.244 41.3115H111.243C111.056 41.3162 110.878 41.3997 110.75 41.544L109.413 43.0281L108.84 42.3906H108.839C108.71 42.2462 108.532 42.1628 108.344 42.1581C108.156 42.1543 107.975 42.2293 107.84 42.3681C107.704 42.5059 107.626 42.6953 107.622 42.894C107.618 43.0937 107.689 43.2868 107.819 43.4303L108.901 44.6275V44.6265C109.034 44.7737 109.217 44.8562 109.409 44.8562C109.6 44.8562 109.783 44.7737 109.915 44.6265L111.763 42.5828V42.5837C111.894 42.4403 111.967 42.2481 111.963 42.0484C111.96 41.8487 111.883 41.6584 111.747 41.5197C111.612 41.3819 111.431 41.3059 111.243 41.3106L111.244 41.3115ZM113.569 42.3353C113.381 42.3343 113.201 42.4131 113.068 42.5546C112.935 42.6962 112.861 42.8884 112.861 43.0881C112.862 43.2868 112.937 43.4781 113.069 43.6187C113.202 43.7584 113.382 43.8371 113.569 43.8362H117.671H117.67C117.858 43.8371 118.038 43.7584 118.17 43.6187C118.303 43.4781 118.378 43.2868 118.378 43.0881C118.379 42.8884 118.305 42.6962 118.172 42.5546C118.039 42.4131 117.858 42.3343 117.67 42.3353H113.569Z" fill="#4D4D4D"/>
<path d="M92.5121 62.18C92.0455 62.18 91.6388 62.1033 91.2921 61.95C90.9455 61.79 90.6588 61.58 90.4321 61.32C90.2055 61.06 90.0355 60.7633 89.9221 60.43C89.8155 60.09 89.7621 59.74 89.7621 59.38V54.92H90.7521V59.32C90.7521 59.56 90.7821 59.8 90.8421 60.04C90.9021 60.2733 90.9988 60.4833 91.1321 60.67C91.2721 60.8567 91.4521 61.0067 91.6721 61.12C91.8988 61.2333 92.1788 61.29 92.5121 61.29C92.8388 61.29 93.1155 61.2333 93.3421 61.12C93.5688 61.0067 93.7488 60.8567 93.8821 60.67C94.0221 60.4833 94.1221 60.2733 94.1821 60.04C94.2421 59.8 94.2721 59.56 94.2721 59.32V54.92H95.2621V59.38C95.2621 59.74 95.2055 60.09 95.0921 60.43C94.9855 60.7633 94.8188 61.06 94.5921 61.32C94.3655 61.58 94.0788 61.79 93.7321 61.95C93.3855 62.1033 92.9788 62.18 92.5121 62.18ZM97.8213 64.4H96.8813V57.26H97.8013V58H97.8313C97.9846 57.7467 98.208 57.54 98.5013 57.38C98.8013 57.2133 99.148 57.13 99.5413 57.13C99.8946 57.13 100.215 57.1933 100.501 57.32C100.795 57.4467 101.045 57.6233 101.251 57.85C101.465 58.0767 101.628 58.3433 101.741 58.65C101.855 58.95 101.911 59.2733 101.911 59.62C101.911 59.9667 101.855 60.2933 101.741 60.6C101.628 60.9067 101.468 61.1733 101.261 61.4C101.055 61.6267 100.805 61.8067 100.511 61.94C100.218 62.0667 99.888 62.13 99.5213 62.13C99.1813 62.13 98.8613 62.0567 98.5613 61.91C98.2613 61.7633 98.0246 61.5567 97.8513 61.29H97.8213V64.4ZM100.941 59.62C100.941 59.4 100.908 59.1867 100.841 58.98C100.775 58.7733 100.675 58.59 100.541 58.43C100.408 58.27 100.241 58.1433 100.041 58.05C99.848 57.9567 99.6213 57.91 99.3613 57.91C99.1213 57.91 98.9013 57.9567 98.7013 58.05C98.508 58.1433 98.3413 58.27 98.2013 58.43C98.0613 58.59 97.9513 58.7733 97.8713 58.98C97.798 59.1867 97.7613 59.4033 97.7613 59.63C97.7613 59.8567 97.798 60.0733 97.8713 60.28C97.9513 60.4867 98.0613 60.67 98.2013 60.83C98.3413 60.9833 98.508 61.1067 98.7013 61.2C98.9013 61.2933 99.1213 61.34 99.3613 61.34C99.6213 61.34 99.848 61.2933 100.041 61.2C100.241 61.1 100.408 60.97 100.541 60.81C100.675 60.65 100.775 60.4667 100.841 60.26C100.908 60.0533 100.941 59.84 100.941 59.62ZM106.539 58.46C106.439 58.3067 106.289 58.18 106.089 58.08C105.889 57.9733 105.676 57.92 105.449 57.92C105.203 57.92 104.983 57.9667 104.789 58.06C104.603 58.1533 104.443 58.28 104.309 58.44C104.176 58.5933 104.073 58.7733 103.999 58.98C103.933 59.1867 103.899 59.4033 103.899 59.63C103.899 59.8567 103.933 60.0733 103.999 60.28C104.073 60.4867 104.176 60.67 104.309 60.83C104.443 60.9833 104.606 61.1067 104.799 61.2C104.993 61.2933 105.213 61.34 105.459 61.34C105.699 61.34 105.916 61.2933 106.109 61.2C106.309 61.1067 106.473 60.98 106.599 60.82L107.229 61.39C107.029 61.6233 106.779 61.8067 106.479 61.94C106.179 62.0667 105.839 62.13 105.459 62.13C105.093 62.13 104.753 62.07 104.439 61.95C104.133 61.83 103.866 61.6633 103.639 61.45C103.413 61.23 103.233 60.9667 103.099 60.66C102.973 60.3533 102.909 60.01 102.909 59.63C102.909 59.2567 102.973 58.9167 103.099 58.61C103.226 58.3033 103.403 58.04 103.629 57.82C103.856 57.6 104.123 57.43 104.429 57.31C104.743 57.19 105.079 57.13 105.439 57.13C105.773 57.13 106.103 57.1967 106.429 57.33C106.763 57.4633 107.026 57.6567 107.219 57.91L106.539 58.46ZM112.961 59.62C112.961 59.9867 112.894 60.3233 112.761 60.63C112.634 60.9367 112.454 61.2033 112.221 61.43C111.994 61.65 111.724 61.8233 111.411 61.95C111.097 62.07 110.761 62.13 110.401 62.13C110.041 62.13 109.704 62.07 109.391 61.95C109.077 61.8233 108.807 61.65 108.581 61.43C108.354 61.2033 108.174 60.9367 108.041 60.63C107.914 60.3233 107.851 59.9867 107.851 59.62C107.851 59.2533 107.914 58.92 108.041 58.62C108.174 58.3133 108.354 58.05 108.581 57.83C108.807 57.61 109.077 57.44 109.391 57.32C109.704 57.1933 110.041 57.13 110.401 57.13C110.761 57.13 111.097 57.1933 111.411 57.32C111.724 57.44 111.994 57.61 112.221 57.83C112.454 58.05 112.634 58.3133 112.761 58.62C112.894 58.92 112.961 59.2533 112.961 59.62ZM111.981 59.62C111.981 59.3933 111.944 59.1767 111.871 58.97C111.804 58.7633 111.704 58.5833 111.571 58.43C111.437 58.27 111.271 58.1433 111.071 58.05C110.877 57.9567 110.654 57.91 110.401 57.91C110.147 57.91 109.921 57.9567 109.721 58.05C109.527 58.1433 109.364 58.27 109.231 58.43C109.097 58.5833 108.994 58.7633 108.921 58.97C108.854 59.1767 108.821 59.3933 108.821 59.62C108.821 59.8467 108.854 60.0633 108.921 60.27C108.994 60.4767 109.097 60.66 109.231 60.82C109.364 60.98 109.527 61.1067 109.721 61.2C109.921 61.2933 110.147 61.34 110.401 61.34C110.654 61.34 110.877 61.2933 111.071 61.2C111.271 61.1067 111.437 60.98 111.571 60.82C111.704 60.66 111.804 60.4767 111.871 60.27C111.944 60.0633 111.981 59.8467 111.981 59.62ZM115.184 58.04C115.304 57.7867 115.494 57.5733 115.754 57.4C116.021 57.22 116.334 57.13 116.694 57.13C117.014 57.13 117.301 57.2033 117.554 57.35C117.814 57.4967 118.017 57.74 118.164 58.08C118.324 57.7733 118.547 57.54 118.834 57.38C119.121 57.2133 119.434 57.13 119.774 57.13C120.081 57.13 120.344 57.1833 120.564 57.29C120.784 57.39 120.967 57.5267 121.114 57.7C121.261 57.8733 121.367 58.0767 121.434 58.31C121.507 58.5433 121.544 58.7933 121.544 59.06V62H120.604V59.37C120.604 59.1767 120.587 58.9933 120.554 58.82C120.521 58.6467 120.464 58.4933 120.384 58.36C120.304 58.2267 120.197 58.12 120.064 58.04C119.931 57.96 119.761 57.92 119.554 57.92C119.341 57.92 119.157 57.9667 119.004 58.06C118.851 58.1467 118.724 58.2633 118.624 58.41C118.531 58.55 118.461 58.71 118.414 58.89C118.374 59.07 118.354 59.2533 118.354 59.44V62H117.414V59.18C117.414 58.9933 117.397 58.8233 117.364 58.67C117.331 58.5167 117.274 58.3867 117.194 58.28C117.114 58.1667 117.011 58.08 116.884 58.02C116.757 57.9533 116.601 57.92 116.414 57.92C116.067 57.92 115.777 58.0633 115.544 58.35C115.317 58.63 115.204 59.0067 115.204 59.48V62H114.264V58.28C114.264 58.1533 114.261 57.99 114.254 57.79C114.247 57.59 114.237 57.4133 114.224 57.26H115.114C115.127 57.38 115.137 57.5167 115.144 57.67C115.151 57.8167 115.154 57.94 115.154 58.04H115.184ZM124.081 62H123.141V57.26H124.081V62ZM124.241 55.55C124.241 55.7233 124.178 55.8667 124.051 55.98C123.931 56.0933 123.785 56.15 123.611 56.15C123.438 56.15 123.291 56.0933 123.171 55.98C123.051 55.86 122.991 55.7167 122.991 55.55C122.991 55.3767 123.051 55.2333 123.171 55.12C123.291 55 123.438 54.94 123.611 54.94C123.785 54.94 123.931 55 124.051 55.12C124.178 55.2333 124.241 55.3767 124.241 55.55ZM126.569 57.26C126.583 57.38 126.593 57.5167 126.599 57.67C126.606 57.8167 126.609 57.94 126.609 58.04H126.639C126.699 57.9133 126.779 57.7967 126.879 57.69C126.986 57.5767 127.106 57.48 127.239 57.4C127.373 57.3133 127.519 57.2467 127.679 57.2C127.839 57.1533 128.006 57.13 128.179 57.13C128.486 57.13 128.749 57.1833 128.969 57.29C129.189 57.39 129.373 57.5267 129.519 57.7C129.666 57.8733 129.773 58.0767 129.839 58.31C129.913 58.5433 129.949 58.7933 129.949 59.06V62H129.009V59.37C129.009 59.1767 128.993 58.9933 128.959 58.82C128.933 58.6467 128.879 58.4933 128.799 58.36C128.719 58.2267 128.609 58.12 128.469 58.04C128.329 57.96 128.149 57.92 127.929 57.92C127.556 57.92 127.249 58.0633 127.009 58.35C126.776 58.63 126.659 59.0067 126.659 59.48V62H125.719V58.28C125.719 58.1533 125.716 57.99 125.709 57.79C125.703 57.59 125.693 57.4133 125.679 57.26H126.569ZM131.909 62.81C132.116 63.0433 132.373 63.23 132.679 63.37C132.993 63.51 133.313 63.58 133.639 63.58C133.953 63.58 134.216 63.5333 134.429 63.44C134.643 63.3533 134.813 63.23 134.939 63.07C135.073 62.9167 135.166 62.7333 135.219 62.52C135.279 62.3067 135.309 62.0767 135.309 61.83V61.22H135.289C135.116 61.4867 134.879 61.69 134.579 61.83C134.279 61.97 133.959 62.04 133.619 62.04C133.259 62.04 132.929 61.9767 132.629 61.85C132.336 61.7233 132.086 61.55 131.879 61.33C131.673 61.11 131.513 60.8533 131.399 60.56C131.286 60.26 131.229 59.94 131.229 59.6C131.229 59.26 131.286 58.94 131.399 58.64C131.513 58.34 131.673 58.08 131.879 57.86C132.086 57.6333 132.336 57.4567 132.629 57.33C132.923 57.1967 133.249 57.13 133.609 57.13C133.949 57.13 134.273 57.2033 134.579 57.35C134.893 57.4967 135.139 57.72 135.319 58.02H135.339V57.26H136.249V61.76C136.249 62.1067 136.206 62.4367 136.119 62.75C136.033 63.07 135.886 63.35 135.679 63.59C135.473 63.8367 135.203 64.0333 134.869 64.18C134.536 64.3267 134.123 64.4 133.629 64.4C133.216 64.4 132.799 64.3233 132.379 64.17C131.966 64.0233 131.609 63.8133 131.309 63.54L131.909 62.81ZM132.199 59.58C132.199 59.8 132.233 60.01 132.299 60.21C132.373 60.41 132.476 60.5867 132.609 60.74C132.749 60.8933 132.916 61.0167 133.109 61.11C133.303 61.2033 133.523 61.25 133.769 61.25C134.009 61.25 134.229 61.2067 134.429 61.12C134.629 61.0333 134.799 60.9167 134.939 60.77C135.079 60.6167 135.186 60.44 135.259 60.24C135.339 60.0333 135.379 59.8133 135.379 59.58C135.379 59.3533 135.339 59.14 135.259 58.94C135.186 58.74 135.076 58.5633 134.929 58.41C134.789 58.2567 134.619 58.1367 134.419 58.05C134.226 57.9567 134.009 57.91 133.769 57.91C133.523 57.91 133.303 57.9567 133.109 58.05C132.916 58.1367 132.749 58.2567 132.609 58.41C132.476 58.5567 132.373 58.7333 132.299 58.94C132.233 59.14 132.199 59.3533 132.199 59.58Z" fill="#4D4D4D"/>
<path d="M194.007 26C192.285 26.001 190.634 26.6859 189.416 27.9026C188.199 29.1204 187.514 30.7715 187.513 32.4935C187.871 41.1183 200.143 41.1183 200.5 32.4935C200.499 30.7715 199.814 29.1205 198.597 27.9026C197.38 26.6859 195.729 26.001 194.007 26ZM194.007 38.1653C192.503 38.1643 191.061 37.5667 189.997 36.503C188.933 35.4392 188.336 33.9976 188.335 32.4933C188.647 24.969 199.367 24.969 199.679 32.4933C199.677 33.9966 199.078 35.4381 198.015 36.5019C196.952 37.5646 195.51 38.1633 194.007 38.1653Z" fill="#4D4D4D" stroke="#4D4D4D" stroke-width="0.4"/>
<path d="M194.007 28.6245C193.596 28.6245 192.865 28.5916 192.939 29.1749C192.959 29.2827 193.023 29.3771 193.113 29.4377C193.205 29.4993 193.316 29.5209 193.423 29.4993C194.5 29.296 195.602 29.6831 196.314 30.5159C197.025 31.3476 197.237 32.4976 196.869 33.5285C196.822 33.6548 196.84 33.7964 196.917 33.9073C196.994 34.0172 197.121 34.0829 197.255 34.0829C197.428 34.0829 197.583 33.9741 197.641 33.8119C198.074 32.6249 197.9 31.3014 197.177 30.2654C196.454 29.2294 195.271 28.6112 194.007 28.6082L194.007 28.6245Z" fill="#4D4D4D" stroke="#4D4D4D" stroke-width="0.4"/>
<path d="M182.203 33.0601C180.956 33.0621 179.761 33.558 178.88 34.4401C177.998 35.3211 177.502 36.5162 177.5 37.7628C177.759 44.0015 186.647 44.0015 186.905 37.7628C186.903 36.5163 186.407 35.3211 185.525 34.4401C184.644 33.558 183.449 33.0621 182.203 33.0601H182.203ZM182.203 41.6439C181.174 41.6429 180.187 41.2332 179.459 40.5063C178.732 39.7783 178.322 38.7915 178.321 37.7626C178.531 32.6163 185.874 32.6205 186.084 37.7626C186.083 38.7914 185.673 39.7782 184.946 40.5063C184.218 41.2332 183.231 41.6429 182.202 41.6439H182.203Z" fill="#4D4D4D" stroke="#4D4D4D" stroke-width="0.4"/>
<path d="M181.369 35.1468C180.227 35.5061 179.452 36.5658 179.455 37.763C179.455 38.1162 179.455 38.7077 179.927 38.7159C180.055 38.7189 180.177 38.6635 180.257 38.5639C180.337 38.4653 180.368 38.3349 180.338 38.2107C180.302 38.0638 180.284 37.9139 180.285 37.763C180.28 36.9292 180.815 36.1889 181.607 35.9312C181.811 35.8552 181.919 35.6345 181.857 35.427C181.794 35.2196 181.581 35.0964 181.369 35.1468Z" fill="#4D4D4D" stroke="#4D4D4D" stroke-width="0.4"/>
<path d="M188.674 42.2406C188.259 42.4454 188.032 42.7961 188.112 43.1063C188.135 43.1979 188.174 43.3513 188.356 43.3073C188.405 43.2956 188.448 43.2693 188.473 43.2356C188.497 43.2022 188.5 43.1654 188.48 43.1361C188.457 43.1015 188.44 43.0644 188.43 43.0252C188.373 42.8094 188.53 42.5651 188.817 42.4207C188.89 42.3811 188.917 42.3132 188.879 42.2656C188.842 42.2179 188.752 42.2068 188.674 42.2406Z" fill="#4D4D4D" stroke="#4D4D4D" stroke-width="0.4"/>
<path d="M189.986 40.0671C188.125 40.0692 186.618 41.5786 186.618 43.4391C186.786 47.8995 193.189 47.8995 193.358 43.4391C193.356 41.5775 191.847 40.0692 189.986 40.0671ZM189.986 45.9856C188.58 45.9836 187.441 44.8449 187.439 43.4392C187.558 40.0673 192.417 40.0673 192.536 43.4392C192.534 44.8459 191.392 45.9856 189.986 45.9856Z" fill="#4D4D4D" stroke="#4D4D4D" stroke-width="0.4"/>
<path d="M170.998 54.92H173.438C173.704 54.92 173.971 54.95 174.238 55.01C174.504 55.07 174.741 55.17 174.948 55.31C175.161 55.45 175.331 55.6333 175.458 55.86C175.591 56.0867 175.658 56.37 175.658 56.71C175.658 57.1033 175.544 57.4333 175.318 57.7C175.091 57.9667 174.791 58.15 174.418 58.25V58.27C174.644 58.2967 174.854 58.3567 175.048 58.45C175.241 58.5367 175.408 58.6533 175.548 58.8C175.688 58.9467 175.794 59.12 175.868 59.32C175.948 59.52 175.988 59.7433 175.988 59.99C175.988 60.33 175.918 60.6267 175.778 60.88C175.638 61.1333 175.448 61.3433 175.208 61.51C174.968 61.67 174.684 61.7933 174.358 61.88C174.038 61.96 173.694 62 173.328 62H170.998V54.92ZM171.988 57.91H173.278C173.464 57.91 173.641 57.89 173.808 57.85C173.981 57.8033 174.131 57.7367 174.258 57.65C174.384 57.5567 174.484 57.4433 174.558 57.31C174.631 57.17 174.668 57.0033 174.668 56.81C174.668 56.43 174.528 56.16 174.248 56C173.968 55.8333 173.591 55.75 173.118 55.75H171.988V57.91ZM171.988 61.16H173.228C173.434 61.16 173.641 61.1433 173.848 61.11C174.061 61.07 174.251 61.0033 174.418 60.91C174.591 60.8167 174.728 60.6933 174.828 60.54C174.934 60.38 174.988 60.18 174.988 59.94C174.988 59.52 174.844 59.2167 174.558 59.03C174.271 58.8433 173.858 58.75 173.318 58.75H171.988V61.16ZM180.704 62C180.69 61.88 180.68 61.7467 180.674 61.6C180.667 61.4467 180.664 61.32 180.664 61.22H180.644C180.524 61.4733 180.32 61.69 180.034 61.87C179.754 62.0433 179.44 62.13 179.094 62.13C178.787 62.13 178.52 62.08 178.294 61.98C178.074 61.88 177.89 61.7433 177.744 61.57C177.604 61.39 177.497 61.1833 177.424 60.95C177.357 60.7167 177.324 60.4667 177.324 60.2V57.26H178.264V59.88C178.264 60.0733 178.277 60.26 178.304 60.44C178.337 60.6133 178.394 60.7667 178.474 60.9C178.554 61.0333 178.664 61.14 178.804 61.22C178.944 61.3 179.124 61.34 179.344 61.34C179.724 61.34 180.03 61.2 180.264 60.92C180.497 60.6333 180.614 60.2533 180.614 59.78V57.26H181.554V60.98C181.554 61.1067 181.557 61.27 181.564 61.47C181.57 61.67 181.58 61.8467 181.594 62H180.704ZM184.114 61.25V62H183.204V54.44H184.144V57.97H184.174C184.334 57.7367 184.557 57.54 184.844 57.38C185.131 57.2133 185.471 57.13 185.864 57.13C186.217 57.13 186.537 57.1933 186.824 57.32C187.117 57.4467 187.367 57.6233 187.574 57.85C187.787 58.0767 187.951 58.3433 188.064 58.65C188.177 58.95 188.234 59.2733 188.234 59.62C188.234 59.9667 188.177 60.2933 188.064 60.6C187.951 60.9067 187.791 61.1733 187.584 61.4C187.377 61.6267 187.127 61.8067 186.834 61.94C186.541 62.0667 186.211 62.13 185.844 62.13C185.504 62.13 185.181 62.0567 184.874 61.91C184.567 61.7567 184.321 61.5367 184.134 61.25H184.114ZM187.264 59.62C187.264 59.4 187.231 59.1867 187.164 58.98C187.097 58.7733 186.997 58.59 186.864 58.43C186.731 58.27 186.564 58.1433 186.364 58.05C186.171 57.9567 185.944 57.91 185.684 57.91C185.444 57.91 185.224 57.9567 185.024 58.05C184.831 58.1433 184.664 58.27 184.524 58.43C184.384 58.59 184.274 58.7733 184.194 58.98C184.121 59.1867 184.084 59.4033 184.084 59.63C184.084 59.8567 184.121 60.0733 184.194 60.28C184.274 60.4867 184.384 60.67 184.524 60.83C184.664 60.9833 184.831 61.1067 185.024 61.2C185.224 61.2933 185.444 61.34 185.684 61.34C185.944 61.34 186.171 61.2933 186.364 61.2C186.564 61.1 186.731 60.97 186.864 60.81C186.997 60.65 187.097 60.4667 187.164 60.26C187.231 60.0533 187.264 59.84 187.264 59.62ZM190.471 61.25V62H189.561V54.44H190.501V57.97H190.531C190.691 57.7367 190.915 57.54 191.201 57.38C191.488 57.2133 191.828 57.13 192.221 57.13C192.575 57.13 192.895 57.1933 193.181 57.32C193.475 57.4467 193.725 57.6233 193.931 57.85C194.145 58.0767 194.308 58.3433 194.421 58.65C194.535 58.95 194.591 59.2733 194.591 59.62C194.591 59.9667 194.535 60.2933 194.421 60.6C194.308 60.9067 194.148 61.1733 193.941 61.4C193.735 61.6267 193.485 61.8067 193.191 61.94C192.898 62.0667 192.568 62.13 192.201 62.13C191.861 62.13 191.538 62.0567 191.231 61.91C190.925 61.7567 190.678 61.5367 190.491 61.25H190.471ZM193.621 59.62C193.621 59.4 193.588 59.1867 193.521 58.98C193.455 58.7733 193.355 58.59 193.221 58.43C193.088 58.27 192.921 58.1433 192.721 58.05C192.528 57.9567 192.301 57.91 192.041 57.91C191.801 57.91 191.581 57.9567 191.381 58.05C191.188 58.1433 191.021 58.27 190.881 58.43C190.741 58.59 190.631 58.7733 190.551 58.98C190.478 59.1867 190.441 59.4033 190.441 59.63C190.441 59.8567 190.478 60.0733 190.551 60.28C190.631 60.4867 190.741 60.67 190.881 60.83C191.021 60.9833 191.188 61.1067 191.381 61.2C191.581 61.2933 191.801 61.34 192.041 61.34C192.301 61.34 192.528 61.2933 192.721 61.2C192.921 61.1 193.088 60.97 193.221 60.81C193.355 60.65 193.455 60.4667 193.521 60.26C193.588 60.0533 193.621 59.84 193.621 59.62ZM196.859 62H195.919V54.44H196.859V62ZM201.967 59.21C201.96 59.0233 201.927 58.85 201.867 58.69C201.813 58.5233 201.73 58.38 201.617 58.26C201.51 58.14 201.373 58.0467 201.207 57.98C201.047 57.9067 200.857 57.87 200.637 57.87C200.437 57.87 200.247 57.9067 200.067 57.98C199.893 58.0467 199.74 58.14 199.607 58.26C199.48 58.38 199.373 58.5233 199.287 58.69C199.207 58.85 199.16 59.0233 199.147 59.21H201.967ZM202.917 59.59C202.917 59.6433 202.917 59.6967 202.917 59.75C202.917 59.8033 202.913 59.8567 202.907 59.91H199.147C199.153 60.11 199.197 60.3 199.277 60.48C199.363 60.6533 199.477 60.8067 199.617 60.94C199.757 61.0667 199.917 61.1667 200.097 61.24C200.283 61.3133 200.48 61.35 200.687 61.35C201.007 61.35 201.283 61.28 201.517 61.14C201.75 61 201.933 60.83 202.067 60.63L202.727 61.16C202.473 61.4933 202.173 61.74 201.827 61.9C201.487 62.0533 201.107 62.13 200.687 62.13C200.327 62.13 199.993 62.07 199.687 61.95C199.38 61.83 199.117 61.6633 198.897 61.45C198.677 61.23 198.503 60.9667 198.377 60.66C198.25 60.3533 198.187 60.0133 198.187 59.64C198.187 59.2733 198.247 58.9367 198.367 58.63C198.493 58.3167 198.667 58.05 198.887 57.83C199.107 57.61 199.367 57.44 199.667 57.32C199.967 57.1933 200.29 57.13 200.637 57.13C200.983 57.13 201.297 57.1867 201.577 57.3C201.863 57.4133 202.103 57.5767 202.297 57.79C202.497 58.0033 202.65 58.2633 202.757 58.57C202.863 58.87 202.917 59.21 202.917 59.59ZM206.789 58.46C206.682 58.2867 206.532 58.1467 206.339 58.04C206.146 57.9267 205.929 57.87 205.689 57.87C205.582 57.87 205.476 57.8833 205.369 57.91C205.262 57.93 205.166 57.9667 205.079 58.02C204.999 58.0667 204.932 58.13 204.879 58.21C204.832 58.2833 204.809 58.3767 204.809 58.49C204.809 58.69 204.899 58.84 205.079 58.94C205.259 59.0333 205.529 59.12 205.889 59.2C206.116 59.2533 206.326 59.3167 206.519 59.39C206.712 59.4633 206.879 59.5567 207.019 59.67C207.166 59.7767 207.279 59.9067 207.359 60.06C207.439 60.2133 207.479 60.3933 207.479 60.6C207.479 60.88 207.426 61.1167 207.319 61.31C207.212 61.5033 207.069 61.6633 206.889 61.79C206.716 61.91 206.516 61.9967 206.289 62.05C206.062 62.1033 205.829 62.13 205.589 62.13C205.229 62.13 204.876 62.06 204.529 61.92C204.189 61.78 203.906 61.5667 203.679 61.28L204.349 60.71C204.476 60.8967 204.649 61.0533 204.869 61.18C205.096 61.3067 205.342 61.37 205.609 61.37C205.729 61.37 205.842 61.36 205.949 61.34C206.062 61.3133 206.162 61.2733 206.249 61.22C206.342 61.1667 206.416 61.0967 206.469 61.01C206.522 60.9233 206.549 60.8133 206.549 60.68C206.549 60.46 206.442 60.2967 206.229 60.19C206.022 60.0833 205.716 59.9833 205.309 59.89C205.149 59.85 204.986 59.8033 204.819 59.75C204.659 59.69 204.512 59.61 204.379 59.51C204.246 59.41 204.136 59.2867 204.049 59.14C203.969 58.9867 203.929 58.8 203.929 58.58C203.929 58.3267 203.979 58.11 204.079 57.93C204.186 57.7433 204.322 57.5933 204.489 57.48C204.656 57.36 204.846 57.2733 205.059 57.22C205.272 57.16 205.492 57.13 205.719 57.13C206.059 57.13 206.386 57.1967 206.699 57.33C207.019 57.4633 207.266 57.6567 207.439 57.91L206.789 58.46Z" fill="#4D4D4D"/>
<mask id="mask0_2345_13955" style="mask-type:alpha" maskUnits="userSpaceOnUse" x="253" y="24" width="25" height="24">
<rect x="253.5" y="24" width="24" height="24" fill="#D9D9D9"/>
</mask>
<g mask="url(#mask0_2345_13955)">
<path d="M256 45.0385V28.3077C256 27.8026 256.175 27.375 256.525 27.025C256.875 26.675 257.303 26.5 257.808 26.5H273.192C273.697 26.5 274.125 26.675 274.475 27.025C274.825 27.375 275 27.8026 275 28.3077V39.6923C275 40.1974 274.825 40.625 274.475 40.975C274.125 41.325 273.697 41.5 273.192 41.5H259.538L256 45.0385ZM258.9 40H273.192C273.269 40 273.34 39.9679 273.404 39.9038C273.468 39.8398 273.5 39.7692 273.5 39.6923V28.3077C273.5 28.2307 273.468 28.1602 273.404 28.0962C273.34 28.0321 273.269 28 273.192 28H257.808C257.731 28 257.66 28.0321 257.596 28.0962C257.532 28.1602 257.5 28.2307 257.5 28.3077V41.3848L258.9 40Z" fill="#35A8F7"/>
</g>
<path d="M247.237 60.36H247.257L249.347 54.92H250.887V62H249.897V56.08H249.877L247.527 62H246.897L244.557 56.08H244.537V62H243.577V54.92H245.117L247.237 60.36ZM256.03 59.21C256.023 59.0233 255.99 58.85 255.93 58.69C255.877 58.5233 255.793 58.38 255.68 58.26C255.573 58.14 255.437 58.0467 255.27 57.98C255.11 57.9067 254.92 57.87 254.7 57.87C254.5 57.87 254.31 57.9067 254.13 57.98C253.957 58.0467 253.803 58.14 253.67 58.26C253.543 58.38 253.437 58.5233 253.35 58.69C253.27 58.85 253.223 59.0233 253.21 59.21H256.03ZM256.98 59.59C256.98 59.6433 256.98 59.6967 256.98 59.75C256.98 59.8033 256.977 59.8567 256.97 59.91H253.21C253.217 60.11 253.26 60.3 253.34 60.48C253.427 60.6533 253.54 60.8067 253.68 60.94C253.82 61.0667 253.98 61.1667 254.16 61.24C254.347 61.3133 254.543 61.35 254.75 61.35C255.07 61.35 255.347 61.28 255.58 61.14C255.813 61 255.997 60.83 256.13 60.63L256.79 61.16C256.537 61.4933 256.237 61.74 255.89 61.9C255.55 62.0533 255.17 62.13 254.75 62.13C254.39 62.13 254.057 62.07 253.75 61.95C253.443 61.83 253.18 61.6633 252.96 61.45C252.74 61.23 252.567 60.9667 252.44 60.66C252.313 60.3533 252.25 60.0133 252.25 59.64C252.25 59.2733 252.31 58.9367 252.43 58.63C252.557 58.3167 252.73 58.05 252.95 57.83C253.17 57.61 253.43 57.44 253.73 57.32C254.03 57.1933 254.353 57.13 254.7 57.13C255.047 57.13 255.36 57.1867 255.64 57.3C255.927 57.4133 256.167 57.5767 256.36 57.79C256.56 58.0033 256.713 58.2633 256.82 58.57C256.927 58.87 256.98 59.21 256.98 59.59ZM260.852 58.46C260.746 58.2867 260.596 58.1467 260.402 58.04C260.209 57.9267 259.992 57.87 259.752 57.87C259.646 57.87 259.539 57.8833 259.432 57.91C259.326 57.93 259.229 57.9667 259.142 58.02C259.062 58.0667 258.996 58.13 258.942 58.21C258.896 58.2833 258.872 58.3767 258.872 58.49C258.872 58.69 258.962 58.84 259.142 58.94C259.322 59.0333 259.592 59.12 259.952 59.2C260.179 59.2533 260.389 59.3167 260.582 59.39C260.776 59.4633 260.942 59.5567 261.082 59.67C261.229 59.7767 261.342 59.9067 261.422 60.06C261.502 60.2133 261.542 60.3933 261.542 60.6C261.542 60.88 261.489 61.1167 261.382 61.31C261.276 61.5033 261.132 61.6633 260.952 61.79C260.779 61.91 260.579 61.9967 260.352 62.05C260.126 62.1033 259.892 62.13 259.652 62.13C259.292 62.13 258.939 62.06 258.592 61.92C258.252 61.78 257.969 61.5667 257.742 61.28L258.412 60.71C258.539 60.8967 258.712 61.0533 258.932 61.18C259.159 61.3067 259.406 61.37 259.672 61.37C259.792 61.37 259.906 61.36 260.012 61.34C260.126 61.3133 260.226 61.2733 260.312 61.22C260.406 61.1667 260.479 61.0967 260.532 61.01C260.586 60.9233 260.612 60.8133 260.612 60.68C260.612 60.46 260.506 60.2967 260.292 60.19C260.086 60.0833 259.779 59.9833 259.372 59.89C259.212 59.85 259.049 59.8033 258.882 59.75C258.722 59.69 258.576 59.61 258.442 59.51C258.309 59.41 258.199 59.2867 258.112 59.14C258.032 58.9867 257.992 58.8 257.992 58.58C257.992 58.3267 258.042 58.11 258.142 57.93C258.249 57.7433 258.386 57.5933 258.552 57.48C258.719 57.36 258.909 57.2733 259.122 57.22C259.336 57.16 259.556 57.13 259.782 57.13C260.122 57.13 260.449 57.1967 260.762 57.33C261.082 57.4633 261.329 57.6567 261.502 57.91L260.852 58.46ZM265.296 58.46C265.189 58.2867 265.039 58.1467 264.846 58.04C264.652 57.9267 264.436 57.87 264.196 57.87C264.089 57.87 263.982 57.8833 263.876 57.91C263.769 57.93 263.672 57.9667 263.586 58.02C263.506 58.0667 263.439 58.13 263.386 58.21C263.339 58.2833 263.316 58.3767 263.316 58.49C263.316 58.69 263.406 58.84 263.586 58.94C263.766 59.0333 264.036 59.12 264.396 59.2C264.622 59.2533 264.832 59.3167 265.026 59.39C265.219 59.4633 265.386 59.5567 265.526 59.67C265.672 59.7767 265.786 59.9067 265.866 60.06C265.946 60.2133 265.986 60.3933 265.986 60.6C265.986 60.88 265.932 61.1167 265.826 61.31C265.719 61.5033 265.576 61.6633 265.396 61.79C265.222 61.91 265.022 61.9967 264.796 62.05C264.569 62.1033 264.336 62.13 264.096 62.13C263.736 62.13 263.382 62.06 263.036 61.92C262.696 61.78 262.412 61.5667 262.186 61.28L262.856 60.71C262.982 60.8967 263.156 61.0533 263.376 61.18C263.602 61.3067 263.849 61.37 264.116 61.37C264.236 61.37 264.349 61.36 264.456 61.34C264.569 61.3133 264.669 61.2733 264.756 61.22C264.849 61.1667 264.922 61.0967 264.976 61.01C265.029 60.9233 265.056 60.8133 265.056 60.68C265.056 60.46 264.949 60.2967 264.736 60.19C264.529 60.0833 264.222 59.9833 263.816 59.89C263.656 59.85 263.492 59.8033 263.326 59.75C263.166 59.69 263.019 59.61 262.886 59.51C262.752 59.41 262.642 59.2867 262.556 59.14C262.476 58.9867 262.436 58.8 262.436 58.58C262.436 58.3267 262.486 58.11 262.586 57.93C262.692 57.7433 262.829 57.5933 262.996 57.48C263.162 57.36 263.352 57.2733 263.566 57.22C263.779 57.16 263.999 57.13 264.226 57.13C264.566 57.13 264.892 57.1967 265.206 57.33C265.526 57.4633 265.772 57.6567 265.946 57.91L265.296 58.46ZM270.129 58.93C270.129 58.5767 270.022 58.3167 269.809 58.15C269.596 57.9767 269.312 57.89 268.959 57.89C268.692 57.89 268.439 57.9433 268.199 58.05C267.966 58.15 267.769 58.28 267.609 58.44L267.109 57.84C267.342 57.62 267.626 57.4467 267.959 57.32C268.299 57.1933 268.662 57.13 269.049 57.13C269.389 57.13 269.682 57.18 269.929 57.28C270.182 57.3733 270.389 57.5033 270.549 57.67C270.709 57.8367 270.829 58.0333 270.909 58.26C270.989 58.4867 271.029 58.73 271.029 58.99V61.06C271.029 61.22 271.032 61.39 271.039 61.57C271.052 61.7433 271.072 61.8867 271.099 62H270.249C270.196 61.7733 270.169 61.5467 270.169 61.32H270.139C269.966 61.5733 269.746 61.77 269.479 61.91C269.219 62.05 268.909 62.12 268.549 62.12C268.362 62.12 268.166 62.0933 267.959 62.04C267.759 61.9933 267.576 61.9133 267.409 61.8C267.242 61.6867 267.102 61.5367 266.989 61.35C266.882 61.1633 266.829 60.9333 266.829 60.66C266.829 60.3 266.926 60.0167 267.119 59.81C267.312 59.5967 267.566 59.4367 267.879 59.33C268.192 59.2167 268.546 59.1433 268.939 59.11C269.332 59.0767 269.729 59.06 270.129 59.06V58.93ZM269.899 59.74C269.666 59.74 269.422 59.75 269.169 59.77C268.922 59.79 268.696 59.83 268.489 59.89C268.289 59.95 268.122 60.04 267.989 60.16C267.856 60.28 267.789 60.44 267.789 60.64C267.789 60.78 267.816 60.8967 267.869 60.99C267.929 61.0833 268.006 61.16 268.099 61.22C268.192 61.28 268.296 61.3233 268.409 61.35C268.522 61.37 268.639 61.38 268.759 61.38C269.199 61.38 269.536 61.25 269.769 60.99C270.009 60.7233 270.129 60.39 270.129 59.99V59.74H269.899ZM272.969 62.81C273.176 63.0433 273.432 63.23 273.739 63.37C274.052 63.51 274.372 63.58 274.699 63.58C275.012 63.58 275.276 63.5333 275.489 63.44C275.702 63.3533 275.872 63.23 275.999 63.07C276.132 62.9167 276.226 62.7333 276.279 62.52C276.339 62.3067 276.369 62.0767 276.369 61.83V61.22H276.349C276.176 61.4867 275.939 61.69 275.639 61.83C275.339 61.97 275.019 62.04 274.679 62.04C274.319 62.04 273.989 61.9767 273.689 61.85C273.396 61.7233 273.146 61.55 272.939 61.33C272.732 61.11 272.572 60.8533 272.459 60.56C272.346 60.26 272.289 59.94 272.289 59.6C272.289 59.26 272.346 58.94 272.459 58.64C272.572 58.34 272.732 58.08 272.939 57.86C273.146 57.6333 273.396 57.4567 273.689 57.33C273.982 57.1967 274.309 57.13 274.669 57.13C275.009 57.13 275.332 57.2033 275.639 57.35C275.952 57.4967 276.199 57.72 276.379 58.02H276.399V57.26H277.309V61.76C277.309 62.1067 277.266 62.4367 277.179 62.75C277.092 63.07 276.946 63.35 276.739 63.59C276.532 63.8367 276.262 64.0333 275.929 64.18C275.596 64.3267 275.182 64.4 274.689 64.4C274.276 64.4 273.859 64.3233 273.439 64.17C273.026 64.0233 272.669 63.8133 272.369 63.54L272.969 62.81ZM273.259 59.58C273.259 59.8 273.292 60.01 273.359 60.21C273.432 60.41 273.536 60.5867 273.669 60.74C273.809 60.8933 273.976 61.0167 274.169 61.11C274.362 61.2033 274.582 61.25 274.829 61.25C275.069 61.25 275.289 61.2067 275.489 61.12C275.689 61.0333 275.859 60.9167 275.999 60.77C276.139 60.6167 276.246 60.44 276.319 60.24C276.399 60.0333 276.439 59.8133 276.439 59.58C276.439 59.3533 276.399 59.14 276.319 58.94C276.246 58.74 276.136 58.5633 275.989 58.41C275.849 58.2567 275.679 58.1367 275.479 58.05C275.286 57.9567 275.069 57.91 274.829 57.91C274.582 57.91 274.362 57.9567 274.169 58.05C273.976 58.1367 273.809 58.2567 273.669 58.41C273.536 58.5567 273.432 58.7333 273.359 58.94C273.292 59.14 273.259 59.3533 273.259 59.58ZM282.387 59.21C282.381 59.0233 282.347 58.85 282.287 58.69C282.234 58.5233 282.151 58.38 282.037 58.26C281.931 58.14 281.794 58.0467 281.627 57.98C281.467 57.9067 281.277 57.87 281.057 57.87C280.857 57.87 280.667 57.9067 280.487 57.98C280.314 58.0467 280.161 58.14 280.027 58.26C279.901 58.38 279.794 58.5233 279.707 58.69C279.627 58.85 279.581 59.0233 279.567 59.21H282.387ZM283.337 59.59C283.337 59.6433 283.337 59.6967 283.337 59.75C283.337 59.8033 283.334 59.8567 283.327 59.91H279.567C279.574 60.11 279.617 60.3 279.697 60.48C279.784 60.6533 279.897 60.8067 280.037 60.94C280.177 61.0667 280.337 61.1667 280.517 61.24C280.704 61.3133 280.901 61.35 281.107 61.35C281.427 61.35 281.704 61.28 281.937 61.14C282.171 61 282.354 60.83 282.487 60.63L283.147 61.16C282.894 61.4933 282.594 61.74 282.247 61.9C281.907 62.0533 281.527 62.13 281.107 62.13C280.747 62.13 280.414 62.07 280.107 61.95C279.801 61.83 279.537 61.6633 279.317 61.45C279.097 61.23 278.924 60.9667 278.797 60.66C278.671 60.3533 278.607 60.0133 278.607 59.64C278.607 59.2733 278.667 58.9367 278.787 58.63C278.914 58.3167 279.087 58.05 279.307 57.83C279.527 57.61 279.787 57.44 280.087 57.32C280.387 57.1933 280.711 57.13 281.057 57.13C281.404 57.13 281.717 57.1867 281.997 57.3C282.284 57.4133 282.524 57.5767 282.717 57.79C282.917 58.0033 283.071 58.2633 283.177 58.57C283.284 58.87 283.337 59.21 283.337 59.59ZM287.21 58.46C287.103 58.2867 286.953 58.1467 286.76 58.04C286.567 57.9267 286.35 57.87 286.11 57.87C286.003 57.87 285.897 57.8833 285.79 57.91C285.683 57.93 285.587 57.9667 285.5 58.02C285.42 58.0667 285.353 58.13 285.3 58.21C285.253 58.2833 285.23 58.3767 285.23 58.49C285.23 58.69 285.32 58.84 285.5 58.94C285.68 59.0333 285.95 59.12 286.31 59.2C286.537 59.2533 286.747 59.3167 286.94 59.39C287.133 59.4633 287.3 59.5567 287.44 59.67C287.587 59.7767 287.7 59.9067 287.78 60.06C287.86 60.2133 287.9 60.3933 287.9 60.6C287.9 60.88 287.847 61.1167 287.74 61.31C287.633 61.5033 287.49 61.6633 287.31 61.79C287.137 61.91 286.937 61.9967 286.71 62.05C286.483 62.1033 286.25 62.13 286.01 62.13C285.65 62.13 285.297 62.06 284.95 61.92C284.61 61.78 284.327 61.5667 284.1 61.28L284.77 60.71C284.897 60.8967 285.07 61.0533 285.29 61.18C285.517 61.3067 285.763 61.37 286.03 61.37C286.15 61.37 286.263 61.36 286.37 61.34C286.483 61.3133 286.583 61.2733 286.67 61.22C286.763 61.1667 286.837 61.0967 286.89 61.01C286.943 60.9233 286.97 60.8133 286.97 60.68C286.97 60.46 286.863 60.2967 286.65 60.19C286.443 60.0833 286.137 59.9833 285.73 59.89C285.57 59.85 285.407 59.8033 285.24 59.75C285.08 59.69 284.933 59.61 284.8 59.51C284.667 59.41 284.557 59.2867 284.47 59.14C284.39 58.9867 284.35 58.8 284.35 58.58C284.35 58.3267 284.4 58.11 284.5 57.93C284.607 57.7433 284.743 57.5933 284.91 57.48C285.077 57.36 285.267 57.2733 285.48 57.22C285.693 57.16 285.913 57.13 286.14 57.13C286.48 57.13 286.807 57.1967 287.12 57.33C287.44 57.4633 287.687 57.6567 287.86 57.91L287.21 58.46Z" fill="#35A8F7"/>
<path d="M348.003 24C341.384 24 336 29.3784 336 35.9971C336 39.1836 337.248 42.0842 339.281 44.2349C341.471 46.5514 344.571 48 348.003 48C354.622 48 360 42.6158 360 35.9971C360 29.3784 354.622 24 348.003 24ZM348.003 25.5C353.811 25.5 358.5 30.1894 358.5 35.9971C358.5 38.2949 357.765 40.4174 356.518 42.1452C355.616 39.6017 353.574 37.5946 350.995 36.7058C352.206 35.7936 352.99 34.3452 352.99 32.7197C352.99 29.9729 350.749 27.7255 348.003 27.7255C345.256 27.7255 343.013 29.9727 343.013 32.7197C343.013 34.3453 343.8 35.7938 345.01 36.7058C342.43 37.5936 340.384 39.6 339.481 42.1433C338.234 40.4164 337.5 38.2939 337.5 35.9971C337.5 30.1894 342.195 25.5 348.003 25.5ZM348.003 29.2265C349.939 29.2265 351.49 30.7846 351.49 32.7206C351.49 34.6566 349.939 36.2081 348.003 36.2081C346.067 36.2081 344.514 34.6565 344.514 32.7206C344.514 30.7847 346.067 29.2265 348.003 29.2265ZM348.003 37.7081C351.635 37.7081 354.622 40.1849 355.352 43.5019C353.46 45.3572 350.868 46.5 348.003 46.5C345.139 46.5 342.546 45.3581 340.652 43.5048C341.381 40.187 344.369 37.7081 348.003 37.7081Z" fill="#4D4D4D"/>
<path d="M334.304 54.92H336.464C336.844 54.92 337.191 54.96 337.504 55.04C337.818 55.1133 338.084 55.23 338.304 55.39C338.524 55.55 338.694 55.7533 338.814 56C338.934 56.2467 338.994 56.5433 338.994 56.89C338.994 57.2433 338.928 57.5467 338.794 57.8C338.668 58.0533 338.488 58.26 338.254 58.42C338.028 58.58 337.754 58.7 337.434 58.78C337.121 58.8533 336.781 58.89 336.414 58.89H335.294V62H334.304V54.92ZM335.294 58.05H336.344C336.584 58.05 336.804 58.03 337.004 57.99C337.211 57.9433 337.388 57.8767 337.534 57.79C337.681 57.6967 337.794 57.5767 337.874 57.43C337.954 57.2833 337.994 57.1033 337.994 56.89C337.994 56.6767 337.951 56.5 337.864 56.36C337.784 56.2133 337.671 56.0967 337.524 56.01C337.384 55.9167 337.214 55.8533 337.014 55.82C336.814 55.78 336.598 55.76 336.364 55.76H335.294V58.05ZM339.743 58.28C339.743 58.1533 339.739 57.99 339.733 57.79C339.726 57.59 339.716 57.4133 339.703 57.26H340.593C340.606 57.38 340.616 57.52 340.623 57.68C340.629 57.8333 340.633 57.96 340.633 58.06H340.663C340.796 57.78 340.989 57.5567 341.243 57.39C341.503 57.2167 341.793 57.13 342.113 57.13C342.259 57.13 342.383 57.1433 342.483 57.17L342.443 58.04C342.309 58.0067 342.166 57.99 342.013 57.99C341.786 57.99 341.589 58.0333 341.423 58.12C341.256 58.2 341.116 58.31 341.003 58.45C340.896 58.59 340.816 58.7533 340.763 58.94C340.709 59.12 340.683 59.31 340.683 59.51V62H339.743V58.28ZM347.99 59.62C347.99 59.9867 347.923 60.3233 347.79 60.63C347.663 60.9367 347.483 61.2033 347.25 61.43C347.023 61.65 346.753 61.8233 346.44 61.95C346.127 62.07 345.79 62.13 345.43 62.13C345.07 62.13 344.733 62.07 344.42 61.95C344.107 61.8233 343.837 61.65 343.61 61.43C343.383 61.2033 343.203 60.9367 343.07 60.63C342.943 60.3233 342.88 59.9867 342.88 59.62C342.88 59.2533 342.943 58.92 343.07 58.62C343.203 58.3133 343.383 58.05 343.61 57.83C343.837 57.61 344.107 57.44 344.42 57.32C344.733 57.1933 345.07 57.13 345.43 57.13C345.79 57.13 346.127 57.1933 346.44 57.32C346.753 57.44 347.023 57.61 347.25 57.83C347.483 58.05 347.663 58.3133 347.79 58.62C347.923 58.92 347.99 59.2533 347.99 59.62ZM347.01 59.62C347.01 59.3933 346.973 59.1767 346.9 58.97C346.833 58.7633 346.733 58.5833 346.6 58.43C346.467 58.27 346.3 58.1433 346.1 58.05C345.907 57.9567 345.683 57.91 345.43 57.91C345.177 57.91 344.95 57.9567 344.75 58.05C344.557 58.1433 344.393 58.27 344.26 58.43C344.127 58.5833 344.023 58.7633 343.95 58.97C343.883 59.1767 343.85 59.3933 343.85 59.62C343.85 59.8467 343.883 60.0633 343.95 60.27C344.023 60.4767 344.127 60.66 344.26 60.82C344.393 60.98 344.557 61.1067 344.75 61.2C344.95 61.2933 345.177 61.34 345.43 61.34C345.683 61.34 345.907 61.2933 346.1 61.2C346.3 61.1067 346.467 60.98 346.6 60.82C346.733 60.66 346.833 60.4767 346.9 60.27C346.973 60.0633 347.01 59.8467 347.01 59.62ZM351.523 58.03H350.423V62H349.483V58.03H348.543V57.26H349.483V56.27C349.483 55.99 349.513 55.7333 349.573 55.5C349.64 55.26 349.743 55.0533 349.883 54.88C350.03 54.7067 350.213 54.57 350.433 54.47C350.66 54.37 350.933 54.32 351.253 54.32C351.48 54.32 351.677 54.3433 351.843 54.39L351.733 55.2C351.66 55.18 351.587 55.1633 351.513 55.15C351.44 55.1367 351.357 55.13 351.263 55.13C351.083 55.13 350.937 55.1633 350.823 55.23C350.717 55.29 350.633 55.3733 350.573 55.48C350.513 55.5867 350.473 55.71 350.453 55.85C350.433 55.9833 350.423 56.1233 350.423 56.27V57.26H351.523V58.03ZM353.393 62H352.453V57.26H353.393V62ZM353.553 55.55C353.553 55.7233 353.49 55.8667 353.363 55.98C353.243 56.0933 353.097 56.15 352.923 56.15C352.75 56.15 352.603 56.0933 352.483 55.98C352.363 55.86 352.303 55.7167 352.303 55.55C352.303 55.3767 352.363 55.2333 352.483 55.12C352.603 55 352.75 54.94 352.923 54.94C353.097 54.94 353.243 55 353.363 55.12C353.49 55.2333 353.553 55.3767 353.553 55.55ZM355.996 62H355.056V54.44H355.996V62ZM361.103 59.21C361.097 59.0233 361.063 58.85 361.003 58.69C360.95 58.5233 360.867 58.38 360.753 58.26C360.647 58.14 360.51 58.0467 360.343 57.98C360.183 57.9067 359.993 57.87 359.773 57.87C359.573 57.87 359.383 57.9067 359.203 57.98C359.03 58.0467 358.877 58.14 358.743 58.26C358.617 58.38 358.51 58.5233 358.423 58.69C358.343 58.85 358.297 59.0233 358.283 59.21H361.103ZM362.053 59.59C362.053 59.6433 362.053 59.6967 362.053 59.75C362.053 59.8033 362.05 59.8567 362.043 59.91H358.283C358.29 60.11 358.333 60.3 358.413 60.48C358.5 60.6533 358.613 60.8067 358.753 60.94C358.893 61.0667 359.053 61.1667 359.233 61.24C359.42 61.3133 359.617 61.35 359.823 61.35C360.143 61.35 360.42 61.28 360.653 61.14C360.887 61 361.07 60.83 361.203 60.63L361.863 61.16C361.61 61.4933 361.31 61.74 360.963 61.9C360.623 62.0533 360.243 62.13 359.823 62.13C359.463 62.13 359.13 62.07 358.823 61.95C358.517 61.83 358.253 61.6633 358.033 61.45C357.813 61.23 357.64 60.9667 357.513 60.66C357.387 60.3533 357.323 60.0133 357.323 59.64C357.323 59.2733 357.383 58.9367 357.503 58.63C357.63 58.3167 357.803 58.05 358.023 57.83C358.243 57.61 358.503 57.44 358.803 57.32C359.103 57.1933 359.427 57.13 359.773 57.13C360.12 57.13 360.433 57.1867 360.713 57.3C361 57.4133 361.24 57.5767 361.433 57.79C361.633 58.0033 361.787 58.2633 361.893 58.57C362 58.87 362.053 59.21 362.053 59.59Z" fill="#4D4D4D"/>
</svg>
