<svg width="36" height="12" viewBox="0 0 36 12" fill="none" xmlns="http://www.w3.org/2000/svg">
<path d="M10.576 5.632C10.576 6.624 10.3893 7.48267 10.016 8.208C9.65333 8.92267 9.168 9.51467 8.56 9.984C7.96267 10.4427 7.28533 10.784 6.528 11.008C5.77067 11.2213 5.00267 11.328 4.224 11.328H8.34465e-07V2.86102e-06H4.096C4.896 2.86102e-06 5.68533 0.0960026 6.464 0.288002C7.24267 0.469336 7.936 0.778669 8.544 1.216C9.152 1.64267 9.64267 2.21867 10.016 2.944C10.3893 3.66934 10.576 4.56534 10.576 5.632ZM7.728 5.632C7.728 4.992 7.62133 4.464 7.408 4.048C7.20533 3.62134 6.928 3.28534 6.576 3.04C6.23467 2.784 5.84 2.60267 5.392 2.496C4.95467 2.38934 4.50133 2.336 4.032 2.336H2.672V8.96H3.968C4.45867 8.96 4.928 8.90667 5.376 8.8C5.83467 8.68267 6.23467 8.496 6.576 8.24C6.928 7.984 7.20533 7.64267 7.408 7.216C7.62133 6.78934 7.728 6.26134 7.728 5.632ZM16.9506 7.856H16.6146C16.3266 7.856 16.0333 7.872 15.7346 7.904C15.4466 7.92534 15.1853 7.97334 14.9506 8.048C14.7266 8.12267 14.54 8.23467 14.3906 8.384C14.2413 8.52267 14.1666 8.70934 14.1666 8.944C14.1666 9.09334 14.1986 9.22134 14.2626 9.328C14.3373 9.43467 14.428 9.52 14.5346 9.584C14.6413 9.648 14.764 9.696 14.9026 9.728C15.0413 9.74934 15.1746 9.76 15.3026 9.76C15.836 9.76 16.2413 9.616 16.5186 9.328C16.8066 9.02934 16.9506 8.62934 16.9506 8.128V7.856ZM12.1346 4.448C12.604 4 13.148 3.664 13.7666 3.44C14.396 3.216 15.036 3.104 15.6866 3.104C16.3586 3.104 16.924 3.18934 17.3826 3.36C17.852 3.52 18.2306 3.776 18.5186 4.128C18.8066 4.46934 19.0146 4.90667 19.1426 5.44C19.2813 5.96267 19.3506 6.58667 19.3506 7.312V11.328H16.9506V10.48H16.9026C16.7 10.8107 16.3906 11.0667 15.9746 11.248C15.5693 11.4293 15.1266 11.52 14.6466 11.52C14.3266 11.52 13.996 11.4773 13.6546 11.392C13.3133 11.3067 12.9986 11.168 12.7106 10.976C12.4333 10.784 12.204 10.528 12.0226 10.208C11.8413 9.888 11.7506 9.49334 11.7506 9.024C11.7506 8.448 11.9053 7.984 12.2146 7.632C12.5346 7.28 12.94 7.008 13.4306 6.816C13.932 6.624 14.4866 6.496 15.0946 6.432C15.7026 6.368 16.2946 6.336 16.8706 6.336V6.208C16.8706 5.81334 16.732 5.52534 16.4546 5.344C16.1773 5.152 15.836 5.056 15.4306 5.056C15.0573 5.056 14.6946 5.136 14.3426 5.296C14.0013 5.456 13.708 5.648 13.4626 5.872L12.1346 4.448ZM24.0009 5.328V8.368C24.0009 8.74134 24.0702 9.024 24.2089 9.216C24.3582 9.39734 24.6195 9.488 24.9929 9.488C25.1209 9.488 25.2542 9.47734 25.3929 9.456C25.5422 9.43467 25.6649 9.40267 25.7609 9.36L25.7929 11.28C25.6115 11.344 25.3822 11.3973 25.1049 11.44C24.8275 11.4933 24.5502 11.52 24.2729 11.52C23.7395 11.52 23.2915 11.456 22.9289 11.328C22.5662 11.1893 22.2729 10.9973 22.0489 10.752C21.8355 10.496 21.6809 10.1973 21.5849 9.856C21.4889 9.504 21.4409 9.11467 21.4409 8.688V5.328H20.1609V3.36H21.4249V1.264H24.0009V3.36H25.8729V5.328H24.0009ZM32.594 6.432C32.594 6.016 32.4607 5.65867 32.194 5.36C31.938 5.06134 31.5487 4.912 31.026 4.912C30.77 4.912 30.5353 4.95467 30.322 5.04C30.1087 5.11467 29.922 5.22134 29.762 5.36C29.602 5.49867 29.474 5.664 29.378 5.856C29.282 6.03734 29.2287 6.22934 29.218 6.432H32.594ZM35.01 7.44C35.01 7.54667 35.01 7.65334 35.01 7.76C35.01 7.86667 35.0047 7.968 34.994 8.064H29.218C29.2393 8.288 29.3033 8.49067 29.41 8.672C29.5273 8.85334 29.6713 9.01334 29.842 9.152C30.0233 9.28 30.2207 9.38134 30.434 9.456C30.658 9.53067 30.8873 9.568 31.122 9.568C31.538 9.568 31.89 9.49334 32.178 9.344C32.466 9.184 32.7007 8.98134 32.882 8.736L34.706 9.888C34.3327 10.432 33.8367 10.8533 33.218 11.152C32.61 11.44 31.9007 11.584 31.09 11.584C30.4927 11.584 29.9273 11.4933 29.394 11.312C28.8607 11.12 28.3913 10.848 27.986 10.496C27.5913 10.1333 27.2767 9.69067 27.042 9.168C26.818 8.64534 26.706 8.048 26.706 7.376C26.706 6.72534 26.818 6.13867 27.042 5.616C27.266 5.08267 27.57 4.63467 27.954 4.272C28.338 3.89867 28.7913 3.61067 29.314 3.408C29.8367 3.20534 30.402 3.104 31.01 3.104C31.5967 3.104 32.1353 3.20534 32.626 3.408C33.1167 3.6 33.538 3.88267 33.89 4.256C34.242 4.62934 34.514 5.08267 34.706 5.616C34.9087 6.14934 35.01 6.75734 35.01 7.44Z" fill="black"/>
</svg>
