<svg width="56" height="13" viewBox="0 0 56 13" fill="none" xmlns="http://www.w3.org/2000/svg">
<path d="M10.576 6.70402C10.576 7.69602 10.3893 8.55469 10.016 9.28002C9.65333 9.99469 9.168 10.5867 8.56 11.056C7.96267 11.5147 7.28533 11.856 6.528 12.08C5.77067 12.2934 5.00267 12.4 4.224 12.4H8.34465e-07V1.07202H4.096C4.896 1.07202 5.68533 1.16802 6.464 1.36002C7.24267 1.54136 7.936 1.85069 8.544 2.28802C9.152 2.71469 9.64267 3.29069 10.016 4.01602C10.3893 4.74136 10.576 5.63736 10.576 6.70402ZM7.728 6.70402C7.728 6.06402 7.62133 5.53602 7.408 5.12002C7.20533 4.69336 6.928 4.35736 6.576 4.11202C6.23467 3.85602 5.84 3.67469 5.392 3.56802C4.95467 3.46136 4.50133 3.40802 4.032 3.40802H2.672V10.032H3.968C4.45867 10.032 4.928 9.97869 5.376 9.87202C5.83467 9.75469 6.23467 9.56802 6.576 9.31202C6.928 9.05602 7.20533 8.71469 7.408 8.28802C7.62133 7.86136 7.728 7.33336 7.728 6.70402ZM17.7346 7.50402C17.7346 7.08802 17.6013 6.73069 17.3346 6.43202C17.0786 6.13336 16.6893 5.98402 16.1666 5.98402C15.9106 5.98402 15.676 6.02669 15.4626 6.11202C15.2493 6.18669 15.0626 6.29336 14.9026 6.43202C14.7426 6.57069 14.6146 6.73602 14.5186 6.92802C14.4226 7.10936 14.3693 7.30136 14.3586 7.50402H17.7346ZM20.1506 8.51202C20.1506 8.61869 20.1506 8.72536 20.1506 8.83202C20.1506 8.93869 20.1453 9.04002 20.1346 9.13602H14.3586C14.38 9.36002 14.444 9.56269 14.5506 9.74402C14.668 9.92536 14.812 10.0854 14.9826 10.224C15.164 10.352 15.3613 10.4534 15.5746 10.528C15.7986 10.6027 16.028 10.64 16.2626 10.64C16.6786 10.64 17.0306 10.5654 17.3186 10.416C17.6066 10.256 17.8413 10.0534 18.0226 9.80802L19.8466 10.96C19.4733 11.504 18.9773 11.9254 18.3586 12.224C17.7506 12.512 17.0413 12.656 16.2306 12.656C15.6333 12.656 15.068 12.5654 14.5346 12.384C14.0013 12.192 13.532 11.92 13.1266 11.568C12.732 11.2054 12.4173 10.7627 12.1826 10.24C11.9586 9.71736 11.8466 9.12002 11.8466 8.44802C11.8466 7.79736 11.9586 7.21069 12.1826 6.68802C12.4066 6.15469 12.7106 5.70669 13.0946 5.34402C13.4786 4.97069 13.932 4.68269 14.4546 4.48002C14.9773 4.27736 15.5426 4.17602 16.1506 4.17602C16.7373 4.17602 17.276 4.27736 17.7666 4.48002C18.2573 4.67202 18.6786 4.95469 19.0306 5.32802C19.3826 5.70136 19.6546 6.15469 19.8466 6.68802C20.0493 7.22136 20.1506 7.82936 20.1506 8.51202ZM26.7219 2.24002C26.6259 2.20802 26.5139 2.18136 26.3859 2.16002C26.2579 2.13869 26.1299 2.12802 26.0019 2.12802C25.7565 2.12802 25.5592 2.17069 25.4099 2.25602C25.2605 2.34136 25.1432 2.45869 25.0579 2.60802C24.9725 2.74669 24.9139 2.90669 24.8819 3.08802C24.8499 3.26936 24.8339 3.45069 24.8339 3.63202V4.43202H26.6099V6.40002H24.8339V12.4H22.2099V6.40002H20.7539V4.43202H22.2099V3.66402C22.2099 3.17336 22.2632 2.70936 22.3699 2.27202C22.4765 1.82402 22.6579 1.43469 22.9139 1.10402C23.1805 0.762691 23.5325 0.496024 23.9699 0.304024C24.4179 0.101357 24.9725 2.38419e-05 25.6339 2.38419e-05C25.8579 2.38419e-05 26.0765 0.016024 26.2899 0.0480242C26.5139 0.0693572 26.7165 0.10669 26.8979 0.160024L26.7219 2.24002ZM32.31 8.92802H31.974C31.686 8.92802 31.3927 8.94402 31.094 8.97602C30.806 8.99736 30.5447 9.04536 30.31 9.12002C30.086 9.19469 29.8993 9.30669 29.75 9.45602C29.6007 9.59469 29.526 9.78136 29.526 10.016C29.526 10.1654 29.558 10.2934 29.622 10.4C29.6967 10.5067 29.7873 10.592 29.894 10.656C30.0007 10.72 30.1233 10.768 30.262 10.8C30.4007 10.8214 30.534 10.832 30.662 10.832C31.1953 10.832 31.6007 10.688 31.878 10.4C32.166 10.1014 32.31 9.70136 32.31 9.20002V8.92802ZM27.494 5.52002C27.9633 5.07202 28.5073 4.73602 29.126 4.51202C29.7553 4.28802 30.3953 4.17602 31.046 4.17602C31.718 4.17602 32.2833 4.26136 32.742 4.43202C33.2113 4.59202 33.59 4.84802 33.878 5.20002C34.166 5.54136 34.374 5.97869 34.502 6.51202C34.6407 7.03469 34.71 7.65869 34.71 8.38402V12.4H32.31V11.552H32.262C32.0593 11.8827 31.75 12.1387 31.334 12.32C30.9287 12.5014 30.486 12.592 30.006 12.592C29.686 12.592 29.3553 12.5494 29.014 12.464C28.6727 12.3787 28.358 12.24 28.07 12.048C27.7927 11.856 27.5633 11.6 27.382 11.28C27.2007 10.96 27.11 10.5654 27.11 10.096C27.11 9.52002 27.2647 9.05602 27.574 8.70402C27.894 8.35202 28.2993 8.08002 28.79 7.88802C29.2913 7.69602 29.846 7.56802 30.454 7.50402C31.062 7.44002 31.654 7.40802 32.23 7.40802V7.28002C32.23 6.88536 32.0913 6.59736 31.814 6.41602C31.5367 6.22402 31.1953 6.12802 30.79 6.12802C30.4167 6.12802 30.054 6.20802 29.702 6.36802C29.3607 6.52802 29.0673 6.72002 28.822 6.94402L27.494 5.52002ZM41.9165 12.4V11.296H41.8845C41.7885 11.4774 41.6605 11.648 41.5005 11.808C41.3512 11.968 41.1698 12.1067 40.9565 12.224C40.7538 12.3414 40.5245 12.4374 40.2685 12.512C40.0232 12.5867 39.7618 12.624 39.4845 12.624C38.9512 12.624 38.4978 12.528 38.1245 12.336C37.7618 12.144 37.4632 11.8987 37.2285 11.6C37.0045 11.2907 36.8392 10.944 36.7325 10.56C36.6365 10.1654 36.5885 9.76536 36.5885 9.36002V4.43202H39.2285V8.75202C39.2285 8.97602 39.2445 9.18936 39.2765 9.39202C39.3085 9.59469 39.3672 9.77602 39.4525 9.93602C39.5485 10.096 39.6712 10.224 39.8205 10.32C39.9698 10.4054 40.1672 10.448 40.4125 10.448C40.8712 10.448 41.2178 10.2774 41.4525 9.93602C41.6978 9.59469 41.8205 9.19469 41.8205 8.73602V4.43202H44.4445V12.4H41.9165ZM46.5286 12.4V0.304024H49.1846V12.4H46.5286ZM54.1103 6.40002V9.44002C54.1103 9.81336 54.1796 10.096 54.3183 10.288C54.4676 10.4694 54.7289 10.56 55.1023 10.56C55.2303 10.56 55.3636 10.5494 55.5023 10.528C55.6516 10.5067 55.7743 10.4747 55.8703 10.432L55.9023 12.352C55.7209 12.416 55.4916 12.4694 55.2143 12.512C54.9369 12.5654 54.6596 12.592 54.3823 12.592C53.8489 12.592 53.4009 12.528 53.0383 12.4C52.6756 12.2614 52.3823 12.0694 52.1583 11.824C51.9449 11.568 51.7903 11.2694 51.6943 10.928C51.5983 10.576 51.5503 10.1867 51.5503 9.76002V6.40002H50.2703V4.43202H51.5343V2.33602H54.1103V4.43202H55.9823V6.40002H54.1103Z" fill="black"/>
</svg>
