<svg width="38" height="12" viewBox="0 0 38 12" fill="none" xmlns="http://www.w3.org/2000/svg">
<path d="M8.34465e-07 11.328V2.86102e-06H7.616V2.32H2.64V4.448H7.344V6.64H2.64V8.992H7.904V11.328H8.34465e-07ZM14.7428 5.504C14.6254 5.472 14.5081 5.45067 14.3908 5.44C14.2841 5.42934 14.1774 5.424 14.0708 5.424C13.7188 5.424 13.4201 5.488 13.1748 5.616C12.9401 5.744 12.7481 5.89867 12.5988 6.08C12.4601 6.26134 12.3588 6.45867 12.2948 6.672C12.2308 6.88534 12.1988 7.072 12.1988 7.232V11.328H9.57475V3.36H12.1028V4.512H12.1348C12.3374 4.10667 12.6254 3.776 12.9988 3.52C13.3721 3.264 13.8041 3.136 14.2948 3.136C14.4014 3.136 14.5028 3.14134 14.5988 3.152C14.7054 3.16267 14.7908 3.17867 14.8548 3.2L14.7428 5.504ZM21.0865 5.504C20.9692 5.472 20.8518 5.45067 20.7345 5.44C20.6278 5.42934 20.5212 5.424 20.4145 5.424C20.0625 5.424 19.7638 5.488 19.5185 5.616C19.2838 5.744 19.0918 5.89867 18.9425 6.08C18.8038 6.26134 18.7025 6.45867 18.6385 6.672C18.5745 6.88534 18.5425 7.072 18.5425 7.232V11.328H15.9185V3.36H18.4465V4.512H18.4785C18.6812 4.10667 18.9692 3.776 19.3425 3.52C19.7158 3.264 20.1478 3.136 20.6385 3.136C20.7452 3.136 20.8465 3.14134 20.9425 3.152C21.0492 3.16267 21.1345 3.17867 21.1985 3.2L21.0865 5.504ZM30.429 7.312C30.429 7.96267 30.3117 8.55467 30.077 9.088C29.8423 9.61067 29.5223 10.0587 29.117 10.432C28.7117 10.7947 28.2423 11.0773 27.709 11.28C27.1757 11.4827 26.605 11.584 25.997 11.584C25.3997 11.584 24.829 11.4827 24.285 11.28C23.7517 11.0773 23.2823 10.7947 22.877 10.432C22.4823 10.0587 22.1677 9.61067 21.933 9.088C21.6983 8.55467 21.581 7.96267 21.581 7.312C21.581 6.66134 21.6983 6.07467 21.933 5.552C22.1677 5.02934 22.4823 4.58667 22.877 4.224C23.2823 3.86134 23.7517 3.584 24.285 3.392C24.829 3.2 25.3997 3.104 25.997 3.104C26.605 3.104 27.1757 3.2 27.709 3.392C28.2423 3.584 28.7117 3.86134 29.117 4.224C29.5223 4.58667 29.8423 5.02934 30.077 5.552C30.3117 6.07467 30.429 6.66134 30.429 7.312ZM27.901 7.312C27.901 7.056 27.8583 6.80534 27.773 6.56C27.6877 6.31467 27.565 6.10134 27.405 5.92C27.245 5.728 27.0477 5.57334 26.813 5.456C26.5783 5.33867 26.3063 5.28 25.997 5.28C25.6877 5.28 25.4157 5.33867 25.181 5.456C24.9463 5.57334 24.749 5.728 24.589 5.92C24.4397 6.10134 24.3223 6.31467 24.237 6.56C24.1623 6.80534 24.125 7.056 24.125 7.312C24.125 7.568 24.1623 7.81867 24.237 8.064C24.3223 8.30934 24.445 8.53334 24.605 8.736C24.765 8.928 24.9623 9.08267 25.197 9.2C25.4317 9.31734 25.7037 9.376 26.013 9.376C26.3223 9.376 26.5943 9.31734 26.829 9.2C27.0637 9.08267 27.261 8.928 27.421 8.736C27.581 8.53334 27.6983 8.30934 27.773 8.064C27.8583 7.81867 27.901 7.568 27.901 7.312ZM37.2584 5.504C37.141 5.472 37.0237 5.45067 36.9064 5.44C36.7997 5.42934 36.693 5.424 36.5864 5.424C36.2344 5.424 35.9357 5.488 35.6904 5.616C35.4557 5.744 35.2637 5.89867 35.1144 6.08C34.9757 6.26134 34.8744 6.45867 34.8104 6.672C34.7464 6.88534 34.7144 7.072 34.7144 7.232V11.328H32.0904V3.36H34.6184V4.512H34.6504C34.853 4.10667 35.141 3.776 35.5144 3.52C35.8877 3.264 36.3197 3.136 36.8104 3.136C36.917 3.136 37.0184 3.14134 37.1144 3.152C37.221 3.16267 37.3064 3.17867 37.3704 3.2L37.2584 5.504Z" fill="black"/>
</svg>
