<svg width="73" height="13" viewBox="0 0 73 13" fill="none" xmlns="http://www.w3.org/2000/svg">
<path d="M8.592 4.25595C8.592 4.91728 8.46933 5.47728 8.224 5.93595C7.97867 6.38395 7.648 6.74661 7.232 7.02395C6.816 7.30128 6.336 7.50395 5.792 7.63195C5.248 7.75995 4.68267 7.82395 4.096 7.82395H2.736V12.0959H8.34465e-07V0.767947H4.16C4.77867 0.767947 5.35467 0.831947 5.888 0.959947C6.432 1.07728 6.90133 1.27461 7.296 1.55195C7.70133 1.81861 8.016 2.17595 8.24 2.62395C8.47467 3.06128 8.592 3.60528 8.592 4.25595ZM5.856 4.27195C5.856 4.00528 5.80267 3.78661 5.696 3.61595C5.58933 3.44528 5.44533 3.31195 5.264 3.21595C5.08267 3.11995 4.87467 3.05595 4.64 3.02395C4.416 2.99195 4.18133 2.97595 3.936 2.97595H2.736V5.64795H3.888C4.144 5.64795 4.38933 5.62661 4.624 5.58395C4.85867 5.54128 5.06667 5.46661 5.248 5.35995C5.44 5.25328 5.58933 5.11461 5.696 4.94395C5.80267 4.76261 5.856 4.53861 5.856 4.27195ZM14.0444 8.62395H13.7084C13.4204 8.62395 13.127 8.63995 12.8284 8.67195C12.5404 8.69328 12.279 8.74128 12.0444 8.81595C11.8204 8.89061 11.6337 9.00261 11.4844 9.15195C11.335 9.29061 11.2604 9.47728 11.2604 9.71195C11.2604 9.86128 11.2924 9.98928 11.3564 10.0959C11.431 10.2026 11.5217 10.2879 11.6284 10.3519C11.735 10.4159 11.8577 10.4639 11.9964 10.4959C12.135 10.5173 12.2684 10.5279 12.3964 10.5279C12.9297 10.5279 13.335 10.3839 13.6124 10.0959C13.9004 9.79728 14.0444 9.39728 14.0444 8.89595V8.62395ZM9.22838 5.21595C9.69771 4.76795 10.2417 4.43195 10.8604 4.20795C11.4897 3.98395 12.1297 3.87195 12.7804 3.87195C13.4524 3.87195 14.0177 3.95728 14.4764 4.12795C14.9457 4.28795 15.3244 4.54395 15.6124 4.89595C15.9004 5.23728 16.1084 5.67461 16.2364 6.20795C16.375 6.73061 16.4444 7.35461 16.4444 8.07995V12.0959H14.0444V11.2479H13.9964C13.7937 11.5786 13.4844 11.8346 13.0684 12.0159C12.663 12.1973 12.2204 12.2879 11.7404 12.2879C11.4204 12.2879 11.0897 12.2453 10.7484 12.1599C10.407 12.0746 10.0924 11.9359 9.80438 11.7439C9.52704 11.5519 9.29771 11.2959 9.11638 10.9759C8.93504 10.6559 8.84438 10.2613 8.84438 9.79195C8.84438 9.21595 8.99904 8.75195 9.30838 8.39995C9.62838 8.04795 10.0337 7.77595 10.5244 7.58395C11.0257 7.39195 11.5804 7.26395 12.1884 7.19995C12.7964 7.13595 13.3884 7.10395 13.9644 7.10395V6.97595C13.9644 6.58128 13.8257 6.29328 13.5484 6.11195C13.271 5.91995 12.9297 5.82395 12.5244 5.82395C12.151 5.82395 11.7884 5.90395 11.4364 6.06395C11.095 6.22395 10.8017 6.41595 10.5564 6.63995L9.22838 5.21595ZM23.0909 6.47995C22.8775 6.27728 22.6269 6.10661 22.3389 5.96795C22.0509 5.82928 21.7469 5.75995 21.4269 5.75995C21.1815 5.75995 20.9522 5.80795 20.7389 5.90395C20.5362 5.99995 20.4349 6.16528 20.4349 6.39995C20.4349 6.62395 20.5469 6.78395 20.7709 6.87995C21.0055 6.97595 21.3789 7.08261 21.8909 7.19995C22.1895 7.26395 22.4882 7.35461 22.7869 7.47195C23.0962 7.58928 23.3735 7.74395 23.6189 7.93595C23.8642 8.12795 24.0615 8.36261 24.2109 8.63995C24.3602 8.91728 24.4349 9.24795 24.4349 9.63195C24.4349 10.1333 24.3335 10.5599 24.1309 10.9119C23.9282 11.2533 23.6615 11.5306 23.3309 11.7439C23.0109 11.9573 22.6482 12.1119 22.2429 12.2079C21.8375 12.3039 21.4322 12.3519 21.0269 12.3519C20.3762 12.3519 19.7362 12.2506 19.1069 12.0479C18.4882 11.8346 17.9709 11.5253 17.5549 11.1199L19.0269 9.56795C19.2615 9.82395 19.5495 10.0373 19.8909 10.2079C20.2322 10.3786 20.5949 10.4639 20.9789 10.4639C21.1922 10.4639 21.4002 10.4159 21.6029 10.3199C21.8162 10.2133 21.9229 10.0319 21.9229 9.77595C21.9229 9.53061 21.7949 9.34928 21.5389 9.23195C21.2829 9.11461 20.8829 8.99195 20.3389 8.86395C20.0615 8.79995 19.7842 8.71461 19.5069 8.60795C19.2295 8.50128 18.9789 8.35728 18.7549 8.17595C18.5415 7.99461 18.3655 7.77061 18.2269 7.50395C18.0882 7.23728 18.0189 6.91728 18.0189 6.54395C18.0189 6.06395 18.1202 5.65861 18.3229 5.32795C18.5255 4.98661 18.7869 4.70928 19.1069 4.49595C19.4269 4.28261 19.7789 4.12795 20.1629 4.03195C20.5575 3.92528 20.9469 3.87195 21.3309 3.87195C21.9282 3.87195 22.5095 3.96795 23.0749 4.15995C23.6509 4.34128 24.1362 4.61861 24.5309 4.99195L23.0909 6.47995ZM30.6378 6.47995C30.4244 6.27728 30.1738 6.10661 29.8858 5.96795C29.5978 5.82928 29.2938 5.75995 28.9738 5.75995C28.7284 5.75995 28.4991 5.80795 28.2858 5.90395C28.0831 5.99995 27.9818 6.16528 27.9818 6.39995C27.9818 6.62395 28.0938 6.78395 28.3178 6.87995C28.5524 6.97595 28.9258 7.08261 29.4378 7.19995C29.7364 7.26395 30.0351 7.35461 30.3338 7.47195C30.6431 7.58928 30.9204 7.74395 31.1658 7.93595C31.4111 8.12795 31.6084 8.36261 31.7578 8.63995C31.9071 8.91728 31.9818 9.24795 31.9818 9.63195C31.9818 10.1333 31.8804 10.5599 31.6778 10.9119C31.4751 11.2533 31.2084 11.5306 30.8778 11.7439C30.5578 11.9573 30.1951 12.1119 29.7898 12.2079C29.3844 12.3039 28.9791 12.3519 28.5738 12.3519C27.9231 12.3519 27.2831 12.2506 26.6538 12.0479C26.0351 11.8346 25.5178 11.5253 25.1018 11.1199L26.5738 9.56795C26.8084 9.82395 27.0964 10.0373 27.4378 10.2079C27.7791 10.3786 28.1418 10.4639 28.5258 10.4639C28.7391 10.4639 28.9471 10.4159 29.1498 10.3199C29.3631 10.2133 29.4698 10.0319 29.4698 9.77595C29.4698 9.53061 29.3418 9.34928 29.0858 9.23195C28.8298 9.11461 28.4298 8.99195 27.8858 8.86395C27.6084 8.79995 27.3311 8.71461 27.0538 8.60795C26.7764 8.50128 26.5258 8.35728 26.3018 8.17595C26.0884 7.99461 25.9124 7.77061 25.7738 7.50395C25.6351 7.23728 25.5658 6.91728 25.5658 6.54395C25.5658 6.06395 25.6671 5.65861 25.8698 5.32795C26.0724 4.98661 26.3338 4.70928 26.6538 4.49595C26.9738 4.28261 27.3258 4.12795 27.7098 4.03195C28.1044 3.92528 28.4938 3.87195 28.8778 3.87195C29.4751 3.87195 30.0564 3.96795 30.6218 4.15995C31.1978 4.34128 31.6831 4.61861 32.0778 4.99195L30.6378 6.47995ZM43.6406 12.0959H41.0006L39.4326 7.13595H39.4006L37.8646 12.0959H35.2246L32.4726 4.12795H35.3046L36.6806 9.16795H36.7286L38.1526 4.12795H40.7926L42.2646 9.16795H42.2966L43.6886 4.12795H46.4086L43.6406 12.0959ZM55.8821 8.07995C55.8821 8.73061 55.7648 9.32261 55.5301 9.85595C55.2955 10.3786 54.9755 10.8266 54.5701 11.1999C54.1648 11.5626 53.6955 11.8453 53.1621 12.0479C52.6288 12.2506 52.0581 12.3519 51.4501 12.3519C50.8528 12.3519 50.2821 12.2506 49.7381 12.0479C49.2048 11.8453 48.7355 11.5626 48.3301 11.1999C47.9355 10.8266 47.6208 10.3786 47.3861 9.85595C47.1515 9.32261 47.0341 8.73061 47.0341 8.07995C47.0341 7.42928 47.1515 6.84261 47.3861 6.31995C47.6208 5.79728 47.9355 5.35461 48.3301 4.99195C48.7355 4.62928 49.2048 4.35195 49.7381 4.15995C50.2821 3.96795 50.8528 3.87195 51.4501 3.87195C52.0581 3.87195 52.6288 3.96795 53.1621 4.15995C53.6955 4.35195 54.1648 4.62928 54.5701 4.99195C54.9755 5.35461 55.2955 5.79728 55.5301 6.31995C55.7648 6.84261 55.8821 7.42928 55.8821 8.07995ZM53.3541 8.07995C53.3541 7.82395 53.3115 7.57328 53.2261 7.32795C53.1408 7.08261 53.0181 6.86928 52.8581 6.68795C52.6981 6.49595 52.5008 6.34128 52.2661 6.22395C52.0315 6.10661 51.7595 6.04795 51.4501 6.04795C51.1408 6.04795 50.8688 6.10661 50.6341 6.22395C50.3995 6.34128 50.2021 6.49595 50.0421 6.68795C49.8928 6.86928 49.7755 7.08261 49.6901 7.32795C49.6155 7.57328 49.5781 7.82395 49.5781 8.07995C49.5781 8.33595 49.6155 8.58661 49.6901 8.83195C49.7755 9.07728 49.8981 9.30128 50.0581 9.50395C50.2181 9.69595 50.4155 9.85061 50.6501 9.96795C50.8848 10.0853 51.1568 10.1439 51.4661 10.1439C51.7755 10.1439 52.0475 10.0853 52.2821 9.96795C52.5168 9.85061 52.7141 9.69595 52.8741 9.50395C53.0341 9.30128 53.1515 9.07728 53.2261 8.83195C53.3115 8.58661 53.3541 8.33595 53.3541 8.07995ZM62.7115 6.27195C62.5942 6.23995 62.4768 6.21861 62.3595 6.20795C62.2528 6.19728 62.1462 6.19195 62.0395 6.19195C61.6875 6.19195 61.3888 6.25595 61.1435 6.38395C60.9088 6.51195 60.7168 6.66661 60.5675 6.84795C60.4288 7.02928 60.3275 7.22661 60.2635 7.43995C60.1995 7.65328 60.1675 7.83995 60.1675 7.99995V12.0959H57.5435V4.12795H60.0715V5.27995H60.1035C60.3062 4.87461 60.5942 4.54395 60.9675 4.28795C61.3408 4.03195 61.7728 3.90395 62.2635 3.90395C62.3702 3.90395 62.4715 3.90928 62.5675 3.91995C62.6742 3.93061 62.7595 3.94661 62.8235 3.96795L62.7115 6.27195ZM69.638 12.0959V11.0559H69.606C69.35 11.4613 68.982 11.7759 68.502 11.9999C68.0327 12.2133 67.5313 12.3199 66.998 12.3199C66.4007 12.3199 65.8673 12.2026 65.398 11.9679C64.9287 11.7333 64.5287 11.4239 64.198 11.0399C63.878 10.6453 63.6327 10.1919 63.462 9.67995C63.2913 9.16795 63.206 8.63461 63.206 8.07995C63.206 7.52528 63.2913 6.99728 63.462 6.49595C63.6433 5.98395 63.894 5.53595 64.214 5.15195C64.5447 4.76795 64.9393 4.46395 65.398 4.23995C65.8673 4.01595 66.39 3.90395 66.966 3.90395C67.5527 3.90395 68.0487 4.01595 68.454 4.23995C68.8593 4.46395 69.174 4.70928 69.398 4.97595H69.43V-5.34058e-05H72.054V12.0959H69.638ZM69.542 8.09595C69.542 7.83995 69.494 7.58928 69.398 7.34395C69.3127 7.09861 69.1847 6.87995 69.014 6.68795C68.854 6.49595 68.6567 6.34128 68.422 6.22395C68.1873 6.10661 67.9207 6.04795 67.622 6.04795C67.3127 6.04795 67.0407 6.10661 66.806 6.22395C66.5713 6.34128 66.374 6.49595 66.214 6.68795C66.054 6.86928 65.9313 7.08261 65.846 7.32795C65.7713 7.57328 65.734 7.82395 65.734 8.07995C65.734 8.33595 65.7713 8.59195 65.846 8.84795C65.9313 9.09328 66.054 9.31195 66.214 9.50395C66.374 9.69595 66.5713 9.85061 66.806 9.96795C67.0407 10.0853 67.3127 10.1439 67.622 10.1439C67.9207 10.1439 68.1873 10.0853 68.422 9.96795C68.6567 9.85061 68.854 9.69595 69.014 9.50395C69.1847 9.31195 69.3127 9.09328 69.398 8.84795C69.494 8.60261 69.542 8.35195 69.542 8.09595Z" fill="black"/>
</svg>
