<svg width="69" height="16" viewBox="0 0 69 16" fill="none" xmlns="http://www.w3.org/2000/svg">
<path d="M6.064 12.096L3.616 7.60001H2.688V12.096H8.34465e-07V0.768008H4.32C4.864 0.768008 5.392 0.826675 5.904 0.944008C6.42667 1.05067 6.89067 1.23734 7.296 1.50401C7.712 1.77067 8.04267 2.12267 8.288 2.56001C8.53333 2.99734 8.656 3.54134 8.656 4.19201C8.656 4.96001 8.448 5.60534 8.032 6.12801C7.616 6.65067 7.04 7.02401 6.304 7.24801L9.264 12.096H6.064ZM5.952 4.24001C5.952 3.97334 5.89333 3.76001 5.776 3.60001C5.66933 3.42934 5.52533 3.30134 5.344 3.21601C5.17333 3.12001 4.976 3.05601 4.752 3.02401C4.53867 2.99201 4.33067 2.97601 4.128 2.97601H2.672V5.61601H3.968C4.192 5.61601 4.42133 5.60001 4.656 5.56801C4.89067 5.52534 5.104 5.45601 5.296 5.36001C5.488 5.26401 5.64267 5.12534 5.76 4.94401C5.888 4.76267 5.952 4.52801 5.952 4.24001ZM15.7659 7.20001C15.7659 6.78401 15.6325 6.42667 15.3659 6.12801C15.1099 5.82934 14.7205 5.68001 14.1979 5.68001C13.9419 5.68001 13.7072 5.72267 13.4939 5.80801C13.2805 5.88267 13.0939 5.98934 12.9339 6.12801C12.7739 6.26667 12.6459 6.43201 12.5499 6.62401C12.4539 6.80534 12.4005 6.99734 12.3899 7.20001H15.7659ZM18.1819 8.20801C18.1819 8.31467 18.1819 8.42134 18.1819 8.52801C18.1819 8.63467 18.1765 8.73601 18.1659 8.83201H12.3899C12.4112 9.05601 12.4752 9.25867 12.5819 9.44001C12.6992 9.62134 12.8432 9.78134 13.0139 9.92001C13.1952 10.048 13.3925 10.1493 13.6059 10.224C13.8299 10.2987 14.0592 10.336 14.2939 10.336C14.7099 10.336 15.0619 10.2613 15.3499 10.112C15.6379 9.95201 15.8725 9.74934 16.0539 9.50401L17.8779 10.656C17.5045 11.2 17.0085 11.6213 16.3899 11.92C15.7819 12.208 15.0725 12.352 14.2619 12.352C13.6645 12.352 13.0992 12.2613 12.5659 12.08C12.0325 11.888 11.5632 11.616 11.1579 11.264C10.7632 10.9013 10.4485 10.4587 10.2139 9.93601C9.98988 9.41334 9.87788 8.81601 9.87788 8.14401C9.87788 7.49334 9.98988 6.90667 10.2139 6.38401C10.4379 5.85067 10.7419 5.40267 11.1259 5.04001C11.5099 4.66667 11.9632 4.37867 12.4859 4.17601C13.0085 3.97334 13.5739 3.87201 14.1819 3.87201C14.7685 3.87201 15.3072 3.97334 15.7979 4.17601C16.2885 4.36801 16.7099 4.65067 17.0619 5.02401C17.4139 5.39734 17.6859 5.85067 17.8779 6.38401C18.0805 6.91734 18.1819 7.52534 18.1819 8.20801ZM25.6491 15.936V11.216H25.6171C25.3611 11.5573 25.0145 11.8293 24.5771 12.032C24.1505 12.224 23.6918 12.32 23.2011 12.32C22.5931 12.32 22.0545 12.2027 21.5851 11.968C21.1158 11.7333 20.7211 11.424 20.4011 11.04C20.0811 10.6453 19.8358 10.192 19.6651 9.68001C19.4945 9.16801 19.4091 8.63467 19.4091 8.08001C19.4091 7.52534 19.4945 6.99734 19.6651 6.49601C19.8465 5.98401 20.0971 5.53601 20.4171 5.15201C20.7478 4.76801 21.1425 4.46401 21.6011 4.24001C22.0705 4.01601 22.5931 3.90401 23.1691 3.90401C23.7665 3.90401 24.2785 4.02667 24.7051 4.27201C25.1425 4.50667 25.4838 4.78401 25.7291 5.10401H25.7771V4.12801H28.2571V15.936H25.6491ZM25.7451 8.09601C25.7451 7.84001 25.6971 7.58934 25.6011 7.34401C25.5158 7.09867 25.3878 6.88001 25.2171 6.68801C25.0571 6.49601 24.8598 6.34134 24.6251 6.22401C24.3905 6.10667 24.1238 6.04801 23.8251 6.04801C23.5158 6.04801 23.2438 6.10667 23.0091 6.22401C22.7745 6.34134 22.5771 6.49601 22.4171 6.68801C22.2571 6.86934 22.1345 7.08267 22.0491 7.32801C21.9745 7.57334 21.9371 7.82401 21.9371 8.08001C21.9371 8.33601 21.9745 8.59201 22.0491 8.84801C22.1345 9.09334 22.2571 9.31201 22.4171 9.50401C22.5771 9.69601 22.7745 9.85067 23.0091 9.96801C23.2438 10.0853 23.5158 10.144 23.8251 10.144C24.1238 10.144 24.3905 10.0853 24.6251 9.96801C24.8598 9.85067 25.0571 9.69601 25.2171 9.50401C25.3878 9.31201 25.5158 9.09334 25.6011 8.84801C25.6971 8.60267 25.7451 8.35201 25.7451 8.09601ZM35.5728 12.096V10.992H35.5408C35.4448 11.1733 35.3168 11.344 35.1568 11.504C35.0074 11.664 34.8261 11.8027 34.6128 11.92C34.4101 12.0373 34.1808 12.1333 33.9248 12.208C33.6794 12.2827 33.4181 12.32 33.1408 12.32C32.6074 12.32 32.1541 12.224 31.7808 12.032C31.4181 11.84 31.1194 11.5947 30.8848 11.296C30.6608 10.9867 30.4954 10.64 30.3888 10.256C30.2928 9.86134 30.2448 9.46134 30.2448 9.05601V4.12801H32.8848V8.44801C32.8848 8.67201 32.9008 8.88534 32.9328 9.08801C32.9648 9.29067 33.0234 9.47201 33.1088 9.63201C33.2048 9.79201 33.3274 9.92001 33.4768 10.016C33.6261 10.1013 33.8234 10.144 34.0688 10.144C34.5274 10.144 34.8741 9.97334 35.1088 9.63201C35.3541 9.29067 35.4768 8.89067 35.4768 8.43201V4.12801H38.1008V12.096H35.5728ZM43.0009 1.58401C43.0009 1.78667 42.9582 1.97867 42.8729 2.16001C42.7982 2.33067 42.6915 2.48001 42.5529 2.60801C42.4249 2.73601 42.2649 2.83734 42.0729 2.91201C41.8915 2.98667 41.6995 3.02401 41.4969 3.02401C41.0702 3.02401 40.7129 2.88534 40.4249 2.60801C40.1369 2.32001 39.9929 1.97867 39.9929 1.58401C39.9929 1.39201 40.0302 1.21067 40.1049 1.04001C40.1795 0.858675 40.2862 0.704008 40.4249 0.576008C40.5635 0.448008 40.7235 0.346674 40.9049 0.272008C41.0862 0.186674 41.2835 0.144008 41.4969 0.144008C41.6995 0.144008 41.8915 0.181341 42.0729 0.256008C42.2649 0.330674 42.4249 0.432008 42.5529 0.560008C42.6915 0.688008 42.7982 0.842674 42.8729 1.02401C42.9582 1.19467 43.0009 1.38134 43.0009 1.58401ZM40.1849 12.096V4.12801H42.8089V12.096H40.1849ZM50.0553 6.27201C49.9379 6.24001 49.8206 6.21867 49.7033 6.20801C49.5966 6.19734 49.4899 6.19201 49.3833 6.19201C49.0313 6.19201 48.7326 6.25601 48.4873 6.38401C48.2526 6.51201 48.0606 6.66667 47.9113 6.84801C47.7726 7.02934 47.6713 7.22667 47.6073 7.44001C47.5433 7.65334 47.5113 7.84001 47.5113 8.00001V12.096H44.8873V4.12801H47.4153V5.28001H47.4473C47.6499 4.87467 47.9379 4.54401 48.3113 4.28801C48.6846 4.03201 49.1166 3.90401 49.6073 3.90401C49.7139 3.90401 49.8153 3.90934 49.9113 3.92001C50.0179 3.93067 50.1033 3.94667 50.1673 3.96801L50.0553 6.27201ZM56.4378 7.20001C56.4378 6.78401 56.3044 6.42667 56.0378 6.12801C55.7818 5.82934 55.3924 5.68001 54.8698 5.68001C54.6138 5.68001 54.3791 5.72267 54.1658 5.80801C53.9524 5.88267 53.7658 5.98934 53.6058 6.12801C53.4458 6.26667 53.3178 6.43201 53.2218 6.62401C53.1258 6.80534 53.0724 6.99734 53.0618 7.20001H56.4378ZM58.8538 8.20801C58.8538 8.31467 58.8538 8.42134 58.8538 8.52801C58.8538 8.63467 58.8484 8.73601 58.8378 8.83201H53.0618C53.0831 9.05601 53.1471 9.25867 53.2538 9.44001C53.3711 9.62134 53.5151 9.78134 53.6858 9.92001C53.8671 10.048 54.0644 10.1493 54.2778 10.224C54.5018 10.2987 54.7311 10.336 54.9658 10.336C55.3818 10.336 55.7338 10.2613 56.0218 10.112C56.3098 9.95201 56.5444 9.74934 56.7258 9.50401L58.5498 10.656C58.1764 11.2 57.6804 11.6213 57.0618 11.92C56.4538 12.208 55.7444 12.352 54.9338 12.352C54.3364 12.352 53.7711 12.2613 53.2378 12.08C52.7044 11.888 52.2351 11.616 51.8298 11.264C51.4351 10.9013 51.1204 10.4587 50.8858 9.93601C50.6618 9.41334 50.5498 8.81601 50.5498 8.14401C50.5498 7.49334 50.6618 6.90667 50.8858 6.38401C51.1098 5.85067 51.4138 5.40267 51.7978 5.04001C52.1818 4.66667 52.6351 4.37867 53.1578 4.17601C53.6804 3.97334 54.2458 3.87201 54.8538 3.87201C55.4404 3.87201 55.9791 3.97334 56.4698 4.17601C56.9604 4.36801 57.3818 4.65067 57.7338 5.02401C58.0858 5.39734 58.3578 5.85067 58.5498 6.38401C58.7524 6.91734 58.8538 7.52534 58.8538 8.20801ZM66.513 12.096V11.056H66.481C66.225 11.4613 65.857 11.776 65.377 12C64.9077 12.2133 64.4063 12.32 63.873 12.32C63.2757 12.32 62.7423 12.2027 62.273 11.968C61.8037 11.7333 61.4037 11.424 61.073 11.04C60.753 10.6453 60.5077 10.192 60.337 9.68001C60.1663 9.16801 60.081 8.63467 60.081 8.08001C60.081 7.52534 60.1663 6.99734 60.337 6.49601C60.5183 5.98401 60.769 5.53601 61.089 5.15201C61.4197 4.76801 61.8143 4.46401 62.273 4.24001C62.7423 4.01601 63.265 3.90401 63.841 3.90401C64.4277 3.90401 64.9237 4.01601 65.329 4.24001C65.7343 4.46401 66.049 4.70934 66.273 4.97601H66.305V7.62939e-06H68.929V12.096H66.513ZM66.417 8.09601C66.417 7.84001 66.369 7.58934 66.273 7.34401C66.1877 7.09867 66.0597 6.88001 65.889 6.68801C65.729 6.49601 65.5317 6.34134 65.297 6.22401C65.0623 6.10667 64.7957 6.04801 64.497 6.04801C64.1877 6.04801 63.9157 6.10667 63.681 6.22401C63.4463 6.34134 63.249 6.49601 63.089 6.68801C62.929 6.86934 62.8063 7.08267 62.721 7.32801C62.6463 7.57334 62.609 7.82401 62.609 8.08001C62.609 8.33601 62.6463 8.59201 62.721 8.84801C62.8063 9.09334 62.929 9.31201 63.089 9.50401C63.249 9.69601 63.4463 9.85067 63.681 9.96801C63.9157 10.0853 64.1877 10.144 64.497 10.144C64.7957 10.144 65.0623 10.0853 65.297 9.96801C65.5317 9.85067 65.729 9.69601 65.889 9.50401C66.0597 9.31201 66.1877 9.09334 66.273 8.84801C66.369 8.60267 66.417 8.35201 66.417 8.09601Z" fill="black"/>
</svg>
