<svg width="62" height="13" viewBox="0 0 62 13" fill="none" xmlns="http://www.w3.org/2000/svg">
<path d="M6.912 3.71195C6.67733 3.41328 6.368 3.17861 5.984 3.00795C5.61067 2.82661 5.248 2.73595 4.896 2.73595C4.71467 2.73595 4.528 2.75195 4.336 2.78395C4.15467 2.81595 3.98933 2.87995 3.84 2.97595C3.69067 3.06128 3.56267 3.17861 3.456 3.32795C3.36 3.46661 3.312 3.64795 3.312 3.87195C3.312 4.06395 3.34933 4.22395 3.424 4.35195C3.50933 4.47995 3.62667 4.59195 3.776 4.68795C3.936 4.78395 4.12267 4.87461 4.336 4.95995C4.54933 5.03461 4.78933 5.11461 5.056 5.19995C5.44 5.32795 5.84 5.47195 6.256 5.63195C6.672 5.78128 7.05067 5.98395 7.392 6.23995C7.73333 6.49595 8.016 6.81595 8.24 7.19995C8.464 7.57328 8.576 8.04261 8.576 8.60795C8.576 9.25861 8.45333 9.82395 8.208 10.3039C7.97333 10.7733 7.65333 11.1626 7.248 11.4719C6.84267 11.7813 6.37867 12.0106 5.856 12.1599C5.33333 12.3093 4.79467 12.3839 4.24 12.3839C3.42933 12.3839 2.64533 12.2453 1.888 11.9679C1.13067 11.6799 0.501334 11.2746 2.38419e-07 10.7519L1.792 8.92795C2.06933 9.26928 2.432 9.55728 2.88 9.79195C3.33867 10.0159 3.792 10.1279 4.24 10.1279C4.44267 10.1279 4.64 10.1066 4.832 10.0639C5.024 10.0213 5.18933 9.95195 5.328 9.85595C5.47733 9.75995 5.59467 9.63195 5.68 9.47195C5.76533 9.31195 5.808 9.11995 5.808 8.89595C5.808 8.68261 5.75467 8.50128 5.648 8.35195C5.54133 8.20261 5.38667 8.06928 5.184 7.95195C4.992 7.82395 4.74667 7.71195 4.448 7.61595C4.16 7.50928 3.82933 7.39728 3.456 7.27995C3.09333 7.16261 2.736 7.02395 2.384 6.86395C2.04267 6.70395 1.73333 6.50128 1.456 6.25595C1.18933 5.99995 0.970667 5.69595 0.8 5.34395C0.64 4.98128 0.56 4.54395 0.56 4.03195C0.56 3.40261 0.688 2.86395 0.944 2.41595C1.2 1.96795 1.536 1.59995 1.952 1.31195C2.368 1.02395 2.83733 0.815947 3.36 0.687946C3.88267 0.54928 4.41067 0.479947 4.944 0.479947C5.584 0.479947 6.23467 0.59728 6.896 0.831946C7.568 1.06661 8.15467 1.41328 8.656 1.87195L6.912 3.71195ZM15.4851 12.0959V10.9919H15.4531C15.3571 11.1733 15.2291 11.3439 15.0691 11.5039C14.9198 11.6639 14.7385 11.8026 14.5251 11.9199C14.3225 12.0373 14.0931 12.1333 13.8371 12.2079C13.5918 12.2826 13.3305 12.3199 13.0531 12.3199C12.5198 12.3199 12.0665 12.2239 11.6931 12.0319C11.3305 11.8399 11.0318 11.5946 10.7971 11.2959C10.5731 10.9866 10.4078 10.6399 10.3011 10.2559C10.2051 9.86128 10.1571 9.46128 10.1571 9.05595V4.12795H12.7971V8.44795C12.7971 8.67195 12.8131 8.88528 12.8451 9.08795C12.8771 9.29061 12.9358 9.47195 13.0211 9.63195C13.1171 9.79195 13.2398 9.91995 13.3891 10.0159C13.5385 10.1013 13.7358 10.1439 13.9811 10.1439C14.4398 10.1439 14.7865 9.97328 15.0211 9.63195C15.2665 9.29061 15.3891 8.89061 15.3891 8.43195V4.12795H18.0131V12.0959H15.4851ZM28.9453 8.07995C28.9453 8.63461 28.8599 9.16795 28.6893 9.67995C28.5186 10.1919 28.2679 10.6453 27.9373 11.0399C27.6173 11.4239 27.2226 11.7333 26.7533 11.9679C26.2839 12.2026 25.7506 12.3199 25.1533 12.3199C24.6199 12.3199 24.1133 12.2133 23.6333 11.9999C23.1639 11.7759 22.8013 11.4613 22.5453 11.0559H22.5133V12.0959H20.0973V-5.34058e-05H22.7213V4.97595H22.7533C22.9773 4.70928 23.2919 4.46395 23.6973 4.23995C24.1026 4.01595 24.5986 3.90395 25.1853 3.90395C25.7613 3.90395 26.2786 4.01595 26.7373 4.23995C27.2066 4.46395 27.6013 4.76795 27.9213 5.15195C28.2519 5.53595 28.5026 5.98395 28.6733 6.49595C28.8546 6.99728 28.9453 7.52528 28.9453 8.07995ZM26.4173 8.07995C26.4173 7.82395 26.3746 7.57328 26.2893 7.32795C26.2146 7.08261 26.0973 6.86928 25.9373 6.68795C25.7773 6.49595 25.5799 6.34128 25.3453 6.22395C25.1106 6.10661 24.8386 6.04795 24.5293 6.04795C24.2306 6.04795 23.9639 6.10661 23.7293 6.22395C23.4946 6.34128 23.2919 6.49595 23.1213 6.68795C22.9613 6.87995 22.8333 7.09861 22.7373 7.34395C22.6519 7.58928 22.6093 7.83995 22.6093 8.09595C22.6093 8.35195 22.6519 8.60261 22.7373 8.84795C22.8333 9.09328 22.9613 9.31195 23.1213 9.50395C23.2919 9.69595 23.4946 9.85061 23.7293 9.96795C23.9639 10.0853 24.2306 10.1439 24.5293 10.1439C24.8386 10.1439 25.1106 10.0853 25.3453 9.96795C25.5799 9.85061 25.7773 9.69595 25.9373 9.50395C26.0973 9.31195 26.2146 9.09328 26.2893 8.84795C26.3746 8.59195 26.4173 8.33595 26.4173 8.07995ZM35.6041 3.10395V12.0959H32.8681V3.10395H29.6681V0.767947H38.8041V3.10395H35.6041ZM43.8658 7.19995C43.8658 6.78395 43.7324 6.42661 43.4658 6.12795C43.2098 5.82928 42.8204 5.67995 42.2978 5.67995C42.0418 5.67995 41.8071 5.72261 41.5938 5.80795C41.3804 5.88261 41.1938 5.98928 41.0338 6.12795C40.8738 6.26661 40.7458 6.43195 40.6498 6.62395C40.5538 6.80528 40.5004 6.99728 40.4898 7.19995H43.8658ZM46.2818 8.20795C46.2818 8.31461 46.2818 8.42128 46.2818 8.52795C46.2818 8.63461 46.2764 8.73595 46.2658 8.83195H40.4898C40.5111 9.05595 40.5751 9.25861 40.6818 9.43995C40.7991 9.62128 40.9431 9.78128 41.1138 9.91995C41.2951 10.0479 41.4924 10.1493 41.7058 10.2239C41.9298 10.2986 42.1591 10.3359 42.3938 10.3359C42.8098 10.3359 43.1618 10.2613 43.4498 10.1119C43.7378 9.95195 43.9724 9.74928 44.1538 9.50395L45.9778 10.6559C45.6044 11.1999 45.1084 11.6213 44.4898 11.9199C43.8818 12.2079 43.1724 12.3519 42.3618 12.3519C41.7644 12.3519 41.1991 12.2613 40.6658 12.0799C40.1324 11.8879 39.6631 11.6159 39.2578 11.2639C38.8631 10.9013 38.5484 10.4586 38.3138 9.93595C38.0898 9.41328 37.9778 8.81595 37.9778 8.14395C37.9778 7.49328 38.0898 6.90661 38.3138 6.38395C38.5378 5.85061 38.8418 5.40261 39.2258 5.03995C39.6098 4.66661 40.0631 4.37861 40.5858 4.17595C41.1084 3.97328 41.6738 3.87195 42.2818 3.87195C42.8684 3.87195 43.4071 3.97328 43.8978 4.17595C44.3884 4.36795 44.8098 4.65061 45.1618 5.02395C45.5138 5.39728 45.7858 5.85061 45.9778 6.38395C46.1804 6.91728 46.2818 7.52528 46.2818 8.20795ZM52.9896 12.0959L51.2776 9.64795L49.5176 12.0959H46.4776L49.6616 7.91995L46.7816 4.12795H49.8376L51.3256 6.25595L52.8296 4.12795H55.7896L52.9256 7.91995L56.0776 12.0959H52.9896ZM59.8976 6.09595V9.13595C59.8976 9.50928 59.967 9.79195 60.1056 9.98395C60.255 10.1653 60.5163 10.2559 60.8896 10.2559C61.0176 10.2559 61.151 10.2453 61.2896 10.2239C61.439 10.2026 61.5616 10.1706 61.6576 10.1279L61.6896 12.0479C61.5083 12.1119 61.279 12.1653 61.0016 12.2079C60.7243 12.2613 60.447 12.2879 60.1696 12.2879C59.6363 12.2879 59.1883 12.2239 58.8256 12.0959C58.463 11.9573 58.1696 11.7653 57.9456 11.5199C57.7323 11.2639 57.5776 10.9653 57.4816 10.6239C57.3856 10.2719 57.3376 9.88261 57.3376 9.45595V6.09595H56.0576V4.12795H57.3216V2.03195H59.8976V4.12795H61.7696V6.09595H59.8976Z" fill="black"/>
</svg>
