<svg width="345" height="88" viewBox="0 0 345 88" fill="none" xmlns="http://www.w3.org/2000/svg">
<path d="M2.96 14.592H8.016V16H1.376V4.672H2.96V14.592ZM14.1879 11.088C14.1879 10.5227 14.0172 10.1067 13.6759 9.84C13.3345 9.56267 12.8812 9.424 12.3159 9.424C11.8892 9.424 11.4839 9.50933 11.0999 9.68C10.7265 9.84 10.4119 10.048 10.1559 10.304L9.35588 9.344C9.72921 8.992 10.1825 8.71467 10.7159 8.512C11.2599 8.30933 11.8412 8.208 12.4599 8.208C13.0039 8.208 13.4732 8.288 13.8679 8.448C14.2732 8.59733 14.6039 8.80533 14.8599 9.072C15.1159 9.33867 15.3079 9.65333 15.4359 10.016C15.5639 10.3787 15.6279 10.768 15.6279 11.184V14.496C15.6279 14.752 15.6332 15.024 15.6439 15.312C15.6652 15.5893 15.6972 15.8187 15.7399 16H14.3799C14.2945 15.6373 14.2519 15.2747 14.2519 14.912H14.2039C13.9265 15.3173 13.5745 15.632 13.1479 15.856C12.7319 16.08 12.2359 16.192 11.6599 16.192C11.3612 16.192 11.0465 16.1493 10.7159 16.064C10.3959 15.9893 10.1025 15.8613 9.83588 15.68C9.56921 15.4987 9.34521 15.2587 9.16388 14.96C8.99321 14.6613 8.90788 14.2933 8.90788 13.856C8.90788 13.28 9.06254 12.8267 9.37188 12.496C9.68121 12.1547 10.0865 11.8987 10.5879 11.728C11.0892 11.5467 11.6545 11.4293 12.2839 11.376C12.9132 11.3227 13.5479 11.296 14.1879 11.296V11.088ZM13.8199 12.384C13.4465 12.384 13.0572 12.4 12.6519 12.432C12.2572 12.464 11.8945 12.528 11.5639 12.624C11.2439 12.72 10.9772 12.864 10.7639 13.056C10.5505 13.248 10.4439 13.504 10.4439 13.824C10.4439 14.048 10.4865 14.2347 10.5719 14.384C10.6679 14.5333 10.7905 14.656 10.9399 14.752C11.0892 14.848 11.2545 14.9173 11.4359 14.96C11.6172 14.992 11.8039 15.008 11.9959 15.008C12.6999 15.008 13.2385 14.8 13.6119 14.384C13.9959 13.9573 14.1879 13.424 14.1879 12.784V12.384H13.8199ZM19.6278 14.8V16H18.1718V3.904H19.6758V9.552H19.7238C19.9798 9.17867 20.3371 8.864 20.7958 8.608C21.2544 8.34133 21.7984 8.208 22.4278 8.208C22.9931 8.208 23.5051 8.30933 23.9638 8.512C24.4331 8.71467 24.8331 8.99733 25.1638 9.36C25.5051 9.72267 25.7664 10.1493 25.9478 10.64C26.1291 11.12 26.2198 11.6373 26.2198 12.192C26.2198 12.7467 26.1291 13.2693 25.9478 13.76C25.7664 14.2507 25.5104 14.6773 25.1798 15.04C24.8491 15.4027 24.4491 15.6907 23.9798 15.904C23.5104 16.1067 22.9824 16.208 22.3958 16.208C21.8518 16.208 21.3344 16.0907 20.8438 15.856C20.3531 15.6107 19.9584 15.2587 19.6598 14.8H19.6278ZM24.6678 12.192C24.6678 11.84 24.6144 11.4987 24.5078 11.168C24.4011 10.8373 24.2411 10.544 24.0278 10.288C23.8144 10.032 23.5478 9.82933 23.2278 9.68C22.9184 9.53067 22.5558 9.456 22.1398 9.456C21.7558 9.456 21.4038 9.53067 21.0838 9.68C20.7744 9.82933 20.5078 10.032 20.2838 10.288C20.0598 10.544 19.8838 10.8373 19.7558 11.168C19.6384 11.4987 19.5798 11.8453 19.5798 12.208C19.5798 12.5707 19.6384 12.9173 19.7558 13.248C19.8838 13.5787 20.0598 13.872 20.2838 14.128C20.5078 14.3733 20.7744 14.5707 21.0838 14.72C21.4038 14.8693 21.7558 14.944 22.1398 14.944C22.5558 14.944 22.9184 14.8693 23.2278 14.72C23.5478 14.56 23.8144 14.352 24.0278 14.096C24.2411 13.84 24.4011 13.5467 24.5078 13.216C24.6144 12.8853 24.6678 12.544 24.6678 12.192ZM33.8636 11.536C33.853 11.2373 33.7996 10.96 33.7036 10.704C33.6183 10.4373 33.485 10.208 33.3036 10.016C33.133 9.824 32.9143 9.67467 32.6476 9.568C32.3916 9.45067 32.0876 9.392 31.7356 9.392C31.4156 9.392 31.1116 9.45067 30.8236 9.568C30.5463 9.67467 30.301 9.824 30.0876 10.016C29.885 10.208 29.7143 10.4373 29.5756 10.704C29.4476 10.96 29.373 11.2373 29.3516 11.536H33.8636ZM35.3836 12.144C35.3836 12.2293 35.3836 12.3147 35.3836 12.4C35.3836 12.4853 35.3783 12.5707 35.3676 12.656H29.3516C29.3623 12.976 29.4316 13.28 29.5596 13.568C29.6983 13.8453 29.8796 14.0907 30.1036 14.304C30.3276 14.5067 30.5836 14.6667 30.8716 14.784C31.1703 14.9013 31.485 14.96 31.8156 14.96C32.3276 14.96 32.7703 14.848 33.1436 14.624C33.517 14.4 33.8103 14.128 34.0236 13.808L35.0796 14.656C34.6743 15.1893 34.1943 15.584 33.6396 15.84C33.0956 16.0853 32.4876 16.208 31.8156 16.208C31.2396 16.208 30.7063 16.112 30.2156 15.92C29.725 15.728 29.3036 15.4613 28.9516 15.12C28.5996 14.768 28.3223 14.3467 28.1196 13.856C27.917 13.3653 27.8156 12.8213 27.8156 12.224C27.8156 11.6373 27.9116 11.0987 28.1036 10.608C28.3063 10.1067 28.5836 9.68 28.9356 9.328C29.2876 8.976 29.7036 8.704 30.1836 8.512C30.6636 8.30933 31.181 8.208 31.7356 8.208C32.2903 8.208 32.7916 8.29867 33.2396 8.48C33.6983 8.66133 34.0823 8.92267 34.3916 9.264C34.7116 9.60533 34.957 10.0213 35.1276 10.512C35.2983 10.992 35.3836 11.536 35.3836 12.144ZM39.0195 16H37.5155V3.904H39.0195V16Z" fill="#4D4D4D"/>
<rect x="0.5" y="30.5" width="344" height="57" rx="7.5" fill="white"/>
<rect x="0.5" y="30.5" width="344" height="57" rx="7.5" stroke="#969696"/>
<mask id="mask0_17_4255" style="mask-type:alpha" maskUnits="userSpaceOnUse" x="8" y="47" width="24" height="24">
<rect x="8" y="47" width="24" height="24" fill="#D9D9D9"/>
</mask>
<g mask="url(#mask0_17_4255)">
<path d="M13.3077 68.5C12.8026 68.5 12.375 68.325 12.025 67.975C11.675 67.625 11.5 67.1974 11.5 66.6923V53.3078C11.5 52.8026 11.675 52.375 12.025 52.025C12.375 51.675 12.8026 51.5 13.3077 51.5H14.6923V49.3848H16.2308V51.5H23.8077V49.3848H25.3077V51.5H26.6923C27.1974 51.5 27.625 51.675 27.975 52.025C28.325 52.375 28.5 52.8026 28.5 53.3078V66.6923C28.5 67.1974 28.325 67.625 27.975 67.975C27.625 68.325 27.1974 68.5 26.6923 68.5H13.3077ZM13.3077 67H26.6923C26.7692 67 26.8398 66.9679 26.9038 66.9038C26.9679 66.8398 27 66.7693 27 66.6923V57.3078H13V66.6923C13 66.7693 13.0321 66.8398 13.0963 66.9038C13.1603 66.9679 13.2307 67 13.3077 67ZM13 55.8078H27V53.3078C27 53.2308 26.9679 53.1603 26.9038 53.0963C26.8398 53.0321 26.7692 53 26.6923 53H13.3077C13.2307 53 13.1603 53.0321 13.0963 53.0963C13.0321 53.1603 13 53.2308 13 53.3078V55.8078Z" fill="#969696"/>
</g>
<path d="M47.136 64H45.984V53.696H42.192V52.672H50.928V53.696H47.136V64ZM56.7458 59.68C56.7138 58.976 56.4844 58.3947 56.0578 57.936C55.6418 57.4667 55.0444 57.232 54.2658 57.232C53.9031 57.232 53.5671 57.3013 53.2578 57.44C52.9484 57.568 52.6764 57.7493 52.4418 57.984C52.2071 58.208 52.0204 58.4693 51.8818 58.768C51.7431 59.056 51.6631 59.36 51.6418 59.68H56.7458ZM57.8498 60.032C57.8498 60.1067 57.8498 60.1867 57.8498 60.272C57.8498 60.3573 57.8444 60.448 57.8338 60.544H51.6258C51.6364 60.9173 51.7111 61.2693 51.8498 61.6C51.9884 61.9307 52.1804 62.2187 52.4258 62.464C52.6711 62.7093 52.9591 62.9067 53.2898 63.056C53.6204 63.1947 53.9778 63.264 54.3618 63.264C54.9271 63.264 55.4124 63.136 55.8178 62.88C56.2338 62.6133 56.5484 62.3093 56.7618 61.968L57.5778 62.608C57.1298 63.1733 56.6338 63.5787 56.0898 63.824C55.5564 64.0693 54.9804 64.192 54.3618 64.192C53.8071 64.192 53.2898 64.096 52.8098 63.904C52.3404 63.7013 51.9351 63.424 51.5938 63.072C51.2524 62.72 50.9804 62.304 50.7778 61.824C50.5858 61.344 50.4898 60.8213 50.4898 60.256C50.4898 59.6907 50.5858 59.168 50.7778 58.688C50.9698 58.208 51.2364 57.792 51.5778 57.44C51.9191 57.088 52.3191 56.816 52.7778 56.624C53.2364 56.4213 53.7324 56.32 54.2658 56.32C54.8524 56.32 55.3698 56.4213 55.8178 56.624C56.2658 56.816 56.6391 57.0827 56.9378 57.424C57.2364 57.7547 57.4604 58.144 57.6098 58.592C57.7698 59.04 57.8498 59.52 57.8498 60.032ZM61.8563 60.128L59.0883 56.512H60.4803L62.5283 59.36L64.5763 56.512H65.8883L63.1683 60.08L66.1443 64H64.7363L62.5123 60.88L60.2243 64H58.9123L61.8563 60.128ZM71.2223 57.424H69.1103V61.792C69.1103 62.0693 69.1369 62.2987 69.1903 62.48C69.2436 62.6613 69.3183 62.8053 69.4143 62.912C69.5209 63.008 69.6436 63.0773 69.7823 63.12C69.9209 63.152 70.0703 63.168 70.2303 63.168C70.3796 63.168 70.5343 63.1467 70.6943 63.104C70.8649 63.0613 71.0249 63.0027 71.1743 62.928L71.2223 63.872C71.0303 63.9467 70.8276 64 70.6143 64.032C70.4116 64.0747 70.1876 64.096 69.9423 64.096C69.7396 64.096 69.5263 64.0693 69.3023 64.016C69.0783 63.9627 68.8703 63.8613 68.6783 63.712C68.4863 63.5627 68.3263 63.36 68.1983 63.104C68.0809 62.848 68.0223 62.512 68.0223 62.096V57.424H66.4703V56.512H68.0223V54.4H69.1103V56.512H71.2223V57.424Z" fill="#969696"/>
</svg>
