<svg width="345" height="112" viewBox="0 0 345 112" fill="none" xmlns="http://www.w3.org/2000/svg">
<path d="M1.376 4.672H4.832C5.44 4.672 5.99467 4.736 6.496 4.864C6.99733 4.98133 7.424 5.168 7.776 5.424C8.128 5.68 8.4 6.00533 8.592 6.4C8.784 6.79467 8.88 7.26933 8.88 7.824C8.88 8.38933 8.77333 8.87467 8.56 9.28C8.35733 9.68533 8.06933 10.016 7.696 10.272C7.33333 10.528 6.896 10.72 6.384 10.848C5.88267 10.9653 5.33867 11.024 4.752 11.024H2.96V16H1.376V4.672ZM2.96 9.68H4.64C5.024 9.68 5.376 9.648 5.696 9.584C6.02667 9.50933 6.30933 9.40267 6.544 9.264C6.77867 9.11467 6.96 8.92267 7.088 8.688C7.216 8.45333 7.28 8.16533 7.28 7.824C7.28 7.48267 7.21067 7.2 7.072 6.976C6.944 6.74133 6.76267 6.55467 6.528 6.416C6.304 6.26667 6.032 6.16533 5.712 6.112C5.392 6.048 5.04533 6.016 4.672 6.016H2.96V9.68ZM14.641 11.088C14.641 10.5227 14.4703 10.1067 14.129 9.84C13.7877 9.56267 13.3343 9.424 12.769 9.424C12.3423 9.424 11.937 9.50933 11.553 9.68C11.1797 9.84 10.865 10.048 10.609 10.304L9.809 9.344C10.1823 8.992 10.6357 8.71467 11.169 8.512C11.713 8.30933 12.2943 8.208 12.913 8.208C13.457 8.208 13.9263 8.288 14.321 8.448C14.7263 8.59733 15.057 8.80533 15.313 9.072C15.569 9.33867 15.761 9.65333 15.889 10.016C16.017 10.3787 16.081 10.768 16.081 11.184V14.496C16.081 14.752 16.0863 15.024 16.097 15.312C16.1183 15.5893 16.1503 15.8187 16.193 16H14.833C14.7477 15.6373 14.705 15.2747 14.705 14.912H14.657C14.3797 15.3173 14.0277 15.632 13.601 15.856C13.185 16.08 12.689 16.192 12.113 16.192C11.8143 16.192 11.4997 16.1493 11.169 16.064C10.849 15.9893 10.5557 15.8613 10.289 15.68C10.0223 15.4987 9.79833 15.2587 9.617 14.96C9.44633 14.6613 9.361 14.2933 9.361 13.856C9.361 13.28 9.51567 12.8267 9.825 12.496C10.1343 12.1547 10.5397 11.8987 11.041 11.728C11.5423 11.5467 12.1077 11.4293 12.737 11.376C13.3663 11.3227 14.001 11.296 14.641 11.296V11.088ZM14.273 12.384C13.8997 12.384 13.5103 12.4 13.105 12.432C12.7103 12.464 12.3477 12.528 12.017 12.624C11.697 12.72 11.4303 12.864 11.217 13.056C11.0037 13.248 10.897 13.504 10.897 13.824C10.897 14.048 10.9397 14.2347 11.025 14.384C11.121 14.5333 11.2437 14.656 11.393 14.752C11.5423 14.848 11.7077 14.9173 11.889 14.96C12.0703 14.992 12.257 15.008 12.449 15.008C13.153 15.008 13.6917 14.8 14.065 14.384C14.449 13.9573 14.641 13.424 14.641 12.784V12.384H14.273ZM22.6889 10.336C22.5182 10.0587 22.2782 9.83467 21.9689 9.664C21.6595 9.48267 21.3129 9.392 20.9289 9.392C20.7582 9.392 20.5875 9.41333 20.4169 9.456C20.2462 9.488 20.0915 9.54667 19.9529 9.632C19.8249 9.70667 19.7182 9.808 19.6329 9.936C19.5582 10.0533 19.5209 10.2027 19.5209 10.384C19.5209 10.704 19.6649 10.944 19.9529 11.104C20.2409 11.2533 20.6729 11.392 21.2489 11.52C21.6115 11.6053 21.9475 11.7067 22.2569 11.824C22.5662 11.9413 22.8329 12.0907 23.0569 12.272C23.2915 12.4427 23.4729 12.6507 23.6009 12.896C23.7289 13.1413 23.7929 13.4293 23.7929 13.76C23.7929 14.208 23.7075 14.5867 23.5369 14.896C23.3662 15.2053 23.1369 15.4613 22.8489 15.664C22.5715 15.856 22.2515 15.9947 21.8889 16.08C21.5262 16.1653 21.1529 16.208 20.7689 16.208C20.1929 16.208 19.6275 16.096 19.0729 15.872C18.5289 15.648 18.0755 15.3067 17.7129 14.848L18.7849 13.936C18.9875 14.2347 19.2649 14.4853 19.6169 14.688C19.9795 14.8907 20.3742 14.992 20.8009 14.992C20.9929 14.992 21.1742 14.976 21.3449 14.944C21.5262 14.9013 21.6862 14.8373 21.8249 14.752C21.9742 14.6667 22.0915 14.5547 22.1769 14.416C22.2622 14.2773 22.3049 14.1013 22.3049 13.888C22.3049 13.536 22.1342 13.2747 21.7929 13.104C21.4622 12.9333 20.9715 12.7733 20.3209 12.624C20.0649 12.56 19.8035 12.4853 19.5369 12.4C19.2809 12.304 19.0462 12.176 18.8329 12.016C18.6195 11.856 18.4435 11.6587 18.3049 11.424C18.1769 11.1787 18.1129 10.88 18.1129 10.528C18.1129 10.1227 18.1929 9.776 18.3529 9.488C18.5235 9.18933 18.7422 8.94933 19.0089 8.768C19.2755 8.576 19.5795 8.43733 19.9209 8.352C20.2622 8.256 20.6142 8.208 20.9769 8.208C21.5209 8.208 22.0435 8.31467 22.5449 8.528C23.0569 8.74133 23.4515 9.05067 23.7289 9.456L22.6889 10.336ZM29.7983 10.336C29.6276 10.0587 29.3876 9.83467 29.0783 9.664C28.7689 9.48267 28.4223 9.392 28.0383 9.392C27.8676 9.392 27.6969 9.41333 27.5263 9.456C27.3556 9.488 27.2009 9.54667 27.0623 9.632C26.9343 9.70667 26.8276 9.808 26.7423 9.936C26.6676 10.0533 26.6303 10.2027 26.6303 10.384C26.6303 10.704 26.7743 10.944 27.0623 11.104C27.3503 11.2533 27.7823 11.392 28.3583 11.52C28.7209 11.6053 29.0569 11.7067 29.3663 11.824C29.6756 11.9413 29.9423 12.0907 30.1663 12.272C30.4009 12.4427 30.5823 12.6507 30.7103 12.896C30.8383 13.1413 30.9023 13.4293 30.9023 13.76C30.9023 14.208 30.8169 14.5867 30.6463 14.896C30.4756 15.2053 30.2463 15.4613 29.9583 15.664C29.6809 15.856 29.3609 15.9947 28.9983 16.08C28.6356 16.1653 28.2623 16.208 27.8783 16.208C27.3023 16.208 26.7369 16.096 26.1823 15.872C25.6383 15.648 25.1849 15.3067 24.8223 14.848L25.8943 13.936C26.0969 14.2347 26.3743 14.4853 26.7263 14.688C27.0889 14.8907 27.4836 14.992 27.9103 14.992C28.1023 14.992 28.2836 14.976 28.4543 14.944C28.6356 14.9013 28.7956 14.8373 28.9343 14.752C29.0836 14.6667 29.2009 14.5547 29.2863 14.416C29.3716 14.2773 29.4143 14.1013 29.4143 13.888C29.4143 13.536 29.2436 13.2747 28.9023 13.104C28.5716 12.9333 28.0809 12.7733 27.4303 12.624C27.1743 12.56 26.9129 12.4853 26.6463 12.4C26.3903 12.304 26.1556 12.176 25.9423 12.016C25.7289 11.856 25.5529 11.6587 25.4143 11.424C25.2863 11.1787 25.2223 10.88 25.2223 10.528C25.2223 10.1227 25.3023 9.776 25.4622 9.488C25.6329 9.18933 25.8516 8.94933 26.1183 8.768C26.3849 8.576 26.6889 8.43733 27.0303 8.352C27.3716 8.256 27.7236 8.208 28.0863 8.208C28.6303 8.208 29.1529 8.31467 29.6543 8.528C30.1663 8.74133 30.5609 9.05067 30.8383 9.456L29.7983 10.336ZM33.3716 8.416L35.0836 14.208H35.1156L36.9236 8.416H38.5076L40.3476 14.208H40.3796L42.0916 8.416H43.6756L41.1636 16H39.5956L37.7236 10.304H37.6916L35.8356 16H34.2676L31.7396 8.416H33.3716ZM52.8666 12.192C52.8666 12.7787 52.76 13.3173 52.5466 13.808C52.344 14.2987 52.056 14.7253 51.6826 15.088C51.32 15.44 50.888 15.7173 50.3866 15.92C49.8853 16.112 49.3466 16.208 48.7706 16.208C48.1946 16.208 47.656 16.112 47.1546 15.92C46.6533 15.7173 46.2213 15.44 45.8586 15.088C45.496 14.7253 45.208 14.2987 44.9946 13.808C44.792 13.3173 44.6906 12.7787 44.6906 12.192C44.6906 11.6053 44.792 11.072 44.9946 10.592C45.208 10.1013 45.496 9.68 45.8586 9.328C46.2213 8.976 46.6533 8.704 47.1546 8.512C47.656 8.30933 48.1946 8.208 48.7706 8.208C49.3466 8.208 49.8853 8.30933 50.3866 8.512C50.888 8.704 51.32 8.976 51.6826 9.328C52.056 9.68 52.344 10.1013 52.5466 10.592C52.76 11.072 52.8666 11.6053 52.8666 12.192ZM51.2986 12.192C51.2986 11.8293 51.24 11.4827 51.1226 11.152C51.016 10.8213 50.856 10.5333 50.6426 10.288C50.4293 10.032 50.1626 9.82933 49.8426 9.68C49.5333 9.53067 49.176 9.456 48.7706 9.456C48.3653 9.456 48.0026 9.53067 47.6826 9.68C47.3733 9.82933 47.112 10.032 46.8986 10.288C46.6853 10.5333 46.52 10.8213 46.4026 11.152C46.296 11.4827 46.2426 11.8293 46.2426 12.192C46.2426 12.5547 46.296 12.9013 46.4026 13.232C46.52 13.5627 46.6853 13.856 46.8986 14.112C47.112 14.368 47.3733 14.5707 47.6826 14.72C48.0026 14.8693 48.3653 14.944 48.7706 14.944C49.176 14.944 49.5333 14.8693 49.8426 14.72C50.1626 14.5707 50.4293 14.368 50.6426 14.112C50.856 13.856 51.016 13.5627 51.1226 13.232C51.24 12.9013 51.2986 12.5547 51.2986 12.192ZM54.9523 10.048C54.9523 9.84533 54.9469 9.584 54.9363 9.264C54.9256 8.944 54.9096 8.66133 54.8883 8.416H56.3123C56.3336 8.608 56.3496 8.832 56.3603 9.088C56.3709 9.33333 56.3763 9.536 56.3763 9.696H56.4243C56.6376 9.248 56.9469 8.89067 57.3523 8.624C57.7683 8.34667 58.2323 8.208 58.7443 8.208C58.9789 8.208 59.1763 8.22933 59.3363 8.272L59.2723 9.664C59.0589 9.61067 58.8296 9.584 58.5843 9.584C58.2216 9.584 57.9069 9.65333 57.6403 9.792C57.3736 9.92 57.1496 10.096 56.9683 10.32C56.7976 10.544 56.6696 10.8053 56.5843 11.104C56.4989 11.392 56.4563 11.696 56.4563 12.016V16H54.9523V10.048ZM66.5159 14.8C66.2279 15.2587 65.8332 15.6107 65.3319 15.856C64.8412 16.0907 64.3239 16.208 63.7799 16.208C63.1932 16.208 62.6652 16.1067 62.1959 15.904C61.7265 15.6907 61.3265 15.4027 60.9959 15.04C60.6652 14.6773 60.4092 14.2507 60.2279 13.76C60.0465 13.2693 59.9559 12.7467 59.9559 12.192C59.9559 11.6373 60.0465 11.12 60.2279 10.64C60.4092 10.1493 60.6652 9.72267 60.9959 9.36C61.3372 8.99733 61.7425 8.71467 62.2119 8.512C62.6812 8.30933 63.1985 8.208 63.7639 8.208C64.3825 8.208 64.9212 8.34133 65.3799 8.608C65.8385 8.864 66.2012 9.17867 66.4679 9.552H66.4999V3.904H68.0039V16H66.5479V14.8H66.5159ZM61.5239 12.192C61.5239 12.544 61.5772 12.8853 61.6839 13.216C61.7905 13.5467 61.9505 13.84 62.1639 14.096C62.3772 14.352 62.6385 14.56 62.9479 14.72C63.2572 14.8693 63.6199 14.944 64.0359 14.944C64.4199 14.944 64.7665 14.8693 65.0759 14.72C65.3959 14.5707 65.6679 14.3733 65.8919 14.128C66.1159 13.872 66.2865 13.5787 66.4039 13.248C66.5319 12.9173 66.5959 12.5707 66.5959 12.208C66.5959 11.8453 66.5319 11.4987 66.4039 11.168C66.2865 10.8373 66.1159 10.544 65.8919 10.288C65.6679 10.032 65.3959 9.82933 65.0759 9.68C64.7665 9.53067 64.4199 9.456 64.0359 9.456C63.6199 9.456 63.2572 9.53067 62.9479 9.68C62.6385 9.82933 62.3772 10.032 62.1639 10.288C61.9505 10.544 61.7905 10.8373 61.6839 11.168C61.5772 11.4987 61.5239 11.84 61.5239 12.192Z" fill="#4D4D4D"/>
<rect x="0.5" y="30.5" width="344" height="59" rx="7.5" fill="white"/>
<rect x="0.5" y="30.5" width="344" height="59" rx="7.5" stroke="#969696"/>
<path d="M13.136 65H11.984V54.696H8.192V53.672H16.928V54.696H13.136V65ZM22.7458 60.68C22.7138 59.976 22.4844 59.3947 22.0578 58.936C21.6418 58.4667 21.0444 58.232 20.2658 58.232C19.9031 58.232 19.5671 58.3013 19.2578 58.44C18.9484 58.568 18.6764 58.7493 18.4418 58.984C18.2071 59.208 18.0204 59.4693 17.8818 59.768C17.7431 60.056 17.6631 60.36 17.6418 60.68H22.7458ZM23.8498 61.032C23.8498 61.1067 23.8498 61.1867 23.8498 61.272C23.8498 61.3573 23.8444 61.448 23.8338 61.544H17.6258C17.6364 61.9173 17.7111 62.2693 17.8498 62.6C17.9884 62.9307 18.1804 63.2187 18.4258 63.464C18.6711 63.7093 18.9591 63.9067 19.2898 64.056C19.6204 64.1947 19.9778 64.264 20.3618 64.264C20.9271 64.264 21.4124 64.136 21.8178 63.88C22.2338 63.6133 22.5484 63.3093 22.7618 62.968L23.5778 63.608C23.1298 64.1733 22.6338 64.5787 22.0898 64.824C21.5564 65.0693 20.9804 65.192 20.3618 65.192C19.8071 65.192 19.2898 65.096 18.8098 64.904C18.3404 64.7013 17.9351 64.424 17.5938 64.072C17.2524 63.72 16.9804 63.304 16.7778 62.824C16.5858 62.344 16.4898 61.8213 16.4898 61.256C16.4898 60.6907 16.5858 60.168 16.7778 59.688C16.9698 59.208 17.2364 58.792 17.5778 58.44C17.9191 58.088 18.3191 57.816 18.7778 57.624C19.2364 57.4213 19.7324 57.32 20.2658 57.32C20.8524 57.32 21.3698 57.4213 21.8178 57.624C22.2658 57.816 22.6391 58.0827 22.9378 58.424C23.2364 58.7547 23.4604 59.144 23.6098 59.592C23.7698 60.04 23.8498 60.52 23.8498 61.032ZM27.8563 61.128L25.0883 57.512H26.4803L28.5283 60.36L30.5763 57.512H31.8883L29.1683 61.08L32.1443 65H30.7363L28.5123 61.88L26.2243 65H24.9123L27.8563 61.128ZM37.2223 58.424H35.1103V62.792C35.1103 63.0693 35.1369 63.2987 35.1903 63.48C35.2436 63.6613 35.3183 63.8053 35.4143 63.912C35.5209 64.008 35.6436 64.0773 35.7823 64.12C35.9209 64.152 36.0703 64.168 36.2303 64.168C36.3796 64.168 36.5343 64.1467 36.6943 64.104C36.8649 64.0613 37.0249 64.0027 37.1743 63.928L37.2223 64.872C37.0303 64.9467 36.8276 65 36.6143 65.032C36.4116 65.0747 36.1876 65.096 35.9423 65.096C35.7396 65.096 35.5263 65.0693 35.3023 65.016C35.0783 64.9627 34.8703 64.8613 34.6783 64.712C34.4863 64.5627 34.3263 64.36 34.1983 64.104C34.0809 63.848 34.0223 63.512 34.0223 63.096V58.424H32.4703V57.512H34.0223V55.4H35.1103V57.512H37.2223V58.424Z" fill="#969696"/>
<mask id="mask0_17_4245" style="mask-type:alpha" maskUnits="userSpaceOnUse" x="313" y="48" width="24" height="24">
<rect x="313" y="48" width="24" height="24" fill="#D9D9D9"/>
</mask>
<g mask="url(#mask0_17_4245)">
<path d="M329.1 61.3L327.65 59.85C327.8 59.0667 327.575 58.3334 326.975 57.65C326.375 56.9667 325.6 56.7 324.65 56.85L323.2 55.4C323.483 55.2667 323.771 55.1667 324.062 55.1C324.354 55.0334 324.667 55 325 55C326.25 55 327.312 55.4375 328.188 56.3125C329.062 57.1875 329.5 58.25 329.5 59.5C329.5 59.8334 329.467 60.1459 329.4 60.4375C329.333 60.7292 329.233 61.0167 329.1 61.3ZM332.3 64.4501L330.85 63.05C331.483 62.5667 332.046 62.0375 332.538 61.4626C333.029 60.8876 333.45 60.2334 333.8 59.5C332.967 57.8167 331.771 56.4792 330.212 55.4875C328.654 54.4959 326.917 54 325 54C324.517 54 324.042 54.0334 323.575 54.1C323.108 54.1667 322.65 54.2667 322.2 54.4L320.65 52.85C321.333 52.5667 322.033 52.3542 322.75 52.2125C323.467 52.0709 324.217 52 325 52C327.517 52 329.758 52.6959 331.725 54.0875C333.692 55.4792 335.117 57.2834 336 59.5C335.617 60.4834 335.113 61.3959 334.488 62.2375C333.863 63.0792 333.133 63.8167 332.3 64.4501ZM332.8 70.6L328.6 66.4501C328.017 66.6334 327.429 66.7709 326.838 66.8626C326.246 66.9542 325.633 67 325 67C322.483 67 320.242 66.3042 318.275 64.9125C316.308 63.5209 314.883 61.7167 314 59.5C314.35 58.6167 314.792 57.7959 315.325 57.0375C315.858 56.2792 316.467 55.6 317.15 55L314.4 52.2L315.8 50.8L334.2 69.2001L332.8 70.6ZM318.55 56.4C318.067 56.8334 317.625 57.3084 317.225 57.825C316.825 58.3417 316.483 58.9 316.2 59.5C317.033 61.1834 318.229 62.5209 319.787 63.5126C321.346 64.5042 323.083 65.0001 325 65.0001C325.333 65.0001 325.658 64.9792 325.975 64.9376C326.292 64.8959 326.617 64.85 326.95 64.8L326.05 63.85C325.867 63.9001 325.692 63.9376 325.525 63.9626C325.358 63.9875 325.183 64 325 64C323.75 64 322.688 63.5625 321.812 62.6875C320.938 61.8125 320.5 60.75 320.5 59.5C320.5 59.3167 320.512 59.1417 320.537 58.975C320.562 58.8084 320.6 58.6334 320.65 58.45L318.55 56.4Z" fill="#969696"/>
</g>
<path d="M1.992 106H1.128V97.504H6.252V98.272H1.992V101.224H5.952V101.98H1.992V106ZM12.8241 103.192C12.8241 103.616 12.7481 104.008 12.5961 104.368C12.4521 104.728 12.2481 105.04 11.9841 105.304C11.7201 105.568 11.4041 105.776 11.0361 105.928C10.6681 106.072 10.2641 106.144 9.82406 106.144C9.39206 106.144 8.99206 106.072 8.62406 105.928C8.25606 105.776 7.94006 105.568 7.67606 105.304C7.41206 105.04 7.20406 104.728 7.05206 104.368C6.90806 104.008 6.83606 103.616 6.83606 103.192C6.83606 102.768 6.90806 102.376 7.05206 102.016C7.20406 101.656 7.41206 101.344 7.67606 101.08C7.94006 100.816 8.25606 100.612 8.62406 100.468C8.99206 100.316 9.39206 100.24 9.82406 100.24C10.2641 100.24 10.6681 100.316 11.0361 100.468C11.4041 100.612 11.7201 100.816 11.9841 101.08C12.2481 101.344 12.4521 101.656 12.5961 102.016C12.7481 102.376 12.8241 102.768 12.8241 103.192ZM11.9601 103.192C11.9601 102.88 11.9081 102.588 11.8041 102.316C11.7081 102.036 11.5681 101.796 11.3841 101.596C11.2001 101.388 10.9761 101.224 10.7121 101.104C10.4481 100.984 10.1521 100.924 9.82406 100.924C9.49606 100.924 9.20006 100.984 8.93606 101.104C8.68006 101.224 8.46006 101.388 8.27606 101.596C8.09206 101.796 7.94806 102.036 7.84406 102.316C7.74806 102.588 7.70006 102.88 7.70006 103.192C7.70006 103.504 7.74806 103.8 7.84406 104.08C7.94806 104.352 8.09206 104.592 8.27606 104.8C8.46006 105 8.68006 105.16 8.93606 105.28C9.20006 105.392 9.49606 105.448 9.82406 105.448C10.1521 105.448 10.4481 105.392 10.7121 105.28C10.9761 105.16 11.2001 105 11.3841 104.8C11.5681 104.592 11.7081 104.352 11.8041 104.08C11.9081 103.8 11.9601 103.504 11.9601 103.192ZM14.58 101.62C14.58 101.468 14.576 101.272 14.568 101.032C14.56 100.792 14.548 100.576 14.532 100.384H15.312C15.328 100.536 15.34 100.704 15.348 100.888C15.356 101.072 15.36 101.224 15.36 101.344H15.384C15.544 101.016 15.784 100.752 16.104 100.552C16.424 100.344 16.784 100.24 17.184 100.24C17.288 100.24 17.38 100.244 17.46 100.252C17.548 100.26 17.636 100.276 17.724 100.3L17.616 101.068C17.568 101.052 17.488 101.036 17.376 101.02C17.264 101.004 17.152 100.996 17.04 100.996C16.824 100.996 16.616 101.036 16.416 101.116C16.216 101.196 16.04 101.324 15.888 101.5C15.744 101.668 15.624 101.888 15.528 102.16C15.44 102.424 15.396 102.744 15.396 103.12V106H14.58V101.62ZM18.9933 107.128C19.2173 107.416 19.5213 107.66 19.9053 107.86C20.2973 108.06 20.7093 108.16 21.1413 108.16C21.5413 108.16 21.8813 108.1 22.1613 107.98C22.4413 107.868 22.6653 107.712 22.8333 107.512C23.0093 107.312 23.1373 107.076 23.2173 106.804C23.2973 106.54 23.3373 106.256 23.3373 105.952V104.896H23.3133C23.0973 105.248 22.7893 105.52 22.3893 105.712C21.9973 105.904 21.5973 106 21.1893 106C20.7493 106 20.3493 105.928 19.9893 105.784C19.6373 105.64 19.3333 105.444 19.0773 105.196C18.8293 104.94 18.6333 104.636 18.4893 104.284C18.3533 103.932 18.2853 103.552 18.2853 103.144C18.2853 102.744 18.3533 102.368 18.4893 102.016C18.6333 101.664 18.8293 101.356 19.0773 101.092C19.3333 100.828 19.6373 100.62 19.9893 100.468C20.3493 100.316 20.7493 100.24 21.1893 100.24C21.5973 100.24 21.9973 100.336 22.3893 100.528C22.7813 100.72 23.0893 100.996 23.3133 101.356H23.3373V100.384H24.1533V105.952C24.1533 106.256 24.1093 106.58 24.0213 106.924C23.9413 107.268 23.7853 107.584 23.5533 107.872C23.3293 108.16 23.0213 108.4 22.6293 108.592C22.2373 108.784 21.7293 108.88 21.1053 108.88C20.5853 108.88 20.0893 108.78 19.6173 108.58C19.1453 108.38 18.7413 108.104 18.4053 107.752L18.9933 107.128ZM19.1493 103.12C19.1493 103.416 19.1973 103.696 19.2933 103.96C19.3893 104.224 19.5253 104.456 19.7013 104.656C19.8853 104.856 20.1093 105.016 20.3733 105.136C20.6373 105.248 20.9373 105.304 21.2733 105.304C21.5853 105.304 21.8733 105.252 22.1373 105.148C22.4013 105.044 22.6293 104.896 22.8213 104.704C23.0133 104.512 23.1613 104.284 23.2653 104.02C23.3773 103.748 23.4333 103.448 23.4333 103.12C23.4333 102.824 23.3773 102.544 23.2653 102.28C23.1613 102.016 23.0133 101.784 22.8213 101.584C22.6293 101.384 22.4013 101.224 22.1373 101.104C21.8733 100.984 21.5853 100.924 21.2733 100.924C20.9373 100.924 20.6373 100.984 20.3733 101.104C20.1093 101.224 19.8853 101.384 19.7013 101.584C19.5253 101.784 19.3893 102.016 19.2933 102.28C19.1973 102.544 19.1493 102.824 19.1493 103.12ZM31.8553 103.192C31.8553 103.616 31.7793 104.008 31.6273 104.368C31.4833 104.728 31.2793 105.04 31.0153 105.304C30.7513 105.568 30.4353 105.776 30.0673 105.928C29.6993 106.072 29.2953 106.144 28.8553 106.144C28.4233 106.144 28.0233 106.072 27.6553 105.928C27.2873 105.776 26.9713 105.568 26.7073 105.304C26.4433 105.04 26.2353 104.728 26.0833 104.368C25.9393 104.008 25.8673 103.616 25.8673 103.192C25.8673 102.768 25.9393 102.376 26.0833 102.016C26.2353 101.656 26.4433 101.344 26.7073 101.08C26.9713 100.816 27.2873 100.612 27.6553 100.468C28.0233 100.316 28.4233 100.24 28.8553 100.24C29.2953 100.24 29.6993 100.316 30.0673 100.468C30.4353 100.612 30.7513 100.816 31.0153 101.08C31.2793 101.344 31.4833 101.656 31.6273 102.016C31.7793 102.376 31.8553 102.768 31.8553 103.192ZM30.9913 103.192C30.9913 102.88 30.9393 102.588 30.8353 102.316C30.7393 102.036 30.5993 101.796 30.4153 101.596C30.2313 101.388 30.0073 101.224 29.7433 101.104C29.4793 100.984 29.1833 100.924 28.8553 100.924C28.5273 100.924 28.2313 100.984 27.9673 101.104C27.7113 101.224 27.4913 101.388 27.3073 101.596C27.1233 101.796 26.9793 102.036 26.8753 102.316C26.7793 102.588 26.7313 102.88 26.7313 103.192C26.7313 103.504 26.7793 103.8 26.8753 104.08C26.9793 104.352 27.1233 104.592 27.3073 104.8C27.4913 105 27.7113 105.16 27.9673 105.28C28.2313 105.392 28.5273 105.448 28.8553 105.448C29.1833 105.448 29.4793 105.392 29.7433 105.28C30.0073 105.16 30.2313 105 30.4153 104.8C30.5993 104.592 30.7393 104.352 30.8353 104.08C30.9393 103.8 30.9913 103.504 30.9913 103.192ZM36.1433 101.068H34.5593V104.344C34.5593 104.552 34.5793 104.724 34.6193 104.86C34.6593 104.996 34.7153 105.104 34.7873 105.184C34.8673 105.256 34.9593 105.308 35.0633 105.34C35.1673 105.364 35.2793 105.376 35.3993 105.376C35.5113 105.376 35.6273 105.36 35.7473 105.328C35.8753 105.296 35.9953 105.252 36.1073 105.196L36.1433 105.904C35.9993 105.96 35.8473 106 35.6873 106.024C35.5353 106.056 35.3673 106.072 35.1833 106.072C35.0313 106.072 34.8713 106.052 34.7033 106.012C34.5353 105.972 34.3793 105.896 34.2353 105.784C34.0913 105.672 33.9713 105.52 33.8753 105.328C33.7873 105.136 33.7433 104.884 33.7433 104.572V101.068H32.5793V100.384H33.7433V98.8H34.5593V100.384H36.1433V101.068ZM42.3518 105.124H42.3758L44.1158 100.384H45.0038L42.2078 107.452C42.0398 107.884 41.8238 108.228 41.5598 108.484C41.3038 108.748 40.9318 108.88 40.4438 108.88C40.1958 108.88 39.9518 108.856 39.7118 108.808L39.7958 108.064C39.9878 108.128 40.1878 108.16 40.3958 108.16C40.6758 108.16 40.8958 108.072 41.0558 107.896C41.2158 107.728 41.3558 107.484 41.4758 107.164L41.9318 105.988L39.5318 100.384H40.4438L42.3518 105.124ZM51.8592 103.192C51.8592 103.616 51.7832 104.008 51.6312 104.368C51.4872 104.728 51.2832 105.04 51.0192 105.304C50.7552 105.568 50.4392 105.776 50.0712 105.928C49.7032 106.072 49.2992 106.144 48.8592 106.144C48.4272 106.144 48.0272 106.072 47.6592 105.928C47.2912 105.776 46.9752 105.568 46.7112 105.304C46.4472 105.04 46.2392 104.728 46.0872 104.368C45.9432 104.008 45.8712 103.616 45.8712 103.192C45.8712 102.768 45.9432 102.376 46.0872 102.016C46.2392 101.656 46.4472 101.344 46.7112 101.08C46.9752 100.816 47.2912 100.612 47.6592 100.468C48.0272 100.316 48.4272 100.24 48.8592 100.24C49.2992 100.24 49.7032 100.316 50.0712 100.468C50.4392 100.612 50.7552 100.816 51.0192 101.08C51.2832 101.344 51.4872 101.656 51.6312 102.016C51.7832 102.376 51.8592 102.768 51.8592 103.192ZM50.9952 103.192C50.9952 102.88 50.9432 102.588 50.8392 102.316C50.7432 102.036 50.6032 101.796 50.4192 101.596C50.2352 101.388 50.0112 101.224 49.7472 101.104C49.4832 100.984 49.1872 100.924 48.8592 100.924C48.5312 100.924 48.2352 100.984 47.9712 101.104C47.7152 101.224 47.4952 101.388 47.3112 101.596C47.1272 101.796 46.9832 102.036 46.8792 102.316C46.7832 102.588 46.7352 102.88 46.7352 103.192C46.7352 103.504 46.7832 103.8 46.8792 104.08C46.9832 104.352 47.1272 104.592 47.3112 104.8C47.4952 105 47.7152 105.16 47.9712 105.28C48.2352 105.392 48.5312 105.448 48.8592 105.448C49.1872 105.448 49.4832 105.392 49.7472 105.28C50.0112 105.16 50.2352 105 50.4192 104.8C50.6032 104.592 50.7432 104.352 50.8392 104.08C50.9432 103.8 50.9952 103.504 50.9952 103.192ZM57.6952 106C57.6792 105.848 57.6672 105.68 57.6592 105.496C57.6512 105.312 57.6472 105.16 57.6472 105.04H57.6232C57.4632 105.368 57.2032 105.636 56.8432 105.844C56.4832 106.044 56.1032 106.144 55.7032 106.144C54.9912 106.144 54.4552 105.932 54.0952 105.508C53.7432 105.084 53.5672 104.524 53.5672 103.828V100.384H54.3832V103.492C54.3832 103.788 54.4072 104.056 54.4552 104.296C54.5032 104.536 54.5832 104.744 54.6952 104.92C54.8152 105.088 54.9712 105.22 55.1632 105.316C55.3632 105.412 55.6112 105.46 55.9072 105.46C56.1232 105.46 56.3312 105.416 56.5312 105.328C56.7392 105.24 56.9232 105.108 57.0832 104.932C57.2432 104.748 57.3712 104.52 57.4672 104.248C57.5632 103.968 57.6112 103.64 57.6112 103.264V100.384H58.4272V104.764C58.4272 104.916 58.4312 105.112 58.4392 105.352C58.4472 105.592 58.4592 105.808 58.4752 106H57.6952ZM60.5878 101.62C60.5878 101.468 60.5838 101.272 60.5758 101.032C60.5678 100.792 60.5558 100.576 60.5398 100.384H61.3198C61.3358 100.536 61.3478 100.704 61.3558 100.888C61.3638 101.072 61.3678 101.224 61.3678 101.344H61.3918C61.5518 101.016 61.7918 100.752 62.1118 100.552C62.4318 100.344 62.7918 100.24 63.1918 100.24C63.2958 100.24 63.3878 100.244 63.4678 100.252C63.5558 100.26 63.6438 100.276 63.7318 100.3L63.6238 101.068C63.5758 101.052 63.4958 101.036 63.3838 101.02C63.2718 101.004 63.1598 100.996 63.0478 100.996C62.8318 100.996 62.6238 101.036 62.4238 101.116C62.2238 101.196 62.0478 101.324 61.8958 101.5C61.7518 101.668 61.6318 101.888 61.5358 102.16C61.4478 102.424 61.4038 102.744 61.4038 103.12V106H60.5878V101.62ZM68.728 108.88H67.912V100.384H68.728V101.356H68.764C68.996 100.988 69.304 100.712 69.688 100.528C70.08 100.336 70.476 100.24 70.876 100.24C71.316 100.24 71.712 100.316 72.064 100.468C72.424 100.62 72.728 100.828 72.976 101.092C73.232 101.356 73.428 101.668 73.564 102.028C73.708 102.388 73.78 102.776 73.78 103.192C73.78 103.608 73.708 103.996 73.564 104.356C73.428 104.716 73.232 105.028 72.976 105.292C72.728 105.556 72.424 105.764 72.064 105.916C71.712 106.068 71.316 106.144 70.876 106.144C70.476 106.144 70.08 106.052 69.688 105.868C69.304 105.676 68.996 105.404 68.764 105.052H68.728V108.88ZM72.916 103.192C72.916 102.88 72.868 102.588 72.772 102.316C72.676 102.036 72.536 101.796 72.352 101.596C72.176 101.388 71.956 101.224 71.692 101.104C71.428 100.984 71.128 100.924 70.792 100.924C70.48 100.924 70.192 100.984 69.928 101.104C69.664 101.216 69.436 101.376 69.244 101.584C69.052 101.784 68.9 102.024 68.788 102.304C68.684 102.576 68.632 102.872 68.632 103.192C68.632 103.512 68.684 103.812 68.788 104.092C68.9 104.364 69.052 104.6 69.244 104.8C69.436 105 69.664 105.16 69.928 105.28C70.192 105.392 70.48 105.448 70.792 105.448C71.128 105.448 71.428 105.392 71.692 105.28C71.956 105.16 72.176 105 72.352 104.8C72.536 104.592 72.676 104.352 72.772 104.08C72.868 103.8 72.916 103.504 72.916 103.192ZM79.0692 102.376C79.0692 101.888 78.9412 101.524 78.6852 101.284C78.4292 101.044 78.0572 100.924 77.5692 100.924C77.2332 100.924 76.9212 100.984 76.6332 101.104C76.3452 101.224 76.1012 101.384 75.9012 101.584L75.4452 101.044C75.6772 100.812 75.9812 100.62 76.3572 100.468C76.7412 100.316 77.1732 100.24 77.6532 100.24C77.9572 100.24 78.2412 100.284 78.5052 100.372C78.7692 100.452 79.0012 100.576 79.2012 100.744C79.4012 100.912 79.5572 101.124 79.6692 101.38C79.7812 101.636 79.8372 101.936 79.8372 102.28V104.74C79.8372 104.956 79.8452 105.18 79.8612 105.412C79.8772 105.644 79.9012 105.84 79.9332 106H79.2012C79.1772 105.864 79.1572 105.716 79.1412 105.556C79.1252 105.396 79.1172 105.24 79.1172 105.088H79.0932C78.8372 105.464 78.5452 105.736 78.2172 105.904C77.8972 106.064 77.5092 106.144 77.0532 106.144C76.8372 106.144 76.6132 106.112 76.3812 106.048C76.1572 105.992 75.9492 105.896 75.7572 105.76C75.5732 105.624 75.4172 105.448 75.2892 105.232C75.1692 105.016 75.1092 104.752 75.1092 104.44C75.1092 104.008 75.2172 103.668 75.4332 103.42C75.6572 103.164 75.9532 102.976 76.3212 102.856C76.6892 102.728 77.1092 102.648 77.5812 102.616C78.0612 102.576 78.5572 102.556 79.0692 102.556V102.376ZM78.8292 103.192C78.4932 103.192 78.1532 103.208 77.8092 103.24C77.4732 103.264 77.1652 103.32 76.8852 103.408C76.6132 103.488 76.3892 103.608 76.2132 103.768C76.0372 103.928 75.9492 104.14 75.9492 104.404C75.9492 104.604 75.9852 104.772 76.0572 104.908C76.1372 105.044 76.2412 105.156 76.3692 105.244C76.4972 105.324 76.6372 105.384 76.7892 105.424C76.9492 105.456 77.1092 105.472 77.2692 105.472C77.5572 105.472 77.8132 105.424 78.0372 105.328C78.2612 105.224 78.4492 105.088 78.6012 104.92C78.7532 104.744 78.8692 104.544 78.9492 104.32C79.0292 104.096 79.0692 103.86 79.0692 103.612V103.192H78.8292ZM84.9274 101.716C84.8074 101.484 84.6234 101.296 84.3754 101.152C84.1354 101 83.8594 100.924 83.5474 100.924C83.4034 100.924 83.2594 100.94 83.1154 100.972C82.9714 101.004 82.8434 101.056 82.7314 101.128C82.6194 101.2 82.5274 101.292 82.4554 101.404C82.3914 101.516 82.3594 101.648 82.3594 101.8C82.3594 102.064 82.4674 102.268 82.6834 102.412C82.8994 102.548 83.2394 102.664 83.7034 102.76C84.3674 102.896 84.8554 103.096 85.1674 103.36C85.4874 103.616 85.6474 103.964 85.6474 104.404C85.6474 104.724 85.5834 104.996 85.4554 105.22C85.3354 105.436 85.1754 105.616 84.9754 105.76C84.7754 105.896 84.5474 105.992 84.2914 106.048C84.0434 106.112 83.7914 106.144 83.5354 106.144C83.1114 106.144 82.6994 106.056 82.2994 105.88C81.8994 105.704 81.5714 105.428 81.3154 105.052L81.9634 104.572C82.1074 104.82 82.3194 105.028 82.5994 105.196C82.8794 105.364 83.1874 105.448 83.5234 105.448C83.6994 105.448 83.8674 105.432 84.0274 105.4C84.1874 105.368 84.3274 105.312 84.4474 105.232C84.5674 105.152 84.6634 105.052 84.7354 104.932C84.8074 104.804 84.8434 104.648 84.8434 104.464C84.8434 104.168 84.6994 103.948 84.4114 103.804C84.1314 103.652 83.7234 103.512 83.1874 103.384C83.0194 103.344 82.8394 103.296 82.6474 103.24C82.4634 103.176 82.2914 103.088 82.1314 102.976C81.9714 102.856 81.8394 102.708 81.7354 102.532C81.6314 102.356 81.5794 102.136 81.5794 101.872C81.5794 101.584 81.6354 101.34 81.7474 101.14C81.8594 100.932 82.0074 100.764 82.1914 100.636C82.3834 100.5 82.5994 100.4 82.8394 100.336C83.0794 100.272 83.3274 100.24 83.5834 100.24C83.9754 100.24 84.3554 100.328 84.7234 100.504C85.0914 100.68 85.3674 100.928 85.5514 101.248L84.9274 101.716ZM90.2594 101.716C90.1394 101.484 89.9554 101.296 89.7074 101.152C89.4674 101 89.1914 100.924 88.8794 100.924C88.7354 100.924 88.5914 100.94 88.4474 100.972C88.3034 101.004 88.1754 101.056 88.0634 101.128C87.9514 101.2 87.8594 101.292 87.7874 101.404C87.7234 101.516 87.6914 101.648 87.6914 101.8C87.6914 102.064 87.7994 102.268 88.0154 102.412C88.2314 102.548 88.5714 102.664 89.0354 102.76C89.6994 102.896 90.1874 103.096 90.4994 103.36C90.8194 103.616 90.9794 103.964 90.9794 104.404C90.9794 104.724 90.9154 104.996 90.7874 105.22C90.6674 105.436 90.5074 105.616 90.3074 105.76C90.1074 105.896 89.8794 105.992 89.6234 106.048C89.3754 106.112 89.1234 106.144 88.8674 106.144C88.4434 106.144 88.0314 106.056 87.6314 105.88C87.2314 105.704 86.9034 105.428 86.6474 105.052L87.2954 104.572C87.4394 104.82 87.6514 105.028 87.9314 105.196C88.2114 105.364 88.5194 105.448 88.8554 105.448C89.0314 105.448 89.1994 105.432 89.3594 105.4C89.5194 105.368 89.6594 105.312 89.7794 105.232C89.8994 105.152 89.9954 105.052 90.0674 104.932C90.1394 104.804 90.1754 104.648 90.1754 104.464C90.1754 104.168 90.0314 103.948 89.7434 103.804C89.4634 103.652 89.0554 103.512 88.5194 103.384C88.3514 103.344 88.1714 103.296 87.9794 103.24C87.7954 103.176 87.6234 103.088 87.4634 102.976C87.3034 102.856 87.1714 102.708 87.0674 102.532C86.9634 102.356 86.9114 102.136 86.9114 101.872C86.9114 101.584 86.9674 101.34 87.0794 101.14C87.1914 100.932 87.3394 100.764 87.5234 100.636C87.7154 100.5 87.9314 100.4 88.1714 100.336C88.4114 100.272 88.6594 100.24 88.9154 100.24C89.3074 100.24 89.6874 100.328 90.0554 100.504C90.4234 100.68 90.6994 100.928 90.8834 101.248L90.2594 101.716ZM92.7114 100.384L94.0674 104.944H94.0914L95.6034 100.384H96.3954L97.9314 104.944H97.9554L99.2994 100.384H100.163L98.3874 106H97.4994L95.9994 101.452H95.9754L94.4994 106H93.6114L91.8354 100.384H92.7114ZM107.137 103.192C107.137 103.616 107.061 104.008 106.909 104.368C106.765 104.728 106.561 105.04 106.297 105.304C106.033 105.568 105.717 105.776 105.349 105.928C104.981 106.072 104.577 106.144 104.137 106.144C103.705 106.144 103.305 106.072 102.937 105.928C102.569 105.776 102.253 105.568 101.989 105.304C101.725 105.04 101.517 104.728 101.365 104.368C101.221 104.008 101.149 103.616 101.149 103.192C101.149 102.768 101.221 102.376 101.365 102.016C101.517 101.656 101.725 101.344 101.989 101.08C102.253 100.816 102.569 100.612 102.937 100.468C103.305 100.316 103.705 100.24 104.137 100.24C104.577 100.24 104.981 100.316 105.349 100.468C105.717 100.612 106.033 100.816 106.297 101.08C106.561 101.344 106.765 101.656 106.909 102.016C107.061 102.376 107.137 102.768 107.137 103.192ZM106.273 103.192C106.273 102.88 106.221 102.588 106.117 102.316C106.021 102.036 105.881 101.796 105.697 101.596C105.513 101.388 105.289 101.224 105.025 101.104C104.761 100.984 104.465 100.924 104.137 100.924C103.809 100.924 103.513 100.984 103.249 101.104C102.993 101.224 102.773 101.388 102.589 101.596C102.405 101.796 102.261 102.036 102.157 102.316C102.061 102.588 102.013 102.88 102.013 103.192C102.013 103.504 102.061 103.8 102.157 104.08C102.261 104.352 102.405 104.592 102.589 104.8C102.773 105 102.993 105.16 103.249 105.28C103.513 105.392 103.809 105.448 104.137 105.448C104.465 105.448 104.761 105.392 105.025 105.28C105.289 105.16 105.513 105 105.697 104.8C105.881 104.592 106.021 104.352 106.117 104.08C106.221 103.8 106.273 103.504 106.273 103.192ZM108.893 101.62C108.893 101.468 108.889 101.272 108.881 101.032C108.873 100.792 108.861 100.576 108.845 100.384H109.625C109.641 100.536 109.653 100.704 109.661 100.888C109.669 101.072 109.673 101.224 109.673 101.344H109.697C109.857 101.016 110.097 100.752 110.417 100.552C110.737 100.344 111.097 100.24 111.497 100.24C111.601 100.24 111.693 100.244 111.773 100.252C111.861 100.26 111.949 100.276 112.037 100.3L111.929 101.068C111.881 101.052 111.801 101.036 111.689 101.02C111.577 101.004 111.465 100.996 111.353 100.996C111.137 100.996 110.929 101.036 110.729 101.116C110.529 101.196 110.353 101.324 110.201 101.5C110.057 101.668 109.937 101.888 109.841 102.16C109.753 102.424 109.709 102.744 109.709 103.12V106H108.893V101.62ZM117.626 105.052C117.386 105.412 117.074 105.684 116.69 105.868C116.306 106.052 115.91 106.144 115.502 106.144C115.062 106.144 114.662 106.068 114.302 105.916C113.95 105.764 113.646 105.556 113.39 105.292C113.142 105.028 112.946 104.716 112.802 104.356C112.666 103.996 112.598 103.608 112.598 103.192C112.598 102.776 112.666 102.388 112.802 102.028C112.946 101.668 113.142 101.356 113.39 101.092C113.646 100.828 113.95 100.62 114.302 100.468C114.662 100.316 115.062 100.24 115.502 100.24C115.91 100.24 116.306 100.336 116.69 100.528C117.074 100.712 117.386 100.988 117.626 101.356H117.65V96.928H118.466V106H117.65V105.052H117.626ZM113.462 103.192C113.462 103.504 113.51 103.8 113.606 104.08C113.702 104.352 113.838 104.592 114.014 104.8C114.198 105 114.422 105.16 114.686 105.28C114.95 105.392 115.25 105.448 115.586 105.448C115.898 105.448 116.186 105.392 116.45 105.28C116.714 105.16 116.942 105 117.134 104.8C117.326 104.6 117.474 104.364 117.578 104.092C117.69 103.812 117.746 103.512 117.746 103.192C117.746 102.872 117.69 102.576 117.578 102.304C117.474 102.024 117.326 101.784 117.134 101.584C116.942 101.376 116.714 101.216 116.45 101.104C116.186 100.984 115.898 100.924 115.586 100.924C115.25 100.924 114.95 100.984 114.686 101.104C114.422 101.224 114.198 101.388 114.014 101.596C113.838 101.796 113.702 102.036 113.606 102.316C113.51 102.588 113.462 102.88 113.462 103.192ZM122.854 103.696H122.014V102.976C122.014 102.752 122.038 102.552 122.086 102.376C122.142 102.192 122.214 102.028 122.302 101.884C122.398 101.74 122.502 101.612 122.614 101.5C122.734 101.38 122.854 101.264 122.974 101.152L123.31 100.852C123.51 100.692 123.674 100.508 123.802 100.3C123.938 100.092 124.006 99.832 124.006 99.52C124.006 99.296 123.966 99.096 123.886 98.92C123.806 98.744 123.698 98.596 123.562 98.476C123.426 98.356 123.266 98.264 123.082 98.2C122.906 98.136 122.714 98.104 122.506 98.104C122.074 98.104 121.722 98.236 121.45 98.5C121.186 98.764 121.022 99.1 120.958 99.508L120.142 99.364C120.262 98.74 120.534 98.252 120.958 97.9C121.39 97.54 121.918 97.36 122.542 97.36C122.862 97.36 123.162 97.408 123.442 97.504C123.73 97.592 123.978 97.728 124.186 97.912C124.394 98.088 124.558 98.308 124.678 98.572C124.806 98.836 124.87 99.136 124.87 99.472C124.87 99.728 124.842 99.952 124.786 100.144C124.73 100.336 124.65 100.508 124.546 100.66C124.45 100.812 124.334 100.952 124.198 101.08C124.062 101.2 123.918 101.324 123.766 101.452C123.598 101.588 123.454 101.712 123.334 101.824C123.222 101.936 123.13 102.056 123.058 102.184C122.986 102.304 122.934 102.44 122.902 102.592C122.87 102.744 122.854 102.928 122.854 103.144V103.696ZM123.166 105.424C123.166 105.592 123.106 105.744 122.986 105.88C122.866 106.008 122.71 106.072 122.518 106.072C122.326 106.072 122.17 106.008 122.05 105.88C121.93 105.744 121.87 105.592 121.87 105.424C121.87 105.256 121.93 105.108 122.05 104.98C122.17 104.844 122.326 104.776 122.518 104.776C122.71 104.776 122.866 104.844 122.986 104.98C123.106 105.108 123.166 105.256 123.166 105.424Z" fill="#35A8F7"/>
<path d="M0 107.2H17.8062V107.8H0V107.2ZM24.5375 107.2H40.5406V107.8H24.5375V107.2ZM42.9125 107.2H67.3141V107.8H42.9125V107.2ZM69.3266 107.2H125.35V107.8H69.3266V107.2Z" fill="#35A8F7"/>
</svg>
