<svg width="163" height="31" viewBox="0 0 163 31" fill="none" xmlns="http://www.w3.org/2000/svg">
<path d="M11.872 4.672V22.656H6.4V4.672H4.47035e-08V5.72205e-06H18.272V4.672H11.872ZM28.3953 12.864C28.3953 12.032 28.1286 11.3173 27.5953 10.72C27.0833 10.1227 26.3046 9.82401 25.2593 9.82401C24.7473 9.82401 24.2779 9.90934 23.8513 10.08C23.4246 10.2293 23.0513 10.4427 22.7313 10.72C22.4113 10.9973 22.1553 11.328 21.9633 11.712C21.7713 12.0747 21.6646 12.4587 21.6433 12.864H28.3953ZM33.2273 14.88C33.2273 15.0933 33.2273 15.3067 33.2273 15.52C33.2273 15.7333 33.2166 15.936 33.1953 16.128H21.6433C21.6859 16.576 21.8139 16.9813 22.0273 17.344C22.2619 17.7067 22.5499 18.0267 22.8913 18.304C23.2539 18.56 23.6486 18.7627 24.0753 18.912C24.5233 19.0613 24.9819 19.136 25.4513 19.136C26.2833 19.136 26.9873 18.9867 27.5633 18.688C28.1393 18.368 28.6086 17.9627 28.9713 17.472L32.6193 19.776C31.8726 20.864 30.8806 21.7067 29.6433 22.304C28.4273 22.88 27.0086 23.168 25.3873 23.168C24.1926 23.168 23.0619 22.9867 21.9953 22.624C20.9286 22.24 19.9899 21.696 19.1793 20.992C18.3899 20.2667 17.7606 19.3813 17.2913 18.336C16.8433 17.2907 16.6193 16.096 16.6193 14.752C16.6193 13.4507 16.8433 12.2773 17.2913 11.232C17.7393 10.1653 18.3473 9.26934 19.1153 8.54401C19.8833 7.79734 20.7899 7.22134 21.8353 6.816C22.8806 6.41067 24.0113 6.20801 25.2273 6.20801C26.4006 6.20801 27.4779 6.41067 28.4593 6.816C29.4406 7.2 30.2833 7.76534 30.9873 8.512C31.6913 9.25867 32.2353 10.1653 32.6193 11.232C33.0246 12.2987 33.2273 13.5147 33.2273 14.88ZM46.643 22.656L43.219 17.76L39.699 22.656H33.619L39.987 14.304L34.227 6.72001H40.339L43.315 10.976L46.323 6.72001H52.243L46.515 14.304L52.819 22.656H46.643ZM60.459 10.656V16.736C60.459 17.4827 60.5977 18.048 60.875 18.432C61.1737 18.7947 61.6963 18.976 62.443 18.976C62.699 18.976 62.9657 18.9547 63.243 18.912C63.5417 18.8693 63.787 18.8053 63.979 18.72L64.043 22.56C63.6803 22.688 63.2217 22.7947 62.667 22.88C62.1123 22.9867 61.5577 23.04 61.003 23.04C59.9363 23.04 59.0403 22.912 58.315 22.656C57.5897 22.3787 57.003 21.9947 56.555 21.504C56.1283 20.992 55.819 20.3947 55.627 19.712C55.435 19.008 55.339 18.2293 55.339 17.376V10.656H52.779V6.72001H55.307V2.52801H60.459V6.72001H64.203V10.656H60.459ZM82.9573 22.656V5.72205e-06H88.4613V22.656H82.9573ZM103.321 22.656V13.952C103.321 13.504 103.278 13.0773 103.193 12.672C103.129 12.2667 103.011 11.9147 102.841 11.616C102.67 11.296 102.425 11.0507 102.105 10.88C101.806 10.688 101.422 10.592 100.953 10.592C100.483 10.592 100.067 10.688 99.7048 10.88C99.3634 11.0507 99.0754 11.296 98.8408 11.616C98.6061 11.936 98.4248 12.3093 98.2968 12.736C98.1901 13.1413 98.1368 13.568 98.1368 14.016V22.656H92.8568V6.72001H97.9448V8.92801H98.0088C98.2008 8.58667 98.4461 8.25601 98.7448 7.93601C99.0648 7.59467 99.4274 7.30667 99.8328 7.07201C100.259 6.83734 100.718 6.64534 101.209 6.49601C101.699 6.34667 102.222 6.27201 102.777 6.27201C103.843 6.27201 104.75 6.46401 105.497 6.84801C106.243 7.23201 106.841 7.73334 107.289 8.35201C107.758 8.94934 108.089 9.64267 108.281 10.432C108.494 11.2213 108.601 12.0107 108.601 12.8V22.656H103.321ZM130.304 14.624C130.304 15.7333 130.133 16.8 129.792 17.824C129.45 18.848 128.949 19.7547 128.288 20.544C127.648 21.312 126.858 21.9307 125.92 22.4C124.981 22.8693 123.914 23.104 122.72 23.104C121.738 23.104 120.81 22.912 119.936 22.528C119.061 22.1227 118.378 21.5787 117.888 20.896H117.824V30.336H112.576V6.72001H117.568V8.67201H117.664C118.154 8.03201 118.826 7.47734 119.68 7.00801C120.554 6.51734 121.578 6.27201 122.752 6.27201C123.904 6.27201 124.949 6.49601 125.888 6.94401C126.826 7.392 127.616 8.00001 128.256 8.76801C128.917 9.53601 129.418 10.432 129.76 11.456C130.122 12.4587 130.304 13.5147 130.304 14.624ZM125.216 14.624C125.216 14.112 125.13 13.6107 124.96 13.12C124.81 12.6293 124.576 12.2027 124.256 11.84C123.957 11.456 123.573 11.1467 123.104 10.912C122.634 10.6773 122.09 10.56 121.472 10.56C120.874 10.56 120.341 10.6773 119.872 10.912C119.402 11.1467 118.997 11.456 118.656 11.84C118.336 12.224 118.08 12.6613 117.888 13.152C117.717 13.6427 117.632 14.144 117.632 14.656C117.632 15.168 117.717 15.6693 117.888 16.16C118.08 16.6507 118.336 17.088 118.656 17.472C118.997 17.856 119.402 18.1653 119.872 18.4C120.341 18.6347 120.874 18.752 121.472 18.752C122.09 18.752 122.634 18.6347 123.104 18.4C123.573 18.1653 123.957 17.856 124.256 17.472C124.576 17.088 124.81 16.6507 124.96 16.16C125.13 15.648 125.216 15.136 125.216 14.624ZM144.103 22.656V20.448H144.039C143.847 20.8107 143.591 21.152 143.271 21.472C142.972 21.792 142.609 22.0693 142.183 22.304C141.777 22.5387 141.319 22.7307 140.807 22.88C140.316 23.0293 139.793 23.104 139.239 23.104C138.172 23.104 137.265 22.912 136.519 22.528C135.793 22.144 135.196 21.6533 134.727 21.056C134.279 20.4373 133.948 19.744 133.735 18.976C133.543 18.1867 133.447 17.3867 133.447 16.576V6.72001H138.727V15.36C138.727 15.808 138.759 16.2347 138.823 16.64C138.887 17.0453 139.004 17.408 139.175 17.728C139.367 18.048 139.612 18.304 139.911 18.496C140.209 18.6667 140.604 18.752 141.095 18.752C142.012 18.752 142.705 18.4107 143.175 17.728C143.665 17.0453 143.911 16.2453 143.911 15.328V6.72001H149.159V22.656H144.103ZM158.959 10.656V16.736C158.959 17.4827 159.098 18.048 159.375 18.432C159.674 18.7947 160.196 18.976 160.943 18.976C161.199 18.976 161.466 18.9547 161.743 18.912C162.042 18.8693 162.287 18.8053 162.479 18.72L162.543 22.56C162.18 22.688 161.722 22.7947 161.167 22.88C160.612 22.9867 160.058 23.04 159.503 23.04C158.436 23.04 157.54 22.912 156.815 22.656C156.09 22.3787 155.503 21.9947 155.055 21.504C154.628 20.992 154.319 20.3947 154.127 19.712C153.935 19.008 153.839 18.2293 153.839 17.376V10.656H151.279V6.72001H153.807V2.52801H158.959V6.72001H162.703V10.656H158.959Z" fill="black"/>
</svg>
