<svg width="345" height="108" viewBox="0 0 345 108" fill="none" xmlns="http://www.w3.org/2000/svg">
<path d="M2.96 14.592H8.016V16H1.376V4.672H2.96V14.592ZM14.1879 11.088C14.1879 10.5227 14.0172 10.1067 13.6759 9.84C13.3345 9.56267 12.8812 9.424 12.3159 9.424C11.8892 9.424 11.4839 9.50933 11.0999 9.68C10.7265 9.84 10.4119 10.048 10.1559 10.304L9.35588 9.344C9.72921 8.992 10.1825 8.71467 10.7159 8.512C11.2599 8.30933 11.8412 8.208 12.4599 8.208C13.0039 8.208 13.4732 8.288 13.8679 8.448C14.2732 8.59733 14.6039 8.80533 14.8599 9.072C15.1159 9.33867 15.3079 9.65333 15.4359 10.016C15.5639 10.3787 15.6279 10.768 15.6279 11.184V14.496C15.6279 14.752 15.6332 15.024 15.6439 15.312C15.6652 15.5893 15.6972 15.8187 15.7399 16H14.3799C14.2945 15.6373 14.2519 15.2747 14.2519 14.912H14.2039C13.9265 15.3173 13.5745 15.632 13.1479 15.856C12.7319 16.08 12.2359 16.192 11.6599 16.192C11.3612 16.192 11.0465 16.1493 10.7159 16.064C10.3959 15.9893 10.1025 15.8613 9.83588 15.68C9.56921 15.4987 9.34521 15.2587 9.16388 14.96C8.99321 14.6613 8.90788 14.2933 8.90788 13.856C8.90788 13.28 9.06254 12.8267 9.37188 12.496C9.68121 12.1547 10.0865 11.8987 10.5879 11.728C11.0892 11.5467 11.6545 11.4293 12.2839 11.376C12.9132 11.3227 13.5479 11.296 14.1879 11.296V11.088ZM13.8199 12.384C13.4465 12.384 13.0572 12.4 12.6519 12.432C12.2572 12.464 11.8945 12.528 11.5639 12.624C11.2439 12.72 10.9772 12.864 10.7639 13.056C10.5505 13.248 10.4439 13.504 10.4439 13.824C10.4439 14.048 10.4865 14.2347 10.5719 14.384C10.6679 14.5333 10.7905 14.656 10.9399 14.752C11.0892 14.848 11.2545 14.9173 11.4359 14.96C11.6172 14.992 11.8039 15.008 11.9959 15.008C12.6999 15.008 13.2385 14.8 13.6119 14.384C13.9959 13.9573 14.1879 13.424 14.1879 12.784V12.384H13.8199ZM19.6278 14.8V16H18.1718V3.904H19.6758V9.552H19.7238C19.9798 9.17867 20.3371 8.864 20.7958 8.608C21.2544 8.34133 21.7984 8.208 22.4278 8.208C22.9931 8.208 23.5051 8.30933 23.9638 8.512C24.4331 8.71467 24.8331 8.99733 25.1638 9.36C25.5051 9.72267 25.7664 10.1493 25.9478 10.64C26.1291 11.12 26.2198 11.6373 26.2198 12.192C26.2198 12.7467 26.1291 13.2693 25.9478 13.76C25.7664 14.2507 25.5104 14.6773 25.1798 15.04C24.8491 15.4027 24.4491 15.6907 23.9798 15.904C23.5104 16.1067 22.9824 16.208 22.3958 16.208C21.8518 16.208 21.3344 16.0907 20.8438 15.856C20.3531 15.6107 19.9584 15.2587 19.6598 14.8H19.6278ZM24.6678 12.192C24.6678 11.84 24.6144 11.4987 24.5078 11.168C24.4011 10.8373 24.2411 10.544 24.0278 10.288C23.8144 10.032 23.5478 9.82933 23.2278 9.68C22.9184 9.53067 22.5558 9.456 22.1398 9.456C21.7558 9.456 21.4038 9.53067 21.0838 9.68C20.7744 9.82933 20.5078 10.032 20.2838 10.288C20.0598 10.544 19.8838 10.8373 19.7558 11.168C19.6384 11.4987 19.5798 11.8453 19.5798 12.208C19.5798 12.5707 19.6384 12.9173 19.7558 13.248C19.8838 13.5787 20.0598 13.872 20.2838 14.128C20.5078 14.3733 20.7744 14.5707 21.0838 14.72C21.4038 14.8693 21.7558 14.944 22.1398 14.944C22.5558 14.944 22.9184 14.8693 23.2278 14.72C23.5478 14.56 23.8144 14.352 24.0278 14.096C24.2411 13.84 24.4011 13.5467 24.5078 13.216C24.6144 12.8853 24.6678 12.544 24.6678 12.192ZM33.8636 11.536C33.853 11.2373 33.7996 10.96 33.7036 10.704C33.6183 10.4373 33.485 10.208 33.3036 10.016C33.133 9.824 32.9143 9.67467 32.6476 9.568C32.3916 9.45067 32.0876 9.392 31.7356 9.392C31.4156 9.392 31.1116 9.45067 30.8236 9.568C30.5463 9.67467 30.301 9.824 30.0876 10.016C29.885 10.208 29.7143 10.4373 29.5756 10.704C29.4476 10.96 29.373 11.2373 29.3516 11.536H33.8636ZM35.3836 12.144C35.3836 12.2293 35.3836 12.3147 35.3836 12.4C35.3836 12.4853 35.3783 12.5707 35.3676 12.656H29.3516C29.3623 12.976 29.4316 13.28 29.5596 13.568C29.6983 13.8453 29.8796 14.0907 30.1036 14.304C30.3276 14.5067 30.5836 14.6667 30.8716 14.784C31.1703 14.9013 31.485 14.96 31.8156 14.96C32.3276 14.96 32.7703 14.848 33.1436 14.624C33.517 14.4 33.8103 14.128 34.0236 13.808L35.0796 14.656C34.6743 15.1893 34.1943 15.584 33.6396 15.84C33.0956 16.0853 32.4876 16.208 31.8156 16.208C31.2396 16.208 30.7063 16.112 30.2156 15.92C29.725 15.728 29.3036 15.4613 28.9516 15.12C28.5996 14.768 28.3223 14.3467 28.1196 13.856C27.917 13.3653 27.8156 12.8213 27.8156 12.224C27.8156 11.6373 27.9116 11.0987 28.1036 10.608C28.3063 10.1067 28.5836 9.68 28.9356 9.328C29.2876 8.976 29.7036 8.704 30.1836 8.512C30.6636 8.30933 31.181 8.208 31.7356 8.208C32.2903 8.208 32.7916 8.29867 33.2396 8.48C33.6983 8.66133 34.0823 8.92267 34.3916 9.264C34.7116 9.60533 34.957 10.0213 35.1276 10.512C35.2983 10.992 35.3836 11.536 35.3836 12.144ZM39.0195 16H37.5155V3.904H39.0195V16Z" fill="#4D4D4D"/>
<rect x="0.5" y="30.5" width="344" height="57" rx="7.5" fill="white"/>
<rect x="0.5" y="30.5" width="344" height="57" rx="7.5" stroke="#969696"/>
<path d="M13.136 64H11.984V53.696H8.192V52.672H16.928V53.696H13.136V64ZM22.7458 59.68C22.7138 58.976 22.4844 58.3947 22.0578 57.936C21.6418 57.4667 21.0444 57.232 20.2658 57.232C19.9031 57.232 19.5671 57.3013 19.2578 57.44C18.9484 57.568 18.6764 57.7493 18.4418 57.984C18.2071 58.208 18.0204 58.4693 17.8818 58.768C17.7431 59.056 17.6631 59.36 17.6418 59.68H22.7458ZM23.8498 60.032C23.8498 60.1067 23.8498 60.1867 23.8498 60.272C23.8498 60.3573 23.8444 60.448 23.8338 60.544H17.6258C17.6364 60.9173 17.7111 61.2693 17.8498 61.6C17.9884 61.9307 18.1804 62.2187 18.4258 62.464C18.6711 62.7093 18.9591 62.9067 19.2898 63.056C19.6204 63.1947 19.9778 63.264 20.3618 63.264C20.9271 63.264 21.4124 63.136 21.8178 62.88C22.2338 62.6133 22.5484 62.3093 22.7618 61.968L23.5778 62.608C23.1298 63.1733 22.6338 63.5787 22.0898 63.824C21.5564 64.0693 20.9804 64.192 20.3618 64.192C19.8071 64.192 19.2898 64.096 18.8098 63.904C18.3404 63.7013 17.9351 63.424 17.5938 63.072C17.2524 62.72 16.9804 62.304 16.7778 61.824C16.5858 61.344 16.4898 60.8213 16.4898 60.256C16.4898 59.6907 16.5858 59.168 16.7778 58.688C16.9698 58.208 17.2364 57.792 17.5778 57.44C17.9191 57.088 18.3191 56.816 18.7778 56.624C19.2364 56.4213 19.7324 56.32 20.2658 56.32C20.8524 56.32 21.3698 56.4213 21.8178 56.624C22.2658 56.816 22.6391 57.0827 22.9378 57.424C23.2364 57.7547 23.4604 58.144 23.6098 58.592C23.7698 59.04 23.8498 59.52 23.8498 60.032ZM27.8563 60.128L25.0883 56.512H26.4803L28.5283 59.36L30.5763 56.512H31.8883L29.1683 60.08L32.1443 64H30.7363L28.5123 60.88L26.2243 64H24.9123L27.8563 60.128ZM37.2223 57.424H35.1103V61.792C35.1103 62.0693 35.1369 62.2987 35.1903 62.48C35.2436 62.6613 35.3183 62.8053 35.4143 62.912C35.5209 63.008 35.6436 63.0773 35.7823 63.12C35.9209 63.152 36.0703 63.168 36.2303 63.168C36.3796 63.168 36.5343 63.1467 36.6943 63.104C36.8649 63.0613 37.0249 63.0027 37.1743 62.928L37.2223 63.872C37.0303 63.9467 36.8276 64 36.6143 64.032C36.4116 64.0747 36.1876 64.096 35.9423 64.096C35.7396 64.096 35.5263 64.0693 35.3023 64.016C35.0783 63.9627 34.8703 63.8613 34.6783 63.712C34.4863 63.5627 34.3263 63.36 34.1983 63.104C34.0809 62.848 34.0223 62.512 34.0223 62.096V57.424H32.4703V56.512H34.0223V54.4H35.1103V56.512H37.2223V57.424Z" fill="#969696"/>
<path d="M4.068 99.716C3.948 99.484 3.764 99.296 3.516 99.152C3.276 99 3 98.924 2.688 98.924C2.544 98.924 2.4 98.94 2.256 98.972C2.112 99.004 1.984 99.056 1.872 99.128C1.76 99.2 1.668 99.292 1.596 99.404C1.532 99.516 1.5 99.648 1.5 99.8C1.5 100.064 1.608 100.268 1.824 100.412C2.04 100.548 2.38 100.664 2.844 100.76C3.508 100.896 3.996 101.096 4.308 101.36C4.628 101.616 4.788 101.964 4.788 102.404C4.788 102.724 4.724 102.996 4.596 103.22C4.476 103.436 4.316 103.616 4.116 103.76C3.916 103.896 3.688 103.992 3.432 104.048C3.184 104.112 2.932 104.144 2.676 104.144C2.252 104.144 1.84 104.056 1.44 103.88C1.04 103.704 0.712 103.428 0.456 103.052L1.104 102.572C1.248 102.82 1.46 103.028 1.74 103.196C2.02 103.364 2.328 103.448 2.664 103.448C2.84 103.448 3.008 103.432 3.168 103.4C3.328 103.368 3.468 103.312 3.588 103.232C3.708 103.152 3.804 103.052 3.876 102.932C3.948 102.804 3.984 102.648 3.984 102.464C3.984 102.168 3.84 101.948 3.552 101.804C3.272 101.652 2.864 101.512 2.328 101.384C2.16 101.344 1.98 101.296 1.788 101.24C1.604 101.176 1.432 101.088 1.272 100.976C1.112 100.856 0.98 100.708 0.876 100.532C0.772 100.356 0.72 100.136 0.72 99.872C0.72 99.584 0.776 99.34 0.888 99.14C1 98.932 1.148 98.764 1.332 98.636C1.524 98.5 1.74 98.4 1.98 98.336C2.22 98.272 2.468 98.24 2.724 98.24C3.116 98.24 3.496 98.328 3.864 98.504C4.232 98.68 4.508 98.928 4.692 99.248L4.068 99.716ZM10.492 104C10.476 103.848 10.464 103.68 10.456 103.496C10.448 103.312 10.444 103.16 10.444 103.04H10.42C10.26 103.368 10 103.636 9.64003 103.844C9.28003 104.044 8.90003 104.144 8.50003 104.144C7.78803 104.144 7.25203 103.932 6.89203 103.508C6.54003 103.084 6.36403 102.524 6.36403 101.828V98.384H7.18003V101.492C7.18003 101.788 7.20403 102.056 7.25203 102.296C7.30003 102.536 7.38003 102.744 7.49203 102.92C7.61203 103.088 7.76803 103.22 7.96003 103.316C8.16003 103.412 8.40803 103.46 8.70403 103.46C8.92003 103.46 9.12803 103.416 9.32803 103.328C9.53603 103.24 9.72003 103.108 9.88003 102.932C10.04 102.748 10.168 102.52 10.264 102.248C10.36 101.968 10.408 101.64 10.408 101.264V98.384H11.224V102.764C11.224 102.916 11.228 103.112 11.236 103.352C11.244 103.592 11.256 103.808 11.272 104H10.492ZM14.2247 103.052V104H13.4087V94.928H14.2247V99.356H14.2487C14.4887 98.988 14.8007 98.712 15.1847 98.528C15.5687 98.336 15.9647 98.24 16.3727 98.24C16.8127 98.24 17.2087 98.316 17.5607 98.468C17.9207 98.62 18.2247 98.828 18.4727 99.092C18.7287 99.356 18.9247 99.668 19.0607 100.028C19.2047 100.388 19.2767 100.776 19.2767 101.192C19.2767 101.608 19.2047 101.996 19.0607 102.356C18.9247 102.716 18.7287 103.028 18.4727 103.292C18.2247 103.556 17.9207 103.764 17.5607 103.916C17.2087 104.068 16.8127 104.144 16.3727 104.144C15.9647 104.144 15.5687 104.052 15.1847 103.868C14.8007 103.684 14.4887 103.412 14.2487 103.052H14.2247ZM18.4127 101.192C18.4127 100.88 18.3647 100.588 18.2687 100.316C18.1727 100.036 18.0327 99.796 17.8487 99.596C17.6727 99.388 17.4527 99.224 17.1887 99.104C16.9247 98.984 16.6247 98.924 16.2887 98.924C15.9767 98.924 15.6887 98.984 15.4247 99.104C15.1607 99.216 14.9327 99.376 14.7407 99.584C14.5487 99.784 14.3967 100.024 14.2847 100.304C14.1807 100.576 14.1287 100.872 14.1287 101.192C14.1287 101.512 14.1807 101.812 14.2847 102.092C14.3967 102.364 14.5487 102.6 14.7407 102.8C14.9327 103 15.1607 103.16 15.4247 103.28C15.6887 103.392 15.9767 103.448 16.2887 103.448C16.6247 103.448 16.9247 103.392 17.1887 103.28C17.4527 103.16 17.6727 103 17.8487 102.8C18.0327 102.592 18.1727 102.352 18.2687 102.08C18.3647 101.8 18.4127 101.504 18.4127 101.192ZM23.5573 99.068H21.9733V102.344C21.9733 102.552 21.9933 102.724 22.0333 102.86C22.0733 102.996 22.1293 103.104 22.2013 103.184C22.2813 103.256 22.3733 103.308 22.4773 103.34C22.5813 103.364 22.6933 103.376 22.8133 103.376C22.9253 103.376 23.0413 103.36 23.1613 103.328C23.2893 103.296 23.4093 103.252 23.5213 103.196L23.5573 103.904C23.4133 103.96 23.2613 104 23.1013 104.024C22.9493 104.056 22.7813 104.072 22.5973 104.072C22.4453 104.072 22.2853 104.052 22.1173 104.012C21.9493 103.972 21.7933 103.896 21.6493 103.784C21.5053 103.672 21.3853 103.52 21.2893 103.328C21.2013 103.136 21.1573 102.884 21.1573 102.572V99.068H19.9933V98.384H21.1573V96.8H21.9733V98.384H23.5573V99.068ZM29.1179 100.76C29.0939 100.232 28.9219 99.796 28.6019 99.452C28.2899 99.1 27.8419 98.924 27.2579 98.924C26.9859 98.924 26.7339 98.976 26.5019 99.08C26.2699 99.176 26.0659 99.312 25.8899 99.488C25.7139 99.656 25.5739 99.852 25.4699 100.076C25.3659 100.292 25.3059 100.52 25.2899 100.76H29.1179ZM29.9459 101.024C29.9459 101.08 29.9459 101.14 29.9459 101.204C29.9459 101.268 29.9419 101.336 29.9339 101.408H25.2779C25.2859 101.688 25.3419 101.952 25.4459 102.2C25.5499 102.448 25.6939 102.664 25.8779 102.848C26.0619 103.032 26.2779 103.18 26.5259 103.292C26.7739 103.396 27.0419 103.448 27.3299 103.448C27.7539 103.448 28.1179 103.352 28.4219 103.16C28.7339 102.96 28.9699 102.732 29.1299 102.476L29.7419 102.956C29.4059 103.38 29.0339 103.684 28.6259 103.868C28.2259 104.052 27.7939 104.144 27.3299 104.144C26.9139 104.144 26.5259 104.072 26.1659 103.928C25.8139 103.776 25.5099 103.568 25.2539 103.304C24.9979 103.04 24.7939 102.728 24.6419 102.368C24.4979 102.008 24.4259 101.616 24.4259 101.192C24.4259 100.768 24.4979 100.376 24.6419 100.016C24.7859 99.656 24.9859 99.344 25.2419 99.08C25.4979 98.816 25.7979 98.612 26.1419 98.468C26.4859 98.316 26.8579 98.24 27.2579 98.24C27.6979 98.24 28.0859 98.316 28.4219 98.468C28.7579 98.612 29.0379 98.812 29.2619 99.068C29.4859 99.316 29.6539 99.608 29.7659 99.944C29.8859 100.28 29.9459 100.64 29.9459 101.024ZM32.9508 101.096L30.8748 98.384H31.9188L33.4548 100.52L34.9908 98.384H35.9748L33.9348 101.06L36.1668 104H35.1108L33.4428 101.66L31.7268 104H30.7428L32.9508 101.096ZM39.9753 99.068H38.3913V102.344C38.3913 102.552 38.4113 102.724 38.4513 102.86C38.4913 102.996 38.5473 103.104 38.6193 103.184C38.6993 103.256 38.7913 103.308 38.8953 103.34C38.9993 103.364 39.1113 103.376 39.2313 103.376C39.3433 103.376 39.4593 103.36 39.5793 103.328C39.7073 103.296 39.8273 103.252 39.9393 103.196L39.9753 103.904C39.8313 103.96 39.6793 104 39.5193 104.024C39.3673 104.056 39.1993 104.072 39.0153 104.072C38.8633 104.072 38.7033 104.052 38.5353 104.012C38.3673 103.972 38.2113 103.896 38.0673 103.784C37.9233 103.672 37.8033 103.52 37.7073 103.328C37.6193 103.136 37.5753 102.884 37.5753 102.572V99.068H36.4113V98.384H37.5753V96.8H38.3913V98.384H39.9753V99.068Z" fill="#969696"/>
</svg>
