<svg width="345" height="90" viewBox="0 0 345 90" fill="none" xmlns="http://www.w3.org/2000/svg">
<path d="M2.96 14.592H8.016V16H1.376V4.672H2.96V14.592ZM16.8666 12.192C16.8666 12.7787 16.76 13.3173 16.5466 13.808C16.344 14.2987 16.056 14.7253 15.6826 15.088C15.32 15.44 14.888 15.7173 14.3866 15.92C13.8853 16.112 13.3466 16.208 12.7706 16.208C12.1946 16.208 11.656 16.112 11.1546 15.92C10.6533 15.7173 10.2213 15.44 9.85863 15.088C9.49596 14.7253 9.20796 14.2987 8.99463 13.808C8.79196 13.3173 8.69063 12.7787 8.69063 12.192C8.69063 11.6053 8.79196 11.072 8.99463 10.592C9.20796 10.1013 9.49596 9.68 9.85863 9.328C10.2213 8.976 10.6533 8.704 11.1546 8.512C11.656 8.30933 12.1946 8.208 12.7706 8.208C13.3466 8.208 13.8853 8.30933 14.3866 8.512C14.888 8.704 15.32 8.976 15.6826 9.328C16.056 9.68 16.344 10.1013 16.5466 10.592C16.76 11.072 16.8666 11.6053 16.8666 12.192ZM15.2986 12.192C15.2986 11.8293 15.24 11.4827 15.1226 11.152C15.016 10.8213 14.856 10.5333 14.6426 10.288C14.4293 10.032 14.1626 9.82933 13.8426 9.68C13.5333 9.53067 13.176 9.456 12.7706 9.456C12.3653 9.456 12.0026 9.53067 11.6826 9.68C11.3733 9.82933 11.112 10.032 10.8986 10.288C10.6853 10.5333 10.52 10.8213 10.4026 11.152C10.296 11.4827 10.2426 11.8293 10.2426 12.192C10.2426 12.5547 10.296 12.9013 10.4026 13.232C10.52 13.5627 10.6853 13.856 10.8986 14.112C11.112 14.368 11.3733 14.5707 11.6826 14.72C12.0026 14.8693 12.3653 14.944 12.7706 14.944C13.176 14.944 13.5333 14.8693 13.8426 14.72C14.1626 14.5707 14.4293 14.368 14.6426 14.112C14.856 13.856 15.016 13.5627 15.1226 13.232C15.24 12.9013 15.2986 12.5547 15.2986 12.192ZM24.2643 10.336C24.1043 10.0907 23.8643 9.888 23.5443 9.728C23.2243 9.55733 22.8829 9.472 22.5203 9.472C22.1256 9.472 21.7736 9.54667 21.4643 9.696C21.1656 9.84533 20.9096 10.048 20.6963 10.304C20.4829 10.5493 20.3176 10.8373 20.2003 11.168C20.0936 11.4987 20.0403 11.8453 20.0403 12.208C20.0403 12.5707 20.0936 12.9173 20.2003 13.248C20.3176 13.5787 20.4829 13.872 20.6963 14.128C20.9096 14.3733 21.1709 14.5707 21.4803 14.72C21.7896 14.8693 22.1416 14.944 22.5363 14.944C22.9203 14.944 23.2669 14.8693 23.5763 14.72C23.8963 14.5707 24.1576 14.368 24.3603 14.112L25.3683 15.024C25.0483 15.3973 24.6483 15.6907 24.1683 15.904C23.6883 16.1067 23.1443 16.208 22.5363 16.208C21.9496 16.208 21.4056 16.112 20.9043 15.92C20.4136 15.728 19.9869 15.4613 19.6243 15.12C19.2616 14.768 18.9736 14.3467 18.7603 13.856C18.5576 13.3653 18.4563 12.816 18.4563 12.208C18.4563 11.6107 18.5576 11.0667 18.7603 10.576C18.9629 10.0853 19.2456 9.664 19.6083 9.312C19.9709 8.96 20.3976 8.688 20.8883 8.496C21.3896 8.304 21.9283 8.208 22.5043 8.208C23.0376 8.208 23.5656 8.31467 24.0883 8.528C24.6216 8.74133 25.0429 9.05067 25.3523 9.456L24.2643 10.336ZM31.5785 11.088C31.5785 10.5227 31.4078 10.1067 31.0665 9.84C30.7252 9.56267 30.2718 9.424 29.7065 9.424C29.2798 9.424 28.8745 9.50933 28.4905 9.68C28.1172 9.84 27.8025 10.048 27.5465 10.304L26.7465 9.344C27.1198 8.992 27.5732 8.71467 28.1065 8.512C28.6505 8.30933 29.2318 8.208 29.8505 8.208C30.3945 8.208 30.8638 8.288 31.2585 8.448C31.6638 8.59733 31.9945 8.80533 32.2505 9.072C32.5065 9.33867 32.6985 9.65333 32.8265 10.016C32.9545 10.3787 33.0185 10.768 33.0185 11.184V14.496C33.0185 14.752 33.0238 15.024 33.0345 15.312C33.0558 15.5893 33.0878 15.8187 33.1305 16H31.7705C31.6852 15.6373 31.6425 15.2747 31.6425 14.912H31.5945C31.3172 15.3173 30.9652 15.632 30.5385 15.856C30.1225 16.08 29.6265 16.192 29.0505 16.192C28.7518 16.192 28.4372 16.1493 28.1065 16.064C27.7865 15.9893 27.4932 15.8613 27.2265 15.68C26.9598 15.4987 26.7358 15.2587 26.5545 14.96C26.3838 14.6613 26.2985 14.2933 26.2985 13.856C26.2985 13.28 26.4532 12.8267 26.7625 12.496C27.0718 12.1547 27.4772 11.8987 27.9785 11.728C28.4798 11.5467 29.0452 11.4293 29.6745 11.376C30.3038 11.3227 30.9385 11.296 31.5785 11.296V11.088ZM31.2105 12.384C30.8372 12.384 30.4478 12.4 30.0425 12.432C29.6478 12.464 29.2852 12.528 28.9545 12.624C28.6345 12.72 28.3678 12.864 28.1545 13.056C27.9412 13.248 27.8345 13.504 27.8345 13.824C27.8345 14.048 27.8772 14.2347 27.9625 14.384C28.0585 14.5333 28.1812 14.656 28.3305 14.752C28.4798 14.848 28.6452 14.9173 28.8265 14.96C29.0078 14.992 29.1945 15.008 29.3865 15.008C30.0905 15.008 30.6292 14.8 31.0025 14.384C31.3865 13.9573 31.5785 13.424 31.5785 12.784V12.384H31.2105ZM39.0861 9.648H37.0701V13.6C37.0701 14.0587 37.1555 14.3893 37.3261 14.592C37.4968 14.784 37.7688 14.88 38.1421 14.88C38.2808 14.88 38.4301 14.864 38.5901 14.832C38.7501 14.8 38.8941 14.752 39.0221 14.688L39.0701 15.92C38.8888 15.984 38.6861 16.032 38.4621 16.064C38.2488 16.1067 38.0248 16.128 37.7901 16.128C37.0755 16.128 36.5261 15.9307 36.1421 15.536C35.7688 15.1413 35.5821 14.5493 35.5821 13.76V9.648H34.1261V8.416H35.5821V6.24H37.0701V8.416H39.0861V9.648ZM42.1598 16H40.6558V8.416H42.1598V16ZM42.4158 5.68C42.4158 5.95733 42.3144 6.18667 42.1118 6.368C41.9198 6.54933 41.6851 6.64 41.4078 6.64C41.1304 6.64 40.8958 6.54933 40.7038 6.368C40.5118 6.176 40.4158 5.94667 40.4158 5.68C40.4158 5.40267 40.5118 5.17333 40.7038 4.992C40.8958 4.8 41.1304 4.704 41.4078 4.704C41.6851 4.704 41.9198 4.8 42.1118 4.992C42.3144 5.17333 42.4158 5.40267 42.4158 5.68ZM52.4604 12.192C52.4604 12.7787 52.3537 13.3173 52.1404 13.808C51.9377 14.2987 51.6497 14.7253 51.2764 15.088C50.9137 15.44 50.4817 15.7173 49.9804 15.92C49.479 16.112 48.9404 16.208 48.3644 16.208C47.7884 16.208 47.2497 16.112 46.7484 15.92C46.247 15.7173 45.815 15.44 45.4524 15.088C45.0897 14.7253 44.8017 14.2987 44.5884 13.808C44.3857 13.3173 44.2844 12.7787 44.2844 12.192C44.2844 11.6053 44.3857 11.072 44.5884 10.592C44.8017 10.1013 45.0897 9.68 45.4524 9.328C45.815 8.976 46.247 8.704 46.7484 8.512C47.2497 8.30933 47.7884 8.208 48.3644 8.208C48.9404 8.208 49.479 8.30933 49.9804 8.512C50.4817 8.704 50.9137 8.976 51.2764 9.328C51.6497 9.68 51.9377 10.1013 52.1404 10.592C52.3537 11.072 52.4604 11.6053 52.4604 12.192ZM50.8924 12.192C50.8924 11.8293 50.8337 11.4827 50.7164 11.152C50.6097 10.8213 50.4497 10.5333 50.2364 10.288C50.023 10.032 49.7564 9.82933 49.4364 9.68C49.127 9.53067 48.7697 9.456 48.3644 9.456C47.959 9.456 47.5964 9.53067 47.2764 9.68C46.967 9.82933 46.7057 10.032 46.4924 10.288C46.279 10.5333 46.1137 10.8213 45.9964 11.152C45.8897 11.4827 45.8364 11.8293 45.8364 12.192C45.8364 12.5547 45.8897 12.9013 45.9964 13.232C46.1137 13.5627 46.279 13.856 46.4924 14.112C46.7057 14.368 46.967 14.5707 47.2764 14.72C47.5964 14.8693 47.959 14.944 48.3644 14.944C48.7697 14.944 49.127 14.8693 49.4364 14.72C49.7564 14.5707 50.023 14.368 50.2364 14.112C50.4497 13.856 50.6097 13.5627 50.7164 13.232C50.8337 12.9013 50.8924 12.5547 50.8924 12.192ZM55.906 8.416C55.9273 8.608 55.9433 8.82667 55.954 9.072C55.9647 9.30667 55.97 9.504 55.97 9.664H56.018C56.114 9.46133 56.242 9.27467 56.402 9.104C56.5727 8.92267 56.7647 8.768 56.978 8.64C57.1913 8.50133 57.426 8.39467 57.682 8.32C57.938 8.24533 58.2047 8.208 58.482 8.208C58.9727 8.208 59.394 8.29333 59.746 8.464C60.098 8.624 60.3913 8.84267 60.626 9.12C60.8607 9.39733 61.0313 9.72267 61.138 10.096C61.2553 10.4693 61.314 10.8693 61.314 11.296V16H59.81V11.792C59.81 11.4827 59.7833 11.1893 59.73 10.912C59.6873 10.6347 59.602 10.3893 59.474 10.176C59.346 9.96267 59.17 9.792 58.946 9.664C58.722 9.536 58.434 9.472 58.082 9.472C57.4847 9.472 56.994 9.70133 56.61 10.16C56.2367 10.608 56.05 11.2107 56.05 11.968V16H54.546V10.048C54.546 9.84533 54.5407 9.584 54.53 9.264C54.5193 8.944 54.5033 8.66133 54.482 8.416H55.906Z" fill="#4D4D4D"/>
<rect x="0.5" y="30.5" width="344" height="59" rx="7.5" fill="white"/>
<rect x="0.5" y="30.5" width="344" height="59" rx="7.5" stroke="#969696"/>
<mask id="mask0_655_2483" style="mask-type:alpha" maskUnits="userSpaceOnUse" x="8" y="48" width="24" height="24">
<rect x="8" y="48" width="24" height="24" fill="#D9D9D9"/>
</mask>
<g mask="url(#mask0_655_2483)">
<path d="M20.0017 59.8652C20.4992 59.8652 20.9246 59.6881 21.2777 59.3338C21.6311 58.9794 21.8077 58.5535 21.8077 58.056C21.8077 57.5585 21.6306 57.1331 21.2762 56.7798C20.9219 56.4266 20.4959 56.25 19.9982 56.25C19.5007 56.25 19.0754 56.4272 18.7222 56.7815C18.3689 57.1358 18.1922 57.5618 18.1922 58.0595C18.1922 58.557 18.3694 58.9823 18.7238 59.3355C19.0781 59.6887 19.5041 59.8652 20.0017 59.8652ZM20 67.5135C21.9563 65.7622 23.4534 64.0823 24.4913 62.474C25.5291 60.8657 26.048 59.457 26.048 58.248C26.048 56.425 25.4688 54.9263 24.3105 53.752C23.1522 52.5777 21.7153 51.9905 20 51.9905C18.2847 51.9905 16.8478 52.5777 15.6895 53.752C14.5312 54.9263 13.952 56.425 13.952 58.248C13.952 59.457 14.4709 60.8657 15.5087 62.474C16.5466 64.0823 18.0437 65.7622 20 67.5135ZM20 69.5095C17.4833 67.3288 15.5962 65.2994 14.3385 63.4212C13.0808 61.5429 12.452 59.8185 12.452 58.248C12.452 55.9403 13.1984 54.0721 14.6912 52.6432C16.1842 51.2144 17.9538 50.5 20 50.5C22.0462 50.5 23.8157 51.2144 25.3087 52.6432C26.8016 54.0721 27.548 55.9403 27.548 58.248C27.548 59.8185 26.9192 61.5429 25.6615 63.4212C24.4038 65.2994 22.5167 67.3288 20 69.5095Z" fill="#969696"/>
</g>
<path d="M47.136 65H45.984V54.696H42.192V53.672H50.928V54.696H47.136V65ZM56.7458 60.68C56.7138 59.976 56.4844 59.3947 56.0578 58.936C55.6418 58.4667 55.0444 58.232 54.2658 58.232C53.9031 58.232 53.5671 58.3013 53.2578 58.44C52.9484 58.568 52.6764 58.7493 52.4418 58.984C52.2071 59.208 52.0204 59.4693 51.8818 59.768C51.7431 60.056 51.6631 60.36 51.6418 60.68H56.7458ZM57.8498 61.032C57.8498 61.1067 57.8498 61.1867 57.8498 61.272C57.8498 61.3573 57.8444 61.448 57.8338 61.544H51.6258C51.6364 61.9173 51.7111 62.2693 51.8498 62.6C51.9884 62.9307 52.1804 63.2187 52.4258 63.464C52.6711 63.7093 52.9591 63.9067 53.2898 64.056C53.6204 64.1947 53.9778 64.264 54.3618 64.264C54.9271 64.264 55.4124 64.136 55.8178 63.88C56.2338 63.6133 56.5484 63.3093 56.7618 62.968L57.5778 63.608C57.1298 64.1733 56.6338 64.5787 56.0898 64.824C55.5564 65.0693 54.9804 65.192 54.3618 65.192C53.8071 65.192 53.2898 65.096 52.8098 64.904C52.3404 64.7013 51.9351 64.424 51.5938 64.072C51.2524 63.72 50.9804 63.304 50.7778 62.824C50.5858 62.344 50.4898 61.8213 50.4898 61.256C50.4898 60.6907 50.5858 60.168 50.7778 59.688C50.9698 59.208 51.2364 58.792 51.5778 58.44C51.9191 58.088 52.3191 57.816 52.7778 57.624C53.2364 57.4213 53.7324 57.32 54.2658 57.32C54.8524 57.32 55.3698 57.4213 55.8178 57.624C56.2658 57.816 56.6391 58.0827 56.9378 58.424C57.2364 58.7547 57.4604 59.144 57.6098 59.592C57.7698 60.04 57.8498 60.52 57.8498 61.032ZM61.8563 61.128L59.0883 57.512H60.4803L62.5283 60.36L64.5763 57.512H65.8883L63.1683 61.08L66.1443 65H64.7363L62.5123 61.88L60.2243 65H58.9123L61.8563 61.128ZM71.2223 58.424H69.1103V62.792C69.1103 63.0693 69.1369 63.2987 69.1903 63.48C69.2436 63.6613 69.3183 63.8053 69.4143 63.912C69.5209 64.008 69.6436 64.0773 69.7823 64.12C69.9209 64.152 70.0703 64.168 70.2303 64.168C70.3796 64.168 70.5343 64.1467 70.6943 64.104C70.8649 64.0613 71.0249 64.0027 71.1743 63.928L71.2223 64.872C71.0303 64.9467 70.8276 65 70.6143 65.032C70.4116 65.0747 70.1876 65.096 69.9423 65.096C69.7396 65.096 69.5263 65.0693 69.3023 65.016C69.0783 64.9627 68.8703 64.8613 68.6783 64.712C68.4863 64.5627 68.3263 64.36 68.1983 64.104C68.0809 63.848 68.0223 63.512 68.0223 63.096V58.424H66.4703V57.512H68.0223V55.4H69.1103V57.512H71.2223V58.424Z" fill="#969696"/>
</svg>
