<svg width="345" height="112" viewBox="0 0 345 112" fill="none" xmlns="http://www.w3.org/2000/svg">
<path d="M2.96 14.592H8.016V16H1.376V4.672H2.96V14.592ZM14.1879 11.088C14.1879 10.5227 14.0172 10.1067 13.6759 9.84C13.3345 9.56267 12.8812 9.424 12.3159 9.424C11.8892 9.424 11.4839 9.50933 11.0999 9.68C10.7265 9.84 10.4119 10.048 10.1559 10.304L9.35588 9.344C9.72921 8.992 10.1825 8.71467 10.7159 8.512C11.2599 8.30933 11.8412 8.208 12.4599 8.208C13.0039 8.208 13.4732 8.288 13.8679 8.448C14.2732 8.59733 14.6039 8.80533 14.8599 9.072C15.1159 9.33867 15.3079 9.65333 15.4359 10.016C15.5639 10.3787 15.6279 10.768 15.6279 11.184V14.496C15.6279 14.752 15.6332 15.024 15.6439 15.312C15.6652 15.5893 15.6972 15.8187 15.7399 16H14.3799C14.2945 15.6373 14.2519 15.2747 14.2519 14.912H14.2039C13.9265 15.3173 13.5745 15.632 13.1479 15.856C12.7319 16.08 12.2359 16.192 11.6599 16.192C11.3612 16.192 11.0465 16.1493 10.7159 16.064C10.3959 15.9893 10.1025 15.8613 9.83588 15.68C9.56921 15.4987 9.34521 15.2587 9.16388 14.96C8.99321 14.6613 8.90788 14.2933 8.90788 13.856C8.90788 13.28 9.06254 12.8267 9.37188 12.496C9.68121 12.1547 10.0865 11.8987 10.5879 11.728C11.0892 11.5467 11.6545 11.4293 12.2839 11.376C12.9132 11.3227 13.5479 11.296 14.1879 11.296V11.088ZM13.8199 12.384C13.4465 12.384 13.0572 12.4 12.6519 12.432C12.2572 12.464 11.8945 12.528 11.5639 12.624C11.2439 12.72 10.9772 12.864 10.7639 13.056C10.5505 13.248 10.4439 13.504 10.4439 13.824C10.4439 14.048 10.4865 14.2347 10.5719 14.384C10.6679 14.5333 10.7905 14.656 10.9399 14.752C11.0892 14.848 11.2545 14.9173 11.4359 14.96C11.6172 14.992 11.8039 15.008 11.9959 15.008C12.6999 15.008 13.2385 14.8 13.6119 14.384C13.9959 13.9573 14.1879 13.424 14.1879 12.784V12.384H13.8199ZM19.6278 14.8V16H18.1718V3.904H19.6758V9.552H19.7238C19.9798 9.17867 20.3371 8.864 20.7958 8.608C21.2544 8.34133 21.7984 8.208 22.4278 8.208C22.9931 8.208 23.5051 8.30933 23.9638 8.512C24.4331 8.71467 24.8331 8.99733 25.1638 9.36C25.5051 9.72267 25.7664 10.1493 25.9478 10.64C26.1291 11.12 26.2198 11.6373 26.2198 12.192C26.2198 12.7467 26.1291 13.2693 25.9478 13.76C25.7664 14.2507 25.5104 14.6773 25.1798 15.04C24.8491 15.4027 24.4491 15.6907 23.9798 15.904C23.5104 16.1067 22.9824 16.208 22.3958 16.208C21.8518 16.208 21.3344 16.0907 20.8438 15.856C20.3531 15.6107 19.9584 15.2587 19.6598 14.8H19.6278ZM24.6678 12.192C24.6678 11.84 24.6144 11.4987 24.5078 11.168C24.4011 10.8373 24.2411 10.544 24.0278 10.288C23.8144 10.032 23.5478 9.82933 23.2278 9.68C22.9184 9.53067 22.5558 9.456 22.1398 9.456C21.7558 9.456 21.4038 9.53067 21.0838 9.68C20.7744 9.82933 20.5078 10.032 20.2838 10.288C20.0598 10.544 19.8838 10.8373 19.7558 11.168C19.6384 11.4987 19.5798 11.8453 19.5798 12.208C19.5798 12.5707 19.6384 12.9173 19.7558 13.248C19.8838 13.5787 20.0598 13.872 20.2838 14.128C20.5078 14.3733 20.7744 14.5707 21.0838 14.72C21.4038 14.8693 21.7558 14.944 22.1398 14.944C22.5558 14.944 22.9184 14.8693 23.2278 14.72C23.5478 14.56 23.8144 14.352 24.0278 14.096C24.2411 13.84 24.4011 13.5467 24.5078 13.216C24.6144 12.8853 24.6678 12.544 24.6678 12.192ZM33.8636 11.536C33.853 11.2373 33.7996 10.96 33.7036 10.704C33.6183 10.4373 33.485 10.208 33.3036 10.016C33.133 9.824 32.9143 9.67467 32.6476 9.568C32.3916 9.45067 32.0876 9.392 31.7356 9.392C31.4156 9.392 31.1116 9.45067 30.8236 9.568C30.5463 9.67467 30.301 9.824 30.0876 10.016C29.885 10.208 29.7143 10.4373 29.5756 10.704C29.4476 10.96 29.373 11.2373 29.3516 11.536H33.8636ZM35.3836 12.144C35.3836 12.2293 35.3836 12.3147 35.3836 12.4C35.3836 12.4853 35.3783 12.5707 35.3676 12.656H29.3516C29.3623 12.976 29.4316 13.28 29.5596 13.568C29.6983 13.8453 29.8796 14.0907 30.1036 14.304C30.3276 14.5067 30.5836 14.6667 30.8716 14.784C31.1703 14.9013 31.485 14.96 31.8156 14.96C32.3276 14.96 32.7703 14.848 33.1436 14.624C33.517 14.4 33.8103 14.128 34.0236 13.808L35.0796 14.656C34.6743 15.1893 34.1943 15.584 33.6396 15.84C33.0956 16.0853 32.4876 16.208 31.8156 16.208C31.2396 16.208 30.7063 16.112 30.2156 15.92C29.725 15.728 29.3036 15.4613 28.9516 15.12C28.5996 14.768 28.3223 14.3467 28.1196 13.856C27.917 13.3653 27.8156 12.8213 27.8156 12.224C27.8156 11.6373 27.9116 11.0987 28.1036 10.608C28.3063 10.1067 28.5836 9.68 28.9356 9.328C29.2876 8.976 29.7036 8.704 30.1836 8.512C30.6636 8.30933 31.181 8.208 31.7356 8.208C32.2903 8.208 32.7916 8.29867 33.2396 8.48C33.6983 8.66133 34.0823 8.92267 34.3916 9.264C34.7116 9.60533 34.957 10.0213 35.1276 10.512C35.2983 10.992 35.3836 11.536 35.3836 12.144ZM39.0195 16H37.5155V3.904H39.0195V16Z" fill="#4D4D4D"/>
<path d="M50.5678 6.08L50.9998 7.296L48.9678 7.952L50.2638 9.696L49.2398 10.464L47.8958 8.656L46.5518 10.464L45.5278 9.696L46.8238 7.952L44.7918 7.296L45.2238 6.08L47.2558 6.736V4.672H48.5358V6.736L50.5678 6.08Z" fill="#FF3B30"/>
<rect x="0.5" y="30.5" width="344" height="57" rx="7.5" fill="white"/>
<rect x="0.5" y="30.5" width="344" height="57" rx="7.5" stroke="#FF3B30"/>
<path d="M13.136 64H11.984V53.696H8.192V52.672H16.928V53.696H13.136V64ZM22.7458 59.68C22.7138 58.976 22.4844 58.3947 22.0578 57.936C21.6418 57.4667 21.0444 57.232 20.2658 57.232C19.9031 57.232 19.5671 57.3013 19.2578 57.44C18.9484 57.568 18.6764 57.7493 18.4418 57.984C18.2071 58.208 18.0204 58.4693 17.8818 58.768C17.7431 59.056 17.6631 59.36 17.6418 59.68H22.7458ZM23.8498 60.032C23.8498 60.1067 23.8498 60.1867 23.8498 60.272C23.8498 60.3573 23.8444 60.448 23.8338 60.544H17.6258C17.6364 60.9173 17.7111 61.2693 17.8498 61.6C17.9884 61.9307 18.1804 62.2187 18.4258 62.464C18.6711 62.7093 18.9591 62.9067 19.2898 63.056C19.6204 63.1947 19.9778 63.264 20.3618 63.264C20.9271 63.264 21.4124 63.136 21.8178 62.88C22.2338 62.6133 22.5484 62.3093 22.7618 61.968L23.5778 62.608C23.1298 63.1733 22.6338 63.5787 22.0898 63.824C21.5564 64.0693 20.9804 64.192 20.3618 64.192C19.8071 64.192 19.2898 64.096 18.8098 63.904C18.3404 63.7013 17.9351 63.424 17.5938 63.072C17.2524 62.72 16.9804 62.304 16.7778 61.824C16.5858 61.344 16.4898 60.8213 16.4898 60.256C16.4898 59.6907 16.5858 59.168 16.7778 58.688C16.9698 58.208 17.2364 57.792 17.5778 57.44C17.9191 57.088 18.3191 56.816 18.7778 56.624C19.2364 56.4213 19.7324 56.32 20.2658 56.32C20.8524 56.32 21.3698 56.4213 21.8178 56.624C22.2658 56.816 22.6391 57.0827 22.9378 57.424C23.2364 57.7547 23.4604 58.144 23.6098 58.592C23.7698 59.04 23.8498 59.52 23.8498 60.032ZM27.8563 60.128L25.0883 56.512H26.4803L28.5283 59.36L30.5763 56.512H31.8883L29.1683 60.08L32.1443 64H30.7363L28.5123 60.88L26.2243 64H24.9123L27.8563 60.128ZM37.2223 57.424H35.1103V61.792C35.1103 62.0693 35.1369 62.2987 35.1903 62.48C35.2436 62.6613 35.3183 62.8053 35.4143 62.912C35.5209 63.008 35.6436 63.0773 35.7823 63.12C35.9209 63.152 36.0703 63.168 36.2303 63.168C36.3796 63.168 36.5343 63.1467 36.6943 63.104C36.8649 63.0613 37.0249 63.0027 37.1743 62.928L37.2223 63.872C37.0303 63.9467 36.8276 64 36.6143 64.032C36.4116 64.0747 36.1876 64.096 35.9423 64.096C35.7396 64.096 35.5263 64.0693 35.3023 64.016C35.0783 63.9627 34.8703 63.8613 34.6783 63.712C34.4863 63.5627 34.3263 63.36 34.1983 63.104C34.0809 62.848 34.0223 62.512 34.0223 62.096V57.424H32.4703V56.512H34.0223V54.4H35.1103V56.512H37.2223V57.424Z" fill="#969696"/>
<path d="M1.992 103.232H6.54V104H1.128V95.504H6.396V96.272H1.992V99.2H6.108V99.956H1.992V103.232ZM8.18156 99.62C8.18156 99.468 8.17756 99.272 8.16956 99.032C8.16156 98.792 8.14956 98.576 8.13356 98.384H8.91356C8.92956 98.536 8.94156 98.704 8.94956 98.888C8.95756 99.072 8.96156 99.224 8.96156 99.344H8.98556C9.14556 99.016 9.38556 98.752 9.70556 98.552C10.0256 98.344 10.3856 98.24 10.7856 98.24C10.8896 98.24 10.9816 98.244 11.0616 98.252C11.1496 98.26 11.2376 98.276 11.3256 98.3L11.2176 99.068C11.1696 99.052 11.0896 99.036 10.9776 99.02C10.8656 99.004 10.7536 98.996 10.6416 98.996C10.4256 98.996 10.2176 99.036 10.0176 99.116C9.81756 99.196 9.64156 99.324 9.48956 99.5C9.34556 99.668 9.22556 99.888 9.12956 100.16C9.04156 100.424 8.99756 100.744 8.99756 101.12V104H8.18156V99.62ZM12.5058 99.62C12.5058 99.468 12.5018 99.272 12.4938 99.032C12.4858 98.792 12.4738 98.576 12.4578 98.384H13.2378C13.2538 98.536 13.2658 98.704 13.2738 98.888C13.2818 99.072 13.2858 99.224 13.2858 99.344H13.3098C13.4698 99.016 13.7098 98.752 14.0298 98.552C14.3498 98.344 14.7098 98.24 15.1098 98.24C15.2138 98.24 15.3058 98.244 15.3858 98.252C15.4738 98.26 15.5618 98.276 15.6498 98.3L15.5418 99.068C15.4938 99.052 15.4138 99.036 15.3018 99.02C15.1898 99.004 15.0778 98.996 14.9658 98.996C14.7498 98.996 14.5418 99.036 14.3418 99.116C14.1418 99.196 13.9658 99.324 13.8138 99.5C13.6698 99.668 13.5498 99.888 13.4538 100.16C13.3658 100.424 13.3218 100.744 13.3218 101.12V104H12.5058V99.62ZM22.1991 101.192C22.1991 101.616 22.1231 102.008 21.9711 102.368C21.8271 102.728 21.6231 103.04 21.3591 103.304C21.0951 103.568 20.7791 103.776 20.4111 103.928C20.0431 104.072 19.6391 104.144 19.1991 104.144C18.7671 104.144 18.3671 104.072 17.9991 103.928C17.6311 103.776 17.3151 103.568 17.0511 103.304C16.7871 103.04 16.5791 102.728 16.4271 102.368C16.2831 102.008 16.2111 101.616 16.2111 101.192C16.2111 100.768 16.2831 100.376 16.4271 100.016C16.5791 99.656 16.7871 99.344 17.0511 99.08C17.3151 98.816 17.6311 98.612 17.9991 98.468C18.3671 98.316 18.7671 98.24 19.1991 98.24C19.6391 98.24 20.0431 98.316 20.4111 98.468C20.7791 98.612 21.0951 98.816 21.3591 99.08C21.6231 99.344 21.8271 99.656 21.9711 100.016C22.1231 100.376 22.1991 100.768 22.1991 101.192ZM21.3351 101.192C21.3351 100.88 21.2831 100.588 21.1791 100.316C21.0831 100.036 20.9431 99.796 20.7591 99.596C20.5751 99.388 20.3511 99.224 20.0871 99.104C19.8231 98.984 19.5271 98.924 19.1991 98.924C18.8711 98.924 18.5751 98.984 18.3111 99.104C18.0551 99.224 17.8351 99.388 17.6511 99.596C17.4671 99.796 17.3231 100.036 17.2191 100.316C17.1231 100.588 17.0751 100.88 17.0751 101.192C17.0751 101.504 17.1231 101.8 17.2191 102.08C17.3231 102.352 17.4671 102.592 17.6511 102.8C17.8351 103 18.0551 103.16 18.3111 103.28C18.5751 103.392 18.8711 103.448 19.1991 103.448C19.5271 103.448 19.8231 103.392 20.0871 103.28C20.3511 103.16 20.5751 103 20.7591 102.8C20.9431 102.592 21.0831 102.352 21.1791 102.08C21.2831 101.8 21.3351 101.504 21.3351 101.192ZM23.955 99.62C23.955 99.468 23.951 99.272 23.943 99.032C23.935 98.792 23.923 98.576 23.907 98.384H24.687C24.703 98.536 24.715 98.704 24.723 98.888C24.731 99.072 24.735 99.224 24.735 99.344H24.759C24.919 99.016 25.159 98.752 25.479 98.552C25.799 98.344 26.159 98.24 26.559 98.24C26.663 98.24 26.755 98.244 26.835 98.252C26.923 98.26 27.011 98.276 27.099 98.3L26.991 99.068C26.943 99.052 26.863 99.036 26.751 99.02C26.639 99.004 26.527 98.996 26.415 98.996C26.199 98.996 25.991 99.036 25.791 99.116C25.591 99.196 25.415 99.324 25.263 99.5C25.119 99.668 24.999 99.888 24.903 100.16C24.815 100.424 24.771 100.744 24.771 101.12V104H23.955V99.62ZM35.5272 102.536H35.5392L38.3832 95.504H39.7032V104H38.8392V96.62H38.8152L35.7432 104H35.2872L32.2152 96.62H32.1912V104H31.3272V95.504H32.6472L35.5272 102.536ZM46.1921 100.76C46.1681 100.232 45.9961 99.796 45.6761 99.452C45.3641 99.1 44.9161 98.924 44.3321 98.924C44.0601 98.924 43.8081 98.976 43.5761 99.08C43.3441 99.176 43.1401 99.312 42.9641 99.488C42.7881 99.656 42.6481 99.852 42.5441 100.076C42.4401 100.292 42.3801 100.52 42.3641 100.76H46.1921ZM47.0201 101.024C47.0201 101.08 47.0201 101.14 47.0201 101.204C47.0201 101.268 47.0161 101.336 47.0081 101.408H42.3521C42.3601 101.688 42.4161 101.952 42.5201 102.2C42.6241 102.448 42.7681 102.664 42.9521 102.848C43.1361 103.032 43.3521 103.18 43.6001 103.292C43.8481 103.396 44.1161 103.448 44.4041 103.448C44.8281 103.448 45.1921 103.352 45.4961 103.16C45.8081 102.96 46.0441 102.732 46.2041 102.476L46.8161 102.956C46.4801 103.38 46.1081 103.684 45.7001 103.868C45.3001 104.052 44.8681 104.144 44.4041 104.144C43.9881 104.144 43.6001 104.072 43.2401 103.928C42.8881 103.776 42.5841 103.568 42.3281 103.304C42.0721 103.04 41.8681 102.728 41.7161 102.368C41.5721 102.008 41.5001 101.616 41.5001 101.192C41.5001 100.768 41.5721 100.376 41.7161 100.016C41.8601 99.656 42.0601 99.344 42.3161 99.08C42.5721 98.816 42.8721 98.612 43.2161 98.468C43.5601 98.316 43.9321 98.24 44.3321 98.24C44.7721 98.24 45.1601 98.316 45.4961 98.468C45.8321 98.612 46.1121 98.812 46.3361 99.068C46.5601 99.316 46.7281 99.608 46.8401 99.944C46.9601 100.28 47.0201 100.64 47.0201 101.024ZM51.7633 99.716C51.6433 99.484 51.4593 99.296 51.2113 99.152C50.9713 99 50.6953 98.924 50.3833 98.924C50.2393 98.924 50.0953 98.94 49.9513 98.972C49.8073 99.004 49.6793 99.056 49.5673 99.128C49.4553 99.2 49.3633 99.292 49.2913 99.404C49.2273 99.516 49.1953 99.648 49.1953 99.8C49.1953 100.064 49.3033 100.268 49.5193 100.412C49.7353 100.548 50.0753 100.664 50.5393 100.76C51.2033 100.896 51.6913 101.096 52.0033 101.36C52.3233 101.616 52.4833 101.964 52.4833 102.404C52.4833 102.724 52.4193 102.996 52.2913 103.22C52.1713 103.436 52.0113 103.616 51.8113 103.76C51.6113 103.896 51.3833 103.992 51.1273 104.048C50.8793 104.112 50.6273 104.144 50.3713 104.144C49.9473 104.144 49.5353 104.056 49.1353 103.88C48.7353 103.704 48.4073 103.428 48.1513 103.052L48.7993 102.572C48.9433 102.82 49.1553 103.028 49.4353 103.196C49.7153 103.364 50.0233 103.448 50.3593 103.448C50.5353 103.448 50.7033 103.432 50.8633 103.4C51.0233 103.368 51.1633 103.312 51.2833 103.232C51.4033 103.152 51.4993 103.052 51.5713 102.932C51.6433 102.804 51.6793 102.648 51.6793 102.464C51.6793 102.168 51.5353 101.948 51.2473 101.804C50.9673 101.652 50.5593 101.512 50.0233 101.384C49.8553 101.344 49.6753 101.296 49.4833 101.24C49.2993 101.176 49.1273 101.088 48.9673 100.976C48.8073 100.856 48.6753 100.708 48.5713 100.532C48.4673 100.356 48.4153 100.136 48.4153 99.872C48.4153 99.584 48.4713 99.34 48.5833 99.14C48.6953 98.932 48.8433 98.764 49.0273 98.636C49.2193 98.5 49.4353 98.4 49.6753 98.336C49.9153 98.272 50.1633 98.24 50.4193 98.24C50.8113 98.24 51.1913 98.328 51.5593 98.504C51.9273 98.68 52.2033 98.928 52.3873 99.248L51.7633 99.716ZM57.0953 99.716C56.9753 99.484 56.7913 99.296 56.5433 99.152C56.3033 99 56.0273 98.924 55.7153 98.924C55.5713 98.924 55.4273 98.94 55.2833 98.972C55.1393 99.004 55.0113 99.056 54.8993 99.128C54.7873 99.2 54.6953 99.292 54.6233 99.404C54.5593 99.516 54.5273 99.648 54.5273 99.8C54.5273 100.064 54.6353 100.268 54.8513 100.412C55.0673 100.548 55.4073 100.664 55.8713 100.76C56.5353 100.896 57.0233 101.096 57.3353 101.36C57.6553 101.616 57.8153 101.964 57.8153 102.404C57.8153 102.724 57.7513 102.996 57.6233 103.22C57.5033 103.436 57.3433 103.616 57.1433 103.76C56.9433 103.896 56.7153 103.992 56.4593 104.048C56.2113 104.112 55.9593 104.144 55.7033 104.144C55.2793 104.144 54.8673 104.056 54.4673 103.88C54.0673 103.704 53.7393 103.428 53.4833 103.052L54.1313 102.572C54.2753 102.82 54.4873 103.028 54.7673 103.196C55.0473 103.364 55.3553 103.448 55.6913 103.448C55.8673 103.448 56.0353 103.432 56.1953 103.4C56.3553 103.368 56.4953 103.312 56.6153 103.232C56.7353 103.152 56.8313 103.052 56.9033 102.932C56.9753 102.804 57.0113 102.648 57.0113 102.464C57.0113 102.168 56.8673 101.948 56.5793 101.804C56.2993 101.652 55.8913 101.512 55.3553 101.384C55.1873 101.344 55.0073 101.296 54.8153 101.24C54.6313 101.176 54.4593 101.088 54.2993 100.976C54.1393 100.856 54.0073 100.708 53.9033 100.532C53.7993 100.356 53.7473 100.136 53.7473 99.872C53.7473 99.584 53.8033 99.34 53.9153 99.14C54.0273 98.932 54.1753 98.764 54.3593 98.636C54.5513 98.5 54.7673 98.4 55.0073 98.336C55.2473 98.272 55.4953 98.24 55.7513 98.24C56.1433 98.24 56.5233 98.328 56.8913 98.504C57.2593 98.68 57.5353 98.928 57.7193 99.248L57.0953 99.716ZM62.9794 100.376C62.9794 99.888 62.8514 99.524 62.5954 99.284C62.3394 99.044 61.9674 98.924 61.4794 98.924C61.1434 98.924 60.8314 98.984 60.5434 99.104C60.2554 99.224 60.0114 99.384 59.8114 99.584L59.3554 99.044C59.5874 98.812 59.8914 98.62 60.2674 98.468C60.6514 98.316 61.0834 98.24 61.5634 98.24C61.8674 98.24 62.1514 98.284 62.4154 98.372C62.6794 98.452 62.9114 98.576 63.1114 98.744C63.3114 98.912 63.4674 99.124 63.5794 99.38C63.6914 99.636 63.7474 99.936 63.7474 100.28V102.74C63.7474 102.956 63.7554 103.18 63.7714 103.412C63.7874 103.644 63.8114 103.84 63.8434 104H63.1114C63.0874 103.864 63.0674 103.716 63.0514 103.556C63.0354 103.396 63.0274 103.24 63.0274 103.088H63.0034C62.7474 103.464 62.4554 103.736 62.1274 103.904C61.8074 104.064 61.4194 104.144 60.9634 104.144C60.7474 104.144 60.5234 104.112 60.2914 104.048C60.0674 103.992 59.8594 103.896 59.6674 103.76C59.4834 103.624 59.3274 103.448 59.1994 103.232C59.0794 103.016 59.0194 102.752 59.0194 102.44C59.0194 102.008 59.1274 101.668 59.3434 101.42C59.5674 101.164 59.8634 100.976 60.2314 100.856C60.5994 100.728 61.0194 100.648 61.4914 100.616C61.9714 100.576 62.4674 100.556 62.9794 100.556V100.376ZM62.7394 101.192C62.4034 101.192 62.0634 101.208 61.7194 101.24C61.3834 101.264 61.0754 101.32 60.7954 101.408C60.5234 101.488 60.2994 101.608 60.1234 101.768C59.9474 101.928 59.8594 102.14 59.8594 102.404C59.8594 102.604 59.8954 102.772 59.9674 102.908C60.0474 103.044 60.1514 103.156 60.2794 103.244C60.4074 103.324 60.5474 103.384 60.6994 103.424C60.8594 103.456 61.0194 103.472 61.1794 103.472C61.4674 103.472 61.7234 103.424 61.9474 103.328C62.1714 103.224 62.3594 103.088 62.5114 102.92C62.6634 102.744 62.7794 102.544 62.8594 102.32C62.9394 102.096 62.9794 101.86 62.9794 101.612V101.192H62.7394ZM66.1495 105.128C66.3735 105.416 66.6775 105.66 67.0615 105.86C67.4535 106.06 67.8655 106.16 68.2975 106.16C68.6975 106.16 69.0375 106.1 69.3175 105.98C69.5975 105.868 69.8215 105.712 69.9895 105.512C70.1655 105.312 70.2935 105.076 70.3735 104.804C70.4535 104.54 70.4935 104.256 70.4935 103.952V102.896H70.4695C70.2535 103.248 69.9455 103.52 69.5455 103.712C69.1535 103.904 68.7535 104 68.3455 104C67.9055 104 67.5055 103.928 67.1455 103.784C66.7935 103.64 66.4895 103.444 66.2335 103.196C65.9855 102.94 65.7895 102.636 65.6455 102.284C65.5095 101.932 65.4415 101.552 65.4415 101.144C65.4415 100.744 65.5095 100.368 65.6455 100.016C65.7895 99.664 65.9855 99.356 66.2335 99.092C66.4895 98.828 66.7935 98.62 67.1455 98.468C67.5055 98.316 67.9055 98.24 68.3455 98.24C68.7535 98.24 69.1535 98.336 69.5455 98.528C69.9375 98.72 70.2455 98.996 70.4695 99.356H70.4935V98.384H71.3095V103.952C71.3095 104.256 71.2655 104.58 71.1775 104.924C71.0975 105.268 70.9415 105.584 70.7095 105.872C70.4855 106.16 70.1775 106.4 69.7855 106.592C69.3935 106.784 68.8855 106.88 68.2615 106.88C67.7415 106.88 67.2455 106.78 66.7735 106.58C66.3015 106.38 65.8975 106.104 65.5615 105.752L66.1495 105.128ZM66.3055 101.12C66.3055 101.416 66.3535 101.696 66.4495 101.96C66.5455 102.224 66.6815 102.456 66.8575 102.656C67.0415 102.856 67.2655 103.016 67.5295 103.136C67.7935 103.248 68.0935 103.304 68.4295 103.304C68.7415 103.304 69.0295 103.252 69.2935 103.148C69.5575 103.044 69.7855 102.896 69.9775 102.704C70.1695 102.512 70.3175 102.284 70.4215 102.02C70.5335 101.748 70.5895 101.448 70.5895 101.12C70.5895 100.824 70.5335 100.544 70.4215 100.28C70.3175 100.016 70.1695 99.784 69.9775 99.584C69.7855 99.384 69.5575 99.224 69.2935 99.104C69.0295 98.984 68.7415 98.924 68.4295 98.924C68.0935 98.924 67.7935 98.984 67.5295 99.104C67.2655 99.224 67.0415 99.384 66.8575 99.584C66.6815 99.784 66.5455 100.016 66.4495 100.28C66.3535 100.544 66.3055 100.824 66.3055 101.12ZM77.7156 100.76C77.6916 100.232 77.5196 99.796 77.1996 99.452C76.8876 99.1 76.4396 98.924 75.8556 98.924C75.5836 98.924 75.3316 98.976 75.0996 99.08C74.8676 99.176 74.6636 99.312 74.4876 99.488C74.3116 99.656 74.1716 99.852 74.0676 100.076C73.9636 100.292 73.9036 100.52 73.8876 100.76H77.7156ZM78.5436 101.024C78.5436 101.08 78.5436 101.14 78.5436 101.204C78.5436 101.268 78.5396 101.336 78.5316 101.408H73.8756C73.8836 101.688 73.9396 101.952 74.0436 102.2C74.1476 102.448 74.2916 102.664 74.4756 102.848C74.6596 103.032 74.8756 103.18 75.1236 103.292C75.3716 103.396 75.6396 103.448 75.9276 103.448C76.3516 103.448 76.7156 103.352 77.0196 103.16C77.3316 102.96 77.5676 102.732 77.7276 102.476L78.3396 102.956C78.0036 103.38 77.6316 103.684 77.2236 103.868C76.8236 104.052 76.3916 104.144 75.9276 104.144C75.5116 104.144 75.1236 104.072 74.7636 103.928C74.4116 103.776 74.1076 103.568 73.8516 103.304C73.5956 103.04 73.3916 102.728 73.2396 102.368C73.0956 102.008 73.0236 101.616 73.0236 101.192C73.0236 100.768 73.0956 100.376 73.2396 100.016C73.3836 99.656 73.5836 99.344 73.8396 99.08C74.0956 98.816 74.3956 98.612 74.7396 98.468C75.0836 98.316 75.4556 98.24 75.8556 98.24C76.2956 98.24 76.6836 98.316 77.0196 98.468C77.3556 98.612 77.6356 98.812 77.8596 99.068C78.0836 99.316 78.2516 99.608 78.3636 99.944C78.4836 100.28 78.5436 100.64 78.5436 101.024Z" fill="#FF3B30"/>
</svg>
