<svg width="600" height="600" viewBox="0 0 600 600" fill="none" xmlns="http://www.w3.org/2000/svg">
<rect width="600" height="600" fill="#35A8F7"/>
<path d="M374.602 142C348.773 142.016 324.007 152.395 305.739 170.836C287.488 189.292 277.215 214.315 277.2 240.412C282.56 371.128 466.643 371.128 472.001 240.412C471.986 214.315 461.712 189.292 443.461 170.836C425.195 152.395 400.431 142.016 374.602 142ZM374.602 326.373C352.038 326.357 330.414 317.3 314.457 301.179C298.5 285.057 289.537 263.208 289.522 240.41C294.204 126.375 455 126.375 459.68 240.41C459.649 263.193 450.67 285.04 434.729 301.163C418.773 317.269 397.15 326.342 374.602 326.373Z" fill="white" stroke="white" stroke-width="6"/>
<path d="M374.6 181.776C368.439 181.776 357.473 181.278 358.582 190.117C358.89 191.751 359.845 193.183 361.2 194.101C362.571 195.034 364.235 195.361 365.852 195.034C381.993 191.953 398.535 197.82 409.207 210.44C419.881 223.045 423.054 240.474 417.54 256.098C416.831 258.012 417.093 260.16 418.248 261.841C419.404 263.506 421.313 264.502 423.331 264.502C425.919 264.502 428.244 262.852 429.122 260.394C435.607 242.404 433.004 222.345 422.161 206.645C411.303 190.943 393.56 181.575 374.602 181.528L374.6 181.776Z" fill="white" stroke="white" stroke-width="6"/>
<path d="M197.542 249.001C178.844 249.032 160.916 256.549 147.7 269.916C134.47 283.268 127.031 301.382 127 320.275C130.881 414.826 264.2 414.826 268.08 320.275C268.049 301.383 260.61 283.269 247.38 269.916C234.165 256.549 216.237 249.032 197.538 249.001H197.542ZM197.542 379.095C182.109 379.08 167.308 372.871 156.386 361.853C145.482 350.82 139.336 335.865 139.321 320.271C142.463 242.276 252.615 242.34 255.758 320.271C255.742 335.863 249.597 350.818 238.693 361.853C227.773 372.871 212.972 379.08 197.537 379.095H197.542Z" fill="white" stroke="white" stroke-width="6"/>
<path d="M185.035 280.624C167.908 286.071 156.28 302.13 156.326 320.275C156.326 325.629 156.326 334.592 163.411 334.716C165.321 334.763 167.154 333.923 168.355 332.413C169.557 330.919 170.019 328.943 169.572 327.06C169.033 324.835 168.756 322.563 168.771 320.275C168.694 307.639 176.718 296.419 188.608 292.513C191.658 291.362 193.291 288.016 192.351 284.872C191.412 281.729 188.208 279.862 185.035 280.624Z" fill="white" stroke="white" stroke-width="6"/>
<path d="M294.605 388.136C288.387 391.241 284.973 396.555 286.178 401.256C286.528 402.645 287.114 404.97 289.842 404.302C290.578 404.125 291.226 403.726 291.589 403.216C291.952 402.71 292 402.152 291.706 401.707C291.353 401.184 291.098 400.622 290.955 400.027C290.099 396.757 292.445 393.054 296.754 390.866C297.849 390.266 298.257 389.237 297.691 388.515C297.125 387.792 295.773 387.624 294.605 388.136Z" fill="white" stroke="white" stroke-width="6"/>
<path d="M314.287 355.196C286.379 355.227 263.771 378.103 263.771 406.3C266.297 473.9 362.342 473.9 364.87 406.3C364.839 378.087 342.21 355.228 314.287 355.196ZM314.287 444.894C293.201 444.863 276.121 427.606 276.09 406.302C277.877 355.198 350.76 355.198 352.546 406.302C352.516 427.621 335.387 444.894 314.287 444.894Z" fill="white" stroke="white" stroke-width="6"/>
</svg>
