<svg width="1200" height="600" viewBox="0 0 1200 600" fill="none" xmlns="http://www.w3.org/2000/svg">
<rect width="1200" height="600" fill="#35A8F7"/>
<path d="M352.068 195C334.848 195.01 318.338 201.93 306.159 214.224C293.992 226.528 287.143 243.21 287.133 260.608C290.706 347.752 413.428 347.752 417.001 260.608C416.99 243.21 410.142 226.528 397.974 214.224C385.796 201.93 369.287 195.01 352.068 195ZM352.068 317.915C337.025 317.905 322.609 311.867 311.971 301.119C301.333 290.371 295.358 275.806 295.348 260.607C298.469 184.583 405.666 184.583 408.787 260.607C408.766 275.795 402.78 290.36 392.153 301.108C381.515 311.846 367.1 317.894 352.068 317.915Z" fill="white" stroke="white" stroke-width="4"/>
<path d="M352.067 221.517C347.959 221.517 340.649 221.185 341.388 227.078C341.593 228.167 342.23 229.122 343.134 229.734C344.047 230.356 345.156 230.574 346.235 230.356C356.995 228.302 368.023 232.213 375.138 240.627C382.254 249.03 384.369 260.65 380.693 271.066C380.221 272.342 380.396 273.773 381.166 274.894C381.936 276.004 383.209 276.668 384.554 276.668C386.279 276.668 387.83 275.568 388.415 273.929C392.738 261.936 391.003 248.564 383.774 238.096C376.535 227.629 364.707 221.383 352.068 221.352L352.067 221.517Z" fill="white" stroke="white" stroke-width="4"/>
<path d="M234.028 266.334C221.563 266.355 209.611 271.366 200.8 280.277C191.98 289.179 187.021 301.254 187 313.85C189.588 376.884 278.467 376.884 281.053 313.85C281.033 301.255 276.073 289.18 267.253 280.277C258.443 271.366 246.492 266.355 234.025 266.334H234.028ZM234.028 353.063C223.739 353.053 213.872 348.914 206.591 341.569C199.321 334.213 195.224 324.244 195.214 313.847C197.309 261.851 270.744 261.893 272.839 313.847C272.828 324.242 268.731 334.212 261.462 341.569C254.182 348.914 244.315 353.053 234.025 353.063H234.028Z" fill="white" stroke="white" stroke-width="4"/>
<path d="M225.69 287.416C214.272 291.047 206.52 301.754 206.551 313.85C206.551 317.419 206.551 323.395 211.274 323.478C212.547 323.509 213.769 322.948 214.57 321.942C215.371 320.946 215.679 319.629 215.381 318.373C215.022 316.89 214.837 315.375 214.847 313.85C214.796 305.426 220.146 297.946 228.072 295.342C230.105 294.574 231.194 292.344 230.567 290.248C229.941 288.153 227.805 286.908 225.69 287.416Z" fill="white" stroke="white" stroke-width="4"/>
<path d="M298.737 359.09C294.591 361.16 292.315 364.703 293.118 367.838C293.352 368.763 293.743 370.313 295.561 369.868C296.052 369.75 296.484 369.484 296.726 369.144C296.968 368.807 297 368.434 296.804 368.138C296.569 367.789 296.399 367.414 296.303 367.018C295.733 364.838 297.297 362.369 300.169 360.911C300.899 360.511 301.171 359.825 300.794 359.343C300.416 358.861 299.515 358.75 298.737 359.09Z" fill="white" stroke="white" stroke-width="4"/>
<path d="M311.858 337.131C293.252 337.151 278.18 352.402 278.18 371.2C279.864 416.267 343.895 416.267 345.58 371.2C345.559 352.391 330.473 337.152 311.858 337.131ZM311.858 396.93C297.801 396.909 286.414 385.404 286.393 371.201C287.584 337.132 336.173 337.132 337.364 371.201C337.344 385.414 325.925 396.93 311.858 396.93Z" fill="white" stroke="white" stroke-width="4"/>
<path d="M1013 313.139C1013 315.834 1012.84 318.642 1012.53 321.561H951.265C951.687 327.401 953.428 331.893 956.489 335.037C959.655 338.069 963.506 339.586 968.044 339.586C974.798 339.586 979.494 336.553 982.132 330.489H1010.94C1009.46 336.666 1006.77 342.225 1002.87 347.166C999.07 352.107 994.268 355.981 988.464 358.789C982.66 361.596 976.17 363 968.994 363C960.34 363 952.637 361.035 945.883 357.104C939.129 353.174 933.852 347.559 930.053 340.259C926.254 332.96 924.355 324.425 924.355 314.655C924.355 304.885 926.202 296.35 929.895 289.051C933.694 281.751 938.971 276.136 945.725 272.206C952.478 268.275 960.235 266.31 968.994 266.31C977.542 266.31 985.14 268.219 991.788 272.037C998.437 275.856 1003.61 281.302 1007.3 288.377C1011.1 295.452 1013 303.706 1013 313.139ZM985.298 305.559C985.298 300.618 983.715 296.687 980.549 293.767C977.384 290.848 973.426 289.388 968.677 289.388C964.14 289.388 960.288 290.791 957.122 293.599C954.061 296.406 952.162 300.393 951.423 305.559H985.298Z" fill="white"/>
<path d="M913.286 237V361.652H886.218V237H913.286Z" fill="white"/>
<path d="M809.016 280.965C811.549 276.586 815.189 273.048 819.938 270.353C824.687 267.658 830.122 266.31 836.243 266.31C843.524 266.31 850.12 268.275 856.03 272.206C861.939 276.136 866.583 281.751 869.96 289.051C873.442 296.35 875.183 304.829 875.183 314.487C875.183 324.144 873.442 332.679 869.96 340.091C866.583 347.39 861.939 353.061 856.03 357.104C850.12 361.035 843.524 363 836.243 363C830.016 363 824.582 361.708 819.938 359.126C815.295 356.43 811.654 352.893 809.016 348.513V361.652H781.948V237H809.016V280.965ZM847.64 314.487C847.64 307.299 845.74 301.684 841.941 297.642C838.248 293.487 833.657 291.409 828.17 291.409C822.788 291.409 818.197 293.487 814.398 297.642C810.704 301.797 808.858 307.468 808.858 314.655C808.858 321.842 810.704 327.513 814.398 331.668C818.197 335.823 822.788 337.901 828.17 337.901C833.552 337.901 838.142 335.823 841.941 331.668C845.74 327.401 847.64 321.674 847.64 314.487Z" fill="white"/>
<path d="M704.745 280.965C707.278 276.586 710.919 273.048 715.668 270.353C720.417 267.658 725.851 266.31 731.972 266.31C739.254 266.31 745.849 268.275 751.759 272.206C757.669 276.136 762.312 281.751 765.689 289.051C769.172 296.35 770.913 304.829 770.913 314.487C770.913 324.144 769.172 332.679 765.689 340.091C762.312 347.39 757.669 353.061 751.759 357.104C745.849 361.035 739.254 363 731.972 363C725.746 363 720.311 361.708 715.668 359.126C711.024 356.43 707.384 352.893 704.745 348.513V361.652H677.677V237H704.745V280.965ZM743.369 314.487C743.369 307.299 741.47 301.684 737.671 297.642C733.977 293.487 729.387 291.409 723.899 291.409C718.517 291.409 713.927 293.487 710.127 297.642C706.434 301.797 704.587 307.468 704.587 314.655C704.587 321.842 706.434 327.513 710.127 331.668C713.927 335.823 718.517 337.901 723.899 337.901C729.281 337.901 733.872 335.823 737.671 331.668C741.47 327.401 743.369 321.674 743.369 314.487Z" fill="white"/>
<path d="M661.399 267.658V361.652H634.331V348.85C631.587 353.005 627.841 356.374 623.092 358.957C618.449 361.428 613.278 362.663 607.579 362.663C600.825 362.663 594.863 361.091 589.692 357.946C584.521 354.69 580.511 350.029 577.661 343.965C574.812 337.901 573.387 330.77 573.387 322.572V267.658H600.298V318.698C600.298 324.986 601.828 329.871 604.888 333.353C607.949 336.834 612.064 338.575 617.235 338.575C622.512 338.575 626.68 336.834 629.74 333.353C632.801 329.871 634.331 324.986 634.331 318.698V267.658H661.399Z" fill="white"/>
<path d="M540.275 301.011C546.713 302.471 551.884 305.896 555.788 311.286C559.693 316.564 561.645 322.628 561.645 329.479C561.645 339.361 558.374 347.222 551.831 353.062C545.394 358.789 536.371 361.652 524.762 361.652H473V243.401H523.021C534.313 243.401 543.125 246.153 549.457 251.655C555.894 257.158 559.113 264.626 559.113 274.059C559.113 281.021 557.371 286.805 553.889 291.409C550.512 296.013 545.974 299.214 540.275 301.011ZM500.068 291.241H517.797C522.23 291.241 525.607 290.23 527.928 288.209C530.356 286.075 531.569 282.987 531.569 278.944C531.569 274.901 530.356 271.813 527.928 269.679C525.607 267.546 522.23 266.479 517.797 266.479H500.068V291.241ZM520.014 338.406C524.551 338.406 528.034 337.34 530.461 335.206C532.994 332.96 534.26 329.759 534.26 325.604C534.26 321.449 532.941 318.193 530.303 315.834C527.77 313.476 524.235 312.297 519.697 312.297H500.068V338.406H520.014Z" fill="white"/>
</svg>
