<svg width="24" height="24" viewBox="0 0 24 24" fill="none" xmlns="http://www.w3.org/2000/svg">
<mask id="mask0_1799_402" style="mask-type:alpha" maskUnits="userSpaceOnUse" x="0" y="0" width="24" height="24">
<rect width="24" height="24" fill="#FF3B30"/>
</mask>
<g mask="url(#mask0_1799_402)">
<path d="M1.79825 19.3076V17.0844C1.79825 16.5691 1.93125 16.1091 2.19725 15.7046C2.46325 15.3001 2.8185 14.9855 3.263 14.7606C4.21333 14.2958 5.16892 13.9374 6.12975 13.6854C7.09075 13.4336 8.14683 13.3076 9.298 13.3076C10.4493 13.3076 11.5054 13.4336 12.4662 13.6854C13.4272 13.9374 14.3829 14.2958 15.3333 14.7606C15.7778 14.9855 16.133 15.3001 16.399 15.7046C16.665 16.1091 16.798 16.5691 16.798 17.0844V19.3076H1.79825ZM18.798 19.3076V16.9614C18.798 16.3051 18.6373 15.6795 18.316 15.0846C17.9945 14.49 17.5385 13.9797 16.948 13.5539C17.6185 13.6539 18.2551 13.8086 18.8577 14.0181C19.4603 14.2278 20.0352 14.4756 20.5828 14.7614C21.0994 15.0371 21.4984 15.362 21.7798 15.7361C22.0611 16.1101 22.2017 16.5186 22.2017 16.9614V19.3076H18.798ZM9.298 11.6921C8.3355 11.6921 7.51158 11.3495 6.82625 10.6641C6.14092 9.97864 5.79825 9.15464 5.79825 8.19214C5.79825 7.22964 6.14092 6.40572 6.82625 5.72039C7.51158 5.03489 8.3355 4.69214 9.298 4.69214C10.2605 4.69214 11.0845 5.03489 11.77 5.72039C12.4553 6.40572 12.798 7.22964 12.798 8.19214C12.798 9.15464 12.4553 9.97864 11.77 10.6641C11.0845 11.3495 10.2605 11.6921 9.298 11.6921ZM17.9325 8.19214C17.9325 9.15464 17.5898 9.97864 16.9045 10.6641C16.2192 11.3495 15.3953 11.6921 14.4327 11.6921C14.3199 11.6921 14.1763 11.6793 14.002 11.6536C13.8275 11.628 13.6839 11.5998 13.5712 11.5691C13.9656 11.095 14.2687 10.569 14.4805 9.99114C14.6922 9.41331 14.798 8.81331 14.798 8.19114C14.798 7.56881 14.69 6.97105 14.474 6.39789C14.258 5.82489 13.9571 5.29739 13.5712 4.81539C13.7147 4.76406 13.8583 4.73072 14.002 4.71539C14.1455 4.69989 14.2891 4.69214 14.4327 4.69214C15.3953 4.69214 16.2192 5.03489 16.9045 5.72039C17.5898 6.40572 17.9325 7.22964 17.9325 8.19214ZM3.298 17.8076H15.298V17.0844C15.298 16.8756 15.2458 16.6897 15.1413 16.5269C15.0369 16.3641 14.8713 16.2217 14.6442 16.0999C13.8212 15.6756 12.9738 15.3541 12.102 15.1354C11.2302 14.9169 10.2955 14.8076 9.298 14.8076C8.30067 14.8076 7.36608 14.9169 6.49425 15.1354C5.62242 15.3541 4.775 15.6756 3.952 16.0999C3.725 16.2217 3.55925 16.3641 3.45475 16.5269C3.35025 16.6897 3.298 16.8756 3.298 17.0844V17.8076ZM9.298 10.1921C9.848 10.1921 10.3188 9.99631 10.7105 9.60464C11.1022 9.21297 11.298 8.74214 11.298 8.19214C11.298 7.64214 11.1022 7.17131 10.7105 6.77964C10.3188 6.38797 9.848 6.19214 9.298 6.19214C8.748 6.19214 8.27717 6.38797 7.8855 6.77964C7.49383 7.17131 7.298 7.64214 7.298 8.19214C7.298 8.74214 7.49383 9.21297 7.8855 9.60464C8.27717 9.99631 8.748 10.1921 9.298 10.1921Z" fill="#FF3B30"/>
</g>
</svg>
