<svg width="24" height="24" viewBox="0 0 24 24" fill="none" xmlns="http://www.w3.org/2000/svg">
<mask id="mask0_1799_418" style="mask-type:alpha" maskUnits="userSpaceOnUse" x="0" y="0" width="24" height="24">
<rect width="24" height="24" fill="#FF3B30"/>
</mask>
<g mask="url(#mask0_1799_418)">
<path d="M12 21.4999C10.8205 21.4999 9.71542 21.2768 8.68475 20.8307C7.65392 20.3845 6.75517 19.7781 5.9885 19.0114C5.22184 18.2448 4.61542 17.346 4.16925 16.3152C3.72309 15.2845 3.5 14.1794 3.5 12.9999C3.5 11.8204 3.72309 10.7153 4.16925 9.68468C4.61542 8.65385 5.22184 7.7551 5.9885 6.98843C6.75517 6.22176 7.65392 5.61535 8.68475 5.16918C9.71542 4.72301 10.8205 4.49993 12 4.49993C13.1795 4.49993 14.2846 4.72301 15.3153 5.16918C16.3461 5.61535 17.2448 6.22176 18.0115 6.98843C18.7782 7.7551 19.3846 8.65385 19.8308 9.68468C20.2769 10.7153 20.5 11.8204 20.5 12.9999C20.5 14.1794 20.2769 15.2845 19.8308 16.3152C19.3846 17.346 18.7782 18.2448 18.0115 19.0114C17.2448 19.7781 16.3461 20.3845 15.3153 20.8307C14.2846 21.2768 13.1795 21.4999 12 21.4999ZM14.973 17.0269L16.027 15.9729L12.75 12.6962V7.99993H11.25V13.3037L14.973 17.0269ZM5.75375 2.88843L6.80775 3.94218L2.94225 7.80768L1.8885 6.75368L5.75375 2.88843ZM18.2463 2.88843L22.1115 6.75368L21.0578 7.80768L17.1923 3.94218L18.2463 2.88843ZM12 19.9999C13.9437 19.9999 15.5963 19.3192 16.9578 17.9577C18.3193 16.5962 19 14.9436 19 12.9999C19 11.0563 18.3193 9.40368 16.9578 8.04218C15.5963 6.68068 13.9437 5.99993 12 5.99993C10.0563 5.99993 8.40375 6.68068 7.04225 8.04218C5.68075 9.40368 5 11.0563 5 12.9999C5 14.9436 5.68075 16.5962 7.04225 17.9577C8.40375 19.3192 10.0563 19.9999 12 19.9999Z" fill="#FF3B30"/>
</g>
</svg>
