<svg width="24" height="24" viewBox="0 0 24 24" fill="none" xmlns="http://www.w3.org/2000/svg">
<mask id="mask0_1799_411" style="mask-type:alpha" maskUnits="userSpaceOnUse" x="0" y="0" width="24" height="24">
<rect width="24" height="24" fill="#969696"/>
</mask>
<g mask="url(#mask0_1799_411)">
<path d="M5.4135 19.5V18H18.5865V19.5H5.4135ZM5.38475 16.3077L4.023 8.475C3.98967 8.48133 3.95217 8.48708 3.9105 8.49225C3.86883 8.49742 3.83133 8.5 3.798 8.5C3.43267 8.5 3.125 8.37383 2.875 8.1215C2.625 7.869 2.5 7.5625 2.5 7.202C2.5 6.836 2.625 6.52492 2.875 6.26875C3.125 6.01275 3.43292 5.88475 3.79875 5.88475C4.16442 5.88475 4.47525 6.01275 4.73125 6.26875C4.98742 6.52492 5.1155 6.836 5.1155 7.202C5.1155 7.295 5.10775 7.38142 5.09225 7.46125C5.07692 7.54092 5.05258 7.616 5.01925 7.6865L8.18275 9.02875L11.2308 4.86925C11.0668 4.75508 10.9344 4.60492 10.8338 4.41875C10.7331 4.23258 10.6827 4.03208 10.6827 3.81725C10.6827 3.45142 10.8108 3.14042 11.0668 2.88425C11.3228 2.62808 11.6337 2.5 11.9995 2.5C12.3652 2.5 12.6762 2.62792 12.9327 2.88375C13.1891 3.13942 13.3173 3.45 13.3173 3.8155C13.3173 4.03467 13.2669 4.23658 13.1663 4.42125C13.0656 4.60575 12.9332 4.75508 12.7692 4.86925L15.8173 9.02875L18.9807 7.6865C18.9551 7.61833 18.9327 7.54325 18.9135 7.46125C18.8942 7.37942 18.8845 7.293 18.8845 7.202C18.8845 6.836 19.0095 6.52492 19.2595 6.26875C19.5095 6.01275 19.8174 5.88475 20.1833 5.88475C20.5489 5.88475 20.8598 6.01275 21.116 6.26875C21.372 6.52492 21.5 6.836 21.5 7.202C21.5 7.5615 21.3717 7.86775 21.1152 8.12075C20.8587 8.37358 20.5473 8.5 20.1807 8.5C20.1514 8.5 20.1184 8.49583 20.0818 8.4875C20.0452 8.47917 20.0093 8.475 19.9738 8.475L18.6152 16.3077H5.38475ZM6.6615 14.8077H17.3385L18.277 9.65175L15.3057 10.8885L12 6.352L8.69425 10.8885L5.723 9.65175L6.6615 14.8077Z" fill="#969696"/>
</g>
</svg>
