<svg width="17" height="21" viewBox="0 0 17 21" fill="none" xmlns="http://www.w3.org/2000/svg">
<path d="M8.24999 0.25C6.98048 0.25 5.94481 1.23201 5.94481 2.42212V3.15558C3.42504 4.02932 1.62936 6.29438 1.62936 8.95273V13.8746L0.310782 16.4716C0.265279 16.5612 0.244761 16.6602 0.251138 16.7593C0.257514 16.8583 0.290577 16.9543 0.34725 17.0382C0.403923 17.1221 0.482362 17.1912 0.575267 17.2391C0.668171 17.287 0.77252 17.3122 0.878599 17.3122H4.85717C4.98929 18.9516 6.46297 20.25 8.24999 20.25C10.037 20.25 11.5107 18.9516 11.6428 17.3122H15.6214C15.7274 17.3122 15.8318 17.287 15.9247 17.2391C16.0176 17.1912 16.0961 17.1221 16.1527 17.0382C16.2094 16.9543 16.2425 16.8584 16.2489 16.7593C16.2552 16.6602 16.2347 16.5612 16.1892 16.4716L14.8706 13.8746V8.95273C14.8706 6.29438 13.0749 4.02932 10.5551 3.15558V2.42212C10.5551 1.23201 9.5195 0.25 8.24999 0.25ZM8.24999 1.42633C8.83803 1.42633 9.29778 1.85719 9.29778 2.42212V2.84766C8.95646 2.79652 8.60659 2.76984 8.24999 2.76984C7.89339 2.76984 7.5435 2.79652 7.20218 2.84766V2.42212C7.20218 1.85719 7.66195 1.42633 8.24999 1.42633ZM8.24999 3.94661C11.2328 3.94661 13.6132 6.16987 13.6132 8.95273V14.0073C13.6133 14.0946 13.634 14.1808 13.6741 14.2596L14.6267 16.1356H11.6525H10.3951H6.10485H4.84748H1.87333L2.8259 14.2596C2.86593 14.1808 2.88671 14.0946 2.88673 14.0073V8.95273C2.88673 6.16987 5.26714 3.94661 8.24999 3.94661ZM6.11972 17.3122H10.3803C10.2562 18.3142 9.36274 19.0737 8.24999 19.0737C7.13724 19.0737 6.24381 18.3142 6.11972 17.3122Z" fill="#1E1F26" stroke="#1E1F26" stroke-width="0.5"/>
</svg>
