<svg width="24" height="24" viewBox="0 0 24 24" fill="none" xmlns="http://www.w3.org/2000/svg">
<mask id="mask0_1799_401" style="mask-type:alpha" maskUnits="userSpaceOnUse" x="0" y="0" width="24" height="24">
<rect width="24" height="24" fill="#35A8F7"/>
</mask>
<g mask="url(#mask0_1799_401)">
<path d="M12.0017 11.8652C12.4992 11.8652 12.9246 11.6881 13.2777 11.3338C13.6311 10.9794 13.8077 10.5535 13.8077 10.056C13.8077 9.5585 13.6306 9.13308 13.2762 8.77975C12.9219 8.42658 12.4959 8.25 11.9982 8.25C11.5007 8.25 11.0754 8.42717 10.7222 8.7815C10.3689 9.13583 10.1922 9.56183 10.1922 10.0595C10.1922 10.557 10.3694 10.9823 10.7238 11.3355C11.0781 11.6887 11.5041 11.8652 12.0017 11.8652ZM12 19.5135C13.9563 17.7622 15.4534 16.0823 16.4913 14.474C17.5291 12.8657 18.048 11.457 18.048 10.248C18.048 8.425 17.4688 6.92633 16.3105 5.752C15.1522 4.57767 13.7153 3.9905 12 3.9905C10.2847 3.9905 8.84783 4.57767 7.6895 5.752C6.53117 6.92633 5.952 8.425 5.952 10.248C5.952 11.457 6.47092 12.8657 7.50875 14.474C8.54658 16.0823 10.0437 17.7622 12 19.5135ZM12 21.5095C9.48333 19.3288 7.59617 17.2994 6.3385 15.4212C5.08083 13.5429 4.452 11.8185 4.452 10.248C4.452 7.94033 5.19842 6.07208 6.69125 4.64325C8.18425 3.21442 9.95383 2.5 12 2.5C14.0462 2.5 15.8157 3.21442 17.3087 4.64325C18.8016 6.07208 19.548 7.94033 19.548 10.248C19.548 11.8185 18.9192 13.5429 17.6615 15.4212C16.4038 17.2994 14.5167 19.3288 12 21.5095Z" fill="#35A8F7"/>
</g>
</svg>
