<svg width="24" height="24" viewBox="0 0 24 24" fill="none" xmlns="http://www.w3.org/2000/svg">
<mask id="mask0_1799_412" style="mask-type:alpha" maskUnits="userSpaceOnUse" x="0" y="0" width="24" height="24">
<rect width="23.7635" height="23.7635" fill="#969696"/>
</mask>
<g mask="url(#mask0_1799_412)">
<path d="M12.4721 11.5275C12.8935 11.0693 13.2051 10.5431 13.4071 9.94898C13.6089 9.35489 13.7098 8.7424 13.7098 8.11151C13.7098 7.48062 13.6089 6.86814 13.4071 6.27405C13.2051 5.67996 12.8935 5.15378 12.4721 4.6955C13.3417 4.79584 14.0636 5.17127 14.6381 5.8218C15.2124 6.47249 15.4995 7.23573 15.4995 8.11151C15.4995 8.98746 15.2124 9.7507 14.6381 10.4012C14.0636 11.0518 13.3417 11.4272 12.4721 11.5275ZM17.6704 19.1175V16.7944C17.6704 16.2546 17.5606 15.741 17.341 15.2537C17.1213 14.7664 16.8097 14.3482 16.406 13.9992C17.1651 14.2518 17.8639 14.5927 18.5024 15.0218C19.1409 15.4508 19.4601 16.0417 19.4601 16.7944V19.1175H17.6704ZM22.9256 10.6441H17.4798V9.15884H22.9256V10.6441ZM8.26402 11.577C7.311 11.577 6.49512 11.2377 5.81638 10.5592C5.13779 9.88041 4.7985 9.06453 4.7985 8.11151C4.7985 7.1585 5.13779 6.3427 5.81638 5.66412C6.49512 4.98537 7.311 4.646 8.26402 4.646C9.21704 4.646 10.0328 4.98537 10.7114 5.66412C11.3902 6.3427 11.7295 7.1585 11.7295 8.11151C11.7295 9.06453 11.3902 9.88041 10.7114 10.5592C10.0328 11.2377 9.21704 11.577 8.26402 11.577ZM0.837914 19.1175V16.9162C0.837914 16.4313 0.969603 15.9823 1.23298 15.5691C1.49636 15.1558 1.84828 14.8382 2.28873 14.616C3.26749 14.1363 4.25483 13.7765 5.25075 13.5365C6.24651 13.2966 7.25094 13.1766 8.26402 13.1766C9.27694 13.1766 10.2814 13.2966 11.2773 13.5365C12.273 13.7765 13.2603 14.1363 14.2391 14.616C14.6795 14.8382 15.0314 15.1558 15.2948 15.5691C15.5584 15.9823 15.6901 16.4313 15.6901 16.9162V19.1175H0.837914ZM8.26402 10.0918C8.8086 10.0918 9.2748 9.8979 9.66261 9.5101C10.0504 9.12229 10.2443 8.65609 10.2443 8.11151C10.2443 7.56693 10.0504 7.10074 9.66261 6.71293C9.2748 6.32512 8.8086 6.13122 8.26402 6.13122C7.71944 6.13122 7.25325 6.32512 6.86544 6.71293C6.47763 7.10074 6.28373 7.56693 6.28373 8.11151C6.28373 8.65609 6.47763 9.12229 6.86544 9.5101C7.25325 9.8979 7.71944 10.0918 8.26402 10.0918ZM2.32314 17.6323H14.2049V16.9162C14.2049 16.7156 14.1468 16.53 14.0306 16.3592C13.9145 16.1886 13.7567 16.0493 13.5574 15.9414C12.7043 15.5212 11.8346 15.2029 10.9481 14.9864C10.0614 14.77 9.16671 14.6618 8.26402 14.6618C7.36117 14.6618 6.46649 14.77 5.57998 14.9864C4.6933 15.2029 3.82346 15.5212 2.97044 15.9414C2.77109 16.0493 2.61341 16.1886 2.4974 16.3592C2.38122 16.53 2.32314 16.7156 2.32314 16.9162V17.6323Z" fill="#969696"/>
</g>
</svg>
