<svg width="24" height="24" viewBox="0 0 24 24" fill="none" xmlns="http://www.w3.org/2000/svg">
<mask id="mask0_1799_449" style="mask-type:alpha" maskUnits="userSpaceOnUse" x="0" y="0" width="24" height="24">
<rect width="24" height="24" fill="#35A8F7"/>
</mask>
<g mask="url(#mask0_1799_449)">
<path d="M15.773 12.9731L14.65 11.8501C14.8 11.0219 14.5638 10.2773 13.9412 9.61631C13.3189 8.95548 12.5552 8.70006 11.65 8.85006L10.527 7.72706C10.7527 7.62573 10.9841 7.54973 11.2212 7.49906C11.4584 7.4484 11.718 7.42306 12 7.42306C13.1347 7.42306 14.0978 7.8189 14.8895 8.61056C15.6812 9.40223 16.077 10.3654 16.077 11.5001C16.077 11.7821 16.0517 12.0449 16.001 12.2886C15.9503 12.5321 15.8743 12.7602 15.773 12.9731ZM18.9538 16.0846L17.85 15.0501C18.4833 14.5667 19.0458 14.0376 19.5375 13.4626C20.0292 12.8876 20.45 12.2334 20.8 11.5001C19.9667 9.81673 18.7708 8.47923 17.2125 7.48756C15.6542 6.4959 13.9167 6.00006 12 6.00006C11.5167 6.00006 11.0417 6.0334 10.575 6.10006C10.1083 6.16673 9.65 6.26673 9.2 6.40006L8.03475 5.23481C8.66675 4.98348 9.31225 4.79823 9.97125 4.67906C10.6302 4.55973 11.3065 4.50006 12 4.50006C14.3435 4.50006 16.4569 5.14623 18.3403 6.43856C20.2236 7.7309 21.5973 9.41806 22.4615 11.5001C22.091 12.3936 21.6125 13.2276 21.026 14.0021C20.4393 14.7764 19.7486 15.4706 18.9538 16.0846ZM19.7615 21.8693L15.7155 17.8538C15.2027 18.0436 14.6343 18.1988 14.0105 18.3193C13.3868 18.4398 12.7167 18.5001 12 18.5001C9.65 18.5001 7.53658 17.8539 5.65975 16.5616C3.78275 15.2692 2.409 13.5821 1.5385 11.5001C1.90766 10.6167 2.38458 9.79273 2.96925 9.02806C3.55391 8.26323 4.1975 7.60006 4.9 7.03856L2.13075 4.23856L3.18475 3.18481L20.8153 20.8153L19.7615 21.8693ZM5.954 8.09231C5.42566 8.51281 4.91183 9.01831 4.4125 9.60881C3.91316 10.1991 3.509 10.8296 3.2 11.5001C4.03333 13.1834 5.22916 14.5209 6.7875 15.5126C8.34583 16.5042 10.0833 17.0001 12 17.0001C12.4552 17.0001 12.9084 16.9616 13.3597 16.8846C13.8109 16.8077 14.1936 16.7283 14.5077 16.6463L13.2422 15.3501C13.0717 15.4192 12.8743 15.4743 12.65 15.5153C12.4257 15.5565 12.209 15.5771 12 15.5771C10.8653 15.5771 9.90217 15.1812 9.1105 14.3896C8.31883 13.5979 7.923 12.6347 7.923 11.5001C7.923 11.2976 7.94358 11.0857 7.98475 10.8646C8.02575 10.6434 8.08083 10.4411 8.15 10.2578L5.954 8.09231Z" fill="#35A8F7"/>
</g>
</svg>
