<svg width="345" height="352" viewBox="0 0 345 352" fill="none" xmlns="http://www.w3.org/2000/svg">
<path d="M2.96 14.592H8.016V16H1.376V4.672H2.96V14.592ZM14.1879 11.088C14.1879 10.5227 14.0172 10.1067 13.6759 9.84C13.3345 9.56267 12.8812 9.424 12.3159 9.424C11.8892 9.424 11.4839 9.50933 11.0999 9.68C10.7265 9.84 10.4119 10.048 10.1559 10.304L9.35588 9.344C9.72921 8.992 10.1825 8.71467 10.7159 8.512C11.2599 8.30933 11.8412 8.208 12.4599 8.208C13.0039 8.208 13.4732 8.288 13.8679 8.448C14.2732 8.59733 14.6039 8.80533 14.8599 9.072C15.1159 9.33867 15.3079 9.65333 15.4359 10.016C15.5639 10.3787 15.6279 10.768 15.6279 11.184V14.496C15.6279 14.752 15.6332 15.024 15.6439 15.312C15.6652 15.5893 15.6972 15.8187 15.7399 16H14.3799C14.2945 15.6373 14.2519 15.2747 14.2519 14.912H14.2039C13.9265 15.3173 13.5745 15.632 13.1479 15.856C12.7319 16.08 12.2359 16.192 11.6599 16.192C11.3612 16.192 11.0465 16.1493 10.7159 16.064C10.3959 15.9893 10.1025 15.8613 9.83588 15.68C9.56921 15.4987 9.34521 15.2587 9.16388 14.96C8.99321 14.6613 8.90788 14.2933 8.90788 13.856C8.90788 13.28 9.06254 12.8267 9.37188 12.496C9.68121 12.1547 10.0865 11.8987 10.5879 11.728C11.0892 11.5467 11.6545 11.4293 12.2839 11.376C12.9132 11.3227 13.5479 11.296 14.1879 11.296V11.088ZM13.8199 12.384C13.4465 12.384 13.0572 12.4 12.6519 12.432C12.2572 12.464 11.8945 12.528 11.5639 12.624C11.2439 12.72 10.9772 12.864 10.7639 13.056C10.5505 13.248 10.4439 13.504 10.4439 13.824C10.4439 14.048 10.4865 14.2347 10.5719 14.384C10.6679 14.5333 10.7905 14.656 10.9399 14.752C11.0892 14.848 11.2545 14.9173 11.4359 14.96C11.6172 14.992 11.8039 15.008 11.9959 15.008C12.6999 15.008 13.2385 14.8 13.6119 14.384C13.9959 13.9573 14.1879 13.424 14.1879 12.784V12.384H13.8199ZM19.6278 14.8V16H18.1718V3.904H19.6758V9.552H19.7238C19.9798 9.17867 20.3371 8.864 20.7958 8.608C21.2544 8.34133 21.7984 8.208 22.4278 8.208C22.9931 8.208 23.5051 8.30933 23.9638 8.512C24.4331 8.71467 24.8331 8.99733 25.1638 9.36C25.5051 9.72267 25.7664 10.1493 25.9478 10.64C26.1291 11.12 26.2198 11.6373 26.2198 12.192C26.2198 12.7467 26.1291 13.2693 25.9478 13.76C25.7664 14.2507 25.5104 14.6773 25.1798 15.04C24.8491 15.4027 24.4491 15.6907 23.9798 15.904C23.5104 16.1067 22.9824 16.208 22.3958 16.208C21.8518 16.208 21.3344 16.0907 20.8438 15.856C20.3531 15.6107 19.9584 15.2587 19.6598 14.8H19.6278ZM24.6678 12.192C24.6678 11.84 24.6144 11.4987 24.5078 11.168C24.4011 10.8373 24.2411 10.544 24.0278 10.288C23.8144 10.032 23.5478 9.82933 23.2278 9.68C22.9184 9.53067 22.5558 9.456 22.1398 9.456C21.7558 9.456 21.4038 9.53067 21.0838 9.68C20.7744 9.82933 20.5078 10.032 20.2838 10.288C20.0598 10.544 19.8838 10.8373 19.7558 11.168C19.6384 11.4987 19.5798 11.8453 19.5798 12.208C19.5798 12.5707 19.6384 12.9173 19.7558 13.248C19.8838 13.5787 20.0598 13.872 20.2838 14.128C20.5078 14.3733 20.7744 14.5707 21.0838 14.72C21.4038 14.8693 21.7558 14.944 22.1398 14.944C22.5558 14.944 22.9184 14.8693 23.2278 14.72C23.5478 14.56 23.8144 14.352 24.0278 14.096C24.2411 13.84 24.4011 13.5467 24.5078 13.216C24.6144 12.8853 24.6678 12.544 24.6678 12.192ZM33.8636 11.536C33.853 11.2373 33.7996 10.96 33.7036 10.704C33.6183 10.4373 33.485 10.208 33.3036 10.016C33.133 9.824 32.9143 9.67467 32.6476 9.568C32.3916 9.45067 32.0876 9.392 31.7356 9.392C31.4156 9.392 31.1116 9.45067 30.8236 9.568C30.5463 9.67467 30.301 9.824 30.0876 10.016C29.885 10.208 29.7143 10.4373 29.5756 10.704C29.4476 10.96 29.373 11.2373 29.3516 11.536H33.8636ZM35.3836 12.144C35.3836 12.2293 35.3836 12.3147 35.3836 12.4C35.3836 12.4853 35.3783 12.5707 35.3676 12.656H29.3516C29.3623 12.976 29.4316 13.28 29.5596 13.568C29.6983 13.8453 29.8796 14.0907 30.1036 14.304C30.3276 14.5067 30.5836 14.6667 30.8716 14.784C31.1703 14.9013 31.485 14.96 31.8156 14.96C32.3276 14.96 32.7703 14.848 33.1436 14.624C33.517 14.4 33.8103 14.128 34.0236 13.808L35.0796 14.656C34.6743 15.1893 34.1943 15.584 33.6396 15.84C33.0956 16.0853 32.4876 16.208 31.8156 16.208C31.2396 16.208 30.7063 16.112 30.2156 15.92C29.725 15.728 29.3036 15.4613 28.9516 15.12C28.5996 14.768 28.3223 14.3467 28.1196 13.856C27.917 13.3653 27.8156 12.8213 27.8156 12.224C27.8156 11.6373 27.9116 11.0987 28.1036 10.608C28.3063 10.1067 28.5836 9.68 28.9356 9.328C29.2876 8.976 29.7036 8.704 30.1836 8.512C30.6636 8.30933 31.181 8.208 31.7356 8.208C32.2903 8.208 32.7916 8.29867 33.2396 8.48C33.6983 8.66133 34.0823 8.92267 34.3916 9.264C34.7116 9.60533 34.957 10.0213 35.1276 10.512C35.2983 10.992 35.3836 11.536 35.3836 12.144ZM39.0195 16H37.5155V3.904H39.0195V16Z" fill="#4D4D4D"/>
<rect x="0.5" y="30.5" width="344" height="321" rx="7.5" fill="white"/>
<rect x="0.5" y="30.5" width="344" height="321" rx="7.5" stroke="#969696"/>
<path d="M13.136 64H11.984V53.696H8.192V52.672H16.928V53.696H13.136V64ZM22.7458 59.68C22.7138 58.976 22.4844 58.3947 22.0578 57.936C21.6418 57.4667 21.0444 57.232 20.2658 57.232C19.9031 57.232 19.5671 57.3013 19.2578 57.44C18.9484 57.568 18.6764 57.7493 18.4418 57.984C18.2071 58.208 18.0204 58.4693 17.8818 58.768C17.7431 59.056 17.6631 59.36 17.6418 59.68H22.7458ZM23.8498 60.032C23.8498 60.1067 23.8498 60.1867 23.8498 60.272C23.8498 60.3573 23.8444 60.448 23.8338 60.544H17.6258C17.6364 60.9173 17.7111 61.2693 17.8498 61.6C17.9884 61.9307 18.1804 62.2187 18.4258 62.464C18.6711 62.7093 18.9591 62.9067 19.2898 63.056C19.6204 63.1947 19.9778 63.264 20.3618 63.264C20.9271 63.264 21.4124 63.136 21.8178 62.88C22.2338 62.6133 22.5484 62.3093 22.7618 61.968L23.5778 62.608C23.1298 63.1733 22.6338 63.5787 22.0898 63.824C21.5564 64.0693 20.9804 64.192 20.3618 64.192C19.8071 64.192 19.2898 64.096 18.8098 63.904C18.3404 63.7013 17.9351 63.424 17.5938 63.072C17.2524 62.72 16.9804 62.304 16.7778 61.824C16.5858 61.344 16.4898 60.8213 16.4898 60.256C16.4898 59.6907 16.5858 59.168 16.7778 58.688C16.9698 58.208 17.2364 57.792 17.5778 57.44C17.9191 57.088 18.3191 56.816 18.7778 56.624C19.2364 56.4213 19.7324 56.32 20.2658 56.32C20.8524 56.32 21.3698 56.4213 21.8178 56.624C22.2658 56.816 22.6391 57.0827 22.9378 57.424C23.2364 57.7547 23.4604 58.144 23.6098 58.592C23.7698 59.04 23.8498 59.52 23.8498 60.032ZM27.8563 60.128L25.0883 56.512H26.4803L28.5283 59.36L30.5763 56.512H31.8883L29.1683 60.08L32.1443 64H30.7363L28.5123 60.88L26.2243 64H24.9123L27.8563 60.128ZM37.2223 57.424H35.1103V61.792C35.1103 62.0693 35.1369 62.2987 35.1903 62.48C35.2436 62.6613 35.3183 62.8053 35.4143 62.912C35.5209 63.008 35.6436 63.0773 35.7823 63.12C35.9209 63.152 36.0703 63.168 36.2303 63.168C36.3796 63.168 36.5343 63.1467 36.6943 63.104C36.8649 63.0613 37.0249 63.0027 37.1743 62.928L37.2223 63.872C37.0303 63.9467 36.8276 64 36.6143 64.032C36.4116 64.0747 36.1876 64.096 35.9423 64.096C35.7396 64.096 35.5263 64.0693 35.3023 64.016C35.0783 63.9627 34.8703 63.8613 34.6783 63.712C34.4863 63.5627 34.3263 63.36 34.1983 63.104C34.0809 62.848 34.0223 62.512 34.0223 62.096V57.424H32.4703V56.512H34.0223V54.4H35.1103V56.512H37.2223V57.424Z" fill="#969696"/>
<path d="M296.06 318.836C296.676 318.836 297.189 318.99 297.6 319.298C298.02 319.597 298.356 319.993 298.608 320.488C298.86 320.973 299.037 321.529 299.14 322.154C299.252 322.779 299.308 323.414 299.308 324.058C299.308 324.702 299.252 325.337 299.14 325.962C299.037 326.578 298.86 327.133 298.608 327.628C298.356 328.113 298.02 328.505 297.6 328.804C297.189 329.103 296.676 329.252 296.06 329.252C295.435 329.252 294.912 329.103 294.492 328.804C294.081 328.505 293.75 328.113 293.498 327.628C293.246 327.133 293.069 326.578 292.966 325.962C292.863 325.337 292.812 324.702 292.812 324.058C292.812 323.414 292.863 322.779 292.966 322.154C293.069 321.529 293.246 320.973 293.498 320.488C293.75 319.993 294.081 319.597 294.492 319.298C294.912 318.99 295.435 318.836 296.06 318.836ZM296.06 319.69C295.621 319.69 295.257 319.825 294.968 320.096C294.679 320.367 294.45 320.712 294.282 321.132C294.114 321.552 293.997 322.023 293.932 322.546C293.867 323.059 293.834 323.563 293.834 324.058C293.834 324.553 293.867 325.057 293.932 325.57C293.997 326.083 294.114 326.55 294.282 326.97C294.45 327.381 294.679 327.721 294.968 327.992C295.257 328.253 295.621 328.384 296.06 328.384C296.489 328.384 296.849 328.253 297.138 327.992C297.427 327.721 297.656 327.381 297.824 326.97C297.992 326.55 298.109 326.083 298.174 325.57C298.249 325.057 298.286 324.553 298.286 324.058C298.286 323.563 298.249 323.059 298.174 322.546C298.109 322.023 297.992 321.552 297.824 321.132C297.656 320.712 297.427 320.367 297.138 320.096C296.849 319.825 296.489 319.69 296.06 319.69ZM304.503 329.252L303.691 328.986L307.933 318.836L308.731 319.116L304.503 329.252ZM319.359 329H313.017V327.95L317.077 323.848C317.226 323.699 317.371 323.54 317.511 323.372C317.66 323.195 317.791 323.013 317.903 322.826C318.015 322.639 318.103 322.443 318.169 322.238C318.234 322.023 318.267 321.804 318.267 321.58C318.267 321.291 318.215 321.029 318.113 320.796C318.01 320.563 317.865 320.367 317.679 320.208C317.501 320.04 317.291 319.914 317.049 319.83C316.815 319.737 316.568 319.69 316.307 319.69C315.775 319.69 315.327 319.858 314.963 320.194C314.599 320.521 314.365 320.941 314.263 321.454L313.269 321.258C313.334 320.913 313.455 320.591 313.633 320.292C313.819 319.993 314.043 319.737 314.305 319.522C314.575 319.307 314.879 319.139 315.215 319.018C315.551 318.897 315.915 318.836 316.307 318.836C316.708 318.836 317.086 318.897 317.441 319.018C317.805 319.13 318.122 319.303 318.393 319.536C318.663 319.76 318.878 320.045 319.037 320.39C319.205 320.726 319.289 321.118 319.289 321.566C319.289 321.883 319.242 322.177 319.149 322.448C319.065 322.719 318.948 322.975 318.799 323.218C318.659 323.461 318.491 323.694 318.295 323.918C318.099 324.133 317.893 324.347 317.679 324.562L314.109 328.104H319.359V329ZM327.074 319.984H322.944L322.874 323.05C323.088 322.975 323.312 322.919 323.546 322.882C323.788 322.845 324.022 322.826 324.246 322.826C324.712 322.826 325.142 322.901 325.534 323.05C325.926 323.199 326.266 323.414 326.556 323.694C326.845 323.965 327.069 324.291 327.228 324.674C327.386 325.057 327.466 325.477 327.466 325.934C327.466 326.41 327.386 326.853 327.228 327.264C327.069 327.665 326.845 328.015 326.556 328.314C326.266 328.603 325.916 328.832 325.506 329C325.104 329.168 324.661 329.252 324.176 329.252C323.457 329.252 322.85 329.089 322.356 328.762C321.861 328.435 321.478 327.997 321.208 327.446L322.118 327.04C322.295 327.451 322.561 327.777 322.916 328.02C323.28 328.263 323.681 328.384 324.12 328.384C324.456 328.384 324.764 328.328 325.044 328.216C325.333 328.095 325.58 327.931 325.786 327.726C325.991 327.511 326.15 327.259 326.262 326.97C326.383 326.681 326.444 326.368 326.444 326.032C326.444 325.668 326.378 325.341 326.248 325.052C326.126 324.753 325.954 324.501 325.73 324.296C325.515 324.091 325.258 323.932 324.96 323.82C324.661 323.708 324.334 323.652 323.98 323.652C323.625 323.652 323.27 323.703 322.916 323.806C322.57 323.899 322.239 324.03 321.922 324.198L322.02 319.088H327.074V319.984ZM332.605 318.836C333.221 318.836 333.734 318.99 334.145 319.298C334.565 319.597 334.901 319.993 335.153 320.488C335.405 320.973 335.582 321.529 335.685 322.154C335.797 322.779 335.853 323.414 335.853 324.058C335.853 324.702 335.797 325.337 335.685 325.962C335.582 326.578 335.405 327.133 335.153 327.628C334.901 328.113 334.565 328.505 334.145 328.804C333.734 329.103 333.221 329.252 332.605 329.252C331.98 329.252 331.457 329.103 331.037 328.804C330.626 328.505 330.295 328.113 330.043 327.628C329.791 327.133 329.614 326.578 329.511 325.962C329.408 325.337 329.357 324.702 329.357 324.058C329.357 323.414 329.408 322.779 329.511 322.154C329.614 321.529 329.791 320.973 330.043 320.488C330.295 319.993 330.626 319.597 331.037 319.298C331.457 318.99 331.98 318.836 332.605 318.836ZM332.605 319.69C332.166 319.69 331.802 319.825 331.513 320.096C331.224 320.367 330.995 320.712 330.827 321.132C330.659 321.552 330.542 322.023 330.477 322.546C330.412 323.059 330.379 323.563 330.379 324.058C330.379 324.553 330.412 325.057 330.477 325.57C330.542 326.083 330.659 326.55 330.827 326.97C330.995 327.381 331.224 327.721 331.513 327.992C331.802 328.253 332.166 328.384 332.605 328.384C333.034 328.384 333.394 328.253 333.683 327.992C333.972 327.721 334.201 327.381 334.369 326.97C334.537 326.55 334.654 326.083 334.719 325.57C334.794 325.057 334.831 324.553 334.831 324.058C334.831 323.563 334.794 323.059 334.719 322.546C334.654 322.023 334.537 321.552 334.369 321.132C334.201 320.712 333.972 320.367 333.683 320.096C333.394 319.825 333.034 319.69 332.605 319.69Z" fill="#969696"/>
</svg>
