<svg width="345" height="352" viewBox="0 0 345 352" fill="none" xmlns="http://www.w3.org/2000/svg">
<path d="M2.96 14.592H8.016V16H1.376V4.672H2.96V14.592ZM14.1879 11.088C14.1879 10.5227 14.0172 10.1067 13.6759 9.84C13.3345 9.56267 12.8812 9.424 12.3159 9.424C11.8892 9.424 11.4839 9.50933 11.0999 9.68C10.7265 9.84 10.4119 10.048 10.1559 10.304L9.35588 9.344C9.72921 8.992 10.1825 8.71467 10.7159 8.512C11.2599 8.30933 11.8412 8.208 12.4599 8.208C13.0039 8.208 13.4732 8.288 13.8679 8.448C14.2732 8.59733 14.6039 8.80533 14.8599 9.072C15.1159 9.33867 15.3079 9.65333 15.4359 10.016C15.5639 10.3787 15.6279 10.768 15.6279 11.184V14.496C15.6279 14.752 15.6332 15.024 15.6439 15.312C15.6652 15.5893 15.6972 15.8187 15.7399 16H14.3799C14.2945 15.6373 14.2519 15.2747 14.2519 14.912H14.2039C13.9265 15.3173 13.5745 15.632 13.1479 15.856C12.7319 16.08 12.2359 16.192 11.6599 16.192C11.3612 16.192 11.0465 16.1493 10.7159 16.064C10.3959 15.9893 10.1025 15.8613 9.83588 15.68C9.56921 15.4987 9.34521 15.2587 9.16388 14.96C8.99321 14.6613 8.90788 14.2933 8.90788 13.856C8.90788 13.28 9.06254 12.8267 9.37188 12.496C9.68121 12.1547 10.0865 11.8987 10.5879 11.728C11.0892 11.5467 11.6545 11.4293 12.2839 11.376C12.9132 11.3227 13.5479 11.296 14.1879 11.296V11.088ZM13.8199 12.384C13.4465 12.384 13.0572 12.4 12.6519 12.432C12.2572 12.464 11.8945 12.528 11.5639 12.624C11.2439 12.72 10.9772 12.864 10.7639 13.056C10.5505 13.248 10.4439 13.504 10.4439 13.824C10.4439 14.048 10.4865 14.2347 10.5719 14.384C10.6679 14.5333 10.7905 14.656 10.9399 14.752C11.0892 14.848 11.2545 14.9173 11.4359 14.96C11.6172 14.992 11.8039 15.008 11.9959 15.008C12.6999 15.008 13.2385 14.8 13.6119 14.384C13.9959 13.9573 14.1879 13.424 14.1879 12.784V12.384H13.8199ZM19.6278 14.8V16H18.1718V3.904H19.6758V9.552H19.7238C19.9798 9.17867 20.3371 8.864 20.7958 8.608C21.2544 8.34133 21.7984 8.208 22.4278 8.208C22.9931 8.208 23.5051 8.30933 23.9638 8.512C24.4331 8.71467 24.8331 8.99733 25.1638 9.36C25.5051 9.72267 25.7664 10.1493 25.9478 10.64C26.1291 11.12 26.2198 11.6373 26.2198 12.192C26.2198 12.7467 26.1291 13.2693 25.9478 13.76C25.7664 14.2507 25.5104 14.6773 25.1798 15.04C24.8491 15.4027 24.4491 15.6907 23.9798 15.904C23.5104 16.1067 22.9824 16.208 22.3958 16.208C21.8518 16.208 21.3344 16.0907 20.8438 15.856C20.3531 15.6107 19.9584 15.2587 19.6598 14.8H19.6278ZM24.6678 12.192C24.6678 11.84 24.6144 11.4987 24.5078 11.168C24.4011 10.8373 24.2411 10.544 24.0278 10.288C23.8144 10.032 23.5478 9.82933 23.2278 9.68C22.9184 9.53067 22.5558 9.456 22.1398 9.456C21.7558 9.456 21.4038 9.53067 21.0838 9.68C20.7744 9.82933 20.5078 10.032 20.2838 10.288C20.0598 10.544 19.8838 10.8373 19.7558 11.168C19.6384 11.4987 19.5798 11.8453 19.5798 12.208C19.5798 12.5707 19.6384 12.9173 19.7558 13.248C19.8838 13.5787 20.0598 13.872 20.2838 14.128C20.5078 14.3733 20.7744 14.5707 21.0838 14.72C21.4038 14.8693 21.7558 14.944 22.1398 14.944C22.5558 14.944 22.9184 14.8693 23.2278 14.72C23.5478 14.56 23.8144 14.352 24.0278 14.096C24.2411 13.84 24.4011 13.5467 24.5078 13.216C24.6144 12.8853 24.6678 12.544 24.6678 12.192ZM33.8636 11.536C33.853 11.2373 33.7996 10.96 33.7036 10.704C33.6183 10.4373 33.485 10.208 33.3036 10.016C33.133 9.824 32.9143 9.67467 32.6476 9.568C32.3916 9.45067 32.0876 9.392 31.7356 9.392C31.4156 9.392 31.1116 9.45067 30.8236 9.568C30.5463 9.67467 30.301 9.824 30.0876 10.016C29.885 10.208 29.7143 10.4373 29.5756 10.704C29.4476 10.96 29.373 11.2373 29.3516 11.536H33.8636ZM35.3836 12.144C35.3836 12.2293 35.3836 12.3147 35.3836 12.4C35.3836 12.4853 35.3783 12.5707 35.3676 12.656H29.3516C29.3623 12.976 29.4316 13.28 29.5596 13.568C29.6983 13.8453 29.8796 14.0907 30.1036 14.304C30.3276 14.5067 30.5836 14.6667 30.8716 14.784C31.1703 14.9013 31.485 14.96 31.8156 14.96C32.3276 14.96 32.7703 14.848 33.1436 14.624C33.517 14.4 33.8103 14.128 34.0236 13.808L35.0796 14.656C34.6743 15.1893 34.1943 15.584 33.6396 15.84C33.0956 16.0853 32.4876 16.208 31.8156 16.208C31.2396 16.208 30.7063 16.112 30.2156 15.92C29.725 15.728 29.3036 15.4613 28.9516 15.12C28.5996 14.768 28.3223 14.3467 28.1196 13.856C27.917 13.3653 27.8156 12.8213 27.8156 12.224C27.8156 11.6373 27.9116 11.0987 28.1036 10.608C28.3063 10.1067 28.5836 9.68 28.9356 9.328C29.2876 8.976 29.7036 8.704 30.1836 8.512C30.6636 8.30933 31.181 8.208 31.7356 8.208C32.2903 8.208 32.7916 8.29867 33.2396 8.48C33.6983 8.66133 34.0823 8.92267 34.3916 9.264C34.7116 9.60533 34.957 10.0213 35.1276 10.512C35.2983 10.992 35.3836 11.536 35.3836 12.144ZM39.0195 16H37.5155V3.904H39.0195V16Z" fill="#4D4D4D"/>
<rect x="0.5" y="30.5" width="344" height="321" rx="7.5" fill="white"/>
<rect x="0.5" y="30.5" width="344" height="321" rx="7.5" stroke="#FF3B30"/>
<path d="M13.136 64H11.984V53.696H8.192V52.672H16.928V53.696H13.136V64ZM22.7458 59.68C22.7138 58.976 22.4844 58.3947 22.0578 57.936C21.6418 57.4667 21.0444 57.232 20.2658 57.232C19.9031 57.232 19.5671 57.3013 19.2578 57.44C18.9484 57.568 18.6764 57.7493 18.4418 57.984C18.2071 58.208 18.0204 58.4693 17.8818 58.768C17.7431 59.056 17.6631 59.36 17.6418 59.68H22.7458ZM23.8498 60.032C23.8498 60.1067 23.8498 60.1867 23.8498 60.272C23.8498 60.3573 23.8444 60.448 23.8338 60.544H17.6258C17.6364 60.9173 17.7111 61.2693 17.8498 61.6C17.9884 61.9307 18.1804 62.2187 18.4258 62.464C18.6711 62.7093 18.9591 62.9067 19.2898 63.056C19.6204 63.1947 19.9778 63.264 20.3618 63.264C20.9271 63.264 21.4124 63.136 21.8178 62.88C22.2338 62.6133 22.5484 62.3093 22.7618 61.968L23.5778 62.608C23.1298 63.1733 22.6338 63.5787 22.0898 63.824C21.5564 64.0693 20.9804 64.192 20.3618 64.192C19.8071 64.192 19.2898 64.096 18.8098 63.904C18.3404 63.7013 17.9351 63.424 17.5938 63.072C17.2524 62.72 16.9804 62.304 16.7778 61.824C16.5858 61.344 16.4898 60.8213 16.4898 60.256C16.4898 59.6907 16.5858 59.168 16.7778 58.688C16.9698 58.208 17.2364 57.792 17.5778 57.44C17.9191 57.088 18.3191 56.816 18.7778 56.624C19.2364 56.4213 19.7324 56.32 20.2658 56.32C20.8524 56.32 21.3698 56.4213 21.8178 56.624C22.2658 56.816 22.6391 57.0827 22.9378 57.424C23.2364 57.7547 23.4604 58.144 23.6098 58.592C23.7698 59.04 23.8498 59.52 23.8498 60.032ZM27.8563 60.128L25.0883 56.512H26.4803L28.5283 59.36L30.5763 56.512H31.8883L29.1683 60.08L32.1443 64H30.7363L28.5123 60.88L26.2243 64H24.9123L27.8563 60.128ZM37.2223 57.424H35.1103V61.792C35.1103 62.0693 35.1369 62.2987 35.1903 62.48C35.2436 62.6613 35.3183 62.8053 35.4143 62.912C35.5209 63.008 35.6436 63.0773 35.7823 63.12C35.9209 63.152 36.0703 63.168 36.2303 63.168C36.3796 63.168 36.5343 63.1467 36.6943 63.104C36.8649 63.0613 37.0249 63.0027 37.1743 62.928L37.2223 63.872C37.0303 63.9467 36.8276 64 36.6143 64.032C36.4116 64.0747 36.1876 64.096 35.9423 64.096C35.7396 64.096 35.5263 64.0693 35.3023 64.016C35.0783 63.9627 34.8703 63.8613 34.6783 63.712C34.4863 63.5627 34.3263 63.36 34.1983 63.104C34.0809 62.848 34.0223 62.512 34.0223 62.096V57.424H32.4703V56.512H34.0223V54.4H35.1103V56.512H37.2223V57.424Z" fill="#969696"/>
<path d="M283.056 329H276.714V327.95L280.774 323.848C280.923 323.699 281.068 323.54 281.208 323.372C281.357 323.195 281.488 323.013 281.6 322.826C281.712 322.639 281.801 322.443 281.866 322.238C281.931 322.023 281.964 321.804 281.964 321.58C281.964 321.291 281.913 321.029 281.81 320.796C281.707 320.563 281.563 320.367 281.376 320.208C281.199 320.04 280.989 319.914 280.746 319.83C280.513 319.737 280.265 319.69 280.004 319.69C279.472 319.69 279.024 319.858 278.66 320.194C278.296 320.521 278.063 320.941 277.96 321.454L276.966 321.258C277.031 320.913 277.153 320.591 277.33 320.292C277.517 319.993 277.741 319.737 278.002 319.522C278.273 319.307 278.576 319.139 278.912 319.018C279.248 318.897 279.612 318.836 280.004 318.836C280.405 318.836 280.783 318.897 281.138 319.018C281.502 319.13 281.819 319.303 282.09 319.536C282.361 319.76 282.575 320.045 282.734 320.39C282.902 320.726 282.986 321.118 282.986 321.566C282.986 321.883 282.939 322.177 282.846 322.448C282.762 322.719 282.645 322.975 282.496 323.218C282.356 323.461 282.188 323.694 281.992 323.918C281.796 324.133 281.591 324.347 281.376 324.562L277.806 328.104H283.056V329ZM290.771 319.984H286.641L286.571 323.05C286.786 322.975 287.01 322.919 287.243 322.882C287.486 322.845 287.719 322.826 287.943 322.826C288.41 322.826 288.839 322.901 289.231 323.05C289.623 323.199 289.964 323.414 290.253 323.694C290.542 323.965 290.766 324.291 290.925 324.674C291.084 325.057 291.163 325.477 291.163 325.934C291.163 326.41 291.084 326.853 290.925 327.264C290.766 327.665 290.542 328.015 290.253 328.314C289.964 328.603 289.614 328.832 289.203 329C288.802 329.168 288.358 329.252 287.873 329.252C287.154 329.252 286.548 329.089 286.053 328.762C285.558 328.435 285.176 327.997 284.905 327.446L285.815 327.04C285.992 327.451 286.258 327.777 286.613 328.02C286.977 328.263 287.378 328.384 287.817 328.384C288.153 328.384 288.461 328.328 288.741 328.216C289.03 328.095 289.278 327.931 289.483 327.726C289.688 327.511 289.847 327.259 289.959 326.97C290.08 326.681 290.141 326.368 290.141 326.032C290.141 325.668 290.076 325.341 289.945 325.052C289.824 324.753 289.651 324.501 289.427 324.296C289.212 324.091 288.956 323.932 288.657 323.82C288.358 323.708 288.032 323.652 287.677 323.652C287.322 323.652 286.968 323.703 286.613 323.806C286.268 323.899 285.936 324.03 285.619 324.198L285.717 319.088H290.771V319.984ZM298.892 319.984H294.762L294.692 323.05C294.907 322.975 295.131 322.919 295.364 322.882C295.607 322.845 295.84 322.826 296.064 322.826C296.531 322.826 296.96 322.901 297.352 323.05C297.744 323.199 298.085 323.414 298.374 323.694C298.664 323.965 298.888 324.291 299.046 324.674C299.205 325.057 299.284 325.477 299.284 325.934C299.284 326.41 299.205 326.853 299.046 327.264C298.888 327.665 298.664 328.015 298.374 328.314C298.085 328.603 297.735 328.832 297.324 329C296.923 329.168 296.48 329.252 295.994 329.252C295.276 329.252 294.669 329.089 294.174 328.762C293.68 328.435 293.297 327.997 293.026 327.446L293.936 327.04C294.114 327.451 294.38 327.777 294.734 328.02C295.098 328.263 295.5 328.384 295.938 328.384C296.274 328.384 296.582 328.328 296.862 328.216C297.152 328.095 297.399 327.931 297.604 327.726C297.81 327.511 297.968 327.259 298.08 326.97C298.202 326.681 298.262 326.368 298.262 326.032C298.262 325.668 298.197 325.341 298.066 325.052C297.945 324.753 297.772 324.501 297.548 324.296C297.334 324.091 297.077 323.932 296.778 323.82C296.48 323.708 296.153 323.652 295.798 323.652C295.444 323.652 295.089 323.703 294.734 323.806C294.389 323.899 294.058 324.03 293.74 324.198L293.838 319.088H298.892V319.984ZM304.745 329.252L303.933 328.986L308.175 318.836L308.973 319.116L304.745 329.252ZM319.601 329H313.259V327.95L317.319 323.848C317.468 323.699 317.613 323.54 317.753 323.372C317.902 323.195 318.033 323.013 318.145 322.826C318.257 322.639 318.346 322.443 318.411 322.238C318.476 322.023 318.509 321.804 318.509 321.58C318.509 321.291 318.458 321.029 318.355 320.796C318.252 320.563 318.108 320.367 317.921 320.208C317.744 320.04 317.534 319.914 317.291 319.83C317.058 319.737 316.81 319.69 316.549 319.69C316.017 319.69 315.569 319.858 315.205 320.194C314.841 320.521 314.608 320.941 314.505 321.454L313.511 321.258C313.576 320.913 313.698 320.591 313.875 320.292C314.062 319.993 314.286 319.737 314.547 319.522C314.818 319.307 315.121 319.139 315.457 319.018C315.793 318.897 316.157 318.836 316.549 318.836C316.95 318.836 317.328 318.897 317.683 319.018C318.047 319.13 318.364 319.303 318.635 319.536C318.906 319.76 319.12 320.045 319.279 320.39C319.447 320.726 319.531 321.118 319.531 321.566C319.531 321.883 319.484 322.177 319.391 322.448C319.307 322.719 319.19 322.975 319.041 323.218C318.901 323.461 318.733 323.694 318.537 323.918C318.341 324.133 318.136 324.347 317.921 324.562L314.351 328.104H319.601V329ZM327.316 319.984H323.186L323.116 323.05C323.331 322.975 323.555 322.919 323.788 322.882C324.031 322.845 324.264 322.826 324.488 322.826C324.955 322.826 325.384 322.901 325.776 323.05C326.168 323.199 326.509 323.414 326.798 323.694C327.087 323.965 327.311 324.291 327.47 324.674C327.629 325.057 327.708 325.477 327.708 325.934C327.708 326.41 327.629 326.853 327.47 327.264C327.311 327.665 327.087 328.015 326.798 328.314C326.509 328.603 326.159 328.832 325.748 329C325.347 329.168 324.903 329.252 324.418 329.252C323.699 329.252 323.093 329.089 322.598 328.762C322.103 328.435 321.721 327.997 321.45 327.446L322.36 327.04C322.537 327.451 322.803 327.777 323.158 328.02C323.522 328.263 323.923 328.384 324.362 328.384C324.698 328.384 325.006 328.328 325.286 328.216C325.575 328.095 325.823 327.931 326.028 327.726C326.233 327.511 326.392 327.259 326.504 326.97C326.625 326.681 326.686 326.368 326.686 326.032C326.686 325.668 326.621 325.341 326.49 325.052C326.369 324.753 326.196 324.501 325.972 324.296C325.757 324.091 325.501 323.932 325.202 323.82C324.903 323.708 324.577 323.652 324.222 323.652C323.867 323.652 323.513 323.703 323.158 323.806C322.813 323.899 322.481 324.03 322.164 324.198L322.262 319.088H327.316V319.984ZM332.847 318.836C333.463 318.836 333.976 318.99 334.387 319.298C334.807 319.597 335.143 319.993 335.395 320.488C335.647 320.973 335.824 321.529 335.927 322.154C336.039 322.779 336.095 323.414 336.095 324.058C336.095 324.702 336.039 325.337 335.927 325.962C335.824 326.578 335.647 327.133 335.395 327.628C335.143 328.113 334.807 328.505 334.387 328.804C333.976 329.103 333.463 329.252 332.847 329.252C332.222 329.252 331.699 329.103 331.279 328.804C330.868 328.505 330.537 328.113 330.285 327.628C330.033 327.133 329.856 326.578 329.753 325.962C329.65 325.337 329.599 324.702 329.599 324.058C329.599 323.414 329.65 322.779 329.753 322.154C329.856 321.529 330.033 320.973 330.285 320.488C330.537 319.993 330.868 319.597 331.279 319.298C331.699 318.99 332.222 318.836 332.847 318.836ZM332.847 319.69C332.408 319.69 332.044 319.825 331.755 320.096C331.466 320.367 331.237 320.712 331.069 321.132C330.901 321.552 330.784 322.023 330.719 322.546C330.654 323.059 330.621 323.563 330.621 324.058C330.621 324.553 330.654 325.057 330.719 325.57C330.784 326.083 330.901 326.55 331.069 326.97C331.237 327.381 331.466 327.721 331.755 327.992C332.044 328.253 332.408 328.384 332.847 328.384C333.276 328.384 333.636 328.253 333.925 327.992C334.214 327.721 334.443 327.381 334.611 326.97C334.779 326.55 334.896 326.083 334.961 325.57C335.036 325.057 335.073 324.553 335.073 324.058C335.073 323.563 335.036 323.059 334.961 322.546C334.896 322.023 334.779 321.552 334.611 321.132C334.443 320.712 334.214 320.367 333.925 320.096C333.636 319.825 333.276 319.69 332.847 319.69Z" fill="#F9888C"/>
</svg>
