<svg width="143" height="24" viewBox="0 0 143 24" fill="none" xmlns="http://www.w3.org/2000/svg">
<path d="M11.872 4.672V22.656H6.40003V4.672H2.68668e-05V5.72205e-06H18.272V4.672H11.872ZM28.3953 12.864C28.3953 12.032 28.1286 11.3173 27.5953 10.72C27.0833 10.1227 26.3046 9.82401 25.2593 9.82401C24.7473 9.82401 24.2779 9.90934 23.8513 10.08C23.4246 10.2293 23.0513 10.4427 22.7313 10.72C22.4113 10.9973 22.1553 11.328 21.9633 11.712C21.7713 12.0747 21.6646 12.4587 21.6433 12.864H28.3953ZM33.2273 14.88C33.2273 15.0933 33.2273 15.3067 33.2273 15.52C33.2273 15.7333 33.2166 15.936 33.1953 16.128H21.6433C21.6859 16.576 21.8139 16.9813 22.0273 17.344C22.2619 17.7067 22.5499 18.0267 22.8913 18.304C23.2539 18.56 23.6486 18.7627 24.0753 18.912C24.5233 19.0613 24.9819 19.136 25.4513 19.136C26.2833 19.136 26.9873 18.9867 27.5633 18.688C28.1393 18.368 28.6086 17.9627 28.9713 17.472L32.6193 19.776C31.8726 20.864 30.8806 21.7067 29.6433 22.304C28.4273 22.88 27.0086 23.168 25.3873 23.168C24.1926 23.168 23.0619 22.9867 21.9953 22.624C20.9286 22.24 19.9899 21.696 19.1793 20.992C18.3899 20.2667 17.7606 19.3813 17.2913 18.336C16.8433 17.2907 16.6193 16.096 16.6193 14.752C16.6193 13.4507 16.8433 12.2773 17.2913 11.232C17.7393 10.1653 18.3473 9.26934 19.1153 8.54401C19.8833 7.79734 20.7899 7.22134 21.8353 6.816C22.8806 6.41067 24.0113 6.20801 25.2273 6.20801C26.4006 6.20801 27.4779 6.41067 28.4593 6.816C29.4406 7.2 30.2833 7.76534 30.9873 8.512C31.6913 9.25867 32.2353 10.1653 32.6193 11.232C33.0246 12.2987 33.2273 13.5147 33.2273 14.88ZM46.643 22.656L43.219 17.76L39.699 22.656H33.619L39.987 14.304L34.227 6.72001H40.339L43.315 10.976L46.323 6.72001H52.243L46.515 14.304L52.819 22.656H46.643ZM60.459 10.656V16.736C60.459 17.4827 60.5977 18.048 60.875 18.432C61.1737 18.7947 61.6964 18.976 62.443 18.976C62.699 18.976 62.9657 18.9547 63.243 18.912C63.5417 18.8693 63.787 18.8053 63.979 18.72L64.043 22.56C63.6804 22.688 63.2217 22.7947 62.667 22.88C62.1124 22.9867 61.5577 23.04 61.003 23.04C59.9364 23.04 59.0404 22.912 58.315 22.656C57.5897 22.3787 57.003 21.9947 56.555 21.504C56.1284 20.992 55.819 20.3947 55.627 19.712C55.435 19.008 55.339 18.2293 55.339 17.376V10.656H52.779V6.72001H55.307V2.52801H60.459V6.72001H64.203V10.656H60.459ZM89.7548 22.656L87.9948 18.208H79.2268L77.5628 22.656H71.6108L81.1148 5.72205e-06H86.4268L95.8348 22.656H89.7548ZM83.6748 6.048L80.7948 13.824H86.4908L83.6748 6.048ZM107.755 11.008C107.521 10.944 107.286 10.9013 107.051 10.88C106.838 10.8587 106.625 10.848 106.411 10.848C105.707 10.848 105.11 10.976 104.619 11.232C104.15 11.488 103.766 11.7973 103.467 12.16C103.19 12.5227 102.987 12.9173 102.859 13.344C102.731 13.7707 102.667 14.144 102.667 14.464V22.656H97.4193V6.72001H102.475V9.024H102.539C102.945 8.21334 103.521 7.55201 104.267 7.04C105.014 6.528 105.878 6.27201 106.859 6.27201C107.073 6.27201 107.275 6.28267 107.467 6.304C107.681 6.32534 107.851 6.35734 107.979 6.40001L107.755 11.008ZM120.52 12.864C120.52 12.032 120.254 11.3173 119.72 10.72C119.208 10.1227 118.43 9.82401 117.384 9.82401C116.872 9.82401 116.403 9.90934 115.976 10.08C115.55 10.2293 115.176 10.4427 114.856 10.72C114.536 10.9973 114.28 11.328 114.088 11.712C113.896 12.0747 113.79 12.4587 113.768 12.864H120.52ZM125.352 14.88C125.352 15.0933 125.352 15.3067 125.352 15.52C125.352 15.7333 125.342 15.936 125.32 16.128H113.768C113.811 16.576 113.939 16.9813 114.152 17.344C114.387 17.7067 114.675 18.0267 115.016 18.304C115.379 18.56 115.774 18.7627 116.2 18.912C116.648 19.0613 117.107 19.136 117.576 19.136C118.408 19.136 119.112 18.9867 119.688 18.688C120.264 18.368 120.734 17.9627 121.096 17.472L124.744 19.776C123.998 20.864 123.006 21.7067 121.768 22.304C120.552 22.88 119.134 23.168 117.512 23.168C116.318 23.168 115.187 22.9867 114.12 22.624C113.054 22.24 112.115 21.696 111.304 20.992C110.515 20.2667 109.886 19.3813 109.416 18.336C108.968 17.2907 108.744 16.096 108.744 14.752C108.744 13.4507 108.968 12.2773 109.416 11.232C109.864 10.1653 110.472 9.26934 111.24 8.54401C112.008 7.79734 112.915 7.22134 113.96 6.816C115.006 6.41067 116.136 6.20801 117.352 6.20801C118.526 6.20801 119.603 6.41067 120.584 6.816C121.566 7.2 122.408 7.76534 123.112 8.512C123.816 9.25867 124.36 10.1653 124.744 11.232C125.15 12.2987 125.352 13.5147 125.352 14.88ZM137.827 15.712H137.155C136.579 15.712 135.993 15.744 135.395 15.808C134.819 15.8507 134.297 15.9467 133.827 16.096C133.379 16.2453 133.006 16.4693 132.707 16.768C132.409 17.0453 132.259 17.4187 132.259 17.888C132.259 18.1867 132.323 18.4427 132.451 18.656C132.601 18.8693 132.782 19.04 132.995 19.168C133.209 19.296 133.454 19.392 133.731 19.456C134.009 19.4987 134.275 19.52 134.531 19.52C135.598 19.52 136.409 19.232 136.963 18.656C137.539 18.0587 137.827 17.2587 137.827 16.256V15.712ZM128.195 8.89601C129.134 8.00001 130.222 7.328 131.459 6.88C132.718 6.43201 133.998 6.20801 135.299 6.20801C136.643 6.20801 137.774 6.37867 138.691 6.72001C139.63 7.04001 140.387 7.55201 140.963 8.25601C141.539 8.93867 141.955 9.81334 142.211 10.88C142.489 11.9253 142.627 13.1733 142.627 14.624V22.656H137.827V20.96H137.731C137.326 21.6213 136.707 22.1333 135.875 22.496C135.065 22.8587 134.179 23.04 133.219 23.04C132.579 23.04 131.918 22.9547 131.235 22.784C130.553 22.6133 129.923 22.336 129.347 21.952C128.793 21.568 128.334 21.056 127.971 20.416C127.609 19.776 127.427 18.9867 127.427 18.048C127.427 16.896 127.737 15.968 128.355 15.264C128.995 14.56 129.806 14.016 130.787 13.632C131.79 13.248 132.899 12.992 134.115 12.864C135.331 12.736 136.515 12.672 137.667 12.672V12.416C137.667 11.6267 137.39 11.0507 136.835 10.688C136.281 10.304 135.598 10.112 134.787 10.112C134.041 10.112 133.315 10.272 132.611 10.592C131.929 10.912 131.342 11.296 130.851 11.744L128.195 8.89601Z" fill="black"/>
</svg>
