<svg width="313" height="56" viewBox="0 0 313 56" fill="none" xmlns="http://www.w3.org/2000/svg">
<rect x="0.5" y="0.5" width="312" height="55" rx="27.5" stroke="#98B4C8"/>
<path d="M133.053 21.672H137.469C137.895 21.672 138.317 21.7253 138.733 21.832C139.149 21.928 139.517 22.0933 139.837 22.328C140.167 22.552 140.434 22.8453 140.637 23.208C140.839 23.5707 140.941 24.008 140.941 24.52C140.941 25.16 140.759 25.688 140.397 26.104C140.034 26.52 139.559 26.8187 138.973 27V27.032C139.687 27.128 140.274 27.4053 140.733 27.864C141.191 28.3227 141.421 28.936 141.421 29.704C141.421 30.3227 141.298 30.8453 141.053 31.272C140.807 31.688 140.482 32.024 140.077 32.28C139.682 32.536 139.223 32.7227 138.701 32.84C138.189 32.9467 137.666 33 137.133 33H133.053V21.672ZM135.069 26.28H136.861C137.533 26.28 138.045 26.1467 138.397 25.88C138.749 25.6133 138.925 25.2347 138.925 24.744C138.925 24.232 138.743 23.8693 138.381 23.656C138.018 23.4427 137.453 23.336 136.685 23.336H135.069V26.28ZM135.069 31.304H136.877C137.133 31.304 137.41 31.288 137.709 31.256C138.007 31.2133 138.279 31.1333 138.525 31.016C138.781 30.8987 138.989 30.728 139.149 30.504C139.319 30.28 139.405 29.9813 139.405 29.608C139.405 29.0107 139.202 28.5947 138.797 28.36C138.391 28.1253 137.778 28.008 136.957 28.008H135.069V31.304ZM150.324 33H148.5V31.768H148.468C148.297 32.152 147.999 32.4933 147.572 32.792C147.156 33.08 146.66 33.224 146.084 33.224C145.583 33.224 145.151 33.1387 144.788 32.968C144.436 32.7867 144.143 32.552 143.908 32.264C143.684 31.976 143.519 31.6453 143.412 31.272C143.305 30.8987 143.252 30.5147 143.252 30.12V25.32H145.172V29.576C145.172 29.8 145.188 30.0347 145.22 30.28C145.252 30.5253 145.321 30.7493 145.428 30.952C145.535 31.144 145.679 31.304 145.86 31.432C146.052 31.56 146.303 31.624 146.612 31.624C146.911 31.624 147.172 31.5653 147.396 31.448C147.631 31.32 147.817 31.16 147.956 30.968C148.105 30.776 148.217 30.5573 148.292 30.312C148.367 30.056 148.404 29.8 148.404 29.544V25.32H150.324V33ZM151.525 26.856V25.32H152.869V23.096H154.757V25.32H156.677V26.856H154.757V30.424C154.757 30.7653 154.815 31.048 154.933 31.272C155.061 31.496 155.338 31.608 155.765 31.608C155.893 31.608 156.031 31.5973 156.181 31.576C156.33 31.544 156.463 31.5013 156.581 31.448L156.645 32.952C156.474 33.016 156.271 33.064 156.037 33.096C155.802 33.1387 155.578 33.16 155.365 33.16C154.853 33.16 154.437 33.0907 154.117 32.952C153.797 32.8027 153.541 32.6053 153.349 32.36C153.167 32.104 153.039 31.816 152.965 31.496C152.901 31.1653 152.869 30.8133 152.869 30.44V26.856H151.525ZM156.728 26.856V25.32H158.072V23.096H159.96V25.32H161.88V26.856H159.96V30.424C159.96 30.7653 160.018 31.048 160.136 31.272C160.264 31.496 160.541 31.608 160.968 31.608C161.096 31.608 161.234 31.5973 161.384 31.576C161.533 31.544 161.666 31.5013 161.784 31.448L161.848 32.952C161.677 33.016 161.474 33.064 161.24 33.096C161.005 33.1387 160.781 33.16 160.568 33.16C160.056 33.16 159.64 33.0907 159.32 32.952C159 32.8027 158.744 32.6053 158.552 32.36C158.37 32.104 158.242 31.816 158.168 31.496C158.104 31.1653 158.072 30.8133 158.072 30.44V26.856H156.728ZM162.821 29.128C162.821 28.52 162.928 27.9707 163.141 27.48C163.365 26.9787 163.664 26.552 164.037 26.2C164.411 25.848 164.853 25.576 165.365 25.384C165.877 25.192 166.421 25.096 166.997 25.096C167.573 25.096 168.117 25.192 168.629 25.384C169.141 25.576 169.584 25.848 169.957 26.2C170.331 26.552 170.624 26.9787 170.837 27.48C171.061 27.9707 171.173 28.52 171.173 29.128C171.173 29.736 171.061 30.2907 170.837 30.792C170.624 31.2933 170.331 31.7253 169.957 32.088C169.584 32.44 169.141 32.7173 168.629 32.92C168.117 33.1227 167.573 33.224 166.997 33.224C166.421 33.224 165.877 33.1227 165.365 32.92C164.853 32.7173 164.411 32.44 164.037 32.088C163.664 31.7253 163.365 31.2933 163.141 30.792C162.928 30.2907 162.821 29.736 162.821 29.128ZM164.773 29.128C164.773 29.4267 164.816 29.7253 164.901 30.024C164.997 30.3227 165.136 30.5893 165.317 30.824C165.499 31.0587 165.728 31.2507 166.005 31.4C166.283 31.5493 166.613 31.624 166.997 31.624C167.381 31.624 167.712 31.5493 167.989 31.4C168.267 31.2507 168.496 31.0587 168.677 30.824C168.859 30.5893 168.992 30.3227 169.077 30.024C169.173 29.7253 169.221 29.4267 169.221 29.128C169.221 28.8293 169.173 28.536 169.077 28.248C168.992 27.9493 168.859 27.6827 168.677 27.448C168.496 27.2133 168.267 27.0267 167.989 26.888C167.712 26.7387 167.381 26.664 166.997 26.664C166.613 26.664 166.283 26.7387 166.005 26.888C165.728 27.0267 165.499 27.2133 165.317 27.448C165.136 27.6827 164.997 27.9493 164.901 28.248C164.816 28.536 164.773 28.8293 164.773 29.128ZM173.035 25.32H174.859V26.552H174.891C175.061 26.168 175.355 25.832 175.771 25.544C176.197 25.2453 176.699 25.096 177.275 25.096C177.776 25.096 178.203 25.1867 178.555 25.368C178.917 25.5387 179.211 25.768 179.435 26.056C179.669 26.344 179.84 26.6747 179.947 27.048C180.053 27.4213 180.107 27.8053 180.107 28.2V33H178.187V28.744C178.187 28.52 178.171 28.2853 178.139 28.04C178.107 27.7947 178.037 27.576 177.931 27.384C177.824 27.1813 177.675 27.016 177.483 26.888C177.301 26.76 177.056 26.696 176.747 26.696C176.437 26.696 176.171 26.76 175.947 26.888C175.723 27.0053 175.536 27.16 175.387 27.352C175.248 27.544 175.141 27.768 175.067 28.024C174.992 28.2693 174.955 28.52 174.955 28.776V33H173.035V25.32Z" fill="#98B4C8"/>
</svg>
