<svg width="524" height="769" viewBox="0 0 524 769" fill="none" xmlns="http://www.w3.org/2000/svg">
<path d="M40 42C40 40.8954 40.8954 40 42 40H482C483.105 40 484 40.8954 484 42V727C484 728.105 483.105 729 482 729H42C40.8954 729 40 728.105 40 727V42Z" fill="white"/>
<path d="M42 40V41H482V40V39H42V40ZM484 42H483V727H484H485V42H484ZM482 729V728H42V729V730H482V729ZM40 727H41V42H40H39V727H40ZM42 729V728C41.4477 728 41 727.552 41 727H40H39C39 728.657 40.3431 730 42 730V729ZM484 727H483C483 727.552 482.552 728 482 728V729V730C483.657 730 485 728.657 485 727H484ZM482 40V41C482.552 41 483 41.4477 483 42H484H485C485 40.3431 483.657 39 482 39V40ZM42 40V39C40.3432 39 39 40.3431 39 42H40H41C41 41.4477 41.4477 41 42 41V40Z" fill="black" fill-opacity="0.1"/>
<rect x="75.5" y="163.5" width="352" height="551" rx="4.5" stroke="#8A38F5" stroke-dasharray="10 5"/>
<rect x="95" y="183" width="313" height="56" rx="28" fill="url(#paint0_linear_17_4213)"/>
<path d="M228.053 204.672H232.469C232.895 204.672 233.317 204.725 233.733 204.832C234.149 204.928 234.517 205.093 234.837 205.328C235.167 205.552 235.434 205.845 235.637 206.208C235.839 206.571 235.941 207.008 235.941 207.52C235.941 208.16 235.759 208.688 235.397 209.104C235.034 209.52 234.559 209.819 233.973 210V210.032C234.687 210.128 235.274 210.405 235.733 210.864C236.191 211.323 236.421 211.936 236.421 212.704C236.421 213.323 236.298 213.845 236.053 214.272C235.807 214.688 235.482 215.024 235.077 215.28C234.682 215.536 234.223 215.723 233.701 215.84C233.189 215.947 232.666 216 232.133 216H228.053V204.672ZM230.069 209.28H231.861C232.533 209.28 233.045 209.147 233.397 208.88C233.749 208.613 233.925 208.235 233.925 207.744C233.925 207.232 233.743 206.869 233.381 206.656C233.018 206.443 232.453 206.336 231.685 206.336H230.069V209.28ZM230.069 214.304H231.877C232.133 214.304 232.41 214.288 232.709 214.256C233.007 214.213 233.279 214.133 233.525 214.016C233.781 213.899 233.989 213.728 234.149 213.504C234.319 213.28 234.405 212.981 234.405 212.608C234.405 212.011 234.202 211.595 233.797 211.36C233.391 211.125 232.778 211.008 231.957 211.008H230.069V214.304ZM245.324 216H243.5V214.768H243.468C243.297 215.152 242.999 215.493 242.572 215.792C242.156 216.08 241.66 216.224 241.084 216.224C240.583 216.224 240.151 216.139 239.788 215.968C239.436 215.787 239.143 215.552 238.908 215.264C238.684 214.976 238.519 214.645 238.412 214.272C238.305 213.899 238.252 213.515 238.252 213.12V208.32H240.172V212.576C240.172 212.8 240.188 213.035 240.22 213.28C240.252 213.525 240.321 213.749 240.428 213.952C240.535 214.144 240.679 214.304 240.86 214.432C241.052 214.56 241.303 214.624 241.612 214.624C241.911 214.624 242.172 214.565 242.396 214.448C242.631 214.32 242.817 214.16 242.956 213.968C243.105 213.776 243.217 213.557 243.292 213.312C243.367 213.056 243.404 212.8 243.404 212.544V208.32H245.324V216ZM246.525 209.856V208.32H247.869V206.096H249.757V208.32H251.677V209.856H249.757V213.424C249.757 213.765 249.815 214.048 249.933 214.272C250.061 214.496 250.338 214.608 250.765 214.608C250.893 214.608 251.031 214.597 251.181 214.576C251.33 214.544 251.463 214.501 251.581 214.448L251.645 215.952C251.474 216.016 251.271 216.064 251.037 216.096C250.802 216.139 250.578 216.16 250.365 216.16C249.853 216.16 249.437 216.091 249.117 215.952C248.797 215.803 248.541 215.605 248.349 215.36C248.167 215.104 248.039 214.816 247.965 214.496C247.901 214.165 247.869 213.813 247.869 213.44V209.856H246.525ZM251.728 209.856V208.32H253.072V206.096H254.96V208.32H256.88V209.856H254.96V213.424C254.96 213.765 255.018 214.048 255.136 214.272C255.264 214.496 255.541 214.608 255.968 214.608C256.096 214.608 256.234 214.597 256.384 214.576C256.533 214.544 256.666 214.501 256.784 214.448L256.848 215.952C256.677 216.016 256.474 216.064 256.24 216.096C256.005 216.139 255.781 216.16 255.568 216.16C255.056 216.16 254.64 216.091 254.32 215.952C254 215.803 253.744 215.605 253.552 215.36C253.37 215.104 253.242 214.816 253.168 214.496C253.104 214.165 253.072 213.813 253.072 213.44V209.856H251.728ZM257.821 212.128C257.821 211.52 257.928 210.971 258.141 210.48C258.365 209.979 258.664 209.552 259.037 209.2C259.411 208.848 259.853 208.576 260.365 208.384C260.877 208.192 261.421 208.096 261.997 208.096C262.573 208.096 263.117 208.192 263.629 208.384C264.141 208.576 264.584 208.848 264.957 209.2C265.331 209.552 265.624 209.979 265.837 210.48C266.061 210.971 266.173 211.52 266.173 212.128C266.173 212.736 266.061 213.291 265.837 213.792C265.624 214.293 265.331 214.725 264.957 215.088C264.584 215.44 264.141 215.717 263.629 215.92C263.117 216.123 262.573 216.224 261.997 216.224C261.421 216.224 260.877 216.123 260.365 215.92C259.853 215.717 259.411 215.44 259.037 215.088C258.664 214.725 258.365 214.293 258.141 213.792C257.928 213.291 257.821 212.736 257.821 212.128ZM259.773 212.128C259.773 212.427 259.816 212.725 259.901 213.024C259.997 213.323 260.136 213.589 260.317 213.824C260.499 214.059 260.728 214.251 261.005 214.4C261.283 214.549 261.613 214.624 261.997 214.624C262.381 214.624 262.712 214.549 262.989 214.4C263.267 214.251 263.496 214.059 263.677 213.824C263.859 213.589 263.992 213.323 264.077 213.024C264.173 212.725 264.221 212.427 264.221 212.128C264.221 211.829 264.173 211.536 264.077 211.248C263.992 210.949 263.859 210.683 263.677 210.448C263.496 210.213 263.267 210.027 262.989 209.888C262.712 209.739 262.381 209.664 261.997 209.664C261.613 209.664 261.283 209.739 261.005 209.888C260.728 210.027 260.499 210.213 260.317 210.448C260.136 210.683 259.997 210.949 259.901 211.248C259.816 211.536 259.773 211.829 259.773 212.128ZM268.035 208.32H269.859V209.552H269.891C270.061 209.168 270.355 208.832 270.771 208.544C271.197 208.245 271.699 208.096 272.275 208.096C272.776 208.096 273.203 208.187 273.555 208.368C273.917 208.539 274.211 208.768 274.435 209.056C274.669 209.344 274.84 209.675 274.947 210.048C275.053 210.421 275.107 210.805 275.107 211.2V216H273.187V211.744C273.187 211.52 273.171 211.285 273.139 211.04C273.107 210.795 273.037 210.576 272.931 210.384C272.824 210.181 272.675 210.016 272.483 209.888C272.301 209.76 272.056 209.696 271.747 209.696C271.437 209.696 271.171 209.76 270.947 209.888C270.723 210.005 270.536 210.16 270.387 210.352C270.248 210.544 270.141 210.768 270.067 211.024C269.992 211.269 269.955 211.52 269.955 211.776V216H268.035V208.32Z" fill="#1E1F26"/>
<rect x="95" y="261" width="313" height="56" rx="28" fill="#37ADFF"/>
<path d="M228.053 282.672H232.469C232.895 282.672 233.317 282.725 233.733 282.832C234.149 282.928 234.517 283.093 234.837 283.328C235.167 283.552 235.434 283.845 235.637 284.208C235.839 284.571 235.941 285.008 235.941 285.52C235.941 286.16 235.759 286.688 235.397 287.104C235.034 287.52 234.559 287.819 233.973 288V288.032C234.687 288.128 235.274 288.405 235.733 288.864C236.191 289.323 236.421 289.936 236.421 290.704C236.421 291.323 236.298 291.845 236.053 292.272C235.807 292.688 235.482 293.024 235.077 293.28C234.682 293.536 234.223 293.723 233.701 293.84C233.189 293.947 232.666 294 232.133 294H228.053V282.672ZM230.069 287.28H231.861C232.533 287.28 233.045 287.147 233.397 286.88C233.749 286.613 233.925 286.235 233.925 285.744C233.925 285.232 233.743 284.869 233.381 284.656C233.018 284.443 232.453 284.336 231.685 284.336H230.069V287.28ZM230.069 292.304H231.877C232.133 292.304 232.41 292.288 232.709 292.256C233.007 292.213 233.279 292.133 233.525 292.016C233.781 291.899 233.989 291.728 234.149 291.504C234.319 291.28 234.405 290.981 234.405 290.608C234.405 290.011 234.202 289.595 233.797 289.36C233.391 289.125 232.778 289.008 231.957 289.008H230.069V292.304ZM245.324 294H243.5V292.768H243.468C243.297 293.152 242.999 293.493 242.572 293.792C242.156 294.08 241.66 294.224 241.084 294.224C240.583 294.224 240.151 294.139 239.788 293.968C239.436 293.787 239.143 293.552 238.908 293.264C238.684 292.976 238.519 292.645 238.412 292.272C238.305 291.899 238.252 291.515 238.252 291.12V286.32H240.172V290.576C240.172 290.8 240.188 291.035 240.22 291.28C240.252 291.525 240.321 291.749 240.428 291.952C240.535 292.144 240.679 292.304 240.86 292.432C241.052 292.56 241.303 292.624 241.612 292.624C241.911 292.624 242.172 292.565 242.396 292.448C242.631 292.32 242.817 292.16 242.956 291.968C243.105 291.776 243.217 291.557 243.292 291.312C243.367 291.056 243.404 290.8 243.404 290.544V286.32H245.324V294ZM246.525 287.856V286.32H247.869V284.096H249.757V286.32H251.677V287.856H249.757V291.424C249.757 291.765 249.815 292.048 249.933 292.272C250.061 292.496 250.338 292.608 250.765 292.608C250.893 292.608 251.031 292.597 251.181 292.576C251.33 292.544 251.463 292.501 251.581 292.448L251.645 293.952C251.474 294.016 251.271 294.064 251.037 294.096C250.802 294.139 250.578 294.16 250.365 294.16C249.853 294.16 249.437 294.091 249.117 293.952C248.797 293.803 248.541 293.605 248.349 293.36C248.167 293.104 248.039 292.816 247.965 292.496C247.901 292.165 247.869 291.813 247.869 291.44V287.856H246.525ZM251.728 287.856V286.32H253.072V284.096H254.96V286.32H256.88V287.856H254.96V291.424C254.96 291.765 255.018 292.048 255.136 292.272C255.264 292.496 255.541 292.608 255.968 292.608C256.096 292.608 256.234 292.597 256.384 292.576C256.533 292.544 256.666 292.501 256.784 292.448L256.848 293.952C256.677 294.016 256.474 294.064 256.24 294.096C256.005 294.139 255.781 294.16 255.568 294.16C255.056 294.16 254.64 294.091 254.32 293.952C254 293.803 253.744 293.605 253.552 293.36C253.37 293.104 253.242 292.816 253.168 292.496C253.104 292.165 253.072 291.813 253.072 291.44V287.856H251.728ZM257.821 290.128C257.821 289.52 257.928 288.971 258.141 288.48C258.365 287.979 258.664 287.552 259.037 287.2C259.411 286.848 259.853 286.576 260.365 286.384C260.877 286.192 261.421 286.096 261.997 286.096C262.573 286.096 263.117 286.192 263.629 286.384C264.141 286.576 264.584 286.848 264.957 287.2C265.331 287.552 265.624 287.979 265.837 288.48C266.061 288.971 266.173 289.52 266.173 290.128C266.173 290.736 266.061 291.291 265.837 291.792C265.624 292.293 265.331 292.725 264.957 293.088C264.584 293.44 264.141 293.717 263.629 293.92C263.117 294.123 262.573 294.224 261.997 294.224C261.421 294.224 260.877 294.123 260.365 293.92C259.853 293.717 259.411 293.44 259.037 293.088C258.664 292.725 258.365 292.293 258.141 291.792C257.928 291.291 257.821 290.736 257.821 290.128ZM259.773 290.128C259.773 290.427 259.816 290.725 259.901 291.024C259.997 291.323 260.136 291.589 260.317 291.824C260.499 292.059 260.728 292.251 261.005 292.4C261.283 292.549 261.613 292.624 261.997 292.624C262.381 292.624 262.712 292.549 262.989 292.4C263.267 292.251 263.496 292.059 263.677 291.824C263.859 291.589 263.992 291.323 264.077 291.024C264.173 290.725 264.221 290.427 264.221 290.128C264.221 289.829 264.173 289.536 264.077 289.248C263.992 288.949 263.859 288.683 263.677 288.448C263.496 288.213 263.267 288.027 262.989 287.888C262.712 287.739 262.381 287.664 261.997 287.664C261.613 287.664 261.283 287.739 261.005 287.888C260.728 288.027 260.499 288.213 260.317 288.448C260.136 288.683 259.997 288.949 259.901 289.248C259.816 289.536 259.773 289.829 259.773 290.128ZM268.035 286.32H269.859V287.552H269.891C270.061 287.168 270.355 286.832 270.771 286.544C271.197 286.245 271.699 286.096 272.275 286.096C272.776 286.096 273.203 286.187 273.555 286.368C273.917 286.539 274.211 286.768 274.435 287.056C274.669 287.344 274.84 287.675 274.947 288.048C275.053 288.421 275.107 288.805 275.107 289.2V294H273.187V289.744C273.187 289.52 273.171 289.285 273.139 289.04C273.107 288.795 273.037 288.576 272.931 288.384C272.824 288.181 272.675 288.016 272.483 287.888C272.301 287.76 272.056 287.696 271.747 287.696C271.437 287.696 271.171 287.76 270.947 287.888C270.723 288.005 270.536 288.16 270.387 288.352C270.248 288.544 270.141 288.768 270.067 289.024C269.992 289.269 269.955 289.52 269.955 289.776V294H268.035V286.32Z" fill="#1E1F26"/>
<rect x="95" y="339" width="313" height="56" rx="28" fill="#969696"/>
<path d="M228.053 360.672H232.469C232.895 360.672 233.317 360.725 233.733 360.832C234.149 360.928 234.517 361.093 234.837 361.328C235.167 361.552 235.434 361.845 235.637 362.208C235.839 362.571 235.941 363.008 235.941 363.52C235.941 364.16 235.759 364.688 235.397 365.104C235.034 365.52 234.559 365.819 233.973 366V366.032C234.687 366.128 235.274 366.405 235.733 366.864C236.191 367.323 236.421 367.936 236.421 368.704C236.421 369.323 236.298 369.845 236.053 370.272C235.807 370.688 235.482 371.024 235.077 371.28C234.682 371.536 234.223 371.723 233.701 371.84C233.189 371.947 232.666 372 232.133 372H228.053V360.672ZM230.069 365.28H231.861C232.533 365.28 233.045 365.147 233.397 364.88C233.749 364.613 233.925 364.235 233.925 363.744C233.925 363.232 233.743 362.869 233.381 362.656C233.018 362.443 232.453 362.336 231.685 362.336H230.069V365.28ZM230.069 370.304H231.877C232.133 370.304 232.41 370.288 232.709 370.256C233.007 370.213 233.279 370.133 233.525 370.016C233.781 369.899 233.989 369.728 234.149 369.504C234.319 369.28 234.405 368.981 234.405 368.608C234.405 368.011 234.202 367.595 233.797 367.36C233.391 367.125 232.778 367.008 231.957 367.008H230.069V370.304ZM245.324 372H243.5V370.768H243.468C243.297 371.152 242.999 371.493 242.572 371.792C242.156 372.08 241.66 372.224 241.084 372.224C240.583 372.224 240.151 372.139 239.788 371.968C239.436 371.787 239.143 371.552 238.908 371.264C238.684 370.976 238.519 370.645 238.412 370.272C238.305 369.899 238.252 369.515 238.252 369.12V364.32H240.172V368.576C240.172 368.8 240.188 369.035 240.22 369.28C240.252 369.525 240.321 369.749 240.428 369.952C240.535 370.144 240.679 370.304 240.86 370.432C241.052 370.56 241.303 370.624 241.612 370.624C241.911 370.624 242.172 370.565 242.396 370.448C242.631 370.32 242.817 370.16 242.956 369.968C243.105 369.776 243.217 369.557 243.292 369.312C243.367 369.056 243.404 368.8 243.404 368.544V364.32H245.324V372ZM246.525 365.856V364.32H247.869V362.096H249.757V364.32H251.677V365.856H249.757V369.424C249.757 369.765 249.815 370.048 249.933 370.272C250.061 370.496 250.338 370.608 250.765 370.608C250.893 370.608 251.031 370.597 251.181 370.576C251.33 370.544 251.463 370.501 251.581 370.448L251.645 371.952C251.474 372.016 251.271 372.064 251.037 372.096C250.802 372.139 250.578 372.16 250.365 372.16C249.853 372.16 249.437 372.091 249.117 371.952C248.797 371.803 248.541 371.605 248.349 371.36C248.167 371.104 248.039 370.816 247.965 370.496C247.901 370.165 247.869 369.813 247.869 369.44V365.856H246.525ZM251.728 365.856V364.32H253.072V362.096H254.96V364.32H256.88V365.856H254.96V369.424C254.96 369.765 255.018 370.048 255.136 370.272C255.264 370.496 255.541 370.608 255.968 370.608C256.096 370.608 256.234 370.597 256.384 370.576C256.533 370.544 256.666 370.501 256.784 370.448L256.848 371.952C256.677 372.016 256.474 372.064 256.24 372.096C256.005 372.139 255.781 372.16 255.568 372.16C255.056 372.16 254.64 372.091 254.32 371.952C254 371.803 253.744 371.605 253.552 371.36C253.37 371.104 253.242 370.816 253.168 370.496C253.104 370.165 253.072 369.813 253.072 369.44V365.856H251.728ZM257.821 368.128C257.821 367.52 257.928 366.971 258.141 366.48C258.365 365.979 258.664 365.552 259.037 365.2C259.411 364.848 259.853 364.576 260.365 364.384C260.877 364.192 261.421 364.096 261.997 364.096C262.573 364.096 263.117 364.192 263.629 364.384C264.141 364.576 264.584 364.848 264.957 365.2C265.331 365.552 265.624 365.979 265.837 366.48C266.061 366.971 266.173 367.52 266.173 368.128C266.173 368.736 266.061 369.291 265.837 369.792C265.624 370.293 265.331 370.725 264.957 371.088C264.584 371.44 264.141 371.717 263.629 371.92C263.117 372.123 262.573 372.224 261.997 372.224C261.421 372.224 260.877 372.123 260.365 371.92C259.853 371.717 259.411 371.44 259.037 371.088C258.664 370.725 258.365 370.293 258.141 369.792C257.928 369.291 257.821 368.736 257.821 368.128ZM259.773 368.128C259.773 368.427 259.816 368.725 259.901 369.024C259.997 369.323 260.136 369.589 260.317 369.824C260.499 370.059 260.728 370.251 261.005 370.4C261.283 370.549 261.613 370.624 261.997 370.624C262.381 370.624 262.712 370.549 262.989 370.4C263.267 370.251 263.496 370.059 263.677 369.824C263.859 369.589 263.992 369.323 264.077 369.024C264.173 368.725 264.221 368.427 264.221 368.128C264.221 367.829 264.173 367.536 264.077 367.248C263.992 366.949 263.859 366.683 263.677 366.448C263.496 366.213 263.267 366.027 262.989 365.888C262.712 365.739 262.381 365.664 261.997 365.664C261.613 365.664 261.283 365.739 261.005 365.888C260.728 366.027 260.499 366.213 260.317 366.448C260.136 366.683 259.997 366.949 259.901 367.248C259.816 367.536 259.773 367.829 259.773 368.128ZM268.035 364.32H269.859V365.552H269.891C270.061 365.168 270.355 364.832 270.771 364.544C271.197 364.245 271.699 364.096 272.275 364.096C272.776 364.096 273.203 364.187 273.555 364.368C273.917 364.539 274.211 364.768 274.435 365.056C274.669 365.344 274.84 365.675 274.947 366.048C275.053 366.421 275.107 366.805 275.107 367.2V372H273.187V367.744C273.187 367.52 273.171 367.285 273.139 367.04C273.107 366.795 273.037 366.576 272.931 366.384C272.824 366.181 272.675 366.016 272.483 365.888C272.301 365.76 272.056 365.696 271.747 365.696C271.437 365.696 271.171 365.76 270.947 365.888C270.723 366.005 270.536 366.16 270.387 366.352C270.248 366.544 270.141 366.768 270.067 367.024C269.992 367.269 269.955 367.52 269.955 367.776V372H268.035V364.32Z" fill="white"/>
<rect x="95.5" y="405.5" width="312" height="55" rx="27.5" stroke="#35A8F7"/>
<path d="M228.053 426.672H232.469C232.895 426.672 233.317 426.725 233.733 426.832C234.149 426.928 234.517 427.093 234.837 427.328C235.167 427.552 235.434 427.845 235.637 428.208C235.839 428.571 235.941 429.008 235.941 429.52C235.941 430.16 235.759 430.688 235.397 431.104C235.034 431.52 234.559 431.819 233.973 432V432.032C234.687 432.128 235.274 432.405 235.733 432.864C236.191 433.323 236.421 433.936 236.421 434.704C236.421 435.323 236.298 435.845 236.053 436.272C235.807 436.688 235.482 437.024 235.077 437.28C234.682 437.536 234.223 437.723 233.701 437.84C233.189 437.947 232.666 438 232.133 438H228.053V426.672ZM230.069 431.28H231.861C232.533 431.28 233.045 431.147 233.397 430.88C233.749 430.613 233.925 430.235 233.925 429.744C233.925 429.232 233.743 428.869 233.381 428.656C233.018 428.443 232.453 428.336 231.685 428.336H230.069V431.28ZM230.069 436.304H231.877C232.133 436.304 232.41 436.288 232.709 436.256C233.007 436.213 233.279 436.133 233.525 436.016C233.781 435.899 233.989 435.728 234.149 435.504C234.319 435.28 234.405 434.981 234.405 434.608C234.405 434.011 234.202 433.595 233.797 433.36C233.391 433.125 232.778 433.008 231.957 433.008H230.069V436.304ZM245.324 438H243.5V436.768H243.468C243.297 437.152 242.999 437.493 242.572 437.792C242.156 438.08 241.66 438.224 241.084 438.224C240.583 438.224 240.151 438.139 239.788 437.968C239.436 437.787 239.143 437.552 238.908 437.264C238.684 436.976 238.519 436.645 238.412 436.272C238.305 435.899 238.252 435.515 238.252 435.12V430.32H240.172V434.576C240.172 434.8 240.188 435.035 240.22 435.28C240.252 435.525 240.321 435.749 240.428 435.952C240.535 436.144 240.679 436.304 240.86 436.432C241.052 436.56 241.303 436.624 241.612 436.624C241.911 436.624 242.172 436.565 242.396 436.448C242.631 436.32 242.817 436.16 242.956 435.968C243.105 435.776 243.217 435.557 243.292 435.312C243.367 435.056 243.404 434.8 243.404 434.544V430.32H245.324V438ZM246.525 431.856V430.32H247.869V428.096H249.757V430.32H251.677V431.856H249.757V435.424C249.757 435.765 249.815 436.048 249.933 436.272C250.061 436.496 250.338 436.608 250.765 436.608C250.893 436.608 251.031 436.597 251.181 436.576C251.33 436.544 251.463 436.501 251.581 436.448L251.645 437.952C251.474 438.016 251.271 438.064 251.037 438.096C250.802 438.139 250.578 438.16 250.365 438.16C249.853 438.16 249.437 438.091 249.117 437.952C248.797 437.803 248.541 437.605 248.349 437.36C248.167 437.104 248.039 436.816 247.965 436.496C247.901 436.165 247.869 435.813 247.869 435.44V431.856H246.525ZM251.728 431.856V430.32H253.072V428.096H254.96V430.32H256.88V431.856H254.96V435.424C254.96 435.765 255.018 436.048 255.136 436.272C255.264 436.496 255.541 436.608 255.968 436.608C256.096 436.608 256.234 436.597 256.384 436.576C256.533 436.544 256.666 436.501 256.784 436.448L256.848 437.952C256.677 438.016 256.474 438.064 256.24 438.096C256.005 438.139 255.781 438.16 255.568 438.16C255.056 438.16 254.64 438.091 254.32 437.952C254 437.803 253.744 437.605 253.552 437.36C253.37 437.104 253.242 436.816 253.168 436.496C253.104 436.165 253.072 435.813 253.072 435.44V431.856H251.728ZM257.821 434.128C257.821 433.52 257.928 432.971 258.141 432.48C258.365 431.979 258.664 431.552 259.037 431.2C259.411 430.848 259.853 430.576 260.365 430.384C260.877 430.192 261.421 430.096 261.997 430.096C262.573 430.096 263.117 430.192 263.629 430.384C264.141 430.576 264.584 430.848 264.957 431.2C265.331 431.552 265.624 431.979 265.837 432.48C266.061 432.971 266.173 433.52 266.173 434.128C266.173 434.736 266.061 435.291 265.837 435.792C265.624 436.293 265.331 436.725 264.957 437.088C264.584 437.44 264.141 437.717 263.629 437.92C263.117 438.123 262.573 438.224 261.997 438.224C261.421 438.224 260.877 438.123 260.365 437.92C259.853 437.717 259.411 437.44 259.037 437.088C258.664 436.725 258.365 436.293 258.141 435.792C257.928 435.291 257.821 434.736 257.821 434.128ZM259.773 434.128C259.773 434.427 259.816 434.725 259.901 435.024C259.997 435.323 260.136 435.589 260.317 435.824C260.499 436.059 260.728 436.251 261.005 436.4C261.283 436.549 261.613 436.624 261.997 436.624C262.381 436.624 262.712 436.549 262.989 436.4C263.267 436.251 263.496 436.059 263.677 435.824C263.859 435.589 263.992 435.323 264.077 435.024C264.173 434.725 264.221 434.427 264.221 434.128C264.221 433.829 264.173 433.536 264.077 433.248C263.992 432.949 263.859 432.683 263.677 432.448C263.496 432.213 263.267 432.027 262.989 431.888C262.712 431.739 262.381 431.664 261.997 431.664C261.613 431.664 261.283 431.739 261.005 431.888C260.728 432.027 260.499 432.213 260.317 432.448C260.136 432.683 259.997 432.949 259.901 433.248C259.816 433.536 259.773 433.829 259.773 434.128ZM268.035 430.32H269.859V431.552H269.891C270.061 431.168 270.355 430.832 270.771 430.544C271.197 430.245 271.699 430.096 272.275 430.096C272.776 430.096 273.203 430.187 273.555 430.368C273.917 430.539 274.211 430.768 274.435 431.056C274.669 431.344 274.84 431.675 274.947 432.048C275.053 432.421 275.107 432.805 275.107 433.2V438H273.187V433.744C273.187 433.52 273.171 433.285 273.139 433.04C273.107 432.795 273.037 432.576 272.931 432.384C272.824 432.181 272.675 432.016 272.483 431.888C272.301 431.76 272.056 431.696 271.747 431.696C271.437 431.696 271.171 431.76 270.947 431.888C270.723 432.005 270.536 432.16 270.387 432.352C270.248 432.544 270.141 432.768 270.067 433.024C269.992 433.269 269.955 433.52 269.955 433.776V438H268.035V430.32Z" fill="#35A8F7"/>
<rect x="95.5" y="483.5" width="312" height="55" rx="27.5" fill="#35A8F7" fill-opacity="0.15"/>
<rect x="95.5" y="483.5" width="312" height="55" rx="27.5" stroke="#35A8F7"/>
<path d="M228.053 504.672H232.469C232.895 504.672 233.317 504.725 233.733 504.832C234.149 504.928 234.517 505.093 234.837 505.328C235.167 505.552 235.434 505.845 235.637 506.208C235.839 506.571 235.941 507.008 235.941 507.52C235.941 508.16 235.759 508.688 235.397 509.104C235.034 509.52 234.559 509.819 233.973 510V510.032C234.687 510.128 235.274 510.405 235.733 510.864C236.191 511.323 236.421 511.936 236.421 512.704C236.421 513.323 236.298 513.845 236.053 514.272C235.807 514.688 235.482 515.024 235.077 515.28C234.682 515.536 234.223 515.723 233.701 515.84C233.189 515.947 232.666 516 232.133 516H228.053V504.672ZM230.069 509.28H231.861C232.533 509.28 233.045 509.147 233.397 508.88C233.749 508.613 233.925 508.235 233.925 507.744C233.925 507.232 233.743 506.869 233.381 506.656C233.018 506.443 232.453 506.336 231.685 506.336H230.069V509.28ZM230.069 514.304H231.877C232.133 514.304 232.41 514.288 232.709 514.256C233.007 514.213 233.279 514.133 233.525 514.016C233.781 513.899 233.989 513.728 234.149 513.504C234.319 513.28 234.405 512.981 234.405 512.608C234.405 512.011 234.202 511.595 233.797 511.36C233.391 511.125 232.778 511.008 231.957 511.008H230.069V514.304ZM245.324 516H243.5V514.768H243.468C243.297 515.152 242.999 515.493 242.572 515.792C242.156 516.08 241.66 516.224 241.084 516.224C240.583 516.224 240.151 516.139 239.788 515.968C239.436 515.787 239.143 515.552 238.908 515.264C238.684 514.976 238.519 514.645 238.412 514.272C238.305 513.899 238.252 513.515 238.252 513.12V508.32H240.172V512.576C240.172 512.8 240.188 513.035 240.22 513.28C240.252 513.525 240.321 513.749 240.428 513.952C240.535 514.144 240.679 514.304 240.86 514.432C241.052 514.56 241.303 514.624 241.612 514.624C241.911 514.624 242.172 514.565 242.396 514.448C242.631 514.32 242.817 514.16 242.956 513.968C243.105 513.776 243.217 513.557 243.292 513.312C243.367 513.056 243.404 512.8 243.404 512.544V508.32H245.324V516ZM246.525 509.856V508.32H247.869V506.096H249.757V508.32H251.677V509.856H249.757V513.424C249.757 513.765 249.815 514.048 249.933 514.272C250.061 514.496 250.338 514.608 250.765 514.608C250.893 514.608 251.031 514.597 251.181 514.576C251.33 514.544 251.463 514.501 251.581 514.448L251.645 515.952C251.474 516.016 251.271 516.064 251.037 516.096C250.802 516.139 250.578 516.16 250.365 516.16C249.853 516.16 249.437 516.091 249.117 515.952C248.797 515.803 248.541 515.605 248.349 515.36C248.167 515.104 248.039 514.816 247.965 514.496C247.901 514.165 247.869 513.813 247.869 513.44V509.856H246.525ZM251.728 509.856V508.32H253.072V506.096H254.96V508.32H256.88V509.856H254.96V513.424C254.96 513.765 255.018 514.048 255.136 514.272C255.264 514.496 255.541 514.608 255.968 514.608C256.096 514.608 256.234 514.597 256.384 514.576C256.533 514.544 256.666 514.501 256.784 514.448L256.848 515.952C256.677 516.016 256.474 516.064 256.24 516.096C256.005 516.139 255.781 516.16 255.568 516.16C255.056 516.16 254.64 516.091 254.32 515.952C254 515.803 253.744 515.605 253.552 515.36C253.37 515.104 253.242 514.816 253.168 514.496C253.104 514.165 253.072 513.813 253.072 513.44V509.856H251.728ZM257.821 512.128C257.821 511.52 257.928 510.971 258.141 510.48C258.365 509.979 258.664 509.552 259.037 509.2C259.411 508.848 259.853 508.576 260.365 508.384C260.877 508.192 261.421 508.096 261.997 508.096C262.573 508.096 263.117 508.192 263.629 508.384C264.141 508.576 264.584 508.848 264.957 509.2C265.331 509.552 265.624 509.979 265.837 510.48C266.061 510.971 266.173 511.52 266.173 512.128C266.173 512.736 266.061 513.291 265.837 513.792C265.624 514.293 265.331 514.725 264.957 515.088C264.584 515.44 264.141 515.717 263.629 515.92C263.117 516.123 262.573 516.224 261.997 516.224C261.421 516.224 260.877 516.123 260.365 515.92C259.853 515.717 259.411 515.44 259.037 515.088C258.664 514.725 258.365 514.293 258.141 513.792C257.928 513.291 257.821 512.736 257.821 512.128ZM259.773 512.128C259.773 512.427 259.816 512.725 259.901 513.024C259.997 513.323 260.136 513.589 260.317 513.824C260.499 514.059 260.728 514.251 261.005 514.4C261.283 514.549 261.613 514.624 261.997 514.624C262.381 514.624 262.712 514.549 262.989 514.4C263.267 514.251 263.496 514.059 263.677 513.824C263.859 513.589 263.992 513.323 264.077 513.024C264.173 512.725 264.221 512.427 264.221 512.128C264.221 511.829 264.173 511.536 264.077 511.248C263.992 510.949 263.859 510.683 263.677 510.448C263.496 510.213 263.267 510.027 262.989 509.888C262.712 509.739 262.381 509.664 261.997 509.664C261.613 509.664 261.283 509.739 261.005 509.888C260.728 510.027 260.499 510.213 260.317 510.448C260.136 510.683 259.997 510.949 259.901 511.248C259.816 511.536 259.773 511.829 259.773 512.128ZM268.035 508.32H269.859V509.552H269.891C270.061 509.168 270.355 508.832 270.771 508.544C271.197 508.245 271.699 508.096 272.275 508.096C272.776 508.096 273.203 508.187 273.555 508.368C273.917 508.539 274.211 508.768 274.435 509.056C274.669 509.344 274.84 509.675 274.947 510.048C275.053 510.421 275.107 510.805 275.107 511.2V516H273.187V511.744C273.187 511.52 273.171 511.285 273.139 511.04C273.107 510.795 273.037 510.576 272.931 510.384C272.824 510.181 272.675 510.016 272.483 509.888C272.301 509.76 272.056 509.696 271.747 509.696C271.437 509.696 271.171 509.76 270.947 509.888C270.723 510.005 270.536 510.16 270.387 510.352C270.248 510.544 270.141 510.768 270.067 511.024C269.992 511.269 269.955 511.52 269.955 511.776V516H268.035V508.32Z" fill="#35A8F7"/>
<rect x="95.5" y="561.5" width="312" height="55" rx="27.5" stroke="#98B4C8"/>
<path d="M228.053 582.672H232.469C232.895 582.672 233.317 582.725 233.733 582.832C234.149 582.928 234.517 583.093 234.837 583.328C235.167 583.552 235.434 583.845 235.637 584.208C235.839 584.571 235.941 585.008 235.941 585.52C235.941 586.16 235.759 586.688 235.397 587.104C235.034 587.52 234.559 587.819 233.973 588V588.032C234.687 588.128 235.274 588.405 235.733 588.864C236.191 589.323 236.421 589.936 236.421 590.704C236.421 591.323 236.298 591.845 236.053 592.272C235.807 592.688 235.482 593.024 235.077 593.28C234.682 593.536 234.223 593.723 233.701 593.84C233.189 593.947 232.666 594 232.133 594H228.053V582.672ZM230.069 587.28H231.861C232.533 587.28 233.045 587.147 233.397 586.88C233.749 586.613 233.925 586.235 233.925 585.744C233.925 585.232 233.743 584.869 233.381 584.656C233.018 584.443 232.453 584.336 231.685 584.336H230.069V587.28ZM230.069 592.304H231.877C232.133 592.304 232.41 592.288 232.709 592.256C233.007 592.213 233.279 592.133 233.525 592.016C233.781 591.899 233.989 591.728 234.149 591.504C234.319 591.28 234.405 590.981 234.405 590.608C234.405 590.011 234.202 589.595 233.797 589.36C233.391 589.125 232.778 589.008 231.957 589.008H230.069V592.304ZM245.324 594H243.5V592.768H243.468C243.297 593.152 242.999 593.493 242.572 593.792C242.156 594.08 241.66 594.224 241.084 594.224C240.583 594.224 240.151 594.139 239.788 593.968C239.436 593.787 239.143 593.552 238.908 593.264C238.684 592.976 238.519 592.645 238.412 592.272C238.305 591.899 238.252 591.515 238.252 591.12V586.32H240.172V590.576C240.172 590.8 240.188 591.035 240.22 591.28C240.252 591.525 240.321 591.749 240.428 591.952C240.535 592.144 240.679 592.304 240.86 592.432C241.052 592.56 241.303 592.624 241.612 592.624C241.911 592.624 242.172 592.565 242.396 592.448C242.631 592.32 242.817 592.16 242.956 591.968C243.105 591.776 243.217 591.557 243.292 591.312C243.367 591.056 243.404 590.8 243.404 590.544V586.32H245.324V594ZM246.525 587.856V586.32H247.869V584.096H249.757V586.32H251.677V587.856H249.757V591.424C249.757 591.765 249.815 592.048 249.933 592.272C250.061 592.496 250.338 592.608 250.765 592.608C250.893 592.608 251.031 592.597 251.181 592.576C251.33 592.544 251.463 592.501 251.581 592.448L251.645 593.952C251.474 594.016 251.271 594.064 251.037 594.096C250.802 594.139 250.578 594.16 250.365 594.16C249.853 594.16 249.437 594.091 249.117 593.952C248.797 593.803 248.541 593.605 248.349 593.36C248.167 593.104 248.039 592.816 247.965 592.496C247.901 592.165 247.869 591.813 247.869 591.44V587.856H246.525ZM251.728 587.856V586.32H253.072V584.096H254.96V586.32H256.88V587.856H254.96V591.424C254.96 591.765 255.018 592.048 255.136 592.272C255.264 592.496 255.541 592.608 255.968 592.608C256.096 592.608 256.234 592.597 256.384 592.576C256.533 592.544 256.666 592.501 256.784 592.448L256.848 593.952C256.677 594.016 256.474 594.064 256.24 594.096C256.005 594.139 255.781 594.16 255.568 594.16C255.056 594.16 254.64 594.091 254.32 593.952C254 593.803 253.744 593.605 253.552 593.36C253.37 593.104 253.242 592.816 253.168 592.496C253.104 592.165 253.072 591.813 253.072 591.44V587.856H251.728ZM257.821 590.128C257.821 589.52 257.928 588.971 258.141 588.48C258.365 587.979 258.664 587.552 259.037 587.2C259.411 586.848 259.853 586.576 260.365 586.384C260.877 586.192 261.421 586.096 261.997 586.096C262.573 586.096 263.117 586.192 263.629 586.384C264.141 586.576 264.584 586.848 264.957 587.2C265.331 587.552 265.624 587.979 265.837 588.48C266.061 588.971 266.173 589.52 266.173 590.128C266.173 590.736 266.061 591.291 265.837 591.792C265.624 592.293 265.331 592.725 264.957 593.088C264.584 593.44 264.141 593.717 263.629 593.92C263.117 594.123 262.573 594.224 261.997 594.224C261.421 594.224 260.877 594.123 260.365 593.92C259.853 593.717 259.411 593.44 259.037 593.088C258.664 592.725 258.365 592.293 258.141 591.792C257.928 591.291 257.821 590.736 257.821 590.128ZM259.773 590.128C259.773 590.427 259.816 590.725 259.901 591.024C259.997 591.323 260.136 591.589 260.317 591.824C260.499 592.059 260.728 592.251 261.005 592.4C261.283 592.549 261.613 592.624 261.997 592.624C262.381 592.624 262.712 592.549 262.989 592.4C263.267 592.251 263.496 592.059 263.677 591.824C263.859 591.589 263.992 591.323 264.077 591.024C264.173 590.725 264.221 590.427 264.221 590.128C264.221 589.829 264.173 589.536 264.077 589.248C263.992 588.949 263.859 588.683 263.677 588.448C263.496 588.213 263.267 588.027 262.989 587.888C262.712 587.739 262.381 587.664 261.997 587.664C261.613 587.664 261.283 587.739 261.005 587.888C260.728 588.027 260.499 588.213 260.317 588.448C260.136 588.683 259.997 588.949 259.901 589.248C259.816 589.536 259.773 589.829 259.773 590.128ZM268.035 586.32H269.859V587.552H269.891C270.061 587.168 270.355 586.832 270.771 586.544C271.197 586.245 271.699 586.096 272.275 586.096C272.776 586.096 273.203 586.187 273.555 586.368C273.917 586.539 274.211 586.768 274.435 587.056C274.669 587.344 274.84 587.675 274.947 588.048C275.053 588.421 275.107 588.805 275.107 589.2V594H273.187V589.744C273.187 589.52 273.171 589.285 273.139 589.04C273.107 588.795 273.037 588.576 272.931 588.384C272.824 588.181 272.675 588.016 272.483 587.888C272.301 587.76 272.056 587.696 271.747 587.696C271.437 587.696 271.171 587.76 270.947 587.888C270.723 588.005 270.536 588.16 270.387 588.352C270.248 588.544 270.141 588.768 270.067 589.024C269.992 589.269 269.955 589.52 269.955 589.776V594H268.035V586.32Z" fill="#98B4C8"/>
<rect x="95.5" y="639.5" width="312" height="55" rx="27.5" stroke="#FF3B30"/>
<path d="M228.053 660.672H232.469C232.895 660.672 233.317 660.725 233.733 660.832C234.149 660.928 234.517 661.093 234.837 661.328C235.167 661.552 235.434 661.845 235.637 662.208C235.839 662.571 235.941 663.008 235.941 663.52C235.941 664.16 235.759 664.688 235.397 665.104C235.034 665.52 234.559 665.819 233.973 666V666.032C234.687 666.128 235.274 666.405 235.733 666.864C236.191 667.323 236.421 667.936 236.421 668.704C236.421 669.323 236.298 669.845 236.053 670.272C235.807 670.688 235.482 671.024 235.077 671.28C234.682 671.536 234.223 671.723 233.701 671.84C233.189 671.947 232.666 672 232.133 672H228.053V660.672ZM230.069 665.28H231.861C232.533 665.28 233.045 665.147 233.397 664.88C233.749 664.613 233.925 664.235 233.925 663.744C233.925 663.232 233.743 662.869 233.381 662.656C233.018 662.443 232.453 662.336 231.685 662.336H230.069V665.28ZM230.069 670.304H231.877C232.133 670.304 232.41 670.288 232.709 670.256C233.007 670.213 233.279 670.133 233.525 670.016C233.781 669.899 233.989 669.728 234.149 669.504C234.319 669.28 234.405 668.981 234.405 668.608C234.405 668.011 234.202 667.595 233.797 667.36C233.391 667.125 232.778 667.008 231.957 667.008H230.069V670.304ZM245.324 672H243.5V670.768H243.468C243.297 671.152 242.999 671.493 242.572 671.792C242.156 672.08 241.66 672.224 241.084 672.224C240.583 672.224 240.151 672.139 239.788 671.968C239.436 671.787 239.143 671.552 238.908 671.264C238.684 670.976 238.519 670.645 238.412 670.272C238.305 669.899 238.252 669.515 238.252 669.12V664.32H240.172V668.576C240.172 668.8 240.188 669.035 240.22 669.28C240.252 669.525 240.321 669.749 240.428 669.952C240.535 670.144 240.679 670.304 240.86 670.432C241.052 670.56 241.303 670.624 241.612 670.624C241.911 670.624 242.172 670.565 242.396 670.448C242.631 670.32 242.817 670.16 242.956 669.968C243.105 669.776 243.217 669.557 243.292 669.312C243.367 669.056 243.404 668.8 243.404 668.544V664.32H245.324V672ZM246.525 665.856V664.32H247.869V662.096H249.757V664.32H251.677V665.856H249.757V669.424C249.757 669.765 249.815 670.048 249.933 670.272C250.061 670.496 250.338 670.608 250.765 670.608C250.893 670.608 251.031 670.597 251.181 670.576C251.33 670.544 251.463 670.501 251.581 670.448L251.645 671.952C251.474 672.016 251.271 672.064 251.037 672.096C250.802 672.139 250.578 672.16 250.365 672.16C249.853 672.16 249.437 672.091 249.117 671.952C248.797 671.803 248.541 671.605 248.349 671.36C248.167 671.104 248.039 670.816 247.965 670.496C247.901 670.165 247.869 669.813 247.869 669.44V665.856H246.525ZM251.728 665.856V664.32H253.072V662.096H254.96V664.32H256.88V665.856H254.96V669.424C254.96 669.765 255.018 670.048 255.136 670.272C255.264 670.496 255.541 670.608 255.968 670.608C256.096 670.608 256.234 670.597 256.384 670.576C256.533 670.544 256.666 670.501 256.784 670.448L256.848 671.952C256.677 672.016 256.474 672.064 256.24 672.096C256.005 672.139 255.781 672.16 255.568 672.16C255.056 672.16 254.64 672.091 254.32 671.952C254 671.803 253.744 671.605 253.552 671.36C253.37 671.104 253.242 670.816 253.168 670.496C253.104 670.165 253.072 669.813 253.072 669.44V665.856H251.728ZM257.821 668.128C257.821 667.52 257.928 666.971 258.141 666.48C258.365 665.979 258.664 665.552 259.037 665.2C259.411 664.848 259.853 664.576 260.365 664.384C260.877 664.192 261.421 664.096 261.997 664.096C262.573 664.096 263.117 664.192 263.629 664.384C264.141 664.576 264.584 664.848 264.957 665.2C265.331 665.552 265.624 665.979 265.837 666.48C266.061 666.971 266.173 667.52 266.173 668.128C266.173 668.736 266.061 669.291 265.837 669.792C265.624 670.293 265.331 670.725 264.957 671.088C264.584 671.44 264.141 671.717 263.629 671.92C263.117 672.123 262.573 672.224 261.997 672.224C261.421 672.224 260.877 672.123 260.365 671.92C259.853 671.717 259.411 671.44 259.037 671.088C258.664 670.725 258.365 670.293 258.141 669.792C257.928 669.291 257.821 668.736 257.821 668.128ZM259.773 668.128C259.773 668.427 259.816 668.725 259.901 669.024C259.997 669.323 260.136 669.589 260.317 669.824C260.499 670.059 260.728 670.251 261.005 670.4C261.283 670.549 261.613 670.624 261.997 670.624C262.381 670.624 262.712 670.549 262.989 670.4C263.267 670.251 263.496 670.059 263.677 669.824C263.859 669.589 263.992 669.323 264.077 669.024C264.173 668.725 264.221 668.427 264.221 668.128C264.221 667.829 264.173 667.536 264.077 667.248C263.992 666.949 263.859 666.683 263.677 666.448C263.496 666.213 263.267 666.027 262.989 665.888C262.712 665.739 262.381 665.664 261.997 665.664C261.613 665.664 261.283 665.739 261.005 665.888C260.728 666.027 260.499 666.213 260.317 666.448C260.136 666.683 259.997 666.949 259.901 667.248C259.816 667.536 259.773 667.829 259.773 668.128ZM268.035 664.32H269.859V665.552H269.891C270.061 665.168 270.355 664.832 270.771 664.544C271.197 664.245 271.699 664.096 272.275 664.096C272.776 664.096 273.203 664.187 273.555 664.368C273.917 664.539 274.211 664.768 274.435 665.056C274.669 665.344 274.84 665.675 274.947 666.048C275.053 666.421 275.107 666.805 275.107 667.2V672H273.187V667.744C273.187 667.52 273.171 667.285 273.139 667.04C273.107 666.795 273.037 666.576 272.931 666.384C272.824 666.181 272.675 666.016 272.483 665.888C272.301 665.76 272.056 665.696 271.747 665.696C271.437 665.696 271.171 665.76 270.947 665.888C270.723 666.005 270.536 666.16 270.387 666.352C270.248 666.544 270.141 666.768 270.067 667.024C269.992 667.269 269.955 667.52 269.955 667.776V672H268.035V664.32Z" fill="#FF3B30"/>
<path d="M91 80.408C91 81.6453 90.7547 82.6907 90.264 83.544C89.7733 84.376 89.1227 85.048 88.312 85.56C87.5013 86.072 86.5733 86.4453 85.528 86.68C84.504 86.8933 83.448 87 82.36 87H73.336V64.344H82.36C83.2347 64.344 84.1307 64.44 85.048 64.632C85.9653 64.8027 86.7973 65.112 87.544 65.56C88.2907 65.9867 88.8987 66.5733 89.368 67.32C89.8373 68.0667 90.072 69.016 90.072 70.168C90.072 71.4267 89.7307 72.472 89.048 73.304C88.3653 74.1147 87.4693 74.7013 86.36 75.064V75.128C87 75.2347 87.5973 75.4373 88.152 75.736C88.728 76.0133 89.2187 76.376 89.624 76.824C90.0507 77.272 90.3813 77.7947 90.616 78.392C90.872 78.9893 91 79.6613 91 80.408ZM84.792 70.904C84.792 70.136 84.4933 69.5813 83.896 69.24C83.32 68.8773 82.456 68.696 81.304 68.696H78.616V73.368H81.56C82.584 73.368 83.3733 73.1653 83.928 72.76C84.504 72.3333 84.792 71.7147 84.792 70.904ZM85.528 79.896C85.528 78.9573 85.176 78.3067 84.472 77.944C83.768 77.5813 82.8293 77.4 81.656 77.4H78.616V82.584H81.688C82.1147 82.584 82.552 82.552 83 82.488C83.4693 82.4027 83.8853 82.264 84.248 82.072C84.632 81.88 84.9413 81.6133 85.176 81.272C85.4107 80.9093 85.528 80.4507 85.528 79.896ZM104.825 87V84.792H104.761C104.569 85.1547 104.313 85.496 103.993 85.816C103.695 86.136 103.332 86.4133 102.905 86.648C102.5 86.8827 102.041 87.0747 101.529 87.224C101.039 87.3733 100.516 87.448 99.9613 87.448C98.8946 87.448 97.9879 87.256 97.2413 86.872C96.5159 86.488 95.9186 85.9973 95.4493 85.4C95.0013 84.7813 94.6706 84.088 94.4573 83.32C94.2653 82.5307 94.1693 81.7307 94.1693 80.92V71.064H99.4493V79.704C99.4493 80.152 99.4813 80.5787 99.5453 80.984C99.6093 81.3893 99.7266 81.752 99.8973 82.072C100.089 82.392 100.335 82.648 100.633 82.84C100.932 83.0107 101.327 83.096 101.817 83.096C102.735 83.096 103.428 82.7547 103.897 82.072C104.388 81.3893 104.633 80.5893 104.633 79.672V71.064H109.881V87H104.825ZM119.682 75V81.08C119.682 81.8267 119.82 82.392 120.098 82.776C120.396 83.1387 120.919 83.32 121.666 83.32C121.922 83.32 122.188 83.2987 122.466 83.256C122.764 83.2133 123.01 83.1493 123.202 83.064L123.266 86.904C122.903 87.032 122.444 87.1387 121.89 87.224C121.335 87.3307 120.78 87.384 120.226 87.384C119.159 87.384 118.263 87.256 117.538 87C116.812 86.7227 116.226 86.3387 115.778 85.848C115.351 85.336 115.042 84.7387 114.85 84.056C114.658 83.352 114.562 82.5733 114.562 81.72V75H112.002V71.064H114.53V66.872H119.682V71.064H123.426V75H119.682ZM130.807 75V81.08C130.807 81.8267 130.945 82.392 131.223 82.776C131.521 83.1387 132.044 83.32 132.791 83.32C133.047 83.32 133.313 83.2987 133.591 83.256C133.889 83.2133 134.135 83.1493 134.327 83.064L134.391 86.904C134.028 87.032 133.569 87.1387 133.015 87.224C132.46 87.3307 131.905 87.384 131.351 87.384C130.284 87.384 129.388 87.256 128.663 87C127.937 86.7227 127.351 86.3387 126.903 85.848C126.476 85.336 126.167 84.7387 125.975 84.056C125.783 83.352 125.687 82.5733 125.687 81.72V75H123.127V71.064H125.655V66.872H130.807V71.064H134.551V75H130.807ZM153.913 78.968C153.913 80.2693 153.678 81.4533 153.209 82.52C152.739 83.5653 152.099 84.4613 151.289 85.208C150.478 85.9333 149.539 86.4987 148.473 86.904C147.406 87.3093 146.265 87.512 145.049 87.512C143.854 87.512 142.713 87.3093 141.625 86.904C140.558 86.4987 139.619 85.9333 138.809 85.208C138.019 84.4613 137.39 83.5653 136.921 82.52C136.451 81.4533 136.217 80.2693 136.217 78.968C136.217 77.6667 136.451 76.4933 136.921 75.448C137.39 74.4027 138.019 73.5173 138.809 72.792C139.619 72.0667 140.558 71.512 141.625 71.128C142.713 70.744 143.854 70.552 145.049 70.552C146.265 70.552 147.406 70.744 148.473 71.128C149.539 71.512 150.478 72.0667 151.289 72.792C152.099 73.5173 152.739 74.4027 153.209 75.448C153.678 76.4933 153.913 77.6667 153.913 78.968ZM148.857 78.968C148.857 78.456 148.771 77.9547 148.601 77.464C148.43 76.9733 148.185 76.5467 147.865 76.184C147.545 75.8 147.15 75.4907 146.681 75.256C146.211 75.0213 145.667 74.904 145.049 74.904C144.43 74.904 143.886 75.0213 143.417 75.256C142.947 75.4907 142.553 75.8 142.233 76.184C141.934 76.5467 141.699 76.9733 141.529 77.464C141.379 77.9547 141.305 78.456 141.305 78.968C141.305 79.48 141.379 79.9813 141.529 80.472C141.699 80.9627 141.945 81.4107 142.265 81.816C142.585 82.2 142.979 82.5093 143.449 82.744C143.918 82.9787 144.462 83.096 145.081 83.096C145.699 83.096 146.243 82.9787 146.713 82.744C147.182 82.5093 147.577 82.2 147.897 81.816C148.217 81.4107 148.451 80.9627 148.601 80.472C148.771 79.9813 148.857 79.48 148.857 78.968ZM167.7 87V78.296C167.7 77.848 167.657 77.4213 167.572 77.016C167.508 76.6107 167.39 76.2587 167.22 75.96C167.049 75.64 166.804 75.3947 166.484 75.224C166.185 75.032 165.801 74.936 165.332 74.936C164.862 74.936 164.446 75.032 164.084 75.224C163.742 75.3947 163.454 75.64 163.22 75.96C162.985 76.28 162.804 76.6533 162.676 77.08C162.569 77.4853 162.516 77.912 162.516 78.36V87H157.236V71.064H162.324V73.272H162.388C162.58 72.9307 162.825 72.6 163.124 72.28C163.444 71.9387 163.806 71.6507 164.212 71.416C164.638 71.1813 165.097 70.9893 165.588 70.84C166.078 70.6907 166.601 70.616 167.156 70.616C168.222 70.616 169.129 70.808 169.876 71.192C170.622 71.576 171.22 72.0773 171.668 72.696C172.137 73.2933 172.468 73.9867 172.66 74.776C172.873 75.5653 172.98 76.3547 172.98 77.144V87H167.7ZM186.33 75.768C185.904 75.3627 185.402 75.0213 184.826 74.744C184.25 74.4667 183.642 74.328 183.002 74.328C182.512 74.328 182.053 74.424 181.626 74.616C181.221 74.808 181.018 75.1387 181.018 75.608C181.018 76.056 181.242 76.376 181.69 76.568C182.16 76.76 182.906 76.9733 183.93 77.208C184.528 77.336 185.125 77.5173 185.722 77.752C186.341 77.9867 186.896 78.296 187.386 78.68C187.877 79.064 188.272 79.5333 188.57 80.088C188.869 80.6427 189.018 81.304 189.018 82.072C189.018 83.0747 188.816 83.928 188.41 84.632C188.005 85.3147 187.472 85.8693 186.81 86.296C186.17 86.7227 185.445 87.032 184.634 87.224C183.824 87.416 183.013 87.512 182.202 87.512C180.901 87.512 179.621 87.3093 178.362 86.904C177.125 86.4773 176.09 85.8587 175.258 85.048L178.202 81.944C178.672 82.456 179.248 82.8827 179.93 83.224C180.613 83.5653 181.338 83.736 182.106 83.736C182.533 83.736 182.949 83.64 183.354 83.448C183.781 83.2347 183.994 82.872 183.994 82.36C183.994 81.8693 183.738 81.5067 183.226 81.272C182.714 81.0373 181.914 80.792 180.826 80.536C180.272 80.408 179.717 80.2373 179.162 80.024C178.608 79.8107 178.106 79.5227 177.658 79.16C177.232 78.7973 176.88 78.3493 176.602 77.816C176.325 77.2827 176.186 76.6427 176.186 75.896C176.186 74.936 176.389 74.1253 176.794 73.464C177.2 72.7813 177.722 72.2267 178.362 71.8C179.002 71.3733 179.706 71.064 180.474 70.872C181.264 70.6587 182.042 70.552 182.81 70.552C184.005 70.552 185.168 70.744 186.298 71.128C187.45 71.4907 188.421 72.0453 189.21 72.792L186.33 75.768Z" fill="black"/>
<defs>
<linearGradient id="paint0_linear_17_4213" x1="95" y1="183.083" x2="200.144" y2="450.375" gradientUnits="userSpaceOnUse">
<stop stop-color="#35A8F7"/>
<stop offset="1" stop-color="white"/>
</linearGradient>
</defs>
</svg>
