<svg width="393" height="508" viewBox="0 0 393 508" fill="none" xmlns="http://www.w3.org/2000/svg">
<g filter="url(#filter0_d_2776_331)">
<path d="M0 26C0 14.9543 8.95431 6 20 6H373C384.046 6 393 14.9543 393 26V506H0V26Z" fill="#F5F6F8"/>
<rect x="156.5" y="18" width="80" height="4" rx="2" fill="#969696"/>
<rect x="24.5" y="65.5" width="344" height="57" rx="7.5" fill="white"/>
<rect x="24.5" y="65.5" width="344" height="57" rx="7.5" stroke="#969696"/>
<path d="M38.992 89.496C38.7467 89.1547 38.432 88.8827 38.048 88.68C37.664 88.4667 37.2 88.36 36.656 88.36C36.3787 88.36 36.096 88.4027 35.808 88.488C35.52 88.5733 35.2587 88.7067 35.024 88.888C34.7893 89.0587 34.5973 89.2773 34.448 89.544C34.3093 89.8107 34.24 90.1253 34.24 90.488C34.24 90.8507 34.3093 91.1493 34.448 91.384C34.5867 91.6187 34.768 91.8213 34.992 91.992C35.2267 92.152 35.488 92.2853 35.776 92.392C36.0747 92.4987 36.384 92.6053 36.704 92.712C37.0987 92.84 37.4933 92.9787 37.888 93.128C38.2933 93.2773 38.656 93.4747 38.976 93.72C39.296 93.9547 39.5573 94.2587 39.76 94.632C39.9627 94.9947 40.064 95.4587 40.064 96.024C40.064 96.5893 39.952 97.08 39.728 97.496C39.5147 97.9013 39.232 98.2373 38.88 98.504C38.5387 98.7707 38.144 98.968 37.696 99.096C37.2587 99.224 36.816 99.288 36.368 99.288C36.0267 99.288 35.6853 99.2507 35.344 99.176C35.0027 99.112 34.6773 99.0107 34.368 98.872C34.0587 98.7333 33.7707 98.5573 33.504 98.344C33.2373 98.1307 33.0027 97.8853 32.8 97.608L33.792 96.872C34.0373 97.2773 34.3787 97.6187 34.816 97.896C35.264 98.1627 35.7867 98.296 36.384 98.296C36.672 98.296 36.9653 98.2533 37.264 98.168C37.5627 98.072 37.8293 97.9333 38.064 97.752C38.3093 97.56 38.5067 97.3307 38.656 97.064C38.816 96.7867 38.896 96.4667 38.896 96.104C38.896 95.7093 38.816 95.384 38.656 95.128C38.5067 94.8613 38.304 94.6427 38.048 94.472C37.792 94.2907 37.4987 94.1413 37.168 94.024C36.8373 93.9067 36.4907 93.7893 36.128 93.672C35.7547 93.5547 35.3867 93.4213 35.024 93.272C34.6613 93.1227 34.336 92.9307 34.048 92.696C33.76 92.4507 33.5253 92.152 33.344 91.8C33.1733 91.448 33.088 91.016 33.088 90.504C33.088 89.96 33.1947 89.4907 33.408 89.096C33.632 88.7013 33.92 88.376 34.272 88.12C34.624 87.864 35.0133 87.6773 35.44 87.56C35.8667 87.4427 36.288 87.384 36.704 87.384C37.472 87.384 38.128 87.5227 38.672 87.8C39.216 88.0667 39.6267 88.3867 39.904 88.76L38.992 89.496ZM48.1833 94.68C48.1513 93.976 47.9219 93.3947 47.4953 92.936C47.0793 92.4667 46.4819 92.232 45.7033 92.232C45.3406 92.232 45.0046 92.3013 44.6953 92.44C44.3859 92.568 44.1139 92.7493 43.8793 92.984C43.6446 93.208 43.4579 93.4693 43.3193 93.768C43.1806 94.056 43.1006 94.36 43.0793 94.68H48.1833ZM49.2873 95.032C49.2873 95.1067 49.2873 95.1867 49.2873 95.272C49.2873 95.3573 49.2819 95.448 49.2713 95.544H43.0633C43.0739 95.9173 43.1486 96.2693 43.2873 96.6C43.4259 96.9307 43.6179 97.2187 43.8633 97.464C44.1086 97.7093 44.3966 97.9067 44.7273 98.056C45.0579 98.1947 45.4153 98.264 45.7993 98.264C46.3646 98.264 46.8499 98.136 47.2553 97.88C47.6713 97.6133 47.9859 97.3093 48.1993 96.968L49.0153 97.608C48.5673 98.1733 48.0713 98.5787 47.5273 98.824C46.9939 99.0693 46.4179 99.192 45.7993 99.192C45.2446 99.192 44.7273 99.096 44.2473 98.904C43.7779 98.7013 43.3726 98.424 43.0312 98.072C42.6899 97.72 42.4179 97.304 42.2153 96.824C42.0233 96.344 41.9273 95.8213 41.9273 95.256C41.9273 94.6907 42.0233 94.168 42.2153 93.688C42.4073 93.208 42.6739 92.792 43.0153 92.44C43.3566 92.088 43.7566 91.816 44.2153 91.624C44.6739 91.4213 45.1699 91.32 45.7033 91.32C46.2899 91.32 46.8073 91.4213 47.2553 91.624C47.7033 91.816 48.0766 92.0827 48.3753 92.424C48.6739 92.7547 48.8979 93.144 49.0473 93.592C49.2073 94.04 49.2873 94.52 49.2873 95.032ZM52.7475 99H51.6595V86.904H52.7475V99ZM61.3708 94.68C61.3388 93.976 61.1094 93.3947 60.6828 92.936C60.2668 92.4667 59.6694 92.232 58.8908 92.232C58.5281 92.232 58.1921 92.3013 57.8828 92.44C57.5734 92.568 57.3014 92.7493 57.0668 92.984C56.8321 93.208 56.6454 93.4693 56.5068 93.768C56.3681 94.056 56.2881 94.36 56.2668 94.68H61.3708ZM62.4748 95.032C62.4748 95.1067 62.4748 95.1867 62.4748 95.272C62.4748 95.3573 62.4694 95.448 62.4588 95.544H56.2508C56.2614 95.9173 56.3361 96.2693 56.4748 96.6C56.6134 96.9307 56.8054 97.2187 57.0508 97.464C57.2961 97.7093 57.5841 97.9067 57.9148 98.056C58.2454 98.1947 58.6028 98.264 58.9868 98.264C59.5521 98.264 60.0374 98.136 60.4428 97.88C60.8588 97.6133 61.1734 97.3093 61.3868 96.968L62.2028 97.608C61.7548 98.1733 61.2588 98.5787 60.7148 98.824C60.1814 99.0693 59.6054 99.192 58.9868 99.192C58.4321 99.192 57.9148 99.096 57.4348 98.904C56.9654 98.7013 56.5601 98.424 56.2188 98.072C55.8774 97.72 55.6054 97.304 55.4028 96.824C55.2108 96.344 55.1148 95.8213 55.1148 95.256C55.1148 94.6907 55.2108 94.168 55.4028 93.688C55.5948 93.208 55.8614 92.792 56.2028 92.44C56.5441 92.088 56.9441 91.816 57.4028 91.624C57.8614 91.4213 58.3574 91.32 58.8908 91.32C59.4774 91.32 59.9948 91.4213 60.4428 91.624C60.8908 91.816 61.2641 92.0827 61.5628 92.424C61.8614 92.7547 62.0854 93.144 62.2348 93.592C62.3948 94.04 62.4748 94.52 62.4748 95.032ZM70.207 93.224C70.0257 92.936 69.759 92.7013 69.407 92.52C69.0657 92.328 68.6923 92.232 68.287 92.232C67.8497 92.232 67.455 92.312 67.103 92.472C66.751 92.6213 66.447 92.8347 66.191 93.112C65.9457 93.3787 65.7537 93.6987 65.615 94.072C65.487 94.4347 65.423 94.8293 65.423 95.256C65.423 95.6827 65.487 96.0773 65.615 96.44C65.7537 96.8027 65.9457 97.1227 66.191 97.4C66.4363 97.6667 66.735 97.88 67.087 98.04C67.439 98.1893 67.8337 98.264 68.271 98.264C68.751 98.264 69.1563 98.1733 69.487 97.992C69.8177 97.8107 70.0897 97.576 70.303 97.288L71.119 97.896C70.799 98.2907 70.4043 98.6053 69.935 98.84C69.4763 99.0747 68.9217 99.192 68.271 99.192C67.663 99.192 67.1137 99.096 66.623 98.904C66.1323 98.7013 65.711 98.424 65.359 98.072C65.0177 97.72 64.751 97.304 64.559 96.824C64.367 96.344 64.271 95.8213 64.271 95.256C64.271 94.6907 64.367 94.168 64.559 93.688C64.751 93.208 65.0177 92.792 65.359 92.44C65.711 92.088 66.1323 91.816 66.623 91.624C67.1137 91.4213 67.663 91.32 68.271 91.32C68.7723 91.32 69.279 91.432 69.791 91.656C70.3137 91.8693 70.735 92.1893 71.055 92.616L70.207 93.224ZM76.191 92.424H74.079V96.792C74.079 97.0693 74.1057 97.2987 74.159 97.48C74.2123 97.6613 74.287 97.8053 74.383 97.912C74.4897 98.008 74.6123 98.0773 74.751 98.12C74.8897 98.152 75.039 98.168 75.199 98.168C75.3483 98.168 75.503 98.1467 75.663 98.104C75.8337 98.0613 75.9937 98.0027 76.143 97.928L76.191 98.872C75.999 98.9467 75.7963 99 75.583 99.032C75.3803 99.0747 75.1563 99.096 74.911 99.096C74.7083 99.096 74.495 99.0693 74.271 99.016C74.047 98.9627 73.839 98.8613 73.647 98.712C73.455 98.5627 73.295 98.36 73.167 98.104C73.0497 97.848 72.991 97.512 72.991 97.096V92.424H71.439V91.512H72.991V89.4H74.079V91.512H76.191V92.424ZM86.6131 94.168C86.6131 93.5173 86.4425 93.032 86.1011 92.712C85.7598 92.392 85.2638 92.232 84.6131 92.232C84.1651 92.232 83.7491 92.312 83.3651 92.472C82.9811 92.632 82.6558 92.8453 82.3891 93.112L81.7811 92.392C82.0905 92.0827 82.4958 91.8267 82.9971 91.624C83.5091 91.4213 84.0851 91.32 84.7251 91.32C85.1305 91.32 85.5091 91.3787 85.8611 91.496C86.2131 91.6027 86.5225 91.768 86.7891 91.992C87.0558 92.216 87.2638 92.4987 87.4131 92.84C87.5625 93.1813 87.6371 93.5813 87.6371 94.04V97.32C87.6371 97.608 87.6478 97.9067 87.6691 98.216C87.6905 98.5253 87.7225 98.7867 87.7651 99H86.7891C86.7571 98.8187 86.7305 98.6213 86.7091 98.408C86.6878 98.1947 86.6771 97.9867 86.6771 97.784H86.6451C86.3038 98.2853 85.9145 98.648 85.4771 98.872C85.0505 99.0853 84.5331 99.192 83.9251 99.192C83.6371 99.192 83.3385 99.1493 83.0291 99.064C82.7305 98.9893 82.4531 98.8613 82.1971 98.68C81.9518 98.4987 81.7438 98.264 81.5731 97.976C81.4131 97.688 81.3331 97.336 81.3331 96.92C81.3331 96.344 81.4771 95.8907 81.7651 95.56C82.0638 95.2187 82.4585 94.968 82.9491 94.808C83.4398 94.6373 83.9998 94.5307 84.6291 94.488C85.2691 94.4347 85.9305 94.408 86.6131 94.408V94.168ZM86.2931 95.256C85.8451 95.256 85.3918 95.2773 84.9331 95.32C84.4851 95.352 84.0745 95.4267 83.7011 95.544C83.3385 95.6507 83.0398 95.8107 82.8051 96.024C82.5705 96.2373 82.4531 96.52 82.4531 96.872C82.4531 97.1387 82.5011 97.3627 82.5971 97.544C82.7038 97.7253 82.8425 97.8747 83.0131 97.992C83.1838 98.0987 83.3705 98.1787 83.5731 98.232C83.7865 98.2747 83.9998 98.296 84.2131 98.296C84.5971 98.296 84.9385 98.232 85.2371 98.104C85.5358 97.9653 85.7865 97.784 85.9891 97.56C86.1918 97.3253 86.3465 97.0587 86.4531 96.76C86.5598 96.4613 86.6131 96.1467 86.6131 95.816V95.256H86.2931ZM104.04 97.176C103.848 97.464 103.613 97.736 103.336 97.992C103.069 98.248 102.755 98.472 102.392 98.664C102.04 98.856 101.645 99.0053 101.208 99.112C100.781 99.2293 100.312 99.288 99.8 99.288C98.9467 99.288 98.1573 99.1387 97.432 98.84C96.7067 98.5413 96.0827 98.1307 95.56 97.608C95.0373 97.0747 94.6267 96.4453 94.328 95.72C94.04 94.9947 93.896 94.2 93.896 93.336C93.896 92.472 94.0453 91.6773 94.344 90.952C94.6427 90.2267 95.0533 89.6027 95.576 89.08C96.1093 88.5467 96.7333 88.1307 97.448 87.832C98.1733 87.5333 98.9573 87.384 99.8 87.384C100.216 87.384 100.621 87.4267 101.016 87.512C101.421 87.5973 101.8 87.72 102.152 87.88C102.504 88.0293 102.824 88.216 103.112 88.44C103.4 88.6533 103.64 88.8987 103.832 89.176L102.872 89.88C102.755 89.6987 102.595 89.5173 102.392 89.336C102.2 89.1547 101.971 88.9947 101.704 88.856C101.437 88.7173 101.144 88.6053 100.824 88.52C100.515 88.4347 100.179 88.392 99.816 88.392C99.08 88.392 98.4187 88.5253 97.832 88.792C97.256 89.0587 96.7653 89.4213 96.36 89.88C95.9547 90.328 95.6453 90.8507 95.432 91.448C95.2187 92.0453 95.112 92.6747 95.112 93.336C95.112 93.9973 95.2187 94.6267 95.432 95.224C95.656 95.8213 95.9707 96.3493 96.376 96.808C96.7813 97.256 97.272 97.6133 97.848 97.88C98.4347 98.1467 99.0907 98.28 99.816 98.28C100.467 98.28 101.085 98.1467 101.672 97.88C102.259 97.6133 102.749 97.1867 103.144 96.6L104.04 97.176ZM110.394 94.168C110.394 93.5173 110.224 93.032 109.882 92.712C109.541 92.392 109.045 92.232 108.394 92.232C107.946 92.232 107.53 92.312 107.146 92.472C106.762 92.632 106.437 92.8453 106.17 93.112L105.562 92.392C105.872 92.0827 106.277 91.8267 106.778 91.624C107.29 91.4213 107.866 91.32 108.506 91.32C108.912 91.32 109.29 91.3787 109.642 91.496C109.994 91.6027 110.304 91.768 110.57 91.992C110.837 92.216 111.045 92.4987 111.194 92.84C111.344 93.1813 111.418 93.5813 111.418 94.04V97.32C111.418 97.608 111.429 97.9067 111.45 98.216C111.472 98.5253 111.504 98.7867 111.546 99H110.57C110.538 98.8187 110.512 98.6213 110.49 98.408C110.469 98.1947 110.458 97.9867 110.458 97.784H110.426C110.085 98.2853 109.696 98.648 109.258 98.872C108.832 99.0853 108.314 99.192 107.706 99.192C107.418 99.192 107.12 99.1493 106.81 99.064C106.512 98.9893 106.234 98.8613 105.978 98.68C105.733 98.4987 105.525 98.264 105.354 97.976C105.194 97.688 105.114 97.336 105.114 96.92C105.114 96.344 105.258 95.8907 105.546 95.56C105.845 95.2187 106.24 94.968 106.73 94.808C107.221 94.6373 107.781 94.5307 108.41 94.488C109.05 94.4347 109.712 94.408 110.394 94.408V94.168ZM110.074 95.256C109.626 95.256 109.173 95.2773 108.714 95.32C108.266 95.352 107.856 95.4267 107.482 95.544C107.12 95.6507 106.821 95.8107 106.586 96.024C106.352 96.2373 106.234 96.52 106.234 96.872C106.234 97.1387 106.282 97.3627 106.378 97.544C106.485 97.7253 106.624 97.8747 106.794 97.992C106.965 98.0987 107.152 98.1787 107.354 98.232C107.568 98.2747 107.781 98.296 107.994 98.296C108.378 98.296 108.72 98.232 109.018 98.104C109.317 97.9653 109.568 97.784 109.77 97.56C109.973 97.3253 110.128 97.0587 110.234 96.76C110.341 96.4613 110.394 96.1467 110.394 95.816V95.256H110.074ZM117.441 92.424H115.329V96.792C115.329 97.0693 115.356 97.2987 115.409 97.48C115.462 97.6613 115.537 97.8053 115.633 97.912C115.74 98.008 115.862 98.0773 116.001 98.12C116.14 98.152 116.289 98.168 116.449 98.168C116.598 98.168 116.753 98.1467 116.913 98.104C117.084 98.0613 117.244 98.0027 117.393 97.928L117.441 98.872C117.249 98.9467 117.046 99 116.833 99.032C116.63 99.0747 116.406 99.096 116.161 99.096C115.958 99.096 115.745 99.0693 115.521 99.016C115.297 98.9627 115.089 98.8613 114.897 98.712C114.705 98.5627 114.545 98.36 114.417 98.104C114.3 97.848 114.241 97.512 114.241 97.096V92.424H112.689V91.512H114.241V89.4H115.329V91.512H117.441V92.424ZM124.855 94.68C124.823 93.976 124.594 93.3947 124.167 92.936C123.751 92.4667 123.154 92.232 122.375 92.232C122.012 92.232 121.676 92.3013 121.367 92.44C121.058 92.568 120.786 92.7493 120.551 92.984C120.316 93.208 120.13 93.4693 119.991 93.768C119.852 94.056 119.772 94.36 119.751 94.68H124.855ZM125.959 95.032C125.959 95.1067 125.959 95.1867 125.959 95.272C125.959 95.3573 125.954 95.448 125.943 95.544H119.735C119.746 95.9173 119.82 96.2693 119.959 96.6C120.098 96.9307 120.29 97.2187 120.535 97.464C120.78 97.7093 121.068 97.9067 121.399 98.056C121.73 98.1947 122.087 98.264 122.471 98.264C123.036 98.264 123.522 98.136 123.927 97.88C124.343 97.6133 124.658 97.3093 124.871 96.968L125.687 97.608C125.239 98.1733 124.743 98.5787 124.199 98.824C123.666 99.0693 123.09 99.192 122.471 99.192C121.916 99.192 121.399 99.096 120.919 98.904C120.45 98.7013 120.044 98.424 119.703 98.072C119.362 97.72 119.09 97.304 118.887 96.824C118.695 96.344 118.599 95.8213 118.599 95.256C118.599 94.6907 118.695 94.168 118.887 93.688C119.079 93.208 119.346 92.792 119.687 92.44C120.028 92.088 120.428 91.816 120.887 91.624C121.346 91.4213 121.842 91.32 122.375 91.32C122.962 91.32 123.479 91.4213 123.927 91.624C124.375 91.816 124.748 92.0827 125.047 92.424C125.346 92.7547 125.57 93.144 125.719 93.592C125.879 94.04 125.959 94.52 125.959 95.032ZM128.699 100.504C128.998 100.888 129.403 101.213 129.915 101.48C130.438 101.747 130.987 101.88 131.563 101.88C132.097 101.88 132.55 101.8 132.923 101.64C133.297 101.491 133.595 101.283 133.819 101.016C134.054 100.749 134.225 100.435 134.331 100.072C134.438 99.72 134.491 99.3413 134.491 98.936V97.528H134.459C134.171 97.9973 133.761 98.36 133.227 98.616C132.705 98.872 132.171 99 131.627 99C131.041 99 130.507 98.904 130.027 98.712C129.558 98.52 129.153 98.2587 128.811 97.928C128.481 97.5867 128.219 97.1813 128.027 96.712C127.846 96.2427 127.755 95.736 127.755 95.192C127.755 94.6587 127.846 94.1573 128.027 93.688C128.219 93.2187 128.481 92.808 128.811 92.456C129.153 92.104 129.558 91.8267 130.027 91.624C130.507 91.4213 131.041 91.32 131.627 91.32C132.171 91.32 132.705 91.448 133.227 91.704C133.75 91.96 134.161 92.328 134.459 92.808H134.491V91.512H135.579V98.936C135.579 99.3413 135.521 99.7733 135.403 100.232C135.297 100.691 135.089 101.112 134.779 101.496C134.481 101.88 134.07 102.2 133.547 102.456C133.025 102.712 132.347 102.84 131.515 102.84C130.822 102.84 130.161 102.707 129.531 102.44C128.902 102.173 128.363 101.805 127.915 101.336L128.699 100.504ZM128.907 95.16C128.907 95.5547 128.971 95.928 129.099 96.28C129.227 96.632 129.409 96.9413 129.643 97.208C129.889 97.4747 130.187 97.688 130.539 97.848C130.891 97.9973 131.291 98.072 131.739 98.072C132.155 98.072 132.539 98.0027 132.891 97.864C133.243 97.7253 133.547 97.528 133.803 97.272C134.059 97.016 134.257 96.712 134.395 96.36C134.545 95.9973 134.619 95.5973 134.619 95.16C134.619 94.7653 134.545 94.392 134.395 94.04C134.257 93.688 134.059 93.3787 133.803 93.112C133.547 92.8453 133.243 92.632 132.891 92.472C132.539 92.312 132.155 92.232 131.739 92.232C131.291 92.232 130.891 92.312 130.539 92.472C130.187 92.632 129.889 92.8453 129.643 93.112C129.409 93.3787 129.227 93.688 129.099 94.04C128.971 94.392 128.907 94.7653 128.907 95.16ZM145.849 95.256C145.849 95.8213 145.747 96.344 145.545 96.824C145.353 97.304 145.081 97.72 144.729 98.072C144.377 98.424 143.955 98.7013 143.465 98.904C142.974 99.096 142.435 99.192 141.849 99.192C141.273 99.192 140.739 99.096 140.249 98.904C139.758 98.7013 139.337 98.424 138.985 98.072C138.633 97.72 138.355 97.304 138.153 96.824C137.961 96.344 137.865 95.8213 137.865 95.256C137.865 94.6907 137.961 94.168 138.153 93.688C138.355 93.208 138.633 92.792 138.985 92.44C139.337 92.088 139.758 91.816 140.249 91.624C140.739 91.4213 141.273 91.32 141.849 91.32C142.435 91.32 142.974 91.4213 143.465 91.624C143.955 91.816 144.377 92.088 144.729 92.44C145.081 92.792 145.353 93.208 145.545 93.688C145.747 94.168 145.849 94.6907 145.849 95.256ZM144.697 95.256C144.697 94.84 144.627 94.4507 144.489 94.088C144.361 93.7147 144.174 93.3947 143.929 93.128C143.683 92.8507 143.385 92.632 143.033 92.472C142.681 92.312 142.286 92.232 141.849 92.232C141.411 92.232 141.017 92.312 140.665 92.472C140.323 92.632 140.03 92.8507 139.785 93.128C139.539 93.3947 139.347 93.7147 139.209 94.088C139.081 94.4507 139.017 94.84 139.017 95.256C139.017 95.672 139.081 96.0667 139.209 96.44C139.347 96.8027 139.539 97.1227 139.785 97.4C140.03 97.6667 140.323 97.88 140.665 98.04C141.017 98.1893 141.411 98.264 141.849 98.264C142.286 98.264 142.681 98.1893 143.033 98.04C143.385 97.88 143.683 97.6667 143.929 97.4C144.174 97.1227 144.361 96.8027 144.489 96.44C144.627 96.0667 144.697 95.672 144.697 95.256ZM148.19 93.16C148.19 92.9573 148.185 92.696 148.174 92.376C148.163 92.056 148.147 91.768 148.126 91.512H149.166C149.187 91.7147 149.203 91.9387 149.214 92.184C149.225 92.4293 149.23 92.632 149.23 92.792H149.262C149.475 92.3547 149.795 92.0027 150.222 91.736C150.649 91.4587 151.129 91.32 151.662 91.32C151.801 91.32 151.923 91.3253 152.03 91.336C152.147 91.3467 152.265 91.368 152.382 91.4L152.238 92.424C152.174 92.4027 152.067 92.3813 151.918 92.36C151.769 92.3387 151.619 92.328 151.47 92.328C151.182 92.328 150.905 92.3813 150.638 92.488C150.371 92.5947 150.137 92.7653 149.934 93C149.742 93.224 149.582 93.5173 149.454 93.88C149.337 94.232 149.278 94.6587 149.278 95.16V99H148.19V93.16ZM156.532 97.832H156.564L158.884 91.512H160.068L156.34 100.936C156.116 101.512 155.828 101.971 155.476 102.312C155.134 102.664 154.638 102.84 153.988 102.84C153.657 102.84 153.332 102.808 153.012 102.744L153.124 101.752C153.38 101.837 153.646 101.88 153.924 101.88C154.297 101.88 154.59 101.763 154.804 101.528C155.017 101.304 155.204 100.979 155.364 100.552L155.972 98.984L152.772 91.512H153.988L156.532 97.832Z" fill="#969696"/>
<path d="M29.344 151H27.76V141.064H24.128V139.672H32.976V141.064H29.344V151ZM35.7379 151H34.2339V143.416H35.7379V151ZM35.9939 140.68C35.9939 140.957 35.8925 141.187 35.6899 141.368C35.4979 141.549 35.2632 141.64 34.9859 141.64C34.7085 141.64 34.4739 141.549 34.2819 141.368C34.0899 141.176 33.9939 140.947 33.9939 140.68C33.9939 140.403 34.0899 140.173 34.2819 139.992C34.4739 139.8 34.7085 139.704 34.9859 139.704C35.2632 139.704 35.4979 139.8 35.6899 139.992C35.8925 140.173 35.9939 140.403 35.9939 140.68ZM42.0705 144.648H40.0545V148.6C40.0545 149.059 40.1398 149.389 40.3105 149.592C40.4812 149.784 40.7532 149.88 41.1265 149.88C41.2652 149.88 41.4145 149.864 41.5745 149.832C41.7345 149.8 41.8785 149.752 42.0065 149.688L42.0545 150.92C41.8732 150.984 41.6705 151.032 41.4465 151.064C41.2332 151.107 41.0092 151.128 40.7745 151.128C40.0598 151.128 39.5105 150.931 39.1265 150.536C38.7532 150.141 38.5665 149.549 38.5665 148.76V144.648H37.1105V143.416H38.5665V141.24H40.0545V143.416H42.0705V144.648ZM45.1601 151H43.6561V138.904H45.1601V151ZM53.3324 146.536C53.3217 146.237 53.2684 145.96 53.1724 145.704C53.087 145.437 52.9537 145.208 52.7724 145.016C52.6017 144.824 52.383 144.675 52.1164 144.568C51.8604 144.451 51.5564 144.392 51.2044 144.392C50.8844 144.392 50.5804 144.451 50.2924 144.568C50.015 144.675 49.7697 144.824 49.5564 145.016C49.3537 145.208 49.183 145.437 49.0444 145.704C48.9164 145.96 48.8417 146.237 48.8204 146.536H53.3324ZM54.8524 147.144C54.8524 147.229 54.8524 147.315 54.8524 147.4C54.8524 147.485 54.847 147.571 54.8364 147.656H48.8204C48.831 147.976 48.9004 148.28 49.0284 148.568C49.167 148.845 49.3484 149.091 49.5724 149.304C49.7964 149.507 50.0524 149.667 50.3404 149.784C50.639 149.901 50.9537 149.96 51.2844 149.96C51.7964 149.96 52.239 149.848 52.6124 149.624C52.9857 149.4 53.279 149.128 53.4924 148.808L54.5484 149.656C54.143 150.189 53.663 150.584 53.1084 150.84C52.5644 151.085 51.9564 151.208 51.2844 151.208C50.7084 151.208 50.175 151.112 49.6844 150.92C49.1937 150.728 48.7724 150.461 48.4204 150.12C48.0684 149.768 47.791 149.347 47.5884 148.856C47.3857 148.365 47.2844 147.821 47.2844 147.224C47.2844 146.637 47.3804 146.099 47.5724 145.608C47.775 145.107 48.0524 144.68 48.4044 144.328C48.7564 143.976 49.1724 143.704 49.6524 143.512C50.1324 143.309 50.6497 143.208 51.2044 143.208C51.759 143.208 52.2604 143.299 52.7084 143.48C53.167 143.661 53.551 143.923 53.8604 144.264C54.1804 144.605 54.4257 145.021 54.5964 145.512C54.767 145.992 54.8524 146.536 54.8524 147.144ZM65.8803 141.08L66.3123 142.296L64.2803 142.952L65.5763 144.696L64.5523 145.464L63.2083 143.656L61.8643 145.464L60.8403 144.696L62.1363 142.952L60.1043 142.296L60.5363 141.08L62.5683 141.736V139.672H63.8483V141.736L65.8803 141.08Z" fill="#4D4D4D"/>
<rect x="24.5" y="165.5" width="344" height="57" rx="7.5" fill="white"/>
<rect x="24.5" y="165.5" width="344" height="57" rx="7.5" stroke="#969696"/>
<path d="M36.24 197.416H36.272L39.104 187.672H40.48L43.312 197.416H43.344L46.112 187.672H47.328L43.984 199H42.64L39.792 189.272H39.76L36.912 199H35.568L32.224 187.672H33.44L36.24 197.416ZM50.1389 192.744C50.3415 192.307 50.6775 191.96 51.1469 191.704C51.6162 191.448 52.1175 191.32 52.6509 191.32C53.6002 191.32 54.3095 191.603 54.7789 192.168C55.2589 192.733 55.4989 193.48 55.4989 194.408V199H54.4109V194.856C54.4109 194.461 54.3789 194.104 54.3149 193.784C54.2509 193.464 54.1389 193.192 53.9789 192.968C53.8295 192.733 53.6215 192.552 53.3549 192.424C53.0989 192.296 52.7735 192.232 52.3789 192.232C52.0909 192.232 51.8082 192.291 51.5309 192.408C51.2642 192.525 51.0242 192.707 50.8109 192.952C50.5975 193.187 50.4269 193.491 50.2989 193.864C50.1709 194.227 50.1069 194.659 50.1069 195.16V199H49.0189V186.904H50.1069V192.744H50.1389ZM63.035 194.168C63.035 193.517 62.8643 193.032 62.523 192.712C62.1817 192.392 61.6857 192.232 61.035 192.232C60.587 192.232 60.171 192.312 59.787 192.472C59.403 192.632 59.0777 192.845 58.811 193.112L58.203 192.392C58.5123 192.083 58.9177 191.827 59.419 191.624C59.931 191.421 60.507 191.32 61.147 191.32C61.5523 191.32 61.931 191.379 62.283 191.496C62.635 191.603 62.9443 191.768 63.211 191.992C63.4777 192.216 63.6857 192.499 63.835 192.84C63.9843 193.181 64.059 193.581 64.059 194.04V197.32C64.059 197.608 64.0697 197.907 64.091 198.216C64.1123 198.525 64.1443 198.787 64.187 199H63.211C63.179 198.819 63.1523 198.621 63.131 198.408C63.1097 198.195 63.099 197.987 63.099 197.784H63.067C62.7257 198.285 62.3363 198.648 61.899 198.872C61.4723 199.085 60.955 199.192 60.347 199.192C60.059 199.192 59.7603 199.149 59.451 199.064C59.1523 198.989 58.875 198.861 58.619 198.68C58.3737 198.499 58.1657 198.264 57.995 197.976C57.835 197.688 57.755 197.336 57.755 196.92C57.755 196.344 57.899 195.891 58.187 195.56C58.4857 195.219 58.8803 194.968 59.371 194.808C59.8617 194.637 60.4217 194.531 61.051 194.488C61.691 194.435 62.3523 194.408 63.035 194.408V194.168ZM62.715 195.256C62.267 195.256 61.8137 195.277 61.355 195.32C60.907 195.352 60.4963 195.427 60.123 195.544C59.7603 195.651 59.4617 195.811 59.227 196.024C58.9923 196.237 58.875 196.52 58.875 196.872C58.875 197.139 58.923 197.363 59.019 197.544C59.1257 197.725 59.2643 197.875 59.435 197.992C59.6057 198.099 59.7923 198.179 59.995 198.232C60.2083 198.275 60.4217 198.296 60.635 198.296C61.019 198.296 61.3603 198.232 61.659 198.104C61.9577 197.965 62.2083 197.784 62.411 197.56C62.6137 197.325 62.7683 197.059 62.875 196.76C62.9817 196.461 63.035 196.147 63.035 195.816V195.256H62.715ZM70.0816 192.424H67.9696V196.792C67.9696 197.069 67.9963 197.299 68.0496 197.48C68.103 197.661 68.1776 197.805 68.2736 197.912C68.3803 198.008 68.503 198.077 68.6416 198.12C68.7803 198.152 68.9296 198.168 69.0896 198.168C69.239 198.168 69.3936 198.147 69.5536 198.104C69.7243 198.061 69.8843 198.003 70.0336 197.928L70.0816 198.872C69.8896 198.947 69.687 199 69.4736 199.032C69.271 199.075 69.047 199.096 68.8016 199.096C68.599 199.096 68.3856 199.069 68.1616 199.016C67.9376 198.963 67.7296 198.861 67.5376 198.712C67.3456 198.563 67.1856 198.36 67.0576 198.104C66.9403 197.848 66.8816 197.512 66.8816 197.096V192.424H65.3296V191.512H66.8816V189.4H67.9696V191.512H70.0816V192.424ZM72.3184 191.432H71.4064L72.4784 187.672H73.6144L72.3184 191.432ZM78.9396 193.288C78.7796 192.979 78.5343 192.728 78.2036 192.536C77.8836 192.333 77.5156 192.232 77.0996 192.232C76.9076 192.232 76.7156 192.253 76.5236 192.296C76.3316 192.339 76.161 192.408 76.0116 192.504C75.8623 192.6 75.7396 192.723 75.6436 192.872C75.5583 193.021 75.5156 193.197 75.5156 193.4C75.5156 193.752 75.6596 194.024 75.9476 194.216C76.2356 194.397 76.689 194.552 77.3076 194.68C78.193 194.861 78.8436 195.128 79.2596 195.48C79.6863 195.821 79.8996 196.285 79.8996 196.872C79.8996 197.299 79.8143 197.661 79.6436 197.96C79.4836 198.248 79.2703 198.488 79.0036 198.68C78.737 198.861 78.433 198.989 78.0916 199.064C77.761 199.149 77.425 199.192 77.0836 199.192C76.5183 199.192 75.969 199.075 75.4356 198.84C74.9023 198.605 74.465 198.237 74.1236 197.736L74.9876 197.096C75.1796 197.427 75.4623 197.704 75.8356 197.928C76.209 198.152 76.6196 198.264 77.0676 198.264C77.3023 198.264 77.5263 198.243 77.7396 198.2C77.953 198.157 78.1396 198.083 78.2996 197.976C78.4596 197.869 78.5876 197.736 78.6836 197.576C78.7796 197.405 78.8276 197.197 78.8276 196.952C78.8276 196.557 78.6356 196.264 78.2516 196.072C77.8783 195.869 77.3343 195.683 76.6196 195.512C76.3956 195.459 76.1556 195.395 75.8996 195.32C75.6543 195.235 75.425 195.117 75.2116 194.968C74.9983 194.808 74.8223 194.611 74.6836 194.376C74.545 194.141 74.4756 193.848 74.4756 193.496C74.4756 193.112 74.5503 192.787 74.6996 192.52C74.849 192.243 75.0463 192.019 75.2916 191.848C75.5476 191.667 75.8356 191.533 76.1556 191.448C76.4756 191.363 76.8063 191.32 77.1476 191.32C77.6703 191.32 78.177 191.437 78.6676 191.672C79.1583 191.907 79.5263 192.237 79.7716 192.664L78.9396 193.288ZM89.441 192.424H87.329V196.792C87.329 197.069 87.3557 197.299 87.409 197.48C87.4623 197.661 87.537 197.805 87.633 197.912C87.7397 198.008 87.8623 198.077 88.001 198.12C88.1397 198.152 88.289 198.168 88.449 198.168C88.5983 198.168 88.753 198.147 88.913 198.104C89.0837 198.061 89.2437 198.003 89.393 197.928L89.441 198.872C89.249 198.947 89.0463 199 88.833 199.032C88.6303 199.075 88.4063 199.096 88.161 199.096C87.9583 199.096 87.745 199.069 87.521 199.016C87.297 198.963 87.089 198.861 86.897 198.712C86.705 198.563 86.545 198.36 86.417 198.104C86.2997 197.848 86.241 197.512 86.241 197.096V192.424H84.689V191.512H86.241V189.4H87.329V191.512H89.441V192.424ZM92.2951 192.744C92.4978 192.307 92.8338 191.96 93.3031 191.704C93.7725 191.448 94.2738 191.32 94.8071 191.32C95.7565 191.32 96.4658 191.603 96.9351 192.168C97.4151 192.733 97.6551 193.48 97.6551 194.408V199H96.5671V194.856C96.5671 194.461 96.5351 194.104 96.4711 193.784C96.4071 193.464 96.2951 193.192 96.1351 192.968C95.9858 192.733 95.7778 192.552 95.5111 192.424C95.2551 192.296 94.9298 192.232 94.5351 192.232C94.2471 192.232 93.9645 192.291 93.6871 192.408C93.4205 192.525 93.1805 192.707 92.9671 192.952C92.7538 193.187 92.5831 193.491 92.4551 193.864C92.3271 194.227 92.2631 194.659 92.2631 195.16V199H91.1751V186.904H92.2631V192.744H92.2951ZM101.575 199H100.487V191.512H101.575V199ZM101.799 188.632C101.799 188.856 101.719 189.043 101.559 189.192C101.399 189.331 101.223 189.4 101.031 189.4C100.839 189.4 100.663 189.331 100.503 189.192C100.343 189.043 100.263 188.856 100.263 188.632C100.263 188.408 100.343 188.227 100.503 188.088C100.663 187.939 100.839 187.864 101.031 187.864C101.223 187.864 101.399 187.939 101.559 188.088C101.719 188.227 101.799 188.408 101.799 188.632ZM108.455 193.288C108.295 192.979 108.05 192.728 107.719 192.536C107.399 192.333 107.031 192.232 106.615 192.232C106.423 192.232 106.231 192.253 106.039 192.296C105.847 192.339 105.677 192.408 105.527 192.504C105.378 192.6 105.255 192.723 105.159 192.872C105.074 193.021 105.031 193.197 105.031 193.4C105.031 193.752 105.175 194.024 105.463 194.216C105.751 194.397 106.205 194.552 106.823 194.68C107.709 194.861 108.359 195.128 108.775 195.48C109.202 195.821 109.415 196.285 109.415 196.872C109.415 197.299 109.33 197.661 109.159 197.96C108.999 198.248 108.786 198.488 108.519 198.68C108.253 198.861 107.949 198.989 107.607 199.064C107.277 199.149 106.941 199.192 106.599 199.192C106.034 199.192 105.485 199.075 104.951 198.84C104.418 198.605 103.981 198.237 103.639 197.736L104.503 197.096C104.695 197.427 104.978 197.704 105.351 197.928C105.725 198.152 106.135 198.264 106.583 198.264C106.818 198.264 107.042 198.243 107.255 198.2C107.469 198.157 107.655 198.083 107.815 197.976C107.975 197.869 108.103 197.736 108.199 197.576C108.295 197.405 108.343 197.197 108.343 196.952C108.343 196.557 108.151 196.264 107.767 196.072C107.394 195.869 106.85 195.683 106.135 195.512C105.911 195.459 105.671 195.395 105.415 195.32C105.17 195.235 104.941 195.117 104.727 194.968C104.514 194.808 104.338 194.611 104.199 194.376C104.061 194.141 103.991 193.848 103.991 193.496C103.991 193.112 104.066 192.787 104.215 192.52C104.365 192.243 104.562 192.019 104.807 191.848C105.063 191.667 105.351 191.533 105.671 191.448C105.991 191.363 106.322 191.32 106.663 191.32C107.186 191.32 107.693 191.437 108.183 191.672C108.674 191.907 109.042 192.237 109.287 192.664L108.455 193.288ZM120.301 194.168C120.301 193.517 120.13 193.032 119.789 192.712C119.447 192.392 118.951 192.232 118.301 192.232C117.853 192.232 117.437 192.312 117.053 192.472C116.669 192.632 116.343 192.845 116.077 193.112L115.469 192.392C115.778 192.083 116.183 191.827 116.685 191.624C117.197 191.421 117.773 191.32 118.413 191.32C118.818 191.32 119.197 191.379 119.549 191.496C119.901 191.603 120.21 191.768 120.477 191.992C120.743 192.216 120.951 192.499 121.101 192.84C121.25 193.181 121.325 193.581 121.325 194.04V197.32C121.325 197.608 121.335 197.907 121.357 198.216C121.378 198.525 121.41 198.787 121.453 199H120.477C120.445 198.819 120.418 198.621 120.397 198.408C120.375 198.195 120.365 197.987 120.365 197.784H120.333C119.991 198.285 119.602 198.648 119.165 198.872C118.738 199.085 118.221 199.192 117.613 199.192C117.325 199.192 117.026 199.149 116.717 199.064C116.418 198.989 116.141 198.861 115.885 198.68C115.639 198.499 115.431 198.264 115.261 197.976C115.101 197.688 115.021 197.336 115.021 196.92C115.021 196.344 115.165 195.891 115.453 195.56C115.751 195.219 116.146 194.968 116.637 194.808C117.127 194.637 117.687 194.531 118.317 194.488C118.957 194.435 119.618 194.408 120.301 194.408V194.168ZM119.981 195.256C119.533 195.256 119.079 195.277 118.621 195.32C118.173 195.352 117.762 195.427 117.389 195.544C117.026 195.651 116.727 195.811 116.493 196.024C116.258 196.237 116.141 196.52 116.141 196.872C116.141 197.139 116.189 197.363 116.285 197.544C116.391 197.725 116.53 197.875 116.701 197.992C116.871 198.099 117.058 198.179 117.261 198.232C117.474 198.275 117.687 198.296 117.901 198.296C118.285 198.296 118.626 198.232 118.925 198.104C119.223 197.965 119.474 197.784 119.677 197.56C119.879 197.325 120.034 197.059 120.141 196.76C120.247 196.461 120.301 196.147 120.301 195.816V195.256H119.981ZM125.248 197.736V199H124.16V186.904H125.248V192.808H125.28C125.6 192.317 126.016 191.949 126.528 191.704C127.04 191.448 127.568 191.32 128.112 191.32C128.698 191.32 129.226 191.421 129.696 191.624C130.176 191.827 130.581 192.104 130.911 192.456C131.253 192.808 131.514 193.224 131.696 193.704C131.888 194.184 131.984 194.701 131.984 195.256C131.984 195.811 131.888 196.328 131.696 196.808C131.514 197.288 131.253 197.704 130.911 198.056C130.581 198.408 130.176 198.685 129.696 198.888C129.226 199.091 128.698 199.192 128.112 199.192C127.568 199.192 127.04 199.069 126.528 198.824C126.016 198.579 125.6 198.216 125.28 197.736H125.248ZM130.832 195.256C130.832 194.84 130.768 194.451 130.64 194.088C130.512 193.715 130.325 193.395 130.08 193.128C129.845 192.851 129.552 192.632 129.2 192.472C128.848 192.312 128.448 192.232 128 192.232C127.584 192.232 127.2 192.312 126.848 192.472C126.496 192.621 126.192 192.835 125.936 193.112C125.68 193.379 125.477 193.699 125.328 194.072C125.189 194.435 125.12 194.829 125.12 195.256C125.12 195.683 125.189 196.083 125.328 196.456C125.477 196.819 125.68 197.133 125.936 197.4C126.192 197.667 126.496 197.88 126.848 198.04C127.2 198.189 127.584 198.264 128 198.264C128.448 198.264 128.848 198.189 129.2 198.04C129.552 197.88 129.845 197.667 130.08 197.4C130.325 197.123 130.512 196.803 130.64 196.44C130.768 196.067 130.832 195.672 130.832 195.256ZM141.755 195.256C141.755 195.821 141.654 196.344 141.451 196.824C141.259 197.304 140.987 197.72 140.635 198.072C140.283 198.424 139.862 198.701 139.371 198.904C138.88 199.096 138.342 199.192 137.755 199.192C137.179 199.192 136.646 199.096 136.155 198.904C135.664 198.701 135.243 198.424 134.891 198.072C134.539 197.72 134.262 197.304 134.059 196.824C133.867 196.344 133.771 195.821 133.771 195.256C133.771 194.691 133.867 194.168 134.059 193.688C134.262 193.208 134.539 192.792 134.891 192.44C135.243 192.088 135.664 191.816 136.155 191.624C136.646 191.421 137.179 191.32 137.755 191.32C138.342 191.32 138.88 191.421 139.371 191.624C139.862 191.816 140.283 192.088 140.635 192.44C140.987 192.792 141.259 193.208 141.451 193.688C141.654 194.168 141.755 194.691 141.755 195.256ZM140.603 195.256C140.603 194.84 140.534 194.451 140.395 194.088C140.267 193.715 140.08 193.395 139.835 193.128C139.59 192.851 139.291 192.632 138.939 192.472C138.587 192.312 138.192 192.232 137.755 192.232C137.318 192.232 136.923 192.312 136.571 192.472C136.23 192.632 135.936 192.851 135.691 193.128C135.446 193.395 135.254 193.715 135.115 194.088C134.987 194.451 134.923 194.84 134.923 195.256C134.923 195.672 134.987 196.067 135.115 196.44C135.254 196.803 135.446 197.123 135.691 197.4C135.936 197.667 136.23 197.88 136.571 198.04C136.923 198.189 137.318 198.264 137.755 198.264C138.192 198.264 138.587 198.189 138.939 198.04C139.291 197.88 139.59 197.667 139.835 197.4C140.08 197.123 140.267 196.803 140.395 196.44C140.534 196.067 140.603 195.672 140.603 195.256ZM149.536 199C149.515 198.797 149.499 198.573 149.488 198.328C149.478 198.083 149.472 197.88 149.472 197.72H149.44C149.227 198.157 148.88 198.515 148.4 198.792C147.92 199.059 147.414 199.192 146.88 199.192C145.931 199.192 145.216 198.909 144.736 198.344C144.267 197.779 144.032 197.032 144.032 196.104V191.512H145.12V195.656C145.12 196.051 145.152 196.408 145.216 196.728C145.28 197.048 145.387 197.325 145.536 197.56C145.696 197.784 145.904 197.96 146.16 198.088C146.427 198.216 146.758 198.28 147.152 198.28C147.44 198.28 147.718 198.221 147.984 198.104C148.262 197.987 148.507 197.811 148.72 197.576C148.934 197.331 149.104 197.027 149.232 196.664C149.36 196.291 149.424 195.853 149.424 195.352V191.512H150.512V197.352C150.512 197.555 150.518 197.816 150.528 198.136C150.539 198.456 150.555 198.744 150.576 199H149.536ZM156.769 192.424H154.657V196.792C154.657 197.069 154.684 197.299 154.737 197.48C154.79 197.661 154.865 197.805 154.961 197.912C155.068 198.008 155.19 198.077 155.329 198.12C155.468 198.152 155.617 198.168 155.777 198.168C155.926 198.168 156.081 198.147 156.241 198.104C156.412 198.061 156.572 198.003 156.721 197.928L156.769 198.872C156.577 198.947 156.374 199 156.161 199.032C155.958 199.075 155.734 199.096 155.489 199.096C155.286 199.096 155.073 199.069 154.849 199.016C154.625 198.963 154.417 198.861 154.225 198.712C154.033 198.563 153.873 198.36 153.745 198.104C153.628 197.848 153.569 197.512 153.569 197.096V192.424H152.017V191.512H153.569V189.4H154.657V191.512H156.769V192.424ZM161.415 195.928H160.295V194.968C160.295 194.669 160.327 194.403 160.391 194.168C160.466 193.923 160.562 193.704 160.679 193.512C160.807 193.32 160.946 193.149 161.095 193C161.255 192.84 161.415 192.685 161.575 192.536L162.023 192.136C162.29 191.923 162.509 191.677 162.679 191.4C162.861 191.123 162.951 190.776 162.951 190.36C162.951 190.061 162.898 189.795 162.791 189.56C162.685 189.325 162.541 189.128 162.359 188.968C162.178 188.808 161.965 188.685 161.719 188.6C161.485 188.515 161.229 188.472 160.951 188.472C160.375 188.472 159.906 188.648 159.543 189C159.191 189.352 158.973 189.8 158.887 190.344L157.799 190.152C157.959 189.32 158.322 188.669 158.887 188.2C159.463 187.72 160.167 187.48 160.999 187.48C161.426 187.48 161.826 187.544 162.199 187.672C162.583 187.789 162.914 187.971 163.191 188.216C163.469 188.451 163.687 188.744 163.847 189.096C164.018 189.448 164.103 189.848 164.103 190.296C164.103 190.637 164.066 190.936 163.991 191.192C163.917 191.448 163.81 191.677 163.671 191.88C163.543 192.083 163.389 192.269 163.207 192.44C163.026 192.6 162.834 192.765 162.631 192.936C162.407 193.117 162.215 193.283 162.055 193.432C161.906 193.581 161.783 193.741 161.687 193.912C161.591 194.072 161.522 194.253 161.479 194.456C161.437 194.659 161.415 194.904 161.415 195.192V195.928ZM161.831 198.232C161.831 198.456 161.751 198.659 161.591 198.84C161.431 199.011 161.223 199.096 160.967 199.096C160.711 199.096 160.503 199.011 160.343 198.84C160.183 198.659 160.103 198.456 160.103 198.232C160.103 198.008 160.183 197.811 160.343 197.64C160.503 197.459 160.711 197.368 160.967 197.368C161.223 197.368 161.431 197.459 161.591 197.64C161.751 197.811 161.831 198.008 161.831 198.232Z" fill="#969696"/>
<path d="M31.232 248.376H31.264L34.608 239.672H37.072V251H35.488V241.528H35.456L31.696 251H30.688L26.944 241.528H26.912V251H25.376V239.672H27.84L31.232 248.376ZM45.3011 246.536C45.2905 246.237 45.2371 245.96 45.1411 245.704C45.0558 245.437 44.9225 245.208 44.7411 245.016C44.5705 244.824 44.3518 244.675 44.0851 244.568C43.8291 244.451 43.5251 244.392 43.1731 244.392C42.8531 244.392 42.5491 244.451 42.2611 244.568C41.9838 244.675 41.7385 244.824 41.5251 245.016C41.3225 245.208 41.1518 245.437 41.0131 245.704C40.8851 245.96 40.8105 246.237 40.7891 246.536H45.3011ZM46.8211 247.144C46.8211 247.229 46.8211 247.315 46.8211 247.4C46.8211 247.485 46.8158 247.571 46.8051 247.656H40.7891C40.7998 247.976 40.8691 248.28 40.9971 248.568C41.1358 248.845 41.3171 249.091 41.5411 249.304C41.7651 249.507 42.0211 249.667 42.3091 249.784C42.6078 249.901 42.9225 249.96 43.2531 249.96C43.7651 249.96 44.2078 249.848 44.5811 249.624C44.9545 249.4 45.2478 249.128 45.4611 248.808L46.5171 249.656C46.1118 250.189 45.6318 250.584 45.0771 250.84C44.5331 251.085 43.9251 251.208 43.2531 251.208C42.6771 251.208 42.1438 251.112 41.6531 250.92C41.1625 250.728 40.7411 250.461 40.3891 250.12C40.0371 249.768 39.7598 249.347 39.5571 248.856C39.3545 248.365 39.2531 247.821 39.2531 247.224C39.2531 246.637 39.3491 246.099 39.5411 245.608C39.7438 245.107 40.0211 244.68 40.3731 244.328C40.7251 243.976 41.1411 243.704 41.6211 243.512C42.1011 243.309 42.6185 243.208 43.1731 243.208C43.7278 243.208 44.2291 243.299 44.6771 243.48C45.1358 243.661 45.5198 243.923 45.8291 244.264C46.1491 244.605 46.3945 245.021 46.5651 245.512C46.7358 245.992 46.8211 246.536 46.8211 247.144ZM53.017 245.336C52.8463 245.059 52.6063 244.835 52.297 244.664C51.9877 244.483 51.641 244.392 51.257 244.392C51.0863 244.392 50.9157 244.413 50.745 244.456C50.5743 244.488 50.4197 244.547 50.281 244.632C50.153 244.707 50.0463 244.808 49.961 244.936C49.8863 245.053 49.849 245.203 49.849 245.384C49.849 245.704 49.993 245.944 50.281 246.104C50.569 246.253 51.001 246.392 51.577 246.52C51.9397 246.605 52.2757 246.707 52.585 246.824C52.8943 246.941 53.161 247.091 53.385 247.272C53.6197 247.443 53.801 247.651 53.929 247.896C54.057 248.141 54.121 248.429 54.121 248.76C54.121 249.208 54.0357 249.587 53.865 249.896C53.6943 250.205 53.465 250.461 53.177 250.664C52.8997 250.856 52.5797 250.995 52.217 251.08C51.8543 251.165 51.481 251.208 51.097 251.208C50.521 251.208 49.9557 251.096 49.401 250.872C48.857 250.648 48.4037 250.307 48.041 249.848L49.113 248.936C49.3157 249.235 49.593 249.485 49.945 249.688C50.3077 249.891 50.7023 249.992 51.129 249.992C51.321 249.992 51.5023 249.976 51.673 249.944C51.8543 249.901 52.0143 249.837 52.153 249.752C52.3023 249.667 52.4197 249.555 52.505 249.416C52.5903 249.277 52.633 249.101 52.633 248.888C52.633 248.536 52.4623 248.275 52.121 248.104C51.7903 247.933 51.2997 247.773 50.649 247.624C50.393 247.56 50.1317 247.485 49.865 247.4C49.609 247.304 49.3743 247.176 49.161 247.016C48.9477 246.856 48.7717 246.659 48.633 246.424C48.505 246.179 48.441 245.88 48.441 245.528C48.441 245.123 48.521 244.776 48.681 244.488C48.8517 244.189 49.0703 243.949 49.337 243.768C49.6037 243.576 49.9077 243.437 50.249 243.352C50.5903 243.256 50.9423 243.208 51.305 243.208C51.849 243.208 52.3717 243.315 52.873 243.528C53.385 243.741 53.7797 244.051 54.057 244.456L53.017 245.336ZM60.1264 245.336C59.9557 245.059 59.7157 244.835 59.4064 244.664C59.097 244.483 58.7504 244.392 58.3664 244.392C58.1957 244.392 58.025 244.413 57.8544 244.456C57.6837 244.488 57.529 244.547 57.3904 244.632C57.2624 244.707 57.1557 244.808 57.0704 244.936C56.9957 245.053 56.9584 245.203 56.9584 245.384C56.9584 245.704 57.1024 245.944 57.3904 246.104C57.6784 246.253 58.1104 246.392 58.6864 246.52C59.049 246.605 59.385 246.707 59.6944 246.824C60.0037 246.941 60.2704 247.091 60.4944 247.272C60.729 247.443 60.9104 247.651 61.0384 247.896C61.1664 248.141 61.2304 248.429 61.2304 248.76C61.2304 249.208 61.145 249.587 60.9744 249.896C60.8037 250.205 60.5744 250.461 60.2864 250.664C60.009 250.856 59.689 250.995 59.3264 251.08C58.9637 251.165 58.5904 251.208 58.2064 251.208C57.6304 251.208 57.065 251.096 56.5104 250.872C55.9664 250.648 55.513 250.307 55.1504 249.848L56.2224 248.936C56.425 249.235 56.7024 249.485 57.0544 249.688C57.417 249.891 57.8117 249.992 58.2384 249.992C58.4304 249.992 58.6117 249.976 58.7824 249.944C58.9637 249.901 59.1237 249.837 59.2624 249.752C59.4117 249.667 59.529 249.555 59.6144 249.416C59.6997 249.277 59.7424 249.101 59.7424 248.888C59.7424 248.536 59.5717 248.275 59.2304 248.104C58.8997 247.933 58.409 247.773 57.7584 247.624C57.5024 247.56 57.241 247.485 56.9744 247.4C56.7184 247.304 56.4837 247.176 56.2704 247.016C56.057 246.856 55.881 246.659 55.7424 246.424C55.6144 246.179 55.5504 245.88 55.5504 245.528C55.5504 245.123 55.6304 244.776 55.7904 244.488C55.961 244.189 56.1797 243.949 56.4464 243.768C56.713 243.576 57.017 243.437 57.3584 243.352C57.6997 243.256 58.0517 243.208 58.4144 243.208C58.9584 243.208 59.481 243.315 59.9824 243.528C60.4944 243.741 60.889 244.051 61.1664 244.456L60.1264 245.336ZM67.8598 246.088C67.8598 245.523 67.6891 245.107 67.3478 244.84C67.0064 244.563 66.5531 244.424 65.9878 244.424C65.5611 244.424 65.1558 244.509 64.7718 244.68C64.3984 244.84 64.0838 245.048 63.8278 245.304L63.0278 244.344C63.4011 243.992 63.8544 243.715 64.3878 243.512C64.9318 243.309 65.5131 243.208 66.1318 243.208C66.6758 243.208 67.1451 243.288 67.5398 243.448C67.9451 243.597 68.2758 243.805 68.5318 244.072C68.7878 244.339 68.9798 244.653 69.1078 245.016C69.2358 245.379 69.2998 245.768 69.2998 246.184V249.496C69.2998 249.752 69.3051 250.024 69.3158 250.312C69.3371 250.589 69.3691 250.819 69.4118 251H68.0518C67.9664 250.637 67.9238 250.275 67.9238 249.912H67.8758C67.5984 250.317 67.2464 250.632 66.8198 250.856C66.4038 251.08 65.9078 251.192 65.3318 251.192C65.0331 251.192 64.7184 251.149 64.3878 251.064C64.0678 250.989 63.7744 250.861 63.5078 250.68C63.2411 250.499 63.0171 250.259 62.8358 249.96C62.6651 249.661 62.5798 249.293 62.5798 248.856C62.5798 248.28 62.7344 247.827 63.0438 247.496C63.3531 247.155 63.7584 246.899 64.2598 246.728C64.7611 246.547 65.3264 246.429 65.9557 246.376C66.5851 246.323 67.2198 246.296 67.8598 246.296V246.088ZM67.4918 247.384C67.1184 247.384 66.7291 247.4 66.3238 247.432C65.9291 247.464 65.5664 247.528 65.2358 247.624C64.9158 247.72 64.6491 247.864 64.4358 248.056C64.2224 248.248 64.1158 248.504 64.1158 248.824C64.1158 249.048 64.1584 249.235 64.2438 249.384C64.3398 249.533 64.4624 249.656 64.6118 249.752C64.7611 249.848 64.9264 249.917 65.1078 249.96C65.2891 249.992 65.4758 250.008 65.6678 250.008C66.3718 250.008 66.9104 249.8 67.2838 249.384C67.6678 248.957 67.8598 248.424 67.8598 247.784V247.384H67.4918ZM72.4036 252.296C72.7343 252.669 73.145 252.968 73.6356 253.192C74.137 253.416 74.649 253.528 75.1716 253.528C75.673 253.528 76.0943 253.453 76.4356 253.304C76.777 253.165 77.049 252.968 77.2516 252.712C77.465 252.467 77.6143 252.173 77.6996 251.832C77.7956 251.491 77.8436 251.123 77.8436 250.728V249.752H77.8116C77.5343 250.179 77.1556 250.504 76.6756 250.728C76.1956 250.952 75.6836 251.064 75.1396 251.064C74.5636 251.064 74.0356 250.963 73.5556 250.76C73.0863 250.557 72.6863 250.28 72.3556 249.928C72.025 249.576 71.769 249.165 71.5876 248.696C71.4063 248.216 71.3156 247.704 71.3156 247.16C71.3156 246.616 71.4063 246.104 71.5876 245.624C71.769 245.144 72.025 244.728 72.3556 244.376C72.6863 244.013 73.0863 243.731 73.5556 243.528C74.025 243.315 74.5476 243.208 75.1236 243.208C75.6676 243.208 76.185 243.325 76.6756 243.56C77.177 243.795 77.5716 244.152 77.8596 244.632H77.8916V243.416H79.3476V250.616C79.3476 251.171 79.2783 251.699 79.1396 252.2C79.001 252.712 78.7663 253.16 78.4356 253.544C78.105 253.939 77.673 254.253 77.1396 254.488C76.6063 254.723 75.945 254.84 75.1556 254.84C74.4943 254.84 73.8276 254.717 73.1556 254.472C72.4943 254.237 71.9236 253.901 71.4436 253.464L72.4036 252.296ZM72.8676 247.128C72.8676 247.48 72.921 247.816 73.0276 248.136C73.145 248.456 73.3103 248.739 73.5236 248.984C73.7476 249.229 74.0143 249.427 74.3236 249.576C74.633 249.725 74.985 249.8 75.3796 249.8C75.7636 249.8 76.1156 249.731 76.4356 249.592C76.7556 249.453 77.0276 249.267 77.2516 249.032C77.4756 248.787 77.6463 248.504 77.7636 248.184C77.8916 247.853 77.9556 247.501 77.9556 247.128C77.9556 246.765 77.8916 246.424 77.7636 246.104C77.6463 245.784 77.4703 245.501 77.2356 245.256C77.0116 245.011 76.7396 244.819 76.4196 244.68C76.1103 244.531 75.7636 244.456 75.3796 244.456C74.985 244.456 74.633 244.531 74.3236 244.68C74.0143 244.819 73.7476 245.011 73.5236 245.256C73.3103 245.491 73.145 245.773 73.0276 246.104C72.921 246.424 72.8676 246.765 72.8676 247.128ZM87.473 246.536C87.4623 246.237 87.409 245.96 87.313 245.704C87.2277 245.437 87.0943 245.208 86.913 245.016C86.7423 244.824 86.5237 244.675 86.257 244.568C86.001 244.451 85.697 244.392 85.345 244.392C85.025 244.392 84.721 244.451 84.433 244.568C84.1557 244.675 83.9103 244.824 83.697 245.016C83.4943 245.208 83.3237 245.437 83.185 245.704C83.057 245.96 82.9823 246.237 82.961 246.536H87.473ZM88.993 247.144C88.993 247.229 88.993 247.315 88.993 247.4C88.993 247.485 88.9877 247.571 88.977 247.656H82.961C82.9717 247.976 83.041 248.28 83.169 248.568C83.3077 248.845 83.489 249.091 83.713 249.304C83.937 249.507 84.193 249.667 84.481 249.784C84.7797 249.901 85.0943 249.96 85.425 249.96C85.937 249.96 86.3797 249.848 86.753 249.624C87.1263 249.4 87.4197 249.128 87.633 248.808L88.689 249.656C88.2837 250.189 87.8037 250.584 87.249 250.84C86.705 251.085 86.097 251.208 85.425 251.208C84.849 251.208 84.3157 251.112 83.825 250.92C83.3343 250.728 82.913 250.461 82.561 250.12C82.209 249.768 81.9317 249.347 81.729 248.856C81.5263 248.365 81.425 247.821 81.425 247.224C81.425 246.637 81.521 246.099 81.713 245.608C81.9157 245.107 82.193 244.68 82.545 244.328C82.897 243.976 83.313 243.704 83.793 243.512C84.273 243.309 84.7903 243.208 85.345 243.208C85.8997 243.208 86.401 243.299 86.849 243.48C87.3077 243.661 87.6917 243.923 88.001 244.264C88.321 244.605 88.5663 245.021 88.737 245.512C88.9077 245.992 88.993 246.536 88.993 247.144ZM100.021 241.08L100.453 242.296L98.4209 242.952L99.7169 244.696L98.6929 245.464L97.3489 243.656L96.0049 245.464L94.9809 244.696L96.2769 242.952L94.2449 242.296L94.6769 241.08L96.7089 241.736V239.672H97.9889V241.736L100.021 241.08Z" fill="#4D4D4D"/>
<rect x="24.5" y="265.5" width="344" height="101" rx="7.5" fill="white"/>
<rect x="24.5" y="265.5" width="344" height="101" rx="7.5" stroke="#969696"/>
<path d="M38.992 289.496C38.7467 289.155 38.432 288.883 38.048 288.68C37.664 288.467 37.2 288.36 36.656 288.36C36.3787 288.36 36.096 288.403 35.808 288.488C35.52 288.573 35.2587 288.707 35.024 288.888C34.7893 289.059 34.5973 289.277 34.448 289.544C34.3093 289.811 34.24 290.125 34.24 290.488C34.24 290.851 34.3093 291.149 34.448 291.384C34.5867 291.619 34.768 291.821 34.992 291.992C35.2267 292.152 35.488 292.285 35.776 292.392C36.0747 292.499 36.384 292.605 36.704 292.712C37.0987 292.84 37.4933 292.979 37.888 293.128C38.2933 293.277 38.656 293.475 38.976 293.72C39.296 293.955 39.5573 294.259 39.76 294.632C39.9627 294.995 40.064 295.459 40.064 296.024C40.064 296.589 39.952 297.08 39.728 297.496C39.5147 297.901 39.232 298.237 38.88 298.504C38.5387 298.771 38.144 298.968 37.696 299.096C37.2587 299.224 36.816 299.288 36.368 299.288C36.0267 299.288 35.6853 299.251 35.344 299.176C35.0027 299.112 34.6773 299.011 34.368 298.872C34.0587 298.733 33.7707 298.557 33.504 298.344C33.2373 298.131 33.0027 297.885 32.8 297.608L33.792 296.872C34.0373 297.277 34.3787 297.619 34.816 297.896C35.264 298.163 35.7867 298.296 36.384 298.296C36.672 298.296 36.9653 298.253 37.264 298.168C37.5627 298.072 37.8293 297.933 38.064 297.752C38.3093 297.56 38.5067 297.331 38.656 297.064C38.816 296.787 38.896 296.467 38.896 296.104C38.896 295.709 38.816 295.384 38.656 295.128C38.5067 294.861 38.304 294.643 38.048 294.472C37.792 294.291 37.4987 294.141 37.168 294.024C36.8373 293.907 36.4907 293.789 36.128 293.672C35.7547 293.555 35.3867 293.421 35.024 293.272C34.6613 293.123 34.336 292.931 34.048 292.696C33.76 292.451 33.5253 292.152 33.344 291.8C33.1733 291.448 33.088 291.016 33.088 290.504C33.088 289.96 33.1947 289.491 33.408 289.096C33.632 288.701 33.92 288.376 34.272 288.12C34.624 287.864 35.0133 287.677 35.44 287.56C35.8667 287.443 36.288 287.384 36.704 287.384C37.472 287.384 38.128 287.523 38.672 287.8C39.216 288.067 39.6267 288.387 39.904 288.76L38.992 289.496ZM43.6233 292.744C43.8259 292.307 44.1619 291.96 44.6313 291.704C45.1006 291.448 45.6019 291.32 46.1353 291.32C47.0846 291.32 47.7939 291.603 48.2633 292.168C48.7433 292.733 48.9833 293.48 48.9833 294.408V299H47.8953V294.856C47.8953 294.461 47.8633 294.104 47.7993 293.784C47.7353 293.464 47.6233 293.192 47.4633 292.968C47.3139 292.733 47.1059 292.552 46.8393 292.424C46.5833 292.296 46.2579 292.232 45.8633 292.232C45.5753 292.232 45.2926 292.291 45.0153 292.408C44.7486 292.525 44.5086 292.707 44.2953 292.952C44.0819 293.187 43.9113 293.491 43.7833 293.864C43.6553 294.227 43.5913 294.659 43.5913 295.16V299H42.5033V286.904H43.5913V292.744H43.6233ZM56.5194 294.168C56.5194 293.517 56.3487 293.032 56.0074 292.712C55.666 292.392 55.17 292.232 54.5194 292.232C54.0714 292.232 53.6554 292.312 53.2714 292.472C52.8874 292.632 52.562 292.845 52.2954 293.112L51.6874 292.392C51.9967 292.083 52.402 291.827 52.9034 291.624C53.4154 291.421 53.9914 291.32 54.6314 291.32C55.0367 291.32 55.4154 291.379 55.7674 291.496C56.1194 291.603 56.4287 291.768 56.6954 291.992C56.962 292.216 57.17 292.499 57.3194 292.84C57.4687 293.181 57.5434 293.581 57.5434 294.04V297.32C57.5434 297.608 57.554 297.907 57.5754 298.216C57.5967 298.525 57.6287 298.787 57.6714 299H56.6954C56.6634 298.819 56.6367 298.621 56.6154 298.408C56.594 298.195 56.5834 297.987 56.5834 297.784H56.5514C56.21 298.285 55.8207 298.648 55.3834 298.872C54.9567 299.085 54.4394 299.192 53.8314 299.192C53.5434 299.192 53.2447 299.149 52.9354 299.064C52.6367 298.989 52.3594 298.861 52.1034 298.68C51.858 298.499 51.65 298.264 51.4794 297.976C51.3194 297.688 51.2394 297.336 51.2394 296.92C51.2394 296.344 51.3834 295.891 51.6714 295.56C51.97 295.219 52.3647 294.968 52.8554 294.808C53.346 294.637 53.906 294.531 54.5354 294.488C55.1754 294.435 55.8367 294.408 56.5194 294.408V294.168ZM56.1994 295.256C55.7514 295.256 55.298 295.277 54.8394 295.32C54.3914 295.352 53.9807 295.427 53.6074 295.544C53.2447 295.651 52.946 295.811 52.7114 296.024C52.4767 296.237 52.3594 296.52 52.3594 296.872C52.3594 297.139 52.4074 297.363 52.5034 297.544C52.61 297.725 52.7487 297.875 52.9194 297.992C53.09 298.099 53.2767 298.179 53.4794 298.232C53.6927 298.275 53.906 298.296 54.1194 298.296C54.5034 298.296 54.8447 298.232 55.1434 298.104C55.442 297.965 55.6927 297.784 55.8954 297.56C56.098 297.325 56.2527 297.059 56.3594 296.76C56.466 296.461 56.5194 296.147 56.5194 295.816V295.256H56.1994ZM60.3463 293.16C60.3463 292.957 60.3409 292.696 60.3303 292.376C60.3196 292.056 60.3036 291.768 60.2823 291.512H61.3223C61.3436 291.715 61.3596 291.939 61.3703 292.184C61.3809 292.429 61.3863 292.632 61.3863 292.792H61.4183C61.6316 292.355 61.9516 292.003 62.3783 291.736C62.8049 291.459 63.2849 291.32 63.8183 291.32C63.9569 291.32 64.0796 291.325 64.1863 291.336C64.3036 291.347 64.4209 291.368 64.5383 291.4L64.3943 292.424C64.3303 292.403 64.2236 292.381 64.0743 292.36C63.9249 292.339 63.7756 292.328 63.6263 292.328C63.3383 292.328 63.0609 292.381 62.7943 292.488C62.5276 292.595 62.2929 292.765 62.0903 293C61.8983 293.224 61.7383 293.517 61.6103 293.88C61.4929 294.232 61.4343 294.659 61.4343 295.16V299H60.3463V293.16ZM71.5426 294.68C71.5106 293.976 71.2813 293.395 70.8546 292.936C70.4386 292.467 69.8413 292.232 69.0626 292.232C68.7 292.232 68.364 292.301 68.0546 292.44C67.7453 292.568 67.4733 292.749 67.2386 292.984C67.004 293.208 66.8173 293.469 66.6786 293.768C66.54 294.056 66.46 294.36 66.4386 294.68H71.5426ZM72.6466 295.032C72.6466 295.107 72.6466 295.187 72.6466 295.272C72.6466 295.357 72.6413 295.448 72.6306 295.544H66.4226C66.4333 295.917 66.508 296.269 66.6466 296.6C66.7853 296.931 66.9773 297.219 67.2226 297.464C67.468 297.709 67.756 297.907 68.0866 298.056C68.4173 298.195 68.7746 298.264 69.1586 298.264C69.724 298.264 70.2093 298.136 70.6146 297.88C71.0306 297.613 71.3453 297.309 71.5586 296.968L72.3746 297.608C71.9266 298.173 71.4306 298.579 70.8866 298.824C70.3533 299.069 69.7773 299.192 69.1586 299.192C68.604 299.192 68.0866 299.096 67.6066 298.904C67.1373 298.701 66.732 298.424 66.3906 298.072C66.0493 297.72 65.7773 297.304 65.5746 296.824C65.3826 296.344 65.2866 295.821 65.2866 295.256C65.2866 294.691 65.3826 294.168 65.5746 293.688C65.7666 293.208 66.0333 292.792 66.3746 292.44C66.716 292.088 67.116 291.816 67.5746 291.624C68.0333 291.421 68.5293 291.32 69.0626 291.32C69.6493 291.32 70.1666 291.421 70.6146 291.624C71.0626 291.816 71.436 292.083 71.7346 292.424C72.0333 292.755 72.2573 293.144 72.4066 293.592C72.5666 294.04 72.6466 294.52 72.6466 295.032ZM82.3629 292.424H80.2509V296.792C80.2509 297.069 80.2775 297.299 80.3309 297.48C80.3842 297.661 80.4589 297.805 80.5549 297.912C80.6615 298.008 80.7842 298.077 80.9229 298.12C81.0615 298.152 81.2109 298.168 81.3709 298.168C81.5202 298.168 81.6749 298.147 81.8349 298.104C82.0055 298.061 82.1655 298.003 82.3149 297.928L82.3629 298.872C82.1709 298.947 81.9682 299 81.7549 299.032C81.5522 299.075 81.3282 299.096 81.0829 299.096C80.8802 299.096 80.6669 299.069 80.4429 299.016C80.2189 298.963 80.0109 298.861 79.8189 298.712C79.6269 298.563 79.4669 298.36 79.3389 298.104C79.2215 297.848 79.1629 297.512 79.1629 297.096V292.424H77.6109V291.512H79.1629V289.4H80.2509V291.512H82.3629V292.424ZM85.217 292.744C85.4197 292.307 85.7557 291.96 86.225 291.704C86.6943 291.448 87.1957 291.32 87.729 291.32C88.6783 291.32 89.3877 291.603 89.857 292.168C90.337 292.733 90.577 293.48 90.577 294.408V299H89.489V294.856C89.489 294.461 89.457 294.104 89.393 293.784C89.329 293.464 89.217 293.192 89.057 292.968C88.9077 292.733 88.6997 292.552 88.433 292.424C88.177 292.296 87.8517 292.232 87.457 292.232C87.169 292.232 86.8863 292.291 86.609 292.408C86.3423 292.525 86.1023 292.707 85.889 292.952C85.6757 293.187 85.505 293.491 85.377 293.864C85.249 294.227 85.185 294.659 85.185 295.16V299H84.097V286.904H85.185V292.744H85.217ZM99.1051 294.68C99.0731 293.976 98.8438 293.395 98.4171 292.936C98.0011 292.467 97.4038 292.232 96.6251 292.232C96.2625 292.232 95.9265 292.301 95.6171 292.44C95.3078 292.568 95.0358 292.749 94.8011 292.984C94.5665 293.208 94.3798 293.469 94.2411 293.768C94.1025 294.056 94.0225 294.36 94.0011 294.68H99.1051ZM100.209 295.032C100.209 295.107 100.209 295.187 100.209 295.272C100.209 295.357 100.204 295.448 100.193 295.544H93.9851C93.9958 295.917 94.0705 296.269 94.2091 296.6C94.3478 296.931 94.5398 297.219 94.7851 297.464C95.0305 297.709 95.3185 297.907 95.6491 298.056C95.9798 298.195 96.3371 298.264 96.7211 298.264C97.2865 298.264 97.7718 298.136 98.1771 297.88C98.5931 297.613 98.9078 297.309 99.1211 296.968L99.9371 297.608C99.4891 298.173 98.9931 298.579 98.4491 298.824C97.9158 299.069 97.3398 299.192 96.7211 299.192C96.1665 299.192 95.6491 299.096 95.1691 298.904C94.6998 298.701 94.2945 298.424 93.9531 298.072C93.6118 297.72 93.3398 297.304 93.1371 296.824C92.9451 296.344 92.8491 295.821 92.8491 295.256C92.8491 294.691 92.9451 294.168 93.1371 293.688C93.3291 293.208 93.5958 292.792 93.9371 292.44C94.2785 292.088 94.6785 291.816 95.1371 291.624C95.5958 291.421 96.0918 291.32 96.6251 291.32C97.2118 291.32 97.7291 291.421 98.1771 291.624C98.6251 291.816 98.9985 292.083 99.2971 292.424C99.5958 292.755 99.8198 293.144 99.9691 293.592C100.129 294.04 100.209 294.52 100.209 295.032ZM112.709 297.736C112.389 298.216 111.973 298.579 111.461 298.824C110.949 299.069 110.421 299.192 109.877 299.192C109.291 299.192 108.757 299.091 108.277 298.888C107.808 298.685 107.403 298.408 107.061 298.056C106.731 297.704 106.469 297.288 106.277 296.808C106.096 296.328 106.005 295.811 106.005 295.256C106.005 294.701 106.096 294.184 106.277 293.704C106.469 293.224 106.731 292.808 107.061 292.456C107.403 292.104 107.808 291.827 108.277 291.624C108.757 291.421 109.291 291.32 109.877 291.32C110.421 291.32 110.949 291.448 111.461 291.704C111.973 291.949 112.389 292.317 112.709 292.808H112.741V286.904H113.829V299H112.741V297.736H112.709ZM107.157 295.256C107.157 295.672 107.221 296.067 107.349 296.44C107.477 296.803 107.659 297.123 107.893 297.4C108.139 297.667 108.437 297.88 108.789 298.04C109.141 298.189 109.541 298.264 109.989 298.264C110.405 298.264 110.789 298.189 111.141 298.04C111.493 297.88 111.797 297.667 112.053 297.4C112.309 297.133 112.507 296.819 112.645 296.456C112.795 296.083 112.869 295.683 112.869 295.256C112.869 294.829 112.795 294.435 112.645 294.072C112.507 293.699 112.309 293.379 112.053 293.112C111.797 292.835 111.493 292.621 111.141 292.472C110.789 292.312 110.405 292.232 109.989 292.232C109.541 292.232 109.141 292.312 108.789 292.472C108.437 292.632 108.139 292.851 107.893 293.128C107.659 293.395 107.477 293.715 107.349 294.088C107.221 294.451 107.157 294.84 107.157 295.256ZM122.449 294.68C122.417 293.976 122.188 293.395 121.761 292.936C121.345 292.467 120.748 292.232 119.969 292.232C119.606 292.232 119.27 292.301 118.961 292.44C118.652 292.568 118.38 292.749 118.145 292.984C117.91 293.208 117.724 293.469 117.585 293.768C117.446 294.056 117.366 294.36 117.345 294.68H122.449ZM123.553 295.032C123.553 295.107 123.553 295.187 123.553 295.272C123.553 295.357 123.548 295.448 123.537 295.544H117.329C117.34 295.917 117.414 296.269 117.553 296.6C117.692 296.931 117.884 297.219 118.129 297.464C118.374 297.709 118.662 297.907 118.993 298.056C119.324 298.195 119.681 298.264 120.065 298.264C120.63 298.264 121.116 298.136 121.521 297.88C121.937 297.613 122.252 297.309 122.465 296.968L123.281 297.608C122.833 298.173 122.337 298.579 121.793 298.824C121.26 299.069 120.684 299.192 120.065 299.192C119.51 299.192 118.993 299.096 118.513 298.904C118.044 298.701 117.638 298.424 117.297 298.072C116.956 297.72 116.684 297.304 116.481 296.824C116.289 296.344 116.193 295.821 116.193 295.256C116.193 294.691 116.289 294.168 116.481 293.688C116.673 293.208 116.94 292.792 117.281 292.44C117.622 292.088 118.022 291.816 118.481 291.624C118.94 291.421 119.436 291.32 119.969 291.32C120.556 291.32 121.073 291.421 121.521 291.624C121.969 291.816 122.342 292.083 122.641 292.424C122.94 292.755 123.164 293.144 123.313 293.592C123.473 294.04 123.553 294.52 123.553 295.032ZM129.269 292.424H127.157V296.792C127.157 297.069 127.184 297.299 127.237 297.48C127.29 297.661 127.365 297.805 127.461 297.912C127.568 298.008 127.69 298.077 127.829 298.12C127.968 298.152 128.117 298.168 128.277 298.168C128.426 298.168 128.581 298.147 128.741 298.104C128.912 298.061 129.072 298.003 129.221 297.928L129.269 298.872C129.077 298.947 128.874 299 128.661 299.032C128.458 299.075 128.234 299.096 127.989 299.096C127.786 299.096 127.573 299.069 127.349 299.016C127.125 298.963 126.917 298.861 126.725 298.712C126.533 298.563 126.373 298.36 126.245 298.104C126.128 297.848 126.069 297.512 126.069 297.096V292.424H124.517V291.512H126.069V289.4H127.157V291.512H129.269V292.424ZM135.691 294.168C135.691 293.517 135.521 293.032 135.179 292.712C134.838 292.392 134.342 292.232 133.691 292.232C133.243 292.232 132.827 292.312 132.443 292.472C132.059 292.632 131.734 292.845 131.467 293.112L130.859 292.392C131.169 292.083 131.574 291.827 132.075 291.624C132.587 291.421 133.163 291.32 133.803 291.32C134.209 291.32 134.587 291.379 134.939 291.496C135.291 291.603 135.601 291.768 135.867 291.992C136.134 292.216 136.342 292.499 136.491 292.84C136.641 293.181 136.715 293.581 136.715 294.04V297.32C136.715 297.608 136.726 297.907 136.747 298.216C136.769 298.525 136.801 298.787 136.843 299H135.867C135.835 298.819 135.809 298.621 135.787 298.408C135.766 298.195 135.755 297.987 135.755 297.784H135.723C135.382 298.285 134.993 298.648 134.555 298.872C134.129 299.085 133.611 299.192 133.003 299.192C132.715 299.192 132.417 299.149 132.107 299.064C131.809 298.989 131.531 298.861 131.275 298.68C131.03 298.499 130.822 298.264 130.651 297.976C130.491 297.688 130.411 297.336 130.411 296.92C130.411 296.344 130.555 295.891 130.843 295.56C131.142 295.219 131.537 294.968 132.027 294.808C132.518 294.637 133.078 294.531 133.707 294.488C134.347 294.435 135.009 294.408 135.691 294.408V294.168ZM135.371 295.256C134.923 295.256 134.47 295.277 134.011 295.32C133.563 295.352 133.153 295.427 132.779 295.544C132.417 295.651 132.118 295.811 131.883 296.024C131.649 296.237 131.531 296.52 131.531 296.872C131.531 297.139 131.579 297.363 131.675 297.544C131.782 297.725 131.921 297.875 132.091 297.992C132.262 298.099 132.449 298.179 132.651 298.232C132.865 298.275 133.078 298.296 133.291 298.296C133.675 298.296 134.017 298.232 134.315 298.104C134.614 297.965 134.865 297.784 135.067 297.56C135.27 297.325 135.425 297.059 135.531 296.76C135.638 296.461 135.691 296.147 135.691 295.816V295.256H135.371ZM140.622 299H139.534V291.512H140.622V299ZM140.846 288.632C140.846 288.856 140.766 289.043 140.606 289.192C140.446 289.331 140.27 289.4 140.078 289.4C139.886 289.4 139.71 289.331 139.55 289.192C139.39 289.043 139.31 288.856 139.31 288.632C139.31 288.408 139.39 288.227 139.55 288.088C139.71 287.939 139.886 287.864 140.078 287.864C140.27 287.864 140.446 287.939 140.606 288.088C140.766 288.227 140.846 288.408 140.846 288.632ZM144.638 299H143.55V286.904H144.638V299ZM151.533 293.288C151.373 292.979 151.128 292.728 150.797 292.536C150.477 292.333 150.109 292.232 149.693 292.232C149.501 292.232 149.309 292.253 149.117 292.296C148.925 292.339 148.755 292.408 148.605 292.504C148.456 292.6 148.333 292.723 148.237 292.872C148.152 293.021 148.109 293.197 148.109 293.4C148.109 293.752 148.253 294.024 148.541 294.216C148.829 294.397 149.283 294.552 149.901 294.68C150.787 294.861 151.437 295.128 151.853 295.48C152.28 295.821 152.493 296.285 152.493 296.872C152.493 297.299 152.408 297.661 152.237 297.96C152.077 298.248 151.864 298.488 151.597 298.68C151.331 298.861 151.027 298.989 150.685 299.064C150.355 299.149 150.019 299.192 149.677 299.192C149.112 299.192 148.563 299.075 148.029 298.84C147.496 298.605 147.059 298.237 146.717 297.736L147.581 297.096C147.773 297.427 148.056 297.704 148.429 297.928C148.803 298.152 149.213 298.264 149.661 298.264C149.896 298.264 150.12 298.243 150.333 298.2C150.547 298.157 150.733 298.083 150.893 297.976C151.053 297.869 151.181 297.736 151.277 297.576C151.373 297.405 151.421 297.197 151.421 296.952C151.421 296.557 151.229 296.264 150.845 296.072C150.472 295.869 149.928 295.683 149.213 295.512C148.989 295.459 148.749 295.395 148.493 295.32C148.248 295.235 148.019 295.117 147.805 294.968C147.592 294.808 147.416 294.611 147.277 294.376C147.139 294.141 147.069 293.848 147.069 293.496C147.069 293.112 147.144 292.787 147.293 292.52C147.443 292.243 147.64 292.019 147.885 291.848C148.141 291.667 148.429 291.533 148.749 291.448C149.069 291.363 149.4 291.32 149.741 291.32C150.264 291.32 150.771 291.437 151.261 291.672C151.752 291.907 152.12 292.237 152.365 292.664L151.533 293.288ZM156.163 298.232C156.163 298.456 156.083 298.659 155.923 298.84C155.763 299.011 155.555 299.096 155.299 299.096C155.043 299.096 154.835 299.011 154.675 298.84C154.515 298.659 154.435 298.456 154.435 298.232C154.435 298.008 154.515 297.811 154.675 297.64C154.835 297.459 155.043 297.368 155.299 297.368C155.555 297.368 155.763 297.459 155.923 297.64C156.083 297.811 156.163 298.008 156.163 298.232ZM160.319 298.232C160.319 298.456 160.239 298.659 160.079 298.84C159.919 299.011 159.711 299.096 159.455 299.096C159.199 299.096 158.991 299.011 158.831 298.84C158.671 298.659 158.591 298.456 158.591 298.232C158.591 298.008 158.671 297.811 158.831 297.64C158.991 297.459 159.199 297.368 159.455 297.368C159.711 297.368 159.919 297.459 160.079 297.64C160.239 297.811 160.319 298.008 160.319 298.232ZM164.475 298.232C164.475 298.456 164.395 298.659 164.235 298.84C164.075 299.011 163.867 299.096 163.611 299.096C163.355 299.096 163.147 299.011 162.987 298.84C162.827 298.659 162.747 298.456 162.747 298.232C162.747 298.008 162.827 297.811 162.987 297.64C163.147 297.459 163.355 297.368 163.611 297.368C163.867 297.368 164.075 297.459 164.235 297.64C164.395 297.811 164.475 298.008 164.475 298.232Z" fill="#969696"/>
<rect x="24.5" y="399.5" width="169" height="55" rx="27.5" stroke="#FF3B30"/>
<path d="M93.299 423.328C93.0003 422.923 92.611 422.629 92.131 422.448C91.651 422.256 91.1817 422.16 90.723 422.16C90.1363 422.16 89.603 422.267 89.123 422.48C88.643 422.693 88.227 422.987 87.875 423.36C87.5337 423.733 87.267 424.171 87.075 424.672C86.8937 425.173 86.803 425.717 86.803 426.304C86.803 426.923 86.8937 427.488 87.075 428C87.2563 428.512 87.5123 428.955 87.843 429.328C88.1843 429.691 88.5897 429.973 89.059 430.176C89.5283 430.379 90.0563 430.48 90.643 430.48C91.251 430.48 91.7897 430.363 92.259 430.128C92.7283 429.883 93.107 429.563 93.395 429.168L95.011 430.304C94.5097 430.933 93.8963 431.424 93.171 431.776C92.4457 432.117 91.5977 432.288 90.627 432.288C89.7417 432.288 88.9257 432.144 88.179 431.856C87.443 431.557 86.8083 431.147 86.275 430.624C85.7417 430.091 85.3257 429.461 85.027 428.736C84.7283 428 84.579 427.189 84.579 426.304C84.579 425.397 84.7337 424.581 85.043 423.856C85.363 423.12 85.795 422.496 86.339 421.984C86.8937 421.472 87.5443 421.077 88.291 420.8C89.0377 420.523 89.8483 420.384 90.723 420.384C91.0857 420.384 91.4643 420.421 91.859 420.496C92.2537 420.56 92.6323 420.667 92.995 420.816C93.3577 420.955 93.699 421.131 94.019 421.344C94.339 421.557 94.611 421.813 94.835 422.112L93.299 423.328ZM100.654 431.024H100.606C100.414 431.365 100.105 431.648 99.6784 431.872C99.2517 432.085 98.7664 432.192 98.2224 432.192C97.913 432.192 97.5877 432.149 97.2464 432.064C96.9157 431.989 96.6064 431.861 96.3184 431.68C96.041 431.488 95.8064 431.243 95.6144 430.944C95.433 430.635 95.3424 430.256 95.3424 429.808C95.3424 429.232 95.5024 428.773 95.8224 428.432C96.153 428.091 96.5744 427.829 97.0864 427.648C97.5984 427.467 98.1637 427.349 98.7824 427.296C99.4117 427.232 100.025 427.2 100.622 427.2V427.008C100.622 426.528 100.446 426.176 100.094 425.952C99.753 425.717 99.3424 425.6 98.8624 425.6C98.457 425.6 98.0677 425.685 97.6944 425.856C97.321 426.027 97.0117 426.235 96.7664 426.48L95.7744 425.312C96.2117 424.907 96.713 424.603 97.2784 424.4C97.8544 424.197 98.4357 424.096 99.0224 424.096C99.705 424.096 100.265 424.192 100.702 424.384C101.15 424.576 101.502 424.827 101.758 425.136C102.014 425.445 102.19 425.792 102.286 426.176C102.393 426.56 102.446 426.944 102.446 427.328V432H100.654V431.024ZM100.622 428.496H100.19C99.881 428.496 99.5557 428.512 99.2144 428.544C98.873 428.565 98.5584 428.624 98.2704 428.72C97.9824 428.805 97.7424 428.933 97.5504 429.104C97.3584 429.264 97.2624 429.488 97.2624 429.776C97.2624 429.957 97.2997 430.112 97.3744 430.24C97.4597 430.357 97.5664 430.453 97.6944 430.528C97.8224 430.603 97.9664 430.656 98.1264 430.688C98.2864 430.72 98.4464 430.736 98.6064 430.736C99.2677 430.736 99.769 430.56 100.11 430.208C100.452 429.856 100.622 429.376 100.622 428.768V428.496ZM104.683 424.32H106.507V425.552H106.539C106.71 425.168 107.003 424.832 107.419 424.544C107.846 424.245 108.347 424.096 108.923 424.096C109.425 424.096 109.851 424.187 110.203 424.368C110.566 424.539 110.859 424.768 111.083 425.056C111.318 425.344 111.489 425.675 111.595 426.048C111.702 426.421 111.755 426.805 111.755 427.2V432H109.835V427.744C109.835 427.52 109.819 427.285 109.787 427.04C109.755 426.795 109.686 426.576 109.579 426.384C109.473 426.181 109.323 426.016 109.131 425.888C108.95 425.76 108.705 425.696 108.395 425.696C108.086 425.696 107.819 425.76 107.595 425.888C107.371 426.005 107.185 426.16 107.035 426.352C106.897 426.544 106.79 426.768 106.715 427.024C106.641 427.269 106.603 427.52 106.603 427.776V432H104.683V424.32ZM119.244 426.448C119.094 426.235 118.87 426.059 118.572 425.92C118.273 425.771 117.969 425.696 117.66 425.696C117.308 425.696 116.998 425.771 116.732 425.92C116.465 426.059 116.241 426.245 116.06 426.48C115.889 426.715 115.761 426.981 115.676 427.28C115.59 427.568 115.548 427.861 115.548 428.16C115.548 428.459 115.59 428.757 115.676 429.056C115.772 429.344 115.91 429.605 116.092 429.84C116.273 430.075 116.497 430.267 116.764 430.416C117.041 430.555 117.361 430.624 117.724 430.624C118.022 430.624 118.321 430.565 118.62 430.448C118.918 430.331 119.158 430.16 119.34 429.936L120.54 431.152C120.22 431.493 119.809 431.76 119.308 431.952C118.817 432.133 118.284 432.224 117.708 432.224C117.142 432.224 116.604 432.133 116.092 431.952C115.59 431.771 115.148 431.504 114.764 431.152C114.39 430.8 114.092 430.373 113.868 429.872C113.654 429.371 113.548 428.8 113.548 428.16C113.548 427.541 113.654 426.981 113.868 426.48C114.092 425.979 114.39 425.552 114.764 425.2C115.137 424.848 115.569 424.576 116.06 424.384C116.561 424.192 117.094 424.096 117.66 424.096C118.225 424.096 118.769 424.203 119.292 424.416C119.825 424.629 120.246 424.923 120.556 425.296L119.244 426.448ZM127.216 427.392C127.216 427.147 127.179 426.912 127.104 426.688C127.04 426.464 126.934 426.267 126.784 426.096C126.635 425.925 126.443 425.792 126.208 425.696C125.984 425.589 125.718 425.536 125.408 425.536C124.832 425.536 124.342 425.712 123.936 426.064C123.542 426.405 123.323 426.848 123.28 427.392H127.216ZM129.136 428.256C129.136 428.341 129.136 428.427 129.136 428.512C129.136 428.597 129.131 428.683 129.12 428.768H123.28C123.302 429.045 123.371 429.301 123.488 429.536C123.616 429.76 123.782 429.957 123.984 430.128C124.187 430.288 124.416 430.416 124.672 430.512C124.928 430.608 125.195 430.656 125.472 430.656C125.952 430.656 126.358 430.571 126.688 430.4C127.019 430.219 127.291 429.973 127.504 429.664L128.784 430.688C128.027 431.712 126.928 432.224 125.488 432.224C124.891 432.224 124.342 432.133 123.84 431.952C123.339 431.76 122.902 431.493 122.528 431.152C122.166 430.811 121.878 430.395 121.664 429.904C121.462 429.403 121.36 428.837 121.36 428.208C121.36 427.589 121.462 427.029 121.664 426.528C121.878 426.016 122.166 425.584 122.528 425.232C122.891 424.869 123.318 424.592 123.808 424.4C124.31 424.197 124.848 424.096 125.424 424.096C125.958 424.096 126.448 424.187 126.896 424.368C127.355 424.539 127.75 424.8 128.08 425.152C128.411 425.493 128.667 425.925 128.848 426.448C129.04 426.96 129.136 427.563 129.136 428.256ZM131.028 419.904H132.948V432H131.028V419.904Z" fill="#FF3B30"/>
<rect x="198" y="399" width="170" height="56" rx="28" fill="#969696"/>
<path d="M268.732 420.672H272.428C273.079 420.672 273.666 420.731 274.188 420.848C274.711 420.965 275.159 421.157 275.532 421.424C275.906 421.691 276.194 422.032 276.396 422.448C276.599 422.864 276.7 423.365 276.7 423.952C276.7 424.581 276.583 425.109 276.348 425.536C276.114 425.963 275.794 426.309 275.388 426.576C274.994 426.832 274.53 427.019 273.996 427.136C273.463 427.253 272.898 427.312 272.3 427.312H270.748V432H268.732V420.672ZM272.156 425.616C272.487 425.616 272.802 425.595 273.1 425.552C273.399 425.499 273.666 425.413 273.9 425.296C274.135 425.168 274.322 424.997 274.46 424.784C274.599 424.571 274.668 424.293 274.668 423.952C274.668 423.621 274.599 423.355 274.46 423.152C274.322 422.939 274.135 422.773 273.9 422.656C273.676 422.539 273.415 422.464 273.116 422.432C272.828 422.389 272.53 422.368 272.22 422.368H270.748V425.616H272.156ZM276.907 428.128C276.907 427.52 277.014 426.971 277.227 426.48C277.451 425.979 277.75 425.552 278.123 425.2C278.496 424.848 278.939 424.576 279.451 424.384C279.963 424.192 280.507 424.096 281.083 424.096C281.659 424.096 282.203 424.192 282.715 424.384C283.227 424.576 283.67 424.848 284.043 425.2C284.416 425.552 284.71 425.979 284.923 426.48C285.147 426.971 285.259 427.52 285.259 428.128C285.259 428.736 285.147 429.291 284.923 429.792C284.71 430.293 284.416 430.725 284.043 431.088C283.67 431.44 283.227 431.717 282.715 431.92C282.203 432.123 281.659 432.224 281.083 432.224C280.507 432.224 279.963 432.123 279.451 431.92C278.939 431.717 278.496 431.44 278.123 431.088C277.75 430.725 277.451 430.293 277.227 429.792C277.014 429.291 276.907 428.736 276.907 428.128ZM278.859 428.128C278.859 428.427 278.902 428.725 278.987 429.024C279.083 429.323 279.222 429.589 279.403 429.824C279.584 430.059 279.814 430.251 280.091 430.4C280.368 430.549 280.699 430.624 281.083 430.624C281.467 430.624 281.798 430.549 282.075 430.4C282.352 430.251 282.582 430.059 282.763 429.824C282.944 429.589 283.078 429.323 283.163 429.024C283.259 428.725 283.307 428.427 283.307 428.128C283.307 427.829 283.259 427.536 283.163 427.248C283.078 426.949 282.944 426.683 282.763 426.448C282.582 426.213 282.352 426.027 282.075 425.888C281.798 425.739 281.467 425.664 281.083 425.664C280.699 425.664 280.368 425.739 280.091 425.888C279.814 426.027 279.584 426.213 279.403 426.448C279.222 426.683 279.083 426.949 278.987 427.248C278.902 427.536 278.859 427.829 278.859 428.128ZM291.329 426.368C291.158 426.144 290.923 425.952 290.625 425.792C290.326 425.621 290.001 425.536 289.649 425.536C289.339 425.536 289.057 425.6 288.801 425.728C288.545 425.856 288.417 426.069 288.417 426.368C288.417 426.667 288.555 426.88 288.833 427.008C289.121 427.125 289.537 427.248 290.081 427.376C290.369 427.44 290.657 427.525 290.945 427.632C291.243 427.739 291.51 427.883 291.745 428.064C291.99 428.235 292.187 428.453 292.337 428.72C292.486 428.976 292.561 429.291 292.561 429.664C292.561 430.133 292.47 430.533 292.289 430.864C292.118 431.184 291.883 431.445 291.585 431.648C291.297 431.851 290.955 431.995 290.561 432.08C290.177 432.176 289.777 432.224 289.361 432.224C288.763 432.224 288.182 432.117 287.617 431.904C287.051 431.68 286.582 431.365 286.209 430.96L287.473 429.776C287.686 430.053 287.963 430.283 288.305 430.464C288.646 430.645 289.025 430.736 289.441 430.736C289.579 430.736 289.718 430.72 289.857 430.688C290.006 430.656 290.139 430.608 290.257 430.544C290.385 430.469 290.486 430.373 290.561 430.256C290.635 430.139 290.673 429.995 290.673 429.824C290.673 429.504 290.523 429.275 290.225 429.136C289.937 428.997 289.499 428.859 288.913 428.72C288.625 428.656 288.342 428.576 288.065 428.48C287.798 428.373 287.558 428.24 287.345 428.08C287.131 427.909 286.961 427.701 286.833 427.456C286.705 427.211 286.641 426.907 286.641 426.544C286.641 426.117 286.726 425.749 286.897 425.44C287.078 425.131 287.313 424.88 287.601 424.688C287.889 424.485 288.214 424.336 288.577 424.24C288.939 424.144 289.313 424.096 289.697 424.096C290.251 424.096 290.79 424.192 291.313 424.384C291.846 424.576 292.267 424.869 292.577 425.264L291.329 426.368ZM293.126 425.856V424.32H294.47V422.096H296.358V424.32H298.278V425.856H296.358V429.424C296.358 429.765 296.417 430.048 296.534 430.272C296.662 430.496 296.939 430.608 297.366 430.608C297.494 430.608 297.633 430.597 297.782 430.576C297.931 430.544 298.065 430.501 298.182 430.448L298.246 431.952C298.075 432.016 297.873 432.064 297.638 432.096C297.403 432.139 297.179 432.16 296.966 432.16C296.454 432.16 296.038 432.091 295.718 431.952C295.398 431.803 295.142 431.605 294.95 431.36C294.769 431.104 294.641 430.816 294.566 430.496C294.502 430.165 294.47 429.813 294.47 429.44V425.856H293.126Z" fill="white"/>
<mask id="mask0_2776_331" style="mask-type:alpha" maskUnits="userSpaceOnUse" x="333" y="82" width="24" height="24">
<rect x="357" y="82" width="24" height="24" transform="rotate(90 357 82)" fill="#4D4D4D"/>
</mask>
<g mask="url(#mask0_2776_331)">
<path d="M335.346 90.0154L336.765 88.5962L345 96.8307L353.234 88.5962L354.653 90.0154L345 99.6692L335.346 90.0154Z" fill="#4D4D4D"/>
</g>
</g>
<defs>
<filter id="filter0_d_2776_331" x="-4" y="0" width="401" height="508" filterUnits="userSpaceOnUse" color-interpolation-filters="sRGB">
<feFlood flood-opacity="0" result="BackgroundImageFix"/>
<feColorMatrix in="SourceAlpha" type="matrix" values="0 0 0 0 0 0 0 0 0 0 0 0 0 0 0 0 0 0 127 0" result="hardAlpha"/>
<feOffset dy="-2"/>
<feGaussianBlur stdDeviation="2"/>
<feComposite in2="hardAlpha" operator="out"/>
<feColorMatrix type="matrix" values="0 0 0 0 0 0 0 0 0 0 0 0 0 0 0 0 0 0 0.25 0"/>
<feBlend mode="normal" in2="BackgroundImageFix" result="effect1_dropShadow_2776_331"/>
<feBlend mode="normal" in="SourceGraphic" in2="effect1_dropShadow_2776_331" result="shape"/>
</filter>
</defs>
</svg>
