<svg width="201" height="554" viewBox="0 0 201 554" fill="none" xmlns="http://www.w3.org/2000/svg">
<rect x="0.5" y="0.5" width="200" height="553" rx="4.5" stroke="#9747FF" stroke-dasharray="10 5"/>
<mask id="mask0_1799_454" style="mask-type:alpha" maskUnits="userSpaceOnUse" x="20" y="56" width="24" height="24">
<rect x="20" y="56" width="24" height="24" fill="#4D4D4D"/>
</mask>
<g mask="url(#mask0_1799_454)">
<path d="M35.773 68.9731L34.65 67.8501C34.8 67.0219 34.5638 66.2773 33.9413 65.6163C33.3189 64.9555 32.5552 64.7001 31.65 64.8501L30.527 63.7271C30.7527 63.6257 30.9841 63.5497 31.2213 63.4991C31.4584 63.4484 31.718 63.4231 32 63.4231C33.1347 63.4231 34.0978 63.8189 34.8895 64.6106C35.6812 65.4022 36.077 66.3654 36.077 67.5001C36.077 67.7821 36.0517 68.0449 36.001 68.2886C35.9503 68.5321 35.8743 68.7602 35.773 68.9731ZM38.9538 72.0846L37.85 71.0501C38.4833 70.5667 39.0458 70.0376 39.5375 69.4626C40.0292 68.8876 40.45 68.2334 40.8 67.5001C39.9667 65.8167 38.7708 64.4792 37.2125 63.4876C35.6542 62.4959 33.9167 62.0001 32 62.0001C31.5167 62.0001 31.0417 62.0334 30.575 62.1001C30.1083 62.1667 29.65 62.2667 29.2 62.4001L28.0348 61.2348C28.6668 60.9835 29.3123 60.7982 29.9713 60.6791C30.6303 60.5597 31.3065 60.5001 32 60.5001C34.3435 60.5001 36.4569 61.1462 38.3403 62.4386C40.2236 63.7309 41.5973 65.4181 42.4615 67.5001C42.091 68.3936 41.6125 69.2276 41.026 70.0021C40.4393 70.7764 39.7486 71.4706 38.9538 72.0846ZM39.7615 77.8693L35.7155 73.8538C35.2027 74.0436 34.6343 74.1988 34.0105 74.3193C33.3868 74.4398 32.7167 74.5001 32 74.5001C29.65 74.5001 27.5366 73.8539 25.6598 72.5616C23.7828 71.2692 22.409 69.5821 21.5385 67.5001C21.9077 66.6167 22.3846 65.7927 22.9692 65.0281C23.5539 64.2632 24.1975 63.6001 24.9 63.0386L22.1307 60.2386L23.1847 59.1848L40.8153 76.8153L39.7615 77.8693ZM25.954 64.0923C25.4257 64.5128 24.9118 65.0183 24.4125 65.6088C23.9132 66.1991 23.509 66.8296 23.2 67.5001C24.0333 69.1834 25.2292 70.5209 26.7875 71.5126C28.3458 72.5042 30.0833 73.0001 32 73.0001C32.4552 73.0001 32.9084 72.9616 33.3598 72.8846C33.8109 72.8077 34.1936 72.7283 34.5078 72.6463L33.2423 71.3501C33.0718 71.4192 32.8743 71.4743 32.65 71.5153C32.4257 71.5565 32.209 71.5771 32 71.5771C30.8653 71.5771 29.9022 71.1812 29.1105 70.3896C28.3188 69.5979 27.923 68.6347 27.923 67.5001C27.923 67.2976 27.9436 67.0857 27.9848 66.8646C28.0258 66.6434 28.0808 66.4411 28.15 66.2578L25.954 64.0923Z" fill="#4D4D4D"/>
</g>
<mask id="mask1_1799_454" style="mask-type:alpha" maskUnits="userSpaceOnUse" x="65" y="56" width="24" height="24">
<rect x="65" y="56" width="24" height="24" fill="#35A8F7"/>
</mask>
<g mask="url(#mask1_1799_454)">
<path d="M80.773 68.9731L79.65 67.8501C79.8 67.0219 79.5638 66.2773 78.9412 65.6163C78.3189 64.9555 77.5552 64.7001 76.65 64.8501L75.527 63.7271C75.7527 63.6257 75.9841 63.5497 76.2212 63.4991C76.4584 63.4484 76.718 63.4231 77 63.4231C78.1347 63.4231 79.0978 63.8189 79.8895 64.6106C80.6812 65.4022 81.077 66.3654 81.077 67.5001C81.077 67.7821 81.0517 68.0449 81.001 68.2886C80.9503 68.5321 80.8743 68.7602 80.773 68.9731ZM83.9538 72.0846L82.85 71.0501C83.4833 70.5667 84.0458 70.0376 84.5375 69.4626C85.0292 68.8876 85.45 68.2334 85.8 67.5001C84.9667 65.8167 83.7708 64.4792 82.2125 63.4876C80.6542 62.4959 78.9167 62.0001 77 62.0001C76.5167 62.0001 76.0417 62.0334 75.575 62.1001C75.1083 62.1667 74.65 62.2667 74.2 62.4001L73.0347 61.2348C73.6667 60.9835 74.3122 60.7982 74.9712 60.6791C75.6302 60.5597 76.3065 60.5001 77 60.5001C79.3435 60.5001 81.4569 61.1462 83.3403 62.4386C85.2236 63.7309 86.5973 65.4181 87.4615 67.5001C87.091 68.3936 86.6125 69.2276 86.026 70.0021C85.4393 70.7764 84.7486 71.4706 83.9538 72.0846ZM84.7615 77.8693L80.7155 73.8538C80.2027 74.0436 79.6343 74.1988 79.0105 74.3193C78.3868 74.4398 77.7167 74.5001 77 74.5001C74.65 74.5001 72.5366 73.8539 70.6597 72.5616C68.7827 71.2692 67.409 69.5821 66.5385 67.5001C66.9077 66.6167 67.3846 65.7927 67.9692 65.0281C68.5539 64.2632 69.1975 63.6001 69.9 63.0386L67.1307 60.2386L68.1847 59.1848L85.8153 76.8153L84.7615 77.8693ZM70.954 64.0923C70.4257 64.5128 69.9118 65.0183 69.4125 65.6088C68.9132 66.1991 68.509 66.8296 68.2 67.5001C69.0333 69.1834 70.2292 70.5209 71.7875 71.5126C73.3458 72.5042 75.0833 73.0001 77 73.0001C77.4552 73.0001 77.9084 72.9616 78.3597 72.8846C78.8109 72.8077 79.1936 72.7283 79.5077 72.6463L78.2422 71.3501C78.0717 71.4192 77.8743 71.4743 77.65 71.5153C77.4257 71.5565 77.209 71.5771 77 71.5771C75.8653 71.5771 74.9022 71.1812 74.1105 70.3896C73.3188 69.5979 72.923 68.6347 72.923 67.5001C72.923 67.2976 72.9436 67.0857 72.9847 66.8646C73.0257 66.6434 73.0808 66.4411 73.15 66.2578L70.954 64.0923Z" fill="#35A8F7"/>
</g>
<mask id="mask2_1799_454" style="mask-type:alpha" maskUnits="userSpaceOnUse" x="112" y="56" width="24" height="24">
<rect x="112" y="56" width="24" height="24" fill="#969696"/>
</mask>
<g mask="url(#mask2_1799_454)">
<path d="M127.773 68.9731L126.65 67.8501C126.8 67.0219 126.564 66.2773 125.941 65.6163C125.319 64.9555 124.555 64.7001 123.65 64.8501L122.527 63.7271C122.753 63.6257 122.984 63.5497 123.221 63.4991C123.458 63.4484 123.718 63.4231 124 63.4231C125.135 63.4231 126.098 63.8189 126.889 64.6106C127.681 65.4022 128.077 66.3654 128.077 67.5001C128.077 67.7821 128.052 68.0449 128.001 68.2886C127.95 68.5321 127.874 68.7602 127.773 68.9731ZM130.954 72.0846L129.85 71.0501C130.483 70.5667 131.046 70.0376 131.538 69.4626C132.029 68.8876 132.45 68.2334 132.8 67.5001C131.967 65.8167 130.771 64.4792 129.212 63.4876C127.654 62.4959 125.917 62.0001 124 62.0001C123.517 62.0001 123.042 62.0334 122.575 62.1001C122.108 62.1667 121.65 62.2667 121.2 62.4001L120.035 61.2348C120.667 60.9835 121.312 60.7982 121.971 60.6791C122.63 60.5597 123.306 60.5001 124 60.5001C126.343 60.5001 128.457 61.1462 130.34 62.4386C132.224 63.7309 133.597 65.4181 134.462 67.5001C134.091 68.3936 133.612 69.2276 133.026 70.0021C132.439 70.7764 131.749 71.4706 130.954 72.0846ZM131.762 77.8693L127.715 73.8538C127.203 74.0436 126.634 74.1988 126.01 74.3193C125.387 74.4398 124.717 74.5001 124 74.5001C121.65 74.5001 119.537 73.8539 117.66 72.5616C115.783 71.2692 114.409 69.5821 113.538 67.5001C113.908 66.6167 114.385 65.7927 114.969 65.0281C115.554 64.2632 116.197 63.6001 116.9 63.0386L114.131 60.2386L115.185 59.1848L132.815 76.8153L131.762 77.8693ZM117.954 64.0923C117.426 64.5128 116.912 65.0183 116.412 65.6088C115.913 66.1991 115.509 66.8296 115.2 67.5001C116.033 69.1834 117.229 70.5209 118.787 71.5126C120.346 72.5042 122.083 73.0001 124 73.0001C124.455 73.0001 124.908 72.9616 125.36 72.8846C125.811 72.8077 126.194 72.7283 126.508 72.6463L125.242 71.3501C125.072 71.4192 124.874 71.4743 124.65 71.5153C124.426 71.5565 124.209 71.5771 124 71.5771C122.865 71.5771 121.902 71.1812 121.11 70.3896C120.319 69.5979 119.923 68.6347 119.923 67.5001C119.923 67.2976 119.944 67.0857 119.985 66.8646C120.026 66.6434 120.081 66.4411 120.15 66.2578L117.954 64.0923Z" fill="#969696"/>
</g>
<mask id="mask3_1799_454" style="mask-type:alpha" maskUnits="userSpaceOnUse" x="159" y="56" width="24" height="24">
<rect x="159" y="56" width="24" height="24" fill="#FF3B30"/>
</mask>
<g mask="url(#mask3_1799_454)">
<path d="M174.773 68.9731L173.65 67.8501C173.8 67.0219 173.564 66.2773 172.941 65.6163C172.319 64.9555 171.555 64.7001 170.65 64.8501L169.527 63.7271C169.753 63.6257 169.984 63.5497 170.221 63.4991C170.458 63.4484 170.718 63.4231 171 63.4231C172.135 63.4231 173.098 63.8189 173.889 64.6106C174.681 65.4022 175.077 66.3654 175.077 67.5001C175.077 67.7821 175.052 68.0449 175.001 68.2886C174.95 68.5321 174.874 68.7602 174.773 68.9731ZM177.954 72.0846L176.85 71.0501C177.483 70.5667 178.046 70.0376 178.538 69.4626C179.029 68.8876 179.45 68.2334 179.8 67.5001C178.967 65.8167 177.771 64.4792 176.212 63.4876C174.654 62.4959 172.917 62.0001 171 62.0001C170.517 62.0001 170.042 62.0334 169.575 62.1001C169.108 62.1667 168.65 62.2667 168.2 62.4001L167.035 61.2348C167.667 60.9835 168.312 60.7982 168.971 60.6791C169.63 60.5597 170.306 60.5001 171 60.5001C173.343 60.5001 175.457 61.1462 177.34 62.4386C179.224 63.7309 180.597 65.4181 181.462 67.5001C181.091 68.3936 180.612 69.2276 180.026 70.0021C179.439 70.7764 178.749 71.4706 177.954 72.0846ZM178.762 77.8693L174.715 73.8538C174.203 74.0436 173.634 74.1988 173.01 74.3193C172.387 74.4398 171.717 74.5001 171 74.5001C168.65 74.5001 166.537 73.8539 164.66 72.5616C162.783 71.2692 161.409 69.5821 160.538 67.5001C160.908 66.6167 161.385 65.7927 161.969 65.0281C162.554 64.2632 163.197 63.6001 163.9 63.0386L161.131 60.2386L162.185 59.1848L179.815 76.8153L178.762 77.8693ZM164.954 64.0923C164.426 64.5128 163.912 65.0183 163.412 65.6088C162.913 66.1991 162.509 66.8296 162.2 67.5001C163.033 69.1834 164.229 70.5209 165.787 71.5126C167.346 72.5042 169.083 73.0001 171 73.0001C171.455 73.0001 171.908 72.9616 172.36 72.8846C172.811 72.8077 173.194 72.7283 173.508 72.6463L172.242 71.3501C172.072 71.4192 171.874 71.4743 171.65 71.5153C171.426 71.5565 171.209 71.5771 171 71.5771C169.865 71.5771 168.902 71.1812 168.11 70.3896C167.319 69.5979 166.923 68.6347 166.923 67.5001C166.923 67.2976 166.944 67.0857 166.985 66.8646C167.026 66.6434 167.081 66.4411 167.15 66.2578L164.954 64.0923Z" fill="#FF3B30"/>
</g>
<mask id="mask4_1799_454" style="mask-type:alpha" maskUnits="userSpaceOnUse" x="20" y="228" width="24" height="24">
<rect x="20" y="228" width="24" height="24" fill="#4D4D4D"/>
</mask>
<g mask="url(#mask4_1799_454)">
<path d="M29.128 244.908L24.0069 239.786L25.0331 238.76L29.128 242.855L37.9269 234.056L38.9531 235.082L29.128 244.908Z" fill="#4D4D4D"/>
</g>
<mask id="mask5_1799_454" style="mask-type:alpha" maskUnits="userSpaceOnUse" x="65" y="228" width="24" height="24">
<rect x="65" y="228" width="24" height="24" fill="#35A8F7"/>
</mask>
<g mask="url(#mask5_1799_454)">
<path d="M74.128 244.908L69.0069 239.786L70.0331 238.76L74.128 242.855L82.9269 234.056L83.9531 235.082L74.128 244.908Z" fill="#35A8F7"/>
</g>
<mask id="mask6_1799_454" style="mask-type:alpha" maskUnits="userSpaceOnUse" x="112" y="228" width="24" height="24">
<rect x="112" y="228" width="24" height="24" fill="#969696"/>
</mask>
<g mask="url(#mask6_1799_454)">
<path d="M121.128 244.908L116.007 239.786L117.033 238.76L121.128 242.855L129.927 234.056L130.953 235.082L121.128 244.908Z" fill="#969696"/>
</g>
<mask id="mask7_1799_454" style="mask-type:alpha" maskUnits="userSpaceOnUse" x="159" y="228" width="24" height="24">
<rect x="159" y="228" width="24" height="24" fill="#FF3B30"/>
</mask>
<g mask="url(#mask7_1799_454)">
<path d="M168.128 244.908L163.007 239.786L164.033 238.76L168.128 242.855L176.927 234.056L177.953 235.082L168.128 244.908Z" fill="#FF3B30"/>
</g>
<mask id="mask8_1799_454" style="mask-type:alpha" maskUnits="userSpaceOnUse" x="20" y="443" width="24" height="24">
<rect x="20" y="443" width="24" height="24" fill="#4D4D4D"/>
</mask>
<g mask="url(#mask8_1799_454)">
<path d="M25.3077 464.5C24.8026 464.5 24.375 464.325 24.025 463.975C23.675 463.625 23.5 463.197 23.5 462.692V449.308C23.5 448.803 23.675 448.375 24.025 448.025C24.375 447.675 24.8026 447.5 25.3077 447.5H26.6923V445.385H28.2308V447.5H35.8077V445.385H37.3077V447.5H38.6923C39.1974 447.5 39.625 447.675 39.975 448.025C40.325 448.375 40.5 448.803 40.5 449.308V462.692C40.5 463.197 40.325 463.625 39.975 463.975C39.625 464.325 39.1974 464.5 38.6923 464.5H25.3077ZM25.3077 463H38.6923C38.7692 463 38.8398 462.968 38.9038 462.904C38.9679 462.84 39 462.769 39 462.692V453.308H25V462.692C25 462.769 25.0321 462.84 25.0963 462.904C25.1603 462.968 25.2307 463 25.3077 463ZM25 451.808H39V449.308C39 449.231 38.9679 449.16 38.9038 449.096C38.8398 449.032 38.7692 449 38.6923 449H25.3077C25.2307 449 25.1603 449.032 25.0963 449.096C25.0321 449.16 25 449.231 25 449.308V451.808Z" fill="#4D4D4D"/>
</g>
<mask id="mask9_1799_454" style="mask-type:alpha" maskUnits="userSpaceOnUse" x="65" y="443" width="24" height="24">
<rect x="65" y="443" width="24" height="24" fill="#35A8F7"/>
</mask>
<g mask="url(#mask9_1799_454)">
<path d="M70.3077 464.5C69.8026 464.5 69.375 464.325 69.025 463.975C68.675 463.625 68.5 463.197 68.5 462.692V449.308C68.5 448.803 68.675 448.375 69.025 448.025C69.375 447.675 69.8026 447.5 70.3077 447.5H71.6923V445.385H73.2308V447.5H80.8077V445.385H82.3077V447.5H83.6923C84.1974 447.5 84.625 447.675 84.975 448.025C85.325 448.375 85.5 448.803 85.5 449.308V462.692C85.5 463.197 85.325 463.625 84.975 463.975C84.625 464.325 84.1974 464.5 83.6923 464.5H70.3077ZM70.3077 463H83.6923C83.7692 463 83.8398 462.968 83.9038 462.904C83.9679 462.84 84 462.769 84 462.692V453.308H70V462.692C70 462.769 70.0321 462.84 70.0963 462.904C70.1603 462.968 70.2307 463 70.3077 463ZM70 451.808H84V449.308C84 449.231 83.9679 449.16 83.9038 449.096C83.8398 449.032 83.7692 449 83.6923 449H70.3077C70.2307 449 70.1603 449.032 70.0963 449.096C70.0321 449.16 70 449.231 70 449.308V451.808Z" fill="#35A8F7"/>
</g>
<mask id="mask10_1799_454" style="mask-type:alpha" maskUnits="userSpaceOnUse" x="112" y="443" width="24" height="24">
<rect x="112" y="443" width="24" height="24" fill="#969696"/>
</mask>
<g mask="url(#mask10_1799_454)">
<path d="M117.308 464.5C116.803 464.5 116.375 464.325 116.025 463.975C115.675 463.625 115.5 463.197 115.5 462.692V449.308C115.5 448.803 115.675 448.375 116.025 448.025C116.375 447.675 116.803 447.5 117.308 447.5H118.692V445.385H120.231V447.5H127.808V445.385H129.308V447.5H130.692C131.197 447.5 131.625 447.675 131.975 448.025C132.325 448.375 132.5 448.803 132.5 449.308V462.692C132.5 463.197 132.325 463.625 131.975 463.975C131.625 464.325 131.197 464.5 130.692 464.5H117.308ZM117.308 463H130.692C130.769 463 130.84 462.968 130.904 462.904C130.968 462.84 131 462.769 131 462.692V453.308H117V462.692C117 462.769 117.032 462.84 117.096 462.904C117.16 462.968 117.231 463 117.308 463ZM117 451.808H131V449.308C131 449.231 130.968 449.16 130.904 449.096C130.84 449.032 130.769 449 130.692 449H117.308C117.231 449 117.16 449.032 117.096 449.096C117.032 449.16 117 449.231 117 449.308V451.808Z" fill="#969696"/>
</g>
<mask id="mask11_1799_454" style="mask-type:alpha" maskUnits="userSpaceOnUse" x="159" y="443" width="24" height="24">
<rect x="159" y="443" width="24" height="24" fill="#FF3B30"/>
</mask>
<g mask="url(#mask11_1799_454)">
<path d="M164.308 464.5C163.803 464.5 163.375 464.325 163.025 463.975C162.675 463.625 162.5 463.197 162.5 462.692V449.308C162.5 448.803 162.675 448.375 163.025 448.025C163.375 447.675 163.803 447.5 164.308 447.5H165.692V445.385H167.231V447.5H174.808V445.385H176.308V447.5H177.692C178.197 447.5 178.625 447.675 178.975 448.025C179.325 448.375 179.5 448.803 179.5 449.308V462.692C179.5 463.197 179.325 463.625 178.975 463.975C178.625 464.325 178.197 464.5 177.692 464.5H164.308ZM164.308 463H177.692C177.769 463 177.84 462.968 177.904 462.904C177.968 462.84 178 462.769 178 462.692V453.308H164V462.692C164 462.769 164.032 462.84 164.096 462.904C164.16 462.968 164.231 463 164.308 463ZM164 451.808H178V449.308C178 449.231 177.968 449.16 177.904 449.096C177.84 449.032 177.769 449 177.692 449H164.308C164.231 449 164.16 449.032 164.096 449.096C164.032 449.16 164 449.231 164 449.308V451.808Z" fill="#FF3B30"/>
</g>
<mask id="mask12_1799_454" style="mask-type:alpha" maskUnits="userSpaceOnUse" x="22" y="408" width="20" height="20">
<rect x="22" y="408" width="20" height="20" fill="#4D4D4D"/>
</mask>
<g mask="url(#mask12_1799_454)">
<path d="M31.4551 425.685V418.73H24.5V417.384H31.4551V410.429H32.8013V417.384H39.7564V418.73H32.8013V425.685H31.4551Z" fill="#4D4D4D"/>
</g>
<mask id="mask13_1799_454" style="mask-type:alpha" maskUnits="userSpaceOnUse" x="67" y="408" width="20" height="20">
<rect x="67" y="408" width="20" height="20" fill="#35A8F7"/>
</mask>
<g mask="url(#mask13_1799_454)">
<path d="M76.4551 425.685V418.73H69.5V417.384H76.4551V410.429H77.8013V417.384H84.7564V418.73H77.8013V425.685H76.4551Z" fill="#35A8F7"/>
</g>
<mask id="mask14_1799_454" style="mask-type:alpha" maskUnits="userSpaceOnUse" x="114" y="408" width="20" height="20">
<rect x="114" y="408" width="20" height="20" fill="#969696"/>
</mask>
<g mask="url(#mask14_1799_454)">
<path d="M123.455 425.685V418.73H116.5V417.384H123.455V410.429H124.801V417.384H131.756V418.73H124.801V425.685H123.455Z" fill="#969696"/>
</g>
<mask id="mask15_1799_454" style="mask-type:alpha" maskUnits="userSpaceOnUse" x="161" y="408" width="20" height="20">
<rect x="161" y="408" width="20" height="20" fill="#FF3B30"/>
</mask>
<g mask="url(#mask15_1799_454)">
<path d="M170.455 425.685V418.73H163.5V417.384H170.455V410.429H171.801V417.384H178.756V418.73H171.801V425.685H170.455Z" fill="#FF3B30"/>
</g>
<mask id="mask16_1799_454" style="mask-type:alpha" maskUnits="userSpaceOnUse" x="20" y="129" width="24" height="24">
<rect x="20" y="129" width="24" height="24" fill="#4D4D4D"/>
</mask>
<g mask="url(#mask16_1799_454)">
<path d="M26.2307 142.5C25.8182 142.5 25.4652 142.353 25.1715 142.059C24.8777 141.766 24.7307 141.413 24.7307 141C24.7307 140.587 24.8777 140.234 25.1715 139.941C25.4652 139.647 25.8182 139.5 26.2307 139.5C26.6432 139.5 26.9964 139.647 27.2902 139.941C27.5839 140.234 27.7308 140.587 27.7308 141C27.7308 141.413 27.5839 141.766 27.2902 142.059C26.9964 142.353 26.6432 142.5 26.2307 142.5ZM32 142.5C31.5875 142.5 31.2344 142.353 30.9408 142.059C30.6469 141.766 30.5 141.413 30.5 141C30.5 140.587 30.6469 140.234 30.9408 139.941C31.2344 139.647 31.5875 139.5 32 139.5C32.4125 139.5 32.7656 139.647 33.0593 139.941C33.3531 140.234 33.5 140.587 33.5 141C33.5 141.413 33.3531 141.766 33.0593 142.059C32.7656 142.353 32.4125 142.5 32 142.5ZM37.7693 142.5C37.3568 142.5 37.0036 142.353 36.7098 142.059C36.4161 141.766 36.2693 141.413 36.2693 141C36.2693 140.587 36.4161 140.234 36.7098 139.941C37.0036 139.647 37.3568 139.5 37.7693 139.5C38.1818 139.5 38.5348 139.647 38.8285 139.941C39.1223 140.234 39.2693 140.587 39.2693 141C39.2693 141.413 39.1223 141.766 38.8285 142.059C38.5348 142.353 38.1818 142.5 37.7693 142.5Z" fill="#4D4D4D"/>
</g>
<mask id="mask17_1799_454" style="mask-type:alpha" maskUnits="userSpaceOnUse" x="65" y="129" width="24" height="24">
<rect x="65" y="129" width="24" height="24" fill="#35A8F7"/>
</mask>
<g mask="url(#mask17_1799_454)">
<path d="M71.2308 142.5C70.8183 142.5 70.4652 142.353 70.1715 142.059C69.8777 141.766 69.7308 141.413 69.7308 141C69.7308 140.587 69.8777 140.234 70.1715 139.941C70.4652 139.647 70.8183 139.5 71.2308 139.5C71.6433 139.5 71.9964 139.647 72.2903 139.941C72.5839 140.234 72.7308 140.587 72.7308 141C72.7308 141.413 72.5839 141.766 72.2903 142.059C71.9964 142.353 71.6433 142.5 71.2308 142.5ZM77 142.5C76.5875 142.5 76.2344 142.353 75.9408 142.059C75.6469 141.766 75.5 141.413 75.5 141C75.5 140.587 75.6469 140.234 75.9408 139.941C76.2344 139.647 76.5875 139.5 77 139.5C77.4125 139.5 77.7656 139.647 78.0593 139.941C78.3531 140.234 78.5 140.587 78.5 141C78.5 141.413 78.3531 141.766 78.0593 142.059C77.7656 142.353 77.4125 142.5 77 142.5ZM82.7693 142.5C82.3568 142.5 82.0036 142.353 81.7098 142.059C81.4161 141.766 81.2693 141.413 81.2693 141C81.2693 140.587 81.4161 140.234 81.7098 139.941C82.0036 139.647 82.3568 139.5 82.7693 139.5C83.1818 139.5 83.5348 139.647 83.8285 139.941C84.1223 140.234 84.2693 140.587 84.2693 141C84.2693 141.413 84.1223 141.766 83.8285 142.059C83.5348 142.353 83.1818 142.5 82.7693 142.5Z" fill="#35A8F7"/>
</g>
<mask id="mask18_1799_454" style="mask-type:alpha" maskUnits="userSpaceOnUse" x="112" y="129" width="24" height="24">
<rect x="112" y="129" width="24" height="24" fill="#969696"/>
</mask>
<g mask="url(#mask18_1799_454)">
<path d="M118.231 142.5C117.818 142.5 117.465 142.353 117.172 142.059C116.878 141.766 116.731 141.413 116.731 141C116.731 140.587 116.878 140.234 117.172 139.941C117.465 139.647 117.818 139.5 118.231 139.5C118.643 139.5 118.996 139.647 119.29 139.941C119.584 140.234 119.731 140.587 119.731 141C119.731 141.413 119.584 141.766 119.29 142.059C118.996 142.353 118.643 142.5 118.231 142.5ZM124 142.5C123.588 142.5 123.234 142.353 122.941 142.059C122.647 141.766 122.5 141.413 122.5 141C122.5 140.587 122.647 140.234 122.941 139.941C123.234 139.647 123.588 139.5 124 139.5C124.413 139.5 124.766 139.647 125.059 139.941C125.353 140.234 125.5 140.587 125.5 141C125.5 141.413 125.353 141.766 125.059 142.059C124.766 142.353 124.413 142.5 124 142.5ZM129.769 142.5C129.357 142.5 129.004 142.353 128.71 142.059C128.416 141.766 128.269 141.413 128.269 141C128.269 140.587 128.416 140.234 128.71 139.941C129.004 139.647 129.357 139.5 129.769 139.5C130.182 139.5 130.535 139.647 130.829 139.941C131.122 140.234 131.269 140.587 131.269 141C131.269 141.413 131.122 141.766 130.829 142.059C130.535 142.353 130.182 142.5 129.769 142.5Z" fill="#969696"/>
</g>
<mask id="mask19_1799_454" style="mask-type:alpha" maskUnits="userSpaceOnUse" x="159" y="129" width="24" height="24">
<rect x="159" y="129" width="24" height="24" fill="#FF3B30"/>
</mask>
<g mask="url(#mask19_1799_454)">
<path d="M165.231 142.5C164.818 142.5 164.465 142.353 164.171 142.059C163.878 141.766 163.731 141.413 163.731 141C163.731 140.587 163.878 140.234 164.171 139.941C164.465 139.647 164.818 139.5 165.231 139.5C165.643 139.5 165.996 139.647 166.29 139.941C166.584 140.234 166.731 140.587 166.731 141C166.731 141.413 166.584 141.766 166.29 142.059C165.996 142.353 165.643 142.5 165.231 142.5ZM171 142.5C170.587 142.5 170.234 142.353 169.941 142.059C169.647 141.766 169.5 141.413 169.5 141C169.5 140.587 169.647 140.234 169.941 139.941C170.234 139.647 170.587 139.5 171 139.5C171.412 139.5 171.766 139.647 172.059 139.941C172.353 140.234 172.5 140.587 172.5 141C172.5 141.413 172.353 141.766 172.059 142.059C171.766 142.353 171.412 142.5 171 142.5ZM176.769 142.5C176.357 142.5 176.004 142.353 175.71 142.059C175.416 141.766 175.269 141.413 175.269 141C175.269 140.587 175.416 140.234 175.71 139.941C176.004 139.647 176.357 139.5 176.769 139.5C177.182 139.5 177.535 139.647 177.828 139.941C178.122 140.234 178.269 140.587 178.269 141C178.269 141.413 178.122 141.766 177.828 142.059C177.535 142.353 177.182 142.5 176.769 142.5Z" fill="#FF3B30"/>
</g>
<mask id="mask20_1799_454" style="mask-type:alpha" maskUnits="userSpaceOnUse" x="20" y="479" width="24" height="24">
<rect x="20" y="479" width="24" height="24" fill="#4D4D4D"/>
</mask>
<g mask="url(#mask20_1799_454)">
<path d="M28.0154 500.654L26.5962 499.235L34.8307 491L26.5962 482.766L28.0154 481.347L37.6692 491L28.0154 500.654Z" fill="#4D4D4D"/>
</g>
<mask id="mask21_1799_454" style="mask-type:alpha" maskUnits="userSpaceOnUse" x="65" y="479" width="24" height="24">
<rect x="65" y="479" width="24" height="24" fill="#35A8F7"/>
</mask>
<g mask="url(#mask21_1799_454)">
<path d="M73.0154 500.654L71.5962 499.235L79.8307 491L71.5962 482.766L73.0154 481.347L82.6692 491L73.0154 500.654Z" fill="#35A8F7"/>
</g>
<mask id="mask22_1799_454" style="mask-type:alpha" maskUnits="userSpaceOnUse" x="112" y="479" width="24" height="24">
<rect x="112" y="479" width="24" height="24" fill="#969696"/>
</mask>
<g mask="url(#mask22_1799_454)">
<path d="M120.015 500.654L118.596 499.235L126.831 491L118.596 482.766L120.015 481.347L129.669 491L120.015 500.654Z" fill="#969696"/>
</g>
<mask id="mask23_1799_454" style="mask-type:alpha" maskUnits="userSpaceOnUse" x="159" y="479" width="24" height="24">
<rect x="159" y="479" width="24" height="24" fill="#FF3B30"/>
</mask>
<g mask="url(#mask23_1799_454)">
<path d="M167.015 500.654L165.596 499.235L173.831 491L165.596 482.766L167.015 481.347L176.669 491L167.015 500.654Z" fill="#FF3B30"/>
</g>
<mask id="mask24_1799_454" style="mask-type:alpha" maskUnits="userSpaceOnUse" x="20" y="95" width="24" height="24">
<rect x="20" y="95" width="24" height="24" fill="#4D4D4D"/>
</mask>
<g mask="url(#mask24_1799_454)">
<path d="M26.25 108.75H33.75V107.25H26.25V108.75ZM26.25 105.75H37.75V104.25H26.25V105.75ZM26.25 102.75H37.75V101.25H26.25V102.75ZM22.5 116.038V99.3077C22.5 98.8026 22.675 98.375 23.025 98.025C23.375 97.675 23.8026 97.5 24.3077 97.5H39.6923C40.1974 97.5 40.625 97.675 40.975 98.025C41.325 98.375 41.5 98.8026 41.5 99.3077V110.692C41.5 111.197 41.325 111.625 40.975 111.975C40.625 112.325 40.1974 112.5 39.6923 112.5H26.0385L22.5 116.038ZM25.4 111H39.6923C39.7693 111 39.8398 110.968 39.9038 110.904C39.9679 110.84 40 110.769 40 110.692V99.3077C40 99.2307 39.9679 99.1602 39.9038 99.0962C39.8398 99.0321 39.7693 99 39.6923 99H24.3077C24.2307 99 24.1603 99.0321 24.0963 99.0962C24.0321 99.1602 24 99.2307 24 99.3077V112.385L25.4 111Z" fill="#4D4D4D"/>
</g>
<mask id="mask25_1799_454" style="mask-type:alpha" maskUnits="userSpaceOnUse" x="65" y="95" width="24" height="24">
<rect x="65" y="95" width="24" height="24" fill="#35A8F7"/>
</mask>
<g mask="url(#mask25_1799_454)">
<path d="M71.25 108.75H78.75V107.25H71.25V108.75ZM71.25 105.75H82.75V104.25H71.25V105.75ZM71.25 102.75H82.75V101.25H71.25V102.75ZM67.5 116.038V99.3077C67.5 98.8026 67.675 98.375 68.025 98.025C68.375 97.675 68.8026 97.5 69.3077 97.5H84.6923C85.1974 97.5 85.625 97.675 85.975 98.025C86.325 98.375 86.5 98.8026 86.5 99.3077V110.692C86.5 111.197 86.325 111.625 85.975 111.975C85.625 112.325 85.1974 112.5 84.6923 112.5H71.0385L67.5 116.038ZM70.4 111H84.6923C84.7693 111 84.8398 110.968 84.9038 110.904C84.9679 110.84 85 110.769 85 110.692V99.3077C85 99.2307 84.9679 99.1602 84.9038 99.0962C84.8398 99.0321 84.7693 99 84.6923 99H69.3077C69.2307 99 69.1603 99.0321 69.0963 99.0962C69.0321 99.1602 69 99.2307 69 99.3077V112.385L70.4 111Z" fill="#35A8F7"/>
</g>
<mask id="mask26_1799_454" style="mask-type:alpha" maskUnits="userSpaceOnUse" x="112" y="95" width="24" height="24">
<rect x="112" y="95" width="24" height="24" fill="#969696"/>
</mask>
<g mask="url(#mask26_1799_454)">
<path d="M118.25 108.75H125.75V107.25H118.25V108.75ZM118.25 105.75H129.75V104.25H118.25V105.75ZM118.25 102.75H129.75V101.25H118.25V102.75ZM114.5 116.038V99.3077C114.5 98.8026 114.675 98.375 115.025 98.025C115.375 97.675 115.803 97.5 116.308 97.5H131.692C132.197 97.5 132.625 97.675 132.975 98.025C133.325 98.375 133.5 98.8026 133.5 99.3077V110.692C133.5 111.197 133.325 111.625 132.975 111.975C132.625 112.325 132.197 112.5 131.692 112.5H118.038L114.5 116.038ZM117.4 111H131.692C131.769 111 131.84 110.968 131.904 110.904C131.968 110.84 132 110.769 132 110.692V99.3077C132 99.2307 131.968 99.1602 131.904 99.0962C131.84 99.0321 131.769 99 131.692 99H116.308C116.231 99 116.16 99.0321 116.096 99.0962C116.032 99.1602 116 99.2307 116 99.3077V112.385L117.4 111Z" fill="#969696"/>
</g>
<mask id="mask27_1799_454" style="mask-type:alpha" maskUnits="userSpaceOnUse" x="159" y="95" width="24" height="24">
<rect x="159" y="95" width="24" height="24" fill="#FF3B30"/>
</mask>
<g mask="url(#mask27_1799_454)">
<path d="M165.25 108.75H172.75V107.25H165.25V108.75ZM165.25 105.75H176.75V104.25H165.25V105.75ZM165.25 102.75H176.75V101.25H165.25V102.75ZM161.5 116.038V99.3077C161.5 98.8026 161.675 98.375 162.025 98.025C162.375 97.675 162.803 97.5 163.308 97.5H178.692C179.197 97.5 179.625 97.675 179.975 98.025C180.325 98.375 180.5 98.8026 180.5 99.3077V110.692C180.5 111.197 180.325 111.625 179.975 111.975C179.625 112.325 179.197 112.5 178.692 112.5H165.038L161.5 116.038ZM164.4 111H178.692C178.769 111 178.84 110.968 178.904 110.904C178.968 110.84 179 110.769 179 110.692V99.3077C179 99.2307 178.968 99.1602 178.904 99.0962C178.84 99.0321 178.769 99 178.692 99H163.308C163.231 99 163.16 99.0321 163.096 99.0962C163.032 99.1602 163 99.2307 163 99.3077V112.385L164.4 111Z" fill="#FF3B30"/>
</g>
<mask id="mask28_1799_454" style="mask-type:alpha" maskUnits="userSpaceOnUse" x="19" y="338" width="25" height="24">
<rect x="19.803" y="338.118" width="23.7635" height="23.7635" fill="#4D4D4D"/>
</mask>
<g mask="url(#mask28_1799_454)">
<path d="M32.2751 349.646C32.6964 349.187 33.0081 348.661 33.2101 348.067C33.4119 347.473 33.5128 346.861 33.5128 346.23C33.5128 345.599 33.4119 344.986 33.2101 344.392C33.0081 343.798 32.6964 343.272 32.2751 342.814C33.1446 342.914 33.8666 343.289 34.4411 343.94C35.0153 344.591 35.3025 345.354 35.3025 346.23C35.3025 347.106 35.0153 347.869 34.4411 348.519C33.8666 349.17 33.1446 349.545 32.2751 349.646ZM37.4734 357.236V354.913C37.4734 354.373 37.3636 353.859 37.1439 353.372C36.9243 352.885 36.6126 352.466 36.209 352.117C36.9681 352.37 37.6669 352.711 38.3054 353.14C38.9438 353.569 39.2631 354.16 39.2631 354.913V357.236H37.4734ZM42.7286 348.762H37.2828V347.277H42.7286V348.762ZM28.067 349.695C27.114 349.695 26.2981 349.356 25.6193 348.677C24.9407 347.999 24.6015 347.183 24.6015 346.23C24.6015 345.277 24.9407 344.461 25.6193 343.782C26.2981 343.104 27.114 342.764 28.067 342.764C29.02 342.764 29.8358 343.104 30.5144 343.782C31.1931 344.461 31.5325 345.277 31.5325 346.23C31.5325 347.183 31.1931 347.999 30.5144 348.677C29.8358 349.356 29.02 349.695 28.067 349.695ZM20.6409 357.236V355.034C20.6409 354.549 20.7726 354.1 21.0359 353.687C21.2993 353.274 21.6512 352.956 22.0917 352.734C23.0704 352.254 24.0578 351.895 25.0537 351.655C26.0495 351.415 27.0539 351.295 28.067 351.295C29.0799 351.295 30.0843 351.415 31.0802 351.655C32.076 351.895 33.0633 352.254 34.042 352.734C34.4825 352.956 34.8344 353.274 35.0978 353.687C35.3613 354.1 35.4931 354.549 35.4931 355.034V357.236H20.6409ZM28.067 348.21C28.6116 348.21 29.0778 348.016 29.4656 347.628C29.8534 347.24 30.0473 346.774 30.0473 346.23C30.0473 345.685 29.8534 345.219 29.4656 344.831C29.0778 344.443 28.6116 344.249 28.067 344.249C27.5224 344.249 27.0562 344.443 26.6684 344.831C26.2806 345.219 26.0867 345.685 26.0867 346.23C26.0867 346.774 26.2806 347.24 26.6684 347.628C27.0562 348.016 27.5224 348.21 28.067 348.21ZM22.1261 355.75H34.0079V355.034C34.0079 354.834 33.9498 354.648 33.8336 354.477C33.7174 354.307 33.5597 354.167 33.3603 354.06C32.5073 353.639 31.6375 353.321 30.751 353.105C29.8643 352.888 28.9697 352.78 28.067 352.78C27.1641 352.78 26.2694 352.888 25.3829 353.105C24.4963 353.321 23.6264 353.639 22.7734 354.06C22.574 354.167 22.4164 354.307 22.3004 354.477C22.1842 354.648 22.1261 354.834 22.1261 355.034V355.75Z" fill="#4D4D4D"/>
</g>
<mask id="mask29_1799_454" style="mask-type:alpha" maskUnits="userSpaceOnUse" x="64" y="338" width="25" height="24">
<rect x="64.3596" y="338.118" width="23.7635" height="23.7635" fill="#35A8F7"/>
</mask>
<g mask="url(#mask29_1799_454)">
<path d="M76.8318 349.646C77.2531 349.187 77.5647 348.661 77.7667 348.067C77.9685 347.473 78.0694 346.861 78.0694 346.23C78.0694 345.599 77.9685 344.986 77.7667 344.392C77.5647 343.798 77.2531 343.272 76.8318 342.814C77.7013 342.914 78.4233 343.289 78.9977 343.94C79.572 344.591 79.8591 345.354 79.8591 346.23C79.8591 347.106 79.572 347.869 78.9977 348.519C78.4233 349.17 77.7013 349.545 76.8318 349.646ZM82.03 357.236V354.913C82.03 354.373 81.9202 353.859 81.7006 353.372C81.4809 352.885 81.1693 352.466 80.7656 352.117C81.5247 352.37 82.2235 352.711 82.862 353.14C83.5005 353.569 83.8197 354.16 83.8197 354.913V357.236H82.03ZM87.2852 348.762H81.8394V347.277H87.2852V348.762ZM72.6236 349.695C71.6706 349.695 70.8547 349.356 70.176 348.677C69.4974 347.999 69.1581 347.183 69.1581 346.23C69.1581 345.277 69.4974 344.461 70.176 343.782C70.8547 343.104 71.6706 342.764 72.6236 342.764C73.5766 342.764 74.3924 343.104 75.071 343.782C75.7498 344.461 76.0891 345.277 76.0891 346.23C76.0891 347.183 75.7498 347.999 75.071 348.677C74.3924 349.356 73.5766 349.695 72.6236 349.695ZM65.1975 357.236V355.034C65.1975 354.549 65.3292 354.1 65.5926 353.687C65.856 353.274 66.2079 352.956 66.6483 352.734C67.6271 352.254 68.6144 351.895 69.6104 351.655C70.6061 351.415 71.6105 351.295 72.6236 351.295C73.6365 351.295 74.641 351.415 75.6369 351.655C76.6327 351.895 77.6199 352.254 78.5987 352.734C79.0391 352.956 79.391 353.274 79.6544 353.687C79.918 354.1 80.0497 354.549 80.0497 355.034V357.236H65.1975ZM72.6236 348.21C73.1682 348.21 73.6344 348.016 74.0222 347.628C74.41 347.24 74.6039 346.774 74.6039 346.23C74.6039 345.685 74.41 345.219 74.0222 344.831C73.6344 344.443 73.1682 344.249 72.6236 344.249C72.079 344.249 71.6128 344.443 71.225 344.831C70.8372 345.219 70.6433 345.685 70.6433 346.23C70.6433 346.774 70.8372 347.24 71.225 347.628C71.6128 348.016 72.079 348.21 72.6236 348.21ZM66.6827 355.75H78.5645V355.034C78.5645 354.834 78.5064 354.648 78.3902 354.477C78.2741 354.307 78.1163 354.167 77.917 354.06C77.0639 353.639 76.1942 353.321 75.3077 353.105C74.421 352.888 73.5263 352.78 72.6236 352.78C71.7208 352.78 70.8261 352.888 69.9396 353.105C69.0529 353.321 68.1831 353.639 67.33 354.06C67.1307 354.167 66.973 354.307 66.857 354.477C66.7408 354.648 66.6827 354.834 66.6827 355.034V355.75Z" fill="#35A8F7"/>
</g>
<mask id="mask30_1799_454" style="mask-type:alpha" maskUnits="userSpaceOnUse" x="110" y="338" width="25" height="24">
<rect x="110.897" y="338.118" width="23.7635" height="23.7635" fill="#969696"/>
</mask>
<g mask="url(#mask30_1799_454)">
<path d="M123.369 349.646C123.79 349.187 124.102 348.661 124.304 348.067C124.505 347.473 124.606 346.861 124.606 346.23C124.606 345.599 124.505 344.986 124.304 344.392C124.102 343.798 123.79 343.272 123.369 342.814C124.238 342.914 124.96 343.289 125.535 343.94C126.109 344.591 126.396 345.354 126.396 346.23C126.396 347.106 126.109 347.869 125.535 348.519C124.96 349.17 124.238 349.545 123.369 349.646ZM128.567 357.236V354.913C128.567 354.373 128.457 353.859 128.238 353.372C128.018 352.885 127.706 352.466 127.303 352.117C128.062 352.37 128.76 352.711 129.399 353.14C130.037 353.569 130.357 354.16 130.357 354.913V357.236H128.567ZM133.822 348.762H128.376V347.277H133.822V348.762ZM119.161 349.695C118.208 349.695 117.392 349.356 116.713 348.677C116.034 347.999 115.695 347.183 115.695 346.23C115.695 345.277 116.034 344.461 116.713 343.782C117.392 343.104 118.208 342.764 119.161 342.764C120.114 342.764 120.929 343.104 121.608 343.782C122.287 344.461 122.626 345.277 122.626 346.23C122.626 347.183 122.287 347.999 121.608 348.677C120.929 349.356 120.114 349.695 119.161 349.695ZM111.734 357.236V355.034C111.734 354.549 111.866 354.1 112.13 353.687C112.393 353.274 112.745 352.956 113.185 352.734C114.164 352.254 115.151 351.895 116.147 351.655C117.143 351.415 118.147 351.295 119.161 351.295C120.173 351.295 121.178 351.415 122.174 351.655C123.17 351.895 124.157 352.254 125.136 352.734C125.576 352.956 125.928 353.274 126.191 353.687C126.455 354.1 126.587 354.549 126.587 355.034V357.236H111.734ZM119.161 348.21C119.705 348.21 120.171 348.016 120.559 347.628C120.947 347.24 121.141 346.774 121.141 346.23C121.141 345.685 120.947 345.219 120.559 344.831C120.171 344.443 119.705 344.249 119.161 344.249C118.616 344.249 118.15 344.443 117.762 344.831C117.374 345.219 117.18 345.685 117.18 346.23C117.18 346.774 117.374 347.24 117.762 347.628C118.15 348.016 118.616 348.21 119.161 348.21ZM113.22 355.75H125.101V355.034C125.101 354.834 125.043 354.648 124.927 354.477C124.811 354.307 124.653 354.167 124.454 354.06C123.601 353.639 122.731 353.321 121.845 353.105C120.958 352.888 120.063 352.78 119.161 352.78C118.258 352.78 117.363 352.888 116.477 353.105C115.59 353.321 114.72 353.639 113.867 354.06C113.668 354.167 113.51 354.307 113.394 354.477C113.278 354.648 113.22 354.834 113.22 355.034V355.75Z" fill="#969696"/>
</g>
<mask id="mask31_1799_454" style="mask-type:alpha" maskUnits="userSpaceOnUse" x="157" y="338" width="25" height="24">
<rect x="157.434" y="338.118" width="23.7635" height="23.7635" fill="#FF3B30"/>
</mask>
<g mask="url(#mask31_1799_454)">
<path d="M169.906 349.646C170.327 349.187 170.639 348.661 170.841 348.067C171.042 347.473 171.143 346.861 171.143 346.23C171.143 345.599 171.042 344.986 170.841 344.392C170.639 343.798 170.327 343.272 169.906 342.814C170.775 342.914 171.497 343.289 172.072 343.94C172.646 344.591 172.933 345.354 172.933 346.23C172.933 347.106 172.646 347.869 172.072 348.519C171.497 349.17 170.775 349.545 169.906 349.646ZM175.104 357.236V354.913C175.104 354.373 174.994 353.859 174.774 353.372C174.555 352.885 174.243 352.466 173.84 352.117C174.599 352.37 175.297 352.711 175.936 353.14C176.574 353.569 176.894 354.16 176.894 354.913V357.236H175.104ZM180.359 348.762H174.913V347.277H180.359V348.762ZM165.698 349.695C164.745 349.695 163.929 349.356 163.25 348.677C162.571 347.999 162.232 347.183 162.232 346.23C162.232 345.277 162.571 344.461 163.25 343.782C163.929 343.104 164.745 342.764 165.698 342.764C166.651 342.764 167.466 343.104 168.145 343.782C168.824 344.461 169.163 345.277 169.163 346.23C169.163 347.183 168.824 347.999 168.145 348.677C167.466 349.356 166.651 349.695 165.698 349.695ZM158.271 357.236V355.034C158.271 354.549 158.403 354.1 158.666 353.687C158.93 353.274 159.282 352.956 159.722 352.734C160.701 352.254 161.688 351.895 162.684 351.655C163.68 351.415 164.684 351.295 165.698 351.295C166.71 351.295 167.715 351.415 168.711 351.655C169.707 351.895 170.694 352.254 171.673 352.734C172.113 352.956 172.465 353.274 172.728 353.687C172.992 354.1 173.124 354.549 173.124 355.034V357.236H158.271ZM165.698 348.21C166.242 348.21 166.708 348.016 167.096 347.628C167.484 347.24 167.678 346.774 167.678 346.23C167.678 345.685 167.484 345.219 167.096 344.831C166.708 344.443 166.242 344.249 165.698 344.249C165.153 344.249 164.687 344.443 164.299 344.831C163.911 345.219 163.717 345.685 163.717 346.23C163.717 346.774 163.911 347.24 164.299 347.628C164.687 348.016 165.153 348.21 165.698 348.21ZM159.757 355.75H171.638V355.034C171.638 354.834 171.58 354.648 171.464 354.477C171.348 354.307 171.19 354.167 170.991 354.06C170.138 353.639 169.268 353.321 168.382 353.105C167.495 352.888 166.6 352.78 165.698 352.78C164.795 352.78 163.9 352.888 163.013 353.105C162.127 353.321 161.257 353.639 160.404 354.06C160.205 354.167 160.047 354.307 159.931 354.477C159.815 354.648 159.757 354.834 159.757 355.034V355.75Z" fill="#FF3B30"/>
</g>
<mask id="mask32_1799_454" style="mask-type:alpha" maskUnits="userSpaceOnUse" x="20" y="20" width="24" height="24">
<rect x="20" y="20" width="24" height="24" fill="#4D4D4D"/>
</mask>
<g mask="url(#mask32_1799_454)">
<path d="M25.4135 39.5V38H38.5865V39.5H25.4135ZM25.3848 36.3077L24.023 28.475C23.9897 28.4813 23.9522 28.4871 23.9105 28.4922C23.8688 28.4974 23.8313 28.5 23.798 28.5C23.4327 28.5 23.125 28.3738 22.875 28.1215C22.625 27.869 22.5 27.5625 22.5 27.202C22.5 26.836 22.625 26.5249 22.875 26.2687C23.125 26.0127 23.4329 25.8848 23.7987 25.8848C24.1644 25.8848 24.4753 26.0127 24.7313 26.2687C24.9874 26.5249 25.1155 26.836 25.1155 27.202C25.1155 27.295 25.1078 27.3814 25.0923 27.4613C25.0769 27.5409 25.0526 27.616 25.0193 27.6865L28.1828 29.0288L31.2308 24.8693C31.0668 24.7551 30.9344 24.6049 30.8338 24.4188C30.7331 24.2326 30.6827 24.0321 30.6827 23.8173C30.6827 23.4514 30.8108 23.1404 31.0668 22.8842C31.3228 22.6281 31.6337 22.5 31.9995 22.5C32.3652 22.5 32.6762 22.6279 32.9327 22.8837C33.1891 23.1394 33.3173 23.45 33.3173 23.8155C33.3173 24.0347 33.2669 24.2366 33.1663 24.4212C33.0656 24.6057 32.9332 24.7551 32.7692 24.8693L35.8173 29.0288L38.9807 27.6865C38.9551 27.6183 38.9327 27.5433 38.9135 27.4613C38.8942 27.3794 38.8845 27.293 38.8845 27.202C38.8845 26.836 39.0095 26.5249 39.2595 26.2687C39.5095 26.0127 39.8174 25.8848 40.1833 25.8848C40.5489 25.8848 40.8598 26.0127 41.116 26.2687C41.372 26.5249 41.5 26.836 41.5 27.202C41.5 27.5615 41.3717 27.8678 41.1152 28.1208C40.8587 28.3736 40.5473 28.5 40.1807 28.5C40.1514 28.5 40.1184 28.4958 40.0818 28.4875C40.0452 28.4792 40.0093 28.475 39.9738 28.475L38.6152 36.3077H25.3848ZM26.6615 34.8077H37.3385L38.277 29.6518L35.3057 30.8885L32 26.352L28.6942 30.8885L25.723 29.6518L26.6615 34.8077Z" fill="#4D4D4D"/>
</g>
<mask id="mask33_1799_454" style="mask-type:alpha" maskUnits="userSpaceOnUse" x="65" y="20" width="24" height="24">
<rect x="65" y="20" width="24" height="24" fill="#35A8F7"/>
</mask>
<g mask="url(#mask33_1799_454)">
<path d="M70.4135 39.5V38H83.5865V39.5H70.4135ZM70.3848 36.3077L69.023 28.475C68.9897 28.4813 68.9522 28.4871 68.9105 28.4922C68.8688 28.4974 68.8313 28.5 68.798 28.5C68.4327 28.5 68.125 28.3738 67.875 28.1215C67.625 27.869 67.5 27.5625 67.5 27.202C67.5 26.836 67.625 26.5249 67.875 26.2687C68.125 26.0127 68.4329 25.8848 68.7987 25.8848C69.1644 25.8848 69.4753 26.0127 69.7313 26.2687C69.9874 26.5249 70.1155 26.836 70.1155 27.202C70.1155 27.295 70.1078 27.3814 70.0923 27.4613C70.0769 27.5409 70.0526 27.616 70.0193 27.6865L73.1828 29.0288L76.2308 24.8693C76.0668 24.7551 75.9344 24.6049 75.8338 24.4188C75.7331 24.2326 75.6827 24.0321 75.6827 23.8173C75.6827 23.4514 75.8108 23.1404 76.0668 22.8842C76.3228 22.6281 76.6337 22.5 76.9995 22.5C77.3652 22.5 77.6762 22.6279 77.9327 22.8837C78.1891 23.1394 78.3173 23.45 78.3173 23.8155C78.3173 24.0347 78.2669 24.2366 78.1663 24.4212C78.0656 24.6057 77.9332 24.7551 77.7692 24.8693L80.8173 29.0288L83.9807 27.6865C83.9551 27.6183 83.9327 27.5433 83.9135 27.4613C83.8942 27.3794 83.8845 27.293 83.8845 27.202C83.8845 26.836 84.0095 26.5249 84.2595 26.2687C84.5095 26.0127 84.8174 25.8848 85.1833 25.8848C85.5489 25.8848 85.8598 26.0127 86.116 26.2687C86.372 26.5249 86.5 26.836 86.5 27.202C86.5 27.5615 86.3717 27.8678 86.1152 28.1208C85.8587 28.3736 85.5473 28.5 85.1807 28.5C85.1514 28.5 85.1184 28.4958 85.0818 28.4875C85.0452 28.4792 85.0093 28.475 84.9738 28.475L83.6152 36.3077H70.3848ZM71.6615 34.8077H82.3385L83.277 29.6518L80.3057 30.8885L77 26.352L73.6942 30.8885L70.723 29.6518L71.6615 34.8077Z" fill="#35A8F7"/>
</g>
<mask id="mask34_1799_454" style="mask-type:alpha" maskUnits="userSpaceOnUse" x="112" y="20" width="24" height="24">
<rect x="112" y="20" width="24" height="24" fill="#969696"/>
</mask>
<g mask="url(#mask34_1799_454)">
<path d="M117.413 39.5V38H130.587V39.5H117.413ZM117.385 36.3077L116.023 28.475C115.99 28.4813 115.952 28.4871 115.91 28.4922C115.869 28.4974 115.831 28.5 115.798 28.5C115.433 28.5 115.125 28.3738 114.875 28.1215C114.625 27.869 114.5 27.5625 114.5 27.202C114.5 26.836 114.625 26.5249 114.875 26.2687C115.125 26.0127 115.433 25.8848 115.799 25.8848C116.164 25.8848 116.475 26.0127 116.731 26.2687C116.987 26.5249 117.115 26.836 117.115 27.202C117.115 27.295 117.108 27.3814 117.092 27.4613C117.077 27.5409 117.053 27.616 117.019 27.6865L120.183 29.0288L123.231 24.8693C123.067 24.7551 122.934 24.6049 122.834 24.4188C122.733 24.2326 122.683 24.0321 122.683 23.8173C122.683 23.4514 122.811 23.1404 123.067 22.8842C123.323 22.6281 123.634 22.5 124 22.5C124.365 22.5 124.676 22.6279 124.933 22.8837C125.189 23.1394 125.317 23.45 125.317 23.8155C125.317 24.0347 125.267 24.2366 125.166 24.4212C125.066 24.6057 124.933 24.7551 124.769 24.8693L127.817 29.0288L130.981 27.6865C130.955 27.6183 130.933 27.5433 130.913 27.4613C130.894 27.3794 130.885 27.293 130.885 27.202C130.885 26.836 131.01 26.5249 131.26 26.2687C131.51 26.0127 131.817 25.8848 132.183 25.8848C132.549 25.8848 132.86 26.0127 133.116 26.2687C133.372 26.5249 133.5 26.836 133.5 27.202C133.5 27.5615 133.372 27.8678 133.115 28.1208C132.859 28.3736 132.547 28.5 132.181 28.5C132.151 28.5 132.118 28.4958 132.082 28.4875C132.045 28.4792 132.009 28.475 131.974 28.475L130.615 36.3077H117.385ZM118.661 34.8077H129.339L130.277 29.6518L127.306 30.8885L124 26.352L120.694 30.8885L117.723 29.6518L118.661 34.8077Z" fill="#969696"/>
</g>
<mask id="mask35_1799_454" style="mask-type:alpha" maskUnits="userSpaceOnUse" x="159" y="20" width="24" height="24">
<rect x="159" y="20" width="24" height="24" fill="#FF3B30"/>
</mask>
<g mask="url(#mask35_1799_454)">
<path d="M164.413 39.5V38H177.587V39.5H164.413ZM164.385 36.3077L163.023 28.475C162.99 28.4813 162.952 28.4871 162.91 28.4922C162.869 28.4974 162.831 28.5 162.798 28.5C162.433 28.5 162.125 28.3738 161.875 28.1215C161.625 27.869 161.5 27.5625 161.5 27.202C161.5 26.836 161.625 26.5249 161.875 26.2687C162.125 26.0127 162.433 25.8848 162.799 25.8848C163.164 25.8848 163.475 26.0127 163.731 26.2687C163.987 26.5249 164.115 26.836 164.115 27.202C164.115 27.295 164.108 27.3814 164.092 27.4613C164.077 27.5409 164.053 27.616 164.019 27.6865L167.183 29.0288L170.231 24.8693C170.067 24.7551 169.934 24.6049 169.834 24.4188C169.733 24.2326 169.683 24.0321 169.683 23.8173C169.683 23.4514 169.811 23.1404 170.067 22.8842C170.323 22.6281 170.634 22.5 171 22.5C171.365 22.5 171.676 22.6279 171.933 22.8837C172.189 23.1394 172.317 23.45 172.317 23.8155C172.317 24.0347 172.267 24.2366 172.166 24.4212C172.066 24.6057 171.933 24.7551 171.769 24.8693L174.817 29.0288L177.981 27.6865C177.955 27.6183 177.933 27.5433 177.913 27.4613C177.894 27.3794 177.885 27.293 177.885 27.202C177.885 26.836 178.01 26.5249 178.26 26.2687C178.51 26.0127 178.817 25.8848 179.183 25.8848C179.549 25.8848 179.86 26.0127 180.116 26.2687C180.372 26.5249 180.5 26.836 180.5 27.202C180.5 27.5615 180.372 27.8678 180.115 28.1208C179.859 28.3736 179.547 28.5 179.181 28.5C179.151 28.5 179.118 28.4958 179.082 28.4875C179.045 28.4792 179.009 28.475 178.974 28.475L177.615 36.3077H164.385ZM165.661 34.8077H176.339L177.277 29.6518L174.306 30.8885L171 26.352L167.694 30.8885L164.723 29.6518L165.661 34.8077Z" fill="#FF3B30"/>
</g>
<mask id="mask36_1799_454" style="mask-type:alpha" maskUnits="userSpaceOnUse" x="20" y="201" width="24" height="24">
<rect x="20" y="201" width="24" height="24" fill="#4D4D4D"/>
</mask>
<g mask="url(#mask36_1799_454)">
<path d="M25.5 222.5V204.5H40.5L38.452 209.135L40.5 213.769H27V222.5H25.5ZM27 212.269H38.2327L36.8212 209.135L38.2327 206H27V212.269Z" fill="#4D4D4D"/>
</g>
<mask id="mask37_1799_454" style="mask-type:alpha" maskUnits="userSpaceOnUse" x="65" y="201" width="24" height="24">
<rect x="65" y="201" width="24" height="24" fill="#35A8F7"/>
</mask>
<g mask="url(#mask37_1799_454)">
<path d="M70.5 222.5V204.5H85.5L83.452 209.135L85.5 213.769H72V222.5H70.5ZM72 212.269H83.2327L81.8212 209.135L83.2327 206H72V212.269Z" fill="#35A8F7"/>
</g>
<mask id="mask38_1799_454" style="mask-type:alpha" maskUnits="userSpaceOnUse" x="112" y="201" width="24" height="24">
<rect x="112" y="201" width="24" height="24" fill="#969696"/>
</mask>
<g mask="url(#mask38_1799_454)">
<path d="M117.5 222.5V204.5H132.5L130.452 209.135L132.5 213.769H119V222.5H117.5ZM119 212.269H130.233L128.821 209.135L130.233 206H119V212.269Z" fill="#969696"/>
</g>
<mask id="mask39_1799_454" style="mask-type:alpha" maskUnits="userSpaceOnUse" x="159" y="201" width="24" height="24">
<rect x="159" y="201" width="24" height="24" fill="#FF3B30"/>
</mask>
<g mask="url(#mask39_1799_454)">
<path d="M164.5 222.5V204.5H179.5L177.452 209.135L179.5 213.769H166V222.5H164.5ZM166 212.269H177.233L175.821 209.135L177.233 206H166V212.269Z" fill="#FF3B30"/>
</g>
<mask id="mask40_1799_454" style="mask-type:alpha" maskUnits="userSpaceOnUse" x="20" y="165" width="24" height="24">
<rect x="20" y="165" width="24" height="24" fill="#4D4D4D"/>
</mask>
<g mask="url(#mask40_1799_454)">
<path d="M32 186.5C30.8205 186.5 29.7154 186.277 28.6848 185.831C27.6539 185.385 26.7552 184.778 25.9885 184.011C25.2218 183.245 24.6154 182.346 24.1693 181.315C23.7231 180.285 23.5 179.179 23.5 178C23.5 176.82 23.7231 175.715 24.1693 174.685C24.6154 173.654 25.2218 172.755 25.9885 171.988C26.7552 171.222 27.6539 170.615 28.6848 170.169C29.7154 169.723 30.8205 169.5 32 169.5C33.1795 169.5 34.2846 169.723 35.3153 170.169C36.3461 170.615 37.2448 171.222 38.0115 171.988C38.7782 172.755 39.3846 173.654 39.8308 174.685C40.2769 175.715 40.5 176.82 40.5 178C40.5 179.179 40.2769 180.285 39.8308 181.315C39.3846 182.346 38.7782 183.245 38.0115 184.011C37.2448 184.778 36.3461 185.385 35.3153 185.831C34.2846 186.277 33.1795 186.5 32 186.5ZM34.973 182.027L36.027 180.973L32.75 177.696V173H31.25V178.304L34.973 182.027ZM25.7537 167.888L26.8078 168.942L22.9423 172.808L21.8885 171.754L25.7537 167.888ZM38.2463 167.888L42.1115 171.754L41.0578 172.808L37.1923 168.942L38.2463 167.888ZM32 185C33.9437 185 35.5963 184.319 36.9578 182.958C38.3193 181.596 39 179.944 39 178C39 176.056 38.3193 174.404 36.9578 173.042C35.5963 171.681 33.9437 171 32 171C30.0563 171 28.4038 171.681 27.0423 173.042C25.6808 174.404 25 176.056 25 178C25 179.944 25.6808 181.596 27.0423 182.958C28.4038 184.319 30.0563 185 32 185Z" fill="#4D4D4D"/>
</g>
<mask id="mask41_1799_454" style="mask-type:alpha" maskUnits="userSpaceOnUse" x="65" y="165" width="24" height="24">
<rect x="65" y="165" width="24" height="24" fill="#35A8F7"/>
</mask>
<g mask="url(#mask41_1799_454)">
<path d="M77 186.5C75.8205 186.5 74.7154 186.277 73.6848 185.831C72.6539 185.385 71.7552 184.778 70.9885 184.011C70.2218 183.245 69.6154 182.346 69.1693 181.315C68.7231 180.285 68.5 179.179 68.5 178C68.5 176.82 68.7231 175.715 69.1693 174.685C69.6154 173.654 70.2218 172.755 70.9885 171.988C71.7552 171.222 72.6539 170.615 73.6848 170.169C74.7154 169.723 75.8205 169.5 77 169.5C78.1795 169.5 79.2846 169.723 80.3153 170.169C81.3461 170.615 82.2448 171.222 83.0115 171.988C83.7782 172.755 84.3846 173.654 84.8308 174.685C85.2769 175.715 85.5 176.82 85.5 178C85.5 179.179 85.2769 180.285 84.8308 181.315C84.3846 182.346 83.7782 183.245 83.0115 184.011C82.2448 184.778 81.3461 185.385 80.3153 185.831C79.2846 186.277 78.1795 186.5 77 186.5ZM79.973 182.027L81.027 180.973L77.75 177.696V173H76.25V178.304L79.973 182.027ZM70.7537 167.888L71.8078 168.942L67.9423 172.808L66.8885 171.754L70.7537 167.888ZM83.2463 167.888L87.1115 171.754L86.0578 172.808L82.1923 168.942L83.2463 167.888ZM77 185C78.9437 185 80.5963 184.319 81.9578 182.958C83.3193 181.596 84 179.944 84 178C84 176.056 83.3193 174.404 81.9578 173.042C80.5963 171.681 78.9437 171 77 171C75.0563 171 73.4038 171.681 72.0423 173.042C70.6808 174.404 70 176.056 70 178C70 179.944 70.6808 181.596 72.0423 182.958C73.4038 184.319 75.0563 185 77 185Z" fill="#35A8F7"/>
</g>
<mask id="mask42_1799_454" style="mask-type:alpha" maskUnits="userSpaceOnUse" x="112" y="165" width="24" height="24">
<rect x="112" y="165" width="24" height="24" fill="#969696"/>
</mask>
<g mask="url(#mask42_1799_454)">
<path d="M124 186.5C122.82 186.5 121.715 186.277 120.685 185.831C119.654 185.385 118.755 184.778 117.988 184.011C117.222 183.245 116.615 182.346 116.169 181.315C115.723 180.285 115.5 179.179 115.5 178C115.5 176.82 115.723 175.715 116.169 174.685C116.615 173.654 117.222 172.755 117.988 171.988C118.755 171.222 119.654 170.615 120.685 170.169C121.715 169.723 122.82 169.5 124 169.5C125.179 169.5 126.285 169.723 127.315 170.169C128.346 170.615 129.245 171.222 130.011 171.988C130.778 172.755 131.385 173.654 131.831 174.685C132.277 175.715 132.5 176.82 132.5 178C132.5 179.179 132.277 180.285 131.831 181.315C131.385 182.346 130.778 183.245 130.011 184.011C129.245 184.778 128.346 185.385 127.315 185.831C126.285 186.277 125.179 186.5 124 186.5ZM126.973 182.027L128.027 180.973L124.75 177.696V173H123.25V178.304L126.973 182.027ZM117.754 167.888L118.808 168.942L114.942 172.808L113.888 171.754L117.754 167.888ZM130.246 167.888L134.111 171.754L133.058 172.808L129.192 168.942L130.246 167.888ZM124 185C125.944 185 127.596 184.319 128.958 182.958C130.319 181.596 131 179.944 131 178C131 176.056 130.319 174.404 128.958 173.042C127.596 171.681 125.944 171 124 171C122.056 171 120.404 171.681 119.042 173.042C117.681 174.404 117 176.056 117 178C117 179.944 117.681 181.596 119.042 182.958C120.404 184.319 122.056 185 124 185Z" fill="#969696"/>
</g>
<mask id="mask43_1799_454" style="mask-type:alpha" maskUnits="userSpaceOnUse" x="159" y="165" width="24" height="24">
<rect x="159" y="165" width="24" height="24" fill="#FF3B30"/>
</mask>
<g mask="url(#mask43_1799_454)">
<path d="M171 186.5C169.821 186.5 168.715 186.277 167.685 185.831C166.654 185.385 165.755 184.778 164.989 184.011C164.222 183.245 163.615 182.346 163.169 181.315C162.723 180.285 162.5 179.179 162.5 178C162.5 176.82 162.723 175.715 163.169 174.685C163.615 173.654 164.222 172.755 164.989 171.988C165.755 171.222 166.654 170.615 167.685 170.169C168.715 169.723 169.821 169.5 171 169.5C172.18 169.5 173.285 169.723 174.315 170.169C175.346 170.615 176.245 171.222 177.012 171.988C177.778 172.755 178.385 173.654 178.831 174.685C179.277 175.715 179.5 176.82 179.5 178C179.5 179.179 179.277 180.285 178.831 181.315C178.385 182.346 177.778 183.245 177.012 184.011C176.245 184.778 175.346 185.385 174.315 185.831C173.285 186.277 172.18 186.5 171 186.5ZM173.973 182.027L175.027 180.973L171.75 177.696V173H170.25V178.304L173.973 182.027ZM164.754 167.888L165.808 168.942L161.942 172.808L160.889 171.754L164.754 167.888ZM177.246 167.888L181.112 171.754L180.058 172.808L176.192 168.942L177.246 167.888ZM171 185C172.944 185 174.596 184.319 175.958 182.958C177.319 181.596 178 179.944 178 178C178 176.056 177.319 174.404 175.958 173.042C174.596 171.681 172.944 171 171 171C169.056 171 167.404 171.681 166.042 173.042C164.681 174.404 164 176.056 164 178C164 179.944 164.681 181.596 166.042 182.958C167.404 184.319 169.056 185 171 185Z" fill="#FF3B30"/>
</g>
<mask id="mask44_1799_454" style="mask-type:alpha" maskUnits="userSpaceOnUse" x="20" y="302" width="24" height="24">
<rect x="20" y="302" width="24" height="24" fill="#4D4D4D"/>
</mask>
<g mask="url(#mask44_1799_454)">
<path d="M21.7983 321.308V319.084C21.7983 318.569 21.9313 318.109 22.1973 317.705C22.4633 317.3 22.8185 316.985 23.263 316.761C24.2133 316.296 25.1689 315.937 26.1298 315.685C27.0908 315.434 28.1468 315.308 29.298 315.308C30.4493 315.308 31.5054 315.434 32.4663 315.685C33.4273 315.937 34.3829 316.296 35.3333 316.761C35.7778 316.985 36.133 317.3 36.399 317.705C36.665 318.109 36.798 318.569 36.798 319.084V321.308H21.7983ZM38.798 321.308V318.961C38.798 318.305 38.6373 317.679 38.316 317.085C37.9945 316.49 37.5385 315.98 36.948 315.554C37.6185 315.654 38.2551 315.809 38.8578 316.018C39.4603 316.228 40.0353 316.476 40.5828 316.761C41.0994 317.037 41.4984 317.362 41.7798 317.736C42.0611 318.11 42.2018 318.519 42.2018 318.961V321.308H38.798ZM29.298 313.692C28.3355 313.692 27.5116 313.349 26.8263 312.664C26.1409 311.979 25.7983 311.155 25.7983 310.192C25.7983 309.23 26.1409 308.406 26.8263 307.72C27.5116 307.035 28.3355 306.692 29.298 306.692C30.2605 306.692 31.0845 307.035 31.77 307.72C32.4553 308.406 32.798 309.23 32.798 310.192C32.798 311.155 32.4553 311.979 31.77 312.664C31.0845 313.349 30.2605 313.692 29.298 313.692ZM37.9325 310.192C37.9325 311.155 37.5898 311.979 36.9045 312.664C36.2192 313.349 35.3953 313.692 34.4328 313.692C34.3199 313.692 34.1763 313.679 34.002 313.654C33.8275 313.628 33.6839 313.6 33.5713 313.569C33.9656 313.095 34.2687 312.569 34.4805 311.991C34.6922 311.413 34.798 310.813 34.798 310.191C34.798 309.569 34.69 308.971 34.474 308.398C34.258 307.825 33.9571 307.297 33.5713 306.815C33.7148 306.764 33.8583 306.731 34.002 306.715C34.1455 306.7 34.2891 306.692 34.4328 306.692C35.3953 306.692 36.2192 307.035 36.9045 307.72C37.5898 308.406 37.9325 309.23 37.9325 310.192ZM23.298 319.808H35.298V319.084C35.298 318.876 35.2458 318.69 35.1413 318.527C35.0369 318.364 34.8713 318.222 34.6443 318.1C33.8213 317.676 32.9738 317.354 32.102 317.135C31.2302 316.917 30.2955 316.808 29.298 316.808C28.3007 316.808 27.3661 316.917 26.4943 317.135C25.6224 317.354 24.775 317.676 23.952 318.1C23.725 318.222 23.5593 318.364 23.4548 318.527C23.3503 318.69 23.298 318.876 23.298 319.084V319.808ZM29.298 312.192C29.848 312.192 30.3188 311.996 30.7105 311.605C31.1022 311.213 31.298 310.742 31.298 310.192C31.298 309.642 31.1022 309.171 30.7105 308.78C30.3188 308.388 29.848 308.192 29.298 308.192C28.748 308.192 28.2772 308.388 27.8855 308.78C27.4938 309.171 27.298 309.642 27.298 310.192C27.298 310.742 27.4938 311.213 27.8855 311.605C28.2772 311.996 28.748 312.192 29.298 312.192Z" fill="#4D4D4D"/>
</g>
<mask id="mask45_1799_454" style="mask-type:alpha" maskUnits="userSpaceOnUse" x="65" y="302" width="24" height="24">
<rect x="65" y="302" width="24" height="24" fill="#35A8F7"/>
</mask>
<g mask="url(#mask45_1799_454)">
<path d="M66.7982 321.308V319.084C66.7982 318.569 66.9312 318.109 67.1972 317.705C67.4632 317.3 67.8185 316.985 68.263 316.761C69.2133 316.296 70.1689 315.937 71.1297 315.685C72.0907 315.434 73.1468 315.308 74.298 315.308C75.4493 315.308 76.5054 315.434 77.4662 315.685C78.4272 315.937 79.3829 316.296 80.3333 316.761C80.7778 316.985 81.133 317.3 81.399 317.705C81.665 318.109 81.798 318.569 81.798 319.084V321.308H66.7982ZM83.798 321.308V318.961C83.798 318.305 83.6373 317.679 83.316 317.085C82.9945 316.49 82.5385 315.98 81.948 315.554C82.6185 315.654 83.2551 315.809 83.8577 316.018C84.4603 316.228 85.0352 316.476 85.5828 316.761C86.0994 317.037 86.4984 317.362 86.7798 317.736C87.0611 318.11 87.2017 318.519 87.2017 318.961V321.308H83.798ZM74.298 313.692C73.3355 313.692 72.5116 313.349 71.8262 312.664C71.1409 311.979 70.7982 311.155 70.7982 310.192C70.7982 309.23 71.1409 308.406 71.8262 307.72C72.5116 307.035 73.3355 306.692 74.298 306.692C75.2605 306.692 76.0845 307.035 76.77 307.72C77.4553 308.406 77.798 309.23 77.798 310.192C77.798 311.155 77.4553 311.979 76.77 312.664C76.0845 313.349 75.2605 313.692 74.298 313.692ZM82.9325 310.192C82.9325 311.155 82.5898 311.979 81.9045 312.664C81.2192 313.349 80.3953 313.692 79.4327 313.692C79.3199 313.692 79.1763 313.679 79.002 313.654C78.8275 313.628 78.6839 313.6 78.5712 313.569C78.9656 313.095 79.2687 312.569 79.4805 311.991C79.6922 311.413 79.798 310.813 79.798 310.191C79.798 309.569 79.69 308.971 79.474 308.398C79.258 307.825 78.9571 307.297 78.5712 306.815C78.7147 306.764 78.8583 306.731 79.002 306.715C79.1455 306.7 79.2891 306.692 79.4327 306.692C80.3953 306.692 81.2192 307.035 81.9045 307.72C82.5898 308.406 82.9325 309.23 82.9325 310.192ZM68.298 319.808H80.298V319.084C80.298 318.876 80.2458 318.69 80.1413 318.527C80.0369 318.364 79.8713 318.222 79.6442 318.1C78.8212 317.676 77.9738 317.354 77.102 317.135C76.2302 316.917 75.2955 316.808 74.298 316.808C73.3007 316.808 72.3661 316.917 71.4942 317.135C70.6224 317.354 69.775 317.676 68.952 318.1C68.725 318.222 68.5592 318.364 68.4547 318.527C68.3502 318.69 68.298 318.876 68.298 319.084V319.808ZM74.298 312.192C74.848 312.192 75.3188 311.996 75.7105 311.605C76.1022 311.213 76.298 310.742 76.298 310.192C76.298 309.642 76.1022 309.171 75.7105 308.78C75.3188 308.388 74.848 308.192 74.298 308.192C73.748 308.192 73.2772 308.388 72.8855 308.78C72.4938 309.171 72.298 309.642 72.298 310.192C72.298 310.742 72.4938 311.213 72.8855 311.605C73.2772 311.996 73.748 312.192 74.298 312.192Z" fill="#35A8F7"/>
</g>
<mask id="mask46_1799_454" style="mask-type:alpha" maskUnits="userSpaceOnUse" x="112" y="302" width="24" height="24">
<rect x="112" y="302" width="24" height="24" fill="#969696"/>
</mask>
<g mask="url(#mask46_1799_454)">
<path d="M113.798 321.308V319.084C113.798 318.569 113.931 318.109 114.197 317.705C114.463 317.3 114.818 316.985 115.263 316.761C116.213 316.296 117.169 315.937 118.13 315.685C119.091 315.434 120.147 315.308 121.298 315.308C122.449 315.308 123.505 315.434 124.466 315.685C125.427 315.937 126.383 316.296 127.333 316.761C127.778 316.985 128.133 317.3 128.399 317.705C128.665 318.109 128.798 318.569 128.798 319.084V321.308H113.798ZM130.798 321.308V318.961C130.798 318.305 130.637 317.679 130.316 317.085C129.994 316.49 129.538 315.98 128.948 315.554C129.618 315.654 130.255 315.809 130.858 316.018C131.46 316.228 132.035 316.476 132.583 316.761C133.099 317.037 133.498 317.362 133.78 317.736C134.061 318.11 134.202 318.519 134.202 318.961V321.308H130.798ZM121.298 313.692C120.335 313.692 119.512 313.349 118.826 312.664C118.141 311.979 117.798 311.155 117.798 310.192C117.798 309.23 118.141 308.406 118.826 307.72C119.512 307.035 120.335 306.692 121.298 306.692C122.26 306.692 123.084 307.035 123.77 307.72C124.455 308.406 124.798 309.23 124.798 310.192C124.798 311.155 124.455 311.979 123.77 312.664C123.084 313.349 122.26 313.692 121.298 313.692ZM129.932 310.192C129.932 311.155 129.59 311.979 128.905 312.664C128.219 313.349 127.395 313.692 126.433 313.692C126.32 313.692 126.176 313.679 126.002 313.654C125.827 313.628 125.684 313.6 125.571 313.569C125.966 313.095 126.269 312.569 126.48 311.991C126.692 311.413 126.798 310.813 126.798 310.191C126.798 309.569 126.69 308.971 126.474 308.398C126.258 307.825 125.957 307.297 125.571 306.815C125.715 306.764 125.858 306.731 126.002 306.715C126.146 306.7 126.289 306.692 126.433 306.692C127.395 306.692 128.219 307.035 128.905 307.72C129.59 308.406 129.932 309.23 129.932 310.192ZM115.298 319.808H127.298V319.084C127.298 318.876 127.246 318.69 127.141 318.527C127.037 318.364 126.871 318.222 126.644 318.1C125.821 317.676 124.974 317.354 124.102 317.135C123.23 316.917 122.295 316.808 121.298 316.808C120.301 316.808 119.366 316.917 118.494 317.135C117.622 317.354 116.775 317.676 115.952 318.1C115.725 318.222 115.559 318.364 115.455 318.527C115.35 318.69 115.298 318.876 115.298 319.084V319.808ZM121.298 312.192C121.848 312.192 122.319 311.996 122.71 311.605C123.102 311.213 123.298 310.742 123.298 310.192C123.298 309.642 123.102 309.171 122.71 308.78C122.319 308.388 121.848 308.192 121.298 308.192C120.748 308.192 120.277 308.388 119.885 308.78C119.494 309.171 119.298 309.642 119.298 310.192C119.298 310.742 119.494 311.213 119.885 311.605C120.277 311.996 120.748 312.192 121.298 312.192Z" fill="#969696"/>
</g>
<mask id="mask47_1799_454" style="mask-type:alpha" maskUnits="userSpaceOnUse" x="159" y="302" width="24" height="24">
<rect x="159" y="302" width="24" height="24" fill="#FF3B30"/>
</mask>
<g mask="url(#mask47_1799_454)">
<path d="M160.798 321.308V319.084C160.798 318.569 160.931 318.109 161.197 317.705C161.463 317.3 161.818 316.985 162.263 316.761C163.213 316.296 164.169 315.937 165.13 315.685C166.091 315.434 167.147 315.308 168.298 315.308C169.449 315.308 170.505 315.434 171.466 315.685C172.427 315.937 173.383 316.296 174.333 316.761C174.778 316.985 175.133 317.3 175.399 317.705C175.665 318.109 175.798 318.569 175.798 319.084V321.308H160.798ZM177.798 321.308V318.961C177.798 318.305 177.637 317.679 177.316 317.085C176.994 316.49 176.538 315.98 175.948 315.554C176.618 315.654 177.255 315.809 177.858 316.018C178.46 316.228 179.035 316.476 179.583 316.761C180.099 317.037 180.498 317.362 180.78 317.736C181.061 318.11 181.202 318.519 181.202 318.961V321.308H177.798ZM168.298 313.692C167.335 313.692 166.512 313.349 165.826 312.664C165.141 311.979 164.798 311.155 164.798 310.192C164.798 309.23 165.141 308.406 165.826 307.72C166.512 307.035 167.335 306.692 168.298 306.692C169.26 306.692 170.084 307.035 170.77 307.72C171.455 308.406 171.798 309.23 171.798 310.192C171.798 311.155 171.455 311.979 170.77 312.664C170.084 313.349 169.26 313.692 168.298 313.692ZM176.932 310.192C176.932 311.155 176.59 311.979 175.905 312.664C175.219 313.349 174.395 313.692 173.433 313.692C173.32 313.692 173.176 313.679 173.002 313.654C172.827 313.628 172.684 313.6 172.571 313.569C172.966 313.095 173.269 312.569 173.48 311.991C173.692 311.413 173.798 310.813 173.798 310.191C173.798 309.569 173.69 308.971 173.474 308.398C173.258 307.825 172.957 307.297 172.571 306.815C172.715 306.764 172.858 306.731 173.002 306.715C173.146 306.7 173.289 306.692 173.433 306.692C174.395 306.692 175.219 307.035 175.905 307.72C176.59 308.406 176.932 309.23 176.932 310.192ZM162.298 319.808H174.298V319.084C174.298 318.876 174.246 318.69 174.141 318.527C174.037 318.364 173.871 318.222 173.644 318.1C172.821 317.676 171.974 317.354 171.102 317.135C170.23 316.917 169.295 316.808 168.298 316.808C167.301 316.808 166.366 316.917 165.494 317.135C164.622 317.354 163.775 317.676 162.952 318.1C162.725 318.222 162.559 318.364 162.455 318.527C162.35 318.69 162.298 318.876 162.298 319.084V319.808ZM168.298 312.192C168.848 312.192 169.319 311.996 169.71 311.605C170.102 311.213 170.298 310.742 170.298 310.192C170.298 309.642 170.102 309.171 169.71 308.78C169.319 308.388 168.848 308.192 168.298 308.192C167.748 308.192 167.277 308.388 166.885 308.78C166.494 309.171 166.298 309.642 166.298 310.192C166.298 310.742 166.494 311.213 166.885 311.605C167.277 311.996 167.748 312.192 168.298 312.192Z" fill="#FF3B30"/>
</g>
<mask id="mask48_1799_454" style="mask-type:alpha" maskUnits="userSpaceOnUse" x="20" y="267" width="24" height="24">
<rect x="20" y="267" width="24" height="24" fill="#4D4D4D"/>
</mask>
<g mask="url(#mask48_1799_454)">
<path d="M32.0017 278.865C32.4992 278.865 32.9246 278.688 33.2777 278.334C33.6311 277.979 33.8078 277.554 33.8078 277.056C33.8078 276.558 33.6306 276.133 33.2762 275.78C32.9219 275.427 32.4959 275.25 31.9982 275.25C31.5007 275.25 31.0754 275.427 30.7223 275.782C30.3689 276.136 30.1923 276.562 30.1923 277.06C30.1923 277.557 30.3694 277.982 30.7238 278.336C31.0781 278.689 31.5041 278.865 32.0017 278.865ZM32 286.514C33.9563 284.762 35.4534 283.082 36.4913 281.474C37.5291 279.866 38.048 278.457 38.048 277.248C38.048 275.425 37.4688 273.926 36.3105 272.752C35.1522 271.578 33.7153 270.99 32 270.99C30.2847 270.99 28.8478 271.578 27.6895 272.752C26.5312 273.926 25.952 275.425 25.952 277.248C25.952 278.457 26.4709 279.866 27.5088 281.474C28.5466 283.082 30.0437 284.762 32 286.514ZM32 288.51C29.4833 286.329 27.5962 284.299 26.3385 282.421C25.0808 280.543 24.452 278.818 24.452 277.248C24.452 274.94 25.1984 273.072 26.6913 271.643C28.1843 270.214 29.9538 269.5 32 269.5C34.0462 269.5 35.8157 270.214 37.3087 271.643C38.8016 273.072 39.548 274.94 39.548 277.248C39.548 278.818 38.9192 280.543 37.6615 282.421C36.4038 284.299 34.5167 286.329 32 288.51Z" fill="#4D4D4D"/>
</g>
<mask id="mask49_1799_454" style="mask-type:alpha" maskUnits="userSpaceOnUse" x="65" y="267" width="24" height="24">
<rect x="65" y="267" width="24" height="24" fill="#35A8F7"/>
</mask>
<g mask="url(#mask49_1799_454)">
<path d="M77.0017 278.865C77.4992 278.865 77.9246 278.688 78.2777 278.334C78.6311 277.979 78.8077 277.554 78.8077 277.056C78.8077 276.558 78.6306 276.133 78.2762 275.78C77.9219 275.427 77.4959 275.25 76.9982 275.25C76.5007 275.25 76.0754 275.427 75.7222 275.782C75.3689 276.136 75.1922 276.562 75.1922 277.06C75.1922 277.557 75.3694 277.982 75.7238 278.336C76.0781 278.689 76.5041 278.865 77.0017 278.865ZM77 286.514C78.9563 284.762 80.4534 283.082 81.4913 281.474C82.5291 279.866 83.048 278.457 83.048 277.248C83.048 275.425 82.4688 273.926 81.3105 272.752C80.1522 271.578 78.7153 270.99 77 270.99C75.2847 270.99 73.8478 271.578 72.6895 272.752C71.5312 273.926 70.952 275.425 70.952 277.248C70.952 278.457 71.4709 279.866 72.5087 281.474C73.5466 283.082 75.0437 284.762 77 286.514ZM77 288.51C74.4833 286.329 72.5962 284.299 71.3385 282.421C70.0808 280.543 69.452 278.818 69.452 277.248C69.452 274.94 70.1984 273.072 71.6912 271.643C73.1842 270.214 74.9538 269.5 77 269.5C79.0462 269.5 80.8157 270.214 82.3087 271.643C83.8016 273.072 84.548 274.94 84.548 277.248C84.548 278.818 83.9192 280.543 82.6615 282.421C81.4038 284.299 79.5167 286.329 77 288.51Z" fill="#35A8F7"/>
</g>
<mask id="mask50_1799_454" style="mask-type:alpha" maskUnits="userSpaceOnUse" x="112" y="267" width="24" height="24">
<rect x="112" y="267" width="24" height="24" fill="#969696"/>
</mask>
<g mask="url(#mask50_1799_454)">
<path d="M124.002 278.865C124.499 278.865 124.925 278.688 125.278 278.334C125.631 277.979 125.808 277.554 125.808 277.056C125.808 276.558 125.631 276.133 125.276 275.78C124.922 275.427 124.496 275.25 123.998 275.25C123.501 275.25 123.075 275.427 122.722 275.782C122.369 276.136 122.192 276.562 122.192 277.06C122.192 277.557 122.369 277.982 122.724 278.336C123.078 278.689 123.504 278.865 124.002 278.865ZM124 286.514C125.956 284.762 127.453 283.082 128.491 281.474C129.529 279.866 130.048 278.457 130.048 277.248C130.048 275.425 129.469 273.926 128.311 272.752C127.152 271.578 125.715 270.99 124 270.99C122.285 270.99 120.848 271.578 119.69 272.752C118.531 273.926 117.952 275.425 117.952 277.248C117.952 278.457 118.471 279.866 119.509 281.474C120.547 283.082 122.044 284.762 124 286.514ZM124 288.51C121.483 286.329 119.596 284.299 118.339 282.421C117.081 280.543 116.452 278.818 116.452 277.248C116.452 274.94 117.198 273.072 118.691 271.643C120.184 270.214 121.954 269.5 124 269.5C126.046 269.5 127.816 270.214 129.309 271.643C130.802 273.072 131.548 274.94 131.548 277.248C131.548 278.818 130.919 280.543 129.662 282.421C128.404 284.299 126.517 286.329 124 288.51Z" fill="#969696"/>
</g>
<mask id="mask51_1799_454" style="mask-type:alpha" maskUnits="userSpaceOnUse" x="159" y="267" width="24" height="24">
<rect x="159" y="267" width="24" height="24" fill="#FF3B30"/>
</mask>
<g mask="url(#mask51_1799_454)">
<path d="M171.002 278.865C171.499 278.865 171.925 278.688 172.278 278.334C172.631 277.979 172.808 277.554 172.808 277.056C172.808 276.558 172.631 276.133 172.276 275.78C171.922 275.427 171.496 275.25 170.998 275.25C170.501 275.25 170.075 275.427 169.722 275.782C169.369 276.136 169.192 276.562 169.192 277.06C169.192 277.557 169.369 277.982 169.724 278.336C170.078 278.689 170.504 278.865 171.002 278.865ZM171 286.514C172.956 284.762 174.453 283.082 175.491 281.474C176.529 279.866 177.048 278.457 177.048 277.248C177.048 275.425 176.469 273.926 175.31 272.752C174.152 271.578 172.715 270.99 171 270.99C169.285 270.99 167.848 271.578 166.689 272.752C165.531 273.926 164.952 275.425 164.952 277.248C164.952 278.457 165.471 279.866 166.509 281.474C167.547 283.082 169.044 284.762 171 286.514ZM171 288.51C168.483 286.329 166.596 284.299 165.338 282.421C164.081 280.543 163.452 278.818 163.452 277.248C163.452 274.94 164.198 273.072 165.691 271.643C167.184 270.214 168.954 269.5 171 269.5C173.046 269.5 174.816 270.214 176.309 271.643C177.802 273.072 178.548 274.94 178.548 277.248C178.548 278.818 177.919 280.543 176.661 282.421C175.404 284.299 173.517 286.329 171 288.51Z" fill="#FF3B30"/>
</g>
<mask id="mask52_1799_454" style="mask-type:alpha" maskUnits="userSpaceOnUse" x="20" y="374" width="24" height="24">
<rect x="20" y="374" width="24" height="24" fill="#4D4D4D"/>
</mask>
<g mask="url(#mask52_1799_454)">
<path d="M26.4 392.654L25.3463 391.6L30.9462 386L25.3463 380.4L26.4 379.346L32 384.946L37.6 379.346L38.6538 380.4L33.0538 386L38.6538 391.6L37.6 392.654L32 387.054L26.4 392.654Z" fill="#4D4D4D"/>
</g>
<mask id="mask53_1799_454" style="mask-type:alpha" maskUnits="userSpaceOnUse" x="65" y="374" width="24" height="24">
<rect x="65" y="374" width="24" height="24" fill="#35A8F7"/>
</mask>
<g mask="url(#mask53_1799_454)">
<path d="M71.4 392.654L70.3462 391.6L75.9462 386L70.3462 380.4L71.4 379.346L77 384.946L82.6 379.346L83.6538 380.4L78.0537 386L83.6538 391.6L82.6 392.654L77 387.054L71.4 392.654Z" fill="#35A8F7"/>
</g>
<mask id="mask54_1799_454" style="mask-type:alpha" maskUnits="userSpaceOnUse" x="112" y="374" width="24" height="24">
<rect x="112" y="374" width="24" height="24" fill="#969696"/>
</mask>
<g mask="url(#mask54_1799_454)">
<path d="M118.4 392.654L117.346 391.6L122.946 386L117.346 380.4L118.4 379.346L124 384.946L129.6 379.346L130.654 380.4L125.054 386L130.654 391.6L129.6 392.654L124 387.054L118.4 392.654Z" fill="#969696"/>
</g>
<mask id="mask55_1799_454" style="mask-type:alpha" maskUnits="userSpaceOnUse" x="159" y="374" width="24" height="24">
<rect x="159" y="374" width="24" height="24" fill="#FF3B30"/>
</mask>
<g mask="url(#mask55_1799_454)">
<path d="M165.4 392.654L164.346 391.6L169.946 386L164.346 380.4L165.4 379.346L171 384.946L176.6 379.346L177.654 380.4L172.054 386L177.654 391.6L176.6 392.654L171 387.054L165.4 392.654Z" fill="#FF3B30"/>
</g>
<mask id="mask56_1799_454" style="mask-type:alpha" maskUnits="userSpaceOnUse" x="20" y="510" width="24" height="24">
<rect x="20" y="510" width="24" height="24" fill="#4D4D4D"/>
</mask>
<g mask="url(#mask56_1799_454)">
<path d="M35.6538 531.308L26 521.654L35.6538 512L37.073 513.419L28.8382 521.654L37.073 529.888L35.6538 531.308Z" fill="#4D4D4D"/>
</g>
<mask id="mask57_1799_454" style="mask-type:alpha" maskUnits="userSpaceOnUse" x="65" y="510" width="24" height="24">
<rect x="65" y="510" width="24" height="24" fill="#35A8F7"/>
</mask>
<g mask="url(#mask57_1799_454)">
<path d="M80.6538 531.308L71 521.654L80.6538 512L82.073 513.419L73.8382 521.654L82.073 529.888L80.6538 531.308Z" fill="#35A8F7"/>
</g>
<mask id="mask58_1799_454" style="mask-type:alpha" maskUnits="userSpaceOnUse" x="112" y="510" width="24" height="24">
<rect x="112" y="510" width="24" height="24" fill="#969696"/>
</mask>
<g mask="url(#mask58_1799_454)">
<path d="M127.654 531.308L118 521.654L127.654 512L129.073 513.419L120.838 521.654L129.073 529.888L127.654 531.308Z" fill="#969696"/>
</g>
<mask id="mask59_1799_454" style="mask-type:alpha" maskUnits="userSpaceOnUse" x="159" y="510" width="24" height="24">
<rect x="159" y="510" width="24" height="24" fill="#FF3B30"/>
</mask>
<g mask="url(#mask59_1799_454)">
<path d="M174.654 531.308L165 521.654L174.654 512L176.073 513.419L167.838 521.654L176.073 529.888L174.654 531.308Z" fill="#FF3B30"/>
</g>
</svg>
